<?xml version="1.0" encoding="utf-8"?>
<!-- Generator: Adobe Illustrator 24.0.1, SVG Export Plug-In . SVG Version: 6.00 Build 0)  -->
<svg version="1.1" id="Layer_1" xmlns="http://www.w3.org/2000/svg" xmlns:xlink="http://www.w3.org/1999/xlink" x="0px" y="0px"
	 viewBox="0 0 225 225" style="enable-background:new 0 0 225 225;" xml:space="preserve">
<style type="text/css">
	.st0{display:none;}
	.st1{display:inline;}
	.st2{opacity:0.08;}
	.st3{fill:#7E7E7E;}
	.st4{fill:#698A7E;}
	.st5{opacity:0.08;fill:#698A7E;enable-background:new    ;}
	.st6{fill:#6A8A80;}
	.st7{fill:none;}
	.st8{fill:#FFFFFF;}
	.st9{fill:#9D9E9E;}
	.st10{fill:#3D5B2E;}
</style>
<g id="Layer_1_2_" class="st0">
	<g id="Layer_1_1_" class="st1">
		<g id="VNr6mR_1_" class="st2">
			<g>
				<path class="st3" d="M188.11,104.36c-0.72,5.01-1.36,10.04-2.18,15.03c-2.06,12.58-9.68,21.52-19.22,29.23
					c-6.8,5.49-13.47,11.15-20.28,16.64c-1.76,1.42-2.69,2.63-2.3,5.21c1.33,8.67-0.59,16.3-7.43,22.55
					c-4.89,4.47-9.1,9.68-13.73,14.44c-3.23,3.32-4.94,2.84-5.96-1.65c-1.56-6.88-2.94-13.8-4.41-20.74
					c-3.52-0.54-6.95,3.38-10.11-0.72c-4.95,8.36-9.66,16.31-14.37,24.26c-0.27-0.06-0.54-0.11-0.8-0.17
					c-0.34-3.28-0.68-6.56-1.11-10.77c-13.93,11.64-27.33,22.85-40.74,34.05c-0.12-0.11-0.24-0.22-0.36-0.32
					c6.68-11.38,13.36-22.77,20.44-34.82c-7.47,1.51-14.14,2.86-20.81,4.2c-0.14-0.2-0.27-0.39-0.41-0.59
					c9.01-7.55,18.03-15.11,27.85-23.34c-4.12,0-7.23,0-10.34,0c-0.06-0.26-0.13-0.52-0.19-0.78c6.75-3.86,13.51-7.71,19.43-11.09
					c0.19-3.77,0.35-6.93,0.53-10.59c-5.26-1.11-10.82-2.28-16.39-3.47c-1.84-0.39-3.69-0.72-5.48-1.26
					c-2.81-0.84-3.33-2.53-1.3-4.46c6.65-6.34,13.38-12.61,20.1-18.87c3.72-3.46,8.42-4.08,13.06-3.46
					c5.99,0.81,9.86-1.09,13.47-6.1c5.36-7.43,11.87-14.01,17.68-21.13c7.7-9.43,18-13.58,29.63-15.24c3.27-0.47,6.54-0.87,9.81-1.3
					c3.99,0,7.98,0,11.97,0c2.96,1.24,6.13,2.14,8.83,3.8c3.61,2.23,4.27,6.33,5.13,10.16C188.11,96.83,188.11,100.59,188.11,104.36
					z M115.29,177.75c18.42-14.44,36.99-28.05,53.62-44.01c1.42-1.36,2.75-2.96,3.65-4.69c5.92-11.39,6.64-23.68,5.79-36.16
					c-0.18-2.67-1.77-4.4-4.86-4.27c-5.74,0.25-11.52,0.05-17.24,0.58c-10.79,1-20.33,4.66-27.42,13.52
					c-12.78,15.98-25.77,31.79-38.65,47.69c-0.31,0.38-0.43,0.92-0.66,1.44C100.73,157.79,109.32,166.12,115.29,177.75z
					 M70.12,187.43c0.09,0.14,0.18,0.29,0.28,0.43c4.14-1.48,8.28-2.97,12.93-4.63c-1.15,3.5-2.08,6.33-3.25,9.9
					c4.11-2.65,7.48-4.82,10.98-7.07c0.12,1.03,0.19,1.71,0.32,2.85c3.42-3.49,6.51-6.64,9.67-9.87c-2.63-4.76-6.12-8.7-10.65-11.62
					c-0.85-0.55-2.37-0.85-3.22-0.47c-3,1.33-5.85,3.01-9.14,4.77c1.85,0.77,3.22,1.34,4.9,2.04
					C78.53,178.45,74.33,182.93,70.12,187.43z M111.13,179.93c-5.55-10.9-13.28-18.9-24.43-24.11c-0.43,1.64-0.77,2.94-1.14,4.37
					c10.52,3.83,17.46,10.92,21.25,21.19C108.34,180.87,109.54,180.47,111.13,179.93z"/>
				<path class="st3" d="M147.76,138.5c-10.72,0.04-19.5-8.64-19.47-19.25s8.8-19.41,19.41-19.47c10.57-0.06,19.38,8.73,19.44,19.4
					C167.2,129.84,158.56,138.46,147.76,138.5z M133.1,119.19c-0.02,8.4,6.57,15.09,14.78,15c8.17-0.09,14.67-6.63,14.76-14.85
					c0.08-8.25-6.66-14.99-14.95-14.96C139.45,104.44,133.12,110.86,133.1,119.19z"/>
			</g>
		</g>
		<g id="VNr6mR_2_">
			<g>
				<path class="st4" d="M188.11,103.7c-0.72,5.01-1.36,10.04-2.18,15.03c-2.06,12.58-9.68,21.52-19.22,29.23
					c-6.8,5.49-13.47,11.15-20.28,16.64c-1.76,1.42-2.69,2.63-2.3,5.21c1.33,8.67-0.59,16.3-7.43,22.55
					c-4.89,4.47-9.1,9.68-13.73,14.44c-3.23,3.32-4.94,2.84-5.96-1.65c-1.56-6.88-2.94-13.8-4.41-20.74
					c-3.52-0.54-6.95,3.38-10.11-0.72c-4.95,8.36-9.66,16.31-14.37,24.26c-0.27-0.06-0.54-0.11-0.8-0.17
					c-0.34-3.28-0.68-6.56-1.11-10.77c-13.93,11.64-27.33,22.85-40.74,34.05c-0.12-0.11-0.24-0.22-0.36-0.32
					c6.68-11.38,13.36-22.77,20.44-34.82c-7.47,1.51-14.14,2.86-20.81,4.2c-0.14-0.2-0.27-0.39-0.41-0.59
					c9.01-7.55,18.03-15.11,27.85-23.34c-4.12,0-7.23,0-10.34,0c-0.06-0.26-0.13-0.52-0.19-0.78c6.75-3.86,13.51-7.71,19.43-11.09
					c0.19-3.77,0.35-6.93,0.53-10.59c-5.26-1.11-10.82-2.28-16.39-3.47c-1.84-0.39-3.69-0.72-5.48-1.26
					c-2.81-0.84-3.33-2.53-1.3-4.46c6.65-6.34,13.38-12.61,20.1-18.87c3.72-3.46,8.42-4.08,13.06-3.46
					c5.99,0.81,9.86-1.09,13.47-6.1c5.37-7.43,11.89-14.01,17.69-21.13c7.69-9.43,17.99-13.58,29.62-15.24
					c3.27-0.47,6.54-0.87,9.81-1.3c3.99,0,7.98,0,11.97,0c2.96,1.24,6.13,2.14,8.83,3.8c3.61,2.23,4.27,6.33,5.13,10.16
					C188.11,96.16,188.11,99.93,188.11,103.7z M115.29,177.09c18.42-14.44,36.99-28.05,53.62-44.01c1.42-1.36,2.75-2.96,3.65-4.69
					c5.92-11.39,6.64-23.68,5.79-36.16c-0.18-2.67-1.77-4.4-4.86-4.27c-5.74,0.25-11.52,0.05-17.24,0.58
					c-10.79,1-20.33,4.66-27.42,13.52c-12.78,15.98-25.77,31.79-38.65,47.69c-0.31,0.38-0.43,0.92-0.66,1.44
					C100.73,157.12,109.32,165.46,115.29,177.09z M70.12,186.76c0.09,0.14,0.18,0.29,0.28,0.43c4.14-1.48,8.28-2.97,12.93-4.63
					c-1.15,3.5-2.08,6.33-3.25,9.9c4.11-2.65,7.48-4.82,10.98-7.07c0.12,1.03,0.19,1.71,0.32,2.85c3.42-3.49,6.51-6.64,9.67-9.87
					c-2.63-4.76-6.12-8.7-10.65-11.62c-0.85-0.55-2.37-0.85-3.22-0.47c-3,1.33-5.85,3.01-9.14,4.77c1.85,0.77,3.22,1.34,4.9,2.04
					C78.53,177.79,74.33,182.28,70.12,186.76z M111.13,179.26c-5.55-10.9-13.28-18.9-24.43-24.11c-0.43,1.64-0.77,2.94-1.14,4.37
					c10.52,3.83,17.46,10.92,21.25,21.19C108.34,180.21,109.54,179.81,111.13,179.26z"/>
				<path class="st4" d="M147.76,137.84c-10.72,0.04-19.5-8.64-19.47-19.25s8.8-19.41,19.41-19.47c10.57-0.06,19.38,8.73,19.44,19.4
					C167.2,129.18,158.56,137.79,147.76,137.84z M133.1,118.54c-0.02,8.4,6.57,15.09,14.78,15c8.17-0.09,14.67-6.63,14.76-14.85
					c0.08-8.25-6.66-14.99-14.95-14.96C139.45,103.77,133.12,110.2,133.1,118.54z"/>
			</g>
		</g>
	</g>
	<g id="Layer_2_1_" class="st1">
		<g>
			<path class="st5" d="M493.19,236.76h-16v16h-16v16h16v16h16v-16h16v-16h-16V236.76z"/>
			<path class="st5" d="M717.19,124.76v-80h-40V14.65l20.95-41.89h-89.9l20.95,41.89v30.11h-20.45c-5.55-9.52-15.76-16-27.55-16
				h-128c-17.65,0-32,14.35-32,32h-40v-32h-120c-22.05,0-40,17.95-40,40v8h88v16h-88v8c0,22.05,17.95,40,40,40h120v-32h40
				c0,17.65,14.35,32,32,32h5.12l-26.48,84.75c-6.71,10.11-10.64,22.22-10.64,35.25c0,35.29,28.71,64,64,64
				c3.16,0,6.25-0.3,9.29-0.75l12.95,64.75h-11.19l-16,32h-19.05v48h256v-48h-19.05l-16-32h-12.95v-60.53l-118.8-71.28l29.04-116.19
				h1.76c11.79,0,22-6.48,27.55-16h20.45v22.11l-20.95,41.89h89.89l-20.95-41.89v-22.11C677.18,124.76,717.19,124.76,717.19,124.76z
				 M238.55,60.76c3.3-9.31,12.2-16,22.63-16h104v16H238.55z M365.19,124.76h-104c-10.43,0-19.33-6.69-22.63-16h126.63V124.76z
				 M381.19,92.76h-56v-16h96v16H381.19z M437.19,260.76c0-26.47,21.53-48,48-48s48,21.53,48,48s-21.53,48-48,48
				S437.19,287.24,437.19,260.76z M547.78,274.05l52.84,31.7l-85.58,39.5l-5.09-25.48C529.02,311.74,543.39,294.71,547.78,274.05z
				 M616.07,315.02l27.79,16.68l-120.8,53.69l-4.8-24.01l98.27-45.35L616.07,315.02z M701.19,452.76h-224v-16h224V452.76z
				 M680.24,420.76H498.13l8-16h166.11L680.24,420.76z M554.88,388.76l98.3-43.69v43.69H554.88z M540.82,229.24
				c-11.02-19.37-31.8-32.49-55.63-32.49c-10.82,0-21.02,2.72-29.96,7.49l19.84-63.49h87.88L540.82,229.24z M597.19,108.76
				c0,8.82-7.18,16-16,16h-128c-8.82,0-16-7.18-16-16v-48c0-8.82,7.18-16,16-16h128c8.82,0,16,7.18,16,16V108.76z M672.24-11.24
				l-8,16h-22.11l-8-16H672.24z M645.19,20.76h16v24h-16V20.76z M701.19,60.76v16h-88v-16C613.19,60.76,701.19,60.76,701.19,60.76z
				 M613.19,92.76h88v16h-88V92.76z M634.13,172.76l8-16h22.11l8,16H634.13z M661.19,140.76h-16v-16h16V140.76z"/>
			<path class="st5" d="M485.19,60.76c-13.23,0-24,10.77-24,24s10.77,24,24,24s24-10.77,24-24S498.42,60.76,485.19,60.76z
				 M485.19,92.76c-4.41,0-8-3.59-8-8c0-4.41,3.59-8,8-8s8,3.59,8,8C493.19,89.17,489.6,92.76,485.19,92.76z"/>
			<path class="st5" d="M549.19,60.76c-13.23,0-24,10.77-24,24s10.77,24,24,24s24-10.77,24-24S562.42,60.76,549.19,60.76z
				 M549.19,92.76c-4.41,0-8-3.59-8-8c0-4.41,3.59-8,8-8s8,3.59,8,8C557.19,89.17,553.6,92.76,549.19,92.76z"/>
			<path class="st5" d="M388.61,336.86l12.94-15.5l-32.97-32.98l-15.5,12.95c-3.48-1.75-7.08-3.24-10.78-4.46l-1.8-20.11h-46.62
				l-1.81,20.12c-3.7,1.22-7.3,2.71-10.78,4.46l-15.5-12.95l-32.97,32.98l12.94,15.5c-1.75,3.47-3.24,7.07-4.46,10.77l-20.11,1.8
				v46.62l20.12,1.81c1.21,3.7,2.71,7.3,4.46,10.77l-12.95,15.5l32.97,32.98l15.5-12.95c3.48,1.75,7.08,3.24,10.78,4.46l1.79,20.11
				h46.62l1.81-20.12c3.7-1.22,7.3-2.71,10.78-4.46l15.5,12.95l32.97-32.98l-12.94-15.5c1.75-3.47,3.24-7.07,4.46-10.77l20.11-1.8
				v-46.62l-20.12-1.81C391.85,343.93,390.35,340.33,388.61,336.86z M397.19,381.45l-16.63,1.5l-1.39,5.5
				c-1.51,6.01-3.89,11.75-7.07,17.05l-2.91,4.88l10.71,12.82l-12.28,12.29l-12.83-10.72l-4.87,2.91
				c-5.29,3.17-11.03,5.55-17.05,7.07l-5.5,1.39l-1.49,16.63H308.5l-1.5-16.63l-5.5-1.39c-6.02-1.52-11.76-3.9-17.05-7.07
				l-4.86-2.91l-12.83,10.71l-12.28-12.29l10.71-12.82l-2.91-4.88c-3.17-5.3-5.55-11.04-7.07-17.05l-1.39-5.5l-16.63-1.5v-17.38
				l16.63-1.5l1.39-5.5c1.51-6.01,3.89-11.75,7.07-17.05l2.91-4.88l-10.71-12.82l12.28-12.29l12.83,10.72l4.87-2.91
				c5.29-3.17,11.03-5.55,17.05-7.07l5.5-1.39l1.49-16.63h17.38l1.5,16.63l5.5,1.39c6.02,1.52,11.76,3.9,17.05,7.07l4.86,2.91
				l12.83-10.71l12.28,12.29l-10.71,12.82l2.91,4.88c3.17,5.3,5.55,11.04,7.07,17.05l1.39,5.5l16.63,1.5V381.45L397.19,381.45z"/>
			<path class="st5" d="M317.19,324.76c-26.47,0-48,21.53-48,48s21.53,48,48,48s48-21.53,48-48S343.66,324.76,317.19,324.76z
				 M317.19,404.76c-17.65,0-32-14.35-32-32s14.35-32,32-32s32,14.35,32,32S334.83,404.76,317.19,404.76z"/>
			<path class="st5" d="M309.19,156.76h16v16h-16V156.76z"/>
			<path class="st5" d="M309.19,188.76h16v16h-16V188.76z"/>
			<path class="st5" d="M309.19,220.76h16v16h-16V220.76z"/>
		</g>
		<path class="st6" d="M36.89,17.19V-5.8H25.4v-8.65l6.02-12.03H5.6l6.02,12.03v8.65H5.75c-1.59-2.73-4.53-4.6-7.91-4.6h-36.77
			c-5.07,0-9.19,4.12-9.19,9.19h-11.49v-9.19h-34.47c-6.33,0-11.49,5.16-11.49,11.49v2.3h25.28v4.6h-25.28v2.3
			c0,6.33,5.16,11.49,11.49,11.49h34.47v-9.19h11.49c0,5.07,4.12,9.19,9.19,9.19h1.47l-7.61,24.35c-1.93,2.9-3.06,6.39-3.06,10.13
			c0,10.14,8.25,18.39,18.39,18.39c0.91,0,1.8-0.09,2.67-0.22l3.72,18.6h-3.21l-4.6,9.19h-5.48v13.79H36.9v-13.79h-5.47l-4.6-9.19
			h-3.72V75.64l-34.13-20.48l8.34-33.38h0.51c3.39,0,6.32-1.86,7.91-4.6h5.87v6.35L5.59,35.56h25.82l-6.02-12.03v-6.35L36.89,17.19
			L36.89,17.19z M-100.61-1.2c0.95-2.67,3.5-4.6,6.5-4.6h29.88v4.6C-64.23-1.2-100.61-1.2-100.61-1.2z M-64.23,17.19h-29.88
			c-3,0-5.55-1.92-6.5-4.6h36.38C-64.23,12.59-64.23,17.19-64.23,17.19z M-59.64,7.99h-16.09v-4.6h27.58v4.6H-59.64z M-43.55,56.25
			c0-7.6,6.19-13.79,13.79-13.79s13.79,6.19,13.79,13.79s-6.18,13.79-13.79,13.79C-37.36,70.04-43.55,63.86-43.55,56.25z
			 M-11.78,60.07L3.4,69.18l-24.58,11.35l-1.46-7.32C-17.17,70.9-13.04,66.01-11.78,60.07z M7.84,71.84l7.98,4.79l-34.7,15.42
			l-1.38-6.9L7.97,72.12L7.84,71.84z M32.29,111.41h-64.35v-4.6h64.35C32.29,106.81,32.29,111.41,32.29,111.41z M26.27,102.22
			h-52.31l2.3-4.6h47.72L26.27,102.22z M-9.74,93.03L18.5,80.48v12.55C18.5,93.03-9.74,93.03-9.74,93.03z M-13.78,47.2
			c-3.16-5.56-9.14-9.33-15.98-9.33c-3.11,0-6.04,0.78-8.61,2.15l5.7-18.24h25.25L-13.78,47.2z M2.42,12.59c0,2.53-2.06,4.6-4.6,4.6
			h-36.77c-2.53,0-4.6-2.06-4.6-4.6V-1.2c0-2.53,2.06-4.6,4.6-4.6h36.77c2.53,0,4.6,2.06,4.6,4.6C2.42-1.2,2.42,12.59,2.42,12.59z
			 M23.98-21.89l-2.3,4.6h-6.35l-2.3-4.6H23.98z M16.2-12.69h4.6v6.89h-4.6V-12.69z M32.29-1.2v4.6H7.01v-4.6H32.29z M7.01,7.99
			h25.28v4.6H7.01V7.99z M13.03,30.97l2.3-4.6h6.35l2.3,4.6H13.03z M20.8,21.78h-4.6v-4.6h4.6V21.78z"/>
	</g>
	<g id="Layer_3" class="st1">
		<g>
			<rect x="66.94" y="91.49" class="st7" width="103.72" height="2.58"/>
			<rect x="59.85" y="181.14" class="st7" width="117.91" height="7.69"/>
			<path class="st7" d="M182.93,165.97c0-20.75,0-41.5,0-62.26c0-4.37-0.28-4.64-4.78-4.64c-20.65,0-41.3,0-61.95,0s-41.3,0-61.95,0
				c-4.51,0-4.79,0.27-4.79,4.62c0,20.75,0,41.5,0,62.26c0,4.24,0.47,4.71,4.78,4.71c41.3,0.01,82.6,0.01,123.89,0
				C182.46,170.65,182.93,170.18,182.93,165.97z M113.77,123.36c-0.35,0.42-0.67,0.88-1.06,1.27c-9.62,9.57-19.25,19.12-28.88,28.68
				c-1.41,1.4-2,1.42-3.39-0.01c-5.38-5.52-10.75-11.05-16.12-16.58c-0.28-0.29-0.51-0.62-0.76-0.93c0-0.3,0-0.59,0-0.89
				c1.75-1.64,3.46-3.34,5.29-4.89c0.77-0.65,1.58-0.21,2.25,0.48c3.08,3.15,6.19,6.29,9.29,9.43c1.46,1.48,2.02,1.48,3.48,0.04
				c7.43-7.36,14.86-14.71,22.29-22.06c1.3-1.29,1.89-1.31,3.15-0.03c1.5,1.53,2.98,3.07,4.47,4.61
				C113.77,122.76,113.77,123.07,113.77,123.36z M155,135.96c3.71,3.6,7.35,7.27,11.02,10.91c1.29,1.27,1.31,1.96,0.03,3.24
				c-1.91,1.91-3.82,3.82-5.74,5.71c-1.14,1.13-1.88,1.13-3.01,0.01c-3.73-3.69-7.47-7.37-11.15-11.11c-0.81-0.82-1.27-0.82-2.09,0
				c-3.47,3.52-7,6.97-10.52,10.45c-0.32,0.32-0.65,0.65-0.99,0.94c-0.86,0.73-1.65,0.77-2.44,0c-2.15-2.09-4.29-4.21-6.39-6.35
				c-0.86-0.87-0.77-1.72,0.2-2.67c3.78-3.75,7.54-7.51,11.36-11.22c0.78-0.76,0.81-1.24,0.02-2.01
				c-3.63-3.52-7.21-7.09-10.81-10.64c-1.69-1.67-1.69-2.24,0.02-3.9c1.6-1.57,3.19-3.15,4.78-4.74c1.98-1.99,2.28-2,4.31,0.02
				c3.5,3.49,7.03,6.95,10.49,10.48c0.77,0.78,1.25,0.79,2.02,0.01c3.69-3.73,7.43-7.41,11.15-11.1c1.19-1.18,1.91-1.18,3.09-0.01
				c1.97,1.96,3.95,3.9,5.89,5.88c0.37,0.38,0.6,0.91,0.96,1.47c-0.41,0.57-0.7,1.11-1.11,1.52c-3.68,3.69-7.35,7.38-11.09,11.01
				C154.16,134.65,154.17,135.15,155,135.96z"/>
			<path class="st5" d="M135.18,221.62c-12.65,0.02-25.31,0.03-37.96,0c-5.1-0.01-7.2-2.43-6.13-6.53H66.94v8.86h100.24v-8.86h-25.9
				C142.38,219.23,140.31,221.6,135.18,221.62z"/>
			<path class="st5" d="M106.15,117.89c-7.43,7.35-14.86,14.71-22.29,22.06c-1.46,1.44-2.02,1.44-3.48-0.04
				c-3.1-3.14-6.2-6.27-9.29-9.43c-0.67-0.69-1.48-1.13-2.25-0.48c-1.83,1.56-3.53,3.25-5.29,4.89c0,0.3,0,0.59,0,0.89
				c0.25,0.31,0.48,0.64,0.76,0.93c5.37,5.53,10.74,11.06,16.12,16.58c1.39,1.42,1.98,1.41,3.39,0.01
				c9.63-9.56,19.26-19.12,28.88-28.68c0.39-0.39,0.71-0.84,1.06-1.27c0-0.3,0-0.59,0-0.89c-1.49-1.54-2.97-3.09-4.47-4.61
				C108.04,116.59,107.45,116.6,106.15,117.89z"/>
			<path class="st5" d="M166.08,122.84c0.41-0.41,0.69-0.94,1.11-1.52c-0.36-0.57-0.58-1.09-0.96-1.47
				c-1.94-1.98-3.92-3.93-5.89-5.88c-1.18-1.17-1.9-1.18-3.09,0.01c-3.73,3.69-7.46,7.37-11.15,11.1c-0.77,0.78-1.25,0.77-2.02-0.01
				c-3.47-3.52-6.99-6.99-10.49-10.48c-2.03-2.02-2.33-2.01-4.31-0.02c-1.58,1.59-3.17,3.17-4.78,4.74c-1.7,1.67-1.71,2.24-0.02,3.9
				c3.6,3.55,7.18,7.12,10.81,10.64c0.8,0.77,0.77,1.25-0.02,2.01c-3.82,3.71-7.58,7.47-11.36,11.22c-0.96,0.96-1.05,1.8-0.2,2.67
				c2.1,2.14,4.24,4.26,6.39,6.35c0.79,0.77,1.58,0.73,2.44,0c0.35-0.3,0.67-0.62,0.99-0.94c3.51-3.47,7.05-6.93,10.52-10.45
				c0.81-0.83,1.28-0.82,2.09,0c3.68,3.74,7.42,7.42,11.15,11.11c1.13,1.12,1.87,1.12,3.01-0.01c1.92-1.9,3.83-3.8,5.74-5.71
				c1.28-1.28,1.26-1.97-0.03-3.24c-3.67-3.64-7.32-7.3-11.02-10.91c-0.83-0.8-0.84-1.29,0-2.1
				C158.73,130.21,162.4,126.53,166.08,122.84z"/>
			<path class="st5" d="M178.34,201.09c3.26-0.07,6.48-1.49,9.72-2.29c0-36.64,0-73.29,0-109.93c-47.91,0-95.82,0-143.73,0
				c0.01,36.65,0.01,73.29,0.01,109.93c3.24,0.8,6.47,2.22,9.72,2.29c12.65,0.27,25.3,0.11,37.96,0.11c1.14,0,2.28,0,4.52,0
				c-1.72,4.38-3,8.13-4.65,11.7c-0.36,0.78-0.62,1.5-0.8,2.19h50.2c-0.18-0.68-0.44-1.4-0.79-2.17c-1.64-3.58-2.9-7.34-4.6-11.72
				c2.21,0,3.35,0,4.49,0C153.04,201.2,165.7,201.36,178.34,201.09z M66.94,91.49h103.72v2.58H66.94V91.49z M49.47,165.95
				c0-20.75,0-41.5,0-62.26c0-4.36,0.28-4.62,4.79-4.62c20.65,0,41.3,0,61.95,0s41.3,0,61.95,0c4.5,0,4.78,0.27,4.78,4.64
				c0,20.75,0,41.5,0,62.26c0,4.22-0.48,4.7-4.79,4.7c-41.3,0.01-82.6,0.01-123.89,0C49.94,170.65,49.47,170.18,49.47,165.95z
				 M59.85,188.83v-7.69h117.91v7.69H59.85z"/>
			<path class="st5" d="M97.22,221.62c12.65,0.03,25.31,0.03,37.96,0c5.13-0.01,7.21-2.39,6.11-6.53h-50.2
				C90.01,219.18,92.12,221.6,97.22,221.62z"/>
		</g>
	</g>
	<g id="Layer_4" class="st1">
		<g id="fNdCKC_1_">
			<g>
				<path class="st4" d="M83.29,201.48c8.08-4.57,16.38-9.27,25.18-14.25c4.69,7.38,9.31,14.64,14.04,22.06
					c14.08-22.5,27.04-45.6,54.74-58.96c-0.07,10.58-2.44,20.44,2.11,29.89c-19.15,10.65-30.73,21.47-54.97,51.51
					c-6.38-5.73-12.23-11.84-19.09-16.89C98.54,209.85,90.77,205.95,83.29,201.48z"/>
				<path class="st4" d="M145.15,118.91c-23.94,0-47.46,0-71.35,0c0-3.4-0.12-6.62,0.04-9.82c0.11-2.26,2.06-2.91,4.3-2.93
					c4.46-0.04,8.93,0,13.39-0.02c1.37-0.01,2.75-0.11,4.46-0.18c0-5.49-0.01-10.72,0-15.95c0.02-7.66,4.99-11.6,14.57-11.59
					c8.26,0.01,13.28,4.46,13.27,11.76c-0.01,5.14,0,10.28,0,15.98c5.2,0,10.25-0.04,15.29,0.01c5.19,0.05,5.99,0.78,6.02,5.28
					C145.16,113.87,145.15,116.3,145.15,118.91z M115.27,96.23c0.05-2.45-2.21-4.5-4.99-4.52c-2.82-0.02-5.09,1.92-5.14,4.41
					c-0.06,2.44,2.21,4.5,4.99,4.54C112.89,100.69,115.22,98.69,115.27,96.23z"/>
				<path class="st4" d="M91.21,92.42c0,2.74,0,5.04,0,7.77c-5.73,0-11.3-0.01-16.88,0.01c-2.04,0.01-4.1-0.05-6.12,0.14
					c-4.04,0.39-6.5,2.74-6.5,6.25c-0.02,34.19-0.02,68.37,0.01,102.56c0,3.7,2.5,6.09,6.83,6.29c4.97,0.22,9.95,0.11,14.93,0.13
					c8.04,0.02,12.44,1.79,18.43,7.6c-1.19,0.07-2.13,0.18-3.07,0.18c-11.37,0.02-22.73,0.04-34.1,0.01
					c-8.36-0.02-10.97-2.39-10.96-9.64c0.01-37.21,0.01-74.42,0-111.63c0-7.3,2.56-9.62,10.92-9.66
					C73.38,92.39,82.05,92.42,91.21,92.42z"/>
				<path class="st4" d="M157.24,152.65c0-12.28,0-24.36,0-36.44c0-2.8,0.05-5.6,0.03-8.4c-0.04-5.21-2.66-7.54-8.68-7.6
					c-6.35-0.06-12.71-0.01-19.32-0.01c0-2.61,0-4.91,0-7.76c1.42,0,2.88,0,4.34,0c7.27,0,14.55-0.05,21.82,0.02
					c6.76,0.07,9.69,2.77,9.69,8.71c-0.01,12.99-0.37,25.99,0.17,38.97C165.52,145.96,163.73,149.99,157.24,152.65z"/>
				<path class="st4" d="M165.12,200.79c0,5.84,0.07,10.75-0.02,15.66c-0.07,3.65-2.88,6.37-7.55,6.68
					c-5,0.33-10.06,0.07-16.11,0.07c3.8-3.18,4.85-7.51,10.63-8.15c1.86-0.2,4.71-2.87,4.77-4.48
					C157,205.64,161.29,204.06,165.12,200.79z"/>
				<path class="st4" d="M143.45,152.17c-18.42,0-36.62,0-54.83,0c-3.44,0-6.88,0.08-10.32-0.07c-0.88-0.04-1.71-0.77-2.57-1.19
					c0.84-0.57,1.68-1.62,2.53-1.63c9.93-0.12,19.87-0.09,29.81-0.08c10.95,0.01,21.91,0.05,32.86,0.02
					C143.1,149.22,144.51,149.5,143.45,152.17z"/>
				<path class="st4" d="M143.5,160.96c-7.48,0-14.87,0-22.25,0c-14.18,0-28.35,0.03-42.53-0.07c-1-0.01-1.99-0.99-2.98-1.52
					c0.96-0.44,1.92-1.25,2.89-1.26c20.69-0.08,41.37-0.08,62.06-0.09C142.55,158.03,144.55,157.9,143.5,160.96z"/>
				<path class="st4" d="M76.09,169.71c-1.03-3.39,1.44-2.85,3.21-2.85c17.36-0.02,34.72,0,52.08,0c3.95,0,7.9,0,11.92,0
					c1.6,3.03-0.69,2.87-2.76,2.87c-15.2-0.01-30.39-0.01-45.58-0.02C88.73,169.71,82.49,169.71,76.09,169.71z"/>
				<path class="st4" d="M99.71,136.62c-7.35,0-14.69,0.04-22.04-0.07c-0.64-0.01-1.27-0.94-1.91-1.44c0.65-0.49,1.3-1.4,1.96-1.41
					c6.73-0.11,13.47-0.15,20.2,0.01c0.84,0.02,1.65,1.28,2.47,1.96C100.17,135.99,99.94,136.29,99.71,136.62z"/>
				<path class="st4" d="M99.38,143.34c-7.71,0-15.42,0-23.2,0c-0.8-1.83-0.54-2.82,1.94-2.8c6.47,0.05,12.94-0.06,19.41,0.08
					c0.97,0.02,1.91,1.11,2.87,1.7C100.05,142.65,99.72,143,99.38,143.34z"/>
			</g>
		</g>
	</g>
	<g id="Layer_5" class="st1">
		<g id="_x34_hK3Jt_1_" class="st2">
			<g>
				<path class="st4" d="M64.12,231.74c-6.85-0.16-13.76-4.12-17.72-12.25c-4.02-8.26-3.27-16.7,2.59-23.68
					c6.25-7.45,13.39-14.15,20.28-21.03c0.91-0.91,2.65-1.12,4.06-1.34c5.86-0.95,8.86-3.82,9.38-9.86
					c0.36-4.11,3.29-6.07,6.05-8.12c0.62-0.46,2.67,0.13,3.43,0.88c8.89,8.72,17.73,17.5,26.35,26.47c0.85,0.88,0.9,3.71,0.13,4.75
					c-1.95,2.66-4.19,4.96-8.22,4.98c-4.35,0.02-7.59,4.19-8.46,8.54c-0.47,2.34-1.52,4.9-3.1,6.62
					c-5.39,5.88-11.14,11.44-16.75,17.13C77.77,229.24,72.57,231.73,64.12,231.74z M81.28,187.59c-0.99-1.2-1.73-2.92-2.65-3.02
					c-1.52-0.17-3.6,0.23-4.65,1.23c-5.67,5.41-11.1,11.09-16.61,16.67c-1.72,1.75-2.45,3.78-0.62,5.73
					c2.06,2.19,4.07,1.23,5.9-0.64c5.39-5.51,10.85-10.96,16.22-16.5C79.77,190.14,80.37,188.93,81.28,187.59z M69.64,220.27
					c0.99-0.44,1.89-0.59,2.42-1.12c6.21-6.22,12.46-12.41,18.42-18.87c0.72-0.78,0.38-3.71-0.48-4.48
					c-0.91-0.81-3.72-0.95-4.55-0.15c-6.27,5.96-12.33,12.15-18.25,18.46c-0.74,0.79-0.67,2.86-0.26,4.09
					C67.23,219.12,68.71,219.62,69.64,220.27z"/>
				<path class="st4" d="M120.37,134.01c-2.38,2.04-4.62,3.96-7.97,6.83c-1.92-2.3-4.19-5.11-6.57-7.83
					c-1.82-2.09-4.1-3.03-6.26-0.74c-2.12,2.24-1.13,4.52,0.88,6.37c2.58,2.37,5.22,4.67,8.04,7.18c-2.88,2.68-5.04,4.69-8.18,7.61
					c-0.84-1.21-1.8-2.88-3.02-4.32c-4.59-5.43-10.36-7.54-17.54-7.39c-18.14,0.39-32.06-14.22-31.35-32.42
					c0.07-1.86,0.55-3.7,0.98-6.39c1.71,1.06,3.01,1.6,3.96,2.5c3.24,3.08,6.3,6.35,9.52,9.44c4.9,4.69,10.16,4.5,14.94-0.29
					c8.95-8.95,11.33-13.34-0.08-23.57c-2.01-1.8-3.93-3.74-5.72-5.76c-0.83-0.93-1.93-2.39-1.7-3.3c0.21-0.85,1.96-1.59,3.14-1.86
					c15.25-3.42,31.74,6.83,35.58,22.25c0.77,3.11,1.19,6.49,0.89,9.66c-0.74,7.84,1.74,14.12,7.71,19.11
					C118.54,131.87,119.28,132.84,120.37,134.01z"/>
				<path class="st4" d="M107.17,159.2c1.52-1.91,2.4-3.25,3.51-4.37c12-12.15,23.92-24.39,36.14-36.31
					c3.66-3.57,5.98-7.15,5.03-12.38c-0.74-4.09,0.96-6.39,4.78-8.1c6.88-3.08,13.58-6.61,20.2-10.25c3.23-1.78,5.15-0.62,7.33,1.69
					c2.06,2.18,3.78,3.89,1.94,7.31c-3.9,7.27-7.48,14.72-11,22.19c-1.21,2.57-2.83,3.97-5.62,3.52c-6.5-1.05-10.95,1.74-15.37,6.48
					c-11.18,12-22.88,23.5-34.51,35.06c-1.23,1.22-4.06,2.6-4.99,2.02C111.9,164.36,109.77,161.71,107.17,159.2z"/>
				<path class="st4" d="M129.33,167.01c2.09,2.19,4.46,4.77,6.93,7.25c10.42,10.47,20.88,20.91,31.32,31.37
					c0.67,0.67,1.35,1.33,2.02,2.01c1.84,1.9,3.97,2.64,6.01,0.61c2.04-2.02,1.39-4.16-0.51-6.05c-2.89-2.86-5.75-5.75-8.63-8.62
					c-9.69-9.67-19.39-19.33-29.08-29.01c-1.03-1.03-2.01-2.12-2.97-3.14c2.25-2.26,4.32-4.34,6.58-6.6
					c0.19,0.13,0.69,0.34,1.04,0.69c13.71,13.7,27.41,27.42,41.11,41.12c4.01,4.01,5.29,8.86,3.68,14.2
					c-1.63,5.41-5.51,9.06-11.11,9.24c-3.35,0.11-7.73-0.75-10-2.92c-14.79-14.12-29.12-28.72-43.79-43.35
					C124.41,171.54,126.65,169.49,129.33,167.01z"/>
			</g>
		</g>
		<g id="vwK9Yq_1_">
			<g>
				<path class="st4" d="M-37.58-75.93c3.05,0.87,6.1,1.73,9.15,2.6c0.02,0.16,0.05,0.32,0.07,0.48
					c-12.81,2.63-25.61,5.26-38.66,7.94c0.25,5.76,0.3,11.46,0.9,17.1c0.11,1.05,2.46,1.86,4.17,3.06c0-6.19,0-11.72,0-17.5
					c4.39-0.94,8.77-1.91,13.16-2.82c8.71-1.81,17.42-3.61,26.14-5.34c1.09-0.22,2.32-0.17,3.4,0.09c3.71,0.89,7.39,1.93,10.57,2.78
					c0,7.24,0.1,14.27-0.03,21.29c-0.14,7.9-0.51,15.79-0.68,23.68c-0.03,1.42-0.3,2.2-1.78,2.74
					c-12.16,4.42-24.28,8.97-36.45,13.38c-0.9,0.32-2.35,0.14-3.13-0.4c-7.69-5.36-15.31-10.82-22.9-16.32
					c-0.66-0.48-1.33-1.43-1.38-2.2c-0.82-14.43-1.55-28.87-2.31-43.6c3.28-0.6,6.55-1.21,9.82-1.78
					c9.46-1.63,18.92-3.24,28.38-4.87c0.22-0.04,0.41-0.21,0.61-0.32C-38.21-75.93-37.89-75.93-37.58-75.93z M-106.13-21.89
					c0.44-0.04,0.76,0,1.03-0.1c10.19-3.69,20.38-7.36,30.53-11.15c0.65-0.24,1.32-1.43,1.35-2.21c0.25-6.09,0.39-12.19,0.46-18.29
					c0.07-6.15,0.02-12.31,0.02-18.59c-0.52,0.08-1.13,0.12-1.71,0.26c-10,2.43-19.99,4.91-30.01,7.26
					c-1.54,0.36-1.98,0.92-1.97,2.45c0.1,12.74,0.12,25.49,0.17,38.23C-106.25-23.35-106.18-22.67-106.13-21.89z M-98.86-86.05
					c3.05,0.87,6.1,1.73,9.15,2.6c0.02,0.16,0.05,0.32,0.07,0.48c-12.81,2.63-25.61,5.26-38.66,7.94c0.25,5.76,0.3,11.46,0.9,17.1
					c0.11,1.05,2.46,1.86,4.17,3.06c0-6.19,0-11.72,0-17.5c4.39-0.94,8.77-1.91,13.16-2.82c8.71-1.81,17.42-3.61,26.14-5.34
					c1.09-0.22,2.32-0.17,3.4,0.09c3.71,0.89,7.39,1.93,10.57,2.78c0,7.24,0.1,14.27-0.03,21.29c-0.14,7.9-0.51,15.79-0.68,23.68
					c-0.03,1.42-0.3,2.2-1.78,2.74c-12.16,4.42-24.28,8.97-36.45,13.38c-0.9,0.32-2.35,0.14-3.13-0.4
					c-7.69-5.36-15.31-10.82-22.9-16.32c-0.66-0.48-1.33-1.43-1.38-2.2c-0.82-14.43-1.55-28.87-2.31-43.6
					c3.28-0.6,6.55-1.21,9.82-1.78c9.46-1.63,18.92-3.24,28.38-4.87c0.22-0.04,0.41-0.21,0.61-0.32
					C-99.49-86.05-99.17-86.05-98.86-86.05z"/>
				<path class="st4" d="M2.6-18.9c-0.36,3.22-0.67,6.44-1.12,9.65C1.37-8.48,0.95-7.42,0.36-7.11C-2.51-5.65-5.5-4.4-8.65-2.99
					c0-2.32,0-4.27,0-6.59c-4.95,2.18-9.71,4.26-14.46,6.36c-0.99,0.44-1.93,1.08-2.96,1.33c-3.28,0.77-4.54,2.78-3.99,6.02
					c0.36,2.12-0.64,3.17-2.58,3.92c-3.01,1.17-5.91,2.63-9.05,4.06c0-2.36,0-4.41,0-6.91c-1.55,0.64-2.88,1.17-4.19,1.74
					c-5.78,2.55-11.52,5.19-17.34,7.63c-1.88,0.79-2.98,1.77-2.53,3.9c0.76,3.61-1.18,4.97-4.16,6.77
					c-6.42,3.87-10.99,2.92-16.83-1.82c-17.1-13.91-34.79-27.09-52.38-40.4c-2.42-1.83-2.28-4.14-2.68-6.48
					c-0.28-1.63-0.43-3.29-0.64-4.94c0-0.59,0-1.19,0-1.78c3.73-1.28,7.43-2.67,11.21-3.74c0.88-0.25,2.22,0.41,3.09,1.01
					c19.37,13.37,38.8,26.68,57.98,40.32c3.68,2.61,6.52,2.88,10.12,0.07c-3.49-2.39-6.94-4.75-10.89-7.45
					c4.53-1.59,8.55-3.04,12.61-4.37c0.5-0.16,1.29,0.24,1.83,0.56c1.78,1.06,3.71,1.99,5.23,3.36c3.11,2.83,6.06,2.5,9.41-0.09
					c-3.2-2.03-6.32-4.02-9.74-6.2c3.91-1.56,7.5-3.07,11.15-4.39c0.77-0.28,1.92-0.05,2.68,0.34c1.57,0.82,3.14,1.75,4.45,2.92
					c2.88,2.57,5.62,2.25,8.62-0.22c-2.72-1.8-5.4-3.56-8.54-5.64c3.57-1.39,6.7-2.68,9.88-3.79c0.61-0.21,1.52,0.1,2.18,0.41
					c1.52,0.71,3.11,1.39,4.42,2.4c2.81,2.15,5.39,1.76,8.28-0.44c-2.67-1.62-5.15-3.36-7.83-4.67c-2.14-1.04-2.87-2.39-2.48-4.67
					c0.3-1.74,0.31-3.54,0.49-5.76c7.11,3.65,13.98,7.18,20.85,10.71C2.6-19.29,2.6-19.09,2.6-18.9z M-108.28-5.3
					c-0.85,4.48-0.17,7.76,3.89,10.24c4.11,2.5,7.76,5.77,11.62,8.68c1.77,1.34,3.58,2.64,5.5,4.05c0.73-4.69,0.15-8.13-4.18-10.79
					C-97.28,3.28-102.6-1.14-108.28-5.3z M-119.04-6.29c0.3-0.14,0.6-0.28,0.89-0.42c-0.54-2.34-0.3-5.59-1.77-6.87
					c-5.15-4.49-10.88-8.31-17.16-12.95c0.59,3.12,0.23,6.25,1.58,7.45C-130.31-14.47-124.57-10.5-119.04-6.29z"/>
				<path class="st4" d="M-114.51-39.53c0.26,3.7,0.47,6.83,0.73,10.6c-3.73-2.49-7-4.68-10.82-7.24
					C-120.97-37.38-117.88-38.41-114.51-39.53z"/>
				<path class="st4" d="M54.48-63.23c1.83,3.23,3.44,6.06,5.19,9.16c-0.95,0.38-1.8,0.72-3.4,1.35c0,5.48,0.02,11.3-0.01,17.13
					c-0.01,3.88-0.04,3.88-4.43,4.7c0-6.8,0-13.57,0-20.51c-0.91,0-1.75,0-2.98,0C50.77-55.4,52.55-59.16,54.48-63.23z"/>
				<path class="st4" d="M79.31-53.88c-3.18,0.23-3.25,2.16-3.26,4.37c-0.02,4.74-0.39,9.48-0.32,14.22
					c0.05,2.86-0.99,4.22-3.83,4.15c0-6.69,0-13.39,0-20.34c-0.64-0.09-1.44-0.21-2.57-0.37c1.7-3.59,3.34-7.08,5.25-11.12
					C76.28-59.71,77.71-56.96,79.31-53.88z"/>
				<path class="st4" d="M126.64-45.31c-0.52,0.96-0.83,2.51-1.6,2.8c-8.56,3.18-17.19,6.17-25.82,9.21
					c-0.92-2.5-0.23-3.65,2.24-4.42c8.17-2.54,16.26-5.35,24.38-8.06C126.1-45.62,126.37-45.47,126.64-45.31z"/>
			</g>
		</g>
	</g>
	<g id="Layer_6" class="st1">
		<g id="g8cFVo_1_" class="st2">
			<g>
				<path class="st4" d="M0.34,14.76c-2.07,1.38-4.07,2.89-6.24,4.09c-3.02,1.68-7.39,2.37-8.92,4.86c-1.6,2.62-0.6,6.88-0.61,10.43
					c-0.04,8.57-0.1,17.14,0.04,25.7c0.04,2.67-0.83,4.32-3.2,5.62c-12.59,6.89-25.08,13.97-37.71,20.8c-1.5,0.81-3.8,1.09-5.43,0.6
					c-18.04-5.36-36.01-10.94-54.02-16.38c-2.61-0.79-3.5-2.33-3.48-4.94c0.07-11.32-0.03-22.64,0.08-33.96
					c0.02-2.23-0.59-3.26-2.84-3.71c-3.59-0.72-7.14-1.65-10.64-2.73c-1.67-0.52-3.16-1.6-4.74-2.42c0-0.82,0-1.63,0-2.45
					c5.88-8.06,11.72-16.16,17.7-24.15c0.91-1.22,2.37-2.28,3.8-2.81c13.05-4.9,26.14-9.69,39.25-14.43
					c1.28-0.46,2.81-0.7,4.14-0.51c16.93,2.42,33.84,5.03,50.79,7.35c2.65,0.36,4.18,1.45,5.6,3.5c5.41,7.75,10.94,15.41,16.42,23.1
					C0.34,13.13,0.34,13.94,0.34,14.76z M-112.35,30.45c0,10.75,0.07,20.94-0.06,31.13c-0.03,2.14,0.67,2.94,2.68,3.54
					c12.47,3.71,24.9,7.58,37.34,11.39c3.09,0.94,6.19,1.84,9.44,2.8c0-20.08,0-39.77,0-59.9c-0.54,0.65-0.81,0.92-1.02,1.24
					c-3.58,5.33-7.18,10.63-10.7,16c-1.34,2.04-2.89,2.97-5.38,2.14c-2.12-0.7-4.33-1.13-6.49-1.69
					C-94.99,34.92-103.45,32.74-112.35,30.45z M-55.36,24.1c-0.14,0.07-0.28,0.13-0.42,0.2c0,17.78,0,35.56,0,53.68
					c1.23-0.62,2.22-1.07,3.17-1.6c8.37-4.63,16.61-9.51,25.14-13.81c3.96-2,5.48-4.3,5.27-8.82c-0.42-8.81-0.12-17.65-0.12-26.82
					c-1.16,0.51-1.99,0.83-2.78,1.21c-6.24,2.98-12.47,5.97-18.72,8.94c-3.47,1.65-4.88,1.16-6.53-2.3
					C-52.06,31.23-53.7,27.66-55.36,24.1z M-65.33,10.13c-0.61-0.25-0.96-0.46-1.34-0.52c-15.48-2.86-30.96-5.74-46.46-8.49
					c-0.79-0.14-2.07,0.6-2.62,1.31c-3.09,4.04-6.04,8.19-9.02,12.31c-1.03,1.43-2.02,2.89-3.18,4.54
					c15.71,4.07,30.93,8.03,46.18,11.89c0.85,0.21,2.37-0.08,2.79-0.69C-74.36,23.8-69.91,17.02-65.33,10.13z M-44.94,29.97
					c12.37-5.95,24.4-11.73,36.62-17.61c-4.55-6.48-8.8-12.54-13.15-18.73C-32.7-1.14-43.7,3.99-54.76,9.14
					C-51.42,16.22-48.26,22.93-44.94,29.97z M-102.38-4.35c0.82,0.4,1.05,0.59,1.31,0.64c12.61,2.31,25.2,4.67,37.84,6.83
					c1.95,0.33,4.29,0.16,6.08-0.62c7.55-3.27,14.97-6.86,22.43-10.35c0.46-0.22,0.84-0.6,1.52-1.09
					c-11.26-1.69-22.11-3.35-32.99-4.92c-2.8-0.4-5.92-1.34-8.41-0.54C-83.78-11.46-92.76-7.89-102.38-4.35z"/>
			</g>
		</g>
		<path class="st4" d="M175.33,177.01c4.5,1.15,8.64,2.2,12.78,3.25c-1.83-5.75-3.61-11.52-5.49-17.25
			c-2.03-6.16-4.22-12.28-6.22-18.45c-0.57-1.77-1.45-2.72-3.5-3.28c-12.53-3.41-25.05-6.88-37.56-10.35
			c5.74-5.26,9.48-12.79,9.34-21.39c0.23-16.47-13.77-29.17-29.05-29.16c-15.15,0.01-29.07,12.6-29.05,29.21
			c0.01,9.26,4.34,17.26,10.8,22.52c-11.77,5.67-23.6,11.25-35.28,17.06c-1.85,0.92-3.6,2.78-4.4,4.58
			c-4.36,9.79-8.41,19.7-12.57,29.57c-0.2,0.48-0.52,0.91-0.78,1.37c0,0.18,0,0.35,0,0.53c4.22,1.15,8.48,2.22,12.64,3.52
			c0.76,0.24,1.65,1.41,1.67,2.17c0.16,4.51,0.06,9.02,0.08,13.54c0.03,4.34,1.94,7.07,6.41,8.43
			c21.27,6.51,42.58,12.92,63.87,19.38c0.16,0.05,0.29,0.22,0.43,0.33c0.58,0,1.16,0,1.74,0c2.27-1.25,4.79-2.24,6.78-3.8
			c10.77-8.46,21.38-17.1,32.1-25.61c3.59-2.85,5.45-6.24,5.3-10.67C175.21,187.49,175.33,182.45,175.33,177.01z M175.46,158.43
			c0.15-0.02,0.3-0.05,0.45-0.07c1.74,4.91,3.47,9.81,5.41,15.28c-2.21-0.54-3.98-0.97-5.86-1.43
			C175.46,167.54,175.46,162.99,175.46,158.43z M93.4,112.55c2.16-2.17,4.4-4.42,6.85-6.87c2.65,2.66,5.4,5.42,8.23,8.27
			c2.74-2.72,5.38-5.34,8.01-7.97c4.56-4.58,9.14-9.15,13.65-13.77c0.93-0.95,1.54-0.98,2.43,0c1.4,1.53,2.84,3.04,4.39,4.41
			c1.2,1.06,1.24,1.75,0.05,2.93c-8.53,8.46-17,17-25.47,25.55c-1.22,0.61-2.43,1.22-3.65,1.84
			C102.8,121.88,98.05,117.16,93.4,112.55z M101.23,134.79c2.85,1.66,5.98,2.85,9.23,3.47c0,7.12,0,14.08,0,21.28
			c-13.73-3.16-27.23-6.26-41.45-9.53C79.98,144.83,90.55,139.84,101.23,134.79z M50.98,182.15c4.18-9.94,8.28-19.69,12.23-29.1
			c21.1,5.64,41.9,11.21,63.07,16.87c-3.01,10.47-5.92,20.62-8.95,31.15C95.23,194.78,73.29,188.51,50.98,182.15z M128.59,226.6
			c-7.58-2.3-14.95-4.54-22.32-6.78c-13.34-4.06-26.66-8.16-40.02-12.13c-1.91-0.57-2.54-1.36-2.49-3.17c0.14-4.5,0.05-9,0.05-13.89
			c19.12,5.44,37.83,10.77,56.97,16.21c2.51-8.64,4.97-17.13,7.43-25.62c0.13,0.01,0.25,0.03,0.38,0.04
			C128.59,196.21,128.59,211.17,128.59,226.6z M128.12,164.82c-3.61-0.87-7.16-2-10.67-3.2c-0.75-0.26-1.72-1.24-1.73-1.9
			c-0.08-6.94-0.08-13.88-0.08-20.97c0.08,0,0.15,0,0.23,0c5.57-0.04,10.99-1.79,15.6-4.8c11.91,3.12,23.77,6.23,35.9,9.41
			c-3.2,1.9-5.94,3.51-8.67,5.13c-8.89,5.28-17.74,10.61-26.7,15.8C130.97,164.88,129.3,165.1,128.12,164.82z M170.15,193.45
			c-0.01,1.18-0.51,2.71-1.4,3.46c-11.08,9.36-22.27,18.6-33.43,27.88c-0.33,0.28-0.67,0.54-1.34,1.07
			c-0.07-1.22-0.15-2.06-0.15-2.9c-0.01-16.94,0.03-33.87-0.05-50.81c-0.01-2,0.6-3.18,2.49-4.28c10.44-6.03,20.78-12.2,31.15-18.31
			c0.71-0.42,1.45-0.81,2.57-1.44c0.08,1.13,0.2,1.95,0.2,2.77C170.22,165.08,170.25,179.26,170.15,193.45z"/>
		<g id="CxAPH4_1_">
			<g>
				<path class="st8" d="M-29.94,138.38c-5.31-1.28-11.3-2.62-17.21-4.23c-1.53-0.42-2.82-1.72-4.22-2.62
					c0.94-1.45,1.58-3.3,2.88-4.27c11.17-8.41,22.46-16.67,33.71-24.97c15-11.07,30.04-22.1,44.98-33.24
					c2.42-1.81,4.59-2.66,7.74-1.8c4.44,1.21,9.07,1.72,14.65,2.71c-4.03,3.29-7.41,6.1-10.83,8.84
					c-22.1,17.69-44.24,35.34-66.28,53.1C-26.43,133.43-27.75,135.71-29.94,138.38z"/>
				<path class="st8" d="M10.64,62.45C-1.09,70.38-11.78,77.62-22.5,84.86c-17.38,11.73-34.8,23.39-52.11,35.21
					c-2.01,1.37-3.44,3.58-5.56,5.85c-4.66-1.14-10.16-2.37-15.58-3.86c-1.4-0.39-2.59-1.58-3.87-2.4c0.97-1.37,1.65-3.19,2.96-4.03
					c18.93-12.09,37.94-24.04,56.93-36.02c9.29-5.86,18.67-11.56,27.84-17.59c3.3-2.17,6.37-3,10.23-1.9
					C1.96,61.13,5.74,61.55,10.64,62.45z"/>
				<path class="st8" d="M-127.07,114.29c-3.75-0.92-8.62-2-13.39-3.38c-1.34-0.39-2.42-1.66-3.62-2.53
					c0.92-1.21,1.59-2.88,2.8-3.57c11.15-6.28,22.42-12.37,33.62-18.57c18.18-10.06,36.39-20.08,54.49-30.29
					c4.64-2.62,9.06-4.52,14.51-2.53c2.58,0.94,5.47,1.06,9.61,1.8c-2.43,1.5-3.83,2.42-5.27,3.26
					c-28.9,16.8-57.82,33.57-86.69,50.43C-122.92,110.04-124.4,111.89-127.07,114.29z"/>
				<path class="st8" d="M52.27,76.52c0.44,7.93,0.77,14.24-6.42,20.13c-23.69,19.4-46.62,39.74-69.68,59.9
					c-3.36,2.93-6.25,3.75-10.57,2.39c-9.67-3.05-9.75-2.8-9.8-13c-0.01-2.3,0-4.61,0-7.6c5.45,1.16,10.67,3.69,15.24,2.82
					c4.39-0.83,8.11-5.19,12.84-8.49c0,4.57,0,8.43,0,13.37c9.55-8.11,18.22-15.47,27.64-23.47c-5.17-1.36-9.64-2.54-15.58-4.1
					c6.52-3.39,9.19-9.37,16.28-10.07c3.21-0.32,6.07-4.16,9.77-6.9c0,4.17,0,7.55,0,12.15c7.75-6.61,14.65-12.46,22.41-19.03
					c-4.83-1.01-8.85-1.86-13.29-2.79C36.07,83.57,45.42,82.27,52.27,76.52z"/>
				<path class="st8" d="M28.53,66.12c-19.32,13.82-37.96,27.16-56.6,40.5c-8.65,6.19-17.35,12.32-25.91,18.64
					c-1.81,1.34-3.12,3.36-5.35,5.82c-2.28-0.58-5.8-1.32-9.22-2.41c-1.35-0.43-3.29-1.5-3.45-2.52c-0.18-1.15,1.04-2.98,2.17-3.79
					c6.62-4.74,13.41-9.25,20.12-13.86C-30.11,95.07-10.28,81.93,8.97,68C15.39,63.38,21.12,63.29,28.53,66.12z"/>
				<path class="st8" d="M-107.51,119.19c-2.13-0.52-5.4-1.14-8.54-2.16c-1.35-0.44-2.43-1.74-3.63-2.65
					c0.96-1.19,1.69-2.78,2.92-3.52c19.84-11.85,39.74-23.59,59.63-35.36c8.44-4.99,16.89-9.97,25.32-14.97
					c8.09-4.8,8.08-4.81,18.98-2.05c-1.96,1.27-3.37,2.21-4.81,3.1c-27.83,17.26-55.69,34.5-83.48,51.83
					C-103.16,114.71-104.77,116.69-107.51,119.19z"/>
				<path class="st8" d="M-78.1,129.78c0,4.6,0,8.57,0,12.74c4.84-0.29,7.12-6.92,13.33-4.86c-4.19,3.08-7.67,5.85-11.4,8.26
					c-1.17,0.76-3.08,0.96-4.49,0.66c-4.71-0.99-9.31-2.54-14.03-3.45c-3.37-0.65-4.82-2.13-4.62-5.64
					c0.23-4.12,0.05-8.26,0.05-12.89C-92.24,126.32-85.36,128.01-78.1,129.78z"/>
				<path class="st8" d="M-116.12,125.06c-4.82,3.03-8.58,6.92-12.9,7.68c-4.33,0.77-9.21-1.54-13.82-2.66
					c-0.41-0.1-0.74-1.41-0.75-2.16c-0.07-4.63-0.03-9.26-0.03-13.88c0.27-0.04,0.44-0.11,0.58-0.07c4.11,1.12,9.5,1.08,11.93,3.75
					c2.18,2.38,1.09,7.75,1.46,12.05c3.78-1.91,7.24-3.7,10.75-5.38C-118.48,124.19-117.76,124.64-116.12,125.06z"/>
			</g>
		</g>
	</g>
	<g id="Layer_7" class="st1">
		<g id="_x37_vCEl6_1_" class="st2">
			<g>
				<path class="st4" d="M165.41,135.81c0,8.68,0.11,17.37-0.06,26.05c-0.05,2.48,0.74,3.71,2.98,4.62
					c5.73,2.31,11.33,4.94,17.06,7.26c2.02,0.82,2.77,1.99,2.71,4.12c-0.12,4.28,0.1,8.57-0.15,12.83
					c-0.07,1.16-1.04,2.69-2.04,3.29c-2.27,1.36-4.76,2.44-7.28,3.22c-1.2,0.37-3.02,0.3-3.99-0.38
					c-5.99-4.27-11.05-0.64-16.13,1.87c-0.79,0.39-1.12,2.54-1.01,3.81c0.27,2.91-0.71,4.66-3.52,5.48c-1.39,0.4-2.78,0.94-4.01,1.7
					c-4.1,2.51-8.02,2.42-12.28,0.17c-1.42-0.75-3.75-0.5-5.4,0.06c-3.65,1.26-7.09,3.12-10.71,4.51c-2.1,0.81-3.27,1.91-2.87,4.29
					c0.55,3.35-0.89,5.36-4.15,6.1c-0.35,0.08-0.73,0.18-1.01,0.4c-5.81,4.47-11,1.17-16.01-1.59c-1.09-0.6-1.64-3.06-1.61-4.65
					c0.05-2.48-0.85-3.63-3.01-4.67c-3.67-1.76-6.99-2.6-10.86-0.31c-2.95,1.75-11.09-0.14-13.25-2.87
					c-0.76-0.97-0.69-2.72-0.74-4.13c-0.15-3.74-3.83-6.39-7.41-5.21c-0.23,0.08-0.46,0.18-0.65,0.32
					c-5.04,3.49-9.85,2.11-14.42-0.9c-1.02-0.67-2.06-2.14-2.12-3.29c-0.24-4.39-0.26-8.81,0.03-13.19
					c0.08-1.22,1.26-2.72,2.36-3.44c1.8-1.19,3.86-2.19,5.95-2.67c4.72-1.11,5.53-4,5.48-8.51c-0.25-20.18-0.05-40.36-0.18-60.53
					c-0.02-2.81,1-4.13,3.42-5.16c16.06-6.81,32.06-13.78,48.15-20.52c1.54-0.64,3.82-0.58,5.37,0.08
					c15.75,6.6,31.4,13.47,47.15,20.07c3.1,1.3,4.43,2.87,4.31,6.45C165.21,118.92,165.41,127.37,165.41,135.81z M161.88,110.24
					c-1.24,0.35-2.06,0.48-2.8,0.8c-14.47,6.21-28.91,12.49-43.42,18.62c-2.25,0.95-2.61,2.35-2.6,4.52
					c0.06,19.92,0.03,39.85,0.05,59.77c0,0.91,0.16,1.82,0.26,2.97c0.86-0.23,1.46-0.32,1.99-0.55
					c14.57-6.27,29.11-12.62,43.72-18.79c2.37-1,2.83-2.44,2.82-4.77c-0.07-19.43-0.03-38.87-0.03-58.3
					C161.88,113.19,161.88,111.88,161.88,110.24z M60.72,109.94c0,22.08-0.03,43.31,0.11,64.55c0.01,0.99,1.41,2.42,2.48,2.9
					c13.96,6.13,27.97,12.14,41.99,18.14c3.32,1.42,4.21,0.84,4.21-2.7c0.02-19.67-0.03-39.33,0.07-59c0.01-2.4-0.94-3.4-2.95-4.25
					c-8.6-3.6-17.14-7.34-25.7-11.02C74.4,115.78,67.87,112.99,60.72,109.94z M88.22,117.74c6.06,2.64,11.58,4.74,16.8,7.43
					c4.2,2.16,7.94,2.52,12.18,0.13c3.57-2.01,7.51-3.35,11.28-4.98c9.87-4.26,19.74-8.52,30.04-12.96c-1-0.62-1.55-1.05-2.17-1.32
					c-5.99-2.61-11.94-5.34-18.03-7.69c-1.58-0.61-3.78-0.52-5.4,0.07c-4.54,1.66-8.93,3.74-13.37,5.67
					C109.35,108.53,99.16,112.97,88.22,117.74z M131.09,95.19c-6.25-2.69-11.5-5.14-16.9-7.17c-1.71-0.64-4.08-0.76-5.72-0.07
					c-13.65,5.64-27.2,11.52-40.77,17.35c-1.13,0.49-2.22,1.08-3.95,1.93c5.43,2.36,10.22,4.12,14.7,6.48
					c3.69,1.95,6.88,1.81,10.46-0.14c3.18-1.73,6.64-2.92,9.97-4.37C109.3,104.68,119.71,100.14,131.09,95.19z M184.48,179.54
					c-0.68,0-1.08-0.11-1.38,0.02c-24.18,10.31-48.36,20.63-72.5,31.02c-0.8,0.34-1.72,1.48-1.77,2.3c-0.2,3.25-0.08,6.52-0.08,9.85
					c6.1-1.23,6.23-1.26,6.33-6.52c0.04-2.18,0.92-3.28,2.84-4.09c7.25-3.07,14.47-6.22,21.66-9.43c4.54-2.03,6.2-3.56,6.21,3.77
					c0,0.18,0.25,0.37,0.42,0.6c4.46-1.27,9-2.33,7.85-8.86c-0.14-0.79,1.53-2.31,2.66-2.83c5.17-2.38,10.45-4.51,15.68-6.75
					c5.65-2.41,5.64-2.42,6.59,3.69c0.03,0.17,0.33,0.3,1.1,0.94c1.38-1.21,3.85-2.31,4.19-3.89
					C184.96,186.22,184.48,182.84,184.48,179.54z M180.88,176.49c0.03-0.31,0.07-0.62,0.1-0.94c-2.99-1.03-6.1-3.1-8.95-2.79
					c-2.78,0.3-6.86,1.11-7.15,5.73c-0.03,0.48-1.3,0.97-2.06,1.3c-16.46,7.1-32.93,14.18-49.42,21.23
					c-0.86,0.37-2.09,0.93-2.72,0.6c-4.71-2.5-7.87,1.31-11.75,2.82c3.65,0.71,6.13,4.66,10.68,2.66
					c15.51-6.83,31.15-13.39,46.73-20.06C164.52,183.54,172.7,180.01,180.88,176.49z M105.18,222.76c0-2.71-0.19-5.17,0.05-7.57
					c0.29-2.86-0.73-4.28-3.41-5.42c-16.37-6.94-32.64-14.09-48.96-21.15c-1.82-0.79-3.71-1.44-5.95-2.3c0,3.01,0.24,5.47-0.06,7.87
					c-0.45,3.67,1.37,4.93,4.66,5.36c0.06-0.84,0.12-1.44,0.14-2.04c0.15-4.06,0.8-4.52,4.55-2.94c4.02,1.68,7.95,3.56,12.01,5.14
					c2.48,0.96,3.83,2.37,3.36,5.16c-0.66,3.85,1.47,5.13,4.89,5.45c0.1-0.65,0.2-1.12,0.24-1.59c0.31-4.7,0.68-4.96,4.87-3.16
					c5.11,2.19,10.28,4.28,15.27,6.73c1.16,0.57,2.52,2.56,2.36,3.69C98.55,220.51,100.94,222.06,105.18,222.76z M89.76,193.29
					c-5.8-4.01-9.08-3.84-14.75,0.61C80.07,198.53,84.89,196.32,89.76,193.29z M77.44,188.08c-5.42-4.1-8.55-3.97-14.63,0.54
					C67.85,193.12,72.64,191.1,77.44,188.08z M50.69,183.23c5.17,4.78,9.76,2.28,14.51-0.33C60.3,178.93,58.17,178.98,50.69,183.23z
					 M101.95,198.43c-6.21-3.89-9.37-3.69-14.57,0.77C92.44,204.03,97.13,201.26,101.95,198.43z"/>
				<path class="st4" d="M76.93,128.21c0.9,0.32,1.82,0.6,2.7,0.97c4.56,1.94,9.2,3.73,13.62,5.97c1.11,0.56,2.24,2.75,2.02,3.93
					c-0.4,2.04-2.28,2.57-4.34,1.69c-5-2.16-10.08-4.13-14.96-6.51c-1.03-0.5-1.77-2.41-1.89-3.75c-0.11-1.19,0.84-2.47,1.31-3.71
					C75.9,127.26,76.41,127.74,76.93,128.21z"/>
			</g>
		</g>
	</g>
	<g id="Layer_8" class="st1">
		<g id="KC6iOP_1_">
			<g>
				<path class="st4" d="M44.34,188.75c1.89-0.27,3.79-0.55,6-0.86c0.05-1.23,0.11-2.6,0.19-4.38c-1.92-0.2-3.66-0.39-5.72-0.61
					c0.29-1.99,0.53-3.66,0.83-5.72c2.15,0,4.23,0,6.45,0c0-1.83,0-3.24,0-4.95c-1.73-0.12-3.41-0.23-5.93-0.4
					c2.2-5.55,4.1-10.63,6.25-15.49c0.38-0.87,1.77-1.06,2.7-1.1c3.42-0.12,6.83-0.05,10.53-0.05c0.7-13.51,1.39-26.64,2.08-39.94
					c-3.39-1.25-1.84-4.99-2.1-8.22c9.78,0,19.39-0.66,28.92,0.22c6.96,0.65,11.98,7.18,14.55,16.47
					c3.98,14.38,7.32,29.13,11.23,43.55c1.18,4.36,3.16,8.39,5.22,12.04c0.78,1.39,2.8,1.31,4.8,2.12c0-2.36,0-3.77,0-5.19
					c0-16.73,0.74-33.56-0.31-50.16c-0.52-8.16-1.05-16.35-1.43-24.55c-0.13-2.74-1.1-5.4-1.81-8.65c4.7,0,8.6,0,12.77,0
					c0,3.86,0,7.61,0,11.72c1.72,0.17,3.18,0.31,5.02,0.49c0,10.05-1.3,52.04-4.76,51.38c0,9.39,0,17.67,0,26
					c1.44,0.18,2.7,0.34,3.9,0.5c0,10.56,0,20.76,0,31.22c-1.08-0.12-1.93-0.22-2.75-0.32c-0.74-16.9-6.77-26.62-15.69-25.6
					c-9.97,1.14-14.68,11.41-13.47,29.74c-2.26-0.26-5.18,2.24-5.57-4c-9.58,0-18.94,0-28.28,0c-1.33-14.85-6.35-22.7-14.22-22.51
					c-7.82,0.2-12.6,7.93-13.78,22.29c-2.08,1.14-3.29-0.14-3.78-3.05c-0.65-3.8-1.21-7.62-1.81-11.43
					C44.34,195.79,44.34,192.26,44.34,188.75z M108.96,192.51c-3.42,0-6.82,0.07-10.21-0.04c-1.18-0.04-2.48-0.15-3.5-0.89
					c-6.12-4.47-12.2-9.08-18.24-13.8c-0.74-0.58-1.54-2.07-1.59-3.21c-0.37-8.34-0.6-16.69-0.75-25.05c-0.02-1.02,0.56-2.67,1.14-3
					c2.96-1.69,5.8,0.31,6.68,4.76c0.74,3.74,1.16,7.62,1.76,11.76c0.92,0,1.81-0.01,2.7,0c7.19,0.05,8.62,1.95,9.64,12.54
					c0.3,3.15,0.75,6.27,1.12,9.38c4.46,0,8.66,0,13.31,0c-3.7-9.24-7.22-18.03-10.8-26.99c0.83-1.01,1.57-1.91,2.24-2.72
					c-0.45-1.39-0.81-2.52-1.2-3.73c0.87-0.86,1.58-1.55,2.24-2.2c0.75,1.28,1.32,2.24,1.85,3.16c1.03-0.77,1.89-1.42,2.81-2.1
					c1.94,3.17,3.76,6.16,5.59,9.15c0.27-0.22,0.55-0.44,0.82-0.66c-3.31-11.4-6.44-22.91-10.02-34.13
					c-1.67-5.24-5.05-9.22-8.94-9.59c-7.7-0.75-15.46-0.22-23.48-0.22c-1.01,20.24-2.05,40.39-2.95,60.56
					c-0.05,1.1,0.92,2.78,1.71,3.41c5.4,4.28,11.01,8.01,16.28,12.58c5.47,4.73,11.09,7.05,17.5,6.28
					C107.19,197.43,108.68,196.76,108.96,192.51z M132.17,106.38c-0.23,0.6-0.47,1.2-0.7,1.81c1.67,1.13,3.34,2.27,5.01,3.4
					c0.22-0.63,0.44-1.27,0.66-1.9C135.48,108.58,133.82,107.48,132.17,106.38z M136.28,105.36c0.24-0.55,0.47-1.1,0.71-1.65
					c-1.22-2.17-3.18-2.66-4.96-3.56c-0.2,0.47-0.39,0.94-0.59,1.41C133.05,102.82,134.67,104.09,136.28,105.36z M132.32,112.68
					c-0.21,0.4-0.41,0.81-0.62,1.21c0.75,3.32,3.15,2.75,4.8,3.96c0.19-0.43,0.38-0.87,0.56-1.3
					C135.48,115.26,133.9,113.97,132.32,112.68z"/>
				<path class="st4" d="M187.78,136.93c0.11,9.22,0.23,18.45,0.31,27.67c0.04,5.41,0.01,10.82,0.01,16.56c-14.98,0-29.69,0-44.76,0
					c0-14.94,0-29.59,0-44.24C158.15,136.93,172.96,136.93,187.78,136.93z M183.21,143.46c-9.82,0-19.44,0-29.07,0
					c1.87,2.43,3.95,5.32,6.15,5.49c7.57,0.59,15.19,0.23,22.93,0.23C183.21,147.01,183.21,145.34,183.21,143.46z M176.56,174.97
					c0.1-0.26,0.19-0.52,0.29-0.78c-2.02-1.63-3.99-4.5-6.08-4.66c-7.42-0.57-14.87-0.22-22.42-0.22c0,2.16,0,3.81,0,5.67
					C157.91,174.97,167.24,174.97,176.56,174.97z M148.39,160.1c0,2.49,0,4.44,0,6.43c6.48,0,12.69,0,19.05,0
					C162.27,157.61,155.21,160.21,148.39,160.1z M183.29,151.96c-6.75,0-13.25,0-20.09,0c5.9,8.85,13.24,4.49,20.09,5.71
					C183.29,155.49,183.29,153.93,183.29,151.96z M172.65,160.2c3.16,3.08,5.62,8.41,10.57,6.07c0-1.94,0-3.89,0-6.07
					C179.56,160.2,176.1,160.2,172.65,160.2z M157.3,157.33c-2.68-2.73-4.81-7.11-8.95-5.23c0,1.69,0,3.34,0,5.23
					C151.47,157.33,154.38,157.33,157.3,157.33z"/>
				<path class="st4" d="M123.18,222.68c-8.56-3.63-12.2-8.67-11.72-16.27c0.46-7.35,5.95-13.45,12.7-14.09
					c7.3-0.69,14.09,4.35,15.54,11.53c1.55,7.7-2.13,15.09-8.85,17.78c-0.88,0.35-1.76,0.7-2.64,1.05
					C126.52,222.68,124.85,222.68,123.18,222.68z M133.21,207.49c0.01-4.35-3.32-8.04-7.35-8.15c-4.12-0.11-7.75,3.77-7.69,8.23
					c0.06,4.34,3.51,7.95,7.59,7.92C129.87,215.48,133.19,211.9,133.21,207.49z"/>
				<path class="st4" d="M61.6,222.21c-4.19-1.62-7.69-4.18-9.31-9.22c-2.29-7.16,0.74-15.04,6.87-17.89
					c6.21-2.88,13.42,0.61,15.93,7.71c2.49,7.06-0.3,14.96-6.4,18.13c-0.79,0.41-1.58,0.84-2.37,1.27
					C64.75,222.21,63.18,222.21,61.6,222.21z M63.85,200.48c-3.83-0.04-6.97,3.48-6.9,7.76c0.06,4.04,3.2,7.64,6.73,7.7
					c3.8,0.07,6.8-3.43,6.77-7.88C70.41,203.74,67.61,200.51,63.85,200.48z"/>
				<path class="st4" d="M144.08,133.26c0-14.72,0-29.19,0-44.04c13.52,0,27.04,0,40.86,0c0,14.5,0,29.18,0,44.04
					C171.31,133.26,157.78,133.26,144.08,133.26z M154.09,95.39c-0.13,0.26-0.25,0.52-0.38,0.78c1.79,1.58,3.53,4.39,5.37,4.52
					c7.19,0.53,14.4,0.22,21.63,0.22c0-2.1,0-3.67,0-5.52C171.74,95.39,162.91,95.39,154.09,95.39z M175.38,127.16
					c0.12-0.26,0.24-0.52,0.35-0.78c-1.86-1.65-3.66-4.55-5.58-4.71c-6.88-0.58-13.8-0.23-20.82-0.23c0,2.12,0,3.79,0,5.72
					C158.13,127.16,166.75,127.16,175.38,127.16z M166.06,118.41c-4.87-9.01-11.36-6.36-17.6-6.43c0,2.4,0,4.34,0,6.43
					C154.42,118.41,160.16,118.41,166.06,118.41z M180.74,103.99c-6.3,0-12.38,0-18.55,0c5.36,8.79,12.16,4.68,18.55,5.58
					C180.74,107.42,180.74,105.85,180.74,103.99z M180.68,118.1c0-1.91,0-3.86,0-5.93c-3.43,0-6.66,0-10.68,0
					C173.77,115.42,176.18,120.32,180.68,118.1z M148.39,109.27c3.05,0,5.72,0,9.09,0c-3.21-2.94-5.28-7.13-9.09-5.22
					C148.39,105.84,148.39,107.41,148.39,109.27z"/>
				<path class="st4" d="M92.43,152.51c-0.77-1.17-1.36-2.06-2.15-3.26c3.83-2.88,7.49-5.64,11.44-8.63
					c0.73,1.14,1.35,2.12,2.12,3.33C100.01,146.83,96.44,149.51,92.43,152.51z"/>
			</g>
		</g>
		<rect x="137.84" y="183.56" class="st4" width="45.45" height="6.65"/>
	</g>
	<g id="Layer_9" class="st1">
		<g id="Yi7mKX_1_">
			<g>
				<path class="st9" d="M130.33,172.54c0-22.01,0-43.79,0-65.46c-7.61-2.25-49.67-1.33-53.86,1.33c-0.09-1.73-0.16-3.23-0.27-5.24
					c10.05,0,19.87,0.46,29.62-0.11c15.89-0.93,30.89,1.08,45.3,8.53c10.44,5.4,21.71,9.2,32.5,13.95c1.38,0.61,2.99,2.66,3.02,4.07
					c0.22,14.15,0.14,28.3,0.14,42.92C168.07,172.54,149.54,172.54,130.33,172.54z"/>
				<path class="st9" d="M125.88,116.64c-3.8,1.95-7.72,3.97-12.33,6.34c3.42,0.59,6.23,1.07,9.55,1.65
					c0,11.71-0.13,23.33,0.07,34.95c0.08,4.56-1.59,9.48,3,13.42c1.23,1.05,0.39,4.52,0.54,7.73c-6.52-6.26-6.51-6.24-12.72-1.5
					c-0.61,0.47-1.47,0.86-2.22,0.86c-18.97,0.05-37.93,0.04-57.49,0.04c0.38-16.53-4.3-32.9,3.78-49.07
					c-2.04-0.14-3.45-0.42-4.83-0.29c-1.38,0.12-2.73,0.64-4.09,0.98c0.57,1.37,1.51,2.71,1.63,4.12c0.34,3.87,0.74,7.81,0.32,11.63
					c-0.29,2.66-1.88,5.17-2.74,7.35c-4.89-5.61-4.54-12.57-2.02-20.64c1.94-6.19,5.3-5.51,9.57-5.56c1.41-0.02,3.38-0.16,4.11-1.05
					c2.48-3.06,5.23-4.84,9.35-4.66c0.9,0.04,2.34-1.7,2.76-2.9c2.84-8.04,7.87-11.91,16.89-11.23c9.28,0.7,18.65,0.17,27.98,0.2
					C123.87,109.03,123.87,109.04,125.88,116.64z M106.22,154.22c-0.08,0.69-0.15,1.38-0.23,2.07c2.53,0.34,5.09,1.07,7.59,0.89
					c1.7-0.12,4.44-1.22,4.76-2.4c1.46-5.4,2.94-10.96,3.07-16.5c0.15-6.19-3.64-10.28-8.01-10.29
					c-15.81-0.07-31.63-0.03-47.44-0.15c-2.67-0.02-4.49,0.64-5.24,3.39c-1.3,4.77-2.57,9.55-4.05,14.27
					c-1.18,3.75-0.15,5.22,3.88,5.99c14.1,2.71,28.12,2.32,42.09-0.43c1.46-0.29,3.37-2.5,3.62-4.04c0.8-5.04,0.92-10.18,1.3-15.33
					c2.87,0,5.51,0,9.02,0c-6.87,7.45-3.32,14.65-0.32,22.08C112.29,153.93,109.26,154.07,106.22,154.22z"/>
				<path class="st9" d="M54.33,197.14c0-4.53,0-8.43,0-12.62c19.2,0,38.1,0,57.75,0c0,3.48,0.39,6.96-0.2,10.26
					c-0.22,1.23-2.71,2.87-4.22,2.93c-11.79,0.47-23.59,0.78-35.39,0.75C66.35,198.45,60.43,197.62,54.33,197.14z M59.66,184.76
					c-1.73,1.22-2.89,2.03-4.04,2.85c1.54,0.9,3,2.14,4.66,2.54c0.72,0.17,1.85-1.41,2.79-2.2
					C62.08,187.01,61.08,186.09,59.66,184.76z M101.72,185.12c-3.05,0.89-5.32,1.55-7.59,2.21c0.56,0.99,1.08,2.79,1.68,2.82
					C98.3,190.25,101.33,190.62,101.72,185.12z"/>
				<path class="st9" d="M107.26,201.4c8.82,0.59,8.49-5.26,7.97-11.34c-0.11-1.29-0.04-2.81,0.55-3.89
					c1.32-2.4,3.03-4.59,4.58-6.87c1.4,2.24,3.81,4.41,3.99,6.75c0.44,5.55,0.16,11.22-0.47,16.77c-0.67,5.88-5.48,5.13-9.64,5.09
					C110.29,207.88,107.45,206.61,107.26,201.4z M121.13,184.04c-0.48,0.01-0.95,0.01-1.43,0.02c-2.04,6.36-2.05,12.68,0.11,18.97
					c0.44-0.01,0.88-0.01,1.32-0.02C121.13,196.7,121.13,190.38,121.13,184.04z"/>
				<path class="st9" d="M166.48,182.01c-11.5,0.65-23,1.31-34.95,1.99c-0.07-1.63-0.13-2.97-0.19-4.08c11.94,0,23.5,0,35.06,0
					C166.43,180.62,166.46,181.32,166.48,182.01z"/>
				<path class="st9" d="M172.05,175.47c4.04,4.9,5.3,16.23,2.01,19.01c-1.85,1.57-5.53,1.45-8.32,1.26
					c-1.61-0.11-3.1-1.9-5.47-3.49c9.27-1.98,9.2-1.99,9.97-10.45C170.41,179.95,171.26,178.15,172.05,175.47z"/>
				<path class="st9" d="M166.45,187.43c-11.25,2.92-23,3.24-34.85,5.62c-0.13-1.64-0.24-2.99-0.36-4.53
					c11.85-1.12,23.32-2.21,34.8-3.3C166.18,185.96,166.32,186.68,166.45,187.43z"/>
				<path class="st9" d="M179.07,175.57c3.99,2.78,5.51,10.37,3.58,15.56c-0.54,1.46-2.66,2.33-4.05,3.47
					c-0.46-0.32-0.92-0.65-1.39-0.97C177.81,187.82,178.41,182.01,179.07,175.57z"/>
				<path class="st9" d="M78.68,201.61c-0.46,7.32-5.38,5.58-9.24,5.89c-4.39,0.34-5.84-2.1-5.96-5.89
					C68.49,201.61,73.41,201.61,78.68,201.61z"/>
			</g>
		</g>
	</g>
</g>
<g id="Layer_2_2_">
	<g id="eOTZNW_1_">
		<g>
			<path class="st10" d="M492.1,319.95c-28.07-31.86-55.67-63.19-83.65-94.95c11.12-12.65,22.07-25.11,33.38-37.98
				c16.7,18.94,33.27,37.74,50.25,56.99c33.5-37.99,66.82-75.79,100.47-113.96c11.15,12.63,22.1,25.04,33.45,37.89
				C581.46,218.5,537.04,268.93,492.1,319.95z"/>
		</g>
	</g>
	<g id="Ohuny6_1_">
		<g>
			<path d="M104,0c5.67,0,11.33,0,17,0c1.12,0.27,2.22,0.64,3.35,0.79c46.85,6.36,78.44,31.89,94.62,76.14
				c3.15,8.61,4.08,18.02,6.03,27.07c0,5.67,0,11.33,0,17c-0.28,1.28-0.66,2.54-0.83,3.83c-5.92,43.92-29.39,74.75-70.05,91.86
				c-10.37,4.36-22.04,5.62-33.12,8.3c-5.67,0-11.33,0-17,0c-1.11-0.27-2.21-0.64-3.34-0.79c-46.86-6.37-78.48-31.89-94.64-76.18
				c-3.14-8.6-4.07-18-6.02-27.03c0-5.67,0-11.33,0-17c0.29-1.43,0.66-2.84,0.87-4.28c6.71-46.35,32.14-77.7,76.04-93.69
				C85.53,2.9,94.95,1.95,104,0z M186.94,86.45c-1.01-1.46-1.71-2.78-2.7-3.83c-2.85-3.03-5.81-5.96-8.76-8.91
				c-4.73-4.74-5.68-4.74-10.49,0.06c-19.58,19.53-39.14,39.08-58.74,58.6c-3.98,3.96-5.57,3.96-9.48-0.01
				c-8.07-8.19-16.18-16.33-24.08-24.68c-3.25-3.43-6-3.48-9.29-0.22c-2.95,2.93-6.09,5.68-9.25,8.39c-3,2.57-3.34,5.19-0.55,8.08
				c14.58,15.1,29.19,30.17,43.73,45.31c2.7,2.81,5.18,3.2,8.07,0.3c26.25-26.29,52.54-52.55,78.77-78.86
				C185.29,89.56,185.95,88,186.94,86.45z"/>
		</g>
	</g>
</g>
</svg>
