<?xml version="1.0" encoding="utf-8"?>
<!-- Generator: Adobe Illustrator 24.1.0, SVG Export Plug-In . SVG Version: 6.00 Build 0)  -->
<svg version="1.1" id="Layer_1" xmlns="http://www.w3.org/2000/svg" xmlns:xlink="http://www.w3.org/1999/xlink" x="0px" y="0px"
	 viewBox="0 0 225 225" style="enable-background:new 0 0 225 225;" xml:space="preserve">
<style type="text/css">
	.st0{display:none;}
	.st1{display:inline;}
	.st2{opacity:8.000000e-02;}
	.st3{fill:#7E7E7E;}
	.st4{fill:#698A7E;}
	.st5{opacity:8.000000e-02;fill:#698A7E;enable-background:new    ;}
	.st6{fill:#6A8A80;}
	.st7{fill:none;}
	.st8{fill:#FFFFFF;}
	.st9{fill:#9D9E9E;}
	.st10{fill:#73B256;}
	.st11{fill:#688A7E;}
</style>
<g id="Layer_1_2_" class="st0">
	<g id="Layer_1_1_" class="st1">
		<g id="VNr6mR_1_" class="st2">
			<g>
				<path class="st3" d="M188.1,104.4c-0.7,5-1.4,10-2.2,15c-2.1,12.6-9.7,21.5-19.2,29.2c-6.8,5.5-13.5,11.1-20.3,16.6
					c-1.8,1.4-2.7,2.6-2.3,5.2c1.3,8.7-0.6,16.3-7.4,22.6c-4.9,4.5-9.1,9.7-13.7,14.4c-3.2,3.3-4.9,2.8-6-1.6
					c-1.6-6.9-2.9-13.8-4.4-20.7c-3.5-0.5-6.9,3.4-10.1-0.7c-4.9,8.4-9.7,16.3-14.4,24.3c-0.3-0.1-0.5-0.1-0.8-0.2
					c-0.3-3.3-0.7-6.6-1.1-10.8c-13.9,11.6-27.3,22.9-40.7,34.1c-0.1-0.1-0.2-0.2-0.4-0.3c6.7-11.4,13.4-22.8,20.4-34.8
					c-7.5,1.5-14.1,2.9-20.8,4.2c-0.1-0.2-0.3-0.4-0.4-0.6c9-7.6,18-15.1,27.9-23.3c-4.1,0-7.2,0-10.3,0c-0.1-0.3-0.1-0.5-0.2-0.8
					c6.8-3.9,13.5-7.7,19.4-11.1c0.2-3.8,0.3-6.9,0.5-10.6c-5.3-1.1-10.8-2.3-16.4-3.5c-1.8-0.4-3.7-0.7-5.5-1.3
					c-2.8-0.8-3.3-2.5-1.3-4.5c6.7-6.3,13.4-12.6,20.1-18.9c3.7-3.5,8.4-4.1,13.1-3.5c6,0.8,9.9-1.1,13.5-6.1
					c5.4-7.4,11.9-14,17.7-21.1c7.7-9.4,18-13.6,29.6-15.2c3.3-0.5,6.5-0.9,9.8-1.3c4,0,8,0,12,0c3,1.2,6.1,2.1,8.8,3.8
					c3.6,2.2,4.3,6.3,5.1,10.2C188.1,96.8,188.1,100.6,188.1,104.4z M115.3,177.8c18.4-14.4,37-28.1,53.6-44c1.4-1.4,2.8-3,3.6-4.7
					c5.9-11.4,6.6-23.7,5.8-36.2c-0.2-2.7-1.8-4.4-4.9-4.3c-5.7,0.2-11.5,0.1-17.2,0.6c-10.8,1-20.3,4.7-27.4,13.5
					c-12.8,16-25.8,31.8-38.7,47.7c-0.3,0.4-0.4,0.9-0.7,1.4C100.7,157.8,109.3,166.1,115.3,177.8z M70.1,187.4
					c0.1,0.1,0.2,0.3,0.3,0.4c4.1-1.5,8.3-3,12.9-4.6c-1.2,3.5-2.1,6.3-3.2,9.9c4.1-2.6,7.5-4.8,11-7.1c0.1,1,0.2,1.7,0.3,2.9
					c3.4-3.5,6.5-6.6,9.7-9.9c-2.6-4.8-6.1-8.7-10.7-11.6c-0.8-0.6-2.4-0.9-3.2-0.5c-3,1.3-5.8,3-9.1,4.8c1.8,0.8,3.2,1.3,4.9,2
					C78.5,178.4,74.3,182.9,70.1,187.4z M111.1,179.9c-5.6-10.9-13.3-18.9-24.4-24.1c-0.4,1.6-0.8,2.9-1.1,4.4
					c10.5,3.8,17.5,10.9,21.2,21.2C108.3,180.9,109.5,180.5,111.1,179.9z"/>
				<path class="st3" d="M147.8,138.5c-10.7,0-19.5-8.6-19.5-19.2s8.8-19.4,19.4-19.5c10.6-0.1,19.4,8.7,19.4,19.4
					C167.2,129.8,158.6,138.5,147.8,138.5z M133.1,119.2c0,8.4,6.6,15.1,14.8,15c8.2-0.1,14.7-6.6,14.8-14.8c0.1-8.2-6.7-15-14.9-15
					C139.4,104.4,133.1,110.9,133.1,119.2z"/>
			</g>
		</g>
		<g id="VNr6mR_2_">
			<g>
				<path class="st4" d="M188.1,103.7c-0.7,5-1.4,10-2.2,15c-2.1,12.6-9.7,21.5-19.2,29.2c-6.8,5.5-13.5,11.1-20.3,16.6
					c-1.8,1.4-2.7,2.6-2.3,5.2c1.3,8.7-0.6,16.3-7.4,22.6c-4.9,4.5-9.1,9.7-13.7,14.4c-3.2,3.3-4.9,2.8-6-1.6
					c-1.6-6.9-2.9-13.8-4.4-20.7c-3.5-0.5-6.9,3.4-10.1-0.7c-4.9,8.4-9.7,16.3-14.4,24.3c-0.3-0.1-0.5-0.1-0.8-0.2
					c-0.3-3.3-0.7-6.6-1.1-10.8c-13.9,11.6-27.3,22.9-40.7,34.1c-0.1-0.1-0.2-0.2-0.4-0.3c6.7-11.4,13.4-22.8,20.4-34.8
					c-7.5,1.5-14.1,2.9-20.8,4.2c-0.1-0.2-0.3-0.4-0.4-0.6c9-7.6,18-15.1,27.9-23.3c-4.1,0-7.2,0-10.3,0c-0.1-0.3-0.1-0.5-0.2-0.8
					c6.8-3.9,13.5-7.7,19.4-11.1c0.2-3.8,0.3-6.9,0.5-10.6c-5.3-1.1-10.8-2.3-16.4-3.5c-1.8-0.4-3.7-0.7-5.5-1.3
					c-2.8-0.8-3.3-2.5-1.3-4.5c6.7-6.3,13.4-12.6,20.1-18.9c3.7-3.5,8.4-4.1,13.1-3.5c6,0.8,9.9-1.1,13.5-6.1
					c5.4-7.4,11.9-14,17.7-21.1c7.7-9.4,18-13.6,29.6-15.2c3.3-0.5,6.5-0.9,9.8-1.3c4,0,8,0,12,0c3,1.2,6.1,2.1,8.8,3.8
					c3.6,2.2,4.3,6.3,5.1,10.2C188.1,96.2,188.1,99.9,188.1,103.7z M115.3,177.1c18.4-14.4,37-28.1,53.6-44c1.4-1.4,2.8-3,3.6-4.7
					c5.9-11.4,6.6-23.7,5.8-36.2c-0.2-2.7-1.8-4.4-4.9-4.3c-5.7,0.2-11.5,0.1-17.2,0.6c-10.8,1-20.3,4.7-27.4,13.5
					c-12.8,16-25.8,31.8-38.7,47.7c-0.3,0.4-0.4,0.9-0.7,1.4C100.7,157.1,109.3,165.5,115.3,177.1z M70.1,186.8
					c0.1,0.1,0.2,0.3,0.3,0.4c4.1-1.5,8.3-3,12.9-4.6c-1.2,3.5-2.1,6.3-3.2,9.9c4.1-2.6,7.5-4.8,11-7.1c0.1,1,0.2,1.7,0.3,2.9
					c3.4-3.5,6.5-6.6,9.7-9.9c-2.6-4.8-6.1-8.7-10.7-11.6c-0.8-0.6-2.4-0.9-3.2-0.5c-3,1.3-5.8,3-9.1,4.8c1.8,0.8,3.2,1.3,4.9,2
					C78.5,177.8,74.3,182.3,70.1,186.8z M111.1,179.3c-5.6-10.9-13.3-18.9-24.4-24.1c-0.4,1.6-0.8,2.9-1.1,4.4
					c10.5,3.8,17.5,10.9,21.2,21.2C108.3,180.2,109.5,179.8,111.1,179.3z"/>
				<path class="st4" d="M147.8,137.8c-10.7,0-19.5-8.6-19.5-19.2s8.8-19.4,19.4-19.5c10.6-0.1,19.4,8.7,19.4,19.4
					C167.2,129.2,158.6,137.8,147.8,137.8z M133.1,118.5c0,8.4,6.6,15.1,14.8,15c8.2-0.1,14.7-6.6,14.8-14.8c0.1-8.2-6.7-15-14.9-15
					C139.4,103.8,133.1,110.2,133.1,118.5z"/>
			</g>
		</g>
	</g>
	<g id="Layer_2_1_" class="st1">
		<g>
			<path class="st5" d="M493.2,236.8h-16v16h-16v16h16v16h16v-16h16v-16h-16V236.8z"/>
			<path class="st5" d="M717.2,124.8v-80h-40V14.6l21-41.9h-89.9l21,41.9v30.1h-20.5c-5.5-9.5-15.8-16-27.5-16h-128
				c-17.6,0-32,14.3-32,32h-40v-32h-120c-22.1,0-40,18-40,40v8h88v16h-88v8c0,22,17.9,40,40,40h120v-32h40c0,17.7,14.4,32,32,32h5.1
				l-26.5,84.8c-6.7,10.1-10.6,22.2-10.6,35.2c0,35.3,28.7,64,64,64c3.2,0,6.2-0.3,9.3-0.8l13,64.8h-11.2l-16,32h-19v48h256v-48h-19
				l-16-32h-13v-60.5L550.4,257l29-116.2h1.8c11.8,0,22-6.5,27.5-16h20.5v22.1l-21,41.9h89.9l-21-41.9v-22.1
				C677.2,124.8,717.2,124.8,717.2,124.8z M238.6,60.8c3.3-9.3,12.2-16,22.6-16h104v16H238.6z M365.2,124.8h-104
				c-10.4,0-19.3-6.7-22.6-16h126.6V124.8z M381.2,92.8h-56v-16h96v16H381.2z M437.2,260.8c0-26.5,21.5-48,48-48s48,21.5,48,48
				s-21.5,48-48,48S437.2,287.2,437.2,260.8z M547.8,274l52.8,31.7L515,345.2l-5.1-25.5C529,311.7,543.4,294.7,547.8,274z
				 M616.1,315l27.8,16.7l-120.8,53.7l-4.8-24l98.3-45.4L616.1,315z M701.2,452.8h-224v-16h224V452.8z M680.2,420.8H498.1l8-16
				h166.1L680.2,420.8z M554.9,388.8l98.3-43.7v43.7H554.9z M540.8,229.2c-11-19.4-31.8-32.5-55.6-32.5c-10.8,0-21,2.7-30,7.5
				l19.8-63.5H563L540.8,229.2z M597.2,108.8c0,8.8-7.2,16-16,16h-128c-8.8,0-16-7.2-16-16v-48c0-8.8,7.2-16,16-16h128
				c8.8,0,16,7.2,16,16V108.8z M672.2-11.2l-8,16h-22.1l-8-16H672.2z M645.2,20.8h16v24h-16V20.8z M701.2,60.8v16h-88v-16
				C613.2,60.8,701.2,60.8,701.2,60.8z M613.2,92.8h88v16h-88V92.8z M634.1,172.8l8-16h22.1l8,16H634.1z M661.2,140.8h-16v-16h16
				V140.8z"/>
			<path class="st5" d="M485.2,60.8c-13.2,0-24,10.8-24,24s10.8,24,24,24s24-10.8,24-24S498.4,60.8,485.2,60.8z M485.2,92.8
				c-4.4,0-8-3.6-8-8c0-4.4,3.6-8,8-8s8,3.6,8,8C493.2,89.2,489.6,92.8,485.2,92.8z"/>
			<path class="st5" d="M549.2,60.8c-13.2,0-24,10.8-24,24s10.8,24,24,24s24-10.8,24-24S562.4,60.8,549.2,60.8z M549.2,92.8
				c-4.4,0-8-3.6-8-8c0-4.4,3.6-8,8-8s8,3.6,8,8C557.2,89.2,553.6,92.8,549.2,92.8z"/>
			<path class="st5" d="M388.6,336.9l12.9-15.5l-33-33l-15.5,13c-3.5-1.8-7.1-3.2-10.8-4.5l-1.8-20.1h-46.6l-1.8,20.1
				c-3.7,1.2-7.3,2.7-10.8,4.5l-15.5-13l-33,33l12.9,15.5c-1.8,3.5-3.2,7.1-4.5,10.8l-20.1,1.8v46.6l20.1,1.8
				c1.2,3.7,2.7,7.3,4.5,10.8l-12.9,15.5l33,33l15.5-13c3.5,1.8,7.1,3.2,10.8,4.5l1.8,20.1h46.6l1.8-20.1c3.7-1.2,7.3-2.7,10.8-4.5
				l15.5,13l33-33l-12.9-15.5c1.8-3.5,3.2-7.1,4.5-10.8l20.1-1.8v-46.6l-20.1-1.8C391.9,343.9,390.4,340.3,388.6,336.9z
				 M397.2,381.5l-16.6,1.5l-1.4,5.5c-1.5,6-3.9,11.8-7.1,17l-2.9,4.9l10.7,12.8l-12.3,12.3l-12.8-10.7l-4.9,2.9
				c-5.3,3.2-11,5.5-17,7.1l-5.5,1.4l-1.5,16.6h-17.4l-1.5-16.6l-5.5-1.4c-6-1.5-11.8-3.9-17-7.1l-4.9-2.9l-12.8,10.7l-12.3-12.3
				l10.7-12.8l-2.9-4.9c-3.2-5.3-5.5-11-7.1-17l-1.4-5.5l-16.6-1.5v-17.4l16.6-1.5l1.4-5.5c1.5-6,3.9-11.8,7.1-17l2.9-4.9
				l-10.7-12.8l12.3-12.3l12.8,10.7l4.9-2.9c5.3-3.2,11-5.5,17-7.1l5.5-1.4l1.5-16.6h17.4l1.5,16.6l5.5,1.4c6,1.5,11.8,3.9,17,7.1
				l4.9,2.9l12.8-10.7l12.3,12.3l-10.7,12.8l2.9,4.9c3.2,5.3,5.5,11,7.1,17l1.4,5.5l16.6,1.5V381.5L397.2,381.5z"/>
			<path class="st5" d="M317.2,324.8c-26.5,0-48,21.5-48,48s21.5,48,48,48s48-21.5,48-48S343.7,324.8,317.2,324.8z M317.2,404.8
				c-17.6,0-32-14.4-32-32s14.4-32,32-32s32,14.4,32,32S334.8,404.8,317.2,404.8z"/>
			<path class="st5" d="M309.2,156.8h16v16h-16V156.8z"/>
			<path class="st5" d="M309.2,188.8h16v16h-16V188.8z"/>
			<path class="st5" d="M309.2,220.8h16v16h-16V220.8z"/>
		</g>
		<path class="st6" d="M36.9,17.2v-23H25.4v-8.6l6-12H5.6l6,12v8.6H5.8c-1.6-2.7-4.5-4.6-7.9-4.6h-36.8c-5.1,0-9.2,4.1-9.2,9.2
			h-11.5v-9.2h-34.5c-6.3,0-11.5,5.2-11.5,11.5v2.3h25.3V8h-25.3v2.3c0,6.3,5.2,11.5,11.5,11.5h34.5v-9.2h11.5
			c0,5.1,4.1,9.2,9.2,9.2h1.5l-7.6,24.3c-1.9,2.9-3.1,6.4-3.1,10.1c0,10.1,8.2,18.4,18.4,18.4c0.9,0,1.8-0.1,2.7-0.2l3.7,18.6h-3.2
			l-4.6,9.2h-5.5V116h73.5v-13.8h-5.5L26.8,93h-3.7V75.6L-11,55.2l8.3-33.4h0.5c3.4,0,6.3-1.9,7.9-4.6h5.9v6.4l-6,12h25.8l-6-12
			v-6.4L36.9,17.2L36.9,17.2z M-100.6-1.2c0.9-2.7,3.5-4.6,6.5-4.6h29.9v4.6C-64.2-1.2-100.6-1.2-100.6-1.2z M-64.2,17.2h-29.9
			c-3,0-5.6-1.9-6.5-4.6h36.4C-64.2,12.6-64.2,17.2-64.2,17.2z M-59.6,8h-16.1V3.4h27.6V8H-59.6z M-43.5,56.2
			c0-7.6,6.2-13.8,13.8-13.8S-16,48.6-16,56.2S-22.1,70-29.8,70C-37.4,70-43.5,63.9-43.5,56.2z M-11.8,60.1l15.2,9.1l-24.6,11.3
			l-1.5-7.3C-17.2,70.9-13,66-11.8,60.1z M7.8,71.8l8,4.8L-18.9,92l-1.4-6.9L8,72.1L7.8,71.8z M32.3,111.4h-64.3v-4.6h64.3
			C32.3,106.8,32.3,111.4,32.3,111.4z M26.3,102.2H-26l2.3-4.6H24L26.3,102.2z M-9.7,93l28.2-12.5V93C18.5,93-9.7,93-9.7,93z
			 M-13.8,47.2c-3.2-5.6-9.1-9.3-16-9.3c-3.1,0-6,0.8-8.6,2.2l5.7-18.2h25.2L-13.8,47.2z M2.4,12.6c0,2.5-2.1,4.6-4.6,4.6H-39
			c-2.5,0-4.6-2.1-4.6-4.6V-1.2c0-2.5,2.1-4.6,4.6-4.6h36.8c2.5,0,4.6,2.1,4.6,4.6C2.4-1.2,2.4,12.6,2.4,12.6z M24-21.9l-2.3,4.6
			h-6.4L13-21.9H24z M16.2-12.7h4.6v6.9h-4.6V-12.7z M32.3-1.2v4.6H7v-4.6H32.3z M7,8h25.3v4.6H7V8z M13,31l2.3-4.6h6.4L24,31H13z
			 M20.8,21.8h-4.6v-4.6h4.6V21.8z"/>
	</g>
	<g id="Layer_3" class="st1">
		<g>
			<rect x="66.9" y="91.5" class="st7" width="103.7" height="2.6"/>
			<rect x="59.8" y="181.1" class="st7" width="117.9" height="7.7"/>
			<path class="st7" d="M182.9,166c0-20.8,0-41.5,0-62.3c0-4.4-0.3-4.6-4.8-4.6c-20.6,0-41.3,0-61.9,0s-41.3,0-62,0
				c-4.5,0-4.8,0.3-4.8,4.6c0,20.8,0,41.5,0,62.3c0,4.2,0.5,4.7,4.8,4.7c41.3,0,82.6,0,123.9,0C182.5,170.6,182.9,170.2,182.9,166z
				 M113.8,123.4c-0.3,0.4-0.7,0.9-1.1,1.3c-9.6,9.6-19.2,19.1-28.9,28.7c-1.4,1.4-2,1.4-3.4,0c-5.4-5.5-10.8-11.1-16.1-16.6
				c-0.3-0.3-0.5-0.6-0.8-0.9c0-0.3,0-0.6,0-0.9c1.7-1.6,3.5-3.3,5.3-4.9c0.8-0.6,1.6-0.2,2.2,0.5c3.1,3.1,6.2,6.3,9.3,9.4
				c1.5,1.5,2,1.5,3.5,0c7.4-7.4,14.9-14.7,22.3-22.1c1.3-1.3,1.9-1.3,3.2,0c1.5,1.5,3,3.1,4.5,4.6
				C113.8,122.8,113.8,123.1,113.8,123.4z M155,136c3.7,3.6,7.4,7.3,11,10.9c1.3,1.3,1.3,2,0,3.2c-1.9,1.9-3.8,3.8-5.7,5.7
				c-1.1,1.1-1.9,1.1-3,0c-3.7-3.7-7.5-7.4-11.1-11.1c-0.8-0.8-1.3-0.8-2.1,0c-3.5,3.5-7,7-10.5,10.4c-0.3,0.3-0.6,0.6-1,0.9
				c-0.9,0.7-1.6,0.8-2.4,0c-2.2-2.1-4.3-4.2-6.4-6.4c-0.9-0.9-0.8-1.7,0.2-2.7c3.8-3.8,7.5-7.5,11.4-11.2c0.8-0.8,0.8-1.2,0-2
				c-3.6-3.5-7.2-7.1-10.8-10.6c-1.7-1.7-1.7-2.2,0-3.9c1.6-1.6,3.2-3.2,4.8-4.7c2-2,2.3-2,4.3,0c3.5,3.5,7,6.9,10.5,10.5
				c0.8,0.8,1.2,0.8,2,0c3.7-3.7,7.4-7.4,11.1-11.1c1.2-1.2,1.9-1.2,3.1,0c2,2,3.9,3.9,5.9,5.9c0.4,0.4,0.6,0.9,1,1.5
				c-0.4,0.6-0.7,1.1-1.1,1.5c-3.7,3.7-7.4,7.4-11.1,11C154.2,134.6,154.2,135.1,155,136z"/>
			<path class="st5" d="M135.2,221.6c-12.7,0-25.3,0-38,0c-5.1,0-7.2-2.4-6.1-6.5H66.9v8.9h100.2v-8.9h-25.9
				C142.4,219.2,140.3,221.6,135.2,221.6z"/>
			<path class="st5" d="M106.2,117.9c-7.4,7.3-14.9,14.7-22.3,22.1c-1.5,1.4-2,1.4-3.5,0c-3.1-3.1-6.2-6.3-9.3-9.4
				c-0.7-0.7-1.5-1.1-2.2-0.5c-1.8,1.6-3.5,3.2-5.3,4.9c0,0.3,0,0.6,0,0.9c0.2,0.3,0.5,0.6,0.8,0.9c5.4,5.5,10.7,11.1,16.1,16.6
				c1.4,1.4,2,1.4,3.4,0c9.6-9.6,19.3-19.1,28.9-28.7c0.4-0.4,0.7-0.8,1.1-1.3c0-0.3,0-0.6,0-0.9c-1.5-1.5-3-3.1-4.5-4.6
				C108,116.6,107.4,116.6,106.2,117.9z"/>
			<path class="st5" d="M166.1,122.8c0.4-0.4,0.7-0.9,1.1-1.5c-0.4-0.6-0.6-1.1-1-1.5c-1.9-2-3.9-3.9-5.9-5.9
				c-1.2-1.2-1.9-1.2-3.1,0c-3.7,3.7-7.5,7.4-11.1,11.1c-0.8,0.8-1.2,0.8-2,0c-3.5-3.5-7-7-10.5-10.5c-2-2-2.3-2-4.3,0
				c-1.6,1.6-3.2,3.2-4.8,4.7c-1.7,1.7-1.7,2.2,0,3.9c3.6,3.6,7.2,7.1,10.8,10.6c0.8,0.8,0.8,1.2,0,2c-3.8,3.7-7.6,7.5-11.4,11.2
				c-1,1-1.1,1.8-0.2,2.7c2.1,2.1,4.2,4.3,6.4,6.4c0.8,0.8,1.6,0.7,2.4,0c0.4-0.3,0.7-0.6,1-0.9c3.5-3.5,7.1-6.9,10.5-10.4
				c0.8-0.8,1.3-0.8,2.1,0c3.7,3.7,7.4,7.4,11.1,11.1c1.1,1.1,1.9,1.1,3,0c1.9-1.9,3.8-3.8,5.7-5.7c1.3-1.3,1.3-2,0-3.2
				c-3.7-3.6-7.3-7.3-11-10.9c-0.8-0.8-0.8-1.3,0-2.1C158.7,130.2,162.4,126.5,166.1,122.8z"/>
			<path class="st5" d="M178.3,201.1c3.3-0.1,6.5-1.5,9.7-2.3c0-36.6,0-73.3,0-109.9c-47.9,0-95.8,0-143.7,0c0,36.7,0,73.3,0,109.9
				c3.2,0.8,6.5,2.2,9.7,2.3c12.6,0.3,25.3,0.1,38,0.1c1.1,0,2.3,0,4.5,0c-1.7,4.4-3,8.1-4.7,11.7c-0.4,0.8-0.6,1.5-0.8,2.2h50.2
				c-0.2-0.7-0.4-1.4-0.8-2.2c-1.6-3.6-2.9-7.3-4.6-11.7c2.2,0,3.4,0,4.5,0C153,201.2,165.7,201.4,178.3,201.1z M66.9,91.5h103.7
				v2.6H66.9V91.5z M49.5,165.9c0-20.8,0-41.5,0-62.3c0-4.4,0.3-4.6,4.8-4.6c20.7,0,41.3,0,62,0s41.3,0,61.9,0
				c4.5,0,4.8,0.3,4.8,4.6c0,20.8,0,41.5,0,62.3c0,4.2-0.5,4.7-4.8,4.7c-41.3,0-82.6,0-123.9,0C49.9,170.6,49.5,170.2,49.5,165.9z
				 M59.8,188.8v-7.7h117.9v7.7H59.8z"/>
			<path class="st5" d="M97.2,221.6c12.7,0,25.3,0,38,0c5.1,0,7.2-2.4,6.1-6.5H91.1C90,219.2,92.1,221.6,97.2,221.6z"/>
		</g>
	</g>
	<g id="Layer_4" class="st1">
		<g id="fNdCKC_1_">
			<g>
				<path class="st4" d="M83.3,201.5c8.1-4.6,16.4-9.3,25.2-14.2c4.7,7.4,9.3,14.6,14,22.1c14.1-22.5,27-45.6,54.7-59
					c-0.1,10.6-2.4,20.4,2.1,29.9c-19.1,10.6-30.7,21.5-55,51.5c-6.4-5.7-12.2-11.8-19.1-16.9C98.5,209.9,90.8,205.9,83.3,201.5z"/>
				<path class="st4" d="M145.1,118.9c-23.9,0-47.5,0-71.3,0c0-3.4-0.1-6.6,0-9.8c0.1-2.3,2.1-2.9,4.3-2.9c4.5,0,8.9,0,13.4,0
					c1.4,0,2.8-0.1,4.5-0.2c0-5.5,0-10.7,0-15.9c0-7.7,5-11.6,14.6-11.6c8.3,0,13.3,4.5,13.3,11.8c0,5.1,0,10.3,0,16
					c5.2,0,10.2,0,15.3,0c5.2,0.1,6,0.8,6,5.3C145.2,113.9,145.1,116.3,145.1,118.9z M115.3,96.2c0.1-2.4-2.2-4.5-5-4.5
					c-2.8,0-5.1,1.9-5.1,4.4c-0.1,2.4,2.2,4.5,5,4.5C112.9,100.7,115.2,98.7,115.3,96.2z"/>
				<path class="st4" d="M91.2,92.4c0,2.7,0,5,0,7.8c-5.7,0-11.3,0-16.9,0c-2,0-4.1-0.1-6.1,0.1c-4,0.4-6.5,2.7-6.5,6.2
					c0,34.2,0,68.4,0,102.6c0,3.7,2.5,6.1,6.8,6.3c5,0.2,9.9,0.1,14.9,0.1c8,0,12.4,1.8,18.4,7.6c-1.2,0.1-2.1,0.2-3.1,0.2
					c-11.4,0-22.7,0-34.1,0c-8.4,0-11-2.4-11-9.6c0-37.2,0-74.4,0-111.6c0-7.3,2.6-9.6,10.9-9.7C73.4,92.4,82.1,92.4,91.2,92.4z"/>
				<path class="st4" d="M157.2,152.6c0-12.3,0-24.4,0-36.4c0-2.8,0.1-5.6,0-8.4c0-5.2-2.7-7.5-8.7-7.6c-6.4-0.1-12.7,0-19.3,0
					c0-2.6,0-4.9,0-7.8c1.4,0,2.9,0,4.3,0c7.3,0,14.6-0.1,21.8,0c6.8,0.1,9.7,2.8,9.7,8.7c0,13-0.4,26,0.2,39
					C165.5,146,163.7,150,157.2,152.6z"/>
				<path class="st4" d="M165.1,200.8c0,5.8,0.1,10.8,0,15.7c-0.1,3.6-2.9,6.4-7.6,6.7c-5,0.3-10.1,0.1-16.1,0.1
					c3.8-3.2,4.9-7.5,10.6-8.1c1.9-0.2,4.7-2.9,4.8-4.5C157,205.6,161.3,204.1,165.1,200.8z"/>
				<path class="st4" d="M143.4,152.2c-18.4,0-36.6,0-54.8,0c-3.4,0-6.9,0.1-10.3-0.1c-0.9,0-1.7-0.8-2.6-1.2
					c0.8-0.6,1.7-1.6,2.5-1.6c9.9-0.1,19.9-0.1,29.8-0.1c10.9,0,21.9,0.1,32.9,0C143.1,149.2,144.5,149.5,143.4,152.2z"/>
				<path class="st4" d="M143.5,161c-7.5,0-14.9,0-22.2,0c-14.2,0-28.3,0-42.5-0.1c-1,0-2-1-3-1.5c1-0.4,1.9-1.2,2.9-1.3
					c20.7-0.1,41.4-0.1,62.1-0.1C142.6,158,144.6,157.9,143.5,161z"/>
				<path class="st4" d="M76.1,169.7c-1-3.4,1.4-2.9,3.2-2.9c17.4,0,34.7,0,52.1,0c3.9,0,7.9,0,11.9,0c1.6,3-0.7,2.9-2.8,2.9
					c-15.2,0-30.4,0-45.6,0C88.7,169.7,82.5,169.7,76.1,169.7z"/>
				<path class="st4" d="M99.7,136.6c-7.3,0-14.7,0-22-0.1c-0.6,0-1.3-0.9-1.9-1.4c0.7-0.5,1.3-1.4,2-1.4c6.7-0.1,13.5-0.1,20.2,0
					c0.8,0,1.7,1.3,2.5,2C100.2,136,99.9,136.3,99.7,136.6z"/>
				<path class="st4" d="M99.4,143.3c-7.7,0-15.4,0-23.2,0c-0.8-1.8-0.5-2.8,1.9-2.8c6.5,0.1,12.9-0.1,19.4,0.1c1,0,1.9,1.1,2.9,1.7
					C100.1,142.6,99.7,143,99.4,143.3z"/>
			</g>
		</g>
	</g>
	<g id="Layer_5" class="st1">
		<g id="_x34_hK3Jt_1_" class="st2">
			<g>
				<path class="st4" d="M64.1,231.7c-6.8-0.2-13.8-4.1-17.7-12.2c-4-8.3-3.3-16.7,2.6-23.7c6.2-7.4,13.4-14.1,20.3-21
					c0.9-0.9,2.7-1.1,4.1-1.3c5.9-0.9,8.9-3.8,9.4-9.9c0.4-4.1,3.3-6.1,6.1-8.1c0.6-0.5,2.7,0.1,3.4,0.9
					c8.9,8.7,17.7,17.5,26.3,26.5c0.8,0.9,0.9,3.7,0.1,4.8c-1.9,2.7-4.2,5-8.2,5c-4.3,0-7.6,4.2-8.5,8.5c-0.5,2.3-1.5,4.9-3.1,6.6
					c-5.4,5.9-11.1,11.4-16.8,17.1C77.8,229.2,72.6,231.7,64.1,231.7z M81.3,187.6c-1-1.2-1.7-2.9-2.7-3c-1.5-0.2-3.6,0.2-4.7,1.2
					c-5.7,5.4-11.1,11.1-16.6,16.7c-1.7,1.8-2.5,3.8-0.6,5.7c2.1,2.2,4.1,1.2,5.9-0.6c5.4-5.5,10.9-11,16.2-16.5
					C79.8,190.1,80.4,188.9,81.3,187.6z M69.6,220.3c1-0.4,1.9-0.6,2.4-1.1c6.2-6.2,12.5-12.4,18.4-18.9c0.7-0.8,0.4-3.7-0.5-4.5
					c-0.9-0.8-3.7-0.9-4.6-0.1c-6.3,6-12.3,12.1-18.2,18.5c-0.7,0.8-0.7,2.9-0.3,4.1C67.2,219.1,68.7,219.6,69.6,220.3z"/>
				<path class="st4" d="M120.4,134c-2.4,2-4.6,4-8,6.8c-1.9-2.3-4.2-5.1-6.6-7.8c-1.8-2.1-4.1-3-6.3-0.7c-2.1,2.2-1.1,4.5,0.9,6.4
					c2.6,2.4,5.2,4.7,8,7.2c-2.9,2.7-5,4.7-8.2,7.6c-0.8-1.2-1.8-2.9-3-4.3c-4.6-5.4-10.4-7.5-17.5-7.4
					c-18.1,0.4-32.1-14.2-31.3-32.4c0.1-1.9,0.5-3.7,1-6.4c1.7,1.1,3,1.6,4,2.5c3.2,3.1,6.3,6.3,9.5,9.4c4.9,4.7,10.2,4.5,14.9-0.3
					c8.9-8.9,11.3-13.3-0.1-23.6c-2-1.8-3.9-3.7-5.7-5.8c-0.8-0.9-1.9-2.4-1.7-3.3c0.2-0.8,2-1.6,3.1-1.9
					c15.2-3.4,31.7,6.8,35.6,22.2c0.8,3.1,1.2,6.5,0.9,9.7c-0.7,7.8,1.7,14.1,7.7,19.1C118.5,131.9,119.3,132.8,120.4,134z"/>
				<path class="st4" d="M107.2,159.2c1.5-1.9,2.4-3.2,3.5-4.4c12-12.1,23.9-24.4,36.1-36.3c3.7-3.6,6-7.2,5-12.4
					c-0.7-4.1,1-6.4,4.8-8.1c6.9-3.1,13.6-6.6,20.2-10.2c3.2-1.8,5.1-0.6,7.3,1.7c2.1,2.2,3.8,3.9,1.9,7.3
					c-3.9,7.3-7.5,14.7-11,22.2c-1.2,2.6-2.8,4-5.6,3.5c-6.5-1.1-10.9,1.7-15.4,6.5c-11.2,12-22.9,23.5-34.5,35.1
					c-1.2,1.2-4.1,2.6-5,2C111.9,164.4,109.8,161.7,107.2,159.2z"/>
				<path class="st4" d="M129.3,167c2.1,2.2,4.5,4.8,6.9,7.2c10.4,10.5,20.9,20.9,31.3,31.4c0.7,0.7,1.4,1.3,2,2
					c1.8,1.9,4,2.6,6,0.6c2-2,1.4-4.2-0.5-6.1c-2.9-2.9-5.8-5.8-8.6-8.6c-9.7-9.7-19.4-19.3-29.1-29c-1-1-2-2.1-3-3.1
					c2.2-2.3,4.3-4.3,6.6-6.6c0.2,0.1,0.7,0.3,1,0.7c13.7,13.7,27.4,27.4,41.1,41.1c4,4,5.3,8.9,3.7,14.2c-1.6,5.4-5.5,9.1-11.1,9.2
					c-3.4,0.1-7.7-0.8-10-2.9c-14.8-14.1-29.1-28.7-43.8-43.3C124.4,171.5,126.7,169.5,129.3,167z"/>
			</g>
		</g>
		<g id="vwK9Yq_1_">
			<g>
				<path class="st4" d="M-37.6-75.9c3,0.9,6.1,1.7,9.1,2.6c0,0.2,0,0.3,0.1,0.5C-41.2-70.2-54-67.6-67-64.9
					c0.2,5.8,0.3,11.5,0.9,17.1c0.1,1,2.5,1.9,4.2,3.1c0-6.2,0-11.7,0-17.5c4.4-0.9,8.8-1.9,13.2-2.8c8.7-1.8,17.4-3.6,26.1-5.3
					c1.1-0.2,2.3-0.2,3.4,0.1c3.7,0.9,7.4,1.9,10.6,2.8c0,7.2,0.1,14.3,0,21.3c-0.1,7.9-0.5,15.8-0.7,23.7c0,1.4-0.3,2.2-1.8,2.7
					c-12.2,4.4-24.3,9-36.5,13.4c-0.9,0.3-2.3,0.1-3.1-0.4c-7.7-5.4-15.3-10.8-22.9-16.3c-0.7-0.5-1.3-1.4-1.4-2.2
					c-0.8-14.4-1.6-28.9-2.3-43.6c3.3-0.6,6.6-1.2,9.8-1.8c9.5-1.6,18.9-3.2,28.4-4.9c0.2,0,0.4-0.2,0.6-0.3
					C-38.2-75.9-37.9-75.9-37.6-75.9z M-106.1-21.9c0.4,0,0.8,0,1-0.1c10.2-3.7,20.4-7.4,30.5-11.1c0.7-0.2,1.3-1.4,1.3-2.2
					c0.2-6.1,0.4-12.2,0.5-18.3c0.1-6.2,0-12.3,0-18.6c-0.5,0.1-1.1,0.1-1.7,0.3c-10,2.4-20,4.9-30,7.3c-1.5,0.4-2,0.9-2,2.5
					c0.1,12.7,0.1,25.5,0.2,38.2C-106.2-23.4-106.2-22.7-106.1-21.9z M-98.9-86.1c3.1,0.9,6.1,1.7,9.2,2.6c0,0.2,0.1,0.3,0.1,0.5
					c-12.8,2.6-25.6,5.3-38.7,7.9c0.2,5.8,0.3,11.5,0.9,17.1c0.1,1,2.5,1.9,4.2,3.1c0-6.2,0-11.7,0-17.5c4.4-0.9,8.8-1.9,13.2-2.8
					c8.7-1.8,17.4-3.6,26.1-5.3c1.1-0.2,2.3-0.2,3.4,0.1c3.7,0.9,7.4,1.9,10.6,2.8c0,7.2,0.1,14.3,0,21.3
					c-0.1,7.9-0.5,15.8-0.7,23.7c0,1.4-0.3,2.2-1.8,2.7c-12.2,4.4-24.3,9-36.5,13.4c-0.9,0.3-2.3,0.1-3.1-0.4
					c-7.7-5.4-15.3-10.8-22.9-16.3c-0.7-0.5-1.3-1.4-1.4-2.2c-0.8-14.4-1.6-28.9-2.3-43.6c3.3-0.6,6.6-1.2,9.8-1.8
					c9.5-1.6,18.9-3.2,28.4-4.9c0.2,0,0.4-0.2,0.6-0.3C-99.5-86.1-99.2-86.1-98.9-86.1z"/>
				<path class="st4" d="M2.6-18.9c-0.4,3.2-0.7,6.4-1.1,9.6C1.4-8.5,0.9-7.4,0.4-7.1c-2.9,1.5-5.9,2.7-9,4.1c0-2.3,0-4.3,0-6.6
					c-4.9,2.2-9.7,4.3-14.5,6.4c-1,0.4-1.9,1.1-3,1.3c-3.3,0.8-4.5,2.8-4,6c0.4,2.1-0.6,3.2-2.6,3.9c-3,1.2-5.9,2.6-9,4.1
					c0-2.4,0-4.4,0-6.9c-1.5,0.6-2.9,1.2-4.2,1.7c-5.8,2.6-11.5,5.2-17.3,7.6c-1.9,0.8-3,1.8-2.5,3.9c0.8,3.6-1.2,5-4.2,6.8
					c-6.4,3.9-11,2.9-16.8-1.8C-103.8,9.5-121.5-3.7-139.1-17c-2.4-1.8-2.3-4.1-2.7-6.5c-0.3-1.6-0.4-3.3-0.6-4.9c0-0.6,0-1.2,0-1.8
					c3.7-1.3,7.4-2.7,11.2-3.7c0.9-0.2,2.2,0.4,3.1,1c19.4,13.4,38.8,26.7,58,40.3c3.7,2.6,6.5,2.9,10.1,0.1
					C-63.5,5.1-67,2.7-70.9,0c4.5-1.6,8.5-3,12.6-4.4c0.5-0.2,1.3,0.2,1.8,0.6c1.8,1.1,3.7,2,5.2,3.4c3.1,2.8,6.1,2.5,9.4-0.1
					c-3.2-2-6.3-4-9.7-6.2c3.9-1.6,7.5-3.1,11.2-4.4c0.8-0.3,1.9-0.1,2.7,0.3c1.6,0.8,3.1,1.8,4.5,2.9c2.9,2.6,5.6,2.2,8.6-0.2
					c-2.7-1.8-5.4-3.6-8.5-5.6c3.6-1.4,6.7-2.7,9.9-3.8c0.6-0.2,1.5,0.1,2.2,0.4c1.5,0.7,3.1,1.4,4.4,2.4c2.8,2.1,5.4,1.8,8.3-0.4
					c-2.7-1.6-5.2-3.4-7.8-4.7c-2.1-1-2.9-2.4-2.5-4.7c0.3-1.7,0.3-3.5,0.5-5.8c7.1,3.6,14,7.2,20.9,10.7
					C2.6-19.3,2.6-19.1,2.6-18.9z M-108.3-5.3c-0.8,4.5-0.2,7.8,3.9,10.2c4.1,2.5,7.8,5.8,11.6,8.7c1.8,1.3,3.6,2.6,5.5,4.1
					c0.7-4.7,0.2-8.1-4.2-10.8C-97.3,3.3-102.6-1.1-108.3-5.3z M-119-6.3c0.3-0.1,0.6-0.3,0.9-0.4c-0.5-2.3-0.3-5.6-1.8-6.9
					c-5.2-4.5-10.9-8.3-17.2-12.9c0.6,3.1,0.2,6.2,1.6,7.5C-130.3-14.5-124.6-10.5-119-6.3z"/>
				<path class="st4" d="M-114.5-39.5c0.3,3.7,0.5,6.8,0.7,10.6c-3.7-2.5-7-4.7-10.8-7.2C-121-37.4-117.9-38.4-114.5-39.5z"/>
				<path class="st4" d="M54.5-63.2c1.8,3.2,3.4,6.1,5.2,9.2c-1,0.4-1.8,0.7-3.4,1.3c0,5.5,0,11.3,0,17.1c0,3.9,0,3.9-4.4,4.7
					c0-6.8,0-13.6,0-20.5c-0.9,0-1.8,0-3,0C50.8-55.4,52.5-59.2,54.5-63.2z"/>
				<path class="st4" d="M79.3-53.9c-3.2,0.2-3.2,2.2-3.3,4.4c0,4.7-0.4,9.5-0.3,14.2c0.1,2.9-1,4.2-3.8,4.1c0-6.7,0-13.4,0-20.3
					c-0.6-0.1-1.4-0.2-2.6-0.4c1.7-3.6,3.3-7.1,5.2-11.1C76.3-59.7,77.7-57,79.3-53.9z"/>
				<path class="st4" d="M126.6-45.3c-0.5,1-0.8,2.5-1.6,2.8c-8.6,3.2-17.2,6.2-25.8,9.2c-0.9-2.5-0.2-3.7,2.2-4.4
					c8.2-2.5,16.3-5.3,24.4-8.1C126.1-45.6,126.4-45.5,126.6-45.3z"/>
			</g>
		</g>
	</g>
	<g id="Layer_6" class="st1">
		<g id="g8cFVo_1_" class="st2">
			<g>
				<path class="st4" d="M0.3,14.8c-2.1,1.4-4.1,2.9-6.2,4.1c-3,1.7-7.4,2.4-8.9,4.9c-1.6,2.6-0.6,6.9-0.6,10.4
					c0,8.6-0.1,17.1,0,25.7c0,2.7-0.8,4.3-3.2,5.6c-12.6,6.9-25.1,14-37.7,20.8c-1.5,0.8-3.8,1.1-5.4,0.6c-18-5.4-36-10.9-54-16.4
					c-2.6-0.8-3.5-2.3-3.5-4.9c0.1-11.3,0-22.6,0.1-34c0-2.2-0.6-3.3-2.8-3.7c-3.6-0.7-7.1-1.6-10.6-2.7c-1.7-0.5-3.2-1.6-4.7-2.4
					c0-0.8,0-1.6,0-2.5c5.9-8.1,11.7-16.2,17.7-24.1c0.9-1.2,2.4-2.3,3.8-2.8c13.1-4.9,26.1-9.7,39.2-14.4c1.3-0.5,2.8-0.7,4.1-0.5
					c16.9,2.4,33.8,5,50.8,7.4c2.6,0.4,4.2,1.4,5.6,3.5C-10.7-3-5.2,4.6,0.3,12.3C0.3,13.1,0.3,13.9,0.3,14.8z M-112.3,30.5
					c0,10.8,0.1,20.9-0.1,31.1c0,2.1,0.7,2.9,2.7,3.5c12.5,3.7,24.9,7.6,37.3,11.4c3.1,0.9,6.2,1.8,9.4,2.8c0-20.1,0-39.8,0-59.9
					c-0.5,0.6-0.8,0.9-1,1.2c-3.6,5.3-7.2,10.6-10.7,16c-1.3,2-2.9,3-5.4,2.1c-2.1-0.7-4.3-1.1-6.5-1.7
					C-95,34.9-103.4,32.7-112.3,30.5z M-55.4,24.1c-0.1,0.1-0.3,0.1-0.4,0.2c0,17.8,0,35.6,0,53.7c1.2-0.6,2.2-1.1,3.2-1.6
					c8.4-4.6,16.6-9.5,25.1-13.8c4-2,5.5-4.3,5.3-8.8c-0.4-8.8-0.1-17.6-0.1-26.8c-1.2,0.5-2,0.8-2.8,1.2c-6.2,3-12.5,6-18.7,8.9
					c-3.5,1.7-4.9,1.2-6.5-2.3C-52.1,31.2-53.7,27.7-55.4,24.1z M-65.3,10.1c-0.6-0.2-1-0.5-1.3-0.5c-15.5-2.9-31-5.7-46.5-8.5
					c-0.8-0.1-2.1,0.6-2.6,1.3c-3.1,4-6,8.2-9,12.3c-1,1.4-2,2.9-3.2,4.5c15.7,4.1,30.9,8,46.2,11.9c0.8,0.2,2.4-0.1,2.8-0.7
					C-74.4,23.8-69.9,17-65.3,10.1z M-44.9,30C-32.6,24-20.5,18.2-8.3,12.4c-4.6-6.5-8.8-12.5-13.1-18.7C-32.7-1.1-43.7,4-54.8,9.1
					C-51.4,16.2-48.3,22.9-44.9,30z M-102.4-4.3c0.8,0.4,1.1,0.6,1.3,0.6C-88.5-1.4-75.9,1-63.2,3.1c2,0.3,4.3,0.2,6.1-0.6
					c7.5-3.3,15-6.9,22.4-10.4c0.5-0.2,0.8-0.6,1.5-1.1c-11.3-1.7-22.1-3.4-33-4.9c-2.8-0.4-5.9-1.3-8.4-0.5
					C-83.8-11.5-92.8-7.9-102.4-4.3z"/>
			</g>
		</g>
		<path class="st4" d="M175.3,177c4.5,1.1,8.6,2.2,12.8,3.2c-1.8-5.8-3.6-11.5-5.5-17.2c-2-6.2-4.2-12.3-6.2-18.4
			c-0.6-1.8-1.4-2.7-3.5-3.3c-12.5-3.4-25.1-6.9-37.6-10.4c5.7-5.3,9.5-12.8,9.3-21.4c0.2-16.5-13.8-29.2-29.1-29.2
			c-15.2,0-29.1,12.6-29.1,29.2c0,9.3,4.3,17.3,10.8,22.5c-11.8,5.7-23.6,11.2-35.3,17.1c-1.8,0.9-3.6,2.8-4.4,4.6
			c-4.4,9.8-8.4,19.7-12.6,29.6c-0.2,0.5-0.5,0.9-0.8,1.4c0,0.2,0,0.4,0,0.5c4.2,1.1,8.5,2.2,12.6,3.5c0.8,0.2,1.7,1.4,1.7,2.2
			c0.2,4.5,0.1,9,0.1,13.5c0,4.3,1.9,7.1,6.4,8.4c21.3,6.5,42.6,12.9,63.9,19.4c0.2,0.1,0.3,0.2,0.4,0.3c0.6,0,1.2,0,1.7,0
			c2.3-1.2,4.8-2.2,6.8-3.8c10.8-8.5,21.4-17.1,32.1-25.6c3.6-2.9,5.4-6.2,5.3-10.7C175.2,187.5,175.3,182.4,175.3,177z
			 M175.5,158.4c0.1,0,0.3-0.1,0.4-0.1c1.7,4.9,3.5,9.8,5.4,15.3c-2.2-0.5-4-1-5.9-1.4C175.5,167.5,175.5,163,175.5,158.4z
			 M93.4,112.6c2.2-2.2,4.4-4.4,6.8-6.9c2.7,2.7,5.4,5.4,8.2,8.3c2.7-2.7,5.4-5.3,8-8c4.6-4.6,9.1-9.2,13.7-13.8
			c0.9-0.9,1.5-1,2.4,0c1.4,1.5,2.8,3,4.4,4.4c1.2,1.1,1.2,1.8,0.1,2.9c-8.5,8.5-17,17-25.5,25.5c-1.2,0.6-2.4,1.2-3.7,1.8
			C102.8,121.9,98.1,117.2,93.4,112.6z M101.2,134.8c2.8,1.7,6,2.9,9.2,3.5c0,7.1,0,14.1,0,21.3c-13.7-3.2-27.2-6.3-41.4-9.5
			C80,144.8,90.6,139.8,101.2,134.8z M51,182.1c4.2-9.9,8.3-19.7,12.2-29.1c21.1,5.6,41.9,11.2,63.1,16.9c-3,10.5-5.9,20.6-8.9,31.1
			C95.2,194.8,73.3,188.5,51,182.1z M128.6,226.6c-7.6-2.3-14.9-4.5-22.3-6.8c-13.3-4.1-26.7-8.2-40-12.1c-1.9-0.6-2.5-1.4-2.5-3.2
			c0.1-4.5,0-9,0-13.9c19.1,5.4,37.8,10.8,57,16.2c2.5-8.6,5-17.1,7.4-25.6c0.1,0,0.2,0,0.4,0C128.6,196.2,128.6,211.2,128.6,226.6z
			 M128.1,164.8c-3.6-0.9-7.2-2-10.7-3.2c-0.8-0.3-1.7-1.2-1.7-1.9c-0.1-6.9-0.1-13.9-0.1-21c0.1,0,0.2,0,0.2,0
			c5.6,0,11-1.8,15.6-4.8c11.9,3.1,23.8,6.2,35.9,9.4c-3.2,1.9-5.9,3.5-8.7,5.1c-8.9,5.3-17.7,10.6-26.7,15.8
			C131,164.9,129.3,165.1,128.1,164.8z M170.1,193.4c0,1.2-0.5,2.7-1.4,3.5c-11.1,9.4-22.3,18.6-33.4,27.9c-0.3,0.3-0.7,0.5-1.3,1.1
			c-0.1-1.2-0.1-2.1-0.1-2.9c0-16.9,0-33.9-0.1-50.8c0-2,0.6-3.2,2.5-4.3c10.4-6,20.8-12.2,31.1-18.3c0.7-0.4,1.4-0.8,2.6-1.4
			c0.1,1.1,0.2,1.9,0.2,2.8C170.2,165.1,170.2,179.3,170.1,193.4z"/>
		<g id="CxAPH4_1_">
			<g>
				<path class="st8" d="M-29.9,138.4c-5.3-1.3-11.3-2.6-17.2-4.2c-1.5-0.4-2.8-1.7-4.2-2.6c0.9-1.4,1.6-3.3,2.9-4.3
					c11.2-8.4,22.5-16.7,33.7-25c15-11.1,30-22.1,45-33.2c2.4-1.8,4.6-2.7,7.7-1.8C42.4,68.5,47,69,52.6,70c-4,3.3-7.4,6.1-10.8,8.8
					c-22.1,17.7-44.2,35.3-66.3,53.1C-26.4,133.4-27.8,135.7-29.9,138.4z"/>
				<path class="st8" d="M10.6,62.5c-11.7,7.9-22.4,15.2-33.1,22.4c-17.4,11.7-34.8,23.4-52.1,35.2c-2,1.4-3.4,3.6-5.6,5.8
					c-4.7-1.1-10.2-2.4-15.6-3.9c-1.4-0.4-2.6-1.6-3.9-2.4c1-1.4,1.7-3.2,3-4c18.9-12.1,37.9-24,56.9-36
					c9.3-5.9,18.7-11.6,27.8-17.6c3.3-2.2,6.4-3,10.2-1.9C2,61.1,5.7,61.5,10.6,62.5z"/>
				<path class="st8" d="M-127.1,114.3c-3.8-0.9-8.6-2-13.4-3.4c-1.3-0.4-2.4-1.7-3.6-2.5c0.9-1.2,1.6-2.9,2.8-3.6
					c11.1-6.3,22.4-12.4,33.6-18.6C-89.5,76.2-71.3,66.2-53.2,56c4.6-2.6,9.1-4.5,14.5-2.5c2.6,0.9,5.5,1.1,9.6,1.8
					c-2.4,1.5-3.8,2.4-5.3,3.3c-28.9,16.8-57.8,33.6-86.7,50.4C-122.9,110-124.4,111.9-127.1,114.3z"/>
				<path class="st8" d="M52.3,76.5c0.4,7.9,0.8,14.2-6.4,20.1C22.2,116-0.8,136.4-23.8,156.5c-3.4,2.9-6.2,3.8-10.6,2.4
					c-9.7-3.1-9.8-2.8-9.8-13c0-2.3,0-4.6,0-7.6c5.5,1.2,10.7,3.7,15.2,2.8c4.4-0.8,8.1-5.2,12.8-8.5c0,4.6,0,8.4,0,13.4
					c9.6-8.1,18.2-15.5,27.6-23.5c-5.2-1.4-9.6-2.5-15.6-4.1c6.5-3.4,9.2-9.4,16.3-10.1c3.2-0.3,6.1-4.2,9.8-6.9c0,4.2,0,7.6,0,12.2
					c7.8-6.6,14.6-12.5,22.4-19c-4.8-1-8.8-1.9-13.3-2.8C36.1,83.6,45.4,82.3,52.3,76.5z"/>
				<path class="st8" d="M28.5,66.1c-19.3,13.8-38,27.2-56.6,40.5c-8.6,6.2-17.4,12.3-25.9,18.6c-1.8,1.3-3.1,3.4-5.3,5.8
					c-2.3-0.6-5.8-1.3-9.2-2.4c-1.3-0.4-3.3-1.5-3.4-2.5c-0.2-1.2,1-3,2.2-3.8c6.6-4.7,13.4-9.2,20.1-13.9
					C-30.1,95.1-10.3,81.9,9,68C15.4,63.4,21.1,63.3,28.5,66.1z"/>
				<path class="st8" d="M-107.5,119.2c-2.1-0.5-5.4-1.1-8.5-2.2c-1.3-0.4-2.4-1.7-3.6-2.7c1-1.2,1.7-2.8,2.9-3.5
					C-96.9,99-77,87.3-57.1,75.5c8.4-5,16.9-10,25.3-15c8.1-4.8,8.1-4.8,19-2c-2,1.3-3.4,2.2-4.8,3.1
					c-27.8,17.3-55.7,34.5-83.5,51.8C-103.2,114.7-104.8,116.7-107.5,119.2z"/>
				<path class="st8" d="M-78.1,129.8c0,4.6,0,8.6,0,12.7c4.8-0.3,7.1-6.9,13.3-4.9c-4.2,3.1-7.7,5.9-11.4,8.3
					c-1.2,0.8-3.1,1-4.5,0.7c-4.7-1-9.3-2.5-14-3.4c-3.4-0.6-4.8-2.1-4.6-5.6c0.2-4.1,0.1-8.3,0.1-12.9
					C-92.2,126.3-85.4,128-78.1,129.8z"/>
				<path class="st8" d="M-116.1,125.1c-4.8,3-8.6,6.9-12.9,7.7c-4.3,0.8-9.2-1.5-13.8-2.7c-0.4-0.1-0.7-1.4-0.8-2.2
					c-0.1-4.6,0-9.3,0-13.9c0.3,0,0.4-0.1,0.6-0.1c4.1,1.1,9.5,1.1,11.9,3.8c2.2,2.4,1.1,7.8,1.5,12.1c3.8-1.9,7.2-3.7,10.8-5.4
					C-118.5,124.2-117.8,124.6-116.1,125.1z"/>
			</g>
		</g>
	</g>
	<g id="Layer_7" class="st1">
		<g id="_x37_vCEl6_1_" class="st2">
			<g>
				<path class="st4" d="M165.4,135.8c0,8.7,0.1,17.4-0.1,26.1c-0.1,2.5,0.7,3.7,3,4.6c5.7,2.3,11.3,4.9,17.1,7.3
					c2,0.8,2.8,2,2.7,4.1c-0.1,4.3,0.1,8.6-0.1,12.8c-0.1,1.2-1,2.7-2,3.3c-2.3,1.4-4.8,2.4-7.3,3.2c-1.2,0.4-3,0.3-4-0.4
					c-6-4.3-11.1-0.6-16.1,1.9c-0.8,0.4-1.1,2.5-1,3.8c0.3,2.9-0.7,4.7-3.5,5.5c-1.4,0.4-2.8,0.9-4,1.7c-4.1,2.5-8,2.4-12.3,0.2
					c-1.4-0.8-3.8-0.5-5.4,0.1c-3.6,1.3-7.1,3.1-10.7,4.5c-2.1,0.8-3.3,1.9-2.9,4.3c0.6,3.4-0.9,5.4-4.2,6.1c-0.3,0.1-0.7,0.2-1,0.4
					c-5.8,4.5-11,1.2-16-1.6c-1.1-0.6-1.6-3.1-1.6-4.6c0.1-2.5-0.8-3.6-3-4.7c-3.7-1.8-7-2.6-10.9-0.3c-2.9,1.8-11.1-0.1-13.2-2.9
					c-0.8-1-0.7-2.7-0.7-4.1c-0.2-3.7-3.8-6.4-7.4-5.2c-0.2,0.1-0.5,0.2-0.7,0.3c-5,3.5-9.9,2.1-14.4-0.9c-1-0.7-2.1-2.1-2.1-3.3
					c-0.2-4.4-0.3-8.8,0-13.2c0.1-1.2,1.3-2.7,2.4-3.4c1.8-1.2,3.9-2.2,6-2.7c4.7-1.1,5.5-4,5.5-8.5c-0.2-20.2,0-40.4-0.2-60.5
					c0-2.8,1-4.1,3.4-5.2c16.1-6.8,32.1-13.8,48.2-20.5c1.5-0.6,3.8-0.6,5.4,0.1c15.8,6.6,31.4,13.5,47.1,20.1
					c3.1,1.3,4.4,2.9,4.3,6.4C165.2,118.9,165.4,127.4,165.4,135.8z M161.9,110.2c-1.2,0.3-2.1,0.5-2.8,0.8
					c-14.5,6.2-28.9,12.5-43.4,18.6c-2.2,0.9-2.6,2.4-2.6,4.5c0.1,19.9,0,39.8,0.1,59.8c0,0.9,0.2,1.8,0.3,3c0.9-0.2,1.5-0.3,2-0.6
					c14.6-6.3,29.1-12.6,43.7-18.8c2.4-1,2.8-2.4,2.8-4.8c-0.1-19.4,0-38.9,0-58.3C161.9,113.2,161.9,111.9,161.9,110.2z
					 M60.7,109.9c0,22.1,0,43.3,0.1,64.6c0,1,1.4,2.4,2.5,2.9c14,6.1,28,12.1,42,18.1c3.3,1.4,4.2,0.8,4.2-2.7c0-19.7,0-39.3,0.1-59
					c0-2.4-0.9-3.4-2.9-4.2c-8.6-3.6-17.1-7.3-25.7-11C74.4,115.8,67.9,113,60.7,109.9z M88.2,117.7c6.1,2.6,11.6,4.7,16.8,7.4
					c4.2,2.2,7.9,2.5,12.2,0.1c3.6-2,7.5-3.3,11.3-5c9.9-4.3,19.7-8.5,30-13c-1-0.6-1.6-1.1-2.2-1.3c-6-2.6-11.9-5.3-18-7.7
					c-1.6-0.6-3.8-0.5-5.4,0.1c-4.5,1.7-8.9,3.7-13.4,5.7C109.3,108.5,99.2,113,88.2,117.7z M131.1,95.2c-6.2-2.7-11.5-5.1-16.9-7.2
					c-1.7-0.6-4.1-0.8-5.7-0.1c-13.7,5.6-27.2,11.5-40.8,17.3c-1.1,0.5-2.2,1.1-4,1.9c5.4,2.4,10.2,4.1,14.7,6.5
					c3.7,1.9,6.9,1.8,10.5-0.1c3.2-1.7,6.6-2.9,10-4.4C109.3,104.7,119.7,100.1,131.1,95.2z M184.5,179.5c-0.7,0-1.1-0.1-1.4,0
					c-24.2,10.3-48.4,20.6-72.5,31c-0.8,0.3-1.7,1.5-1.8,2.3c-0.2,3.2-0.1,6.5-0.1,9.9c6.1-1.2,6.2-1.3,6.3-6.5
					c0-2.2,0.9-3.3,2.8-4.1c7.2-3.1,14.5-6.2,21.7-9.4c4.5-2,6.2-3.6,6.2,3.8c0,0.2,0.2,0.4,0.4,0.6c4.5-1.3,9-2.3,7.9-8.9
					c-0.1-0.8,1.5-2.3,2.7-2.8c5.2-2.4,10.4-4.5,15.7-6.8c5.6-2.4,5.6-2.4,6.6,3.7c0,0.2,0.3,0.3,1.1,0.9c1.4-1.2,3.9-2.3,4.2-3.9
					C185,186.2,184.5,182.8,184.5,179.5z M180.9,176.5c0-0.3,0.1-0.6,0.1-0.9c-3-1-6.1-3.1-8.9-2.8c-2.8,0.3-6.9,1.1-7.1,5.7
					c0,0.5-1.3,1-2.1,1.3c-16.5,7.1-32.9,14.2-49.4,21.2c-0.9,0.4-2.1,0.9-2.7,0.6c-4.7-2.5-7.9,1.3-11.8,2.8
					c3.7,0.7,6.1,4.7,10.7,2.7c15.5-6.8,31.2-13.4,46.7-20.1C164.5,183.5,172.7,180,180.9,176.5z M105.2,222.8
					c0-2.7-0.2-5.2,0.1-7.6c0.3-2.9-0.7-4.3-3.4-5.4c-16.4-6.9-32.6-14.1-49-21.1c-1.8-0.8-3.7-1.4-6-2.3c0,3,0.2,5.5-0.1,7.9
					c-0.5,3.7,1.4,4.9,4.7,5.4c0.1-0.8,0.1-1.4,0.1-2c0.2-4.1,0.8-4.5,4.5-2.9c4,1.7,7.9,3.6,12,5.1c2.5,1,3.8,2.4,3.4,5.2
					c-0.7,3.9,1.5,5.1,4.9,5.4c0.1-0.6,0.2-1.1,0.2-1.6c0.3-4.7,0.7-5,4.9-3.2c5.1,2.2,10.3,4.3,15.3,6.7c1.2,0.6,2.5,2.6,2.4,3.7
					C98.6,220.5,100.9,222.1,105.2,222.8z M89.8,193.3c-5.8-4-9.1-3.8-14.8,0.6C80.1,198.5,84.9,196.3,89.8,193.3z M77.4,188.1
					c-5.4-4.1-8.6-4-14.6,0.5C67.8,193.1,72.6,191.1,77.4,188.1z M50.7,183.2c5.2,4.8,9.8,2.3,14.5-0.3
					C60.3,178.9,58.2,179,50.7,183.2z M101.9,198.4c-6.2-3.9-9.4-3.7-14.6,0.8C92.4,204,97.1,201.3,101.9,198.4z"/>
				<path class="st4" d="M76.9,128.2c0.9,0.3,1.8,0.6,2.7,1c4.6,1.9,9.2,3.7,13.6,6c1.1,0.6,2.2,2.8,2,3.9c-0.4,2-2.3,2.6-4.3,1.7
					c-5-2.2-10.1-4.1-15-6.5c-1-0.5-1.8-2.4-1.9-3.8c-0.1-1.2,0.8-2.5,1.3-3.7C75.9,127.3,76.4,127.7,76.9,128.2z"/>
			</g>
		</g>
	</g>
	<g id="Layer_8" class="st1">
		<g id="KC6iOP_1_">
			<g>
				<path class="st4" d="M44.3,188.8c1.9-0.3,3.8-0.6,6-0.9c0-1.2,0.1-2.6,0.2-4.4c-1.9-0.2-3.7-0.4-5.7-0.6c0.3-2,0.5-3.7,0.8-5.7
					c2.2,0,4.2,0,6.5,0c0-1.8,0-3.2,0-4.9c-1.7-0.1-3.4-0.2-5.9-0.4c2.2-5.6,4.1-10.6,6.2-15.5c0.4-0.9,1.8-1.1,2.7-1.1
					c3.4-0.1,6.8-0.1,10.5-0.1c0.7-13.5,1.4-26.6,2.1-39.9c-3.4-1.2-1.8-5-2.1-8.2c9.8,0,19.4-0.7,28.9,0.2c7,0.7,12,7.2,14.6,16.5
					c4,14.4,7.3,29.1,11.2,43.6c1.2,4.4,3.2,8.4,5.2,12c0.8,1.4,2.8,1.3,4.8,2.1c0-2.4,0-3.8,0-5.2c0-16.7,0.7-33.6-0.3-50.2
					c-0.5-8.2-1.1-16.3-1.4-24.6c-0.1-2.7-1.1-5.4-1.8-8.7c4.7,0,8.6,0,12.8,0c0,3.9,0,7.6,0,11.7c1.7,0.2,3.2,0.3,5,0.5
					c0,10.1-1.3,52-4.8,51.4c0,9.4,0,17.7,0,26c1.4,0.2,2.7,0.3,3.9,0.5c0,10.6,0,20.8,0,31.2c-1.1-0.1-1.9-0.2-2.8-0.3
					c-0.7-16.9-6.8-26.6-15.7-25.6c-10,1.1-14.7,11.4-13.5,29.7c-2.3-0.3-5.2,2.2-5.6-4c-9.6,0-18.9,0-28.3,0
					c-1.3-14.9-6.3-22.7-14.2-22.5c-7.8,0.2-12.6,7.9-13.8,22.3c-2.1,1.1-3.3-0.1-3.8-3.1c-0.7-3.8-1.2-7.6-1.8-11.4
					C44.3,195.8,44.3,192.3,44.3,188.8z M109,192.5c-3.4,0-6.8,0.1-10.2,0c-1.2,0-2.5-0.1-3.5-0.9c-6.1-4.5-12.2-9.1-18.2-13.8
					c-0.7-0.6-1.5-2.1-1.6-3.2c-0.4-8.3-0.6-16.7-0.8-25.1c0-1,0.6-2.7,1.1-3c3-1.7,5.8,0.3,6.7,4.8c0.7,3.7,1.2,7.6,1.8,11.8
					c0.9,0,1.8,0,2.7,0c7.2,0.1,8.6,1.9,9.6,12.5c0.3,3.1,0.8,6.3,1.1,9.4c4.5,0,8.7,0,13.3,0c-3.7-9.2-7.2-18-10.8-27
					c0.8-1,1.6-1.9,2.2-2.7c-0.4-1.4-0.8-2.5-1.2-3.7c0.9-0.9,1.6-1.6,2.2-2.2c0.8,1.3,1.3,2.2,1.8,3.2c1-0.8,1.9-1.4,2.8-2.1
					c1.9,3.2,3.8,6.2,5.6,9.1c0.3-0.2,0.6-0.4,0.8-0.7c-3.3-11.4-6.4-22.9-10-34.1c-1.7-5.2-5.1-9.2-8.9-9.6
					c-7.7-0.8-15.5-0.2-23.5-0.2c-1,20.2-2.1,40.4-2.9,60.6c-0.1,1.1,0.9,2.8,1.7,3.4c5.4,4.3,11,8,16.3,12.6
					c5.5,4.7,11.1,7.1,17.5,6.3C107.2,197.4,108.7,196.8,109,192.5z M132.2,106.4c-0.2,0.6-0.5,1.2-0.7,1.8c1.7,1.1,3.3,2.3,5,3.4
					c0.2-0.6,0.4-1.3,0.7-1.9C135.5,108.6,133.8,107.5,132.2,106.4z M136.3,105.4c0.2-0.6,0.5-1.1,0.7-1.7c-1.2-2.2-3.2-2.7-5-3.6
					c-0.2,0.5-0.4,0.9-0.6,1.4C133.1,102.8,134.7,104.1,136.3,105.4z M132.3,112.7c-0.2,0.4-0.4,0.8-0.6,1.2c0.8,3.3,3.1,2.8,4.8,4
					c0.2-0.4,0.4-0.9,0.6-1.3C135.5,115.3,133.9,114,132.3,112.7z"/>
				<path class="st4" d="M187.8,136.9c0.1,9.2,0.2,18.4,0.3,27.7c0,5.4,0,10.8,0,16.6c-15,0-29.7,0-44.8,0c0-14.9,0-29.6,0-44.2
					C158.1,136.9,173,136.9,187.8,136.9z M183.2,143.5c-9.8,0-19.4,0-29.1,0c1.9,2.4,3.9,5.3,6.1,5.5c7.6,0.6,15.2,0.2,22.9,0.2
					C183.2,147,183.2,145.3,183.2,143.5z M176.6,175c0.1-0.3,0.2-0.5,0.3-0.8c-2-1.6-4-4.5-6.1-4.7c-7.4-0.6-14.9-0.2-22.4-0.2
					c0,2.2,0,3.8,0,5.7C157.9,175,167.2,175,176.6,175z M148.4,160.1c0,2.5,0,4.4,0,6.4c6.5,0,12.7,0,19.1,0
					C162.3,157.6,155.2,160.2,148.4,160.1z M183.3,152c-6.8,0-13.2,0-20.1,0c5.9,8.9,13.2,4.5,20.1,5.7
					C183.3,155.5,183.3,153.9,183.3,152z M172.6,160.2c3.2,3.1,5.6,8.4,10.6,6.1c0-1.9,0-3.9,0-6.1
					C179.6,160.2,176.1,160.2,172.6,160.2z M157.3,157.3c-2.7-2.7-4.8-7.1-8.9-5.2c0,1.7,0,3.3,0,5.2
					C151.5,157.3,154.4,157.3,157.3,157.3z"/>
				<path class="st4" d="M123.2,222.7c-8.6-3.6-12.2-8.7-11.7-16.3c0.5-7.4,5.9-13.4,12.7-14.1c7.3-0.7,14.1,4.4,15.5,11.5
					c1.6,7.7-2.1,15.1-8.9,17.8c-0.9,0.4-1.8,0.7-2.6,1.1C126.5,222.7,124.8,222.7,123.2,222.7z M133.2,207.5c0-4.4-3.3-8-7.3-8.1
					c-4.1-0.1-7.8,3.8-7.7,8.2c0.1,4.3,3.5,7.9,7.6,7.9C129.9,215.5,133.2,211.9,133.2,207.5z"/>
				<path class="st4" d="M61.6,222.2c-4.2-1.6-7.7-4.2-9.3-9.2c-2.3-7.2,0.7-15,6.9-17.9c6.2-2.9,13.4,0.6,15.9,7.7
					c2.5,7.1-0.3,15-6.4,18.1c-0.8,0.4-1.6,0.8-2.4,1.3C64.8,222.2,63.2,222.2,61.6,222.2z M63.8,200.5c-3.8,0-7,3.5-6.9,7.8
					c0.1,4,3.2,7.6,6.7,7.7c3.8,0.1,6.8-3.4,6.8-7.9C70.4,203.7,67.6,200.5,63.8,200.5z"/>
				<path class="st4" d="M144.1,133.3c0-14.7,0-29.2,0-44c13.5,0,27,0,40.9,0c0,14.5,0,29.2,0,44
					C171.3,133.3,157.8,133.3,144.1,133.3z M154.1,95.4c-0.1,0.3-0.2,0.5-0.4,0.8c1.8,1.6,3.5,4.4,5.4,4.5
					c7.2,0.5,14.4,0.2,21.6,0.2c0-2.1,0-3.7,0-5.5C171.7,95.4,162.9,95.4,154.1,95.4z M175.4,127.2c0.1-0.3,0.2-0.5,0.4-0.8
					c-1.9-1.7-3.7-4.6-5.6-4.7c-6.9-0.6-13.8-0.2-20.8-0.2c0,2.1,0,3.8,0,5.7C158.1,127.2,166.8,127.2,175.4,127.2z M166.1,118.4
					c-4.9-9-11.4-6.4-17.6-6.4c0,2.4,0,4.3,0,6.4C154.4,118.4,160.2,118.4,166.1,118.4z M180.7,104c-6.3,0-12.4,0-18.6,0
					c5.4,8.8,12.2,4.7,18.6,5.6C180.7,107.4,180.7,105.8,180.7,104z M180.7,118.1c0-1.9,0-3.9,0-5.9c-3.4,0-6.7,0-10.7,0
					C173.8,115.4,176.2,120.3,180.7,118.1z M148.4,109.3c3.1,0,5.7,0,9.1,0c-3.2-2.9-5.3-7.1-9.1-5.2
					C148.4,105.8,148.4,107.4,148.4,109.3z"/>
				<path class="st4" d="M92.4,152.5c-0.8-1.2-1.4-2.1-2.2-3.3c3.8-2.9,7.5-5.6,11.4-8.6c0.7,1.1,1.3,2.1,2.1,3.3
					C100,146.8,96.4,149.5,92.4,152.5z"/>
			</g>
		</g>
		<rect x="137.8" y="183.6" class="st4" width="45.4" height="6.6"/>
	</g>
	<g id="Layer_9" class="st1">
		<g id="Yi7mKX_1_">
			<g>
				<path class="st9" d="M130.3,172.5c0-22,0-43.8,0-65.5c-7.6-2.2-49.7-1.3-53.9,1.3c-0.1-1.7-0.2-3.2-0.3-5.2
					c10.1,0,19.9,0.5,29.6-0.1c15.9-0.9,30.9,1.1,45.3,8.5c10.4,5.4,21.7,9.2,32.5,13.9c1.4,0.6,3,2.7,3,4.1
					c0.2,14.1,0.1,28.3,0.1,42.9C168.1,172.5,149.5,172.5,130.3,172.5z"/>
				<path class="st9" d="M125.9,116.6c-3.8,1.9-7.7,4-12.3,6.3c3.4,0.6,6.2,1.1,9.6,1.7c0,11.7-0.1,23.3,0.1,35
					c0.1,4.6-1.6,9.5,3,13.4c1.2,1.1,0.4,4.5,0.5,7.7c-6.5-6.3-6.5-6.2-12.7-1.5c-0.6,0.5-1.5,0.9-2.2,0.9c-19,0.1-37.9,0-57.5,0
					c0.4-16.5-4.3-32.9,3.8-49.1c-2-0.1-3.5-0.4-4.8-0.3c-1.4,0.1-2.7,0.6-4.1,1c0.6,1.4,1.5,2.7,1.6,4.1c0.3,3.9,0.7,7.8,0.3,11.6
					c-0.3,2.7-1.9,5.2-2.7,7.4c-4.9-5.6-4.5-12.6-2-20.6c1.9-6.2,5.3-5.5,9.6-5.6c1.4,0,3.4-0.2,4.1-1.1c2.5-3.1,5.2-4.8,9.3-4.7
					c0.9,0,2.3-1.7,2.8-2.9c2.8-8,7.9-11.9,16.9-11.2c9.3,0.7,18.7,0.2,28,0.2C123.9,109,123.9,109,125.9,116.6z M106.2,154.2
					c-0.1,0.7-0.2,1.4-0.2,2.1c2.5,0.3,5.1,1.1,7.6,0.9c1.7-0.1,4.4-1.2,4.8-2.4c1.5-5.4,2.9-11,3.1-16.5c0.2-6.2-3.6-10.3-8-10.3
					c-15.8-0.1-31.6,0-47.4-0.2c-2.7,0-4.5,0.6-5.2,3.4c-1.3,4.8-2.6,9.6-4,14.3c-1.2,3.8-0.2,5.2,3.9,6c14.1,2.7,28.1,2.3,42.1-0.4
					c1.5-0.3,3.4-2.5,3.6-4c0.8-5,0.9-10.2,1.3-15.3c2.9,0,5.5,0,9,0c-6.9,7.4-3.3,14.6-0.3,22.1
					C112.3,153.9,109.3,154.1,106.2,154.2z"/>
				<path class="st9" d="M54.3,197.1c0-4.5,0-8.4,0-12.6c19.2,0,38.1,0,57.8,0c0,3.5,0.4,7-0.2,10.3c-0.2,1.2-2.7,2.9-4.2,2.9
					c-11.8,0.5-23.6,0.8-35.4,0.8C66.3,198.4,60.4,197.6,54.3,197.1z M59.7,184.8c-1.7,1.2-2.9,2-4,2.9c1.5,0.9,3,2.1,4.7,2.5
					c0.7,0.2,1.8-1.4,2.8-2.2C62.1,187,61.1,186.1,59.7,184.8z M101.7,185.1c-3.1,0.9-5.3,1.6-7.6,2.2c0.6,1,1.1,2.8,1.7,2.8
					C98.3,190.2,101.3,190.6,101.7,185.1z"/>
				<path class="st9" d="M107.3,201.4c8.8,0.6,8.5-5.3,8-11.3c-0.1-1.3,0-2.8,0.6-3.9c1.3-2.4,3-4.6,4.6-6.9c1.4,2.2,3.8,4.4,4,6.8
					c0.4,5.6,0.2,11.2-0.5,16.8c-0.7,5.9-5.5,5.1-9.6,5.1C110.3,207.9,107.4,206.6,107.3,201.4z M121.1,184c-0.5,0-0.9,0-1.4,0
					c-2,6.4-2.1,12.7,0.1,19c0.4,0,0.9,0,1.3,0C121.1,196.7,121.1,190.4,121.1,184z"/>
				<path class="st9" d="M166.5,182c-11.5,0.6-23,1.3-34.9,2c-0.1-1.6-0.1-3-0.2-4.1c11.9,0,23.5,0,35.1,0
					C166.4,180.6,166.5,181.3,166.5,182z"/>
				<path class="st9" d="M172.1,175.5c4,4.9,5.3,16.2,2,19c-1.9,1.6-5.5,1.4-8.3,1.3c-1.6-0.1-3.1-1.9-5.5-3.5c9.3-2,9.2-2,10-10.4
					C170.4,179.9,171.3,178.1,172.1,175.5z"/>
				<path class="st9" d="M166.4,187.4c-11.2,2.9-23,3.2-34.8,5.6c-0.1-1.6-0.2-3-0.4-4.5c11.9-1.1,23.3-2.2,34.8-3.3
					C166.2,186,166.3,186.7,166.4,187.4z"/>
				<path class="st9" d="M179.1,175.6c4,2.8,5.5,10.4,3.6,15.6c-0.5,1.5-2.7,2.3-4.1,3.5c-0.5-0.3-0.9-0.6-1.4-1
					C177.8,187.8,178.4,182,179.1,175.6z"/>
				<path class="st9" d="M78.7,201.6c-0.5,7.3-5.4,5.6-9.2,5.9c-4.4,0.3-5.8-2.1-6-5.9C68.5,201.6,73.4,201.6,78.7,201.6z"/>
			</g>
		</g>
	</g>
</g>
<g id="Layer_2_2_">
	<g id="eOTZNW_1_">
		<g>
			<path class="st10" d="M492.1,320c-28.1-31.9-55.7-63.2-83.6-94.9c11.1-12.6,22.1-25.1,33.4-38c16.7,18.9,33.3,37.7,50.2,57
				c33.5-38,66.8-75.8,100.5-114c11.2,12.6,22.1,25,33.5,37.9C581.5,218.5,537,268.9,492.1,320z"/>
		</g>
	</g>
	<g id="Ohuny6_1_">
		<g>
			<path class="st11" d="M104,0c5.7,0,11.3,0,17,0c1.1,0.3,2.2,0.6,3.3,0.8c46.8,6.4,78.4,31.9,94.6,76.1c3.1,8.6,4.1,18,6,27.1
				c0,5.7,0,11.3,0,17c-0.3,1.3-0.7,2.5-0.8,3.8c-5.9,43.9-29.4,74.8-70.1,91.9c-10.4,4.4-22,5.6-33.1,8.3c-5.7,0-11.3,0-17,0
				c-1.1-0.3-2.2-0.6-3.3-0.8C53.8,217.8,22.2,192.3,6,148c-3.1-8.6-4.1-18-6-27c0-5.7,0-11.3,0-17c0.3-1.4,0.7-2.8,0.9-4.3
				C7.6,53.4,33,22,76.9,6C85.5,2.9,94.9,2,104,0z M186.9,86.4c-1-1.5-1.7-2.8-2.7-3.8c-2.9-3-5.8-6-8.8-8.9
				c-4.7-4.7-5.7-4.7-10.5,0.1c-19.6,19.5-39.1,39.1-58.7,58.6c-4,4-5.6,4-9.5,0c-8.1-8.2-16.2-16.3-24.1-24.7
				c-3.2-3.4-6-3.5-9.3-0.2c-3,2.9-6.1,5.7-9.2,8.4c-3,2.6-3.3,5.2-0.5,8.1c14.6,15.1,29.2,30.2,43.7,45.3c2.7,2.8,5.2,3.2,8.1,0.3
				c26.2-26.3,52.5-52.6,78.8-78.9C185.3,89.6,185.9,88,186.9,86.4z"/>
		</g>
	</g>
</g>
</svg>
