<?xml version="1.0" encoding="utf-8"?>
<!-- Generator: Adobe Illustrator 24.3.0, SVG Export Plug-In . SVG Version: 6.00 Build 0)  -->
<svg version="1.1" id="Layer_1" xmlns="http://www.w3.org/2000/svg" xmlns:xlink="http://www.w3.org/1999/xlink" x="0px" y="0px"
	 viewBox="0 0 152 152" style="enable-background:new 0 0 152 152;" xml:space="preserve">
<style type="text/css">
	.st0{fill:#9D9E9E;}
	.st1{fill:#9D9E9E;stroke:#999898;stroke-width:2.1183;stroke-miterlimit:10;}
</style>
<path class="st0" d="M133.8,82.4c-0.4-0.4-0.8-0.7-1.3-1c-1.6-1.1-3.3-1.9-4.7-3.2c-2.5-2.2,0.8-3,1.1-4.5c0.5-1.9,1.2-3.9,2.7-5.4
	c2.5-2.5,3.4-6.2,3.4-9.8c0.1-5.6,1-11.2-1.4-16.9c-1.4-3.3-0.4-7.7-1.2-11.6c-1.7-8.6-4.4-16.5-11.3-21.1c-4.5-3-9.2-5.8-14.5-6.9
	c-4.4,0-8.8,0-13.1,0c-2.6,0.8-5.3,1.5-7.9,2.5C73.1,9.6,66.1,21.3,65.9,37.3c0,2.4-0.8,4.7-1.1,6.9c-1.3,8.7-2.4,17.5,3.5,25
	c1.7,2.2,2.4,5.3,4,7.7c0.7,1.1-0.8,1.3-1.3,1.6c-5.5,3.3-10.1,7.6-13.9,13.2c1.1,0.1,2.1,0.8,3.1,1.9c2.1,2.3,2.5,4.3,0.7,7.1
	c-2.1,3.2,1.4,10.8,5.3,11.5c3.4,0.6,4.8,2.6,4.5,5.9c-0.3,3-1.2,5.1-4.9,4.9c-1.1-0.1-2.7,1.3-3.4,2.4c-1,1.6-2,3.6-2.1,5.4
	c-0.1,1,0.2,2.1,0.6,3.2c1.6,0.4,3.2,0.8,4.8,1.1c5.9,1.3,11.9,2,17.9,2.4c0.4,0,0.9-0.1,1.1,0.5c8.6,0,17.2,0,25.8,0
	c0.7,0,1.4,0,2.1,0c0.5,0,1.1,0,1.6,0c4.1-1.2,8.4-1,12.6-1.7c5.7-1,11.4-1.9,16.8-4.2c5.7-2.4,6.3-3.7,6.5-10.5
	C150.3,105.4,145.3,92.2,133.8,82.4z M124.3,71.1c-1.6,3.2-3.9,5.7-6.5,7.8c-1.1,0.9-2,1.8-2.8,3c-0.9,3.4-3,6-4.5,9
	c-2.5,5.1-5,10.2-6.7,16c-1.3-2.1-0.6-4,0.4-5.4c1.3-1.9,0.7-2.9-0.8-3.9c-1.1-0.8-2.1-1.7-3.2-2.6c-0.4,0-0.8,0-1.2,0
	c-0.6,0.4-1.2,0.8-1.7,1.3c-3.2,2.4-3.2,2.4-1.7,6.4c0.5,1.4,0.5,2.7-0.1,4.4c-3-9-7.1-17-11.6-24.7c-0.3-0.4,0.1-0.7,0.3-1
	c-2.1-2.4-4.9-3.8-6.8-6.4c-1.1-1.5-2.2-2.9-2.9-4.6c-0.9-2.3-1.4-4.9-3.6-6.3c-1-0.6-1.2-2.1-1.4-3.4c-0.8-4.2-0.5-8.4-0.4-12.6
	c0-1,0-2.8,1.5-2.6c1.4,0.1,1.2,1.7,1.3,2.8c0.2,1.5,0.2,3,0.3,4.5c0.1,0.7,0.4,1.2,1,1.1c0.6,0,0.5-0.7,0.6-1.2
	c0.2-1.4,0.4-2.8,0.5-4.2c0.3-8.3,4.2-13.4,11.3-14.8c5.9-1.2,11.9-1.8,17.7-4.1c3.2-1.3,5.7-3.5,8-6.2c0.7-0.8,1.3-1.8,2.6-2.3
	c1,6,4.2,10.5,7.4,15c2.4,3.4,4.1,7.4,3.9,12c-0.1,2.4,0.4,4.7,1.5,7c0.4-2.8,0.8-5.5,1.2-8.3c0.1-0.6,0.2-1.3,0.7-1.5
	c0.7-0.2,1,0.6,1.4,1.1c1.4,2.6,0.5,15.9-1.6,17.7C126,66,125.5,68.7,124.3,71.1z"/>
<g id="eQRVzt_2_">
	<g>
		<path class="st0" d="M513.6-183c4.4,0,8.8,0,13.1,0c5.3,1.1,10,3.9,14.5,6.9c6.9,4.6,9.7,12.6,11.3,21.1c0.7,3.9-0.2,8.3,1.2,11.6
			c2.3,5.7,1.4,11.2,1.4,16.9c0,3.6-0.9,7.3-3.4,9.8c-1.5,1.5-2.2,3.4-2.7,5.4c-0.4,1.5-3.7,2.3-1.1,4.5c1.4,1.3,3.2,2.1,4.7,3.2
			c0.5,0.3,0.9,0.7,1.3,1c11.5,9.7,16.4,23,16.1,39.1c-0.1,6.9-0.8,8.1-6.5,10.5c-5.4,2.3-11.1,3.2-16.8,4.2
			c-4.2,0.7-8.5,0.5-12.6,1.7c-0.5,0-1.1,0-1.6,0c-0.7-0.7-1.4-0.7-2.1,0c-8.6,0-17.2,0-25.8,0c-0.2-0.6-0.7-0.5-1.1-0.5
			c-6-0.5-12-1.1-17.9-2.4c-4.5-1-8.9-2-12.9-4.5c-1.6-1-3.2-2.2-3.3-4.7c-0.6-11.7,0.8-22.8,6.8-32.7c3.9-6.3,8.9-11,14.8-14.6
			c0.5-0.3,2.1-0.5,1.3-1.6c-1.6-2.4-2.2-5.5-4-7.7c-6-7.5-4.8-16.4-3.5-25c0.3-2.3,1.1-4.5,1.1-6.9c0.2-16,7.3-27.7,19.8-32.8
			C508.2-181.5,510.9-182.2,513.6-183z M520.2-90c1.1,0.9,2.1,1.8,3.2,2.6c1.5,1,2.1,2,0.8,3.9c-1,1.5-1.6,3.3-0.4,5.4
			c1.7-5.7,4.2-10.9,6.7-16c1.5-3,3.5-5.6,4.5-9c0.8-1.2,1.7-2.2,2.8-3c2.6-2,4.9-4.6,6.5-7.8c1.2-2.4,1.7-5.2,3.9-7
			c2.1-1.8,3-15.1,1.6-17.7c-0.3-0.6-0.6-1.3-1.4-1.1c-0.6,0.1-0.6,0.9-0.7,1.5c-0.4,2.8-0.8,5.5-1.2,8.3c-1.1-2.3-1.5-4.6-1.5-7
			c0.1-4.7-1.5-8.6-3.9-12c-3.2-4.6-6.4-9-7.4-15c-1.3,0.5-1.8,1.5-2.6,2.3c-2.3,2.7-4.8,4.9-8,6.2c-5.8,2.3-11.8,2.9-17.7,4.1
			c-7.2,1.4-11,6.5-11.3,14.8c-0.1,1.4-0.3,2.8-0.5,4.2c-0.1,0.4,0,1.1-0.6,1.2c-0.6,0-1-0.5-1-1.1c-0.1-1.5-0.1-3-0.3-4.5
			c-0.1-1.1,0.1-2.7-1.3-2.8c-1.5-0.1-1.5,1.6-1.5,2.6c-0.1,4.2-0.3,8.4,0.4,12.6c0.2,1.3,0.5,2.8,1.4,3.4c2.2,1.4,2.7,4,3.6,6.3
			c0.7,1.8,1.8,3.2,2.9,4.6c1.9,2.6,4.7,4.1,6.8,6.4c-0.2,0.3-0.6,0.6-0.3,1c4.5,7.7,8.6,15.7,11.6,24.7c0.7-1.7,0.7-3,0.1-4.4
			c-1.5-3.9-1.5-3.9,1.7-6.4c0.6-0.4,1.1-0.9,1.7-1.3C519.4-90,519.8-90,520.2-90z"/>
		<path class="st0" d="M530.4-47c0.7-0.7,1.4-0.7,2.1,0C531.8-47,531.1-47,530.4-47z"/>
		<path class="st1" d="M504.2-103.7c-2.1-2.4-4.9-3.8-6.8-6.4c-1.1-1.5-2.2-2.9-2.9-4.6c-0.9-2.3-1.4-4.9-3.6-6.3
			c-1-0.6-1.2-2.1-1.4-3.4c-0.8-4.2-0.5-8.4-0.4-12.6c0-1,0-2.8,1.5-2.6c1.4,0.1,1.2,1.7,1.3,2.8c0.2,1.5,0.2,3,0.3,4.5
			c0.1,0.7,0.4,1.2,1,1.1c0.6,0,0.5-0.7,0.6-1.2c0.2-1.4,0.4-2.8,0.5-4.2c0.3-8.3,4.2-13.4,11.3-14.8c5.9-1.2,11.9-1.8,17.7-4.1
			c3.2-1.3,5.7-3.5,8-6.2c0.7-0.8,1.3-1.8,2.6-2.3c1,6,4.2,10.5,7.4,15c2.4,3.4,4.1,7.4,3.9,12c-0.1,2.4,0.4,4.7,1.5,7
			c0.4-2.8,0.8-5.5,1.2-8.3c0.1-0.6,0.2-1.3,0.7-1.5c0.7-0.2,1,0.6,1.4,1.1c1.4,2.6,0.5,15.9-1.6,17.7c-2.2,1.9-2.7,4.6-3.9,7
			c-1.6,3.2-3.9,5.7-6.5,7.8c-1.1,0.9-2,1.8-2.8,3c-2.6,0.9-5.2,1.9-6.7,4.7c-1.3,2.7-3.5,4.2-5.6,5.9c-0.9,0.8-2.1,1.1-2.5,2.4
			c-0.4,0-0.8,0-1.2,0c-0.3-0.4-0.5-0.9-0.8-1.1C512.8-94.2,510-101.2,504.2-103.7z"/>
	</g>
</g>
<g>
	<path class="st0" d="M424-72.8c6.3-0.4,10-7.5,6.6-12.9c-1.9-2.9-0.4-4.6,1.5-6.5c2-2,3.8-2.4,6.2-0.5c3.5,2.7,11.1-0.2,12.3-4.5
		c1.1-4,5.4-5.9,9-3.9c0.8,0.4,1.4,1.7,1.5,2.7c0.8,5.2,7.5,8.9,12.1,6.2c2.8-1.6,4.7-1.5,6.9,0.9c2.1,2.3,2.5,4.3,0.7,7.1
		c-2.1,3.2,1.4,10.8,5.3,11.5c3.4,0.6,4.8,2.6,4.5,5.9c-0.3,3-1.2,5.1-4.9,4.9c-1.1-0.1-2.7,1.3-3.4,2.4c-1,1.6-2,3.6-2.1,5.4
		c-0.1,1.6,0.6,3.6,1.6,4.9c1.7,2.4,0.7,4-1,5.4c-1.8,1.4-3,4.4-6.3,2.3c-5.4-3.5-12.1-0.7-13.7,5.6c-0.2,0.7-0.4,1.3-0.5,2
		c-3.1,0-6.2,0-9.3,0c-0.4-2.2,0-5.1-1.3-6.3c-2.1-1.9-5.1-2.9-8-3.5c-1.3-0.3-3,1-4.4,1.8c-3,1.8-4.6-0.3-6.4-2.1
		c-1.6-1.5-2.2-2.9-0.8-5.1c3.7-5.5,0.4-12.5-6.2-13.6C424-66,424-69.4,424-72.8z M469.1-67.5c0-7.1-6-13-13.2-13
		c-7,0-12.9,5.8-12.9,12.8c0,7,6.2,13.4,13.1,13.2C462.8-54.6,469-60.8,469.1-67.5z"/>
</g>
<g>
	<path class="st0" d="M0.1,112.2c6.3-0.4,10-7.5,6.6-12.9c-1.9-2.9-0.4-4.6,1.5-6.5c2-2,3.8-2.4,6.2-0.5c3.5,2.7,11.1-0.2,12.3-4.5
		c1.1-4,5.4-5.9,9-3.9c0.8,0.4,1.4,1.7,1.5,2.7c0.8,5.2,7.5,8.9,12.1,6.2c2.8-1.6,4.7-1.5,6.9,0.9c2.1,2.3,2.5,4.3,0.7,7.1
		c-2.1,3.2,1.4,10.8,5.3,11.5c3.4,0.6,4.8,2.6,4.5,5.9c-0.3,3-1.2,5.1-4.9,4.9c-1.1-0.1-2.7,1.3-3.4,2.4c-1,1.6-2,3.6-2.1,5.4
		c-0.1,1.6,0.6,3.6,1.6,4.9c1.7,2.4,0.7,4-1,5.4c-1.8,1.4-3,4.4-6.3,2.3c-5.4-3.5-12.1-0.7-13.7,5.6c-0.2,0.7-0.4,1.3-0.5,2
		c-3.1,0-6.2,0-9.3,0c-0.4-2.2,0-5.1-1.3-6.3c-2.1-1.9-5.1-2.9-8-3.5c-1.3-0.3-3,1-4.4,1.8c-3,1.8-4.6-0.3-6.4-2.1
		c-1.6-1.5-2.2-2.9-0.8-5.1c3.7-5.5,0.4-12.5-6.2-13.6C0.1,118.9,0.1,115.6,0.1,112.2z M45.2,117.5c0-7.1-6-13-13.2-13
		c-7,0-12.9,5.8-12.9,12.8c0,7,6.2,13.4,13.1,13.2C39,130.4,45.1,124.2,45.2,117.5z"/>
</g>
<path class="st0" d="M89.3,80.6c0,0,2.3,1.1,5.6,2.4s5.3,5,9.8,1.9c4.5-3.1,9-6.2,9-6.2S104.7,84.9,89.3,80.6z"/>
<path class="st0" d="M84.4,68.3c0,0,11.9,2,15.3,1.7c3.4-0.2,14-1.8,17.7-4.4c0,0-10.5,8.3-18.4,8.3C92.3,73.9,89.6,72,84.4,68.3z"
	/>
<path class="st0" d="M99.7,49.9c0.1-7.8-3.7,11.6-1.8,11.6C103.5,61.6,99.6,53.6,99.7,49.9z"/>
</svg>
