<?xml version="1.0" encoding="utf-8"?>
<!-- Generator: Adobe Illustrator 24.0.1, SVG Export Plug-In . SVG Version: 6.00 Build 0)  -->
<svg version="1.1" id="Layer_1" xmlns="http://www.w3.org/2000/svg" xmlns:xlink="http://www.w3.org/1999/xlink" x="0px" y="0px"
	 viewBox="0 0 496 496" style="enable-background:new 0 0 496 496;" xml:space="preserve">
<style type="text/css">
	.st0{fill:#9D9E9E;}
	.st1{fill:#69897F;}
</style>
<path class="st0" d="M272,264h-16v16h-16v16h16v16h16v-16h16v-16h-16V264z"/>
<path class="st0" d="M496,152V72h-40V41.89L476.95,0h-89.89L408,41.89V72h-20.45C382,62.48,371.79,56,360,56H232
	c-17.65,0-32,14.35-32,32h-40V56H40C17.95,56,0,73.95,0,96v8h88v16H0v8c0,22.05,17.95,40,40,40h120v-32h40c0,17.65,14.35,32,32,32
	h5.12l-26.48,84.75C203.93,262.86,200,274.98,200,288c0,35.29,28.71,64,64,64c3.16,0,6.25-0.3,9.29-0.75L286.24,416h-11.18l-16,32
	H240v48h256v-48h-19.05l-16-32H448v-60.53l-118.8-71.28L358.24,168H360c11.79,0,22-6.48,27.55-16H408v22.11L387.05,216h89.89
	L456,174.11V152H496z M17.37,88c3.3-9.31,12.2-16,22.63-16h104v16H17.37z M144,152H40c-10.43,0-19.33-6.69-22.63-16H144V152z
	 M160,120h-56v-16h96v16H160z M216,288c0-26.47,21.53-48,48-48s48,21.53,48,48s-21.53,48-48,48S216,314.47,216,288z M326.59,301.29
	l52.84,31.7l-85.58,39.5l-5.09-25.48C307.83,338.98,322.21,321.96,326.59,301.29z M394.89,342.27l27.79,16.68l-120.8,53.69
	l-4.8-24.01l98.27-45.35L394.89,342.27z M480,480H256v-16h224V480z M459.05,448h-182.1l8-16h166.11L459.05,448z M333.7,416
	l98.3-43.69V416H333.7z M319.63,256.49C308.62,237.12,287.83,224,264,224c-10.82,0-21.02,2.72-29.96,7.49L253.88,168h87.88
	L319.63,256.49z M376,136c0,8.82-7.18,16-16,16H232c-8.82,0-16-7.18-16-16V88c0-8.82,7.18-16,16-16h128c8.82,0,16,7.18,16,16V136z
	 M451.05,16l-8,16h-22.11l-8-16H451.05z M424,48h16v24h-16V48z M480,88v16h-88V88H480z M392,120h88v16h-88V120z M412.95,200l8-16
	h22.11l8,16H412.95z M440,168h-16v-16h16V168z"/>
<path class="st0" d="M264,88c-13.23,0-24,10.77-24,24s10.77,24,24,24c13.23,0,24-10.77,24-24S277.23,88,264,88z M264,120
	c-4.41,0-8-3.59-8-8s3.59-8,8-8s8,3.59,8,8S268.41,120,264,120z"/>
<path class="st0" d="M328,88c-13.23,0-24,10.77-24,24s10.77,24,24,24s24-10.77,24-24S341.23,88,328,88z M328,120c-4.41,0-8-3.59-8-8
	s3.59-8,8-8s8,3.59,8,8S332.41,120,328,120z"/>
<path class="st0" d="M167.43,364.11l12.94-15.5l-32.97-32.98l-15.5,12.95c-3.48-1.75-7.08-3.24-10.78-4.46l-1.8-20.11H72.69
	l-1.81,20.12c-3.7,1.22-7.3,2.71-10.78,4.46l-15.5-12.95l-32.97,32.98l12.94,15.5c-1.75,3.47-3.24,7.07-4.46,10.77L0,376.69v46.62
	l20.12,1.81c1.21,3.7,2.71,7.3,4.46,10.77l-12.95,15.5l32.97,32.98l15.5-12.95c3.48,1.75,7.08,3.24,10.78,4.46L72.69,496h46.62
	l1.81-20.12c3.7-1.22,7.3-2.71,10.78-4.46l15.5,12.95l32.97-32.98l-12.94-15.5c1.75-3.47,3.24-7.07,4.46-10.77l20.11-1.8V376.7
	l-20.12-1.81C170.66,371.18,169.17,367.57,167.43,364.11z M176,408.69l-16.63,1.5l-1.39,5.5c-1.51,6.01-3.89,11.75-7.07,17.05
	l-2.91,4.88l10.71,12.82l-12.28,12.29L133.6,452l-4.87,2.91c-5.29,3.17-11.03,5.55-17.05,7.07l-5.5,1.39L104.69,480H87.31
	l-1.5-16.63l-5.5-1.39c-6.02-1.52-11.76-3.9-17.05-7.07L58.4,452l-12.83,10.71l-12.28-12.29L44,437.61l-2.91-4.88
	c-3.17-5.3-5.55-11.04-7.07-17.05l-1.39-5.5L16,408.69v-17.38l16.63-1.5l1.39-5.5c1.51-6.01,3.89-11.75,7.07-17.05l2.91-4.88
	l-10.71-12.82l12.28-12.29L58.4,348l4.87-2.91c5.29-3.17,11.03-5.55,17.05-7.07l5.5-1.39L87.31,320h17.38l1.5,16.63l5.5,1.39
	c6.02,1.52,11.76,3.9,17.05,7.07l4.86,2.91l12.83-10.71l12.28,12.29L148,362.39l2.91,4.88c3.17,5.3,5.55,11.04,7.07,17.05l1.39,5.5
	l16.63,1.5L176,408.69L176,408.69z"/>
<path class="st0" d="M96,352c-26.47,0-48,21.53-48,48s21.53,48,48,48s48-21.53,48-48S122.47,352,96,352z M96,432
	c-17.65,0-32-14.35-32-32s14.35-32,32-32s32,14.35,32,32S113.65,432,96,432z"/>
<path class="st0" d="M88,184h16v16H88V184z"/>
<path class="st0" d="M88,216h16v16H88V216z"/>
<path class="st0" d="M88,248h16v16H88V248z"/>
<g id="VNr6mR_2_">
	<g>
		<path class="st1" d="M-67.59-35.64c-0.72,5.01-1.36,10.04-2.18,15.03C-71.82-8.03-79.44,0.91-88.98,8.62
			c-6.8,5.49-13.47,11.15-20.28,16.64c-1.76,1.42-2.69,2.63-2.3,5.21c1.33,8.67-0.59,16.3-7.43,22.55
			c-4.89,4.47-9.1,9.68-13.73,14.44c-3.23,3.32-4.94,2.84-5.96-1.65c-1.56-6.88-2.94-13.8-4.41-20.74
			c-3.52-0.54-6.95,3.38-10.11-0.72c-4.95,8.36-9.66,16.31-14.37,24.26c-0.27-0.06-0.54-0.11-0.8-0.17
			c-0.34-3.28-0.68-6.56-1.11-10.77c-13.93,11.64-27.33,22.85-40.74,34.05c-0.12-0.11-0.24-0.22-0.36-0.32
			c6.68-11.38,13.36-22.77,20.44-34.82c-7.47,1.51-14.14,2.86-20.81,4.2c-0.14-0.2-0.27-0.39-0.41-0.59
			c9.01-7.55,18.03-15.11,27.85-23.34c-4.12,0-7.23,0-10.34,0c-0.06-0.26-0.13-0.52-0.19-0.78c6.75-3.86,13.51-7.71,19.43-11.09
			c0.19-3.77,0.35-6.93,0.53-10.59c-5.26-1.11-10.82-2.28-16.39-3.47c-1.84-0.39-3.69-0.72-5.48-1.26c-2.81-0.84-3.33-2.53-1.3-4.46
			c6.65-6.34,13.38-12.61,20.1-18.87c3.72-3.46,8.42-4.08,13.06-3.46c5.99,0.81,9.86-1.09,13.47-6.1
			c5.36-7.43,11.87-14.01,17.68-21.13c7.69-9.43,17.99-13.58,29.61-15.24c3.27-0.47,6.54-0.87,9.81-1.3c3.99,0,7.98,0,11.97,0
			c2.96,1.24,6.13,2.14,8.83,3.8c3.61,2.23,4.27,6.33,5.13,10.16C-67.59-43.18-67.59-39.41-67.59-35.64z M-140.41,37.75
			c18.42-14.44,36.99-28.05,53.62-44.01c1.42-1.36,2.75-2.96,3.65-4.69c5.92-11.39,6.64-23.68,5.79-36.16
			c-0.18-2.67-1.77-4.4-4.86-4.27c-5.74,0.25-11.52,0.05-17.24,0.58c-10.79,1-20.33,4.66-27.42,13.52
			c-12.78,15.98-25.76,31.79-38.65,47.68c-0.31,0.38-0.43,0.92-0.66,1.44C-154.97,17.78-146.38,26.12-140.41,37.75z M-185.58,47.43
			c0.09,0.14,0.18,0.29,0.28,0.43c4.14-1.48,8.28-2.97,12.93-4.63c-1.15,3.5-2.08,6.33-3.25,9.9c4.11-2.65,7.48-4.82,10.98-7.07
			c0.12,1.03,0.19,1.71,0.32,2.85c3.42-3.49,6.51-6.64,9.67-9.87c-2.63-4.76-6.12-8.7-10.65-11.62c-0.85-0.55-2.37-0.85-3.22-0.47
			c-3,1.33-5.85,3.01-9.14,4.77c1.85,0.77,3.22,1.34,4.9,2.04C-177.17,38.45-181.37,42.94-185.58,47.43z M-144.56,39.93
			c-5.55-10.9-13.28-18.9-24.43-24.11c-0.43,1.64-0.77,2.94-1.14,4.37c10.52,3.83,17.46,10.92,21.25,21.19
			C-147.36,40.87-146.16,40.47-144.56,39.93z"/>
		<path class="st1" d="M-107.94-1.51c-10.72,0.04-19.5-8.64-19.47-19.25c0.03-10.61,8.8-19.41,19.41-19.47
			c10.57-0.06,19.38,8.73,19.44,19.4C-88.5-10.16-97.14-1.54-107.94-1.51z M-122.6-20.81c-0.02,8.4,6.57,15.09,14.78,15
			c8.17-0.09,14.67-6.63,14.76-14.85c0.08-8.25-6.66-14.99-14.95-14.96C-116.25-35.57-122.58-29.15-122.6-20.81z"/>
	</g>
</g>
</svg>
