<?xml version="1.0" encoding="utf-8"?>
<!-- Generator: Adobe Illustrator 22.1.0, SVG Export Plug-In . SVG Version: 6.00 Build 0)  -->
<svg version="1.1" xmlns="http://www.w3.org/2000/svg" xmlns:xlink="http://www.w3.org/1999/xlink" x="0px" y="0px"
	 viewBox="0 0 151.8 96.8" style="enable-background:new 0 0 151.8 96.8;" xml:space="preserve">
<style type="text/css">
	.st0{fill:#434141;stroke:#FFFFFF;stroke-width:0.8278;stroke-miterlimit:10;}
	.st1{fill:#FFFFFF;stroke:#000000;stroke-miterlimit:10;}
	.st2{fill:#FFFFFF;}
	.st3{display:none;}
	.st4{display:inline;}
	.st5{display:inline;fill:#FFFFFF;stroke:#000000;stroke-width:3;stroke-miterlimit:10;}
	.st6{fill:#010101;}
	.st7{fill:#567ECC;}
	.st8{fill:#698FD9;}
</style>
<g id="Layer_1">
	<path class="st0" d="M-376.1,128.4h-127c-6.6,0-12-5.4-12-12v-127c0-6.6,5.4-12,12-12h127c6.6,0,12,5.4,12,12v127
		C-364.1,123-369.5,128.4-376.1,128.4z"/>
	<g id="bDhY4X_1_">
		<g>
			<path class="st1" d="M-539.9,130c-2.6,3-5,5.7-7.4,8.5c-7.8-5.1-15.2-9.7-22.4-14.8c-1.3-0.9-1.5-3.5-2.2-5.4
				c-0.6-1.6-0.8-3.7-1.9-4.8c-17.6-18.2-35.2-36.3-52.9-54.4c-0.3,0.5-0.6,1.1-0.9,1.6c-3.1,0.8-6.1,2.2-9.3,2.3
				c-3.8,0.2-6.4-2-7.2-6c-1.8-8.5-3.8-10.2-12.4-11.4c-1.2-0.2-2.5-1.1-3.4-2c-10.2-10.4-20.4-20.8-30.6-31.2
				c-3.8-3.9-4.7-8.6-3-13.7c3.8-11.3,17.1-18.1,27.4-14c2.1,0.8,4.2,2.2,5.8,3.8c9,9.5,17.9,19,26.7,28.7c1.2,1.3,1.9,3.3,2.2,5
				c0.8,5.7,4.5,10.3,10,11.9c9.2,2.7,10.5,8.1,3.2,15.2c9.8,10.3,19.6,20.7,29.5,31c7.2,7.6,14.5,15,21.6,22.7
				c2.3,2.5,4.7,4.1,8.1,3.6c2.6-0.4,4.2,0.6,5.7,2.9C-548.9,116.5-544.3,123.3-539.9,130z"/>
			<path class="st1" d="M-611.9,50c5.1-4.7,5.2-7.2,0.2-14.3c0.7-0.5,1.5-1,2.3-1.6c5.6-4.8,9-9.8,8.8-18.2
				c-0.2-15.1,14-28.4,30.1-30.5c3.5-0.4,7.1-0.1,11.5-0.1c-2.5,3.2-4.5,5.8-6.6,8.4c-2.2,2.8-4.4,5.6-6.6,8.4
				c-8.8,11.2-8.7,12.2,2,21.6c3.1,2.7,5.3,2.7,8.5-0.2c6.2-5.6,12.4-11.3,18.5-17c0.9-0.8,1.8-1.5,3.9-2c-0.4,4.5-0.3,9.1-1.2,13.6
				c-2,10.6-6,20.3-14.6,27.4c-6,5-13,6.4-20.5,4.7c-2.5-0.6-4.3-0.3-6.3,1.4c-5.1,4.4-10.4,8.5-15.4,12.5
				C-602.3,59.2-607,54.7-611.9,50z"/>
			<path class="st1" d="M-641.3,65.7c4.9,3.3,9.5,5.3,13.9,1.5c4.2,3.8,8.2,7.5,12.5,11.4c-7.7,6.6-15.2,13-22.7,19.4
				c-13,11-25.9,22.1-38.9,33.1c-5,4.2-9.7,4-14.1-0.5c-4.5-4.6-4.9-10.9-0.7-15.5c3-3.2,6.2-6.2,9.3-9.3
				c13-12.9,25.9-25.8,38.9-38.7C-642.6,66.8-642,66.4-641.3,65.7z M-676.5,120.9c0-3-2.4-5.7-5.3-5.8c-3.2-0.2-6,2.6-6,6
				c0,3,2.5,5.6,5.5,5.5C-679.1,126.6-676.6,124.1-676.5,120.9z"/>
		</g>
	</g>
	<g id="bDhY4X_2_">
		<g>
			<path class="st2" d="M-375.9,110c-2.2,2.5-4.1,4.7-6.1,7c-6.4-4.2-12.6-8-18.6-12.2c-1.1-0.8-1.2-2.9-1.8-4.5
				c-0.5-1.3-0.6-3-1.5-4c-14.5-15.1-29.2-30.1-43.8-45.1c-0.3,0.4-0.5,0.9-0.8,1.3c-2.6,0.7-5.1,1.8-7.7,1.9
				c-3.2,0.2-5.3-1.7-6-4.9c-1.5-7.1-3.1-8.5-10.3-9.4c-1-0.1-2-0.9-2.8-1.7c-8.5-8.6-16.9-17.2-25.4-25.8
				c-3.2-3.3-3.9-7.1-2.4-11.3c3.2-9.3,14.2-15,22.7-11.6c1.7,0.7,3.5,1.8,4.8,3.1c7.4,7.8,14.8,15.8,22.1,23.8
				c1,1.1,1.6,2.7,1.8,4.1c0.7,4.7,3.7,8.5,8.3,9.8c7.6,2.2,8.7,6.7,2.6,12.6c8.1,8.6,16.3,17.1,24.4,25.7c6,6.3,12,12.4,17.9,18.8
				c1.9,2.1,3.9,3.4,6.7,3c2.2-0.3,3.5,0.5,4.7,2.4C-383.4,98.8-379.5,104.5-375.9,110z"/>
			<path class="st2" d="M-435.5,43.8c4.3-3.9,4.3-5.9,0.1-11.9c0.6-0.4,1.3-0.8,1.9-1.4c4.6-4,7.4-8.1,7.3-15.1
				C-426.4,3-414.6-8.1-401.3-9.8c2.9-0.4,5.8-0.1,9.5-0.1c-2.1,2.6-3.8,4.8-5.5,7c-1.8,2.3-3.7,4.6-5.5,7
				c-7.3,9.3-7.2,10.1,1.7,17.8c2.6,2.3,4.4,2.2,7.1-0.2c5.1-4.7,10.2-9.4,15.4-14.1c0.7-0.7,1.5-1.3,3.2-1.7
				c-0.3,3.8-0.3,7.6-1,11.2c-1.7,8.8-5,16.8-12.1,22.7c-5,4.2-10.7,5.3-16.9,3.9c-2.1-0.5-3.6-0.3-5.2,1.2
				c-4.2,3.6-8.6,7-12.7,10.4C-427.5,51.4-431.4,47.7-435.5,43.8z"/>
			<path class="st2" d="M-459.8,56.8c4,2.7,7.9,4.4,11.5,1.3c3.5,3.2,6.8,6.2,10.4,9.5c-6.4,5.5-12.6,10.8-18.8,16.1
				c-10.7,9.1-21.5,18.3-32.2,27.4c-4.1,3.5-8,3.3-11.7-0.4c-3.8-3.8-4-9.1-0.5-12.8c2.5-2.7,5.2-5.1,7.7-7.7
				c10.7-10.7,21.4-21.3,32.2-32C-460.9,57.7-460.5,57.4-459.8,56.8z M-489,102.5c0-2.5-2-4.7-4.4-4.8c-2.7-0.1-4.9,2.2-4.9,5
				c0,2.5,2.1,4.6,4.5,4.6C-491.1,107.2-489.1,105.2-489,102.5z"/>
		</g>
	</g>
	<g id="_x38_v3C2y_1_">
		<g>
			<path class="st2" d="M-243-2.7c0.9,1,2.1,2.5,3.2,3.8c-27.4,27.4-55,55-83,83c2.3,1.6,4,2.8,6,4.2c27-27.1,54.5-54.6,82-82.2
				c7.5,7.5,14.8,14.9,21.9,22c-28.9,28.9-58,58-87,86.9c-9.9-10-20.2-20.3-30.3-30.4C-301.4,55.7-272.3,26.7-243-2.7z"/>
			<path class="st2" d="M-207.5,23.8c-10.7-10.7-21-21-31.4-31.5c2.9-2.9,5.7-6.2,9-9c4.7-3.9,11.2-3.5,15.7,0.8
				c5,4.8,10,9.7,14.8,14.8c4.5,4.7,4.5,11.4,0.2,16.3C-201.9,18.3-204.7,21-207.5,23.8z"/>
			<path class="st2" d="M-305.2,119.8c-11.2,1.7-22.9,3.4-35.2,5.3c1.9-12.3,3.6-24,5.3-35.4C-325.1,99.7-315.2,109.7-305.2,119.8z"
				/>
		</g>
	</g>
</g>
<g id="Layer_10" class="st3">
	<g id="oOT1kY_1_" class="st4">
		<g>
			<path class="st2" d="M-96.9,118.6c-20.5,0-41-0.4-61.5,0.2c-8.9,0.2-13.9-8.2-9.2-16.5c18.2-31.9,36.2-64,54.3-96.1
				c2.9-5.2,5.8-10.3,8.7-15.4c4.1-7,12.5-7.1,16.5-0.1C-66.9,28-45.8,65.2-24.8,102.5c4.6,8.1-0.2,16.1-9.5,16.1
				C-55.2,118.6-76,118.6-96.9,118.6z M-123.9,59.7c-1.5-0.5-2.7-0.9-4.1-1.4c-0.5,1.4-1,2.5-1.4,3.8c20.9,9.2,41.5,18.3,61.6,27.1
				c-2.8,5.4-5.5,10.5-8.3,15.7c12.9,0,25.1,0,37.8,0c-5.4-9.5-10.6-18.7-16.1-28.4c-2.6,2.7-4.9,5.3-7.4,7.6
				c-0.7,0.7-2.4,1.1-3.2,0.8c-4.6-1.7-9.2-3.7-13.7-5.7c-1-0.4-2-1.7-2.2-2.7c-1.3-5.4-2.2-10.9-3.6-16.3c-0.6-2.3-1.7-5.2-3.5-6.2
				c-7.3-4.1-14.9-7.6-23.9-5.7c-4.6,0.9-8.3,2.4-9.8,7.3C-122.2,57-123.1,58.2-123.9,59.7z M-122.8,104.9c8.5,1,8.4,1,10.6-6.5
				c1.8-6.3,3.7-12.6,5.5-18.9c8.4,6.9,10.5,15.7,8.5,25.7c3.4,0,6,0,8.8,0c0-4.9,0.4-9.6-0.2-14.1c-0.3-2.5-1.8-5.9-3.8-7
				c-6.8-3.6-14.1-6.4-21.4-9.6C-117.5,84.8-120.1,94.8-122.8,104.9z M-82.9,40.5c0.1-4.7-3.5-8.5-8.1-8.6c-4.2-0.1-8.2,3.8-8.2,8.1
				c-0.1,4.5,3.5,8.1,8,8.2C-86.5,48.3-82.9,45.1-82.9,40.5z"/>
			<path class="st2" d="M-106.4,56.3c-1.4,3-2.8,6-4.4,9.2c-1.9-0.8-3.4-1.4-5-2C-114.4,57.2-113.3,56.4-106.4,56.3z"/>
			<path class="st2" d="M-89.8,74.6c-2.4-1-4.1-1.8-6.4-2.8c1.2-2.8,2.3-5.6,3.8-9.2C-91.5,67-90.7,70.5-89.8,74.6z"/>
		</g>
	</g>
</g>
<g id="Layer_11">
	<g id="QWGp6Z_1_">
		<g>
			<path class="st2" d="M152,95.1c-3,2.3-4.7,2.3-6.3-0.4c-7-12.5-18.3-19.2-31.5-23.1c-12.8-3.8-26-3.9-39.5-4
				c-0.1,1.4-0.2,2.6-0.2,3.7c0,7,0,14.1,0,21.1c0,4.2-2.4,5.5-5.8,3.3C46.8,81,25,66.3,3.1,51.5c-0.8-0.5-1.4-1.4-2.1-2
				c0-0.7,0-1.3,0-2c1.2-1,2.2-2.1,3.5-3c21-14.2,42-28.4,63.1-42.4c1.5-1,3.9-1.8,5.3-1.2c1,0.4,1.5,3.2,1.5,5
				c0.2,6.1,0.1,12.3,0,18.4c0,2.4,0.4,3.4,3.2,3.8c19,3.2,37.1,8.8,52.5,21.1c12.4,9.8,19.9,22.4,21.3,38.4c0,0.5,0.3,1,0.5,1.5
				C152,91.1,152,93.1,152,95.1z"/>
		</g>
	</g>
</g>
<g id="Layer_7">
	<g id="OuiUpj_1_">
		<g>
			<path class="st2" d="M-315.3,30.9c31.5,0,62.5,0,94.1,0c0,1.3,0,2.5,0,3.7c0,28.1,0,56.2,0,84.3c0,5.4-1.3,6.7-6.7,6.7
				c-27,0-53.9,0-80.9,0c-5.2,0-6.5-1.3-6.5-6.5c0-28.1,0-56.2,0-84.3C-315.3,33.5-315.3,32.3-315.3,30.9z M-249.1,78
				c0,10,0,20.1,0,30.1c0,1.8-0.4,3.8,0.2,5.3c0.6,1.5,2.3,3.5,3.5,3.6c1.3,0.1,2.8-1.9,3.9-3.2c0.5-0.5,0.2-1.7,0.2-2.6
				c0-22.1,0-44.1,0-66.2c0-0.9,0.3-2-0.1-2.6c-1.1-1.4-2.5-3.5-3.7-3.5c-1.3,0-2.7,2.1-3.8,3.4c-0.4,0.6-0.1,1.7-0.1,2.6
				C-249.1,55.9-249,67-249.1,78z M-288,77.8c0-11.4,0-22.7,0-34.1c0-2.7-0.9-4.7-3.6-5.1c-2.1-0.4-3.9,2.1-3.9,5.2
				c0,22.7,0,45.4,0,68.2c0,2.8,0.7,5,3.8,5.3c2.2,0.2,3.7-2.1,3.7-5.3C-288,100.5-288,89.2-288,77.8z M-272,77.8
				c0,10.5,0,20.9,0,31.4c0,1.3,0,2.7,0,4c0.1,2.4,1.5,3.9,3.8,3.9c2.3,0,3.6-1.6,3.7-3.9c0.1-0.8,0-1.6,0-2.3c0-21.5,0-43,0-64.5
				c0-1.4,0.5-3.2-0.2-4.3c-0.8-1.4-2.4-3.1-3.8-3.3c-1.1-0.1-2.5,2-3.5,3.3c-0.4,0.6-0.1,1.7-0.1,2.6C-272,55.8-272,66.8-272,77.8z
				"/>
			<path class="st2" d="M-268.6,23c-16.4,0-32.8,0-49.2,0c-5.3,0-6.9-1.7-7-7c0-3.8-0.1-7.6,0-11.4c0.1-4.1,1.9-5.8,6-5.8
				c33.6,0,67.1,0,100.7,0c3.8,0,5.6,1.9,5.7,5.8c0,4.1,0.1,8.2,0,12.4c0,4.3-1.8,6.1-6.1,6.1C-235.1,23-251.8,23-268.6,23z"/>
			<path class="st2" d="M-249.1-8.5c-2.2,0-4,0.1-5.7-0.1c-0.8-0.1-2-0.8-2.1-1.4c-0.5-2.5-2-2.7-4.1-2.7c-6,0.1-12,0-17.9,0
				c-1.9,4.5-1.9,4.5-8.7,3.9c-0.1-0.2-0.2-0.4-0.2-0.5c2.8-12.6,0.6-10.7,13.2-10.8c5.9-0.1,11.8,0.1,17.7-0.1
				c3.1-0.1,4.8,1.2,5.6,4.1C-250.7-13.7-249.9-11.3-249.1-8.5z"/>
		</g>
	</g>
</g>
<g id="Layer_8" class="st3">
	<g id="qTIRgY_1_" class="st4">
		<g>
			<path class="st2" d="M-223.6-20.9c7.5,1.9,12.7,6.2,14.6,14c0.2,0.7,0.4,1.5,0.4,2.2c0,15.7,0,31.4,0,47.4c-4.2,0-8.4,0-13.1,0
				c0-1,0-2.1,0-3.3c0-13.5,0-27.1,0-40.6c0-4.5-1.5-6-6-6c-28.4,0-56.8,0-85.2,0c-4.7,0-6.2,1.5-6.2,6.2c0,35.5,0,71.1,0,106.6
				c0,4.7,1.5,6.2,6.3,6.2c14,0,27.9,0,42.3,0c0,4.7,0,9.2,0,13.7c-15.6,0-31.2,0-46.8,0c-11.5-4.3-15-9.3-15-22
				c0-34.2,0-68.3,0-102.5c0-12.6,3.4-17.7,15-22C-286.1-20.9-254.9-20.9-223.6-20.9z"/>
			<path class="st2" d="M-212.8,99.9c4.5,4,9.1,8,13.5,12.2c2.7,2.6,3,6.4,1.2,9.5c-1.7,3-4.4,4.4-7.7,3.6c-1.8-0.4-3.5-1.6-4.9-2.9
				c-4.4-3.9-8.6-8-13.1-12.2c-18.9,7.6-34.1,4-43.8-11c-8.9-13.8-6.7-32.8,5.3-44c11.2-10.5,28.4-11.6,40.9-2.8
				C-210.4,59.9-201.1,78.2-212.8,99.9z M-240.2,58.8c-10.9,0-19.9,9.3-20,20.6c-0.1,11.2,9,20.7,19.8,20.8
				c10.9,0.1,20.2-9.4,20.1-20.8C-220.2,68.2-229.3,58.8-240.2,58.8z"/>
			<path class="st2" d="M-305.6,15.4c0-2.9,0-5.6,0-8.6c23.4,0,46.7,0,70.3,0c0,2.8,0,5.6,0,8.6C-258.6,15.4-281.9,15.4-305.6,15.4z
				"/>
			<path class="st2" d="M-305.5,42.7c0-2.9,0-5.6,0-8.4c23.4,0,46.8,0,70.3,0c0,2.9,0,5.5,0,8.4C-258.6,42.7-281.9,42.7-305.5,42.7z
				"/>
			<path class="st2" d="M-305.5,70.3c0-2.9,0-5.5,0-8.7c4.4,0,8.6,0,12.9,0c4.3,0,8.6,0,13.2,0c0,3,0,5.8,0,8.7
				C-288.1,70.3-296.7,70.3-305.5,70.3z"/>
			<path class="st2" d="M-305.5,90.3c0-2.9,0-5.5,0-8.7c4.4,0,8.6,0,12.9,0c4.3,0,8.6,0,13.2,0c0,3,0,5.8,0,8.7
				C-288.1,90.3-296.7,90.3-305.5,90.3z"/>
		</g>
	</g>
</g>
<g id="Layer_9">
</g>
<g id="Layer_5" class="st3">
	<rect x="-696" y="-9.5" class="st5" width="157" height="128"/>
	<g id="nNQXZA.tif" class="st4">
		<g>
			<path class="st6" d="M-605.8-7.3c-0.1,0.1-0.2,0.2-0.2,0.3c-0.3,0.3-0.5,0.6-0.6,0.9l0,0.1c0,0,0-0.1,0-0.1
				c-0.2,0.1-0.3,0.3-0.4,0.6c0,0,0,0,0,0c-0.3,0.3-0.5,0.6-0.6,0.9c0,0,0,0,0,0c-0.6,0.7-1,1.5-1.3,2.3l0,0.1c0,0,0-0.1,0-0.1
				c-0.3,0.3-0.5,0.6-0.6,1c0,0,0,0,0,0c-0.4,0.4-0.6,0.8-0.8,1.3c-0.1,0.1-0.1,0.2-0.2,0.3c-0.3,0.3-0.5,0.6-0.6,1
				c-0.2,0.2-0.3,0.4-0.4,0.7c-0.4,0.4-0.6,0.9-0.7,1.4c-0.1,0.1-0.1,0.3-0.2,0.4c-0.2,0.1-0.2,0.2-0.2,0.4
				c-0.2,0.2-0.3,0.4-0.4,0.7c-1.2,2-2.2,4-3,6.1c0,0.1-0.1,0.2-0.1,0.2c-0.1,0.2-0.3,0.4-0.4,0.6c-3,6.4-5.6,13-7.7,19.8
				c-2.7,8.8-4.8,17.8-5.5,27c-0.1,1.6-0.1,1.6,1.4,1.6c6,0,12,0,17.9,0.1c2.8,0,5.7,0.1,8.5,0.5c1.4,0.2,1.5,0.3,1.2,1.3
				c-2.3,8.2-3.5,16.6-3.9,25.1c0,0.8,0.2,1,1,0.9c5.4-0.7,10.7-1.7,16-3.1c7.4-2,14.5-4.8,21.2-8.4c0.6-0.3,0.9-0.3,1.2,0.4
				c0.5,1.2,1.2,2.3,1.8,3.4c1,1.8,1,1.8-0.9,2.8c-2.7,1.4-5.6,2.6-8.4,3.9c-0.1,0-0.1,0-0.2,0c-10,4-20.3,6.7-31.1,7.8
				c-0.5,0.1-0.7,0.3-0.6,0.8c0.2,2,0.2,4.1,0.4,6.1c0.6,5.8,1.6,11.6,3.1,17.2c1.6,6.5,3.9,12.8,6.9,18.8c0.1,0.3,0.4,0.5,0.3,0.8
				c-1.3,1.2-2.8,2.4-4.5,3.1c-1.2,0.6-1.6,0.4-2.2-0.8c-3.6-6.9-6.3-14.1-8.3-21.6c-0.1-0.2-0.2-0.5-0.2-0.7c0,0,0-0.1,0-0.1
				c-1.8-7.4-2.9-14.9-3.2-22.5c0-0.2,0-0.5-0.4-0.5c-4-0.1-8.1,0.1-12.1-0.2c-2.3-0.2-4.6-0.4-6.9-0.6c-2.2-0.2-4.3-0.5-6.4-0.8
				c-2.8-0.4-5.6-1-8.3-1.6c-3.8-0.9-7.6-1.9-11.4-3c-5.1-1.5-10-3.4-14.9-5.4c-0.6-0.3-1.3-0.6-2-0.9c-0.4-0.2-0.6-0.4-0.3-0.8
				c0.8-1.5,1.6-3.1,2.4-4.7c0.3-0.6,0.6-0.8,1.3-0.5c7.7,3.6,15.8,6.2,24.2,8.1c7.5,1.8,15,2.9,22.6,3.3c3.7,0.2,7.4,0.3,11.1,0.2
				c0.8,0,1-0.3,1-1.1c0.1-6.1,0.8-12.2,2.1-18.2c0.2-0.8,0-1-0.8-1c-6.5,0.3-13,0.3-19.4,0.2c-2,0-4-0.1-5.9-0.4
				c-0.7-0.1-1.1-0.4-1-1.2c0.2-1.8,0.2-3.5,0.3-5.3c0.3-2.3,0.5-4.6,0.8-6.8c0.3-2.5,0.8-5,1.1-7.5c0-0.1,0-0.2,0.1-0.4
				c0.2-0.2,0.1-0.4,0.1-0.6c0.5-2.1,0.9-4.3,1.5-6.4c0.8-3.1,1.7-6.2,2.5-9.3c0.6-1.7,1.2-3.5,1.8-5.2c1.6-4.7,3.5-9.2,5.5-13.8
				c0.1-0.1,0.1-0.3,0.2-0.4c0.1-0.1,0.1-0.3,0.2-0.4c0.1-0.1,0.1-0.3,0.2-0.4c0.2-0.1,0.2-0.2,0.2-0.4c3.3-6.9,6.9-13.7,10.9-20.2
				c2.8-4.4,5.7-8.8,8.9-13c1.9-2.5,3.8-5,5.9-7.4c0.2-0.2,0.4-0.5,0.7-0.7c1.3,1.5,2.6,2.9,4,4.3c0.4,0.4,0.1,0.7-0.1,1
				c-0.2,0.1-0.4,0.3-0.4,0.5c-0.1,0.1-0.1,0.1-0.2,0.2c-0.3,0.2-0.5,0.4-0.6,0.7c-0.1,0.1-0.1,0.1-0.2,0.2
				c-0.2,0.1-0.4,0.3-0.4,0.5c-0.1,0.1-0.2,0.3-0.3,0.4c-0.2,0.1-0.4,0.3-0.4,0.5c-0.1,0.1-0.1,0.1-0.2,0.2
				c-0.2,0.1-0.4,0.3-0.4,0.5c-0.1,0.1-0.2,0.3-0.3,0.4c-0.2,0.1-0.3,0.3-0.4,0.5c-0.1,0.1-0.1,0.1-0.2,0.2
				c-0.2,0.1-0.4,0.3-0.4,0.5c-0.1,0.1-0.1,0.1-0.2,0.2c-0.2,0.1-0.3,0.3-0.4,0.5c-0.4,0.5-0.8,1-1.1,1.5c-0.2,0.1-0.3,0.3-0.4,0.6
				c-0.2,0.2-0.4,0.5-0.5,0.8c-0.2,0.1-0.3,0.3-0.4,0.6c-0.2,0.2-0.4,0.5-0.5,0.8c-0.2,0.1-0.3,0.3-0.4,0.6c-1.1,1.4-2.1,2.9-3,4.5
				c-0.2,0.1-0.3,0.3-0.4,0.6c-0.2,0.2-0.3,0.4-0.4,0.6c0,0,0,0,0,0c-0.2,0.1-0.3,0.3-0.4,0.6c0,0,0,0,0,0
				C-605.4-8.1-605.6-7.8-605.8-7.3z"/>
			<path class="st2" d="M-622.9,10.6c-0.1,0.1-0.1,0.3-0.2,0.4c-0.3,0-0.6,0.1-0.2,0.4c-0.1,0.1-0.1,0.3-0.2,0.4
				c-0.7,0.1-0.8,0.7-1.1,1.2c-0.6,0.9-1,2-2.5,1.9c-0.6,0-1.2-0.1-1.8-0.1c-2.1,0-4.3,0-6.4,0c-2.5,0-5,0-7.6,0c-2.5,0-5.1,0-7.6,0
				c0-0.8-0.4-1.2-1.2-1.1c-2,0-3.9,0-5.9,0c-0.8,0-1.3,0.2-1.3,1.1c-1.2,0-2.5-0.1-3.7,0c-2.3,0.2-4.6-0.1-6.9,0
				c-2.3,0.1-4.5-0.1-6.8,0.1c-0.8,0.1-1.6-0.4-2.4-0.1c-0.6,0.2-1.3,0.3-1.9,0c-1-0.4-2-0.1-3-0.1c-1.7,0-3.5,0.3-5.2,0.2
				c-2.4-0.1-4.7-0.1-7.1-0.1c-0.5,0-1,0-1.5-0.2c0-7.3,0-14.7,0-22c0-0.5,0-0.9,0-1.4c0-1.1,0.7-1.1,1.5-1.1c26.3,0,52.7,0,79,0
				c1.7,0,3.3,0,5,0c-4,6.5-7.6,13.3-10.9,20.2C-623,10.3-623.2,10.3-622.9,10.6z"/>
			<path class="st2" d="M-612.4,95.8c0.4-0.1,0.4,0.2,0.4,0.5c0.3,7.6,1.4,15.1,3.2,22.5c0,0,0,0.1,0,0.1c-10.7,0-21.3,0-32,0
				c-18.3,0-36.7,0-55,0c-1.5,0-1.5-0.1-1.5-1.5c0-5.8,0-11.7,0-17.5c1.5,0.3,3.1,0.3,4.6,0.2c0.5,0,1-0.3,1.6-0.1
				c0.9,0.3,1.9,0,2.8,0c0.8,0,1.6-0.1,2.4,0c1,0,2,0.1,2.9,0.1c0.9,0,1.8-0.3,2.6-0.1c1.8,0.5,3.6-0.3,5.4,0.1
				c0.9,0.2,1.8-0.1,2.8,0c1.8,0.2,3.7-0.3,5.5,0c1,0.2,2-0.3,3-0.1c1.1,0.3,2.3,0.2,3.4,0.2c1.2-0.1,2.4,0.3,3.5,0.1
				c2-0.3,4.1,0.1,6.1-0.1c0.5,0,1-0.1,1.5-0.1c1.4,0,2.7,0,4.1,0c1.1,0,2.3-0.3,3.4,0.1c0.3,0.1,0.6,0.1,0.8,0
				c1.1-0.5,2.4,0.6,3.5-0.3c1.7,0.4,3.4,0,5,0.2c0.4,0.1,0.9,0.3,1.3,0.2c0.9-0.4,1.8,0.1,2.8,0c1.3,0,2.5-0.3,3.8-0.1
				c1.7,0.2,3.5,0.1,5.2-0.1c0.5,0,1,0.1,1.6,0.1c1.4,0,2.8-0.2,4.3-0.2c0.5,0,0.6-0.1,0.7-0.5C-612.6,98-612.5,96.9-612.4,95.8z"/>
			<path class="st2" d="M-636.8,61.8c-0.1,1.8-0.2,3.5-0.3,5.3c-0.1,0.8,0.3,1.1,1,1.2c2,0.3,3.9,0.4,5.9,0.4
				c6.5,0.1,13,0.1,19.4-0.2c0.8,0,1,0.2,0.8,1c-1.3,6-2,12.1-2.1,18.2c0,0.8-0.2,1.1-1,1.1c-3.7,0.1-7.4,0.1-11.1-0.2
				c-7.6-0.5-15.2-1.6-22.6-3.3c-8.3-2-16.4-4.5-24.2-8.1c-0.8-0.4-1-0.1-1.3,0.5c-0.8,1.6-1.5,3.1-2.4,4.7
				c-0.3,0.5-0.1,0.7,0.3,0.8c0.7,0.3,1.3,0.6,2,0.9c0,0.5-0.4,0.9-0.8,0.8c-0.7-0.2-1.4,0.1-2.1,0.1c-2.1-0.1-4.1-0.1-6.2-0.2
				c-0.9,0-1.8,0.3-2.7,0.2c-1.1-0.1-2.3-0.1-3.4-0.2c-0.8,0-1.8,0.3-2.5,0.1c-1.8-0.4-3.6,0.6-5.4-0.3c-0.1-0.1-0.3,0-0.4,0.1
				c-0.4,0.3-0.9,0.2-1.4,0.2c0-5.7,0-11.3,0-17c1.3,0.1,2.5,0.2,3.8,0.2c2,0,4.1-0.1,6.1-0.1c1.1,0,2.2,0.1,3.4,0.2
				c0.5,0,1-0.1,1.5-0.1c1.5,0.1,2.9,0,4.4,0c0.3,0,0.6-0.2,0.9-0.1c1.4,0.4,2.9,0,4.3,0.1c2.1,0.1,4.3,0.1,6.4,0
				c1.1,0,2.3-0.1,3.4-0.1c1.4,0.1,2.8-0.1,4.2-0.1c0.5,0,1.1,0.3,1.7,0.1c1.9-0.5,3.8,0.1,5.8-0.1c1.9-0.2,3.9,0.3,5.9-0.1
				c0.1,0,0.3,0,0.4,0c1.8,0.3,3.6-0.1,5.4,0.2c0.4,0.1,0.9-0.1,1.4-0.2c0.3-0.1,0.5-0.3,0.6-0.6c0.1-1.4,0.8-2.8,0.7-4.2
				C-637.3,62.8-637.3,62.2-636.8,61.8z"/>
			<path class="st2" d="M-650.5,14.8c2.5,0,5.1,0,7.6,0c2.5,0,5,0,7.6,0c2.1,0,4.3,0,6.4,0c0.6,0,1.2,0.1,1.8,0.1
				c1.5,0.1,1.9-1,2.5-1.9c0.3-0.5,0.4-1.1,1.1-1.2c-1.9,4.6-3.9,9.1-5.5,13.8c-0.6,1.7-1.2,3.5-1.8,5.2c-0.2,0-0.3,0.1-0.4,0.3
				c-0.3,0.8-0.6,1.6-1,2.4c-0.5,1.2-0.8,1.4-2.2,1.5c-0.5,0-1-0.3-1.5-0.2c-1.5,0.4-3.1-0.1-4.7,0.1c-1.5,0.2-3.1-0.1-4.7,0
				c-0.7,0-1.4,0.1-2.1,0c-1-0.1-2.1-0.3-3-0.1c-1.9,0.3-3.7,0.2-5.5,0c-1.5-0.1-3,0-4.5,0c-1.7,0-3.4,0.1-5.1,0.1
				c-1.6,0-3.1-0.1-4.6,0c-2.6,0.2-5.1-0.3-7.6,0.2c-1.2-0.7-2.4-0.1-3.6-0.1c-2.3,0-4.6-0.3-6.9,0c-0.5,0-1,0.2-1.6,0
				c-1.3-0.3-2.7-0.1-4.1-0.2c-1.2,0-2.3,0.1-3.5-0.1c0-6.7,0-13.5,0-20.2c0.5,0.2,1,0.2,1.5,0.2c2.4,0,4.7,0,7.1,0.1
				c1.7,0.1,3.5-0.2,5.2-0.2c1,0,2-0.3,3,0.1c0.6,0.3,1.3,0.2,1.9,0c0.8-0.3,1.6,0.1,2.4,0.1c2.2-0.1,4.5,0,6.8-0.1
				c2.3-0.1,4.6,0.2,6.9,0c1.2-0.1,2.5,0,3.7,0c0,0.3,0,0.7,0,1c0,5.3,0,10.6,0,15.9c0,1.3,0.1,1.4,1.5,1.4c1.8,0,3.5,0,5.3,0
				c1.5,0,1.6,0,1.6-1.5C-650.5,26-650.5,20.4-650.5,14.8z"/>
			<path class="st2" d="M-697.3,34.8c1.2,0.2,2.3,0,3.5,0.1c1.4,0,2.7-0.1,4.1,0.2c0.6,0.1,1.1,0,1.6,0c2.3-0.2,4.6,0.1,6.9,0
				c1.2,0,2.4-0.6,3.6,0.1c2.5-0.5,5.1,0,7.6-0.2c1.5-0.1,3.1,0,4.6,0c1.7,0,3.4-0.1,5.1-0.1c1.5,0,3-0.1,4.5,0
				c1.8,0.1,3.7,0.2,5.5,0c1-0.1,2,0,3,0.1c0.7,0.1,1.4,0,2.1,0c1.6-0.1,3.2,0.2,4.7,0c1.6-0.2,3.1,0.3,4.7-0.1
				c0.5-0.1,1,0.2,1.5,0.2c1.3,0,1.7-0.2,2.2-1.5c0.3-0.8,0.7-1.6,1-2.4c0.1-0.2,0.2-0.3,0.4-0.3c-0.8,3.1-1.7,6.2-2.5,9.3
				c-0.5,2.1-1,4.3-1.5,6.4c-0.4,0.1-0.5,0.3-0.1,0.6c0,0.1,0,0.2-0.1,0.4c-0.6,0.2-0.4,0.7-0.5,1.1c-0.2,0.8-0.5,1.6-0.8,2.4
				c-0.3,0.6-0.7,0.8-1.4,0.9c-1.2,0.1-2.5-0.1-3.7-0.1c-1.7,0-3.4,0-5.2-0.1c-2.1-0.1-4.2,0.1-6.3,0.1c-2.2,0-4.4-0.1-6.7-0.2
				c-2.4-0.1-4.7,0.1-7.1,0c-10.2-0.1-20.5,0-30.7,0C-697.3,46-697.3,40.4-697.3,34.8z"/>
			<path class="st2" d="M-697.3,51.6c10.2,0,20.5,0,30.7,0c2.4,0,4.7-0.2,7.1,0c2.2,0.1,4.4,0.2,6.7,0.2c2.1,0,4.2-0.2,6.3-0.1
				c1.7,0.1,3.5,0.1,5.2,0.1c1.3,0,2.5,0.2,3.7,0.1c0.7,0,1.1-0.2,1.4-0.9c0.3-0.8,0.6-1.6,0.8-2.4c0.1-0.4,0-0.9,0.5-1.1
				c-0.4,2.5-0.8,5-1.1,7.5c-0.3,2.3-0.5,4.5-0.8,6.8c-0.5,0.3-0.5,1-0.5,1.4c0.2,1.5-0.5,2.8-0.7,4.2c0,0.3-0.3,0.5-0.6,0.6
				c-0.5,0.1-0.9,0.3-1.4,0.2c-1.8-0.2-3.6,0.1-5.4-0.2c-0.1,0-0.3,0-0.4,0c-2,0.4-4-0.1-5.9,0.1c-1.9,0.2-3.9-0.4-5.8,0.1
				c-0.5,0.1-1.1-0.1-1.7-0.1c-1.4,0-2.8,0.2-4.2,0.1c-1.1-0.1-2.3,0-3.4,0.1c-2.1,0-4.3,0.1-6.4,0c-1.4-0.1-2.9,0.3-4.3-0.1
				c-0.3-0.1-0.6,0.1-0.9,0.1c-1.5,0-2.9,0.1-4.4,0c-0.5,0-1,0.1-1.5,0.1c-1.1,0-2.3-0.2-3.4-0.2c-2,0-4.1,0.2-6.1,0.1
				c-1.3,0-2.5-0.1-3.8-0.2C-697.3,62.6-697.3,57.1-697.3,51.6z"/>
			<path class="st2" d="M-697.3,85c0.5,0,0.9,0,1.4-0.2c0.1-0.1,0.3-0.2,0.4-0.1c1.7,0.9,3.6-0.2,5.4,0.3c0.7,0.2,1.7-0.1,2.5-0.1
				c1.1,0,2.3,0.1,3.4,0.2c0.9,0.1,1.8-0.2,2.7-0.2c2.1,0.1,4.1,0.1,6.2,0.2c0.7,0,1.4-0.3,2.1-0.1c0.4,0.1,0.8-0.3,0.8-0.8
				c4.9,2,9.8,3.9,14.9,5.4c3.8,1.1,7.6,2.1,11.4,3c2.7,0.7,5.5,1.2,8.3,1.6c2.1,0.3,4.3,0.6,6.4,0.8c2.3,0.2,4.6,0.4,6.9,0.6
				c4,0.3,8.1,0.1,12.1,0.2c-0.1,1.1-0.2,2.2-0.4,3.3c0,0.4-0.2,0.5-0.7,0.5c-1.4-0.1-2.8,0.2-4.3,0.2c-0.5,0-1-0.1-1.6-0.1
				c-1.7,0.2-3.5,0.3-5.2,0.1c-1.3-0.2-2.6,0.1-3.8,0.1c-0.9,0-1.8-0.4-2.8,0c-0.4,0.2-0.9-0.1-1.3-0.2c-1.7-0.2-3.4,0.3-5-0.2
				c-1.1,0.9-2.4-0.2-3.5,0.3c-0.2,0.1-0.6,0.1-0.8,0c-1.1-0.4-2.3-0.1-3.4-0.1c-1.4,0-2.7,0-4.1,0c-0.5,0-1,0.1-1.5,0.1
				c-2,0.2-4-0.2-6.1,0.1c-1.1,0.2-2.3-0.2-3.5-0.1c-1.2,0.1-2.3,0.1-3.4-0.2c-1-0.2-2,0.3-3,0.1c-1.8-0.3-3.7,0.2-5.5,0
				c-1-0.1-2,0.2-2.8,0c-1.8-0.4-3.6,0.4-5.4-0.1c-0.8-0.2-1.7,0.1-2.6,0.1c-1,0-2,0-2.9-0.1c-0.8,0-1.6,0-2.4,0
				c-0.9,0-1.9,0.3-2.8,0c-0.6-0.2-1,0.1-1.6,0.1c-1.6,0.1-3.1,0.1-4.6-0.2C-697.3,94.9-697.3,89.9-697.3,85z"/>
			<path d="M-583.6,26.3c0,1.9-0.1,3.7,0,5.6c0,0.9-0.3,1.3-1.2,1.2c-2,0-4,0-5.9,0c-0.9,0-1.2-0.4-1.2-1.2c0-1.9,0-3.7,0-5.6
				c0-3.7,0-7.4,0-11.1c0-1.5,0-1.5,1.6-1.5c1.7,0,3.5,0,5.2,0c1.5,0,1.6,0,1.6,1.5C-583.7,18.9-583.7,22.6-583.6,26.3z"/>
			<path class="st7" d="M-634.8,47.1c-0.3-0.3-0.3-0.5,0.1-0.6C-634.7,46.7-634.6,46.9-634.8,47.1z"/>
			<path class="st8" d="M-623.3,11.4c-0.4-0.3-0.1-0.4,0.2-0.4C-623.2,11.2-623.2,11.3-623.3,11.4z"/>
			<path class="st8" d="M-622.9,10.6c-0.3-0.3-0.1-0.3,0.2-0.4C-622.8,10.4-622.8,10.6-622.9,10.6z"/>
			<path d="M-650.5,14.8c0,5.6,0,11.2,0,16.8c0,1.5,0,1.5-1.6,1.5c-1.8,0-3.5,0-5.3,0c-1.4,0-1.5-0.1-1.5-1.4c0-5.3,0-10.6,0-15.9
				c0-0.3,0-0.7,0-1c-0.1-0.9,0.4-1.2,1.3-1.1c2,0,3.9,0,5.9,0C-650.9,13.6-650.5,14-650.5,14.8z"/>
		</g>
	</g>
</g>
<g id="Layer_2" class="st3">
	<g class="st4">
		<path class="st2" d="M-642.1-4c3.3,0,6.3,0,9.7,0c0,40.3,0,80.4,0,120.8c-3.1,0-6.1,0-9.7,0C-642.1,76.6-642.1,36.4-642.1-4z"/>
		<path class="st2" d="M-683.4-4c3.5,0,6.8,0,10.5,0c0,40.3,0,80.4,0,120.8c-3.3,0-6.6,0-10.5,0C-683.4,76.6-683.4,36.4-683.4-4z"/>
		<path class="st2" d="M-574.3,116.8c-7.5,0-13.6,0-20.5,0c0-40.3,0-80.3,0-120.7c6.8,0,13.2,0,20.5,0
			C-574.3,36.3-574.3,76.4-574.3,116.8z"/>
		<path class="st2" d="M-556.4-4.1c1.5,0,2.7,0,4.1,0c0,40.3,0,80.5,0,120.9c-1.4,0-2.6,0-4.1,0C-556.4,76.6-556.4,36.4-556.4-4.1z"
			/>
		<path class="st2" d="M-643.7,116.9c-2.9,0-5.2,0-8.1,0c0-40.3,0-80.4,0-120.8c2.5,0,5,0,8.1,0C-643.7,36.2-643.7,76.4-643.7,116.9
			z"/>
		<path class="st2" d="M-601.1,116.8c-3.3,0-6.2,0-9.6,0c0-40.3,0-80.3,0-120.8c3.1-0.1,6-0.2,9.6-0.3
			C-601.1,36.1-601.1,76.3-601.1,116.8z"/>
		<path class="st2" d="M-557.8-3.8c0,40.3,0,80.3,0,120.4c-5.7,1-8.9,0.6-8.6-2c0.1-1.1,0-2.2,0-3.3c0-37.2,0-74.3,0.1-111.5
			C-566.4-2-568.9-5-557.8-3.8z"/>
		<path class="st2" d="M-572.4,116.7c0-40.3,0-80.3,0-120.4c1.9-1,3-0.6,2.9,2c0,1.2,0,2.4,0,3.7c0,37,0,74,0,111
			C-569.5,114.9-568.7,117.8-572.4,116.7z"/>
		<path class="st2" d="M-622.6,117.5c-2.3-0.9-4.8-1.7-6.7-2.7c-0.8-0.4-0.2-1.1-0.2-1.6c0-37.8,0-75.7,0-113.5
			c0-2-2.1-4.6,10.9-3.6c0,40.2,0,80.3,0,120.4C-619.8,116.9-621.2,117.2-622.6,117.5z"/>
		<path class="st2" d="M-666.3,56.8c0-18.7,0-37.4,0-56.2c0-1.1-0.1-2.2,0.1-3.2c0.1-0.6,1-1.5,1.3-1.4c0.6,0.2,1.3,0.9,1.5,1.6
			c0.3,0.8,0.1,1.9,0.1,2.8c0,37.4,0,74.9,0,112.3c0,0.9,0.1,2-0.1,2.8c-0.2,0.6-1,1.5-1.3,1.4c-0.6-0.2-1.3-0.9-1.6-1.6
			c-0.3-0.8-0.1-1.9-0.1-2.8C-666.3,93.9-666.3,75.4-666.3,56.8z"/>
		<path class="st2" d="M-654.2,56.3c0,18.6,0,37.2,0,55.7c0,0.8,0.4,1.7-0.1,2.4c-0.7,0.9-2.2,1.7-3.4,2.5c-1-0.8-2.4-1.5-3-2.3
			c-0.5-0.7-0.1-1.6-0.1-2.4c0-37.2,0-74.3,0-111.5c0-0.8-0.4-1.7,0.1-2.4c0.7-0.9,2.2-1.7,3.4-2.5c1,0.9,2.4,1.7,3,2.7
			c0.5,0.9,0.1,1.9,0.1,2.8C-654.2,19.7-654.2,38-654.2,56.3z"/>
		<path class="st2" d="M-542.4-3.7c0,40.3,0,80.6,0,121c-2.6,0-5.2,0-7.8,0c0-40.3,0-80.6,0-120.9C-547.6-3.7-545-3.7-542.4-3.7z"/>
		<path class="st2" d="M-697,117.3c0-40.3,0-80.5,0-120.8c1.5,0,3,0,4.5,0c0,40.2,0,80.5,0,120.7C-694,117.2-695.5,117.2-697,117.3z
			"/>
	</g>
</g>
<g id="Layer_3" class="st3">
	<g id="j4xOiC_1_" class="st4">
		<g>
			<path class="st1" d="M-621.4-13c4.9,0.2,10.8-1.3,11.7,6.5c4.6,0,9,0,13.4,0c10.8,0.1,18.5,7.7,18.6,18.4
				c0.1,7.2,0.1,14.3,0,21.5c0,1.4-0.4,3.2-1.3,4.2c-3.6,4.1-7.4,8-11.9,12.8c-0.2-2.4-0.3-3.5-0.3-4.6c0-10.8,0-21.6,0-32.5
				c0-4.8-1.2-6-6-6c-4,0-8,0-12.6,0c0,2.3,0.1,4.4,0,6.4c-0.2,3.5-2,5.6-5.6,5.7c-13.8,0.1-27.6,0.1-41.5,0c-3.6,0-5.5-2-5.7-5.6
				c-0.1-2.1,0-4.1,0-6.4c-5.2,0-9.9-0.1-14.5,0c-3.5,0.1-4,2.6-4,5.5c0,16.7,0,33.4,0,50.1c0,16,0,32.1,0,48.1c0,5.1,0.9,5.9,5.9,6
				c5.3,0.1,10.6,0,17.1,0c-4.9,4.9-8.7,10-13.7,13.1c-2.6,1.6-7.6,0.6-11.2-0.5c-7.7-2.3-12.1-9.3-12.1-17.7c0-31.2,0-62.3,0-93.5
				c0-2.1,0-4.2,0-6.3c0.1-10.9,8-18.7,18.8-18.8c4.3,0,8.6,0,13.4,0c0.6-7.5,6.4-6.4,11.7-6.5c-0.6-6,0.4-11.5,5.2-14.9
				c2.9-2.1,6.8-3.6,10.4-3.7C-626.8-31.7-621.3-24.3-621.4-13z M-636.7-13c2.8,0.3,5.4,0.3,5.4-3.6c0-2.9-2.4-5.1-5.3-5.1
				c-2.9,0-5.3,2.4-5.2,5.2C-641.6-13.1-639.4-12.6-636.7-13z"/>
			<path class="st1" d="M-610.9,130.1c-7-7.2-14.6-14.9-22.1-22.4c15.7-15.5,31.6-31.4,47.5-47.1c7.1,7.2,14.6,14.9,22,22.4
				C-579,98.4-595,114.3-610.9,130.1z M-590.8,83c-0.7-0.9-1.4-2.4-1.9-2.3c-1.4,0.1-3.1,0.4-4,1.3c-7.8,7.6-15.5,15.4-23.2,23.1
				c-1.5,1.5-3,3.3-0.7,4.8c0.9,0.6,3.6,0.1,4.5-0.8c7.9-7.7,15.7-15.5,23.5-23.4C-592.1,85-591.6,84.1-590.8,83z M-583,68
				c-2,2.4-3.6,4-4.6,5.9c-0.2,0.3,1.8,1.9,2.8,2.9c1.5-1.6,3.2-3,4.4-4.8C-580.2,71.5-581.7,69.9-583,68z"/>
			<path class="st1" d="M-636.7,47.4c-9.2,0-18.5,0-27.7,0c-5.2,0-8.1-2.6-8-7c0.1-4.3,2.8-6.8,7.7-6.9c18.9-0.1,37.8-0.1,56.6,0
				c4.9,0,7.7,2.7,7.6,7c-0.1,4.4-2.7,6.8-7.7,6.9C-617.7,47.4-627.2,47.4-636.7,47.4z"/>
			<path class="st1" d="M-636.3,55.2c8.9,0,17.7,0,26.6,0c1.7,0,3.4,0.1,5,0.7c3.8,1.4,3.8,3.1,1.4,6.2c-4.5,5.9-10,7.4-17.2,7.1
				c-14.6-0.5-29.2-0.1-43.8-0.2c-5.8,0-9-3.6-8-8.5c0.8-3.6,3.1-5.4,7.5-5.4C-655.3,55.1-645.8,55.2-636.3,55.2
				C-636.3,55.2-636.3,55.2-636.3,55.2z"/>
			<path class="st1" d="M-618.9,78c-3.9,3.8-7.8,7.6-11.8,11.3c-0.8,0.7-2,1.2-3.1,1.2c-10.8,0.1-21.6,0.1-32.5,0
				c-3.7-0.1-6.1-3-6.1-6.7c0-3.7,2.4-6.7,6.2-6.7C-650.7,77-635,77-619.4,77C-619.3,77.4-619.1,77.7-618.9,78z"/>
			<path class="st1" d="M-637,111.3c7.8,7.7,15.3,15.1,23.1,22.7c-10.3,2.8-20.5,5.5-31.4,8.4C-642.4,131.6-639.7,121.5-637,111.3z
				 M-634.5,120.2c-0.8,3.2-1.7,6-2.3,8.9c-0.5,2.4,2.3,5.5,4.8,4.9c2.9-0.7,5.8-1.6,8.8-2.5C-627.1,127.7-630.6,124.1-634.5,120.2z
				"/>
			<path class="st1" d="M-573.2,46.6c1.8-1.7,4.2-4,6.6-6.2c2.2-2,4.5-1.9,6.6,0.1c5.6,5.6,11.3,11.2,16.8,16.8
				c2.1,2.1,1.8,4.5-0.2,6.6c-2.1,2.3-4.4,4.4-6.4,6.4C-557.5,62.6-565.1,54.8-573.2,46.6z M-550.6,64.2c1.2-1,2.5-2.1,3.4-2.9
				c-5.7-5.8-10.9-11.2-15.9-16.3c-1.3,1-2.6,2-3.8,2.8C-561.3,53.5-556,58.8-550.6,64.2z"/>
			<path class="st1" d="M-554.5,75.1c-0.8,0.7-2.3,2.2-3.8,3.7c-7.7-7.8-15.2-15.5-22.9-23.4c1.1-0.8,2.9-2.1,4.2-3.1
				C-570.1,59.4-562.4,67.1-554.5,75.1z"/>
		</g>
	</g>
</g>
<g id="Layer_4" class="st3">
	<g id="ZqeqZc_1_" class="st4">
		<g>
			<path class="st1" d="M-698,65.8c0-4.5,0-9,0-13.4c3.1-8.1,10.4-4.9,16.3-5.9c0.7-2.7,1.4-5.4,2.1-8.3c-2.3-1.3-4.5-2.6-6.7-3.9
				c-4.7-2.8-5.8-6.6-3.1-11.3c1.3-2.4,2.7-4.7,4-7c2.7-4.7,6.6-5.8,11.3-3.2c2.3,1.3,4.6,2.6,6.7,3.7c2.3-2.2,4.4-4.1,6.5-5.9
				c-1.6-2.8-3.1-5.3-4.4-7.9c-1.9-3.8-0.8-7.6,2.8-9.8c2.9-1.8,5.8-3.6,8.9-5.1c3.9-2,7.7-0.8,10,3c1.2,1.9,2.1,3.9,3.4,5.8
				c0.5,0.7,1.7,1.4,2.4,1.2c2.3-0.4,4.5-1.2,7-1.9c0-2.3,0.2-4.5,0-6.7c-0.4-4.6,1.5-7.7,5.7-9.4c4.7,0,9.4,0,14.1,0
				c7,3.7,4.4,10.5,5.1,16.1c8.2,2.6,8.2,2.6,12.2-4.2c0.2-0.3,0.3-0.6,0.5-0.9c2.5-3.8,6.4-4.9,10.4-2.7c2.6,1.4,5.1,2.9,7.6,4.4
				c4.5,2.6,5.6,6.5,3.3,11c-1.3,2.5-2.7,4.8-3.5,6.3c2.1,2.7,3.9,4.9,5.4,6.9c6-2,11.4-9.8,17.6-1.6c2.9,3.8,5.6,8.6,6,13.1
				c0.5,6.5-7.3,6.9-10.9,10.5c0.8,2.8,1.5,5.4,2.2,8.2c2.3,0,4.5,0.2,6.7,0c4.6-0.4,7.7,1.4,9.4,5.7c0,4.5,0,9,0,13.4
				c-1.6,3.6-4.1,5.8-8.4,5.7c-7.9-0.1-7.9,0-9.9,7.6c-0.1,0.2,0,0.5,0.1,1c2,1.1,4.1,2.4,6.2,3.6c4.9,2.9,6,6.6,3.3,11.5
				c-1.4,2.5-2.7,4.9-4.2,7.4c-2.5,4.3-6.4,5.4-10.8,3c-2.5-1.3-4.9-2.7-7-3.9c-2.4,2.2-4.4,4.1-6.5,6c1.5,2.7,3,5,4.3,7.5
				c2,3.9,1.1,7.7-2.4,9.9c-3,1.9-6,3.7-9.2,5.3c-3.8,1.9-7.5,0.9-9.8-2.7c-1.3-2-2.3-4.1-3.6-6c-0.5-0.7-1.7-1.4-2.4-1.2
				c-2.3,0.4-4.5,1.2-7,1.9c0,2.2-0.2,4.3,0,6.4c0.4,4.7-1.3,8-5.7,9.8c-4.5,0-9,0-13.4,0c-8.1-3.1-5-10.3-5.8-16.1
				c-7.9-2.9-7.9-2.9-12.1,4c-0.2,0.4-0.5,0.8-0.7,1.2c-2.4,3.7-6.2,4.7-10.1,2.7c-2.9-1.5-5.8-3.2-8.5-5c-3.9-2.5-4.8-6.2-2.7-10.3
				c1.3-2.5,2.7-4.9,3.9-6.9c-2.1-2.4-4-4.5-6-6.6c-2.7,1.5-5.1,3-7.6,4.3c-3.9,2-7.7,0.9-10.1-2.8c-1.8-2.8-3.4-5.6-5-8.5
				c-2.1-4-1-7.9,3-10.3c1.9-1.2,3.9-2.1,5.8-3.4c0.7-0.5,1.3-1.7,1.1-2.4c-0.4-2.3-1.2-4.5-1.9-6.9c-2.3,0-4.5-0.1-6.7,0
				C-693.2,71.9-696.3,70-698,65.8z M-618.6,19.5c-21.6,0-39.6,18-39.6,39.6c0,22,18,39.7,40.2,39.6c20.9,0,39-18.1,39-39
				C-578.9,37.4-596.6,19.5-618.6,19.5z"/>
			<path class="st1" d="M-618.4,42.4c9.6,0.1,16.6,7.4,16.5,17.3c-0.1,8.9-7.6,16.2-16.7,16.1c-9.7-0.1-16.8-7.3-16.7-17.1
				C-635.1,49.5-627.6,42.3-618.4,42.4z"/>
		</g>
	</g>
</g>
<g id="Layer_6" class="st3">
	<g id="MTwtnQ_1_" class="st4">
		<g>
			<path class="st2" d="M-599.5,83.5c-31.9,23.1-68.8,11.9-86.3-11.2c-18.3-24.2-15.7-58.5,6.3-79.8c22-21.3,56.5-22.8,80.7-3.3
				c22.6,18.1,31.8,53.8,9.4,84.2c1,1.1,2,2.2,3,3.3c1.3,1.5,2.5,2.1,4.6,1.3c3.9-1.3,7.6-0.4,10.6,2.5c9.8,9.6,19.6,19.1,29.1,28.9
				c4.2,4.3,4,10.7,0,15.2c-1.7,2-3.6,3.8-5.5,5.6c-4.9,4.4-11.5,4.4-16.2-0.1c-9.3-9-18.4-18.3-27.6-27.4
				c-3.6-3.6-5.1-7.6-3.4-12.6c0.2-0.8-0.2-2-0.8-2.7C-596.6,86-598.1,84.8-599.5,83.5z M-637.5,85.2c27.3,0,49.8-22.2,49.8-49.3
				c0-27.1-22.3-49.4-49.6-49.5c-27.3-0.1-50,22.5-49.9,49.7C-686.9,63-664.5,85.2-637.5,85.2z"/>
			<path class="st2" d="M-621.2,65.8c-14,9.1-32.6,6.6-43.3-4.8c-11.1-11.9-11.4-29.8-4.4-39.3c0.3,12.9,4.8,23.6,13.9,32.2
				C-645.8,62.6-634.6,66.2-621.2,65.8z"/>
		</g>
	</g>
</g>
</svg>
