<?xml version="1.0" encoding="utf-8"?>
<!-- Generator: Adobe Illustrator 24.1.2, SVG Export Plug-In . SVG Version: 6.00 Build 0)  -->
<svg version="1.1" id="Layer_1" xmlns="http://www.w3.org/2000/svg" xmlns:xlink="http://www.w3.org/1999/xlink" x="0px" y="0px"
	 viewBox="0 0 225 186.4" style="enable-background:new 0 0 225 186.4;" xml:space="preserve">
<style type="text/css">
	.st0{display:none;}
	.st1{display:inline;}
	.st2{opacity:8.000000e-02;}
	.st3{fill:#7E7E7E;}
	.st4{fill:#698A7E;}
	.st5{opacity:8.000000e-02;fill:#698A7E;enable-background:new    ;}
	.st6{fill:#6A8A80;}
	.st7{fill:none;}
	.st8{fill:#FFFFFF;}
	.st9{fill:#9D9E9E;}
	.st10{fill:#73B256;}
	.st11{fill:#234192;}
</style>
<g id="Layer_1_2_" class="st0">
	<g id="Layer_1_1_" class="st1">
		<g id="VNr6mR_1_" class="st2">
			<g>
				<path class="st3" d="M188.1,96.8c-0.7,5-1.4,10-2.2,15c-2.1,12.6-9.7,21.5-19.2,29.2c-6.8,5.5-13.5,11.1-20.3,16.6
					c-1.8,1.4-2.7,2.6-2.3,5.2c1.3,8.7-0.6,16.3-7.4,22.6c-4.9,4.5-9.1,9.7-13.7,14.4c-3.2,3.3-4.9,2.8-6-1.6
					c-1.6-6.9-2.9-13.8-4.4-20.7c-3.5-0.5-6.9,3.4-10.1-0.7c-4.9,8.4-9.7,16.3-14.4,24.3c-0.3-0.1-0.5-0.1-0.8-0.2
					c-0.3-3.3-0.7-6.6-1.1-10.8c-13.9,11.6-27.3,22.9-40.7,34.1c-0.1-0.1-0.2-0.2-0.4-0.3c6.7-11.4,13.4-22.8,20.4-34.8
					c-7.5,1.5-14.1,2.9-20.8,4.2c-0.1-0.2-0.3-0.4-0.4-0.6c9-7.6,18-15.1,27.9-23.3c-4.1,0-7.2,0-10.3,0c-0.1-0.3-0.1-0.5-0.2-0.8
					c6.8-3.9,13.5-7.7,19.4-11.1c0.2-3.8,0.3-6.9,0.5-10.6c-5.3-1.1-10.8-2.3-16.4-3.5c-1.8-0.4-3.7-0.7-5.5-1.3
					c-2.8-0.8-3.3-2.5-1.3-4.5c6.7-6.3,13.4-12.6,20.1-18.9c3.7-3.5,8.4-4.1,13.1-3.5c6,0.8,9.9-1.1,13.5-6.1
					c5.4-7.4,11.9-14,17.7-21.1c7.7-9.4,18-13.6,29.6-15.2c3.3-0.5,6.5-0.9,9.8-1.3c4,0,8,0,12,0c3,1.2,6.1,2.1,8.8,3.8
					c3.6,2.2,4.3,6.3,5.1,10.2C188.1,89.2,188.1,93,188.1,96.8z M115.3,170.2c18.4-14.4,37-28.1,53.6-44c1.4-1.4,2.8-3,3.6-4.7
					c5.9-11.4,6.6-23.7,5.8-36.2c-0.2-2.7-1.8-4.4-4.9-4.3c-5.7,0.2-11.5,0.1-17.2,0.6c-10.8,1-20.3,4.7-27.4,13.5
					c-12.8,16-25.8,31.8-38.7,47.7c-0.3,0.4-0.4,0.9-0.7,1.4C100.7,150.2,109.3,158.5,115.3,170.2z M70.1,179.8
					c0.1,0.1,0.2,0.3,0.3,0.4c4.1-1.5,8.3-3,12.9-4.6c-1.2,3.5-2.1,6.3-3.2,9.9c4.1-2.6,7.5-4.8,11-7.1c0.1,1,0.2,1.7,0.3,2.9
					c3.4-3.5,6.5-6.6,9.7-9.9c-2.6-4.8-6.1-8.7-10.7-11.6c-0.8-0.6-2.4-0.9-3.2-0.5c-3,1.3-5.8,3-9.1,4.8c1.8,0.8,3.2,1.3,4.9,2
					C78.5,170.8,74.3,175.3,70.1,179.8z M111.1,172.3c-5.6-10.9-13.3-18.9-24.4-24.1c-0.4,1.6-0.8,2.9-1.1,4.4
					c10.5,3.8,17.5,10.9,21.2,21.2C108.3,173.3,109.5,172.9,111.1,172.3z"/>
				<path class="st3" d="M147.8,130.9c-10.7,0-19.5-8.6-19.5-19.2s8.8-19.4,19.4-19.5c10.6-0.1,19.4,8.7,19.4,19.4
					C167.2,122.2,158.6,130.9,147.8,130.9z M133.1,111.6c0,8.4,6.6,15.1,14.8,15s14.7-6.6,14.8-14.8s-6.7-15-14.9-15
					C139.4,96.8,133.1,103.3,133.1,111.6z"/>
			</g>
		</g>
		<g id="VNr6mR_2_">
			<g>
				<path class="st4" d="M188.1,96.1c-0.7,5-1.4,10-2.2,15c-2.1,12.6-9.7,21.5-19.2,29.2c-6.8,5.5-13.5,11.1-20.3,16.6
					c-1.8,1.4-2.7,2.6-2.3,5.2c1.3,8.7-0.6,16.3-7.4,22.6c-4.9,4.5-9.1,9.7-13.7,14.4c-3.2,3.3-4.9,2.8-6-1.6
					c-1.6-6.9-2.9-13.8-4.4-20.7c-3.5-0.5-6.9,3.4-10.1-0.7c-4.9,8.4-9.7,16.3-14.4,24.3c-0.3-0.1-0.5-0.1-0.8-0.2
					c-0.3-3.3-0.7-6.6-1.1-10.8c-13.9,11.6-27.3,22.9-40.7,34.1c-0.1-0.1-0.2-0.2-0.4-0.3c6.7-11.4,13.4-22.8,20.4-34.8
					c-7.5,1.5-14.1,2.9-20.8,4.2c-0.1-0.2-0.3-0.4-0.4-0.6c9-7.6,18-15.1,27.9-23.3c-4.1,0-7.2,0-10.3,0c-0.1-0.3-0.1-0.5-0.2-0.8
					c6.8-3.9,13.5-7.7,19.4-11.1c0.2-3.8,0.3-6.9,0.5-10.6c-5.3-1.1-10.8-2.3-16.4-3.5c-1.8-0.4-3.7-0.7-5.5-1.3
					c-2.8-0.8-3.3-2.5-1.3-4.5c6.7-6.3,13.4-12.6,20.1-18.9c3.7-3.5,8.4-4.1,13.1-3.5c6,0.8,9.9-1.1,13.5-6.1
					c5.4-7.4,11.9-14,17.7-21.1c7.7-9.4,18-13.6,29.6-15.2c3.3-0.5,6.5-0.9,9.8-1.3c4,0,8,0,12,0c3,1.2,6.1,2.1,8.8,3.8
					c3.6,2.2,4.3,6.3,5.1,10.2C188.1,88.6,188.1,92.3,188.1,96.1z M115.3,169.5c18.4-14.4,37-28.1,53.6-44c1.4-1.4,2.8-3,3.6-4.7
					c5.9-11.4,6.6-23.7,5.8-36.2c-0.2-2.7-1.8-4.4-4.9-4.3c-5.7,0.2-11.5,0.1-17.2,0.6c-10.8,1-20.3,4.7-27.4,13.5
					c-12.8,16-25.8,31.8-38.7,47.7c-0.3,0.4-0.4,0.9-0.7,1.4C100.7,149.5,109.3,157.9,115.3,169.5z M70.1,179.2
					c0.1,0.1,0.2,0.3,0.3,0.4c4.1-1.5,8.3-3,12.9-4.6c-1.2,3.5-2.1,6.3-3.2,9.9c4.1-2.6,7.5-4.8,11-7.1c0.1,1,0.2,1.7,0.3,2.9
					c3.4-3.5,6.5-6.6,9.7-9.9c-2.6-4.8-6.1-8.7-10.7-11.6c-0.8-0.6-2.4-0.9-3.2-0.5c-3,1.3-5.8,3-9.1,4.8c1.8,0.8,3.2,1.3,4.9,2
					C78.5,170.2,74.3,174.7,70.1,179.2z M111.1,171.7c-5.6-10.9-13.3-18.9-24.4-24.1c-0.4,1.6-0.8,2.9-1.1,4.4
					c10.5,3.8,17.5,10.9,21.2,21.2C108.3,172.6,109.5,172.2,111.1,171.7z"/>
				<path class="st4" d="M147.8,130.2c-10.7,0-19.5-8.6-19.5-19.2s8.8-19.4,19.4-19.5c10.6-0.1,19.4,8.7,19.4,19.4
					C167.2,121.6,158.6,130.2,147.8,130.2z M133.1,110.9c0,8.4,6.6,15.1,14.8,15s14.7-6.6,14.8-14.8s-6.7-15-14.9-15
					C139.4,96.2,133.1,102.6,133.1,110.9z"/>
			</g>
		</g>
	</g>
	<g id="Layer_2_1_" class="st1">
		<g>
			<path class="st5" d="M493.2,229.2h-16v16h-16v16h16v16h16v-16h16v-16h-16V229.2z"/>
			<path class="st5" d="M717.2,117.2v-80h-40V7l21-41.9h-89.9l21,41.9v30.1h-20.5c-5.5-9.5-15.8-16-27.5-16h-128
				c-17.6,0-32,14.3-32,32h-40v-32h-120c-22.1,0-40,18-40,40v8h88v16h-88v8c0,22,17.9,40,40,40h120v-32h40c0,17.7,14.4,32,32,32h5.1
				l-26.5,84.8c-6.7,10.1-10.6,22.2-10.6,35.2c0,35.3,28.7,64,64,64c3.2,0,6.2-0.3,9.3-0.8l13,64.8h-11.2l-16,32h-19v48h256v-48h-19
				l-16-32h-13v-60.5l-119-71.2l29-116.2h1.8c11.8,0,22-6.5,27.5-16h20.5v22.1l-21,41.9h89.9l-21-41.9v-22.1
				C677.2,117.2,717.2,117.2,717.2,117.2z M238.6,53.2c3.3-9.3,12.2-16,22.6-16h104v16H238.6z M365.2,117.2h-104
				c-10.4,0-19.3-6.7-22.6-16h126.6V117.2z M381.2,85.2h-56v-16h96v16H381.2z M437.2,253.2c0-26.5,21.5-48,48-48s48,21.5,48,48
				s-21.5,48-48,48S437.2,279.6,437.2,253.2z M547.8,266.4l52.8,31.7L515,337.6l-5.1-25.5C529,304.1,543.4,287.1,547.8,266.4z
				 M616.1,307.4l27.8,16.7l-120.8,53.7l-4.8-24l98.3-45.4L616.1,307.4z M701.2,445.2h-224v-16h224V445.2z M680.2,413.2H498.1l8-16
				h166.1L680.2,413.2z M554.9,381.2l98.3-43.7v43.7H554.9z M540.8,221.6c-11-19.4-31.8-32.5-55.6-32.5c-10.8,0-21,2.7-30,7.5
				l19.8-63.5h88L540.8,221.6z M597.2,101.2c0,8.8-7.2,16-16,16h-128c-8.8,0-16-7.2-16-16v-48c0-8.8,7.2-16,16-16h128
				c8.8,0,16,7.2,16,16V101.2z M672.2-18.8l-8,16h-22.1l-8-16H672.2z M645.2,13.2h16v24h-16V13.2z M701.2,53.2v16h-88v-16
				C613.2,53.2,701.2,53.2,701.2,53.2z M613.2,85.2h88v16h-88V85.2z M634.1,165.2l8-16h22.1l8,16H634.1z M661.2,133.2h-16v-16h16
				V133.2z"/>
			<path class="st5" d="M485.2,53.2c-13.2,0-24,10.8-24,24s10.8,24,24,24s24-10.8,24-24S498.4,53.2,485.2,53.2z M485.2,85.2
				c-4.4,0-8-3.6-8-8s3.6-8,8-8s8,3.6,8,8C493.2,81.6,489.6,85.2,485.2,85.2z"/>
			<path class="st5" d="M549.2,53.2c-13.2,0-24,10.8-24,24s10.8,24,24,24s24-10.8,24-24S562.4,53.2,549.2,53.2z M549.2,85.2
				c-4.4,0-8-3.6-8-8s3.6-8,8-8s8,3.6,8,8C557.2,81.6,553.6,85.2,549.2,85.2z"/>
			<path class="st5" d="M388.6,329.3l12.9-15.5l-33-33l-15.5,13c-3.5-1.8-7.1-3.2-10.8-4.5l-1.8-20.1h-46.6l-1.8,20.1
				c-3.7,1.2-7.3,2.7-10.8,4.5l-15.5-13l-33,33l12.9,15.5c-1.8,3.5-3.2,7.1-4.5,10.8l-20.1,1.8v46.6l20.1,1.8
				c1.2,3.7,2.7,7.3,4.5,10.8l-12.9,15.5l33,33l15.5-13c3.5,1.8,7.1,3.2,10.8,4.5l1.8,20.1h46.6l1.8-20.1c3.7-1.2,7.3-2.7,10.8-4.5
				l15.5,13l33-33l-12.9-15.5c1.8-3.5,3.2-7.1,4.5-10.8l20.1-1.8v-46.6l-20.1-1.8C391.9,336.3,390.4,332.7,388.6,329.3z
				 M397.2,373.9l-16.6,1.5l-1.4,5.5c-1.5,6-3.9,11.8-7.1,17l-2.9,4.9l10.7,12.8l-12.3,12.3l-12.8-10.7l-4.9,2.9
				c-5.3,3.2-11,5.5-17,7.1l-5.5,1.4l-1.5,16.6h-17.4l-1.5-16.6l-5.5-1.4c-6-1.5-11.8-3.9-17-7.1l-4.9-2.9l-12.8,10.7l-12.3-12.3
				l10.7-12.8l-2.9-4.9c-3.2-5.3-5.5-11-7.1-17l-1.4-5.5l-16.6-1.5v-17.4l16.6-1.5l1.4-5.5c1.5-6,3.9-11.8,7.1-17l2.9-4.9
				l-10.7-12.8l12.3-12.3l12.8,10.7l4.9-2.9c5.3-3.2,11-5.5,17-7.1l5.5-1.4l1.5-16.6h17.4l1.5,16.6l5.5,1.4c6,1.5,11.8,3.9,17,7.1
				l4.9,2.9l12.8-10.7l12.3,12.3l-10.7,12.8l2.9,4.9c3.2,5.3,5.5,11,7.1,17l1.4,5.5l16.6,1.5V373.9L397.2,373.9z"/>
			<path class="st5" d="M317.2,317.2c-26.5,0-48,21.5-48,48s21.5,48,48,48s48-21.5,48-48S343.7,317.2,317.2,317.2z M317.2,397.2
				c-17.6,0-32-14.4-32-32s14.4-32,32-32s32,14.4,32,32S334.8,397.2,317.2,397.2z"/>
			<path class="st5" d="M309.2,149.2h16v16h-16V149.2z"/>
			<path class="st5" d="M309.2,181.2h16v16h-16V181.2z"/>
			<path class="st5" d="M309.2,213.2h16v16h-16V213.2z"/>
		</g>
		<path class="st6" d="M36.9,9.6v-23H25.4V-22l6-12H5.6l6,12v8.6H5.8C4.2-16.1,1.3-18-2.1-18h-36.8c-5.1,0-9.2,4.1-9.2,9.2h-11.5
			V-18h-34.5c-6.3,0-11.5,5.2-11.5,11.5v2.3h25.3v4.6h-25.3v2.3c0,6.3,5.2,11.5,11.5,11.5h34.5V5h11.5c0,5.1,4.1,9.2,9.2,9.2h1.5
			L-45,38.5c-1.9,2.9-3.1,6.4-3.1,10.1c0,10.1,8.2,18.4,18.4,18.4c0.9,0,1.8-0.1,2.7-0.2l3.7,18.6h-3.2l-4.6,9.2h-5.5v13.8h73.5
			V94.6h-5.5l-4.6-9.2h-3.7V68L-11,47.6l8.3-33.4h0.5c3.4,0,6.3-1.9,7.9-4.6h5.9V16l-6,12h25.8l-6-12V9.6L36.9,9.6L36.9,9.6z
			 M-100.6-8.8c0.9-2.7,3.5-4.6,6.5-4.6h29.9v4.6C-64.2-8.8-100.6-8.8-100.6-8.8z M-64.2,9.6h-29.9c-3,0-5.6-1.9-6.5-4.6h36.4V9.6z
			 M-59.6,0.4h-16.1v-4.6h27.6v4.6H-59.6z M-43.5,48.6c0-7.6,6.2-13.8,13.8-13.8S-16,41-16,48.6s-6.1,13.8-13.8,13.8
			C-37.4,62.4-43.5,56.3-43.5,48.6z M-11.8,52.5l15.2,9.1l-24.6,11.3l-1.5-7.3C-17.2,63.3-13,58.4-11.8,52.5z M7.8,64.2l8,4.8
			l-34.7,15.4l-1.4-6.9L8,64.5L7.8,64.2z M32.3,103.8H-32v-4.6h64.3V103.8z M26.3,94.6H-26l2.3-4.6H24L26.3,94.6z M-9.7,85.4
			l28.2-12.5v12.5H-9.7z M-13.8,39.6c-3.2-5.6-9.1-9.3-16-9.3c-3.1,0-6,0.8-8.6,2.2l5.7-18.2h25.2L-13.8,39.6z M2.4,5
			c0,2.5-2.1,4.6-4.6,4.6H-39c-2.5,0-4.6-2.1-4.6-4.6V-8.8c0-2.5,2.1-4.6,4.6-4.6h36.8c2.5,0,4.6,2.1,4.6,4.6C2.4-8.8,2.4,5,2.4,5z
			 M24-29.5l-2.3,4.6h-6.4L13-29.5H24z M16.2-20.3h4.6v6.9h-4.6V-20.3z M32.3-8.8v4.6H7v-4.6H32.3z M7,0.4h25.3V5H7V0.4z M13,23.4
			l2.3-4.6h6.4l2.3,4.6H13z M20.8,14.2h-4.6V9.6h4.6V14.2z"/>
	</g>
	<g id="Layer_3" class="st1">
		<g>
			<rect x="66.9" y="83.9" class="st7" width="103.7" height="2.6"/>
			<rect x="59.8" y="173.5" class="st7" width="117.9" height="7.7"/>
			<path class="st7" d="M182.9,158.4c0-20.8,0-41.5,0-62.3c0-4.4-0.3-4.6-4.8-4.6c-20.6,0-41.3,0-61.9,0s-41.3,0-62,0
				c-4.5,0-4.8,0.3-4.8,4.6c0,20.8,0,41.5,0,62.3c0,4.2,0.5,4.7,4.8,4.7c41.3,0,82.6,0,123.9,0C182.5,163,182.9,162.6,182.9,158.4z
				 M113.8,115.8c-0.3,0.4-0.7,0.9-1.1,1.3c-9.6,9.6-19.2,19.1-28.9,28.7c-1.4,1.4-2,1.4-3.4,0c-5.4-5.5-10.8-11.1-16.1-16.6
				c-0.3-0.3-0.5-0.6-0.8-0.9c0-0.3,0-0.6,0-0.9c1.7-1.6,3.5-3.3,5.3-4.9c0.8-0.6,1.6-0.2,2.2,0.5c3.1,3.1,6.2,6.3,9.3,9.4
				c1.5,1.5,2,1.5,3.5,0c7.4-7.4,14.9-14.7,22.3-22.1c1.3-1.3,1.9-1.3,3.2,0c1.5,1.5,3,3.1,4.5,4.6
				C113.8,115.2,113.8,115.5,113.8,115.8z M155,128.4c3.7,3.6,7.4,7.3,11,10.9c1.3,1.3,1.3,2,0,3.2c-1.9,1.9-3.8,3.8-5.7,5.7
				c-1.1,1.1-1.9,1.1-3,0c-3.7-3.7-7.5-7.4-11.1-11.1c-0.8-0.8-1.3-0.8-2.1,0c-3.5,3.5-7,7-10.5,10.4c-0.3,0.3-0.6,0.6-1,0.9
				c-0.9,0.7-1.6,0.8-2.4,0c-2.2-2.1-4.3-4.2-6.4-6.4c-0.9-0.9-0.8-1.7,0.2-2.7c3.8-3.8,7.5-7.5,11.4-11.2c0.8-0.8,0.8-1.2,0-2
				c-3.6-3.5-7.2-7.1-10.8-10.6c-1.7-1.7-1.7-2.2,0-3.9c1.6-1.6,3.2-3.2,4.8-4.7c2-2,2.3-2,4.3,0c3.5,3.5,7,6.9,10.5,10.5
				c0.8,0.8,1.2,0.8,2,0c3.7-3.7,7.4-7.4,11.1-11.1c1.2-1.2,1.9-1.2,3.1,0c2,2,3.9,3.9,5.9,5.9c0.4,0.4,0.6,0.9,1,1.5
				c-0.4,0.6-0.7,1.1-1.1,1.5c-3.7,3.7-7.4,7.4-11.1,11C154.2,127,154.2,127.5,155,128.4z"/>
			<path class="st5" d="M135.2,214c-12.7,0-25.3,0-38,0c-5.1,0-7.2-2.4-6.1-6.5H66.9v8.9h100.2v-8.9h-25.9
				C142.4,211.6,140.3,214,135.2,214z"/>
			<path class="st5" d="M106.2,110.3c-7.4,7.3-14.9,14.7-22.3,22.1c-1.5,1.4-2,1.4-3.5,0c-3.1-3.1-6.2-6.3-9.3-9.4
				c-0.7-0.7-1.5-1.1-2.2-0.5c-1.8,1.6-3.5,3.2-5.3,4.9c0,0.3,0,0.6,0,0.9c0.2,0.3,0.5,0.6,0.8,0.9c5.4,5.5,10.7,11.1,16.1,16.6
				c1.4,1.4,2,1.4,3.4,0c9.6-9.6,19.3-19.1,28.9-28.7c0.4-0.4,0.7-0.8,1.1-1.3c0-0.3,0-0.6,0-0.9c-1.5-1.5-3-3.1-4.5-4.6
				C108,109,107.4,109,106.2,110.3z"/>
			<path class="st5" d="M166.1,115.2c0.4-0.4,0.7-0.9,1.1-1.5c-0.4-0.6-0.6-1.1-1-1.5c-1.9-2-3.9-3.9-5.9-5.9
				c-1.2-1.2-1.9-1.2-3.1,0c-3.7,3.7-7.5,7.4-11.1,11.1c-0.8,0.8-1.2,0.8-2,0c-3.5-3.5-7-7-10.5-10.5c-2-2-2.3-2-4.3,0
				c-1.6,1.6-3.2,3.2-4.8,4.7c-1.7,1.7-1.7,2.2,0,3.9c3.6,3.6,7.2,7.1,10.8,10.6c0.8,0.8,0.8,1.2,0,2c-3.8,3.7-7.6,7.5-11.4,11.2
				c-1,1-1.1,1.8-0.2,2.7c2.1,2.1,4.2,4.3,6.4,6.4c0.8,0.8,1.6,0.7,2.4,0c0.4-0.3,0.7-0.6,1-0.9c3.5-3.5,7.1-6.9,10.5-10.4
				c0.8-0.8,1.3-0.8,2.1,0c3.7,3.7,7.4,7.4,11.1,11.1c1.1,1.1,1.9,1.1,3,0c1.9-1.9,3.8-3.8,5.7-5.7c1.3-1.3,1.3-2,0-3.2
				c-3.7-3.6-7.3-7.3-11-10.9c-0.8-0.8-0.8-1.3,0-2.1C158.7,122.6,162.4,118.9,166.1,115.2z"/>
			<path class="st5" d="M178.3,193.5c3.3-0.1,6.5-1.5,9.7-2.3c0-36.6,0-73.3,0-109.9c-47.9,0-95.8,0-143.7,0c0,36.7,0,73.3,0,109.9
				c3.2,0.8,6.5,2.2,9.7,2.3c12.6,0.3,25.3,0.1,38,0.1c1.1,0,2.3,0,4.5,0c-1.7,4.4-3,8.1-4.7,11.7c-0.4,0.8-0.6,1.5-0.8,2.2h50.2
				c-0.2-0.7-0.4-1.4-0.8-2.2c-1.6-3.6-2.9-7.3-4.6-11.7c2.2,0,3.4,0,4.5,0C153,193.6,165.7,193.8,178.3,193.5z M66.9,83.9h103.7
				v2.6H66.9V83.9z M49.5,158.3c0-20.8,0-41.5,0-62.3c0-4.4,0.3-4.6,4.8-4.6c20.7,0,41.3,0,62,0s41.3,0,61.9,0
				c4.5,0,4.8,0.3,4.8,4.6c0,20.8,0,41.5,0,62.3c0,4.2-0.5,4.7-4.8,4.7c-41.3,0-82.6,0-123.9,0C49.9,163,49.5,162.6,49.5,158.3z
				 M59.8,181.2v-7.7h117.9v7.7H59.8z"/>
			<path class="st5" d="M97.2,214c12.7,0,25.3,0,38,0c5.1,0,7.2-2.4,6.1-6.5H91.1C90,211.6,92.1,214,97.2,214z"/>
		</g>
	</g>
	<g id="Layer_4" class="st1">
		<g id="fNdCKC_1_">
			<g>
				<path class="st4" d="M83.3,193.9c8.1-4.6,16.4-9.3,25.2-14.2c4.7,7.4,9.3,14.6,14,22.1c14.1-22.5,27-45.6,54.7-59
					c-0.1,10.6-2.4,20.4,2.1,29.9c-19.1,10.6-30.7,21.5-55,51.5c-6.4-5.7-12.2-11.8-19.1-16.9C98.5,202.3,90.8,198.3,83.3,193.9z"/>
				<path class="st4" d="M145.1,111.3c-23.9,0-47.5,0-71.3,0c0-3.4-0.1-6.6,0-9.8c0.1-2.3,2.1-2.9,4.3-2.9c4.5,0,8.9,0,13.4,0
					c1.4,0,2.8-0.1,4.5-0.2c0-5.5,0-10.7,0-15.9c0-7.7,5-11.6,14.6-11.6c8.3,0,13.3,4.5,13.3,11.8c0,5.1,0,10.3,0,16
					c5.2,0,10.2,0,15.3,0c5.2,0.1,6,0.8,6,5.3C145.2,106.3,145.1,108.7,145.1,111.3z M115.3,88.6c0.1-2.4-2.2-4.5-5-4.5
					s-5.1,1.9-5.1,4.4c-0.1,2.4,2.2,4.5,5,4.5C112.9,93.1,115.2,91.1,115.3,88.6z"/>
				<path class="st4" d="M91.2,84.8c0,2.7,0,5,0,7.8c-5.7,0-11.3,0-16.9,0c-2,0-4.1-0.1-6.1,0.1c-4,0.4-6.5,2.7-6.5,6.2
					c0,34.2,0,68.4,0,102.6c0,3.7,2.5,6.1,6.8,6.3c5,0.2,9.9,0.1,14.9,0.1c8,0,12.4,1.8,18.4,7.6c-1.2,0.1-2.1,0.2-3.1,0.2
					c-11.4,0-22.7,0-34.1,0c-8.4,0-11-2.4-11-9.6c0-37.2,0-74.4,0-111.6c0-7.3,2.6-9.6,10.9-9.7C73.4,84.8,82.1,84.8,91.2,84.8z"/>
				<path class="st4" d="M157.2,145c0-12.3,0-24.4,0-36.4c0-2.8,0.1-5.6,0-8.4c0-5.2-2.7-7.5-8.7-7.6c-6.4-0.1-12.7,0-19.3,0
					c0-2.6,0-4.9,0-7.8c1.4,0,2.9,0,4.3,0c7.3,0,14.6-0.1,21.8,0c6.8,0.1,9.7,2.8,9.7,8.7c0,13-0.4,26,0.2,39
					C165.5,138.4,163.7,142.4,157.2,145z"/>
				<path class="st4" d="M165.1,193.2c0,5.8,0.1,10.8,0,15.7c-0.1,3.6-2.9,6.4-7.6,6.7c-5,0.3-10.1,0.1-16.1,0.1
					c3.8-3.2,4.9-7.5,10.6-8.1c1.9-0.2,4.7-2.9,4.8-4.5C157,198,161.3,196.5,165.1,193.2z"/>
				<path class="st4" d="M143.4,144.6c-18.4,0-36.6,0-54.8,0c-3.4,0-6.9,0.1-10.3-0.1c-0.9,0-1.7-0.8-2.6-1.2
					c0.8-0.6,1.7-1.6,2.5-1.6c9.9-0.1,19.9-0.1,29.8-0.1c10.9,0,21.9,0.1,32.9,0C143.1,141.6,144.5,141.9,143.4,144.6z"/>
				<path class="st4" d="M143.5,153.4c-7.5,0-14.9,0-22.2,0c-14.2,0-28.3,0-42.5-0.1c-1,0-2-1-3-1.5c1-0.4,1.9-1.2,2.9-1.3
					c20.7-0.1,41.4-0.1,62.1-0.1C142.6,150.4,144.6,150.3,143.5,153.4z"/>
				<path class="st4" d="M76.1,162.1c-1-3.4,1.4-2.9,3.2-2.9c17.4,0,34.7,0,52.1,0c3.9,0,7.9,0,11.9,0c1.6,3-0.7,2.9-2.8,2.9
					c-15.2,0-30.4,0-45.6,0C88.7,162.1,82.5,162.1,76.1,162.1z"/>
				<path class="st4" d="M99.7,129c-7.3,0-14.7,0-22-0.1c-0.6,0-1.3-0.9-1.9-1.4c0.7-0.5,1.3-1.4,2-1.4c6.7-0.1,13.5-0.1,20.2,0
					c0.8,0,1.7,1.3,2.5,2C100.2,128.4,99.9,128.7,99.7,129z"/>
				<path class="st4" d="M99.4,135.7c-7.7,0-15.4,0-23.2,0c-0.8-1.8-0.5-2.8,1.9-2.8c6.5,0.1,12.9-0.1,19.4,0.1c1,0,1.9,1.1,2.9,1.7
					C100.1,135,99.7,135.4,99.4,135.7z"/>
			</g>
		</g>
	</g>
	<g id="Layer_5" class="st1">
		<g id="_x34_hK3Jt_1_" class="st2">
			<g>
				<path class="st4" d="M64.1,224.1c-6.8-0.2-13.8-4.1-17.7-12.2c-4-8.3-3.3-16.7,2.6-23.7c6.2-7.4,13.4-14.1,20.3-21
					c0.9-0.9,2.7-1.1,4.1-1.3c5.9-0.9,8.9-3.8,9.4-9.9c0.4-4.1,3.3-6.1,6.1-8.1c0.6-0.5,2.7,0.1,3.4,0.9
					c8.9,8.7,17.7,17.5,26.3,26.5c0.8,0.9,0.9,3.7,0.1,4.8c-1.9,2.7-4.2,5-8.2,5c-4.3,0-7.6,4.2-8.5,8.5c-0.5,2.3-1.5,4.9-3.1,6.6
					c-5.4,5.9-11.1,11.4-16.8,17.1C77.8,221.6,72.6,224.1,64.1,224.1z M81.3,180c-1-1.2-1.7-2.9-2.7-3c-1.5-0.2-3.6,0.2-4.7,1.2
					c-5.7,5.4-11.1,11.1-16.6,16.7c-1.7,1.8-2.5,3.8-0.6,5.7c2.1,2.2,4.1,1.2,5.9-0.6c5.4-5.5,10.9-11,16.2-16.5
					C79.8,182.5,80.4,181.3,81.3,180z M69.6,212.7c1-0.4,1.9-0.6,2.4-1.1c6.2-6.2,12.5-12.4,18.4-18.9c0.7-0.8,0.4-3.7-0.5-4.5
					s-3.7-0.9-4.6-0.1c-6.3,6-12.3,12.1-18.2,18.5c-0.7,0.8-0.7,2.9-0.3,4.1C67.2,211.5,68.7,212,69.6,212.7z"/>
				<path class="st4" d="M120.4,126.4c-2.4,2-4.6,4-8,6.8c-1.9-2.3-4.2-5.1-6.6-7.8c-1.8-2.1-4.1-3-6.3-0.7
					c-2.1,2.2-1.1,4.5,0.9,6.4c2.6,2.4,5.2,4.7,8,7.2c-2.9,2.7-5,4.7-8.2,7.6c-0.8-1.2-1.8-2.9-3-4.3c-4.6-5.4-10.4-7.5-17.5-7.4
					c-18.1,0.4-32.1-14.2-31.3-32.4c0.1-1.9,0.5-3.7,1-6.4c1.7,1.1,3,1.6,4,2.5c3.2,3.1,6.3,6.3,9.5,9.4c4.9,4.7,10.2,4.5,14.9-0.3
					c8.9-8.9,11.3-13.3-0.1-23.6c-2-1.8-3.9-3.7-5.7-5.8c-0.8-0.9-1.9-2.4-1.7-3.3c0.2-0.8,2-1.6,3.1-1.9
					c15.2-3.4,31.7,6.8,35.6,22.2c0.8,3.1,1.2,6.5,0.9,9.7c-0.7,7.8,1.7,14.1,7.7,19.1C118.5,124.3,119.3,125.2,120.4,126.4z"/>
				<path class="st4" d="M107.2,151.6c1.5-1.9,2.4-3.2,3.5-4.4c12-12.1,23.9-24.4,36.1-36.3c3.7-3.6,6-7.2,5-12.4
					c-0.7-4.1,1-6.4,4.8-8.1c6.9-3.1,13.6-6.6,20.2-10.2c3.2-1.8,5.1-0.6,7.3,1.7c2.1,2.2,3.8,3.9,1.9,7.3
					c-3.9,7.3-7.5,14.7-11,22.2c-1.2,2.6-2.8,4-5.6,3.5c-6.5-1.1-10.9,1.7-15.4,6.5c-11.2,12-22.9,23.5-34.5,35.1
					c-1.2,1.2-4.1,2.6-5,2C111.9,156.8,109.8,154.1,107.2,151.6z"/>
				<path class="st4" d="M129.3,159.4c2.1,2.2,4.5,4.8,6.9,7.2c10.4,10.5,20.9,20.9,31.3,31.4c0.7,0.7,1.4,1.3,2,2
					c1.8,1.9,4,2.6,6,0.6s1.4-4.2-0.5-6.1c-2.9-2.9-5.8-5.8-8.6-8.6c-9.7-9.7-19.4-19.3-29.1-29c-1-1-2-2.1-3-3.1
					c2.2-2.3,4.3-4.3,6.6-6.6c0.2,0.1,0.7,0.3,1,0.7c13.7,13.7,27.4,27.4,41.1,41.1c4,4,5.3,8.9,3.7,14.2c-1.6,5.4-5.5,9.1-11.1,9.2
					c-3.4,0.1-7.7-0.8-10-2.9c-14.8-14.1-29.1-28.7-43.8-43.3C124.4,163.9,126.7,161.9,129.3,159.4z"/>
			</g>
		</g>
		<g id="vwK9Yq_1_">
			<g>
				<path class="st4" d="M-37.6-83.5c3,0.9,6.1,1.7,9.1,2.6c0,0.2,0,0.3,0.1,0.5C-41.2-77.8-54-75.2-67-72.5
					c0.2,5.8,0.3,11.5,0.9,17.1c0.1,1,2.5,1.9,4.2,3.1c0-6.2,0-11.7,0-17.5c4.4-0.9,8.8-1.9,13.2-2.8c8.7-1.8,17.4-3.6,26.1-5.3
					c1.1-0.2,2.3-0.2,3.4,0.1c3.7,0.9,7.4,1.9,10.6,2.8c0,7.2,0.1,14.3,0,21.3C-8.7-45.8-9.1-37.9-9.3-30c0,1.4-0.3,2.2-1.8,2.7
					c-12.2,4.4-24.3,9-36.5,13.4c-0.9,0.3-2.3,0.1-3.1-0.4c-7.7-5.4-15.3-10.8-22.9-16.3c-0.7-0.5-1.3-1.4-1.4-2.2
					c-0.8-14.4-1.6-28.9-2.3-43.6c3.3-0.6,6.6-1.2,9.8-1.8c9.5-1.6,18.9-3.2,28.4-4.9c0.2,0,0.4-0.2,0.6-0.3
					C-38.2-83.5-37.9-83.5-37.6-83.5z M-106.1-29.5c0.4,0,0.8,0,1-0.1c10.2-3.7,20.4-7.4,30.5-11.1c0.7-0.2,1.3-1.4,1.3-2.2
					c0.2-6.1,0.4-12.2,0.5-18.3c0.1-6.2,0-12.3,0-18.6c-0.5,0.1-1.1,0.1-1.7,0.3c-10,2.4-20,4.9-30,7.3c-1.5,0.4-2,0.9-2,2.5
					c0.1,12.7,0.1,25.5,0.2,38.2C-106.2-31-106.2-30.3-106.1-29.5z M-98.9-93.7c3.1,0.9,6.1,1.7,9.2,2.6c0,0.2,0.1,0.3,0.1,0.5
					c-12.8,2.6-25.6,5.3-38.7,7.9c0.2,5.8,0.3,11.5,0.9,17.1c0.1,1,2.5,1.9,4.2,3.1c0-6.2,0-11.7,0-17.5c4.4-0.9,8.8-1.9,13.2-2.8
					c8.7-1.8,17.4-3.6,26.1-5.3c1.1-0.2,2.3-0.2,3.4,0.1c3.7,0.9,7.4,1.9,10.6,2.8c0,7.2,0.1,14.3,0,21.3
					c-0.1,7.9-0.5,15.8-0.7,23.7c0,1.4-0.3,2.2-1.8,2.7c-12.2,4.4-24.3,9-36.5,13.4c-0.9,0.3-2.3,0.1-3.1-0.4
					c-7.7-5.4-15.3-10.8-22.9-16.3c-0.7-0.5-1.3-1.4-1.4-2.2c-0.8-14.4-1.6-28.9-2.3-43.6c3.3-0.6,6.6-1.2,9.8-1.8
					c9.5-1.6,18.9-3.2,28.4-4.9c0.2,0,0.4-0.2,0.6-0.3C-99.5-93.7-99.2-93.7-98.9-93.7z"/>
				<path class="st4" d="M2.6-26.5c-0.4,3.2-0.7,6.4-1.1,9.6c-0.1,0.8-0.6,1.9-1.1,2.2c-2.9,1.5-5.9,2.7-9,4.1c0-2.3,0-4.3,0-6.6
					c-4.9,2.2-9.7,4.3-14.5,6.4c-1,0.4-1.9,1.1-3,1.3c-3.3,0.8-4.5,2.8-4,6c0.4,2.1-0.6,3.2-2.6,3.9c-3,1.2-5.9,2.6-9,4.1
					c0-2.4,0-4.4,0-6.9c-1.5,0.6-2.9,1.2-4.2,1.7c-5.8,2.6-11.5,5.2-17.3,7.6c-1.9,0.8-3,1.8-2.5,3.9c0.8,3.6-1.2,5-4.2,6.8
					c-6.4,3.9-11,2.9-16.8-1.8c-17.1-13.9-34.8-27.1-52.4-40.4c-2.4-1.8-2.3-4.1-2.7-6.5c-0.3-1.6-0.4-3.3-0.6-4.9
					c0-0.6,0-1.2,0-1.8c3.7-1.3,7.4-2.7,11.2-3.7c0.9-0.2,2.2,0.4,3.1,1c19.4,13.4,38.8,26.7,58,40.3c3.7,2.6,6.5,2.9,10.1,0.1
					c-3.5-2.4-7-4.8-10.9-7.5c4.5-1.6,8.5-3,12.6-4.4c0.5-0.2,1.3,0.2,1.8,0.6c1.8,1.1,3.7,2,5.2,3.4c3.1,2.8,6.1,2.5,9.4-0.1
					c-3.2-2-6.3-4-9.7-6.2c3.9-1.6,7.5-3.1,11.2-4.4c0.8-0.3,1.9-0.1,2.7,0.3c1.6,0.8,3.1,1.8,4.5,2.9c2.9,2.6,5.6,2.2,8.6-0.2
					c-2.7-1.8-5.4-3.6-8.5-5.6c3.6-1.4,6.7-2.7,9.9-3.8c0.6-0.2,1.5,0.1,2.2,0.4c1.5,0.7,3.1,1.4,4.4,2.4c2.8,2.1,5.4,1.8,8.3-0.4
					c-2.7-1.6-5.2-3.4-7.8-4.7c-2.1-1-2.9-2.4-2.5-4.7c0.3-1.7,0.3-3.5,0.5-5.8c7.1,3.6,14,7.2,20.9,10.7
					C2.6-26.9,2.6-26.7,2.6-26.5z M-108.3-12.9c-0.8,4.5-0.2,7.8,3.9,10.2c4.1,2.5,7.8,5.8,11.6,8.7c1.8,1.3,3.6,2.6,5.5,4.1
					c0.7-4.7,0.2-8.1-4.2-10.8C-97.3-4.3-102.6-8.7-108.3-12.9z M-119-13.9c0.3-0.1,0.6-0.3,0.9-0.4c-0.5-2.3-0.3-5.6-1.8-6.9
					c-5.2-4.5-10.9-8.3-17.2-12.9c0.6,3.1,0.2,6.2,1.6,7.5C-130.3-22.1-124.6-18.1-119-13.9z"/>
				<path class="st4" d="M-114.5-47.1c0.3,3.7,0.5,6.8,0.7,10.6c-3.7-2.5-7-4.7-10.8-7.2C-121-45-117.9-46-114.5-47.1z"/>
				<path class="st4" d="M54.5-70.8c1.8,3.2,3.4,6.1,5.2,9.2c-1,0.4-1.8,0.7-3.4,1.3c0,5.5,0,11.3,0,17.1c0,3.9,0,3.9-4.4,4.7
					c0-6.8,0-13.6,0-20.5c-0.9,0-1.8,0-3,0C50.8-63,52.5-66.8,54.5-70.8z"/>
				<path class="st4" d="M79.3-61.5c-3.2,0.2-3.2,2.2-3.3,4.4c0,4.7-0.4,9.5-0.3,14.2c0.1,2.9-1,4.2-3.8,4.1c0-6.7,0-13.4,0-20.3
					c-0.6-0.1-1.4-0.2-2.6-0.4c1.7-3.6,3.3-7.1,5.2-11.1C76.3-67.3,77.7-64.6,79.3-61.5z"/>
				<path class="st4" d="M126.6-52.9c-0.5,1-0.8,2.5-1.6,2.8c-8.6,3.2-17.2,6.2-25.8,9.2c-0.9-2.5-0.2-3.7,2.2-4.4
					c8.2-2.5,16.3-5.3,24.4-8.1C126.1-53.2,126.4-53.1,126.6-52.9z"/>
			</g>
		</g>
	</g>
	<g id="Layer_6" class="st1">
		<g id="g8cFVo_1_" class="st2">
			<g>
				<path class="st4" d="M0.3,7.2c-2.1,1.4-4.1,2.9-6.2,4.1c-3,1.7-7.4,2.4-8.9,4.9c-1.6,2.6-0.6,6.9-0.6,10.4
					c0,8.6-0.1,17.1,0,25.7c0,2.7-0.8,4.3-3.2,5.6c-12.6,6.9-25.1,14-37.7,20.8c-1.5,0.8-3.8,1.1-5.4,0.6c-18-5.4-36-10.9-54-16.4
					c-2.6-0.8-3.5-2.3-3.5-4.9c0.1-11.3,0-22.6,0.1-34c0-2.2-0.6-3.3-2.8-3.7c-3.6-0.7-7.1-1.6-10.6-2.7c-1.7-0.5-3.2-1.6-4.7-2.4
					c0-0.8,0-1.6,0-2.5c5.9-8.1,11.7-16.2,17.7-24.1c0.9-1.2,2.4-2.3,3.8-2.8c13.1-4.9,26.1-9.7,39.2-14.4c1.3-0.5,2.8-0.7,4.1-0.5
					c16.9,2.4,33.8,5,50.8,7.4c2.6,0.4,4.2,1.4,5.6,3.5C-10.7-10.6-5.2-3,0.3,4.7C0.3,5.5,0.3,6.3,0.3,7.2z M-112.3,22.9
					c0,10.8,0.1,20.9-0.1,31.1c0,2.1,0.7,2.9,2.7,3.5c12.5,3.7,24.9,7.6,37.3,11.4c3.1,0.9,6.2,1.8,9.4,2.8c0-20.1,0-39.8,0-59.9
					c-0.5,0.6-0.8,0.9-1,1.2c-3.6,5.3-7.2,10.6-10.7,16c-1.3,2-2.9,3-5.4,2.1c-2.1-0.7-4.3-1.1-6.5-1.7
					C-95,27.3-103.4,25.1-112.3,22.9z M-55.4,16.5c-0.1,0.1-0.3,0.1-0.4,0.2c0,17.8,0,35.6,0,53.7c1.2-0.6,2.2-1.1,3.2-1.6
					c8.4-4.6,16.6-9.5,25.1-13.8c4-2,5.5-4.3,5.3-8.8c-0.4-8.8-0.1-17.6-0.1-26.8c-1.2,0.5-2,0.8-2.8,1.2c-6.2,3-12.5,6-18.7,8.9
					c-3.5,1.7-4.9,1.2-6.5-2.3C-52.1,23.6-53.7,20.1-55.4,16.5z M-65.3,2.5c-0.6-0.2-1-0.5-1.3-0.5c-15.5-2.9-31-5.7-46.5-8.5
					c-0.8-0.1-2.1,0.6-2.6,1.3c-3.1,4-6,8.2-9,12.3c-1,1.4-2,2.9-3.2,4.5c15.7,4.1,30.9,8,46.2,11.9c0.8,0.2,2.4-0.1,2.8-0.7
					C-74.4,16.2-69.9,9.4-65.3,2.5z M-44.9,22.4c12.3-6,24.4-11.8,36.6-17.6c-4.6-6.5-8.8-12.5-13.1-18.7
					C-32.7-8.7-43.7-3.6-54.8,1.5C-51.4,8.6-48.3,15.3-44.9,22.4z M-102.4-11.9c0.8,0.4,1.1,0.6,1.3,0.6C-88.5-9-75.9-6.6-63.2-4.5
					c2,0.3,4.3,0.2,6.1-0.6c7.5-3.3,15-6.9,22.4-10.4c0.5-0.2,0.8-0.6,1.5-1.1c-11.3-1.7-22.1-3.4-33-4.9c-2.8-0.4-5.9-1.3-8.4-0.5
					C-83.8-19.1-92.8-15.5-102.4-11.9z"/>
			</g>
		</g>
		<path class="st4" d="M175.3,169.4c4.5,1.1,8.6,2.2,12.8,3.2c-1.8-5.8-3.6-11.5-5.5-17.2c-2-6.2-4.2-12.3-6.2-18.4
			c-0.6-1.8-1.4-2.7-3.5-3.3c-12.5-3.4-25.1-6.9-37.6-10.4c5.7-5.3,9.5-12.8,9.3-21.4c0.2-16.5-13.8-29.2-29.1-29.2
			c-15.2,0-29.1,12.6-29.1,29.2c0,9.3,4.3,17.3,10.8,22.5c-11.8,5.7-23.6,11.2-35.3,17.1c-1.8,0.9-3.6,2.8-4.4,4.6
			c-4.4,9.8-8.4,19.7-12.6,29.6c-0.2,0.5-0.5,0.9-0.8,1.4c0,0.2,0,0.4,0,0.5c4.2,1.1,8.5,2.2,12.6,3.5c0.8,0.2,1.7,1.4,1.7,2.2
			c0.2,4.5,0.1,9,0.1,13.5c0,4.3,1.9,7.1,6.4,8.4c21.3,6.5,42.6,12.9,63.9,19.4c0.2,0.1,0.3,0.2,0.4,0.3c0.6,0,1.2,0,1.7,0
			c2.3-1.2,4.8-2.2,6.8-3.8c10.8-8.5,21.4-17.1,32.1-25.6c3.6-2.9,5.4-6.2,5.3-10.7C175.2,179.9,175.3,174.8,175.3,169.4z
			 M175.5,150.8c0.1,0,0.3-0.1,0.4-0.1c1.7,4.9,3.5,9.8,5.4,15.3c-2.2-0.5-4-1-5.9-1.4C175.5,159.9,175.5,155.4,175.5,150.8z
			 M93.4,105c2.2-2.2,4.4-4.4,6.8-6.9c2.7,2.7,5.4,5.4,8.2,8.3c2.7-2.7,5.4-5.3,8-8c4.6-4.6,9.1-9.2,13.7-13.8c0.9-0.9,1.5-1,2.4,0
			c1.4,1.5,2.8,3,4.4,4.4c1.2,1.1,1.2,1.8,0.1,2.9c-8.5,8.5-17,17-25.5,25.5c-1.2,0.6-2.4,1.2-3.7,1.8
			C102.8,114.3,98.1,109.6,93.4,105z M101.2,127.2c2.8,1.7,6,2.9,9.2,3.5c0,7.1,0,14.1,0,21.3c-13.7-3.2-27.2-6.3-41.4-9.5
			C80,137.2,90.6,132.2,101.2,127.2z M51,174.5c4.2-9.9,8.3-19.7,12.2-29.1c21.1,5.6,41.9,11.2,63.1,16.9c-3,10.5-5.9,20.6-8.9,31.1
			C95.2,187.2,73.3,180.9,51,174.5z M128.6,219c-7.6-2.3-14.9-4.5-22.3-6.8c-13.3-4.1-26.7-8.2-40-12.1c-1.9-0.6-2.5-1.4-2.5-3.2
			c0.1-4.5,0-9,0-13.9c19.1,5.4,37.8,10.8,57,16.2c2.5-8.6,5-17.1,7.4-25.6c0.1,0,0.2,0,0.4,0C128.6,188.6,128.6,203.6,128.6,219z
			 M128.1,157.2c-3.6-0.9-7.2-2-10.7-3.2c-0.8-0.3-1.7-1.2-1.7-1.9c-0.1-6.9-0.1-13.9-0.1-21c0.1,0,0.2,0,0.2,0
			c5.6,0,11-1.8,15.6-4.8c11.9,3.1,23.8,6.2,35.9,9.4c-3.2,1.9-5.9,3.5-8.7,5.1c-8.9,5.3-17.7,10.6-26.7,15.8
			C131,157.3,129.3,157.5,128.1,157.2z M170.1,185.8c0,1.2-0.5,2.7-1.4,3.5c-11.1,9.4-22.3,18.6-33.4,27.9c-0.3,0.3-0.7,0.5-1.3,1.1
			c-0.1-1.2-0.1-2.1-0.1-2.9c0-16.9,0-33.9-0.1-50.8c0-2,0.6-3.2,2.5-4.3c10.4-6,20.8-12.2,31.1-18.3c0.7-0.4,1.4-0.8,2.6-1.4
			c0.1,1.1,0.2,1.9,0.2,2.8C170.2,157.5,170.2,171.7,170.1,185.8z"/>
		<g id="CxAPH4_1_">
			<g>
				<path class="st8" d="M-29.9,130.8c-5.3-1.3-11.3-2.6-17.2-4.2c-1.5-0.4-2.8-1.7-4.2-2.6c0.9-1.4,1.6-3.3,2.9-4.3
					c11.2-8.4,22.5-16.7,33.7-25c15-11.1,30-22.1,45-33.2c2.4-1.8,4.6-2.7,7.7-1.8c4.4,1.2,9,1.7,14.6,2.7c-4,3.3-7.4,6.1-10.8,8.8
					c-22.1,17.7-44.2,35.3-66.3,53.1C-26.4,125.8-27.8,128.1-29.9,130.8z"/>
				<path class="st8" d="M10.6,54.9c-11.7,7.9-22.4,15.2-33.1,22.4c-17.4,11.7-34.8,23.4-52.1,35.2c-2,1.4-3.4,3.6-5.6,5.8
					c-4.7-1.1-10.2-2.4-15.6-3.9c-1.4-0.4-2.6-1.6-3.9-2.4c1-1.4,1.7-3.2,3-4c18.9-12.1,37.9-24,56.9-36
					c9.3-5.9,18.7-11.6,27.8-17.6c3.3-2.2,6.4-3,10.2-1.9C2,53.5,5.7,53.9,10.6,54.9z"/>
				<path class="st8" d="M-127.1,106.7c-3.8-0.9-8.6-2-13.4-3.4c-1.3-0.4-2.4-1.7-3.6-2.5c0.9-1.2,1.6-2.9,2.8-3.6
					c11.1-6.3,22.4-12.4,33.6-18.6c18.2-10,36.4-20,54.5-30.2c4.6-2.6,9.1-4.5,14.5-2.5c2.6,0.9,5.5,1.1,9.6,1.8
					c-2.4,1.5-3.8,2.4-5.3,3.3c-28.9,16.8-57.8,33.6-86.7,50.4C-122.9,102.4-124.4,104.3-127.1,106.7z"/>
				<path class="st8" d="M52.3,68.9c0.4,7.9,0.8,14.2-6.4,20.1c-23.7,19.4-46.7,39.8-69.7,59.9c-3.4,2.9-6.2,3.8-10.6,2.4
					c-9.7-3.1-9.8-2.8-9.8-13c0-2.3,0-4.6,0-7.6c5.5,1.2,10.7,3.7,15.2,2.8c4.4-0.8,8.1-5.2,12.8-8.5c0,4.6,0,8.4,0,13.4
					c9.6-8.1,18.2-15.5,27.6-23.5c-5.2-1.4-9.6-2.5-15.6-4.1c6.5-3.4,9.2-9.4,16.3-10.1c3.2-0.3,6.1-4.2,9.8-6.9c0,4.2,0,7.6,0,12.2
					c7.8-6.6,14.6-12.5,22.4-19c-4.8-1-8.8-1.9-13.3-2.8C36.1,76,45.4,74.7,52.3,68.9z"/>
				<path class="st8" d="M28.5,58.5C9.2,72.3-9.5,85.7-28.1,99c-8.6,6.2-17.4,12.3-25.9,18.6c-1.8,1.3-3.1,3.4-5.3,5.8
					c-2.3-0.6-5.8-1.3-9.2-2.4c-1.3-0.4-3.3-1.5-3.4-2.5c-0.2-1.2,1-3,2.2-3.8c6.6-4.7,13.4-9.2,20.1-13.9
					C-30.1,87.5-10.3,74.3,9,60.4C15.4,55.8,21.1,55.7,28.5,58.5z"/>
				<path class="st8" d="M-107.5,111.6c-2.1-0.5-5.4-1.1-8.5-2.2c-1.3-0.4-2.4-1.7-3.6-2.7c1-1.2,1.7-2.8,2.9-3.5
					C-96.9,91.4-77,79.7-57.1,67.9c8.4-5,16.9-10,25.3-15c8.1-4.8,8.1-4.8,19-2c-2,1.3-3.4,2.2-4.8,3.1
					c-27.8,17.3-55.7,34.5-83.5,51.8C-103.2,107.1-104.8,109.1-107.5,111.6z"/>
				<path class="st8" d="M-78.1,122.2c0,4.6,0,8.6,0,12.7c4.8-0.3,7.1-6.9,13.3-4.9c-4.2,3.1-7.7,5.9-11.4,8.3
					c-1.2,0.8-3.1,1-4.5,0.7c-4.7-1-9.3-2.5-14-3.4c-3.4-0.6-4.8-2.1-4.6-5.6c0.2-4.1,0.1-8.3,0.1-12.9
					C-92.2,118.7-85.4,120.4-78.1,122.2z"/>
				<path class="st8" d="M-116.1,117.5c-4.8,3-8.6,6.9-12.9,7.7s-9.2-1.5-13.8-2.7c-0.4-0.1-0.7-1.4-0.8-2.2c-0.1-4.6,0-9.3,0-13.9
					c0.3,0,0.4-0.1,0.6-0.1c4.1,1.1,9.5,1.1,11.9,3.8c2.2,2.4,1.1,7.8,1.5,12.1c3.8-1.9,7.2-3.7,10.8-5.4
					C-118.5,116.6-117.8,117-116.1,117.5z"/>
			</g>
		</g>
	</g>
	<g id="Layer_7" class="st1">
		<g id="_x37_vCEl6_1_" class="st2">
			<g>
				<path class="st4" d="M165.4,128.2c0,8.7,0.1,17.4-0.1,26.1c-0.1,2.5,0.7,3.7,3,4.6c5.7,2.3,11.3,4.9,17.1,7.3
					c2,0.8,2.8,2,2.7,4.1c-0.1,4.3,0.1,8.6-0.1,12.8c-0.1,1.2-1,2.7-2,3.3c-2.3,1.4-4.8,2.4-7.3,3.2c-1.2,0.4-3,0.3-4-0.4
					c-6-4.3-11.1-0.6-16.1,1.9c-0.8,0.4-1.1,2.5-1,3.8c0.3,2.9-0.7,4.7-3.5,5.5c-1.4,0.4-2.8,0.9-4,1.7c-4.1,2.5-8,2.4-12.3,0.2
					c-1.4-0.8-3.8-0.5-5.4,0.1c-3.6,1.3-7.1,3.1-10.7,4.5c-2.1,0.8-3.3,1.9-2.9,4.3c0.6,3.4-0.9,5.4-4.2,6.1c-0.3,0.1-0.7,0.2-1,0.4
					c-5.8,4.5-11,1.2-16-1.6c-1.1-0.6-1.6-3.1-1.6-4.6c0.1-2.5-0.8-3.6-3-4.7c-3.7-1.8-7-2.6-10.9-0.3c-2.9,1.8-11.1-0.1-13.2-2.9
					c-0.8-1-0.7-2.7-0.7-4.1c-0.2-3.7-3.8-6.4-7.4-5.2c-0.2,0.1-0.5,0.2-0.7,0.3c-5,3.5-9.9,2.1-14.4-0.9c-1-0.7-2.1-2.1-2.1-3.3
					c-0.2-4.4-0.3-8.8,0-13.2c0.1-1.2,1.3-2.7,2.4-3.4c1.8-1.2,3.9-2.2,6-2.7c4.7-1.1,5.5-4,5.5-8.5c-0.2-20.2,0-40.4-0.2-60.5
					c0-2.8,1-4.1,3.4-5.2c16.1-6.8,32.1-13.8,48.2-20.5c1.5-0.6,3.8-0.6,5.4,0.1c15.8,6.6,31.4,13.5,47.1,20.1
					c3.1,1.3,4.4,2.9,4.3,6.4C165.2,111.3,165.4,119.8,165.4,128.2z M161.9,102.6c-1.2,0.3-2.1,0.5-2.8,0.8
					c-14.5,6.2-28.9,12.5-43.4,18.6c-2.2,0.9-2.6,2.4-2.6,4.5c0.1,19.9,0,39.8,0.1,59.8c0,0.9,0.2,1.8,0.3,3c0.9-0.2,1.5-0.3,2-0.6
					c14.6-6.3,29.1-12.6,43.7-18.8c2.4-1,2.8-2.4,2.8-4.8c-0.1-19.4,0-38.9,0-58.3C161.9,105.6,161.9,104.3,161.9,102.6z
					 M60.7,102.3c0,22.1,0,43.3,0.1,64.6c0,1,1.4,2.4,2.5,2.9c14,6.1,28,12.1,42,18.1c3.3,1.4,4.2,0.8,4.2-2.7c0-19.7,0-39.3,0.1-59
					c0-2.4-0.9-3.4-2.9-4.2c-8.6-3.6-17.1-7.3-25.7-11C74.4,108.2,67.9,105.4,60.7,102.3z M88.2,110.1c6.1,2.6,11.6,4.7,16.8,7.4
					c4.2,2.2,7.9,2.5,12.2,0.1c3.6-2,7.5-3.3,11.3-5c9.9-4.3,19.7-8.5,30-13c-1-0.6-1.6-1.1-2.2-1.3c-6-2.6-11.9-5.3-18-7.7
					c-1.6-0.6-3.8-0.5-5.4,0.1c-4.5,1.7-8.9,3.7-13.4,5.7C109.3,100.9,99.2,105.4,88.2,110.1z M131.1,87.6
					c-6.2-2.7-11.5-5.1-16.9-7.2c-1.7-0.6-4.1-0.8-5.7-0.1c-13.7,5.6-27.2,11.5-40.8,17.3c-1.1,0.5-2.2,1.1-4,1.9
					c5.4,2.4,10.2,4.1,14.7,6.5c3.7,1.9,6.9,1.8,10.5-0.1c3.2-1.7,6.6-2.9,10-4.4C109.3,97.1,119.7,92.5,131.1,87.6z M184.5,171.9
					c-0.7,0-1.1-0.1-1.4,0c-24.2,10.3-48.4,20.6-72.5,31c-0.8,0.3-1.7,1.5-1.8,2.3c-0.2,3.2-0.1,6.5-0.1,9.9
					c6.1-1.2,6.2-1.3,6.3-6.5c0-2.2,0.9-3.3,2.8-4.1c7.2-3.1,14.5-6.2,21.7-9.4c4.5-2,6.2-3.6,6.2,3.8c0,0.2,0.2,0.4,0.4,0.6
					c4.5-1.3,9-2.3,7.9-8.9c-0.1-0.8,1.5-2.3,2.7-2.8c5.2-2.4,10.4-4.5,15.7-6.8c5.6-2.4,5.6-2.4,6.6,3.7c0,0.2,0.3,0.3,1.1,0.9
					c1.4-1.2,3.9-2.3,4.2-3.9C185,178.6,184.5,175.2,184.5,171.9z M180.9,168.9c0-0.3,0.1-0.6,0.1-0.9c-3-1-6.1-3.1-8.9-2.8
					c-2.8,0.3-6.9,1.1-7.1,5.7c0,0.5-1.3,1-2.1,1.3c-16.5,7.1-32.9,14.2-49.4,21.2c-0.9,0.4-2.1,0.9-2.7,0.6
					c-4.7-2.5-7.9,1.3-11.8,2.8c3.7,0.7,6.1,4.7,10.7,2.7c15.5-6.8,31.2-13.4,46.7-20.1C164.5,175.9,172.7,172.4,180.9,168.9z
					 M105.2,215.2c0-2.7-0.2-5.2,0.1-7.6c0.3-2.9-0.7-4.3-3.4-5.4c-16.4-6.9-32.6-14.1-49-21.1c-1.8-0.8-3.7-1.4-6-2.3
					c0,3,0.2,5.5-0.1,7.9c-0.5,3.7,1.4,4.9,4.7,5.4c0.1-0.8,0.1-1.4,0.1-2c0.2-4.1,0.8-4.5,4.5-2.9c4,1.7,7.9,3.6,12,5.1
					c2.5,1,3.8,2.4,3.4,5.2c-0.7,3.9,1.5,5.1,4.9,5.4c0.1-0.6,0.2-1.1,0.2-1.6c0.3-4.7,0.7-5,4.9-3.2c5.1,2.2,10.3,4.3,15.3,6.7
					c1.2,0.6,2.5,2.6,2.4,3.7C98.6,212.9,100.9,214.5,105.2,215.2z M89.8,185.7c-5.8-4-9.1-3.8-14.8,0.6
					C80.1,190.9,84.9,188.7,89.8,185.7z M77.4,180.5c-5.4-4.1-8.6-4-14.6,0.5C67.8,185.5,72.6,183.5,77.4,180.5z M50.7,175.6
					c5.2,4.8,9.8,2.3,14.5-0.3C60.3,171.3,58.2,171.4,50.7,175.6z M101.9,190.8c-6.2-3.9-9.4-3.7-14.6,0.8
					C92.4,196.4,97.1,193.7,101.9,190.8z"/>
				<path class="st4" d="M76.9,120.6c0.9,0.3,1.8,0.6,2.7,1c4.6,1.9,9.2,3.7,13.6,6c1.1,0.6,2.2,2.8,2,3.9c-0.4,2-2.3,2.6-4.3,1.7
					c-5-2.2-10.1-4.1-15-6.5c-1-0.5-1.8-2.4-1.9-3.8c-0.1-1.2,0.8-2.5,1.3-3.7C75.9,119.7,76.4,120.1,76.9,120.6z"/>
			</g>
		</g>
	</g>
	<g id="Layer_8" class="st1">
		<g id="KC6iOP_1_">
			<g>
				<path class="st4" d="M44.3,181.2c1.9-0.3,3.8-0.6,6-0.9c0-1.2,0.1-2.6,0.2-4.4c-1.9-0.2-3.7-0.4-5.7-0.6c0.3-2,0.5-3.7,0.8-5.7
					c2.2,0,4.2,0,6.5,0c0-1.8,0-3.2,0-4.9c-1.7-0.1-3.4-0.2-5.9-0.4c2.2-5.6,4.1-10.6,6.2-15.5c0.4-0.9,1.8-1.1,2.7-1.1
					c3.4-0.1,6.8-0.1,10.5-0.1c0.7-13.5,1.4-26.6,2.1-39.9c-3.4-1.2-1.8-5-2.1-8.2c9.8,0,19.4-0.7,28.9,0.2c7,0.7,12,7.2,14.6,16.5
					c4,14.4,7.3,29.1,11.2,43.6c1.2,4.4,3.2,8.4,5.2,12c0.8,1.4,2.8,1.3,4.8,2.1c0-2.4,0-3.8,0-5.2c0-16.7,0.7-33.6-0.3-50.2
					c-0.5-8.2-1.1-16.3-1.4-24.6c-0.1-2.7-1.1-5.4-1.8-8.7c4.7,0,8.6,0,12.8,0c0,3.9,0,7.6,0,11.7c1.7,0.2,3.2,0.3,5,0.5
					c0,10.1-1.3,52-4.8,51.4c0,9.4,0,17.7,0,26c1.4,0.2,2.7,0.3,3.9,0.5c0,10.6,0,20.8,0,31.2c-1.1-0.1-1.9-0.2-2.8-0.3
					c-0.7-16.9-6.8-26.6-15.7-25.6c-10,1.1-14.7,11.4-13.5,29.7c-2.3-0.3-5.2,2.2-5.6-4c-9.6,0-18.9,0-28.3,0
					c-1.3-14.9-6.3-22.7-14.2-22.5c-7.8,0.2-12.6,7.9-13.8,22.3c-2.1,1.1-3.3-0.1-3.8-3.1c-0.7-3.8-1.2-7.6-1.8-11.4
					C44.3,188.2,44.3,184.7,44.3,181.2z M109,184.9c-3.4,0-6.8,0.1-10.2,0c-1.2,0-2.5-0.1-3.5-0.9c-6.1-4.5-12.2-9.1-18.2-13.8
					c-0.7-0.6-1.5-2.1-1.6-3.2c-0.4-8.3-0.6-16.7-0.8-25.1c0-1,0.6-2.7,1.1-3c3-1.7,5.8,0.3,6.7,4.8c0.7,3.7,1.2,7.6,1.8,11.8
					c0.9,0,1.8,0,2.7,0c7.2,0.1,8.6,1.9,9.6,12.5c0.3,3.1,0.8,6.3,1.1,9.4c4.5,0,8.7,0,13.3,0c-3.7-9.2-7.2-18-10.8-27
					c0.8-1,1.6-1.9,2.2-2.7c-0.4-1.4-0.8-2.5-1.2-3.7c0.9-0.9,1.6-1.6,2.2-2.2c0.8,1.3,1.3,2.2,1.8,3.2c1-0.8,1.9-1.4,2.8-2.1
					c1.9,3.2,3.8,6.2,5.6,9.1c0.3-0.2,0.6-0.4,0.8-0.7c-3.3-11.4-6.4-22.9-10-34.1c-1.7-5.2-5.1-9.2-8.9-9.6
					c-7.7-0.8-15.5-0.2-23.5-0.2c-1,20.2-2.1,40.4-2.9,60.6c-0.1,1.1,0.9,2.8,1.7,3.4c5.4,4.3,11,8,16.3,12.6
					c5.5,4.7,11.1,7.1,17.5,6.3C107.2,189.8,108.7,189.2,109,184.9z M132.2,98.8c-0.2,0.6-0.5,1.2-0.7,1.8c1.7,1.1,3.3,2.3,5,3.4
					c0.2-0.6,0.4-1.3,0.7-1.9C135.5,101,133.8,99.9,132.2,98.8z M136.3,97.8c0.2-0.6,0.5-1.1,0.7-1.7c-1.2-2.2-3.2-2.7-5-3.6
					c-0.2,0.5-0.4,0.9-0.6,1.4C133.1,95.2,134.7,96.5,136.3,97.8z M132.3,105.1c-0.2,0.4-0.4,0.8-0.6,1.2c0.8,3.3,3.1,2.8,4.8,4
					c0.2-0.4,0.4-0.9,0.6-1.3C135.5,107.7,133.9,106.4,132.3,105.1z"/>
				<path class="st4" d="M187.8,129.3c0.1,9.2,0.2,18.4,0.3,27.7c0,5.4,0,10.8,0,16.6c-15,0-29.7,0-44.8,0c0-14.9,0-29.6,0-44.2
					C158.1,129.3,173,129.3,187.8,129.3z M183.2,135.9c-9.8,0-19.4,0-29.1,0c1.9,2.4,3.9,5.3,6.1,5.5c7.6,0.6,15.2,0.2,22.9,0.2
					C183.2,139.4,183.2,137.7,183.2,135.9z M176.6,167.4c0.1-0.3,0.2-0.5,0.3-0.8c-2-1.6-4-4.5-6.1-4.7c-7.4-0.6-14.9-0.2-22.4-0.2
					c0,2.2,0,3.8,0,5.7C157.9,167.4,167.2,167.4,176.6,167.4z M148.4,152.5c0,2.5,0,4.4,0,6.4c6.5,0,12.7,0,19.1,0
					C162.3,150,155.2,152.6,148.4,152.5z M183.3,144.4c-6.8,0-13.2,0-20.1,0c5.9,8.9,13.2,4.5,20.1,5.7
					C183.3,147.9,183.3,146.3,183.3,144.4z M172.6,152.6c3.2,3.1,5.6,8.4,10.6,6.1c0-1.9,0-3.9,0-6.1
					C179.6,152.6,176.1,152.6,172.6,152.6z M157.3,149.7c-2.7-2.7-4.8-7.1-8.9-5.2c0,1.7,0,3.3,0,5.2
					C151.5,149.7,154.4,149.7,157.3,149.7z"/>
				<path class="st4" d="M123.2,215.1c-8.6-3.6-12.2-8.7-11.7-16.3c0.5-7.4,5.9-13.4,12.7-14.1c7.3-0.7,14.1,4.4,15.5,11.5
					c1.6,7.7-2.1,15.1-8.9,17.8c-0.9,0.4-1.8,0.7-2.6,1.1C126.5,215.1,124.8,215.1,123.2,215.1z M133.2,199.9c0-4.4-3.3-8-7.3-8.1
					c-4.1-0.1-7.8,3.8-7.7,8.2c0.1,4.3,3.5,7.9,7.6,7.9C129.9,207.9,133.2,204.3,133.2,199.9z"/>
				<path class="st4" d="M61.6,214.6c-4.2-1.6-7.7-4.2-9.3-9.2c-2.3-7.2,0.7-15,6.9-17.9s13.4,0.6,15.9,7.7c2.5,7.1-0.3,15-6.4,18.1
					c-0.8,0.4-1.6,0.8-2.4,1.3C64.8,214.6,63.2,214.6,61.6,214.6z M63.8,192.9c-3.8,0-7,3.5-6.9,7.8c0.1,4,3.2,7.6,6.7,7.7
					c3.8,0.1,6.8-3.4,6.8-7.9C70.4,196.1,67.6,192.9,63.8,192.9z"/>
				<path class="st4" d="M144.1,125.7c0-14.7,0-29.2,0-44c13.5,0,27,0,40.9,0c0,14.5,0,29.2,0,44
					C171.3,125.7,157.8,125.7,144.1,125.7z M154.1,87.8c-0.1,0.3-0.2,0.5-0.4,0.8c1.8,1.6,3.5,4.4,5.4,4.5
					c7.2,0.5,14.4,0.2,21.6,0.2c0-2.1,0-3.7,0-5.5C171.7,87.8,162.9,87.8,154.1,87.8z M175.4,119.6c0.1-0.3,0.2-0.5,0.4-0.8
					c-1.9-1.7-3.7-4.6-5.6-4.7c-6.9-0.6-13.8-0.2-20.8-0.2c0,2.1,0,3.8,0,5.7C158.1,119.6,166.8,119.6,175.4,119.6z M166.1,110.8
					c-4.9-9-11.4-6.4-17.6-6.4c0,2.4,0,4.3,0,6.4C154.4,110.8,160.2,110.8,166.1,110.8z M180.7,96.4c-6.3,0-12.4,0-18.6,0
					c5.4,8.8,12.2,4.7,18.6,5.6C180.7,99.8,180.7,98.2,180.7,96.4z M180.7,110.5c0-1.9,0-3.9,0-5.9c-3.4,0-6.7,0-10.7,0
					C173.8,107.8,176.2,112.7,180.7,110.5z M148.4,101.7c3.1,0,5.7,0,9.1,0c-3.2-2.9-5.3-7.1-9.1-5.2
					C148.4,98.2,148.4,99.8,148.4,101.7z"/>
				<path class="st4" d="M92.4,144.9c-0.8-1.2-1.4-2.1-2.2-3.3c3.8-2.9,7.5-5.6,11.4-8.6c0.7,1.1,1.3,2.1,2.1,3.3
					C100,139.2,96.4,141.9,92.4,144.9z"/>
			</g>
		</g>
		<rect x="137.8" y="176" class="st4" width="45.4" height="6.6"/>
	</g>
	<g id="Layer_9" class="st1">
		<g id="Yi7mKX_1_">
			<g>
				<path class="st9" d="M130.3,164.9c0-22,0-43.8,0-65.5c-7.6-2.2-49.7-1.3-53.9,1.3c-0.1-1.7-0.2-3.2-0.3-5.2
					c10.1,0,19.9,0.5,29.6-0.1c15.9-0.9,30.9,1.1,45.3,8.5c10.4,5.4,21.7,9.2,32.5,13.9c1.4,0.6,3,2.7,3,4.1
					c0.2,14.1,0.1,28.3,0.1,42.9C168.1,164.9,149.5,164.9,130.3,164.9z"/>
				<path class="st9" d="M125.9,109c-3.8,1.9-7.7,4-12.3,6.3c3.4,0.6,6.2,1.1,9.6,1.7c0,11.7-0.1,23.3,0.1,35
					c0.1,4.6-1.6,9.5,3,13.4c1.2,1.1,0.4,4.5,0.5,7.7c-6.5-6.3-6.5-6.2-12.7-1.5c-0.6,0.5-1.5,0.9-2.2,0.9c-19,0.1-37.9,0-57.5,0
					c0.4-16.5-4.3-32.9,3.8-49.1c-2-0.1-3.5-0.4-4.8-0.3c-1.4,0.1-2.7,0.6-4.1,1c0.6,1.4,1.5,2.7,1.6,4.1c0.3,3.9,0.7,7.8,0.3,11.6
					c-0.3,2.7-1.9,5.2-2.7,7.4c-4.9-5.6-4.5-12.6-2-20.6c1.9-6.2,5.3-5.5,9.6-5.6c1.4,0,3.4-0.2,4.1-1.1c2.5-3.1,5.2-4.8,9.3-4.7
					c0.9,0,2.3-1.7,2.8-2.9c2.8-8,7.9-11.9,16.9-11.2c9.3,0.7,18.7,0.2,28,0.2C123.9,101.4,123.9,101.4,125.9,109z M106.2,146.6
					c-0.1,0.7-0.2,1.4-0.2,2.1c2.5,0.3,5.1,1.1,7.6,0.9c1.7-0.1,4.4-1.2,4.8-2.4c1.5-5.4,2.9-11,3.1-16.5c0.2-6.2-3.6-10.3-8-10.3
					c-15.8-0.1-31.6,0-47.4-0.2c-2.7,0-4.5,0.6-5.2,3.4c-1.3,4.8-2.6,9.6-4,14.3c-1.2,3.8-0.2,5.2,3.9,6c14.1,2.7,28.1,2.3,42.1-0.4
					c1.5-0.3,3.4-2.5,3.6-4c0.8-5,0.9-10.2,1.3-15.3c2.9,0,5.5,0,9,0c-6.9,7.4-3.3,14.6-0.3,22.1
					C112.3,146.3,109.3,146.5,106.2,146.6z"/>
				<path class="st9" d="M54.3,189.5c0-4.5,0-8.4,0-12.6c19.2,0,38.1,0,57.8,0c0,3.5,0.4,7-0.2,10.3c-0.2,1.2-2.7,2.9-4.2,2.9
					c-11.8,0.5-23.6,0.8-35.4,0.8C66.3,190.8,60.4,190,54.3,189.5z M59.7,177.2c-1.7,1.2-2.9,2-4,2.9c1.5,0.9,3,2.1,4.7,2.5
					c0.7,0.2,1.8-1.4,2.8-2.2C62.1,179.4,61.1,178.5,59.7,177.2z M101.7,177.5c-3.1,0.9-5.3,1.6-7.6,2.2c0.6,1,1.1,2.8,1.7,2.8
					C98.3,182.6,101.3,183,101.7,177.5z"/>
				<path class="st9" d="M107.3,193.8c8.8,0.6,8.5-5.3,8-11.3c-0.1-1.3,0-2.8,0.6-3.9c1.3-2.4,3-4.6,4.6-6.9c1.4,2.2,3.8,4.4,4,6.8
					c0.4,5.6,0.2,11.2-0.5,16.8c-0.7,5.9-5.5,5.1-9.6,5.1C110.3,200.3,107.4,199,107.3,193.8z M121.1,176.4c-0.5,0-0.9,0-1.4,0
					c-2,6.4-2.1,12.7,0.1,19c0.4,0,0.9,0,1.3,0C121.1,189.1,121.1,182.8,121.1,176.4z"/>
				<path class="st9" d="M166.5,174.4c-11.5,0.6-23,1.3-34.9,2c-0.1-1.6-0.1-3-0.2-4.1c11.9,0,23.5,0,35.1,0
					C166.4,173,166.5,173.7,166.5,174.4z"/>
				<path class="st9" d="M172.1,167.9c4,4.9,5.3,16.2,2,19c-1.9,1.6-5.5,1.4-8.3,1.3c-1.6-0.1-3.1-1.9-5.5-3.5c9.3-2,9.2-2,10-10.4
					C170.4,172.3,171.3,170.5,172.1,167.9z"/>
				<path class="st9" d="M166.4,179.8c-11.2,2.9-23,3.2-34.8,5.6c-0.1-1.6-0.2-3-0.4-4.5c11.9-1.1,23.3-2.2,34.8-3.3
					C166.2,178.4,166.3,179.1,166.4,179.8z"/>
				<path class="st9" d="M179.1,168c4,2.8,5.5,10.4,3.6,15.6c-0.5,1.5-2.7,2.3-4.1,3.5c-0.5-0.3-0.9-0.6-1.4-1
					C177.8,180.2,178.4,174.4,179.1,168z"/>
				<path class="st9" d="M78.7,194c-0.5,7.3-5.4,5.6-9.2,5.9c-4.4,0.3-5.8-2.1-6-5.9C68.5,194,73.4,194,78.7,194z"/>
			</g>
		</g>
	</g>
</g>
<g id="Layer_2_2_">
	<g id="eOTZNW_1_">
		<g>
			<path class="st10" d="M912.5,212.4c-28.1-31.9-55.7-63.2-83.6-94.9c11.1-12.6,22.1-25.1,33.4-38c16.7,18.9,33.3,37.7,50.2,57
				c33.5-38,66.8-75.8,100.5-114c11.2,12.6,22.1,25,33.5,37.9C1001.9,110.9,957.4,161.3,912.5,212.4z"/>
		</g>
	</g>
	<g id="Ohuny6_1_">
		<g>
			<path class="st10" d="M524.4-107.6c5.7,0,11.3,0,17,0c1.1,0.3,2.2,0.6,3.3,0.8c46.8,6.4,78.4,31.9,94.6,76.1
				c3.1,8.6,4.1,18,6,27.1c0,5.7,0,11.3,0,17c-0.3,1.3-0.7,2.5-0.8,3.8c-5.9,43.9-29.4,74.8-70.1,91.9c-10.4,4.4-22,5.6-33.1,8.3
				c-5.7,0-11.3,0-17,0c-1.1-0.3-2.2-0.6-3.3-0.8c-46.8-6.4-78.4-31.9-94.6-76.2c-3.1-8.6-4.1-18-6-27c0-5.7,0-11.3,0-17
				c0.3-1.4,0.7-2.8,0.9-4.3c6.7-46.3,32.1-77.7,76-93.7C505.9-104.7,515.3-105.6,524.4-107.6z M607.3-21.2c-1-1.5-1.7-2.8-2.7-3.8
				c-2.9-3-5.8-6-8.8-8.9c-4.7-4.7-5.7-4.7-10.5,0.1c-19.6,19.5-39.1,39.1-58.7,58.6c-4,4-5.6,4-9.5,0C509,16.6,500.9,8.5,493,0.1
				c-3.2-3.4-6-3.5-9.3-0.2c-3,2.9-6.1,5.7-9.2,8.4c-3,2.6-3.3,5.2-0.5,8.1c14.6,15.1,29.2,30.2,43.7,45.3c2.7,2.8,5.2,3.2,8.1,0.3
				c26.2-26.3,52.5-52.6,78.8-78.9C605.7-18,606.3-19.6,607.3-21.2z"/>
		</g>
	</g>
</g>
<g id="_x38_piKwq.tif">
	<g>
		<path class="st11" d="M186.3,59.3c2.7,0.1,5.4,0,7.9,0.5c13.6,2.4,22.9,11.5,27.8,26c5.1,15,3.7,29.6-4.5,42.8
			c-7.2,11.7-17.3,17.2-29.8,16.9c-5.6-0.2-11.2-0.1-16.9-0.1c-42.7,0-85.4,0.1-128.1,0.1c-12.6,0-23.6-4.6-32.5-15
			C-4.1,113.8-3.2,88,11.9,72.4c4.4-4.5,9.3-7.9,14.9-10c1-0.4,1.4-0.8,1.4-2.1C28.8,32.4,46.1,9.1,69.1,2.4
			c20.6-6,39-0.8,54.9,15.7c1.4,1.5,2.7,3.1,3.9,4.8c0.7,0.9,1.2,1,2.2,0.8c14.6-4.4,28.2-1.9,40.4,8.4c7.8,6.6,12.9,15.4,15.5,26.1
			C186.1,58.6,186.2,59,186.3,59.3z M118.5,52c-1.4-2.2,5.6-17.3-13.5-28.2C91.3,16,70.8,13.6,60,22.2c-34.2,27-16,53.6-16.1,53.6
			C43,76,31,75.8,22,87.6c-11.6,12.1-9,28.5,6.4,35.3c17.8,11.3,35.8,7,45.4,7c35.7,4.3,65.3,2.3,89.7-2.3c5.7,0,28.5,4.7,41.7-10.3
			c10.1-9.2,13.2-14.2,8.1-28.2c-4.8-13.4-17.1-22.7-31.2-17.8c-1.1,0.4-9.3,6.1-10.7,6.6c1.5-16.9,0.8-22.9-10.9-30.4
			C141.8,32.8,130.5,45.7,118.5,52z"/>
		<path class="st11" d="M75.9,24c0.9,1.4,13.2,3.9,14.1,5.3C78.3,39.4,63.4,57,64.1,74.5c-1.3,0.3-6.2-5.4-7.5-5.1
			C52.5,57.9,62.6,34.2,75.9,24z"/>
	</g>
</g>
</svg>
