<?xml version="1.0" encoding="utf-8"?>
<!-- Generator: Adobe Illustrator 24.1.2, SVG Export Plug-In . SVG Version: 6.00 Build 0)  -->
<svg version="1.1" id="Layer_1" xmlns="http://www.w3.org/2000/svg" xmlns:xlink="http://www.w3.org/1999/xlink" x="0px" y="0px"
	 viewBox="0 0 449.6 58" style="enable-background:new 0 0 449.6 58;" xml:space="preserve">
<style type="text/css">
	.st0{fill:#ED2F37;}
	.st1{fill:#181618;}
	.st2{fill:#0C50A0;}
	.st3{fill:#084E9D;}
	.st4{fill:#C32F42;}
	.st5{fill:#00A0DF;}
	.st6{font-family:'MyriadPro-Bold';}
	.st7{font-size:68.9972px;}
	.st8{fill:#234192;}
</style>
<g id="n0T6Te_1_">
	<g>
		<path class="st0" d="M122.8,473c0-5.5,0.2-11-0.1-16.5c-0.2-3.5,1.1-4.6,4.4-4.2c1.4,0.2,2.8,0.2,4.1,0c6-1,8.8,1.1,7.7,7.5
			c-0.4,2.6,0.1,4.5,3.6,4.6c3.8,0.1,3.9-2,4.1-4.9c0.1-2.3-1.6-6.1,1.5-6.7c4.5-1,9.4-1,14,0.2c0.5,0.1,0.7,2.1,0.7,3.2
			c0,11.4-0.1,22.8,0.1,34.2c0,3.2-0.9,4.8-4.4,4.4c-1.2-0.1-2.4,0-3.5,0c-7.8,0-7.9,0-8.4-8c-0.2-2.8-0.9-4.3-4.1-4.3
			c-3.6,0-3.3,2.2-3.6,4.7c-0.3,2.5,1.8,6.5-1.6,7.3c-4.3,1-9,0.4-13.5,0c-1.4-0.1-1-2.3-1-3.7C122.8,484.9,122.8,479,122.8,473z
			 M126.7,473.4c0,4.5,0.1,9,0,13.5c-0.1,2.4,0.7,3.3,3.3,3.6c5,0.5,5-2.5,4.6-5.8c-0.6-4.8,0.9-6.6,6-6.3c9,0.4,9.1,0.1,9.9,8.9
			c0.3,2.7,1.4,3.4,3.7,3.2c1.8-0.2,4.3,0.8,4.3-2.4c0-14.6,2.1-20.6-15.8-19.8c-0.2,0-0.4,0-0.6,0c-6.2,1.1-8.6-1.5-7.6-7.6
			c0.4-2.4,0.3-4.6-3.4-4.5c-3.2,0-4.6,0.9-4.4,4.3C126.9,464.7,126.7,469.1,126.7,473.4z"/>
		<path class="st1" d="M300.4,482.4c0,12.4,0,12.4-12.8,12.4c-13,0-13,0-13-13c0-2.2-0.1-4.3,0-6.5c0.1-4.3,2.5-6.4,6.7-6.6
			c1.8-0.1,3.5,0,5.3,0C300.4,468.8,300.4,468.8,300.4,482.4z M293.3,482c0.1-5.6-0.9-6.3-5.7-6.3c-4.4,0.1-6.2,0.9-6.1,5.8
			c0.2,4.4,0.5,6.8,5.9,6.5C291.9,487.8,293.7,487.4,293.3,482z"/>
		<path class="st1" d="M189.4,479.7c0.3-10.2,1.1-10.9,11.5-10.9c14.6,0,14.6,0,14.6,14.7c0,1.8,0,3.5,0,5.3
			c0.1,4.3-2.2,6.1-6.2,6.1c-3,0-5.9,0-8.9,0c-10.1,0-10.3-0.1-11.1-9.9C190.3,483.2,190,481.5,189.4,479.7z M202.4,487.6
			c4.8-0.3,6.5-0.2,6.4-5.5c-0.1-4.5-0.7-6.7-6-6.4c-4.5,0.2-6.8,0.6-6.5,6C196.5,486,196.3,488,202.4,487.6z"/>
		<path class="st1" d="M248.2,494.3c-6.4,1.4-10.6,0.3-13.6-4.2c-1.8-2.7-3.7-2.5-5.4,0.1c-3,4.5-7.3,5.5-12.7,4.3
			c1.6-4.1,5.2-6.7,8-9.6c2.4-2.5,2.1-4-0.2-6.2c-2.9-2.8-5.5-5.9-8.6-9.2c5.9-1.5,10.2-0.8,13.2,3.8c2.1,3.2,4.1,3.1,6.2-0.1
			c2.9-4.4,7-5.2,12.2-4c-1.3,4.2-4.8,6.6-7.6,9.3c-2.6,2.6-2.4,4.4,0,6.8C242.5,487.9,245,490.9,248.2,494.3z"/>
		<path class="st1" d="M328.9,481.7c0-12.9,0-12.9,12.9-12.9c2,0,3.9,0,5.9,0.1c3.8,0.2,5.8,2.2,5.8,6c0,5.5-0.1,11,0.1,16.5
			c0,2.4-0.5,3.6-3.2,3.5c-2.8,0-4-0.8-3.8-3.7c0.2-2.9,0-5.9,0-8.8c0-6.4-2.4-8-8.6-6.5c-2.5,0.6-2.3,2.3-2.3,4.1
			c-0.1,3.9-0.1,7.9,0,11.8c0,2.2-0.8,3.1-3.1,3.1c-2.3,0-3.8-0.5-3.7-3.2C329,488.3,328.9,485,328.9,481.7z"/>
		<path class="st1" d="M302.5,482c0-13.2,0-13.2,13.6-13.2c10.5,0,11.1,0.6,11.1,10.9c0,3.7-0.1,7.5,0,11.2c0.1,2.5-0.4,4-3.5,4
			s-3.6-1.3-3.5-3.9c0.1-3.9-0.1-7.9,0.1-11.8c0.2-4.9-3.5-3.1-5.8-3.3c-2.4-0.2-5.3-0.8-5.1,3.4c0.2,3.7,0,7.5,0.1,11.2
			c0.1,2.6-0.1,4.4-3.7,4.4c-3.9,0-3.3-2.3-3.3-4.7C302.5,487.5,302.5,484.8,302.5,482z"/>
		<path class="st1" d="M189.4,484.9c-3.7,0.1-7.5,0.5-11.2,0.3c-3.7-0.2-5,1-4.6,4.6c0.2,2.4,0.9,5.1-3.4,5.1s-3.5-2.6-3.5-5
			c0-5.7,0.1-11.4-0.1-17.1c-0.1-2.9,0.6-4.3,3.9-4.1c4.7,0.3,9.4,0.2,14.2,0c2.6-0.1,3.4,1.1,3.4,3.5c0,2.5-0.8,3.7-3.4,3.6
			c-3.5-0.1-7.1,0-10.6,0.8c4.9,3,10.7,0.2,15.6,3C189.5,481.4,189.4,483.2,189.4,484.9z"/>
		<path class="st1" d="M261.4,494.8c-13.5,0-13.5,0-13.5-13.6c0-2,0-3.9,0-5.9c0-4,2.2-6.3,6.1-6.5c5.3-0.2,10.6,0,15.9-0.1
			c2.2,0,3.2,0.8,3.1,3.1c-0.1,2.1-0.1,4-3,4c-3.5,0-7.1,0.3-10.6-0.1c-5.4-0.6-4.8,2.9-4.8,6.3c0,3.2-0.5,6.4,4.6,5.9
			c3.5-0.4,7.1,0,10.6-0.1c2.7-0.1,3.2,1.3,3.2,3.6c0,2.5-0.9,3.6-3.4,3.4C266.9,494.7,264.2,494.8,261.4,494.8z"/>
		<path class="st1" d="M189.4,484.9c0.1-1.8,0.1-3.5,0.2-5.3h-0.1C190,481.5,190.3,483.2,189.4,484.9
			C189.3,484.9,189.4,484.9,189.4,484.9z"/>
	</g>
</g>
<g id="SbhA5j_1_">
	<g>
		<path class="st2" d="M529.7,432.8c-0.4-7.9-0.7-15.9-1.1-23.8c-7.6-2.1-15.1-2-22.7-0.1c-1.7,8.6-0.3,17.2-0.8,25.8
			c-0.2,2.9-0.2,5.9-0.3,8.8c-0.4,0.5-0.9,0.9-1.3,1.4c-4.8,0.5-9.5,0.5-14.3,0c-0.6-0.4-1.2-0.8-1.8-1.2
			c-0.1-15.1-0.2-30.2-0.4-45.2c0-2.6,0.9-3.5,3.5-3.5c13.5,0.1,27-0.3,40.5,0.2c8,0.3,12.8,6,16.7,12.5c0,12,0,23.9,0,35.9
			c-3.4,0-6.8-0.3-10.1,0.1c-4.2,0.5-6.6-1.1-7.9-4.9c0-1.2,0-2.4,0-3.6C531.1,434.4,531.1,433.6,529.7,432.8z"/>
		<path class="st3" d="M529.8,438.8c1.3,3.8,3.7,5.4,7.9,4.9c3.3-0.4,6.8-0.1,10.1-0.1c0,0.4,0,0.8,0,1.2c-4.1,0-8.3-0.2-12.4,0.2
			C530.3,445.5,528.5,443.7,529.8,438.8z"/>
		<path class="st3" d="M388.4,444.9c-4.4,0-8.8,0-13.1,0c-10-0.1-17.3-7.2-17.6-17.1c-0.1-5-0.1-10,0-14.9
			c0.1-8.7,7.1-16.7,15.9-17.1c9.5-0.4,19.1-0.4,28.7-0.1c9.4,0.4,16.6,8.4,16.6,17.7c0,5,0,10,0,14.9c-0.1,9.3-7.3,16.4-16.6,16.6
			C397.6,444.9,393,444.9,388.4,444.9z M388,432.3c0.6,0,1.2,0,1.8,0c11.3,0,11.3,0,11.3-11.1c0-13.2,0-13.2-13.3-13.2
			c-12.4,0-12.4,0-12.5,11.7C375.3,432.3,375.3,432.3,388,432.3z"/>
		<path class="st3" d="M207.6,444.9c-4.2,0-8.4,0-12.5,0c-10.3,0-17.7-7.1-18-17.4c-0.2-4.6,0-9.2,0-13.7c0-10,7.5-17.9,17.4-18.1
			c8.8-0.2,17.5-0.2,26.3,0c10,0.2,17.5,8.1,17.5,18c0,4.8,0,9.6,0,14.3c0,9.6-7.2,16.8-16.9,16.9
			C216.8,444.9,212.2,444.9,207.6,444.9z M207.6,432.3c13.2,0,13.2,0,13.2-12.8c0-11.6,0-11.6-12.6-11.6c-13.2,0-13.2,0-13.3,11.9
			C194.8,432.3,194.8,432.3,207.6,432.3z"/>
		<path class="st3" d="M237.6,395.2c7.4,0,13.3,0.1,19.3,0c4.9-0.1,6.6,4,9.3,6.7c3,3,5.2,4.5,8.1,0.2c6.9-10.3,17.3-5.1,27.6-6.7
			c-6,7.7-11,14.3-16.3,20.6c-2.4,2.8-2.4,4.7,0,7.5c5.7,6.5,11,13.4,17.6,21.6c-8.1,0-14.6,0.3-21.1-0.1c-4.6-0.3-6.1-5.2-9.4-7.7
			c-1.3-0.9-2.6-3.7-4.1-1c-6.5,11-17.2,8.4-27,8.7c-1,0-2,0-4,0c6-7.4,11.4-14.4,17.2-21c2.6-2.9,2.2-4.7-0.1-7.4
			C249,409.9,243.8,403,237.6,395.2z"/>
		<path class="st2" d="M442.5,408.9c-0.4,0.4-0.8,0.8-1.3,1.3c-2.5,7.7-0.7,15.7-1.1,23.5c-0.5,11,1.9,9.6-10.4,10
			c-4.5,0.1-5.3-1.7-5.2-5.6c0.2-9.9,0.2-19.9,0-29.9c-0.1-4.1,1-8.3-0.8-12.3c4-1.6,8.1-0.7,12.2-0.7c9.9-0.2,19.9-0.2,29.8,0
			c10.3,0.2,18.1,8,18.2,18.2c0.1,8.9-0.1,17.9,0.1,26.8c0.1,3.5-0.6,4.8-4.5,4.8c-14,0.2-14,0.4-14.2-13.6
			c-0.1-7.3-0.1-14.7-0.2-22C457.7,406.6,450.1,407.2,442.5,408.9z"/>
		<path class="st3" d="M335.3,395.4c4.2,0,8.4-0.2,12.6,0.1c2,0.1,5.4-1.3,5.9,1.1c0.8,3.8,0.4,7.9-0.1,11.8
			c-0.2,1.5-2.4,0.8-3.7,0.8c-8.6,0.1-17.1,0.2-25.7,0c-3.4-0.1-5.2,0.6-4.8,4.5c0.6,5.9-2.4,13.5,1.3,17.1
			c2.9,2.8,10.6,0.8,16.1,0.9c3.4,0.1,6.8,0.4,10.1-0.1c5.8-0.9,6.6,1.8,6.7,6.9c0.2,5.7-1.7,7.1-7,6.7c-7.1-0.4-14.3-0.1-21.5-0.1
			c-13.7,0-21.4-6.6-23.3-20.1c-0.7-4.7-0.7-9.5,0.4-14.2c2.4-9.5,9-15,18.7-15.3C325.7,395.3,330.5,395.4,335.3,395.4z"/>
		<path class="st3" d="M153,395.4c5.4,0,10.7,0,16.1,0c5.9-0.1,3,4.4,3.4,6.9c0.3,2.4,1.4,5.7-3.5,5.5c-8.7-0.3-17.5,0.1-26.2-0.2
			c-3.7-0.1-4.2,1.4-4.1,4.5c0.1,3.1,0,5.2,4.3,5c7.7-0.4,15.5,0.2,23.3-0.2c4.6-0.2,3.9,2.5,4,5.3c0.1,2.8,0.1,4.9-3.9,4.7
			c-7.3-0.3-14.7,0.1-22.1-0.2c-3.8-0.2-4.5,1.2-4.5,4.7c0,15.2-0.4,15.3-16.2,13.7c-2.4-0.2-3-1.1-3-3.2c0.1-9.5-0.3-19.1,0.3-28.6
			c0.8-11.6,8.1-17.9,19.6-17.9C144.6,395.3,148.8,395.4,153,395.4z"/>
		<path class="st3" d="M423.7,395.8c1.8,4,0.8,8.2,0.8,12.3c0.2,9.9,0.2,19.9,0,29.9c-0.1,3.9,0.8,5.8,5.2,5.6
			c12.3-0.4,10,1,10.4-10c0.3-7.8-1.4-15.8,1.1-23.5c0.1,10.5,0,21,0.2,31.6c0.1,2.9-1,3.6-3.8,3.7c-14.4,0.7-14.4,0.7-14.4-13.3
			C423.4,420,423.6,407.9,423.7,395.8z"/>
		<path class="st3" d="M442.5,408.9c7.6-1.7,15.1-2.3,22.6,0.3C457.6,409.1,450.1,409,442.5,408.9z"/>
		<path class="st3" d="M505.9,408.9c7.6-1.9,15.1-2.1,22.7,0.1C521.1,409,513.5,408.9,505.9,408.9z"/>
		<path class="st3" d="M529.7,432.8c1.3,0.8,1.3,1.6,0,2.4C529.7,434.4,529.7,433.6,529.7,432.8z"/>
		<path class="st3" d="M487.4,443.7c0.6,0.4,1.2,0.8,1.8,1.2C488.2,445.1,487.6,444.8,487.4,443.7z"/>
		<path class="st3" d="M503.5,444.9c0.4-0.5,0.9-0.9,1.3-1.4C505,444.6,504.6,445.1,503.5,444.9z"/>
	</g>
</g>
<g id="Vduzhb_1_">
	<g>
		<path class="st3" d="M-260.5,381.9c-10.1,0-20.3-0.5-30.4,0.1c-15.1,1-25.1,9.4-29.9,23.5c-3.4,9.8-6,20-9.6,29.7
			c-5.4,14.6-10,29.5-15.2,44.2c-0.8,2.2-1.9,2.7-4,2.7c-9.5-0.1-19.1-0.1-28.6,0c-2.5,0-3.8-0.2-2.7-3.3c9-27,16.9-54.3,27.2-80.8
			c9.8-25.3,29.9-39.2,57.1-40.4c23.8-1,47.7-0.2,71.5-0.3c3.4,0,3.4,1.1,2.5,3.8c-1.8,5.7-3.5,11.5-5.1,17.2
			c-0.7,2.6-2,3.4-4.6,3.3c-9.4-0.1-18.8-0.1-28.1-0.1C-260.5,381.7-260.5,381.8-260.5,381.9z"/>
		<path class="st4" d="M-234.1,482c-4.5,0-8.9-0.2-13.4,0.1c-4.1,0.3-5-0.8-3.8-4.9c4.6-14.6,8.8-29.4,13.2-44.1
			c4.1-13.8,8.3-27.6,12.3-41.5c0.9-3.1,2.3-4.1,5.5-4c8.9,0.2,17.8,0.3,26.7,0c4.8-0.2,4.8,1.5,3.7,5.2
			c-6.3,21-12.4,42.1-18.6,63.2c-2.1,7.1-4.3,14.1-6.1,21.2c-0.9,3.5-2.3,5.2-6.3,4.9C-225.1,481.7-229.6,482-234.1,482
			C-234.1,482-234.1,482-234.1,482z"/>
		<path class="st3" d="M-277.8,482c-4.6,0-9.2-0.2-13.8,0.1c-3.3,0.2-4.3-0.6-3.2-4.1c4.4-13.9,8.4-28,12.6-41.9
			c1.6-5.3,3.3-10.6,4.7-15.9c0.7-2.6,1.8-3.7,4.7-3.7c9.5,0.2,19.1,0.2,28.6,0c3.3-0.1,3.5,1.2,2.7,3.9
			c-5.8,19.4-11.5,38.9-17.2,58.4c-0.7,2.6-1.9,3.4-4.5,3.3C-267.9,481.9-272.9,482-277.8,482z"/>
		<path class="st3" d="M-309.9,440.8c-4.1,0-8.3-0.1-12.4,0c-2.6,0.1-3.8-0.5-2.7-3.4c1.5-4.2,2.6-8.5,4-12.7
			c1.7-5.1,5.5-7.8,10.7-8c8.7-0.3,17.5,0,26.2-0.1c2.5,0,2.8,1.1,2.1,3.1c-1.5,4.5-2.7,9.1-4.4,13.5c-1.7,4.5-5.2,7.2-10.2,7.4
			c-4.4,0.1-8.9,0-13.3,0C-309.9,440.7-309.9,440.7-309.9,440.8z"/>
		<path class="st3" d="M-246.9,387.6c4.3,0,8.6,0.1,12.9,0c2.5-0.1,3.5,0.6,2.6,3.1c-1.4,4.2-2.7,8.5-4.2,12.7
			c-1.8,5.3-5.7,8-11.1,8.1c-8.6,0.2-17.2,0.1-25.8,0.2c-2.3,0-2.9-0.7-2.1-3c1.4-4.2,2.5-8.5,3.9-12.8c1.7-5.2,5.4-8.1,10.9-8.3
			C-255.5,387.5-251.2,387.6-246.9,387.6C-246.9,387.6-246.9,387.6-246.9,387.6z"/>
		<path class="st4" d="M-177.7,357.5c-2,6.1-3.6,11.8-5.7,17.3c-1.6,4-5,6.4-9.3,6.5c-8.9,0.2-17.8,0.1-26.7,0.2
			c-2.5,0-2.9-1-2.2-3.1c1.4-4.4,2.7-8.8,4.1-13.2c1.5-4.5,4.8-7.4,9.4-7.6C-198.1,357.3-188.2,357.5-177.7,357.5z"/>
		<path class="st3" d="M-83.8,412.7c0-3,0.2-5.7,0-8.4c-0.2-2.5,0.9-3.2,3.2-3.1c2.1,0,4-0.1,3.9,2.9c-0.1,10.3,0,20.6,0,30.8
			c0,1.2,0.2,2.7-1.5,2.8c-1.7,0.1-4.1,1-5-0.7c-0.8-1.5-0.8-1.7-2.3-0.7c-7.6,4.6-15.2,1.4-17.1-7.2c-0.7-3-0.7-6.1,0-9.1
			C-100.6,410.9-94.1,408.2-83.8,412.7z M-95.7,424.7c0,4.8,2.3,7.9,5.8,7.9c3.5,0,6.1-3.3,6.1-7.8c0.1-4.8-2.5-8.4-6-8.4
			C-93.4,416.3-95.7,419.5-95.7,424.7z"/>
		<path class="st3" d="M8.5,470.2c-2.3,0-4.6,0.1-6.9,0c-3-0.1-3,1.4-2,3.5c1.7,3.4,6.4,4.6,9.5,2c2.7-2.2,6.5-3.1,8-0.8
			c1.4,2.1-2.1,4.6-4.4,6.1c-5.2,3.2-13.3,2.2-17.6-2.1c-4.1-4.1-4.8-13.4-1.4-19c3-4.9,9.8-7.1,15.9-5.2c5.3,1.7,8.5,6.3,8.9,12.3
			c0.1,2.4-0.5,3.5-3,3.3C13.1,470.2,10.8,470.3,8.5,470.2C8.5,470.3,8.5,470.2,8.5,470.2z M4.4,465.8c2.1-0.8,5.5,1.3,5.9-1.6
			c0.4-3-2.6-4.2-5.4-4.2c-2.6,0-5.4,1.2-5.3,3.9C-0.3,467.2,2.9,464.7,4.4,465.8z"/>
		<path class="st3" d="M-70.5,470.3c-2.3,0-4.6,0.1-6.9,0c-3.2-0.1-2.8,1.5-1.8,3.5c1.8,3.4,6.4,4.5,9.5,1.8
			c2.6-2.3,6.8-2.6,7.8-1.1c1.7,2.5-1.7,4.7-3.9,6.2c-6.1,4.1-15.5,2.3-19.4-3.5c-4.2-6.2-2.5-16.8,3.3-20.9
			c5.7-4,14.6-2.7,18.7,2.7c0.6,0.7,1.1,1.5,1.4,2.3c3.2,6.9,1.9,8.9-5.4,9C-68.3,470.3-69.4,470.3-70.5,470.3
			C-70.5,470.3-70.5,470.3-70.5,470.3z M-74,465.8c1.9-0.9,5.3,1.4,5.5-1.8c0.2-2.8-2.8-4-5.7-4c-2.8,0-5.4,1.5-5.2,4
			C-79.1,467.4-75.7,464.6-74,465.8z"/>
		<path class="st3" d="M-146.4,375.3c0-5.1,0.1-10.1,0-15.2c0-2.1,0.6-2.9,2.9-2.9c6.8,0.2,13.5,0.2,20.3,0c2.5-0.1,3.2,0.8,3.1,3.2
			c-0.1,2-0.1,3.6-2.9,3.4c-4.1-0.2-8.3,0.1-12.4-0.1c-3.2-0.2-3.5,1.5-3.3,3.9c0.2,2.1-0.8,4.8,3.1,4.5c3.2-0.2,6.5,0.1,9.7-0.1
			c2.4-0.1,3.7,0.4,3.7,3.2c0,2.7-1,3.5-3.5,3.3c-3.4-0.2-6.8,0-10.1-0.1c-2.2-0.1-3,0.7-2.9,2.9c0.2,2.8-0.1,5.5,0.1,8.3
			c0.2,3.1-0.6,4.3-4,4.3c-3.2,0-3.8-1.3-3.7-4C-146.3,385.1-146.4,380.2-146.4,375.3C-146.4,375.3-146.4,375.3-146.4,375.3z"/>
		<path class="st3" d="M-33.8,380.3c0.1-8.8,5.5-14.4,13.9-14.3c8.5,0.1,14.1,6.1,13.9,15c-0.2,8.3-5.9,14-13.8,14.1
			C-28.4,395-33.9,389.3-33.8,380.3z M-26.3,380.6c0,5.3,2.5,8.4,6.6,8.2c3.6-0.1,6.2-3.6,6.3-8.3c0-5.2-2.5-8.4-6.5-8.3
			C-24.1,372.2-26.4,375.1-26.3,380.6z"/>
		<path class="st3" d="M59.8,425.9c0.4,3.1-0.7,6.7,0.9,10.1c0.6,1.3,0.2,2.3-1.2,2c-2.1-0.4-4.5,1-6.3-1.5
			c-1.5-2.1-2.6,0.4-3.7,0.9c-6.1,3.1-12,0.6-13.2-5.6c-0.8-4.4,0.9-7.6,5.2-8.9c2.5-0.8,5.1-1.2,7.6-1.7c1.7-0.3,3.6-0.6,3.5-2.8
			c-0.1-2.6-2.5-2.3-4.2-2.5c-1.6-0.2-3.1,0.4-4,1.8c-1.9,3-5.1,2.4-6.8,1c-1.6-1.4,0.2-4.2,1.6-5.5c4.6-4.2,10.1-3.7,15.6-2
			c4.6,1.4,5.2,5.1,5,9.2C59.7,422.1,59.8,423.8,59.8,425.9z M47,433.5c3.2-0.1,6-3.2,5.9-6.4c0-1.3-0.5-2.2-1.9-1.6
			c-2.8,1.2-7.3-0.1-7.8,4.7C42.8,432.8,44.8,433.4,47,433.5z"/>
		<path class="st3" d="M-90.7,381.1c-0.3,8.7-5.9,14-14.5,13.7c-8.2-0.3-13.5-6.1-13.2-14.6c0.2-9,5.9-14.6,14.6-14.2
			C-95.5,366.3-90.4,372.2-90.7,381.1z M-98.2,380.5c0-5.4-2.2-8.4-6.3-8.4c-4,0-6.5,3.2-6.4,8.4c0,4.9,2.5,8.2,6.2,8.2
			C-100.6,388.9-98.2,385.9-98.2,380.5z"/>
		<path class="st3" d="M-1.4,380.3c0-3.2-0.1-6.4,0-9.7c0-1.3-0.7-3.2,0.9-3.6c1.7-0.5,4.2-1.1,5.2,0.3c1.4,1.9,1.9,1.5,3.6,0.4
			c6.7-4.3,14.4-0.1,14.8,7.9c0.2,5.1-0.1,10.1,0.1,15.2c0.1,2.8-1.3,3.3-3.6,3.3c-2.6,0-4-0.5-3.8-3.5c0.2-4.4,0.1-8.9,0-13.3
			c-0.1-3-1.4-5.1-4.7-5c-3.1,0-4.9,1.9-5,4.9c-0.2,4.4-0.3,8.9-0.2,13.3c0.1,2.8-0.9,3.7-3.7,3.7c-2.8,0-3.8-0.9-3.6-3.7
			C-1.3,387.1-1.4,383.7-1.4,380.3C-1.4,380.3-1.4,380.3-1.4,380.3z"/>
		<path class="st3" d="M-107.6,471.2c0,2.5-0.1,4.9,0,7.4c0.2,3.2-1.1,4.2-4.3,4.3c-3.6,0.2-3.1-2.1-3.1-4.1c0-4.3-0.1-8.6,0-12.9
			c0-3.2-1-5.5-4.5-5.7c-3.7-0.2-5.3,2.3-5.5,5.5c-0.3,4.1-0.3,8.3-0.1,12.4c0.1,2.9-0.5,3.9-3.7,4c-3.5,0.1-3.6-1.6-3.6-4.2
			c0.1-6.4,0-12.9,0-19.3c0-1.4-0.9-3.5,1.4-3.7c1.8-0.2,4.3-1.1,5.4,1.1c0.8,1.5,1.1,1,2.2,0.4c8.6-5,15.5-1,15.6,9
			C-107.6,467.2-107.6,469.2-107.6,471.2C-107.6,471.2-107.6,471.2-107.6,471.2z"/>
		<path class="st3" d="M-37.4,468.5c0-3.4-0.1-6.8,0-10.1c0-1.3-0.7-3.2,1.2-3.5c1.8-0.3,4.3-1.4,5.4,0.9c1,2.1,1.5,1,2.5,0.3
			c7.6-4.8,15-1.1,15.4,7.9c0.2,4.9-0.1,9.8,0.2,14.8c0.2,3.5-2.1,3-4.2,3.2c-2.5,0.2-3.2-0.7-3.2-3.1c0.1-4.3-0.1-8.6,0-12.9
			c0.1-3.2-1.1-5.5-4.5-5.7c-3.7-0.2-5.3,2.2-5.4,5.5c-0.2,4.3-0.3,8.6,0,12.9c0.2,3.2-1.5,3.3-3.9,3.4c-2.6,0.1-3.6-0.7-3.4-3.4
			C-37.2,475.3-37.3,471.9-37.4,468.5C-37.3,468.5-37.3,468.5-37.4,468.5z"/>
		<path class="st3" d="M29.1,380.4c0-3.1-0.1-6.1,0-9.2c0.1-1.4-0.9-3.6,0.9-4.1c1.9-0.5,4.5-1.3,5.9,0.9c0.9,1.5,1.2,1.1,2.2,0.3
			c3.5-2.8,7.4-2.6,11.2-0.7c3.9,1.9,4.5,5.5,4.5,9.4c0,4.6-0.1,9.2,0.1,13.8c0.1,3.2-1.6,3.4-4,3.4c-2.5,0-3.6-0.6-3.5-3.4
			c0.2-4.3,0.1-8.6,0.1-12.9c0-3.1-1.2-5.5-4.7-5.6c-3.3,0-5.1,2.1-5.2,5.2c-0.2,4.4-0.3,8.9-0.1,13.3c0.1,2.9-1.3,3.2-3.6,3.2
			c-2.2,0-3.9-0.1-3.7-3.1C29.3,387.4,29.2,383.9,29.1,380.4C29.1,380.4,29.1,380.4,29.1,380.4z"/>
		<path class="st3" d="M-28.5,438.9c-4.6-0.1-8.4-0.5-11.2-3.7c-1.3-1.5-2.9-4.2-1.5-5.2c1.8-1.3,5.1-2,6.9,0.8
			c1.7,2.5,4,2.6,6.5,2.5c1.6-0.1,3.3-0.5,3.5-2.3c0.2-1.7-1.4-2.1-2.8-2.5c-2.8-0.8-5.6-1.6-8.4-2.4c-3-0.9-5.1-2.9-5.4-6.2
			c-0.2-3.3,1.2-6,4-7.8c4.3-2.7,12.2-2.4,16.2,0.7c1.9,1.5,3.9,4.1,2.3,5.7c-1.3,1.4-4.8,1.8-6.9-0.8c-0.6-0.7-1.3-1.6-2-1.7
			c-2.2-0.5-5.2-1.3-6.1,1.4c-0.9,2.7,2.1,2.8,3.9,3.3c2.2,0.7,4.5,1.2,6.6,1.9c3.4,1.2,5.9,3.3,5.9,7.3c0,4.1-2.3,6.5-5.8,8
			C-24.8,438.7-27,438.9-28.5,438.9z"/>
		<path class="st3" d="M-132.3,424.4c0-3.2-0.1-6.5,0-9.7c0-1.3-0.8-3.1,1-3.6c1.8-0.5,4.6-1.2,5.6,0.4c1.2,1.7,1.3,1.4,2.8,0.5
			c7.5-4.5,15.1-0.3,15.4,8.4c0.1,4.8-0.2,9.5,0.1,14.3c0.2,3.3-1.6,3.2-4,3.4c-2.6,0.2-3.6-0.6-3.5-3.3c0.2-4.1,0-8.3,0-12.4
			c0-3.2-0.7-6-4.6-6.1c-3.9,0-5.3,2.5-5.4,6c-0.1,4-0.2,8,0,12c0.1,2.7-0.5,3.8-3.5,3.8c-3.2,0.1-4-1.2-3.8-4
			C-132.2,430.8-132.3,427.6-132.3,424.4C-132.3,424.4-132.3,424.4-132.3,424.4z"/>
		<path class="st3" d="M-46.4,424.1c0,3.4,0.1,6.8-0.1,10.1c-0.1,1.3,0.8,3.6-1.6,3.6c-1.7,0-4.1,1.5-5.1-1.3c-0.7-2-1.5-0.5-2.2,0
			c-8.9,5.1-15,1.7-15.4-8.6c-0.1-4.6,0.1-9.2-0.1-13.8c-0.1-2.7,0.9-3.3,3.4-3.3c2.5,0,4.1,0.3,4,3.4c-0.2,4.4,0,8.9,0,13.4
			c0,2.8,1,4.9,4.1,5c3.1,0.1,5.2-1.4,5.4-4.5c0.3-4.6,0.4-9.2,0.2-13.8c-0.1-3.1,1.3-3.4,3.9-3.5c2.9-0.1,3.8,0.8,3.5,3.7
			C-46.6,417.6-46.4,420.9-46.4,424.1C-46.4,424.1-46.4,424.1-46.4,424.1z"/>
		<path class="st3" d="M-75.9,374.2c1.1-2,2-3.6,2.9-5.2c1.1-1.8,6.6-3.2,8.2-2.1c1.1,0.8,0.4,1.6-0.1,2.3c-1.8,2.7-3.5,5.4-5.5,8
			c-1.5,2-1.5,3.7,0,5.7c2,2.7,3.8,5.6,5.6,8.4c1.2,1.8,1.2,2.5-1.4,2.7c-3.9,0.3-6.9-0.4-8.3-4.5c-0.4-1.1-1.3-2-2.1-3.3
			c-1.1,1.8-2.3,3.3-3,5c-1.8,4.2-5.3,2.9-8.3,2.8c-1.8-0.1-0.9-1.6-0.4-2.4c1.8-2.7,3.5-5.4,5.5-7.9c1.8-2.2,2.1-4,0.2-6.4
			c-2.3-3-4.2-6.3-6.3-9.6C-82.1,365.9-82.1,365.9-75.9,374.2z"/>
		<path class="st3" d="M-54.2,381.4c0.2,2.6,0,5.9,3.8,7.1c2.4,0.8,4.6,0.2,5.8-2.3c0.5-1,0.7-2.1,2.1-2c1.8,0.1,4-1,5.1,0.8
			c0.9,1.4-0.4,3.3-1.3,4.7c-3.1,4.6-7.7,5.8-12.9,5.1c-4.9-0.7-8.1-3.5-9.3-8.3c-1.5-6.4-1.5-12.8,3.9-17.4
			c4.5-3.9,9.9-3.2,15.2-1.1c1.8,0.7,3.1,2,3.8,3.8c0.6,1.5,2.3,3.4,0.5,4.5c-1.8,1.1-5,1.5-6.3-0.4c-2-2.8-3.8-4.4-7.1-2.8
			c-3.2,1.5-2.9,4.7-3.1,7.6C-54.2,380.6-54.2,380.8-54.2,381.4z"/>
		<path class="st3" d="M-100.8,469.5c0-2,0-4,0-6c0-1.7,0.2-3.1-2.2-3.7c-2.6-0.7-2.3-3.9-0.6-4.4c3-0.9,3-2.6,2.8-4.8
			c-0.3-3.1,1.5-3.4,4-3.4c2.8-0.1,3.4,1.2,3.2,3.6c-0.2,2.2-0.4,4.4,3,4.2c1.5-0.1,1.5,1.2,1.5,2.3c0,1.3,0,2.7-1.7,2.6
			c-3.3-0.2-2.8,2-2.8,3.9c0,2.6,0,5.2,0,7.8c0,2.4-0.6,5,3.2,5.3c2,0.2,1.1,2.2,1.2,3.4c0.1,1.5-1,1.6-2.1,1.8
			c-6.6,1.1-9.4-1.3-9.5-8.1C-100.8,472.6-100.8,471-100.8,469.5z"/>
		<path class="st3" d="M-11.1,425.2c0-2,0-4,0-6c0-1.6-0.1-2.6-2.2-3.3c-2.6-0.9-2.5-4-0.4-4.6c3-0.8,2.7-2.5,2.6-4.4
			c-0.3-3,1.1-3.5,3.8-3.5c2.7,0,3.6,0.9,3.3,3.5c-0.3,2.2-0.3,4.3,3.1,4.2c1.7-0.1,1.4,1.7,1.5,2.8c0,1.2-0.2,2.1-1.6,2.3
			c-0.8,0.1-1.7,0-2.2,0.4c-2.2,1.7-0.5,15.7,2.1,16.3c2.1,0.5,1.6,1.8,1.7,3.1c0.1,1.9-0.9,2.2-2.5,2.4c-6.4,0.8-9.1-1.6-9.2-8.1
			c0-1.7,0-3.4,0-5.1C-11.2,425.2-11.1,425.2-11.1,425.2z"/>
		<path class="st3" d="M23.3,469.2c0-2,0-4,0-6c0-1.6,0-2.7-2.1-3.3c-2.8-0.8-2.7-4-0.8-4.6c3-0.9,3.1-2.5,2.8-4.7
			c-0.3-2.7,1-3.4,3.5-3.4c2.4,0,3.8,0.5,3.6,3.3c-0.2,2.1-0.7,4.6,2.8,4.5c1.5,0,1.6,1.1,1.6,2.3c0,1.2,0.2,2.7-1.6,2.7
			c-3.1-0.1-2.9,1.8-2.9,4c0.1,2.9,0,5.8,0,8.8c0,2.1,0,4,2.9,4.3c2.1,0.2,1.4,2,1.5,3.3c0.2,1.7-1,2-2.3,2.1
			c-6.8,0.2-9.3-1-9.1-7.5C23.3,472.9,23.3,471,23.3,469.2C23.3,469.2,23.3,469.2,23.3,469.2z"/>
		<path class="st3" d="M11.9,413.9c1.3-1,2.1-2,3.1-2.5c1.4-0.8,3.2-1.9,4.7-0.8c1.5,1.1,0.6,3.1,0.7,4.7c0.1,2.3-1.8,2.1-3.2,2.3
			c-3.6,0.3-5.1,2.5-5.3,5.8c-0.2,3.8-0.3,7.7-0.2,11.5c0.1,2.7-1.1,3.4-3.6,3.3c-2.3-0.1-3.7-0.4-3.7-3.3c0.1-6.6-0.1-13.2,0-19.7
			c0-1.6-1-4.1,1.9-4.3C8.7,410.7,11.7,409.8,11.9,413.9z"/>
		<path class="st3" d="M-146.3,463.7c0-5.2,0.2-10.4-0.1-15.6c-0.2-3.4,1.8-3.1,4-3.2c2.5-0.1,3.6,0.5,3.6,3.3
			c-0.2,10.1-0.2,20.3,0,30.4c0.1,3.1-1.4,3.3-3.9,3.5c-2.8,0.1-3.8-0.6-3.6-3.5C-146.2,473.5-146.3,468.6-146.3,463.7z"/>
		<path class="st3" d="M-146.4,419.8c0-4.9,0.2-9.9-0.1-14.8c-0.1-2.9,0.8-3.8,3.6-3.6c2.4,0.1,4,0.1,3.9,3.4
			c-0.2,9.8-0.2,19.7,0,29.5c0.1,3.3-1.6,3.1-3.9,3.3c-2.9,0.2-3.8-0.6-3.6-3.5C-146.2,429.4-146.3,424.6-146.4,419.8
			C-146.3,419.8-146.3,419.8-146.4,419.8z"/>
		<path class="st3" d="M73.4,419.7c0,5.1-0.1,10.1,0.1,15.2c0.1,2.9-1.5,2.9-3.5,2.8c-1.8-0.1-4.1,0.7-4-2.7
			c0.1-10.3,0.1-20.5,0-30.8c-0.1-3.4,2.1-2.5,3.9-2.7c2.2-0.1,3.8-0.1,3.6,3C73.2,409.6,73.4,414.7,73.4,419.7
			C73.4,419.7,73.4,419.7,73.4,419.7z"/>
		<path class="st3" d="M-49.9,458.5c1.7-1.5,2.5-2.4,3.4-3.1c1.4-0.9,3.2-1.9,4.7-1c1.7,1.1,0.7,3.4,0.8,5.1c0.1,2.2-1.8,1.6-3,1.7
			c-3.7,0.5-5.3,2.7-5.3,6.3c0,3.8-0.2,7.7,0,11.5c0.2,2.9-1.5,2.8-3.4,2.8c-2,0-4,0.5-3.9-2.8c0.2-6.7,0-13.5,0.1-20.2
			c0-1.7-0.9-4.1,2.1-4.2C-52.4,454.7-49.2,453.4-49.9,458.5z"/>
		<path class="st3" d="M31.1,424.5c0,3.1-0.1,6.1,0,9.2c0.1,2.5,0,4.3-3.5,4.4c-3.7,0.1-3.9-1.7-3.9-4.5c0.1-6.6,0.2-13.2,0-19.8
			c-0.1-3.1,1.6-3,3.7-3.1c2.3,0,3.8,0.2,3.7,3.2C31,417.4,31.2,421,31.1,424.5C31.2,424.5,31.1,424.5,31.1,424.5z"/>
		<path class="st3" d="M27.4,407.4c-2.6,0.5-3.6-0.5-3.6-3.1c0-2.9,1.2-3.5,3.9-3.4c2.5,0,3.4,0.6,3.5,3.3
			C31.3,407.2,29.9,407.8,27.4,407.4z"/>
	</g>
</g>
<text transform="matrix(1 0 0 1 97.1789 55.9613)"><tspan x="0" y="0" class="st5 st6 st7">CLOUD</tspan><tspan x="220.9" y="0" class="st6 st7"> </tspan><tspan x="234.8" y="0" class="st8 st6 st7">IMS</tspan></text>
<g id="_x38_piKwq.tif">
	<g>
		<g>
			<path class="st5" d="M76.6,27.1c1,0.1,2,0,3,0.2c5.1,0.9,8.6,4.3,10.5,9.8c1.9,5.6,1.4,11.1-1.7,16.1c-2.7,4.4-6.5,6.5-11.2,6.3
				c-2.1-0.1-4.2,0-6.3,0c-16.1,0-32.1,0-48.2,0c-4.7,0-8.9-1.7-12.2-5.6C5,47.7,5.3,37.9,11,32.1c1.6-1.7,3.5-3,5.6-3.8
				c0.4-0.1,0.5-0.3,0.5-0.8C17.4,17,23.9,8.3,32.5,5.8c7.8-2.3,14.7-0.3,20.6,5.9c0.5,0.6,1,1.2,1.5,1.8c0.2,0.3,0.5,0.4,0.8,0.3
				c5.5-1.6,10.6-0.7,15.2,3.2c2.9,2.5,4.9,5.8,5.8,9.8C76.5,26.9,76.6,27,76.6,27.1z M51.1,24.4c-0.5-0.8,2.1-6.5-5.1-10.6
				c-5.2-2.9-12.8-3.9-16.9-0.6c-12.8,10.2-6,20.1-6.1,20.2c-0.3,0.1-4.8,0-8.2,4.4c-4.4,4.6-3.4,10.7,2.4,13.3
				c6.7,4.2,13.4,2.6,17.1,2.6c13.4,1.6,24.6,0.9,33.7-0.9c2.1,0,10.7,1.8,15.7-3.9c3.8-3.5,5-5.3,3-10.6c-1.8-5-6.4-8.5-11.7-6.7
				c-0.4,0.1-3.5,2.3-4,2.5c0.6-6.4,0.3-8.6-4.1-11.4C59.9,17.2,55.6,22,51.1,24.4z"/>
			<path class="st5" d="M35.1,13.9c0.3,0.5,5,1.5,5.3,2c-4.4,3.8-10,10.4-9.7,17c-0.5,0.1-2.3-2-2.8-1.9
				C26.3,26.6,30.1,17.7,35.1,13.9z"/>
		</g>
	</g>
</g>
</svg>
