<?xml version="1.0" encoding="utf-8"?>
<!-- Generator: Adobe Illustrator 24.3.0, SVG Export Plug-In . SVG Version: 6.00 Build 0)  -->
<svg version="1.1" id="Layer_1" xmlns="http://www.w3.org/2000/svg" xmlns:xlink="http://www.w3.org/1999/xlink" x="0px" y="0px"
	 viewBox="0 0 152 152" style="enable-background:new 0 0 152 152;" xml:space="preserve">
<style type="text/css">
	.st0{fill:#7E7E7E;}
	.st1{fill:#9D9E9E;}
</style>
<g>
	<path class="st0" d="M-161.5,184.4c5.5-0.3,8.8-6.6,5.8-11.3c-1.6-2.6-0.4-4,1.3-5.7c1.8-1.8,3.3-2.1,5.5-0.5
		c3,2.4,9.8-0.2,10.8-3.9c1-3.5,4.7-5.2,7.9-3.4c0.7,0.4,1.2,1.5,1.3,2.3c0.7,4.6,6.6,7.8,10.6,5.5c2.5-1.4,4.1-1.3,6,0.8
		c1.8,2,2.2,3.8,0.6,6.2c-1.9,2.8,1.3,9.4,4.6,10.1c3,0.6,4.2,2.2,3.9,5.2c-0.3,2.6-1,4.4-4.3,4.3c-1-0.1-2.3,1.1-3,2.1
		c-0.9,1.4-1.7,3.1-1.9,4.8c-0.1,1.4,0.6,3.1,1.4,4.3c1.5,2.1,0.6,3.5-0.9,4.8c-1.5,1.3-2.7,3.8-5.5,2c-4.7-3.1-10.6-0.6-12.1,4.9
		c-0.2,0.6-0.3,1.2-0.5,1.8c-2.7,0-5.4,0-8.1,0c-0.3-1.9,0-4.5-1.2-5.5c-1.8-1.6-4.5-2.5-7-3.1c-1.1-0.3-2.6,0.9-3.8,1.6
		c-2.6,1.6-4-0.3-5.6-1.8c-1.4-1.4-1.9-2.6-0.7-4.5c3.3-4.9,0.4-11-5.4-11.9C-161.5,190.3-161.5,187.3-161.5,184.4z M-122,189
		c0-6.2-5.3-11.4-11.6-11.4c-6.2,0-11.3,5.1-11.3,11.2c0,6.2,5.4,11.7,11.5,11.6C-127.4,200.3-122,194.9-122,189z"/>
</g>
<g id="w2lkRm_1_">
	<g>
		<path class="st0" d="M318-272c1.3,0.5,2.7,1.1,4.9,1.9c-6.8,7-13.3,13.6-19.7,20.4c-4.9,5.2-4.9,8.2-0.2,13.2
			c6.2,6.8,12.5,13.5,18.8,20.1c4.6,4.8,7.4,4.8,12-0.1c6.2-6.5,12.3-13.1,18.4-19.7c0.1-0.1,0.3,0,1.6,0c0,4.1,0.5,8.3-0.1,12.3
			c-1.9,12.3-6.7,23.2-14.4,32.6c-8.7,10.7-19.4,13.7-31.7,7.8c-5.6-2.7-9.6-3.4-13.1,3.2c-7.1-7.7-14.7-10.9-23.9-4
			c-3.5-4.1-7-8.2-11.3-13.2c5.5-5.2,10.7-10.2,15.2-14.6c-2.2-6.6-4.3-11.9-5.7-17.4c-2.6-10.4,0.5-19.2,8-26
			c8.7-7.9,18.8-12.9,30-15.5c1.2-0.3,2.4-0.7,3.6-1.1C312.9-272,315.5-272,318-272z"/>
		<path class="st0" d="M260.7-202.9c4.3,4.6,8.1,8.7,11.9,12.7c-4.9,10.5-4.6,13.2,3.9,25.9c-3.8,3.6-7.8,7.4-11.9,11
			c-2.9,2.5-3.5,5.2-2.9,9.1c2.9,17.6-5.5,34.3-20.4,41.3c-14.9,7-32.6,2.7-42.6-11c-9.3-12.7-10.6-26.9-3.9-41.4
			c6.8-14.6,18.6-21.3,33.7-20.5c5.2,0.3,8.8-0.8,12.2-5C247-188.3,253.9-195.4,260.7-202.9z M223.7-118.4
			c4.9-1.6,12.2-1.7,15.9-5.6c3.7-3.9,6.4-12.8,4.7-17.5c-2.3-6.3-8.4-12.9-14.3-15.3c-4.4-1.8-12.7,1.1-16.4,5
			c-3.7,3.9-3.9,11.6-5.2,17.8C207.7-131.3,220.3-118.3,223.7-118.4z"/>
	</g>
</g>
<path class="st1" d="M32.8,39.8c-4.2-4.2-8-8.2-14.5-4.7C13.8,27.3,9.5,20,5.2,12.5c2.3-2.5,4.5-5,6.7-7.5c0.3,0,0.6,0,0.9,0
	c7.3,4.3,14.6,8.7,21.9,13c0,0.3,0.2,0.6,0.1,0.9c-1.6,5.1-0.2,8.8,3.8,12.7c15.6,15.1,30.9,30.7,46.6,46.4c1.1-1,2.1-1.9,3-2.9
	c2.1-2.1,4.5-3.3,7.3-1.6c2.7,1.7,5.1,3.7,4.5,7.5c-0.5,3.9,4,9.4,7.8,9.2c4.1-0.2,7.1,1.5,9.8,4.2c9.7,9.8,19.4,19.6,29.1,29.4
	c5.9,6,6,15,0.5,21.2c-6.1,7-15.7,8.8-22,3c-11.4-10.4-22.2-21.6-33.1-32.6c-1-1-1.9-2.8-1.8-4.2c0.4-5.3-3.2-8.1-6.5-11.2
	c-5.1,1.7-8,0.9-10.7-3.6c-3.3-5.5,2.1-7.7,4.7-11.2c-0.8-0.9-1.6-1.9-2.4-2.7 M103.5,100.3c-0.9,0.9-2.3,1.6-2.4,2.4
	c-0.1,1.2,0.5,2.8,1.3,3.6c10.4,10.6,21,21.1,31.5,31.6c1.5,1.5,3.4,3,4.9,0.7c0.6-1,0.1-3.6-0.9-4.6c-10.4-10.7-21-21.1-31.5-31.6
	C105.7,101.6,104.7,101.1,103.5,100.3z"/>
<path class="st1" d="M30.2,117L30.2,117c-2.9-3-2.9-7.9,0.1-10.8l65.9-64.5c3-2.9,7.9-2.9,10.8,0.1l0,0c2.9,3,2.9,7.9-0.1,10.8
	L41,117.1C38,120.1,33.1,120,30.2,117z"/>
<path class="st1" d="M36.5,110.9c-8.2-8.4-21.6-8.5-30-0.3c-8.4,8.2-8.5,21.6-0.3,30s21.6,8.5,30,0.3
	C44.5,132.7,44.6,119.3,36.5,110.9z M19.7,134l-6.6-4.6l0.7-8.1l7.3-3.4l6.6,4.6l-0.7,8.1L19.7,134z"/>
<path class="st0" d="M-13.2-103.3l35.6-36c8.4,4.2,19.2,2.5,26.6-5c6.2-6.3,16-18.6,6.3-22.6l-15.4,15.6c-1.7,1.8-4.5,1.9-6.2,0.2
	l-8.7-8.6c-1.6-1.6-1.6-4.4,0.2-6.2l15.4-15.6c-5.6-6.4-16.3,0.3-22.5,6.5c-7.4,7.5-9,18.3-4.7,26.6l-35.6,36
	c-6.7-2.6-15.1-0.8-21,5.2c-7.7,7.8-8.3,19.6-1.4,26.5s18.8,6.1,26.5-1.7C-12.2-88.2-10.5-96.6-13.2-103.3z M-32-84.3l-8.2-5.3
	l1.3-10.4l9.6-5.1l8.2,5.3l-1.3,10.4L-32-84.3z"/>
<path class="st1" d="M143.5,23.4l-14.2,13.7c-2.6,2.5-6.3,3-8.2,1l-10.3-10.5c-1.9-2-1.4-5.7,1.2-8.2l14.2-13.7
	c-6.4-7.9-21.7,2.1-30.9,11.2C81.7,30,79.1,49,89.1,59.3s29.1,8,42.6-5.1C140.9,45.1,155.8,27.7,143.5,23.4z M115.6,43.7l-12.9-12.7
	l3.1-2.5l12.6,12.7L115.6,43.7z"/>
</svg>
