<?xml version="1.0" encoding="utf-8"?>
<!-- Generator: Adobe Illustrator 24.3.0, SVG Export Plug-In . SVG Version: 6.00 Build 0)  -->
<svg version="1.1" id="Layer_1" xmlns="http://www.w3.org/2000/svg" xmlns:xlink="http://www.w3.org/1999/xlink" x="0px" y="0px"
	 viewBox="0 0 1000 1000" style="enable-background:new 0 0 1000 1000;" xml:space="preserve">
<style type="text/css">
	.st0{display:none;}
	.st1{display:inline;}
	.st2{fill:#FCFAFA;}
	.st3{fill:#EFABB8;}
</style>
<g id="Layer_1_1_" class="st0">
	<g class="st1">
		<path class="st2" d="M475,0c16.7,0,33.3,0,50,0c0.7,1.4,2,0.9,3.1,0.9c13.6,0.8,27.2,2.1,40.8,3.9c76,10.4,146.3,36.3,209.5,79.8
			c126,86.6,199.1,206,218.9,357.8c0.9,7.2,0.7,14.5,2.7,21.6c0,24.7,0,49.3,0,74c-1.3,0.7-0.9,2-1,3.1c-1.4,17.3-3.7,34.4-6.9,51.5
			c-19.4,102-65.8,189.9-139.6,262.8C764.8,941.9,658.9,989.5,536,999.2c-1.3,0.3-2.5,0.8-3.8,0.8c-22.4,0-44.9-0.1-67.3-0.1
			c-0.8-1.2-2.1-0.8-3.2-0.9c-19.1-1.6-38.1-3.9-56.9-7.8C268.2,963.1,160.7,891,83,775.3c-50.4-75-76.9-158.5-81.9-248.8
			C1,525.3,1.7,523.8,0,523c0-4,0-8,0-12c0.3-8.7,1-17.3,0-26c0-2.7,0-5.3,0-8c1.9-1.1,1-3,1.1-4.5c2.8-46.3,11.5-91.4,26.6-135.3
			C92.2,149.4,262.8,17.4,461,1.7C465.6,1.3,470.5,2.1,475,0z M500.3,835.7c48.7,0,94.8-9.8,139.5-33.7
			c101.5-54.3,158.7-139.2,167.7-254.1c6.4-81.3-18.7-153.8-70.3-217c-23.5-28.8-51.8-52.2-84.1-70.7c-12.3-7-26.9-4.5-35.9,5.9
			c-8.7,10-9.1,24.7-1.2,35.6c3.9,5.3,9.6,8.1,15,11.4c88,52.6,136.1,159.6,116.7,259.9c-26.9,139.2-158.1,227.9-297,200.9
			c-120.3-23.4-207.8-135.6-200.9-258.1c4.3-75.3,36.4-136.7,94.6-184.6c10.2-8.4,21.3-15.4,32.6-22.2c10.4-6.3,15.1-16,13.5-28
			s-8.6-20-20.3-23.6c-9.7-3-18.2,0.3-26.5,5.3C234.2,328,176.4,452.1,196.8,578.2C220.7,725.7,350.4,835.7,500.3,835.7z
			 M532.1,284.6c0-29.3,0-58.6,0-87.9c0-2.6-0.1-5.4-0.7-7.9c-3.9-17-18.8-26-39-23.6c-15.5,1.8-26.8,14.7-26.8,30.9
			c-0.1,59.1,0,118.2,0,177.4c0,2.8,0.3,5.7,1,8.4c3.8,15,16.2,23.2,34.2,23c18.4-0.3,31.3-13.3,31.3-31.7
			C532.1,343.6,532.1,314.1,532.1,284.6z"/>
	</g>
</g>
<g id="Layer_2_1_" class="st0">
	<g id="yc79AF.tif" class="st1">
		<g>
			<path d="M499.8,562.2c-137.7,0-249.7-112-249.8-249.8c0-138.2,112.2-250.2,250.5-250.1c137.6,0.2,249.4,112.4,249.3,250.3
				C749.7,450.4,637.6,562.3,499.8,562.2z"/>
			<path d="M507.4,937.8c-84.6-1.9-161-8.2-234.3-34c-20.6-7.3-40.2-18.2-58.7-30.1c-19.2-12.3-28.1-31.3-27.1-55
				c1.4-36.5,3.6-72.8,14-108c11.2-38,32.7-69.5,62.9-94.4c26.3-21.7,53.9-41.9,81.3-62.3c2.2-1.7,7.9-0.9,10.7,0.8
				c44.6,25.8,92.6,39.2,144.2,39c50.9-0.1,98.4-13,142.1-39c5.6-3.3,9.2-3.4,14.4,0.7c24.3,19,49.4,37.2,73.6,56.4
				c46.9,37.2,71.2,86.9,77.6,145.8c2.2,20.7,2.7,41.5,4.1,62.3c1.6,22.1-7.2,40.2-24.9,52.1c-17.3,11.7-36,22.3-55.5,29.9
				c-48.8,19.1-100.4,26.7-152.3,31.4C553.2,935.8,526.5,936.7,507.4,937.8z"/>
		</g>
	</g>
</g>
<g id="Layer_3">
	<g id="Dulr9D_1_">
		<g>
			<path class="st3" d="M327.7,503.2C260,435.8,197.1,373.1,134.3,310.4c-25.5-25.4-25.4-37.2,0.2-62.8
				c38.2-38.3,76.4-76.5,114.7-114.6c23.6-23.5,36.4-23.6,59.7-0.3C372,196,435.2,259.5,500.5,325c47.8-48.4,94.5-95.6,141.2-142.8
				c17.7-17.9,35.3-35.9,53.4-53.4c18.8-18.2,33.1-18.2,51.7,0.2c41.6,41.1,83,82.5,124.1,124.1c18.9,19.1,18.5,33.6-1.2,53.3
				c-59,59.3-118.2,118.4-177.5,177.3c-5.1,5.1-12.3,8.1-19.9,13c67.7,67.5,130.6,130.1,193.4,192.8c25.5,25.4,25.4,37.2-0.2,62.8
				c-38.2,38.3-76.4,76.5-114.7,114.6c-23.6,23.6-36.2,23.6-59.6,0.2C628,803.9,564.9,740.5,499.5,674.9
				c-47.8,48.4-94.5,95.6-141.2,142.8c-17.7,17.9-35.3,35.9-53.4,53.4c-18.8,18.2-33.1,18.2-51.7-0.2
				c-41.6-41.1-83-82.5-124.1-124.1c-18.9-19.1-18.5-33.6,1.2-53.3c59-59.3,118.2-118.4,177.5-177.3
				C313,511.1,320.1,508.1,327.7,503.2z"/>
		</g>
	</g>
</g>
</svg>
