<?xml version="1.0" encoding="utf-8"?>
<!-- Generator: Adobe Illustrator 24.1.2, SVG Export Plug-In . SVG Version: 6.00 Build 0)  -->
<svg version="1.1" xmlns="http://www.w3.org/2000/svg" xmlns:xlink="http://www.w3.org/1999/xlink" x="0px" y="0px"
	 viewBox="0 0 476.8 501.2" style="enable-background:new 0 0 476.8 501.2;" xml:space="preserve">
<style type="text/css">
	.st0{fill:#129FDA;}
	.st1{fill:#FFFFFF;}
</style>
<g id="Layer_1">
	<g id="Pt8fsg_3_">
		<g>
			<path class="st0" d="M476.8,4.6c-12.1,43.8-22.2,90.6-47.8,114.3c-102.5,94.9-9.6,24.6-11.3,35.3c-5.9,37.6-39.7,92.5-103.6,117
				c-8.1,3.1,54.7-12.3,55.5-1.7c1.7,23.1-85.9,42-93.2,46.1c-22.8,12.8,64.7,3.3,58.6,9.6c-12.1,12.4-23,31.8-68.4,33.8
				c-29.6-1.7-41.2-8-46.2-11.6c-1.7,6.8-13.2,10.4-14.6,16.6c-0.8,3.6,21.3,18,23.8,21c11.8,14.8,20.5,18.9,30.3,23.1
				c19.7,12.4,83.1,14.8,93.8,25.9c5.8,6-15.2,3.6-32.8,12.1c-4.2,9.5-2.4,8.1-6.9,11c-1,0.6-15.6,11.6-16.8,11.8
				c-9.9,0.8-29.6-26.7-39.5-26.4c-5.6,0.2,15.7,19.6,11.8,23.1c-9.9,8.9-25.6,20.1-34.3,10.6c-1.6-1.7-11.6-24.5-13-26.4
				c-0.6,0.3,7.7,21.3,7.1,21.6c-1.3,3.2-2.5,6.5-3.9,9.6c-1.9,4.4-3.4,4.9-7.5,2.5c-9.5-5.6-19.7-60.6-54.5-58.2
				c-38,2.5-49.6,48.1-59.3,48.5c5,4.9,8.9,9.5,6.3,15.7c-0.8,1.9-3.4,3.1-5.6,5c-0.8-3.7-1.1-6.4-2.1-8.8c-1.4-3.4-4-5.6-8.2-4.9
				c-4.2,0.7-24.4,1.5-29.4,1.1c-6.6-0.5-11.8,2.4-16.1,6.7c-3.4,3.4-2.7,6.2,1.9,9.6c-3,3.3-6.5,3.6-10.3,1.7
				c-3.6-1.8-5.2-6.7-3.5-11.1c4.1-10.1,11.2-17.5,22.2-20c10.2-2.3,20.7-3.7,31-5.8c1.2-0.2,3.1-1.9,3.1-2.9
				c-0.5-10.6,3.8-20,7.7-29.5c2.1-5.1,4-10.4,6.2-16c-5-10.6-12.9-3.9-15.7,5.7c-4,13.8-13.5-75.7-16.6-82
				c-5.4-10.7-12.7-16.8-29.6-4.2c-1.2,0.2-5.8,10.9-6.7,11.7c-6.8,5.4-11.3,12.1-12.8,20.6c-0.2,1.4-1.2,2.6-1.9,3.9
				c-1.3-0.8-3-1.2-3.8-2.3c-6.2-7.9-8.1-17.4-10.1-26.7c-3-13.7-1.4-26.6,8.3-37.7c6.9-7.9,15.6-13.8,25-18.6
				c3.5-1.8,7.1-3.4,11-5.3c27.4-6.4,73.8,2.4,74.4,4.8c54.3-18,88.5-52.6,98.7-67c6.2-8.7,43.5-94.6,31.7-186.7
				C256.2,10.3,309,38.8,296,141c0,0.3,15.4-21.9,12.7-121.6C345.9,19.4,481.2-11.3,476.8,4.6z"/>
		</g>
	</g>
	<g id="Pt8fsg_1_">
		<g>
			<path class="st0" d="M1339.9-376.8c-0.1,0.4,33.9-112.1,35.5-111.5c23.7,9.3,27.2,36.3,20.3,54.1c-15.4,39.6-31.9,54-33,55.7
				c4.2-0.5,47.2-43.6,45.8-40.8c0,25.8-28.8,87.3-93.9,128.7c-13.5,21,48.2-25.3,65.9-32.9c3.3,46.5-53.3,59-61.4,69.3
				c-5.4,6.9,54.7-12.3,55.5-1.7c1.7,23.1-85.9,42-93.2,46.1c-22.8,12.8,64.7,3.3,58.6,9.6c-12.1,12.4-23,31.8-68.4,33.8
				c-29.6-1.7-41.2-8-46.2-11.6c-1.7,6.8-13.2,10.4-14.6,16.6c-0.8,3.6,21.3,18,23.8,21c11.8,14.8,20.5,18.9,30.3,23.1
				c19.7,12.4,83.1,14.8,93.8,25.9c5.8,6-29.4,4.4-32.8,12.1c-4.2,9.5-2.4,8.1-6.9,11c-1,0.6-15.6,11.6-16.8,11.8
				c-9.9,0.8-29.6-26.7-39.5-26.4c-5.6,0.2,15.7,19.6,11.8,23.1c-9.9,8.9-25.6,20.1-34.3,10.6c-1.6-1.7-11.6-24.5-13-26.4
				c-0.6,0.3,7.7,21.3,7.1,21.6c-1.3,3.2-2.5,6.5-3.9,9.6c-1.9,4.4-3.4,4.9-7.5,2.5c-9.5-5.6-19.7-60.6-54.5-58.2
				c-38,2.5-49.6,48.1-59.3,48.5c5,4.9,8.9,9.5,6.3,15.7c-0.8,1.9-3.4,3.1-5.6,5c-0.8-3.7-1.1-6.4-2.1-8.8c-1.4-3.4-4-5.6-8.2-4.9
				c-4.2,0.7-24.4,1.5-29.4,1.1c-6.6-0.5-11.8,2.4-16.1,6.7c-3.4,3.4-2.7,6.2,1.9,9.6c-3,3.3-6.5,3.6-10.3,1.7
				c-3.6-1.8-5.2-6.7-3.5-11.1c4.1-10.1,11.2-17.5,22.2-20c10.2-2.3,20.7-3.7,31-5.8c1.2-0.2,3.1-1.9,3.1-2.9
				c-0.5-10.6,3.8-20,7.7-29.5c2.1-5.1,4-10.4,6.2-16c-5-10.6-12.9-3.9-15.7,5.7c-4,13.8-24.8,12.2-38.4,15.6
				c-1.2,0.3-2.4,0.8-3.6,1.2c0.2,6.6,2.4,13.5-2.6,18.9c-2.8,3.1-13.2,0.8-10.7-3.1c2.9-4.6,2.7-12.9-0.1-16
				c-0.5-0.5-9.7-2.7-11.1-3.6c-3.3-2.1-33.4-1.7-34.2,0.5c-1,2.9,0.8,6.7,1.4,10.4c0.1,0-1.2,0.1-2.4-0.2c-6-1.7-8-6.6-7.3-17.8
				c0.3-4.9,2.6-7.7,8.7-7.8c9.5-0.2,19.1,0.8,28.7,1.2c6.8,0.3,13.7,0.6,20.5,0.5c4.5-0.1,7.2-2.6,8-7.1c1-5.3,2.5-10.6,3.3-15.9
				c1.1-6.9,5.4-11.4,10.9-15.2c3-2,6.2-3.8,9.2-6c5.7-4.2,6.5-7.9,3.3-14.2c-5.4-10.7-21-18.9-33.2-17.3c-1.2,0.2-2.4,0.8-3.3,1.6
				c-6.8,5.4-11.3,12.1-12.8,20.6c-0.2,1.4-1.2,2.6-1.9,3.9c-1.3-0.8-3-1.2-3.8-2.3c-6.2-7.9-8.1-17.4-10.1-26.7
				c-3-13.7-1.4-26.6,8.3-37.7c6.9-7.9,15.6-13.8,25-18.6c3.5-1.8,7.1-3.4,11-5.3c-2.4-5.9-4.6-11.9-7.2-17.7
				c-4.6-9.9-5.7-20.6-7.5-31.1c-1.3-7.5-5-13.9-9.5-20.1c-9-12.2-5.9-15.5-20.2-21.2c-7.5-3-29.5-5.2-34.5-11.8
				c-12.6-16.5-61.3-46.9-15.2-127.5c6.8-11.8,10.2,39.4,16,54.1c18.6,46.5,53.7,41,54.1,42.2c1.5-6.7-65-40.5-43.9-113.2
				c0,0,27-3.6,32.9,41.4c12.7,95.4,16.9-64.2,38.9-38.9c19.8,22.9,12.7,118.3,58.3,117.4c50.6-0.9,8.4,78.6,12.3,125.5
				c0,1.7-0.6,3.3,0,5.7c5-3.7,5.1-3.6,10-7.4c6.2-4.9,16.7-14.6,23.4-18.5c7.3-4.2,15.7-6.5,23.5-9.9c16.4-7.2,31.5-16.8,41.7-31.1
				c6.2-8.7,43.5-94.6,31.7-186.7c-2.7-20.9,50.1,7.6,37.2,109.8c0,0.3,15.4-21.9,12.7-121.6C1360.5-494.2,1360-439.5,1339.9-376.8z
				"/>
		</g>
	</g>
	<path class="st1" d="M16.3,338.6L37.4,304c0,0,19.3,3.7,10.3,8.3S16.3,338.6,16.3,338.6z"/>
</g>
<g id="Layer_2">
	<path class="st0" d="M-367.5-95.3c96.4-46,72.7,65.7,82.9,124.6c2.3,13.4,19.1,54.4,19.1,54.4s9.6-8.8,45.9-8.8s47.6,1.7,47.6,1.7
		s-6.2-29.9,4.2-83.6c10.4-53.8-18.8-158.5-76.3-164.1C-366.8-183.2-405.5-77.2-367.5-95.3z"/>
	<g id="hk8nfL.tif">
		<g>
			<path class="st0" d="M1219.2,62.3c-2.1,7.6-5.8,15.3-5.9,22.9c-0.2,17.2-14.5,20-25.1,26.3c-21.6,12.7-43.7,24.5-65.6,36.6
				c0.2,1,0.4,2,0.6,3c23-2.3,46.1-4.7,69.2-7.1c-2.1,20-18.7,39.9-37.3,44.4c-26.1,6.4-52.3,12.4-78.5,18.6
				c-2.7,0.6-5.2,1.8-11.2,4c27.2,1.8,50.8,3.4,74.4,5c0.5,1.2,1.1,2.5,1.6,3.7c-15.2,11.8-29.7,24.7-46,34.6
				c-5.5,3.4-15.8-0.7-23.8-1.8c-13.3-1.9-26.6-4.1-40.7-4.3c12.5,7.1,25.1,14.3,37.7,21.5c-22.9,25.4-48.8,14.6-76.4,4.9
				c3.3,10.7,5.9,19,9,28.9c-12.9,3.9-25.1,8.6-37.6,11.1c-9.7,2-12,6.3-11.8,15.7c0.8,37.9,22.8,61.2,53.7,77.6
				c14.6,7.7,30.6,12.7,46.8,19.2c-21.3,12.7-44.5,19.1-68.8,21.4c-3.2,0.3-7.5-3.9-10.1-7.1c-8.2-9.9-15.8-20.3-25.9-33.5
				c0,15.7,0,28.2,0,42c-7.8-0.4-13.7-0.7-19.8-1.1c-0.6-22.5,8.8-48.9-26.4-54c1.2-3.7,2.3-7.3,3.4-10.9c-8.2-6.5-14-7.1-19.4,3.3
				c-6.5,12.4-15.5,23.6-21.7,36.1c-3.1,6.2-2.3,14.3-3.3,21.5c1.4,1.1,2.8,2.3,4.2,3.4c-5.2,1.1-11.6,4.6-15.4,2.8
				c-4.7-2.2-7.3-8.9-10-12.4c-4.9,4.4-8.3,9-12.8,10.6c-2.1,0.7-6.5-4.2-9.5-6.9c-11.6-10.6-20-25.9-39.7-23.4
				c-3.9,0.5-8.4-4-12.6-6.1c-0.1-1.3-0.3-2.6-0.4-3.9c8.5-2.4,16.9-4.8,26.4-7.5c0-2.9,0-7.1,0-14.5c10,3.4,18.4,6.2,25.1,8.5
				c5.5-1.7,10.3-3.1,17.1-5.1c0.9-2.4,2.7-7.2,4.4-12c1.1-0.4,2.3-0.8,3.4-1.2c1.4,3.9,3.6,7.6,4.2,11.6c1,6.7,1.1,13.5,1.6,20.2
				c1.8,0.3,3.6,0.6,5.4,0.9c7.1-14.4,14.1-28.7,21.2-43.1c-0.6-1.3-1.2-2.6-1.8-3.9c-5.3,1-10.6,2.5-16,2.9
				c-2.6,0.2-6.5-0.8-7.9-2.7c-9.7-12.8-18.3-26.4-28.5-38.7c-7.3-8.8-15.6-17.6-25.4-23.2c-7-4-18-5.4-25.6-3
				c-14.1,4.5-23-0.5-32.7-10.7c7.9-2.7,14.9-5.1,22.7-7.7c0.3-5.4,0.6-10.9,1-17.5c-15.1,3.1-17.3,29.4-38.9,19.2
				c6.3-17.5,20.5-24.6,35.1-30.2c29-11.1,58.5-8.9,87.9-1.5c30.3,7.5,56.1-0.2,75-24.9c10.4-13.5,18.4-29,26.3-44.2
				c12.3-23.8,26.6-46.1,45.9-64.6c61.4-58.8,136.9-90,217.8-110.6c6.5-1.7,10-1.2,11.7,5.4C1219.2,27.9,1219.2,45.1,1219.2,62.3z"
				/>
			<path class="st0" d="M963-24.3C978.8-7.7,992.3,6.5,998.6,26c2.6,8,6.3,15.6,8.9,23.6c6.5,19.6,3.1,29.5-14.7,43.1
				c-21.4,16.4-38.3,36.7-51.6,59.8c-9.4,16.3-17.2,33.5-26.2,49.9c-9,16.4-22.2,28.2-41.3,33.3c15.7-10.5,17.2-27.8,21.7-43.5
				c1.2-4.2,2.1-9.1,1-13.1c-9.9-37.2,1.1-71.8,13.3-106.1c5.8-16.3,12-32.6,20.3-47.7C939.1,8.6,951-6.6,963-24.3z"/>
			<path class="st0" d="M705,310.4c1.9-4.9,2.4-12,6-14.2c2.9-1.8,9.4,2.1,17.5,4.3c-9.1,5.2-14.8,8.5-20.6,11.8
				C706.9,311.7,705.9,311.1,705,310.4z"/>
		</g>
	</g>
	<g id="hk8nfL.tif_1_">
		<g>
			<path class="st0" d="M1678.7,300.3c-2.1,7.6-5.8,15.3-5.9,22.9c-0.2,17.2-14.5,20-25.1,26.3c-21.6,12.7-43.7,24.5-65.6,36.6
				c0.2,1,0.4,2,0.6,3c23-2.3,46.1-4.7,69.2-7.1c-2.1,20-18.7,39.9-37.3,44.4c-26.1,6.4-52.3,12.4-78.5,18.6
				c-2.7,0.6-5.2,1.8-11.2,4c27.2,1.8,50.8,3.4,74.4,5c0.5,1.2,1.1,2.5,1.6,3.7c-15.2,11.8-29.7,24.7-46,34.6
				c-5.5,3.4-15.8-0.7-23.8-1.8c-13.3-1.9-26.6-4.1-40.7-4.3c12.5,7.1,25.1,14.3,37.7,21.5c-22.9,25.4-48.8,14.6-76.4,4.9
				c3.3,10.7,5.9,19,9,28.9c-12.9,3.9-25.1,8.6-37.6,11.1c-9.7,2-12,6.3-11.8,15.7c0.8,37.9,22.8,61.2,53.7,77.6
				c14.6,7.7,30.6,12.7,46.8,19.2c-21.3,12.7-44.5,19.1-68.8,21.4c-3.2,0.3-7.5-3.9-10.1-7.1c-8.2-9.9-15.8-20.3-25.9-33.5
				c0,15.7,0,28.2,0,42c-7.8-0.4-13.7-0.7-19.8-1.1c-0.6-22.5,8.8-48.9-26.4-54c1.2-3.7,2.3-7.3,3.4-10.9c-8.2-6.5-14-7.1-19.4,3.3
				c-6.5,12.4-15.5,23.6-21.7,36.1c-3.1,6.2-2.3,14.3-3.3,21.5c1.4,1.1,2.8,2.3,4.2,3.4c-5.2,1.1-11.6,4.6-15.4,2.8
				c-4.7-2.2-7.3-8.9-10-12.4c-4.9,4.4-8.3,9-12.8,10.6c-2.1,0.7-6.5-4.2-9.5-6.9c-11.6-10.6-20-25.9-39.7-23.4
				c-3.9,0.5-8.4-4-12.6-6.1c-0.1-1.3-0.3-2.6-0.4-3.9c8.5-2.4,16.9-4.8,26.4-7.5c0-2.9,0-7.1,0-14.5c10,3.4,18.4,6.2,25.1,8.5
				c5.5-1.7,10.3-3.1,17.1-5.1c0.9-2.4,2.7-7.2,4.4-12c1.1-0.4,2.3-0.8,3.4-1.2c1.4,3.9,3.6,7.6,4.2,11.6c1,6.7,1.1,13.5,1.6,20.2
				c1.8,0.3,3.6,0.6,5.4,0.9c7.1-14.4,14.1-28.7,21.2-43.1c-0.6-1.3-1.2-2.6-1.8-3.9c-5.3,1-10.6,2.5-16,2.9
				c-2.6,0.2-6.5-0.8-7.9-2.7c-9.7-12.8-18.3-26.4-28.5-38.7c-7.3-8.8-15.6-17.6-25.4-23.2c-7-4-18-5.4-25.6-3
				c-14.1,4.5-23-0.5-32.7-10.7c7.9-2.7,14.9-5.1,22.7-7.7c0.3-5.4,0.6-10.9,1-17.5c-15.1,3.1-17.3,29.4-38.9,19.2
				c6.3-17.5,20.5-24.6,35.1-30.2c29-11.1,58.5-8.9,87.9-1.5c30.3,7.5,56.1-0.2,75-24.9c10.4-13.5,18.4-29,26.3-44.2
				c12.3-23.8,26.6-46.1,45.9-64.6c61.4-58.8,136.9-90,217.8-110.6c6.5-1.7,10-1.2,11.7,5.4C1678.7,265.9,1678.7,283.1,1678.7,300.3
				z"/>
			<path class="st0" d="M1422.5,213.7c15.8,16.6,29.3,30.8,35.6,50.3c2.6,8,6.3,15.6,8.9,23.6c6.5,19.6,3.1,29.5-14.7,43.1
				c-21.4,16.4-38.3,36.7-51.6,59.8c-9.4,16.3-17.2,33.5-26.2,49.9c-9,16.4-22.2,28.2-41.3,33.3c15.7-10.5,17.2-27.8,21.7-43.5
				c1.2-4.2,2.1-9.1,1-13.1c-9.9-37.2,1.1-71.8,13.3-106.1c5.8-16.3,12-32.6,20.3-47.7C1398.6,246.6,1410.5,231.4,1422.5,213.7z"/>
			<path class="st0" d="M1164.5,548.4c1.9-4.9,2.4-12,6-14.2c2.9-1.8,9.4,2.1,17.5,4.3c-9.1,5.2-14.8,8.5-20.6,11.8
				C1166.4,549.7,1165.4,549.1,1164.5,548.4z"/>
		</g>
	</g>
	<path class="st0" d="M36.2,4.6c0,0-32.1,15.2-25.3,98S-3,150.3,0.4,167.2s8,32.1,32.8,50c18.5,13.3,100.7,49.7,100.7,49.7
		s93.3-49,60.8-38.7c-39.8,12.6-60.6-64.9-82.8-104.9C75.2,57,17.6,31.6,36.2,4.6z"/>
</g>
</svg>
