<?xml version="1.0" encoding="utf-8"?>
<!-- Generator: Adobe Illustrator 24.1.2, SVG Export Plug-In . SVG Version: 6.00 Build 0)  -->
<svg version="1.1" id="Layer_1" xmlns="http://www.w3.org/2000/svg" xmlns:xlink="http://www.w3.org/1999/xlink" x="0px" y="0px"
	 viewBox="0 0 454.9 288.9" style="enable-background:new 0 0 454.9 288.9;" xml:space="preserve">
<style type="text/css">
	.st0{fill:#ED2F37;}
	.st1{fill:#181618;}
	.st2{fill:#0C50A0;}
	.st3{fill:#084E9D;}
	.st4{fill:#C32F42;}
	.st5{fill:#234192;}
	.st6{font-family:'MyriadPro-Bold';}
	.st7{font-size:98.6953px;}
	.st8{letter-spacing:-5;}
</style>
<g id="n0T6Te_1_">
	<g>
		<path class="st0" d="M67.2,466.6c0-5.5,0.2-11-0.1-16.5c-0.2-3.5,1.1-4.6,4.4-4.2c1.4,0.2,2.8,0.2,4.1,0c6-1,8.8,1.1,7.7,7.5
			c-0.4,2.6,0.1,4.5,3.6,4.6c3.8,0.1,3.9-2,4.1-4.9c0.1-2.3-1.6-6.1,1.5-6.7c4.5-1,9.4-1,14,0.2c0.5,0.1,0.7,2.1,0.7,3.2
			c0,11.4-0.1,22.8,0.1,34.2c0,3.2-0.9,4.8-4.4,4.4c-1.2-0.1-2.4,0-3.5,0c-7.8,0-7.9,0-8.4-8c-0.2-2.8-0.9-4.3-4.1-4.3
			c-3.6,0-3.3,2.2-3.6,4.7c-0.3,2.5,1.8,6.5-1.6,7.3c-4.3,1-9,0.4-13.5,0c-1.4-0.1-1-2.3-1-3.7C67.2,478.5,67.2,472.6,67.2,466.6z
			 M71.1,467c0,4.5,0.1,9,0,13.5c-0.1,2.4,0.7,3.3,3.3,3.6c5,0.5,5-2.5,4.6-5.8c-0.6-4.8,0.9-6.6,6-6.3c9,0.4,9.1,0.1,9.9,8.9
			c0.3,2.7,1.4,3.4,3.7,3.2c1.8-0.2,4.3,0.8,4.3-2.4c0-14.6,2.1-20.6-15.8-19.8c-0.2,0-0.4,0-0.6,0c-6.2,1.1-8.6-1.5-7.6-7.6
			c0.4-2.4,0.3-4.6-3.4-4.5c-3.2,0-4.6,0.9-4.4,4.3C71.3,458.3,71.1,462.7,71.1,467z"/>
		<path class="st1" d="M244.8,476c0,12.4,0,12.4-12.8,12.4c-13,0-13,0-13-13c0-2.2-0.1-4.3,0-6.5c0.1-4.3,2.5-6.4,6.7-6.6
			c1.8-0.1,3.5,0,5.3,0C244.8,462.4,244.8,462.4,244.8,476z M237.7,475.6c0.1-5.6-0.9-6.3-5.7-6.3c-4.4,0.1-6.2,0.9-6.1,5.8
			c0.2,4.4,0.5,6.8,5.9,6.5C236.3,481.4,238.1,481,237.7,475.6z"/>
		<path class="st1" d="M133.8,473.3c0.3-10.2,1.1-10.9,11.5-10.9c14.6,0,14.6,0,14.6,14.7c0,1.8,0,3.5,0,5.3
			c0.1,4.3-2.2,6.1-6.2,6.1c-3,0-5.9,0-8.9,0c-10.1,0-10.3-0.1-11.1-9.9C134.7,476.8,134.4,475.1,133.8,473.3z M146.8,481.2
			c4.8-0.3,6.5-0.2,6.4-5.5c-0.1-4.5-0.7-6.7-6-6.4c-4.5,0.2-6.8,0.6-6.5,6C140.9,479.6,140.7,481.6,146.8,481.2z"/>
		<path class="st1" d="M192.6,487.9c-6.4,1.4-10.6,0.3-13.6-4.2c-1.8-2.7-3.7-2.5-5.4,0.1c-3,4.5-7.3,5.5-12.7,4.3
			c1.6-4.1,5.2-6.7,8-9.6c2.4-2.5,2.1-4-0.2-6.2c-2.9-2.8-5.5-5.9-8.6-9.2c5.9-1.5,10.2-0.8,13.2,3.8c2.1,3.2,4.1,3.1,6.2-0.1
			c2.9-4.4,7-5.2,12.2-4c-1.3,4.2-4.8,6.6-7.6,9.3c-2.6,2.6-2.4,4.4,0,6.8C186.9,481.5,189.4,484.5,192.6,487.9z"/>
		<path class="st1" d="M273.3,475.3c0-12.9,0-12.9,12.9-12.9c2,0,3.9,0,5.9,0.1c3.8,0.2,5.8,2.2,5.8,6c0,5.5-0.1,11,0.1,16.5
			c0,2.4-0.5,3.6-3.2,3.5c-2.8,0-4-0.8-3.8-3.7c0.2-2.9,0-5.9,0-8.8c0-6.4-2.4-8-8.6-6.5c-2.5,0.6-2.3,2.3-2.3,4.1
			c-0.1,3.9-0.1,7.9,0,11.8c0,2.2-0.8,3.1-3.1,3.1c-2.3,0-3.8-0.5-3.7-3.2C273.4,481.9,273.3,478.6,273.3,475.3z"/>
		<path class="st1" d="M246.9,475.6c0-13.2,0-13.2,13.6-13.2c10.5,0,11.1,0.6,11.1,10.9c0,3.7-0.1,7.5,0,11.2c0.1,2.5-0.4,4-3.5,4
			s-3.6-1.3-3.5-3.9c0.1-3.9-0.1-7.9,0.1-11.8c0.2-4.9-3.5-3.1-5.8-3.3c-2.4-0.2-5.3-0.8-5.1,3.4c0.2,3.7,0,7.5,0.1,11.2
			c0.1,2.6-0.1,4.4-3.7,4.4c-3.9,0-3.3-2.3-3.3-4.7C246.9,481.1,246.9,478.4,246.9,475.6z"/>
		<path class="st1" d="M133.8,478.5c-3.7,0.1-7.5,0.5-11.2,0.3s-5,1-4.6,4.6c0.2,2.4,0.9,5.1-3.4,5.1s-3.5-2.6-3.5-5
			c0-5.7,0.1-11.4-0.1-17.1c-0.1-2.9,0.6-4.3,3.9-4.1c4.7,0.3,9.4,0.2,14.2,0c2.6-0.1,3.4,1.1,3.4,3.5c0,2.5-0.8,3.7-3.4,3.6
			c-3.5-0.1-7.1,0-10.6,0.8c4.9,3,10.7,0.2,15.6,3C133.9,475,133.8,476.8,133.8,478.5z"/>
		<path class="st1" d="M205.8,488.4c-13.5,0-13.5,0-13.5-13.6c0-2,0-3.9,0-5.9c0-4,2.2-6.3,6.1-6.5c5.3-0.2,10.6,0,15.9-0.1
			c2.2,0,3.2,0.8,3.1,3.1c-0.1,2.1-0.1,4-3,4c-3.5,0-7.1,0.3-10.6-0.1c-5.4-0.6-4.8,2.9-4.8,6.3c0,3.2-0.5,6.4,4.6,5.9
			c3.5-0.4,7.1,0,10.6-0.1c2.7-0.1,3.2,1.3,3.2,3.6c0,2.5-0.9,3.6-3.4,3.4C211.3,488.3,208.6,488.4,205.8,488.4z"/>
		<path class="st1" d="M133.8,478.5c0.1-1.8,0.1-3.5,0.2-5.3h-0.1C134.4,475.1,134.7,476.8,133.8,478.5
			C133.7,478.5,133.8,478.5,133.8,478.5z"/>
	</g>
</g>
<g id="SbhA5j_1_">
	<g>
		<path class="st2" d="M474.1,426.4c-0.4-7.9-0.7-15.9-1.1-23.8c-7.6-2.1-15.1-2-22.7-0.1c-1.7,8.6-0.3,17.2-0.8,25.8
			c-0.2,2.9-0.2,5.9-0.3,8.8c-0.4,0.5-0.9,0.9-1.3,1.4c-4.8,0.5-9.5,0.5-14.3,0c-0.6-0.4-1.2-0.8-1.8-1.2
			c-0.1-15.1-0.2-30.2-0.4-45.2c0-2.6,0.9-3.5,3.5-3.5c13.5,0.1,27-0.3,40.5,0.2c8,0.3,12.8,6,16.7,12.5c0,12,0,23.9,0,35.9
			c-3.4,0-6.8-0.3-10.1,0.1c-4.2,0.5-6.6-1.1-7.9-4.9c0-1.2,0-2.4,0-3.6C475.5,428,475.5,427.2,474.1,426.4z"/>
		<path class="st3" d="M474.2,432.4c1.3,3.8,3.7,5.4,7.9,4.9c3.3-0.4,6.8-0.1,10.1-0.1c0,0.4,0,0.8,0,1.2c-4.1,0-8.3-0.2-12.4,0.2
			C474.7,439.1,472.9,437.3,474.2,432.4z"/>
		<path class="st3" d="M332.8,438.5c-4.4,0-8.8,0-13.1,0c-10-0.1-17.3-7.2-17.6-17.1c-0.1-5-0.1-10,0-14.9
			c0.1-8.7,7.1-16.7,15.9-17.1c9.5-0.4,19.1-0.4,28.7-0.1c9.4,0.4,16.6,8.4,16.6,17.7c0,5,0,10,0,14.9c-0.1,9.3-7.3,16.4-16.6,16.6
			C342,438.5,337.4,438.5,332.8,438.5z M332.4,425.9c0.6,0,1.2,0,1.8,0c11.3,0,11.3,0,11.3-11.1c0-13.2,0-13.2-13.3-13.2
			c-12.4,0-12.4,0-12.5,11.7C319.7,425.9,319.7,425.9,332.4,425.9z"/>
		<path class="st3" d="M152,438.5c-4.2,0-8.4,0-12.5,0c-10.3,0-17.7-7.1-18-17.4c-0.2-4.6,0-9.2,0-13.7c0-10,7.5-17.9,17.4-18.1
			c8.8-0.2,17.5-0.2,26.3,0c10,0.2,17.5,8.1,17.5,18c0,4.8,0,9.6,0,14.3c0,9.6-7.2,16.8-16.9,16.9
			C161.2,438.5,156.6,438.5,152,438.5z M152,425.9c13.2,0,13.2,0,13.2-12.8c0-11.6,0-11.6-12.6-11.6c-13.2,0-13.2,0-13.3,11.9
			C139.2,425.9,139.2,425.9,152,425.9z"/>
		<path class="st3" d="M182,388.8c7.4,0,13.3,0.1,19.3,0c4.9-0.1,6.6,4,9.3,6.7c3,3,5.2,4.5,8.1,0.2c6.9-10.3,17.3-5.1,27.6-6.7
			c-6,7.7-11,14.3-16.3,20.6c-2.4,2.8-2.4,4.7,0,7.5c5.7,6.5,11,13.4,17.6,21.6c-8.1,0-14.6,0.3-21.1-0.1c-4.6-0.3-6.1-5.2-9.4-7.7
			c-1.3-0.9-2.6-3.7-4.1-1c-6.5,11-17.2,8.4-27,8.7c-1,0-2,0-4,0c6-7.4,11.4-14.4,17.2-21c2.6-2.9,2.2-4.7-0.1-7.4
			C193.4,403.5,188.2,396.6,182,388.8z"/>
		<path class="st2" d="M386.9,402.5c-0.4,0.4-0.8,0.8-1.3,1.3c-2.5,7.7-0.7,15.7-1.1,23.5c-0.5,11,1.9,9.6-10.4,10
			c-4.5,0.1-5.3-1.7-5.2-5.6c0.2-9.9,0.2-19.9,0-29.9c-0.1-4.1,1-8.3-0.8-12.3c4-1.6,8.1-0.7,12.2-0.7c9.9-0.2,19.9-0.2,29.8,0
			c10.3,0.2,18.1,8,18.2,18.2c0.1,8.9-0.1,17.9,0.1,26.8c0.1,3.5-0.6,4.8-4.5,4.8c-14,0.2-14,0.4-14.2-13.6
			c-0.1-7.3-0.1-14.7-0.2-22C402.1,400.2,394.5,400.8,386.9,402.5z"/>
		<path class="st3" d="M279.7,389c4.2,0,8.4-0.2,12.6,0.1c2,0.1,5.4-1.3,5.9,1.1c0.8,3.8,0.4,7.9-0.1,11.8c-0.2,1.5-2.4,0.8-3.7,0.8
			c-8.6,0.1-17.1,0.2-25.7,0c-3.4-0.1-5.2,0.6-4.8,4.5c0.6,5.9-2.4,13.5,1.3,17.1c2.9,2.8,10.6,0.8,16.1,0.9
			c3.4,0.1,6.8,0.4,10.1-0.1c5.8-0.9,6.6,1.8,6.7,6.9c0.2,5.7-1.7,7.1-7,6.7c-7.1-0.4-14.3-0.1-21.5-0.1c-13.7,0-21.4-6.6-23.3-20.1
			c-0.7-4.7-0.7-9.5,0.4-14.2c2.4-9.5,9-15,18.7-15.3C270.1,388.9,274.9,389,279.7,389z"/>
		<path class="st3" d="M97.4,389c5.4,0,10.7,0,16.1,0c5.9-0.1,3,4.4,3.4,6.9c0.3,2.4,1.4,5.7-3.5,5.5c-8.7-0.3-17.5,0.1-26.2-0.2
			c-3.7-0.1-4.2,1.4-4.1,4.5s0,5.2,4.3,5c7.7-0.4,15.5,0.2,23.3-0.2c4.6-0.2,3.9,2.5,4,5.3s0.1,4.9-3.9,4.7
			c-7.3-0.3-14.7,0.1-22.1-0.2c-3.8-0.2-4.5,1.2-4.5,4.7c0,15.2-0.4,15.3-16.2,13.7c-2.4-0.2-3-1.1-3-3.2c0.1-9.5-0.3-19.1,0.3-28.6
			c0.8-11.6,8.1-17.9,19.6-17.9C89,388.9,93.2,389,97.4,389z"/>
		<path class="st3" d="M368.1,389.4c1.8,4,0.8,8.2,0.8,12.3c0.2,9.9,0.2,19.9,0,29.9c-0.1,3.9,0.8,5.8,5.2,5.6
			c12.3-0.4,10,1,10.4-10c0.3-7.8-1.4-15.8,1.1-23.5c0.1,10.5,0,21,0.2,31.6c0.1,2.9-1,3.6-3.8,3.7c-14.4,0.7-14.4,0.7-14.4-13.3
			C367.8,413.6,368,401.5,368.1,389.4z"/>
		<path class="st3" d="M386.9,402.5c7.6-1.7,15.1-2.3,22.6,0.3C402,402.7,394.5,402.6,386.9,402.5z"/>
		<path class="st3" d="M450.3,402.5c7.6-1.9,15.1-2.1,22.7,0.1C465.5,402.6,457.9,402.5,450.3,402.5z"/>
		<path class="st3" d="M474.1,426.4c1.3,0.8,1.3,1.6,0,2.4C474.1,428,474.1,427.2,474.1,426.4z"/>
		<path class="st3" d="M431.8,437.3c0.6,0.4,1.2,0.8,1.8,1.2C432.6,438.7,432,438.4,431.8,437.3z"/>
		<path class="st3" d="M447.9,438.5c0.4-0.5,0.9-0.9,1.3-1.4C449.4,438.2,449,438.7,447.9,438.5z"/>
	</g>
</g>
<g id="Vduzhb_1_">
	<g>
		<path class="st3" d="M-292.4,401.3c-10.1,0-20.3-0.5-30.4,0.1c-15.1,1-25.1,9.4-29.9,23.5c-3.4,9.8-6,20-9.6,29.7
			c-5.4,14.6-10,29.5-15.2,44.2c-0.8,2.2-1.9,2.7-4,2.7c-9.5-0.1-19.1-0.1-28.6,0c-2.5,0-3.8-0.2-2.7-3.3c9-27,16.9-54.3,27.2-80.8
			c9.8-25.3,29.9-39.2,57.1-40.4c23.8-1,47.7-0.2,71.5-0.3c3.4,0,3.4,1.1,2.5,3.8c-1.8,5.7-3.5,11.5-5.1,17.2
			c-0.7,2.6-2,3.4-4.6,3.3c-9.4-0.1-18.8-0.1-28.1-0.1C-292.4,401.1-292.4,401.2-292.4,401.3z"/>
		<path class="st4" d="M-266,501.4c-4.5,0-8.9-0.2-13.4,0.1c-4.1,0.3-5-0.8-3.8-4.9c4.6-14.6,8.8-29.4,13.2-44.1
			c4.1-13.8,8.3-27.6,12.3-41.5c0.9-3.1,2.3-4.1,5.5-4c8.9,0.2,17.8,0.3,26.7,0c4.8-0.2,4.8,1.5,3.7,5.2
			c-6.3,21-12.4,42.1-18.6,63.2c-2.1,7.1-4.3,14.1-6.1,21.2c-0.9,3.5-2.3,5.2-6.3,4.9C-257.1,501.1-261.6,501.4-266,501.4
			L-266,501.4z"/>
		<path class="st3" d="M-309.8,501.4c-4.6,0-9.2-0.2-13.8,0.1c-3.3,0.2-4.3-0.6-3.2-4.1c4.4-13.9,8.4-28,12.6-41.9
			c1.6-5.3,3.3-10.6,4.7-15.9c0.7-2.6,1.8-3.7,4.7-3.7c9.5,0.2,19.1,0.2,28.6,0c3.3-0.1,3.5,1.2,2.7,3.9
			c-5.8,19.4-11.5,38.9-17.2,58.4c-0.7,2.6-1.9,3.4-4.5,3.3C-299.9,501.3-304.8,501.5-309.8,501.4z"/>
		<path class="st3" d="M-341.9,460.2c-4.1,0-8.3-0.1-12.4,0c-2.6,0.1-3.8-0.5-2.7-3.4c1.5-4.2,2.6-8.5,4-12.7
			c1.7-5.1,5.5-7.8,10.7-8c8.7-0.3,17.5,0,26.2-0.1c2.5,0,2.8,1.1,2.1,3.1c-1.5,4.5-2.7,9.1-4.4,13.5c-1.7,4.5-5.2,7.2-10.2,7.4
			c-4.4,0.1-8.9,0-13.3,0C-341.9,460.1-341.9,460.1-341.9,460.2z"/>
		<path class="st3" d="M-278.9,407c4.3,0,8.6,0.1,12.9,0c2.5-0.1,3.5,0.6,2.6,3.1c-1.4,4.2-2.7,8.5-4.2,12.7
			c-1.8,5.3-5.7,8-11.1,8.1c-8.6,0.2-17.2,0.1-25.8,0.2c-2.3,0-2.9-0.7-2.1-3c1.4-4.2,2.5-8.5,3.9-12.8c1.7-5.2,5.4-8.1,10.9-8.3
			C-287.5,406.9-283.2,407-278.9,407L-278.9,407z"/>
		<path class="st4" d="M-209.6,377c-2,6.1-3.6,11.8-5.7,17.3c-1.6,4-5,6.4-9.3,6.5c-8.9,0.2-17.8,0.1-26.7,0.2c-2.5,0-2.9-1-2.2-3.1
			c1.4-4.4,2.7-8.8,4.1-13.2c1.5-4.5,4.8-7.4,9.4-7.6C-230.1,376.7-220.1,377-209.6,377z"/>
		<path class="st3" d="M-115.8,432.1c0-3,0.2-5.7,0-8.4c-0.2-2.5,0.9-3.2,3.2-3.1c2.1,0,4-0.1,3.9,2.9c-0.1,10.3,0,20.6,0,30.8
			c0,1.2,0.2,2.7-1.5,2.8s-4.1,1-5-0.7c-0.8-1.5-0.8-1.7-2.3-0.7c-7.6,4.6-15.2,1.4-17.1-7.2c-0.7-3-0.7-6.1,0-9.1
			C-132.6,430.3-126,427.6-115.8,432.1z M-127.6,444.1c0,4.8,2.3,7.9,5.8,7.9s6.1-3.3,6.1-7.8c0.1-4.8-2.5-8.4-6-8.4
			C-125.4,435.7-127.7,438.9-127.6,444.1z"/>
		<path class="st3" d="M-23.5,489.6c-2.3,0-4.6,0.1-6.9,0c-3-0.1-3,1.4-2,3.5c1.7,3.4,6.4,4.6,9.5,2c2.7-2.2,6.5-3.1,8-0.8
			c1.4,2.1-2.1,4.6-4.4,6.1c-5.2,3.2-13.3,2.2-17.6-2.1c-4.1-4.1-4.8-13.4-1.4-19c3-4.9,9.8-7.1,15.9-5.2c5.3,1.7,8.5,6.3,8.9,12.3
			c0.1,2.4-0.5,3.5-3,3.3C-18.9,489.6-21.2,489.7-23.5,489.6C-23.5,489.7-23.5,489.6-23.5,489.6z M-27.6,485.2
			c2.1-0.8,5.5,1.3,5.9-1.6c0.4-3-2.6-4.2-5.4-4.2c-2.6,0-5.4,1.2-5.3,3.9C-32.3,486.6-29,484.1-27.6,485.2z"/>
		<path class="st3" d="M-102.4,489.7c-2.3,0-4.6,0.1-6.9,0c-3.2-0.1-2.8,1.5-1.8,3.5c1.8,3.4,6.4,4.5,9.5,1.8
			c2.6-2.3,6.8-2.6,7.8-1.1c1.7,2.5-1.7,4.7-3.9,6.2c-6.1,4.1-15.5,2.3-19.4-3.5c-4.2-6.2-2.5-16.8,3.3-20.9
			c5.7-4,14.6-2.7,18.7,2.7c0.6,0.7,1.1,1.5,1.4,2.3c3.2,6.9,1.9,8.9-5.4,9C-100.3,489.7-101.4,489.7-102.4,489.7L-102.4,489.7z
			 M-105.9,485.2c1.9-0.9,5.3,1.4,5.5-1.8c0.2-2.8-2.8-4-5.7-4c-2.8,0-5.4,1.5-5.2,4C-111.1,486.8-107.7,484-105.9,485.2z"/>
		<path class="st3" d="M-178.4,394.7c0-5.1,0.1-10.1,0-15.2c0-2.1,0.6-2.9,2.9-2.9c6.8,0.2,13.5,0.2,20.3,0c2.5-0.1,3.2,0.8,3.1,3.2
			c-0.1,2-0.1,3.6-2.9,3.4c-4.1-0.2-8.3,0.1-12.4-0.1c-3.2-0.2-3.5,1.5-3.3,3.9c0.2,2.1-0.8,4.8,3.1,4.5c3.2-0.2,6.5,0.1,9.7-0.1
			c2.4-0.1,3.7,0.4,3.7,3.2c0,2.7-1,3.5-3.5,3.3c-3.4-0.2-6.8,0-10.1-0.1c-2.2-0.1-3,0.7-2.9,2.9c0.2,2.8-0.1,5.5,0.1,8.3
			c0.2,3.1-0.6,4.3-4,4.3c-3.2,0-3.8-1.3-3.7-4C-178.2,404.5-178.4,399.6-178.4,394.7L-178.4,394.7z"/>
		<path class="st3" d="M-65.8,399.7c0.1-8.8,5.5-14.4,13.9-14.3c8.5,0.1,14.1,6.1,13.9,15c-0.2,8.3-5.9,14-13.8,14.1
			C-60.4,414.4-65.8,408.7-65.8,399.7z M-58.3,400c0,5.3,2.5,8.4,6.6,8.2c3.6-0.1,6.2-3.6,6.3-8.3c0-5.2-2.5-8.4-6.5-8.3
			C-56.1,391.6-58.3,394.5-58.3,400z"/>
		<path class="st3" d="M27.8,445.3c0.4,3.1-0.7,6.7,0.9,10.1c0.6,1.3,0.2,2.3-1.2,2c-2.1-0.4-4.5,1-6.3-1.5
			c-1.5-2.1-2.6,0.4-3.7,0.9c-6.1,3.1-12,0.6-13.2-5.6c-0.8-4.4,0.9-7.6,5.2-8.9c2.5-0.8,5.1-1.2,7.6-1.7c1.7-0.3,3.6-0.6,3.5-2.8
			c-0.1-2.6-2.5-2.3-4.2-2.5c-1.6-0.2-3.1,0.4-4,1.8c-1.9,3-5.1,2.4-6.8,1c-1.6-1.4,0.2-4.2,1.6-5.5c4.6-4.2,10.1-3.7,15.6-2
			c4.6,1.4,5.2,5.1,5,9.2C27.7,441.5,27.8,443.2,27.8,445.3z M15,452.9c3.2-0.1,6-3.2,5.9-6.4c0-1.3-0.5-2.2-1.9-1.6
			c-2.8,1.2-7.3-0.1-7.8,4.7C10.9,452.2,12.8,452.8,15,452.9z"/>
		<path class="st3" d="M-122.6,400.5c-0.3,8.7-5.9,14-14.5,13.7c-8.2-0.3-13.5-6.1-13.2-14.6c0.2-9,5.9-14.6,14.6-14.2
			C-127.5,385.7-122.4,391.6-122.6,400.5z M-130.2,399.9c0-5.4-2.2-8.4-6.3-8.4c-4,0-6.5,3.2-6.4,8.4c0,4.9,2.5,8.2,6.2,8.2
			C-132.6,408.3-130.2,405.3-130.2,399.9z"/>
		<path class="st3" d="M-33.4,399.7c0-3.2-0.1-6.4,0-9.7c0-1.3-0.7-3.2,0.9-3.6c1.7-0.5,4.2-1.1,5.2,0.3c1.4,1.9,1.9,1.5,3.6,0.4
			c6.7-4.3,14.4-0.1,14.8,7.9c0.2,5.1-0.1,10.1,0.1,15.2c0.1,2.8-1.3,3.3-3.6,3.3c-2.6,0-4-0.5-3.8-3.5c0.2-4.4,0.1-8.9,0-13.3
			c-0.1-3-1.4-5.1-4.7-5c-3.1,0-4.9,1.9-5,4.9c-0.2,4.4-0.3,8.9-0.2,13.3c0.1,2.8-0.9,3.7-3.7,3.7c-2.8,0-3.8-0.9-3.6-3.7
			C-33.2,406.5-33.4,403.1-33.4,399.7L-33.4,399.7z"/>
		<path class="st3" d="M-139.6,490.6c0,2.5-0.1,4.9,0,7.4c0.2,3.2-1.1,4.2-4.3,4.3c-3.6,0.2-3.1-2.1-3.1-4.1c0-4.3-0.1-8.6,0-12.9
			c0-3.2-1-5.5-4.5-5.7c-3.7-0.2-5.3,2.3-5.5,5.5c-0.3,4.1-0.3,8.3-0.1,12.4c0.1,2.9-0.5,3.9-3.7,4c-3.5,0.1-3.6-1.6-3.6-4.2
			c0.1-6.4,0-12.9,0-19.3c0-1.4-0.9-3.5,1.4-3.7c1.8-0.2,4.3-1.1,5.4,1.1c0.8,1.5,1.1,1,2.2,0.4c8.6-5,15.5-1,15.6,9
			C-139.6,486.6-139.6,488.6-139.6,490.6L-139.6,490.6z"/>
		<path class="st3" d="M-69.3,487.9c0-3.4-0.1-6.8,0-10.1c0-1.3-0.7-3.2,1.2-3.5c1.8-0.3,4.3-1.4,5.4,0.9c1,2.1,1.5,1,2.5,0.3
			c7.6-4.8,15-1.1,15.4,7.9c0.2,4.9-0.1,9.8,0.2,14.8c0.2,3.5-2.1,3-4.2,3.2c-2.5,0.2-3.2-0.7-3.2-3.1c0.1-4.3-0.1-8.6,0-12.9
			c0.1-3.2-1.1-5.5-4.5-5.7c-3.7-0.2-5.3,2.2-5.4,5.5c-0.2,4.3-0.3,8.6,0,12.9c0.2,3.2-1.5,3.3-3.9,3.4c-2.6,0.1-3.6-0.7-3.4-3.4
			C-69.2,494.7-69.3,491.3-69.3,487.9L-69.3,487.9z"/>
		<path class="st3" d="M-2.9,399.8c0-3.1-0.1-6.1,0-9.2c0.1-1.4-0.9-3.6,0.9-4.1c1.9-0.5,4.5-1.3,5.9,0.9c0.9,1.5,1.2,1.1,2.2,0.3
			c3.5-2.8,7.4-2.6,11.2-0.7c3.9,1.9,4.5,5.5,4.5,9.4c0,4.6-0.1,9.2,0.1,13.8c0.1,3.2-1.6,3.4-4,3.4c-2.5,0-3.6-0.6-3.5-3.4
			c0.2-4.3,0.1-8.6,0.1-12.9c0-3.1-1.2-5.5-4.7-5.6c-3.3,0-5.1,2.1-5.2,5.2c-0.2,4.4-0.3,8.9-0.1,13.3c0.1,2.9-1.3,3.2-3.6,3.2
			c-2.2,0-3.9-0.1-3.7-3.1C-2.6,406.8-2.8,403.3-2.9,399.8C-2.8,399.8-2.8,399.8-2.9,399.8z"/>
		<path class="st3" d="M-60.4,458.3c-4.6-0.1-8.4-0.5-11.2-3.7c-1.3-1.5-2.9-4.2-1.5-5.2c1.8-1.3,5.1-2,6.9,0.8
			c1.7,2.5,4,2.6,6.5,2.5c1.6-0.1,3.3-0.5,3.5-2.3c0.2-1.7-1.4-2.1-2.8-2.5c-2.8-0.8-5.6-1.6-8.4-2.4c-3-0.9-5.1-2.9-5.4-6.2
			c-0.2-3.3,1.2-6,4-7.8c4.3-2.7,12.2-2.4,16.2,0.7c1.9,1.5,3.9,4.1,2.3,5.7c-1.3,1.4-4.8,1.8-6.9-0.8c-0.6-0.7-1.3-1.6-2-1.7
			c-2.2-0.5-5.2-1.3-6.1,1.4c-0.9,2.7,2.1,2.8,3.9,3.3c2.2,0.7,4.5,1.2,6.6,1.9c3.4,1.2,5.9,3.3,5.9,7.3c0,4.1-2.3,6.5-5.8,8
			C-56.8,458.1-58.9,458.3-60.4,458.3z"/>
		<path class="st3" d="M-164.3,443.8c0-3.2-0.1-6.5,0-9.7c0-1.3-0.8-3.1,1-3.6s4.6-1.2,5.6,0.4c1.2,1.7,1.3,1.4,2.8,0.5
			c7.5-4.5,15.1-0.3,15.4,8.4c0.1,4.8-0.2,9.5,0.1,14.3c0.2,3.3-1.6,3.2-4,3.4c-2.6,0.2-3.6-0.6-3.5-3.3c0.2-4.1,0-8.3,0-12.4
			c0-3.2-0.7-6-4.6-6.1c-3.9,0-5.3,2.5-5.4,6c-0.1,4-0.2,8,0,12c0.1,2.7-0.5,3.8-3.5,3.8c-3.2,0.1-4-1.2-3.8-4
			C-164.2,450.2-164.3,447-164.3,443.8L-164.3,443.8z"/>
		<path class="st3" d="M-78.4,443.5c0,3.4,0.1,6.8-0.1,10.1c-0.1,1.3,0.8,3.6-1.6,3.6c-1.7,0-4.1,1.5-5.1-1.3c-0.7-2-1.5-0.5-2.2,0
			c-8.9,5.1-15,1.7-15.4-8.6c-0.1-4.6,0.1-9.2-0.1-13.8c-0.1-2.7,0.9-3.3,3.4-3.3s4.1,0.3,4,3.4c-0.2,4.4,0,8.9,0,13.4
			c0,2.8,1,4.9,4.1,5s5.2-1.4,5.4-4.5c0.3-4.6,0.4-9.2,0.2-13.8c-0.1-3.1,1.3-3.4,3.9-3.5c2.9-0.1,3.8,0.8,3.5,3.7
			C-78.6,437-78.4,440.3-78.4,443.5L-78.4,443.5z"/>
		<path class="st3" d="M-107.9,393.6c1.1-2,2-3.6,2.9-5.2c1.1-1.8,6.6-3.2,8.2-2.1c1.1,0.8,0.4,1.6-0.1,2.3c-1.8,2.7-3.5,5.4-5.5,8
			c-1.5,2-1.5,3.7,0,5.7c2,2.7,3.8,5.6,5.6,8.4c1.2,1.8,1.2,2.5-1.4,2.7c-3.9,0.3-6.9-0.4-8.3-4.5c-0.4-1.1-1.3-2-2.1-3.3
			c-1.1,1.8-2.3,3.3-3,5c-1.8,4.2-5.3,2.9-8.3,2.8c-1.8-0.1-0.9-1.6-0.4-2.4c1.8-2.7,3.5-5.4,5.5-7.9c1.8-2.2,2.1-4,0.2-6.4
			c-2.3-3-4.2-6.3-6.3-9.6C-114,385.3-114,385.3-107.9,393.6z"/>
		<path class="st3" d="M-86.2,400.8c0.2,2.6,0,5.9,3.8,7.1c2.4,0.8,4.6,0.2,5.8-2.3c0.5-1,0.7-2.1,2.1-2c1.8,0.1,4-1,5.1,0.8
			c0.9,1.4-0.4,3.3-1.3,4.7c-3.1,4.6-7.7,5.8-12.9,5.1c-4.9-0.7-8.1-3.5-9.3-8.3c-1.5-6.4-1.5-12.8,3.9-17.4
			c4.5-3.9,9.9-3.2,15.2-1.1c1.8,0.7,3.1,2,3.8,3.8c0.6,1.5,2.3,3.4,0.5,4.5s-5,1.5-6.3-0.4c-2-2.8-3.8-4.4-7.1-2.8
			c-3.2,1.5-2.9,4.7-3.1,7.6C-86.2,400-86.2,400.2-86.2,400.8z"/>
		<path class="st3" d="M-132.8,488.9c0-2,0-4,0-6c0-1.7,0.2-3.1-2.2-3.7c-2.6-0.7-2.3-3.9-0.6-4.4c3-0.9,3-2.6,2.8-4.8
			c-0.3-3.1,1.5-3.4,4-3.4c2.8-0.1,3.4,1.2,3.2,3.6c-0.2,2.2-0.4,4.4,3,4.2c1.5-0.1,1.5,1.2,1.5,2.3c0,1.3,0,2.7-1.7,2.6
			c-3.3-0.2-2.8,2-2.8,3.9c0,2.6,0,5.2,0,7.8c0,2.4-0.6,5,3.2,5.3c2,0.2,1.1,2.2,1.2,3.4c0.1,1.5-1,1.6-2.1,1.8
			c-6.6,1.1-9.4-1.3-9.5-8.1C-132.8,492-132.8,490.4-132.8,488.9z"/>
		<path class="st3" d="M-43,444.6c0-2,0-4,0-6c0-1.6-0.1-2.6-2.2-3.3c-2.6-0.9-2.5-4-0.4-4.6c3-0.8,2.7-2.5,2.6-4.4
			c-0.3-3,1.1-3.5,3.8-3.5c2.7,0,3.6,0.9,3.3,3.5c-0.3,2.2-0.3,4.3,3.1,4.2c1.7-0.1,1.4,1.7,1.5,2.8c0,1.2-0.2,2.1-1.6,2.3
			c-0.8,0.1-1.7,0-2.2,0.4c-2.2,1.7-0.5,15.7,2.1,16.3c2.1,0.5,1.6,1.8,1.7,3.1c0.1,1.9-0.9,2.2-2.5,2.4c-6.4,0.8-9.1-1.6-9.2-8.1
			C-43,448-43,446.3-43,444.6C-43.1,444.6-43.1,444.6-43,444.6z"/>
		<path class="st3" d="M-8.6,488.6c0-2,0-4,0-6c0-1.6,0-2.7-2.1-3.3c-2.8-0.8-2.7-4-0.8-4.6c3-0.9,3.1-2.5,2.8-4.7
			c-0.3-2.7,1-3.4,3.5-3.4c2.4,0,3.8,0.5,3.6,3.3c-0.2,2.1-0.7,4.6,2.8,4.5c1.5,0,1.6,1.1,1.6,2.3c0,1.2,0.2,2.7-1.6,2.7
			c-3.1-0.1-2.9,1.8-2.9,4c0.1,2.9,0,5.8,0,8.8c0,2.1,0,4,2.9,4.3c2.1,0.2,1.4,2,1.5,3.3c0.2,1.7-1,2-2.3,2.1
			c-6.8,0.2-9.3-1-9.1-7.5C-8.6,492.3-8.7,490.4-8.6,488.6C-8.7,488.6-8.7,488.6-8.6,488.6z"/>
		<path class="st3" d="M-20.1,433.3c1.3-1,2.1-2,3.1-2.5c1.4-0.8,3.2-1.9,4.7-0.8c1.5,1.1,0.6,3.1,0.7,4.7c0.1,2.3-1.8,2.1-3.2,2.3
			c-3.6,0.3-5.1,2.5-5.3,5.8c-0.2,3.8-0.3,7.7-0.2,11.5c0.1,2.7-1.1,3.4-3.6,3.3c-2.3-0.1-3.7-0.4-3.7-3.3c0.1-6.6-0.1-13.2,0-19.7
			c0-1.6-1-4.1,1.9-4.3C-23.3,430.1-20.3,429.2-20.1,433.3z"/>
		<path class="st3" d="M-178.3,483.1c0-5.2,0.2-10.4-0.1-15.6c-0.2-3.4,1.8-3.1,4-3.2c2.5-0.1,3.6,0.5,3.6,3.3
			c-0.2,10.1-0.2,20.3,0,30.4c0.1,3.1-1.4,3.3-3.9,3.5c-2.8,0.1-3.8-0.6-3.6-3.5C-178.1,492.9-178.3,488-178.3,483.1z"/>
		<path class="st3" d="M-178.3,439.2c0-4.9,0.2-9.9-0.1-14.8c-0.1-2.9,0.8-3.8,3.6-3.6c2.4,0.1,4,0.1,3.9,3.4
			c-0.2,9.8-0.2,19.7,0,29.5c0.1,3.3-1.6,3.1-3.9,3.3c-2.9,0.2-3.8-0.6-3.6-3.5C-178.1,448.8-178.3,444-178.3,439.2L-178.3,439.2z"
			/>
		<path class="st3" d="M41.4,439.1c0,5.1-0.1,10.1,0.1,15.2c0.1,2.9-1.5,2.9-3.5,2.8c-1.8-0.1-4.1,0.7-4-2.7
			c0.1-10.3,0.1-20.5,0-30.8c-0.1-3.4,2.1-2.5,3.9-2.7c2.2-0.1,3.8-0.1,3.6,3C41.2,429,41.4,434.1,41.4,439.1L41.4,439.1z"/>
		<path class="st3" d="M-81.9,477.9c1.7-1.5,2.5-2.4,3.4-3.1c1.4-0.9,3.2-1.9,4.7-1c1.7,1.1,0.7,3.4,0.8,5.1c0.1,2.2-1.8,1.6-3,1.7
			c-3.7,0.5-5.3,2.7-5.3,6.3c0,3.8-0.2,7.7,0,11.5c0.2,2.9-1.5,2.8-3.4,2.8c-2,0-4,0.5-3.9-2.8c0.2-6.7,0-13.5,0.1-20.2
			c0-1.7-0.9-4.1,2.1-4.2C-84.3,474.1-81.1,472.8-81.9,477.9z"/>
		<path class="st3" d="M-0.8,443.9c0,3.1-0.1,6.1,0,9.2c0.1,2.5,0,4.3-3.5,4.4c-3.7,0.1-3.9-1.7-3.9-4.5c0.1-6.6,0.2-13.2,0-19.8
			c-0.1-3.1,1.6-3,3.7-3.1c2.3,0,3.8,0.2,3.7,3.2C-1,436.8-0.8,440.4-0.8,443.9L-0.8,443.9z"/>
		<path class="st3" d="M-4.6,426.8c-2.6,0.5-3.6-0.5-3.6-3.1c0-2.9,1.2-3.5,3.9-3.4c2.5,0,3.4,0.6,3.5,3.3
			C-0.7,426.6-2.1,427.2-4.6,426.8z"/>
	</g>
</g>
<text transform="matrix(1 0 0 1 52.5463 72.0836)"><tspan x="0" y="0" class="st5 st6 st7 st8">CLOUD </tspan><tspan x="0" y="92" class="st4 st6 st7 st8">I</tspan><tspan x="23.1" y="92" class="st5 st6 st7 st8">MS</tspan></text>
<text transform="matrix(1 0 0 1 332.6625 361.4668)"><tspan x="0" y="0" class="st6" style="fill:#00A0DF; font-size:71.6446px;">CLOUD</tspan><tspan x="229.3" y="0" class="st6" style="font-size:71.6446px;"> </tspan><tspan x="243.8" y="0" class="st5 st6" style="font-size:71.6446px;">IMS</tspan></text>
<g id="_x38_piKwq.tif">
	<g>
		<g>
			<path class="st5" d="M314.5,122.1c1.3,0.1,2.5,0,3.7,0.2c6.4,1.1,10.8,5.4,13.1,12.2c2.4,7,1.7,13.9-2.1,20.1
				c-3.4,5.5-8.1,8.1-14,7.9c-2.6-0.1-5.3,0-7.9,0c-20.1,0-40.2,0-60.2,0c-5.9,0-11.1-2.1-15.3-7c-6.7-7.8-6.3-20,0.8-27.3
				c2.1-2.1,4.4-3.7,7-4.7c0.5-0.2,0.7-0.4,0.7-1c0.3-13.1,8.4-24.1,19.2-27.2c9.7-2.8,18.3-0.4,25.8,7.4c0.7,0.7,1.3,1.5,1.8,2.3
				c0.3,0.4,0.6,0.5,1,0.4c6.9-2.1,13.2-0.9,19,4c3.7,3.1,6.1,7.2,7.3,12.3C314.4,121.8,314.4,121.9,314.5,122.1z M282.6,118.6
				c-0.7-1,2.6-8.1-6.4-13.2c-6.4-3.7-16.1-4.8-21.2-0.7c-16.1,12.7-7.5,25.2-7.6,25.2c-0.4,0.1-6,0-10.2,5.6
				c-5.5,5.7-4.2,13.4,3,16.6c8.4,5.3,16.8,3.3,21.4,3.3c16.8,2,30.7,1.1,42.2-1.1c2.7,0,13.4,2.2,19.6-4.8
				c4.8-4.3,6.2-6.7,3.8-13.3c-2.3-6.3-8.1-10.7-14.7-8.4c-0.5,0.2-4.4,2.9-5,3.1c0.7-7.9,0.4-10.8-5.1-14.3
				C293.5,109.6,288.2,115.7,282.6,118.6z"/>
			<path class="st5" d="M262.5,105.5c0.4,0.7,6.2,1.8,6.6,2.5c-5.5,4.7-12.5,13-12.2,21.2c-0.6,0.1-2.9-2.5-3.5-2.4
				C251.6,121.4,256.3,110.3,262.5,105.5z"/>
		</g>
	</g>
</g>
<g id="Vduzhb_2_">
	<g>
		<path class="st3" d="M356.6,255.7c-2.9,0-5.8-0.1-8.7,0c-4.3,0.3-7.1,2.7-8.5,6.7c-1,2.8-1.7,5.7-2.7,8.5
			c-1.5,4.2-2.8,8.4-4.3,12.6c-0.2,0.6-0.5,0.8-1.1,0.8c-2.7,0-5.4,0-8.1,0c-0.7,0-1.1-0.1-0.8-0.9c2.6-7.7,4.8-15.5,7.7-23
			c2.8-7.2,8.5-11.2,16.3-11.5c6.8-0.3,13.6-0.1,20.4-0.1c1,0,1,0.3,0.7,1.1c-0.5,1.6-1,3.3-1.5,4.9c-0.2,0.7-0.6,1-1.3,0.9
			c-2.7,0-5.4,0-8,0C356.6,255.7,356.6,255.7,356.6,255.7z"/>
		<path class="st4" d="M364.1,284.2c-1.3,0-2.5-0.1-3.8,0c-1.2,0.1-1.4-0.2-1.1-1.4c1.3-4.2,2.5-8.4,3.8-12.6
			c1.2-3.9,2.4-7.9,3.5-11.8c0.3-0.9,0.7-1.2,1.6-1.1c2.5,0.1,5.1,0.1,7.6,0c1.4-0.1,1.4,0.4,1.1,1.5c-1.8,6-3.5,12-5.3,18
			c-0.6,2-1.2,4-1.7,6c-0.3,1-0.7,1.5-1.8,1.4C366.6,284.1,365.3,284.2,364.1,284.2L364.1,284.2z"/>
		<path class="st3" d="M351.6,284.2c-1.3,0-2.6-0.1-3.9,0c-0.9,0.1-1.2-0.2-0.9-1.2c1.3-4,2.4-8,3.6-11.9c0.5-1.5,0.9-3,1.3-4.5
			c0.2-0.7,0.5-1.1,1.3-1.1c2.7,0.1,5.4,0.1,8.1,0c0.9,0,1,0.3,0.8,1.1c-1.7,5.5-3.3,11.1-4.9,16.6c-0.2,0.7-0.5,1-1.3,0.9
			C354.4,284.2,353,284.3,351.6,284.2z"/>
		<path class="st3" d="M342.5,272.5c-1.2,0-2.4,0-3.5,0c-0.7,0-1.1-0.1-0.8-1c0.4-1.2,0.7-2.4,1.1-3.6c0.5-1.5,1.6-2.2,3-2.3
			c2.5-0.1,5,0,7.5,0c0.7,0,0.8,0.3,0.6,0.9c-0.4,1.3-0.8,2.6-1.3,3.8c-0.5,1.3-1.5,2.1-2.9,2.1C345,272.5,343.7,272.4,342.5,272.5
			C342.5,272.5,342.5,272.5,342.5,272.5z"/>
		<path class="st3" d="M360.4,257.3c1.2,0,2.4,0,3.7,0c0.7,0,1,0.2,0.7,0.9c-0.4,1.2-0.8,2.4-1.2,3.6c-0.5,1.5-1.6,2.3-3.2,2.3
			c-2.4,0.1-4.9,0-7.3,0.1c-0.7,0-0.8-0.2-0.6-0.9c0.4-1.2,0.7-2.4,1.1-3.6c0.5-1.5,1.5-2.3,3.1-2.4
			C357.9,257.3,359.2,257.3,360.4,257.3L360.4,257.3z"/>
		<path class="st4" d="M380.1,248.8c-0.6,1.7-1,3.4-1.6,4.9c-0.5,1.1-1.4,1.8-2.6,1.9c-2.5,0.1-5.1,0-7.6,0.1
			c-0.7,0-0.8-0.3-0.6-0.9c0.4-1.3,0.8-2.5,1.2-3.8c0.4-1.3,1.4-2.1,2.7-2.2C374.3,248.7,377.1,248.8,380.1,248.8z"/>
		<path class="st3" d="M406.8,264.5c0-0.9,0.1-1.6,0-2.4c-0.1-0.7,0.3-0.9,0.9-0.9c0.6,0,1.1,0,1.1,0.8c0,2.9,0,5.9,0,8.8
			c0,0.3,0.1,0.8-0.4,0.8s-1.2,0.3-1.4-0.2c-0.2-0.4-0.2-0.5-0.7-0.2c-2.2,1.3-4.3,0.4-4.9-2.1c-0.2-0.9-0.2-1.7,0-2.6
			C402.1,264,403.9,263.2,406.8,264.5z M403.5,267.9c0,1.4,0.7,2.2,1.7,2.2c1,0,1.7-0.9,1.7-2.2c0-1.4-0.7-2.4-1.7-2.4
			C404.1,265.5,403.5,266.4,403.5,267.9z"/>
		<path class="st3" d="M433.1,280.9c-0.7,0-1.3,0-2,0c-0.9,0-0.9,0.4-0.6,1c0.5,1,1.8,1.3,2.7,0.6c0.8-0.6,1.9-0.9,2.3-0.2
			c0.4,0.6-0.6,1.3-1.3,1.7c-1.5,0.9-3.8,0.6-5-0.6c-1.2-1.2-1.4-3.8-0.4-5.4c0.9-1.4,2.8-2,4.5-1.5c1.5,0.5,2.4,1.8,2.5,3.5
			c0,0.7-0.1,1-0.9,0.9C434.4,280.9,433.8,280.9,433.1,280.9C433.1,280.9,433.1,280.9,433.1,280.9z M432,279.6
			c0.6-0.2,1.6,0.4,1.7-0.5c0.1-0.9-0.7-1.2-1.5-1.2c-0.7,0-1.5,0.3-1.5,1.1C430.6,280,431.6,279.3,432,279.6z"/>
		<path class="st3" d="M410.7,280.9c-0.7,0-1.3,0-2,0c-0.9,0-0.8,0.4-0.5,1c0.5,1,1.8,1.3,2.7,0.5c0.7-0.7,1.9-0.7,2.2-0.3
			c0.5,0.7-0.5,1.3-1.1,1.8c-1.7,1.2-4.4,0.7-5.5-1c-1.2-1.8-0.7-4.8,0.9-6c1.6-1.1,4.2-0.8,5.3,0.8c0.2,0.2,0.3,0.4,0.4,0.7
			c0.9,2,0.5,2.5-1.5,2.6C411.3,280.9,410.9,280.9,410.7,280.9L410.7,280.9z M409.7,279.6c0.5-0.3,1.5,0.4,1.6-0.5
			c0.1-0.8-0.8-1.1-1.6-1.1c-0.8,0-1.5,0.4-1.5,1.1C408.2,280.1,409.2,279.3,409.7,279.6z"/>
		<path class="st3" d="M389,253.8c0-1.5,0-2.9,0-4.3c0-0.6,0.2-0.8,0.8-0.8c1.9,0.1,3.8,0.1,5.8,0c0.7,0,0.9,0.2,0.9,0.9
			c0,0.6,0,1-0.8,1c-1.2-0.1-2.4,0-3.5,0c-0.9-0.1-1,0.4-0.9,1.1c0.1,0.6-0.2,1.4,0.9,1.3c0.9-0.1,1.9,0,2.8,0
			c0.7,0,1.1,0.1,1.1,0.9c0,0.8-0.3,1-1,0.9c-1-0.1-1.9,0-2.9,0c-0.6,0-0.9,0.2-0.8,0.8c0.1,0.8,0,1.6,0,2.4
			c0.1,0.9-0.2,1.2-1.1,1.2c-0.9,0-1.1-0.4-1.1-1.1C389.1,256.6,389,255.2,389,253.8L389,253.8z"/>
		<path class="st3" d="M421.1,255.3c0-2.5,1.6-4.1,4-4.1c2.4,0,4,1.7,4,4.3c-0.1,2.4-1.7,4-3.9,4
			C422.6,259.4,421.1,257.8,421.1,255.3z M423.2,255.3c0,1.5,0.7,2.4,1.9,2.3c1,0,1.8-1,1.8-2.4c0-1.5-0.7-2.4-1.9-2.4
			C423.8,253,423.2,253.8,423.2,255.3z"/>
		<path class="st3" d="M447.7,268.2c0.1,0.9-0.2,1.9,0.3,2.9c0.2,0.4,0.1,0.7-0.3,0.6c-0.6-0.1-1.3,0.3-1.8-0.4
			c-0.4-0.6-0.7,0.1-1.1,0.3c-1.7,0.9-3.4,0.2-3.8-1.6c-0.2-1.3,0.3-2.2,1.5-2.5c0.7-0.2,1.5-0.3,2.2-0.5c0.5-0.1,1-0.2,1-0.8
			c0-0.7-0.7-0.7-1.2-0.7c-0.5-0.1-0.9,0.1-1.1,0.5c-0.5,0.9-1.5,0.7-1.9,0.3c-0.5-0.4,0.1-1.2,0.5-1.6c1.3-1.2,2.9-1.1,4.4-0.6
			c1.3,0.4,1.5,1.5,1.4,2.6C447.7,267.2,447.7,267.6,447.7,268.2z M444.1,270.4c0.9,0,1.7-0.9,1.7-1.8c0-0.4-0.1-0.6-0.5-0.5
			c-0.8,0.3-2.1,0-2.2,1.3C442.9,270.2,443.5,270.4,444.1,270.4z"/>
		<path class="st3" d="M404.9,255.5c-0.1,2.5-1.7,4-4.1,3.9c-2.3-0.1-3.8-1.7-3.8-4.2c0.1-2.6,1.7-4.2,4.2-4
			C403.5,251.3,405,253,404.9,255.5z M402.7,255.3c0-1.5-0.6-2.4-1.8-2.4c-1.1,0-1.9,0.9-1.8,2.4c0,1.4,0.7,2.3,1.8,2.3
			C402.1,257.7,402.7,256.9,402.7,255.3z"/>
		<path class="st3" d="M430.3,255.3c0-0.9,0-1.8,0-2.8c0-0.4-0.2-0.9,0.3-1c0.5-0.1,1.2-0.3,1.5,0.1c0.4,0.5,0.5,0.4,1,0.1
			c1.9-1.2,4.1,0,4.2,2.2c0.1,1.5,0,2.9,0,4.3c0,0.8-0.4,0.9-1,0.9c-0.7,0-1.1-0.1-1.1-1c0.1-1.3,0-2.5,0-3.8c0-0.9-0.4-1.5-1.3-1.4
			c-0.9,0-1.4,0.5-1.4,1.4c-0.1,1.3-0.1,2.5-0.1,3.8c0,0.8-0.3,1.1-1.1,1.1s-1.1-0.3-1-1.1C430.4,257.2,430.3,256.2,430.3,255.3
			L430.3,255.3z"/>
		<path class="st3" d="M400.1,281.1c0,0.7,0,1.4,0,2.1c0.1,0.9-0.3,1.2-1.2,1.2c-1,0.1-0.9-0.6-0.9-1.2c0-1.2,0-2.4,0-3.7
			c0-0.9-0.3-1.6-1.3-1.6c-1.1-0.1-1.5,0.7-1.6,1.6c-0.1,1.2-0.1,2.4,0,3.5c0,0.8-0.1,1.1-1.1,1.1c-1,0-1-0.5-1-1.2
			c0-1.8,0-3.7,0-5.5c0-0.4-0.3-1,0.4-1.1c0.5-0.1,1.2-0.3,1.5,0.3c0.2,0.4,0.3,0.3,0.6,0.1c2.4-1.4,4.4-0.3,4.4,2.6
			C400.1,280,400.1,280.6,400.1,281.1L400.1,281.1z"/>
		<path class="st3" d="M420.1,280.4c0-1,0-1.9,0-2.9c0-0.4-0.2-0.9,0.3-1c0.5-0.1,1.2-0.4,1.5,0.3c0.3,0.6,0.4,0.3,0.7,0.1
			c2.2-1.4,4.3-0.3,4.4,2.2c0.1,1.4,0,2.8,0.1,4.2c0.1,1-0.6,0.9-1.2,0.9c-0.7,0.1-0.9-0.2-0.9-0.9c0-1.2,0-2.4,0-3.7
			c0-0.9-0.3-1.6-1.3-1.6c-1.1-0.1-1.5,0.6-1.5,1.6c-0.1,1.2-0.1,2.4,0,3.7c0.1,0.9-0.4,0.9-1.1,1c-0.7,0-1-0.2-1-1
			C420.1,282.3,420.1,281.3,420.1,280.4L420.1,280.4z"/>
		<path class="st3" d="M439,255.3c0-0.9,0-1.7,0-2.6c0-0.4-0.3-1,0.3-1.2c0.5-0.1,1.3-0.4,1.7,0.3c0.3,0.4,0.3,0.3,0.6,0.1
			c1-0.8,2.1-0.7,3.2-0.2c1.1,0.5,1.3,1.6,1.3,2.7c0,1.3,0,2.6,0,3.9c0,0.9-0.5,1-1.1,1c-0.7,0-1-0.2-1-1c0.1-1.2,0-2.4,0-3.7
			c0-0.9-0.3-1.6-1.3-1.6c-0.9,0-1.5,0.6-1.5,1.5c-0.1,1.3-0.1,2.5,0,3.8c0,0.8-0.4,0.9-1,0.9c-0.6,0-1.1,0-1.1-0.9
			C439.1,257.3,439,256.3,439,255.3C439,255.3,439,255.3,439,255.3z"/>
		<path class="st3" d="M422.6,271.9c-1.3,0-2.4-0.1-3.2-1.1c-0.4-0.4-0.8-1.2-0.4-1.5c0.5-0.4,1.5-0.6,2,0.2
			c0.5,0.7,1.1,0.7,1.9,0.7c0.5,0,0.9-0.1,1-0.7c0.1-0.5-0.4-0.6-0.8-0.7c-0.8-0.2-1.6-0.5-2.4-0.7c-0.9-0.3-1.5-0.8-1.5-1.8
			c-0.1-0.9,0.3-1.7,1.1-2.2c1.2-0.8,3.5-0.7,4.6,0.2c0.5,0.4,1.1,1.2,0.7,1.6c-0.4,0.4-1.4,0.5-2-0.2c-0.2-0.2-0.4-0.5-0.6-0.5
			c-0.6-0.1-1.5-0.4-1.7,0.4c-0.3,0.8,0.6,0.8,1.1,0.9c0.6,0.2,1.3,0.3,1.9,0.5c1,0.3,1.7,0.9,1.7,2.1c0,1.2-0.7,1.9-1.7,2.3
			C423.7,271.9,423.1,271.9,422.6,271.9z"/>
		<path class="st3" d="M393,267.8c0-0.9,0-1.9,0-2.8c0-0.4-0.2-0.9,0.3-1s1.3-0.3,1.6,0.1c0.3,0.5,0.4,0.4,0.8,0.1
			c2.1-1.3,4.3-0.1,4.4,2.4c0,1.4-0.1,2.7,0,4.1c0.1,0.9-0.5,0.9-1.1,1c-0.7,0.1-1-0.2-1-0.9c0.1-1.2,0-2.4,0-3.5
			c0-0.9-0.2-1.7-1.3-1.7c-1.1,0-1.5,0.7-1.5,1.7c0,1.1-0.1,2.3,0,3.4c0,0.8-0.1,1.1-1,1.1c-0.9,0-1.1-0.3-1.1-1.1
			C393.1,269.6,393,268.7,393,267.8L393,267.8z"/>
		<path class="st3" d="M417.5,267.7c0,1,0,1.9,0,2.9c0,0.4,0.2,1-0.5,1c-0.5,0-1.2,0.4-1.5-0.4c-0.2-0.6-0.4-0.1-0.6,0
			c-2.5,1.5-4.3,0.5-4.4-2.4c0-1.3,0-2.6,0-3.9c0-0.8,0.3-0.9,1-0.9s1.2,0.1,1.1,1c-0.1,1.3,0,2.5,0,3.8c0,0.8,0.3,1.4,1.2,1.4
			c0.9,0,1.5-0.4,1.5-1.3c0.1-1.3,0.1-2.6,0.1-3.9c0-0.9,0.4-1,1.1-1c0.8,0,1.1,0.2,1,1.1C417.4,265.9,417.5,266.8,417.5,267.7
			L417.5,267.7z"/>
		<path class="st3" d="M409.1,253.5c0.3-0.6,0.6-1,0.8-1.5c0.3-0.5,1.9-0.9,2.3-0.6c0.3,0.2,0.1,0.5,0,0.7c-0.5,0.8-1,1.5-1.6,2.3
			c-0.4,0.6-0.4,1.1,0,1.6c0.6,0.8,1.1,1.6,1.6,2.4c0.3,0.5,0.3,0.7-0.4,0.8c-1.1,0.1-2-0.1-2.4-1.3c-0.1-0.3-0.4-0.6-0.6-0.9
			c-0.3,0.5-0.7,0.9-0.9,1.4c-0.5,1.2-1.5,0.8-2.4,0.8c-0.5,0-0.3-0.5-0.1-0.7c0.5-0.8,1-1.5,1.6-2.2c0.5-0.6,0.6-1.1,0.1-1.8
			c-0.7-0.9-1.2-1.8-1.8-2.7C407.4,251.2,407.4,251.2,409.1,253.5z"/>
		<path class="st3" d="M415.3,255.6c0.1,0.7,0,1.7,1.1,2c0.7,0.2,1.3,0.1,1.7-0.7c0.1-0.3,0.2-0.6,0.6-0.6c0.5,0,1.1-0.3,1.5,0.2
			c0.3,0.4-0.1,0.9-0.4,1.3c-0.9,1.3-2.2,1.7-3.7,1.5c-1.4-0.2-2.3-1-2.6-2.4c-0.4-1.8-0.4-3.6,1.1-5c1.3-1.1,2.8-0.9,4.3-0.3
			c0.5,0.2,0.9,0.6,1.1,1.1c0.2,0.4,0.7,1,0.1,1.3c-0.5,0.3-1.4,0.4-1.8-0.1c-0.6-0.8-1.1-1.3-2-0.8c-0.9,0.4-0.8,1.3-0.9,2.2
			C415.3,255.3,415.3,255.4,415.3,255.6z"/>
		<path class="st3" d="M402,280.7c0-0.6,0-1.1,0-1.7c0-0.5,0.1-0.9-0.6-1.1c-0.7-0.2-0.7-1.1-0.2-1.3c0.9-0.3,0.9-0.7,0.8-1.4
			c-0.1-0.9,0.4-1,1.1-1c0.8,0,1,0.3,0.9,1c-0.1,0.6-0.1,1.3,0.9,1.2c0.4,0,0.4,0.3,0.4,0.7c0,0.4,0,0.8-0.5,0.7
			c-0.9-0.1-0.8,0.6-0.8,1.1c0,0.7,0,1.5,0,2.2c0,0.7-0.2,1.4,0.9,1.5c0.6,0.1,0.3,0.6,0.3,1c0,0.4-0.3,0.5-0.6,0.5
			c-1.9,0.3-2.7-0.4-2.7-2.3C402,281.5,402,281.1,402,280.7z"/>
		<path class="st3" d="M427.6,268c0-0.6,0-1.1,0-1.7c0-0.5,0-0.7-0.6-0.9c-0.7-0.3-0.7-1.1-0.1-1.3c0.9-0.2,0.8-0.7,0.7-1.3
			c-0.1-0.9,0.3-1,1.1-1c0.8,0,1,0.3,0.9,1c-0.1,0.6-0.1,1.2,0.9,1.2c0.5,0,0.4,0.5,0.4,0.8c0,0.3-0.1,0.6-0.5,0.7
			c-0.2,0-0.5,0-0.6,0.1c-0.6,0.5-0.1,4.5,0.6,4.6c0.6,0.1,0.5,0.5,0.5,0.9c0,0.5-0.3,0.6-0.7,0.7c-1.8,0.2-2.6-0.5-2.6-2.3
			C427.6,269,427.6,268.5,427.6,268C427.6,268,427.6,268,427.6,268z"/>
		<path class="st3" d="M437.4,280.6c0-0.6,0-1.1,0-1.7c0-0.5,0-0.8-0.6-0.9c-0.8-0.2-0.8-1.1-0.2-1.3c0.9-0.3,0.9-0.7,0.8-1.3
			c-0.1-0.8,0.3-1,1-1c0.7,0,1.1,0.1,1,0.9c-0.1,0.6-0.2,1.3,0.8,1.3c0.4,0,0.5,0.3,0.5,0.7c0,0.3,0.1,0.8-0.5,0.8
			c-0.9,0-0.8,0.5-0.8,1.1c0,0.8,0,1.7,0,2.5c0,0.6,0,1.1,0.8,1.2c0.6,0.1,0.4,0.6,0.4,0.9c0.1,0.5-0.3,0.6-0.7,0.6
			c-1.9,0.1-2.6-0.3-2.6-2.1C437.4,281.6,437.3,281.1,437.4,280.6C437.3,280.6,437.3,280.6,437.4,280.6z"/>
		<path class="st3" d="M434.1,264.8c0.4-0.3,0.6-0.6,0.9-0.7c0.4-0.2,0.9-0.5,1.3-0.2c0.4,0.3,0.2,0.9,0.2,1.3
			c0,0.7-0.5,0.6-0.9,0.7c-1,0.1-1.5,0.7-1.5,1.7c-0.1,1.1-0.1,2.2-0.1,3.3c0,0.8-0.3,1-1,0.9c-0.7,0-1.1-0.1-1.1-0.9
			c0-1.9,0-3.8,0-5.6c0-0.5-0.3-1.2,0.5-1.2C433.2,263.9,434,263.7,434.1,264.8z"/>
		<path class="st3" d="M389,279c0-1.5,0.1-3,0-4.4c-0.1-1,0.5-0.9,1.1-0.9c0.7,0,1,0.1,1,0.9c-0.1,2.9-0.1,5.8,0,8.7
			c0,0.9-0.4,0.9-1.1,1c-0.8,0-1.1-0.2-1-1C389.1,281.8,389,280.4,389,279z"/>
		<path class="st3" d="M389,266.5c0-1.4,0.1-2.8,0-4.2c0-0.8,0.2-1.1,1-1c0.7,0,1.1,0,1.1,1c-0.1,2.8-0.1,5.6,0,8.4
			c0,0.9-0.5,0.9-1.1,0.9c-0.8,0.1-1.1-0.2-1-1C389.1,269.2,389,267.9,389,266.5L389,266.5z"/>
		<path class="st3" d="M451.6,266.5c0,1.5,0,2.9,0,4.3c0,0.8-0.4,0.8-1,0.8c-0.5,0-1.2,0.2-1.1-0.8c0-2.9,0-5.8,0-8.8
			c0-1,0.6-0.7,1.1-0.8c0.6,0,1.1,0,1,0.9C451.6,263.6,451.6,265.1,451.6,266.5L451.6,266.5z"/>
		<path class="st3" d="M416.5,277.5c0.5-0.4,0.7-0.7,1-0.9c0.4-0.3,0.9-0.5,1.3-0.3c0.5,0.3,0.2,1,0.2,1.5c0,0.6-0.5,0.5-0.9,0.5
			c-1.1,0.1-1.5,0.8-1.5,1.8c0,1.1-0.1,2.2,0,3.3c0.1,0.8-0.4,0.8-1,0.8c-0.6,0-1.1,0.1-1.1-0.8c0.1-1.9,0-3.8,0-5.8
			c0-0.5-0.3-1.2,0.6-1.2C415.8,276.4,416.7,276.1,416.5,277.5z"/>
		<path class="st3" d="M439.6,267.8c0,0.9,0,1.7,0,2.6c0,0.7,0,1.2-1,1.3c-1.1,0-1.1-0.5-1.1-1.3c0-1.9,0.1-3.8,0-5.6
			c0-0.9,0.5-0.9,1.1-0.9c0.7,0,1.1,0.1,1.1,0.9C439.5,265.8,439.6,266.9,439.6,267.8L439.6,267.8z"/>
		<path class="st3" d="M438.5,263c-0.7,0.1-1-0.1-1-0.9c0-0.8,0.3-1,1.1-1c0.7,0,1,0.2,1,0.9C439.6,262.9,439.2,263.1,438.5,263z"/>
	</g>
</g>
</svg>
