<?xml version="1.0" encoding="utf-8"?>
<!-- Generator: Adobe Illustrator 24.1.0, SVG Export Plug-In . SVG Version: 6.00 Build 0)  -->
<svg version="1.1" id="Layer_1" xmlns="http://www.w3.org/2000/svg" xmlns:xlink="http://www.w3.org/1999/xlink" x="0px" y="0px"
	 viewBox="0 0 161.7 172.7" style="enable-background:new 0 0 161.7 172.7;" xml:space="preserve">
<style type="text/css">
	.st0{opacity:0.16;}
	.st1{clip-path:url(#SVGID_2_);}
	.st2{fill:#3A3738;}
	.st3{fill:none;stroke:#282627;stroke-width:5;stroke-miterlimit:10;}
	.st4{fill:#919191;}
	.st5{fill:#919191;stroke:#1B181A;stroke-width:2.314;stroke-miterlimit:10;}
	.st6{fill:#919191;stroke:#1B181A;stroke-width:1.5;stroke-miterlimit:10;}
	.st7{fill:none;}
	.st8{clip-path:url(#SVGID_5_);}
</style>
<g class="st0">
	<defs>
		<circle id="SVGID_1_" class="st0" cx="80.8" cy="86.6" r="80.8"/>
	</defs>
	<clipPath id="SVGID_2_">
		<use xlink:href="#SVGID_1_"  style="overflow:visible;"/>
	</clipPath>
	<g class="st1">
		<circle cx="80.7" cy="87.3" r="80.9"/>
		<circle class="st2" cx="82.8" cy="87.3" r="59.7"/>
		<circle class="st3" cx="84.1" cy="87.7" r="69.3"/>
		<rect x="12" y="82.1" transform="matrix(0.7071 0.7071 -0.7071 0.7071 84.5571 -38.9234)" width="154.4" height="1"/>
		<rect x="-0.5" y="85.9" transform="matrix(-0.4208 0.9072 -0.9072 -0.4208 187.3402 53.1409)" width="154.4" height="1"/>
		<rect x="18.7" y="99.5" transform="matrix(-0.7071 0.7071 -0.7071 -0.7071 234.3572 102.8637)" width="154.4" height="1"/>
		<g id="_x30_OJaXm_4_">
			<g>
				<path class="st4" d="M200,17c2.3-0.7,4.2-1,5.8-1.8c2.8-1.4,4.4-1,5.5,2.1c1.1,3.2,2.4,6.3,3.9,9.4c1.4,2.9,0.8,4.4-2.2,5.5
					c-4.8,1.7-8.1,4.9-8.4,10.3c-0.4,6.5,1.9,10.5,8.2,12.9c3.3,1.2,3.8,2.8,2.4,5.7c-1.3,2.8-2.6,5.7-3.5,8.6
					c-1.1,3.3-2.7,4.3-6,2.6c-3.7-1.9-7.5-2-11.2,0.2c-5.5,3.1-7.9,9.3-5.3,15.3c1.7,3.9,1,6-3.1,7c-1,0.3-2,0.8-3,1.2
					c-2.6,1-5.5,3.2-7.8,2.7c-1.7-0.3-2.9-4-4.3-6.1c-2.6-3.8-6.3-5.5-10.8-5.3c-4.7,0.2-8.1,2.6-10.2,6.9c-2.6,5.4-2.6,5.3-8.1,3.1
					c-0.8-0.3-1.5-0.6-2.3-0.9c-2.6-1.2-6.1-1.7-7.4-3.7c-1-1.5,0.8-4.9,1.3-7.5c0.9-4.6-0.6-8.3-4-11.2c-3.7-3.2-7.8-3.9-12.5-2.2
					c-5.1,1.9-5.1,1.8-7.2-3.1c-1.1-2.6-2.1-5.3-3.3-7.8c-1.4-2.8-0.8-4.4,2.3-5.5c4.8-1.7,8-4.9,8.4-10.3
					c0.4-6.4-1.8-10.3-7.9-12.6c-3.6-1.4-4.2-3.1-2.5-6.4c1.2-2.4,2.3-4.9,3.1-7.5c1.2-3.9,3-5,7-3.1c5.6,2.6,11.2,0.8,14.7-4.2
					c2.8-3.9,3-8.1,0.9-12.3c-1.7-3.3-0.7-4.9,2.5-6c2.9-1,5.8-2.2,8.6-3.5c3-1.5,4.7-0.9,5.8,2.4c1.7,4.9,5.1,7.9,10.4,8.3
					c6.1,0.4,10.1-2,12.5-8.1c1.3-3.4,3-4,6.1-2.5c2.5,1.3,5.1,2.4,7.9,3.2c3.9,1.2,4.7,3,3,6.8c-2.6,5.9-0.8,11.6,4.4,14.9
					C195.5,15.8,198,16.3,200,17z M159.9,71c15.8,0,28.5-12.1,28.5-27.2c0-14.8-12.6-27.6-26.9-27.5c-15.3,0.1-28.1,12.4-28.3,27.2
					C133,58.4,145.3,71,159.9,71z"/>
			</g>
		</g>
		<circle class="st4" cx="161.7" cy="41.8" r="20.4"/>
		<g>
			<ellipse class="st4" cx="80.9" cy="33.8" rx="2.9" ry="3.2"/>
			<ellipse class="st5" cx="93" cy="83.2" rx="2.9" ry="3.2"/>
			<polygon class="st4" points="102.3,121.1 101.2,121.4 81.4,34.6 82.5,34.3 			"/>
		</g>
		<g>
			<circle class="st4" cx="41.5" cy="73.3" r="3.9"/>
			<circle class="st4" cx="10.9" cy="54.2" r="3.9"/>
			
				<rect x="58" y="29.9" transform="matrix(0.5303 -0.8478 0.8478 0.5303 -43.7231 89.1306)" class="st4" width="1.1" height="108.4"/>
		</g>
		<g>
			<circle class="st4" cx="37.2" cy="93.8" r="3.9"/>
			<circle class="st4" cx="3.1" cy="81.9" r="3.9"/>
			
				<rect x="55.6" y="46.3" transform="matrix(0.3312 -0.9436 0.9436 0.3312 -57.2539 120.2658)" class="st4" width="1.1" height="108.4"/>
		</g>
		<g>
			<ellipse class="st4" cx="36.9" cy="39.2" rx="5.4" ry="5"/>
			<ellipse class="st4" cx="5.4" cy="3.9" rx="5.4" ry="5"/>
			<polygon class="st4" points="102.3,111.5 101.1,112.4 6.6,6.4 7.9,5.5 			"/>
		</g>
		<g>
			<circle class="st4" cx="25.9" cy="116.3" r="2.9"/>
			
				<rect x="66.4" y="80.7" transform="matrix(9.300493e-02 -0.9957 0.9957 9.300493e-02 -59.055 175.4799)" class="st4" width="0.8" height="79"/>
		</g>
		<g id="o7NtWW_4_">
			<g>
				<path class="st4" d="M64.7,142.3c0-14.4,0-28.8,0-43.2c0-5.8,2.2-8,8-8c15.2,0,30.5,0,45.7,0c1.8,0,3.1,0.5,4.4,1.8
					c7.2,7.4,14.6,14.6,21.8,22c1,1,1.7,2.7,1.7,4.1c0.1,22.2,0.1,44.4,0.1,66.6c0,5.7-2.1,7.8-7.8,7.8c-22.1,0-44.2,0-66.3,0
					c-5.4,0-7.6-2.2-7.7-7.7C64.7,171.2,64.7,156.8,64.7,142.3z M118.8,119.8c8.5,0,16.9,0,24.5,0c-8.1-8.1-16.4-16.5-24.5-24.5
					C118.8,103.1,118.8,111.4,118.8,119.8z M73.3,147.2c21.7,0,43.1,0,64.6,0c0-1.6,0-3,0-4.5c-21.6,0-43.1,0-64.6,0
					C73.3,144.3,73.3,145.6,73.3,147.2z M73.3,171.1c21.7,0,43.2,0,64.6,0c0-1.6,0-3,0-4.5c-21.6,0-43,0-64.6,0
					C73.3,168.2,73.3,169.6,73.3,171.1z M137.9,159.3c0-1.7,0-3.2,0-4.7c-21.6,0-43,0-64.5,0c0,1.7,0,3.2,0,4.7
					C95,159.3,116.3,159.3,137.9,159.3z M73.3,183.2c21.7,0,43.1,0,64.6,0c0-1.6,0-3,0-4.5c-21.6,0-43,0-64.6,0
					C73.3,180.2,73.3,181.6,73.3,183.2z M72.6,106.5c0,2.1,0,4,0,5.9c7.7,0,15.3,0,22.9,0c0-2.1,0-4,0-5.9
					C87.8,106.5,80.3,106.5,72.6,106.5z"/>
			</g>
		</g>
		<g id="fZ39T1_4_">
			<g>
				<path class="st4" d="M168.7,77.3c-0.5-0.9-1.1-2.1-1.8-3.2c-0.9-1.4-0.7-2.5,0.9-3.3c0.4-0.2,0.7-0.4,1.1-0.6
					c4.3-2.5,4-2.7,6.3,1.6c0.8,1.4,1.7,2,3.3,1.4c1.7-0.7,4.2-0.3,4.2-3.3c0.1-4.6,0.2-4.6,4.8-4.6c3.3,0,3.3,0,3.3,3.4
					c0,3.1,2.8,5.5,5.7,4.6c1-0.3,1.9-1.8,2.5-2.9c1-2.1,2.3-2.5,4.1-1.1c0.3,0.2,0.6,0.3,0.9,0.5c3.7,2.1,3.8,2.2,1.6,5.8
					c-1.1,1.8-0.8,3,0.7,4.3c1.5,1.4,2.6,2.8,4.9,1.2c1.1-0.7,3.3-1.6,3.7-1.2c1.5,1.6,2.6,3.7,3.4,5.7c0.2,0.4-1.5,1.8-2.6,2.3
					c-2.1,1-2.5,2.2-2,4.6c0.6,2.6,1.8,3.4,4.3,3.3c3.5-0.1,3.5,0,3.5,3.5c0,0.3,0,0.5,0,0.8c0,3.9,0,3.9-3.8,3.9
					c-1.8,0-3.3,0.2-3.7,2.4c-0.4,2.2-1.4,4.2,1.6,5.4c1.1,0.5,2.8,2,2.7,2.5c-0.8,2.1-2.1,4-3.4,5.7c-0.2,0.3-1.7-0.2-2.5-0.6
					c-3.8-2-4.6-2-6.9,1.6c-0.5,0.8,0.2,2.4,0.4,3.6c0.3,1.2,1.3,3.2,0.9,3.5c-1.7,1.4-3.8,2.4-5.8,3.2c-0.3,0.1-1.3-1.1-1.8-1.8
					c-2.2-3.5-3.2-4-6.8-2.1c-0.9,0.5-1.4,2.3-1.4,3.6c-0.2,3.6-0.1,3.6-3.7,3.6c-0.7,0-1.3,0-2,0c-1.8,0.1-2.7-0.6-2.5-2.5
					c0.1-0.6,0-1.2,0-1.8c0.1-1.7-0.3-3-2.3-3.3c-1.9-0.3-4.1-1.8-5.3,1.2c-0.2,0.6-0.7,1.2-1,1.7c-0.2,0.3-0.3,0.7-0.5,0.8
					c-2.7,1.4-4-1.3-6-2.1c-0.6-0.2-0.7-1.7-0.8-2.6c-0.1-0.3,0.4-0.7,0.6-1.1c1.7-3.1,1.3-5.2-2-6.8c-0.7-0.4-2,0.2-3,0.5
					c-1.4,0.3-3.5,1.5-4,1c-1.4-1.5-2.4-3.6-3.2-5.6c-0.1-0.3,1.1-1.5,1.9-2c3.4-2.1,3.9-3.4,1.9-6.8c-0.4-0.8-2-1-3.1-1.4
					c-1.3-0.4-3.6-0.5-3.7-1c-0.4-2.1-0.2-4.3,0.1-6.4c0-0.3,1.6-0.7,2.4-0.7c4.3-0.2,4.4-0.1,5.1-4.4c0.2-0.9-0.6-2.1-1.2-2.9
					c-0.5-0.6-1.4-0.9-2.1-1.3c-0.4-0.2-0.9-0.4-1-0.7c-1.1-2.6,1.3-4,2.2-5.9c0.3-0.5,1.7-0.7,2.6-0.6c0.8,0.1,1.4,0.8,2.2,1.2
					C164.6,82.4,168.7,79.9,168.7,77.3z M186.6,78.3c-11.8,0-21.7,9.9-21.6,21.7c0.1,11.9,10,21.7,21.7,21.6
					c11.9-0.1,21.6-9.9,21.6-21.7C208.4,88.1,198.5,78.3,186.6,78.3z"/>
			</g>
		</g>
		<g>
			<circle class="st6" cx="53.1" cy="118.9" r="2"/>
		</g>
		<path id="SVGID_x5F_3_x5F_" class="st7" d="M-6.2,84.7c0,0-2.3-36.1,25.3-58.9S65.4,0,80.7,0s35.5,6.4,35.5,6.4"/>
		<text>		<textPath  xlink:href="#SVGID_x5F_3_x5F_" startOffset="27.6856%">
<tspan  style="font-family:'Arial-Black'; font-size:42px; letter-spacing:113;">FHW</tspan>		</textPath>
</text>
	</g>
</g>
<g class="st0">
	<defs>
		<circle id="SVGID_4_" class="st0" cx="73.3" cy="-150.8" r="80.8"/>
	</defs>
	<clipPath id="SVGID_5_">
		<use xlink:href="#SVGID_4_"  style="overflow:visible;"/>
	</clipPath>
	<g class="st8">
		<circle cx="73.1" cy="-150.1" r="80.9"/>
		<circle class="st2" cx="75.2" cy="-150.1" r="59.7"/>
		<circle class="st3" cx="76.5" cy="-149.8" r="69.3"/>
		<rect x="4.5" y="-155.3" transform="matrix(0.7071 0.7071 -0.7071 0.7071 -85.5403 -103.1161)" width="154.4" height="1"/>
		<rect x="-8.1" y="-151.5" transform="matrix(-0.4208 0.9072 -0.9072 -0.4208 -38.7806 -277.3304)" width="154.4" height="1"/>
		<rect x="11.1" y="-138" transform="matrix(-0.7071 0.7071 -0.7071 -0.7071 53.5666 -297.0946)" width="154.4" height="1"/>
		<g id="_x30_OJaXm_1_">
			<g>
				<path class="st4" d="M192.4-220.4c2.3-0.7,4.2-1,5.8-1.8c2.8-1.4,4.4-1,5.5,2.1c1.1,3.2,2.4,6.3,3.9,9.4
					c1.4,2.9,0.8,4.4-2.2,5.5c-4.8,1.7-8.1,4.9-8.4,10.3c-0.4,6.5,1.9,10.5,8.2,12.9c3.3,1.2,3.8,2.8,2.4,5.7
					c-1.3,2.8-2.6,5.7-3.5,8.6c-1.1,3.3-2.7,4.3-6,2.6c-3.7-1.9-7.5-2-11.2,0.2c-5.5,3.1-7.9,9.3-5.3,15.3c1.7,3.9,1,6-3.1,7
					c-1,0.3-2,0.8-3,1.2c-2.6,1-5.5,3.2-7.8,2.7c-1.7-0.3-2.9-4-4.3-6.1c-2.6-3.8-6.3-5.5-10.8-5.3c-4.7,0.2-8.1,2.6-10.2,6.9
					c-2.6,5.4-2.6,5.3-8.1,3.1c-0.8-0.3-1.5-0.6-2.3-0.9c-2.6-1.2-6.1-1.7-7.4-3.7c-1-1.5,0.8-4.9,1.3-7.5c0.9-4.6-0.6-8.3-4-11.2
					c-3.7-3.2-7.8-3.9-12.5-2.2c-5.1,1.9-5.1,1.8-7.2-3.1c-1.1-2.6-2.1-5.3-3.3-7.8c-1.4-2.8-0.8-4.4,2.3-5.5
					c4.8-1.7,8-4.9,8.4-10.3c0.4-6.4-1.8-10.3-7.9-12.6c-3.6-1.4-4.2-3.1-2.5-6.4c1.2-2.4,2.3-4.9,3.1-7.5c1.2-3.9,3-5,7-3.1
					c5.6,2.6,11.2,0.8,14.7-4.2c2.8-3.9,3-8.1,0.9-12.3c-1.7-3.3-0.7-4.9,2.5-6c2.9-1,5.8-2.2,8.6-3.5c3-1.5,4.7-0.9,5.8,2.4
					c1.7,4.9,5.1,7.9,10.4,8.3c6.1,0.4,10.1-2,12.5-8.1c1.3-3.4,3-4,6.1-2.5c2.5,1.3,5.1,2.4,7.9,3.2c3.9,1.2,4.7,3,3,6.8
					c-2.6,5.9-0.8,11.6,4.4,14.9C188-221.6,190.4-221.2,192.4-220.4z M152.3-166.4c15.8,0,28.5-12.1,28.5-27.2
					c0-14.8-12.6-27.6-26.9-27.5c-15.3,0.1-28.1,12.4-28.3,27.2C125.4-179.1,137.7-166.4,152.3-166.4z"/>
			</g>
		</g>
		<circle class="st4" cx="154.1" cy="-195.6" r="20.4"/>
		<g>
			<ellipse class="st4" cx="73.4" cy="-203.6" rx="2.9" ry="3.2"/>
			<ellipse class="st5" cx="85.4" cy="-154.2" rx="2.9" ry="3.2"/>
			<polygon class="st4" points="94.7,-116.3 93.6,-116 73.8,-202.8 75,-203.1 			"/>
		</g>
		<g>
			<circle class="st4" cx="40.1" cy="-169.4" r="3.9"/>
			<circle class="st4" cx="11.6" cy="-191.4" r="3.9"/>
			
				<rect x="55.6" y="-211.3" transform="matrix(0.6103 -0.7921 0.7921 0.6103 146.3015 -16.7404)" class="st4" width="1.1" height="108.4"/>
		</g>
		<g>
			<circle class="st4" cx="18.4" cy="-121.1" r="2.9"/>
			
				<rect x="58.8" y="-156.8" transform="matrix(9.300493e-02 -0.9957 0.9957 9.300493e-02 170.48 -47.3892)" class="st4" width="0.8" height="79"/>
		</g>
		<g id="o7NtWW_1_">
			<g>
				<path class="st4" d="M57.2-95.2c0-14.4,0-28.8,0-43.2c0-5.8,2.2-8,8-8c15.2,0,30.5,0,45.7,0c1.8,0,3.1,0.5,4.4,1.8
					c7.2,7.4,14.6,14.6,21.8,22c1,1,1.7,2.7,1.7,4.1C139-96.2,139-74,139-51.8c0,5.7-2.1,7.8-7.8,7.8c-22.1,0-44.2,0-66.3,0
					c-5.4,0-7.6-2.2-7.7-7.7C57.2-66.2,57.2-80.7,57.2-95.2z M111.3-117.6c8.5,0,16.9,0,24.5,0c-8.1-8.1-16.4-16.5-24.5-24.5
					C111.3-134.3,111.3-126,111.3-117.6z M65.7-90.2c21.7,0,43.1,0,64.6,0c0-1.6,0-3,0-4.5c-21.6,0-43.1,0-64.6,0
					C65.7-93.2,65.7-91.8,65.7-90.2z M65.7-66.3c21.7,0,43.2,0,64.6,0c0-1.6,0-3,0-4.5c-21.6,0-43,0-64.6,0
					C65.7-69.2,65.7-67.9,65.7-66.3z M130.3-78.1c0-1.7,0-3.2,0-4.7c-21.6,0-43,0-64.5,0c0,1.7,0,3.2,0,4.7
					C87.4-78.1,108.7-78.1,130.3-78.1z M65.8-54.2c21.7,0,43.1,0,64.6,0c0-1.6,0-3,0-4.5c-21.6,0-43,0-64.6,0
					C65.8-57.2,65.8-55.9,65.8-54.2z M65.1-130.9c0,2.1,0,4,0,5.9c7.7,0,15.3,0,22.9,0c0-2.1,0-4,0-5.9
					C80.3-130.9,72.8-130.9,65.1-130.9z"/>
			</g>
		</g>
		<g id="fZ39T1_1_">
			<g>
				<path class="st4" d="M161.1-160.2c-0.5-0.9-1.1-2.1-1.8-3.2c-0.9-1.4-0.7-2.5,0.9-3.3c0.4-0.2,0.7-0.4,1.1-0.6
					c4.3-2.5,4-2.7,6.3,1.6c0.8,1.4,1.7,2,3.3,1.4c1.7-0.7,4.2-0.3,4.2-3.3c0.1-4.6,0.2-4.6,4.8-4.6c3.3,0,3.3,0,3.3,3.4
					c0,3.1,2.8,5.5,5.7,4.6c1-0.3,1.9-1.8,2.5-2.9c1-2.1,2.3-2.5,4.1-1.1c0.3,0.2,0.6,0.3,0.9,0.5c3.7,2.1,3.8,2.2,1.6,5.8
					c-1.1,1.8-0.8,3,0.7,4.3c1.5,1.4,2.6,2.8,4.9,1.2c1.1-0.7,3.3-1.6,3.7-1.2c1.5,1.6,2.6,3.7,3.4,5.7c0.2,0.4-1.5,1.8-2.6,2.3
					c-2.1,1-2.5,2.2-2,4.6c0.6,2.6,1.8,3.4,4.3,3.3c3.5-0.1,3.5,0,3.5,3.5c0,0.3,0,0.5,0,0.8c0,3.9,0,3.9-3.8,3.9
					c-1.8,0-3.3,0.2-3.7,2.4c-0.4,2.2-1.4,4.2,1.6,5.4c1.1,0.5,2.8,2,2.7,2.5c-0.8,2.1-2.1,4-3.4,5.7c-0.2,0.3-1.7-0.2-2.5-0.6
					c-3.8-2-4.6-2-6.9,1.6c-0.5,0.8,0.2,2.4,0.4,3.6c0.3,1.2,1.3,3.2,0.9,3.5c-1.7,1.4-3.8,2.4-5.8,3.2c-0.3,0.1-1.3-1.1-1.8-1.8
					c-2.2-3.5-3.2-4-6.8-2.1c-0.9,0.5-1.4,2.3-1.4,3.6c-0.2,3.6-0.1,3.6-3.7,3.6c-0.7,0-1.3,0-2,0c-1.8,0.1-2.7-0.6-2.5-2.5
					c0.1-0.6,0-1.2,0-1.8c0.1-1.7-0.3-3-2.3-3.3c-1.9-0.3-4.1-1.8-5.3,1.2c-0.2,0.6-0.7,1.2-1,1.7c-0.2,0.3-0.3,0.7-0.5,0.8
					c-2.7,1.4-4-1.3-6-2.1c-0.6-0.2-0.7-1.7-0.8-2.6c-0.1-0.3,0.4-0.7,0.6-1.1c1.7-3.1,1.3-5.2-2-6.8c-0.7-0.4-2,0.2-3,0.5
					c-1.4,0.3-3.5,1.5-4,1c-1.4-1.5-2.4-3.6-3.2-5.6c-0.1-0.3,1.1-1.5,1.9-2c3.4-2.1,3.9-3.4,1.9-6.8c-0.4-0.8-2-1-3.1-1.4
					c-1.3-0.4-3.6-0.5-3.7-1c-0.4-2.1-0.2-4.3,0.1-6.4c0-0.3,1.6-0.7,2.4-0.7c4.3-0.2,4.4-0.1,5.1-4.4c0.2-0.9-0.6-2.1-1.2-2.9
					c-0.5-0.6-1.4-0.9-2.1-1.3c-0.4-0.2-0.9-0.4-1-0.7c-1.1-2.6,1.3-4,2.2-5.9c0.3-0.5,1.7-0.7,2.6-0.6c0.8,0.1,1.4,0.8,2.2,1.2
					C157-155.1,161.1-157.6,161.1-160.2z M179.1-159.1c-11.8,0-21.7,9.9-21.6,21.7c0.1,11.9,10,21.7,21.7,21.6
					c11.9-0.1,21.6-9.9,21.6-21.7C200.8-149.3,190.9-159.1,179.1-159.1z"/>
			</g>
		</g>
		<g>
			<circle class="st6" cx="45.6" cy="-118.5" r="2"/>
		</g>
		<path id="SVGID_x5F_6_x5F_" class="st7" d="M-13.8-152.8c0,0-2.3-36.1,25.3-58.9s46.3-25.8,61.6-25.8s35.5,6.4,35.5,6.4"/>
		<text>		<textPath  xlink:href="#SVGID_x5F_6_x5F_" startOffset="27.6856%">
<tspan  style="font-family:'Arial-Black'; font-size:42px; letter-spacing:113;">FHW</tspan>		</textPath>
</text>
	</g>
</g>
<text transform="matrix(1 0 0 1 -77.5163 -122.7042)" class="st0"><tspan x="0" y="0" style="stroke:#000000;stroke-width:4.6456;stroke-miterlimit:10; font-family:'MyriadPro-It'; font-size:48.7792px; letter-spacing:10;">FH</tspan><tspan x="73.5" y="0" style="fill:#FFFFFF;stroke:#FFFFFF;stroke-width:4.6456;stroke-miterlimit:10; font-family:'MyriadPro-It'; font-size:48.7792px; letter-spacing:10;">W</tspan></text>
<text transform="matrix(1 0 0 1 -80.5164 -102.9566)" class="st0"><tspan x="0" y="0" style="font-family:'MyriadPro-Regular'; font-size:23px; letter-spacing:2;">Wiscon</tspan><tspan x="84.4" y="0" style="fill:#FFFFFF;stroke:#FFFFFF;stroke-miterlimit:10; font-family:'MyriadPro-Regular'; font-size:23px; letter-spacing:2;">sin</tspan></text>
</svg>
