<svg width="263" height="263" xmlns="http://www.w3.org/2000/svg" xmlns:xlink="http://www.w3.org/1999/xlink" overflow="hidden"><defs><clipPath id="clip0"><rect x="231" y="126" width="263" height="263"/></clipPath></defs><g clip-path="url(#clip0)" transform="translate(-231 -126)"><path d="M461.035 239.011 436.433 239.011 436.433 164.011C436.433 159.035 432.399 155.001 427.423 155.001L297.577 155.001C292.601 155.001 288.567 159.035 288.567 164.011L288.567 239.011 263.965 239.011C245.787 239.011 231 253.798 231 271.975L231 350.989C231 355.965 235.033 359.999 240.01 359.999L484.99 359.999C489.967 359.999 494 355.965 494 350.989L494 271.975C494 253.798 479.212 239.011 461.035 239.011ZM306.587 173.021 418.413 173.021 418.413 239.011 306.587 239.011 306.587 173.021ZM475.98 341.979 249.02 341.979 249.02 271.975C249.02 263.735 255.724 257.03 263.965 257.03L461.035 257.03C469.275 257.03 475.98 263.734 475.98 271.975L475.98 341.979Z" fill="#9D9E9E"/><path d="M273.275 273.53 266.049 273.53C261.073 273.53 257.039 277.563 257.039 282.54 257.039 287.516 261.073 291.549 266.049 291.549L273.275 291.549C278.251 291.549 282.285 287.516 282.285 282.54 282.285 277.563 278.251 273.53 273.275 273.53Z" fill="#9D9E9E"/><path d="M324.959 200.97 400.04 200.97C405.017 200.97 409.05 196.937 409.05 191.96 409.05 186.984 405.017 182.951 400.04 182.951L324.959 182.951C319.982 182.951 315.949 186.984 315.949 191.96 315.949 196.937 319.983 200.97 324.959 200.97Z" fill="#9D9E9E"/><path d="M400.04 210.981 324.959 210.981C319.982 210.981 315.949 215.014 315.949 219.991 315.949 224.967 319.982 229.001 324.959 229.001L400.04 229.001C405.017 229.001 409.05 224.967 409.05 219.991 409.05 215.014 405.017 210.981 400.04 210.981Z" fill="#9D9E9E"/><path d="M427.423 311.684 297.577 311.684C292.601 311.684 288.567 315.718 288.567 320.694 288.567 325.67 292.601 329.704 297.577 329.704L427.423 329.704C432.399 329.704 436.433 325.67 436.433 320.694 436.433 315.718 432.399 311.684 427.423 311.684Z" fill="#9D9E9E"/></g></svg>