<?xml version="1.0" encoding="utf-8"?>
<!-- Generator: Adobe Illustrator 24.0.1, SVG Export Plug-In . SVG Version: 6.00 Build 0)  -->
<svg version="1.1" id="Layer_1" xmlns="http://www.w3.org/2000/svg" xmlns:xlink="http://www.w3.org/1999/xlink" x="0px" y="0px"
	 viewBox="0 0 625.1 876.3" style="enable-background:new 0 0 625.1 876.3;" xml:space="preserve">
<style type="text/css">
	.st0{fill:#7E7E7E;}
</style>
<g>
	<path class="st0" d="M313,0c137.5,0,249.8,112.6,249.6,250.3c-0.2,142.1-117.9,253-256,249.9c-134.1-3.1-247.1-114.8-244-255.7
		C65.5,111.6,173.7,0.4,313,0z"/>
	<path class="st0" d="M301.3,876.3c-31.8-2.7-67.3-4.7-102.4-8.8c-45.7-5.3-90.7-14.9-132.9-34.1c-14.2-6.5-27.6-14.7-40.8-23.1
		C8.4,799.6,0,783.2,0,763.5c-0.1-31,2.4-61.8,8.2-92.4C18,619.8,43.8,578.5,85.4,547c23-17.4,46-34.7,68.7-52.4
		c5.8-4.5,10.9-4.4,16.9-1c22.8,13.1,46.8,23.2,72.3,29.4c73.7,17.7,143.7,8.5,209.7-29.2c9.1-5.2,10.9-5.1,19.2,1.3
		c23.6,18.2,47.5,36.1,70.9,54.5c42.2,33.1,67.3,76.6,75.1,129.3c4.1,27.6,5.2,55.7,6.7,83.6c1.1,20.6-8.5,36.4-25.4,48.1
		c-33.5,23.2-70.8,37.3-110.2,46.3c-44.6,10.2-90,14.7-135.6,17.1C337.5,874.8,321.2,875.4,301.3,876.3z"/>
</g>
</svg>
