<?xml version="1.0" encoding="utf-8"?>
<!-- Generator: Adobe Illustrator 24.0.1, SVG Export Plug-In . SVG Version: 6.00 Build 0)  -->
<svg version="1.1" id="Layer_1" xmlns="http://www.w3.org/2000/svg" xmlns:xlink="http://www.w3.org/1999/xlink" x="0px" y="0px"
	 viewBox="0 0 143.77 152.63" style="enable-background:new 0 0 143.77 152.63;" xml:space="preserve">
<style type="text/css">
	.st0{display:none;}
	.st1{display:inline;opacity:0.08;}
	.st2{fill:#7E7E7E;}
	.st3{display:inline;}
	.st4{fill:#698A7E;}
	.st5{opacity:0.08;fill:#698A7E;enable-background:new    ;}
	.st6{display:inline;fill:#6A8A80;}
	.st7{fill:none;}
	.st8{display:inline;fill:#698A7E;}
	.st9{fill:#FFFFFF;}
	.st10{fill:#9D9E9E;}
</style>
<g id="Layer_1_1_" class="st0">
	<g id="VNr6mR_1_" class="st1">
		<g>
			<path class="st2" d="M143.77,25.26c-0.72,5.01-1.36,10.04-2.18,15.03c-2.06,12.58-9.68,21.52-19.22,29.23
				c-6.8,5.49-13.47,11.15-20.28,16.64c-1.76,1.42-2.69,2.63-2.3,5.21c1.33,8.67-0.59,16.3-7.43,22.55
				c-4.89,4.47-9.1,9.68-13.73,14.44c-3.23,3.32-4.94,2.84-5.96-1.65c-1.56-6.88-2.94-13.8-4.41-20.74
				c-3.52-0.54-6.95,3.38-10.11-0.72c-4.95,8.36-9.66,16.31-14.37,24.26c-0.27-0.06-0.54-0.11-0.8-0.17
				c-0.34-3.28-0.68-6.56-1.11-10.77c-13.93,11.64-27.33,22.85-40.74,34.05c-0.12-0.11-0.24-0.22-0.36-0.32
				c6.68-11.38,13.36-22.77,20.44-34.82c-7.47,1.51-14.14,2.86-20.81,4.2c-0.14-0.2-0.27-0.39-0.41-0.59
				c9.01-7.55,18.03-15.11,27.85-23.34c-4.12,0-7.23,0-10.34,0c-0.06-0.26-0.13-0.52-0.19-0.78c6.75-3.86,13.51-7.71,19.43-11.09
				c0.19-3.77,0.35-6.93,0.53-10.59c-5.26-1.11-10.82-2.28-16.39-3.47c-1.84-0.39-3.69-0.72-5.48-1.26
				c-2.81-0.84-3.33-2.53-1.3-4.46c6.65-6.34,13.38-12.61,20.1-18.87c3.72-3.46,8.42-4.08,13.06-3.46c5.99,0.81,9.86-1.09,13.47-6.1
				c5.36-7.43,11.87-14.01,17.68-21.13c7.7-9.43,18-13.58,29.63-15.24c3.27-0.47,6.54-0.87,9.81-1.3c3.99,0,7.98,0,11.97,0
				c2.96,1.24,6.13,2.14,8.83,3.8c3.61,2.23,4.27,6.33,5.13,10.16C143.77,17.73,143.77,21.49,143.77,25.26z M70.95,98.65
				c18.42-14.44,36.99-28.05,53.62-44.01c1.42-1.36,2.75-2.96,3.65-4.69c5.92-11.39,6.64-23.68,5.79-36.16
				c-0.18-2.67-1.77-4.4-4.86-4.27c-5.74,0.25-11.52,0.05-17.24,0.58c-10.79,1-20.33,4.66-27.42,13.52
				C71.71,39.6,58.72,55.41,45.84,71.31c-0.31,0.38-0.43,0.92-0.66,1.44C56.39,78.69,64.98,87.02,70.95,98.65z M25.78,108.33
				c0.09,0.14,0.18,0.29,0.28,0.43c4.14-1.48,8.28-2.97,12.93-4.63c-1.15,3.5-2.08,6.33-3.25,9.9c4.11-2.65,7.48-4.82,10.98-7.07
				c0.12,1.03,0.19,1.71,0.32,2.85c3.42-3.49,6.51-6.64,9.67-9.87c-2.63-4.76-6.12-8.7-10.65-11.62c-0.85-0.55-2.37-0.85-3.22-0.47
				c-3,1.33-5.85,3.01-9.14,4.77c1.85,0.77,3.22,1.34,4.9,2.04C34.19,99.35,29.99,103.84,25.78,108.33z M66.79,100.84
				c-5.55-10.9-13.28-18.9-24.43-24.11c-0.43,1.64-0.77,2.94-1.14,4.37c10.52,3.83,17.46,10.92,21.25,21.19
				C64,101.77,65.2,101.37,66.79,100.84z"/>
			<path class="st2" d="M103.42,59.4c-10.72,0.04-19.5-8.64-19.47-19.25s8.8-19.41,19.41-19.47c10.57-0.06,19.38,8.73,19.44,19.4
				C122.86,50.74,114.22,59.36,103.42,59.4z M88.76,40.1c-0.02,8.4,6.57,15.09,14.78,15c8.17-0.09,14.67-6.63,14.76-14.85
				c0.08-8.25-6.66-14.99-14.95-14.96C95.11,25.34,88.78,31.76,88.76,40.1z"/>
		</g>
	</g>
	<g id="VNr6mR_2_" class="st3">
		<g>
			<path class="st4" d="M143.77,24.6c-0.72,5.01-1.36,10.04-2.18,15.03c-2.06,12.58-9.68,21.52-19.22,29.23
				c-6.8,5.49-13.47,11.15-20.28,16.64c-1.76,1.42-2.69,2.63-2.3,5.21c1.33,8.67-0.59,16.3-7.43,22.55
				c-4.89,4.47-9.1,9.68-13.73,14.44c-3.23,3.32-4.94,2.84-5.96-1.65c-1.56-6.88-2.94-13.8-4.41-20.74
				c-3.52-0.54-6.95,3.38-10.11-0.72c-4.95,8.36-9.66,16.31-14.37,24.26c-0.27-0.06-0.54-0.11-0.8-0.17
				c-0.34-3.28-0.68-6.56-1.11-10.77c-13.93,11.64-27.33,22.85-40.74,34.05c-0.12-0.11-0.24-0.22-0.36-0.32
				c6.68-11.38,13.36-22.77,20.44-34.82c-7.47,1.51-14.14,2.86-20.81,4.2c-0.14-0.2-0.27-0.39-0.41-0.59
				c9.01-7.55,18.03-15.11,27.85-23.34c-4.12,0-7.23,0-10.34,0c-0.06-0.26-0.13-0.52-0.19-0.78c6.75-3.86,13.51-7.71,19.43-11.09
				c0.19-3.77,0.35-6.93,0.53-10.59c-5.26-1.11-10.82-2.28-16.39-3.47c-1.84-0.39-3.69-0.72-5.48-1.26
				c-2.81-0.84-3.33-2.53-1.3-4.46c6.65-6.34,13.38-12.61,20.1-18.87c3.72-3.46,8.42-4.08,13.06-3.46c5.99,0.81,9.86-1.09,13.47-6.1
				C66.1,29.58,72.62,23,78.42,15.88C86.11,6.45,96.41,2.3,108.04,0.64c3.27-0.47,6.54-0.87,9.81-1.3c3.99,0,7.98,0,11.97,0
				c2.96,1.24,6.13,2.14,8.83,3.8c3.61,2.23,4.27,6.33,5.13,10.16C143.77,17.06,143.77,20.83,143.77,24.6z M70.95,97.99
				c18.42-14.44,36.99-28.05,53.62-44.01c1.42-1.36,2.75-2.96,3.65-4.69c5.92-11.39,6.64-23.68,5.79-36.16
				c-0.18-2.67-1.77-4.4-4.86-4.27c-5.74,0.25-11.52,0.05-17.24,0.58c-10.79,1-20.33,4.66-27.42,13.52
				C71.71,38.94,58.72,54.75,45.84,70.65c-0.31,0.38-0.43,0.92-0.66,1.44C56.39,78.03,64.98,86.36,70.95,97.99z M25.78,107.67
				c0.09,0.14,0.18,0.29,0.28,0.43c4.14-1.48,8.28-2.97,12.93-4.63c-1.15,3.5-2.08,6.33-3.25,9.9c4.11-2.65,7.48-4.82,10.98-7.07
				c0.12,1.03,0.19,1.71,0.32,2.85c3.42-3.49,6.51-6.64,9.67-9.87c-2.63-4.76-6.12-8.7-10.65-11.62c-0.85-0.55-2.37-0.85-3.22-0.47
				c-3,1.33-5.85,3.01-9.14,4.77c1.85,0.77,3.22,1.34,4.9,2.04C34.19,98.69,29.99,103.18,25.78,107.67z M66.79,100.17
				c-5.55-10.9-13.28-18.9-24.43-24.11c-0.43,1.64-0.77,2.94-1.14,4.37c10.52,3.83,17.46,10.92,21.25,21.19
				C64,101.11,65.2,100.71,66.79,100.17z"/>
			<path class="st4" d="M103.42,58.74c-10.72,0.04-19.5-8.64-19.47-19.25s8.8-19.41,19.41-19.47c10.57-0.06,19.38,8.73,19.44,19.4
				C122.86,50.08,114.22,58.7,103.42,58.74z M88.76,39.44c-0.02,8.4,6.57,15.09,14.78,15c8.17-0.09,14.67-6.63,14.76-14.85
				c0.08-8.25-6.66-14.99-14.95-14.96C95.11,24.67,88.78,31.1,88.76,39.44z"/>
		</g>
	</g>
</g>
<g id="Layer_2_1_" class="st0">
	<g class="st3">
		<path class="st5" d="M448.85,157.66h-16v16h-16v16h16v16h16v-16h16v-16h-16V157.66z"/>
		<path class="st5" d="M672.85,45.66v-80h-40v-30.11l20.95-41.89h-89.9l20.95,41.89v30.11H564.4c-5.55-9.52-15.76-16-27.55-16h-128
			c-17.65,0-32,14.35-32,32h-40v-32h-120c-22.05,0-40,17.95-40,40v8h88v16h-88v8c0,22.05,17.95,40,40,40h120v-32h40
			c0,17.65,14.35,32,32,32h5.12l-26.48,84.75c-6.71,10.11-10.64,22.22-10.64,35.25c0,35.29,28.71,64,64,64
			c3.16,0,6.25-0.3,9.29-0.75l12.95,64.75H451.9l-16,32h-19.05v48h256v-48H653.8l-16-32h-12.95v-60.53l-118.8-71.28l29.04-116.19
			h1.76c11.79,0,22-6.48,27.55-16h20.45v22.11l-20.95,41.89h89.89l-20.95-41.89V45.66H672.85z M194.21-18.34
			c3.3-9.31,12.2-16,22.63-16h104v16H194.21z M320.85,45.66h-104c-10.43,0-19.33-6.69-22.63-16h126.63V45.66z M336.85,13.66h-56v-16
			h96v16H336.85z M392.85,181.66c0-26.47,21.53-48,48-48s48,21.53,48,48s-21.53,48-48,48S392.85,208.14,392.85,181.66z
			 M503.44,194.95l52.84,31.7l-85.58,39.5l-5.09-25.48C484.68,232.64,499.05,215.62,503.44,194.95z M571.73,235.93l27.79,16.68
			l-120.8,53.69l-4.8-24.01l98.27-45.35L571.73,235.93z M656.85,373.66h-224v-16h224V373.66z M635.9,341.66H453.79l8-16H627.9
			L635.9,341.66z M510.54,309.66l98.3-43.69v43.69H510.54z M496.48,150.15c-11.02-19.37-31.8-32.49-55.63-32.49
			c-10.82,0-21.02,2.72-29.96,7.49l19.84-63.49h87.88L496.48,150.15z M552.85,29.66c0,8.82-7.18,16-16,16h-128
			c-8.82,0-16-7.18-16-16v-48c0-8.82,7.18-16,16-16h128c8.82,0,16,7.18,16,16V29.66z M627.9-90.34l-8,16h-22.11l-8-16H627.9z
			 M600.85-58.34h16v24h-16V-58.34z M656.85-18.34v16h-88v-16H656.85z M568.85,13.66h88v16h-88V13.66z M589.79,93.66l8-16h22.11
			l8,16H589.79z M616.85,61.66h-16v-16h16V61.66z"/>
		<path class="st5" d="M440.85-18.34c-13.23,0-24,10.77-24,24s10.77,24,24,24s24-10.77,24-24S454.08-18.34,440.85-18.34z
			 M440.85,13.66c-4.41,0-8-3.59-8-8s3.59-8,8-8s8,3.59,8,8S445.26,13.66,440.85,13.66z"/>
		<path class="st5" d="M504.85-18.34c-13.23,0-24,10.77-24,24s10.77,24,24,24s24-10.77,24-24S518.08-18.34,504.85-18.34z
			 M504.85,13.66c-4.41,0-8-3.59-8-8s3.59-8,8-8s8,3.59,8,8S509.26,13.66,504.85,13.66z"/>
		<path class="st5" d="M344.27,257.77l12.94-15.5l-32.97-32.98l-15.5,12.95c-3.48-1.75-7.08-3.24-10.78-4.46l-1.8-20.11h-46.62
			l-1.81,20.12c-3.7,1.22-7.3,2.71-10.78,4.46l-15.5-12.95l-32.97,32.98l12.94,15.5c-1.75,3.47-3.24,7.07-4.46,10.77l-20.11,1.8
			v46.62l20.12,1.81c1.21,3.7,2.71,7.3,4.46,10.77l-12.95,15.5l32.97,32.98l15.5-12.95c3.48,1.75,7.08,3.24,10.78,4.46l1.79,20.11
			h46.62l1.81-20.12c3.7-1.22,7.3-2.71,10.78-4.46l15.5,12.95l32.97-32.98l-12.94-15.5c1.75-3.47,3.24-7.07,4.46-10.77l20.11-1.8
			v-46.62l-20.12-1.81C347.51,264.84,346.01,261.24,344.27,257.77z M352.85,302.35l-16.63,1.5l-1.39,5.5
			c-1.51,6.01-3.89,11.75-7.07,17.05l-2.91,4.88l10.71,12.82l-12.28,12.29l-12.83-10.72l-4.87,2.91
			c-5.29,3.17-11.03,5.55-17.05,7.07l-5.5,1.39l-1.49,16.63h-17.38l-1.5-16.63l-5.5-1.39c-6.02-1.52-11.76-3.9-17.05-7.07
			l-4.86-2.91l-12.83,10.71l-12.28-12.29l10.71-12.82l-2.91-4.88c-3.17-5.3-5.55-11.04-7.07-17.05l-1.39-5.5l-16.63-1.5v-17.38
			l16.63-1.5l1.39-5.5c1.51-6.01,3.89-11.75,7.07-17.05l2.91-4.88l-10.71-12.82l12.28-12.29l12.83,10.72l4.87-2.91
			c5.29-3.17,11.03-5.55,17.05-7.07l5.5-1.39l1.49-16.63h17.38l1.5,16.63l5.5,1.39c6.02,1.52,11.76,3.9,17.05,7.07l4.86,2.91
			l12.83-10.71l12.28,12.29l-10.71,12.82l2.91,4.88c3.17,5.3,5.55,11.04,7.07,17.05l1.39,5.5l16.63,1.5L352.85,302.35L352.85,302.35
			z"/>
		<path class="st5" d="M272.85,245.66c-26.47,0-48,21.53-48,48s21.53,48,48,48s48-21.53,48-48S299.32,245.66,272.85,245.66z
			 M272.85,325.66c-17.65,0-32-14.35-32-32s14.35-32,32-32s32,14.35,32,32S290.49,325.66,272.85,325.66z"/>
		<path class="st5" d="M264.85,77.66h16v16h-16V77.66z"/>
		<path class="st5" d="M264.85,109.66h16v16h-16V109.66z"/>
		<path class="st5" d="M264.85,141.66h16v16h-16V141.66z"/>
	</g>
	<path class="st6" d="M-7.45-61.91V-84.9h-11.49v-8.65l6.02-12.03h-25.82l6.02,12.03v8.65h-5.87c-1.59-2.73-4.53-4.6-7.91-4.6
		h-36.77c-5.07,0-9.19,4.12-9.19,9.19h-11.49v-9.19h-34.47c-6.33,0-11.49,5.16-11.49,11.49v2.3h25.28v4.6h-25.28v2.3
		c0,6.33,5.16,11.49,11.49,11.49h34.47v-9.19h11.49c0,5.07,4.12,9.19,9.19,9.19h1.47l-7.61,24.35c-1.93,2.9-3.06,6.39-3.06,10.13
		c0,10.14,8.25,18.39,18.39,18.39c0.91,0,1.8-0.09,2.67-0.22l3.72,18.6h-3.21l-4.6,9.19h-5.48v13.79h73.54V23.12h-5.47l-4.6-9.19
		h-3.72V-3.46l-34.13-20.48l8.34-33.38h0.51c3.39,0,6.32-1.86,7.91-4.6h5.87v6.35l-6.02,12.03h25.82l-6.02-12.03v-6.35L-7.45-61.91
		L-7.45-61.91z M-144.95-80.3c0.95-2.67,3.5-4.6,6.5-4.6h29.88v4.6H-144.95z M-108.57-61.91h-29.88c-3,0-5.55-1.92-6.5-4.6h36.38
		C-108.57-66.51-108.57-61.91-108.57-61.91z M-103.98-71.11h-16.09v-4.6h27.58v4.6H-103.98z M-87.89-22.85
		c0-7.6,6.19-13.79,13.79-13.79s13.79,6.19,13.79,13.79S-66.49-9.06-74.1-9.06C-81.7-9.06-87.89-15.24-87.89-22.85z M-56.12-19.03
		l15.18,9.11L-65.52,1.43l-1.46-7.32C-61.51-8.2-57.38-13.09-56.12-19.03z M-36.5-7.26l7.98,4.79l-34.7,15.42l-1.38-6.9l28.23-13.03
		L-36.5-7.26z M-12.05,32.31H-76.4v-4.6h64.35C-12.05,27.71-12.05,32.31-12.05,32.31z M-18.07,23.12h-52.31l2.3-4.6h47.72
		L-18.07,23.12z M-54.08,13.93l28.24-12.55v12.55H-54.08z M-58.12-31.9c-3.16-5.56-9.14-9.33-15.98-9.33
		c-3.11,0-6.04,0.78-8.61,2.15l5.7-18.24h25.25L-58.12-31.9z M-41.92-66.51c0,2.53-2.06,4.6-4.6,4.6h-36.77
		c-2.53,0-4.6-2.06-4.6-4.6V-80.3c0-2.53,2.06-4.6,4.6-4.6h36.77c2.53,0,4.6,2.06,4.6,4.6C-41.92-80.3-41.92-66.51-41.92-66.51z
		 M-20.36-100.98l-2.3,4.6h-6.35l-2.3-4.6H-20.36z M-28.14-91.79h4.6v6.89h-4.6V-91.79z M-12.05-80.3v4.6h-25.28v-4.6H-12.05z
		 M-37.33-71.11h25.28v4.6h-25.28V-71.11z M-31.31-48.13l2.3-4.6h6.35l2.3,4.6H-31.31z M-23.54-57.32h-4.6v-4.6h4.6V-57.32z"/>
</g>
<g id="Layer_3" class="st0">
	<g class="st3">
		<rect x="22.6" y="12.39" class="st7" width="103.72" height="2.58"/>
		<rect x="15.51" y="102.04" class="st7" width="117.91" height="7.69"/>
		<path class="st7" d="M138.59,86.87c0-20.75,0-41.5,0-62.26c0-4.37-0.28-4.64-4.78-4.64c-20.65,0-41.3,0-61.95,0s-41.3,0-61.95,0
			c-4.51,0-4.79,0.27-4.79,4.62c0,20.75,0,41.5,0,62.26c0,4.24,0.47,4.71,4.78,4.71c41.3,0.01,82.6,0.01,123.89,0
			C138.12,91.56,138.59,91.09,138.59,86.87z M69.43,44.26c-0.35,0.42-0.67,0.88-1.06,1.27c-9.62,9.57-19.25,19.12-28.88,28.68
			c-1.41,1.4-2,1.42-3.39-0.01c-5.38-5.52-10.75-11.05-16.12-16.58c-0.28-0.29-0.51-0.62-0.76-0.93c0-0.3,0-0.59,0-0.89
			c1.75-1.64,3.46-3.34,5.29-4.89c0.77-0.65,1.58-0.21,2.25,0.48c3.08,3.15,6.19,6.29,9.29,9.43c1.46,1.48,2.02,1.48,3.48,0.04
			c7.43-7.36,14.86-14.71,22.29-22.06c1.3-1.29,1.89-1.31,3.15-0.03c1.5,1.53,2.98,3.07,4.47,4.61
			C69.43,43.67,69.43,43.97,69.43,44.26z M110.66,56.86c3.71,3.6,7.35,7.27,11.02,10.91c1.29,1.27,1.31,1.96,0.03,3.24
			c-1.91,1.91-3.82,3.82-5.74,5.71c-1.14,1.13-1.88,1.13-3.01,0.01c-3.73-3.69-7.47-7.37-11.15-11.11c-0.81-0.82-1.27-0.82-2.09,0
			c-3.47,3.52-7,6.97-10.52,10.45c-0.32,0.32-0.65,0.65-0.99,0.94c-0.86,0.73-1.65,0.77-2.44,0c-2.15-2.09-4.29-4.21-6.39-6.35
			c-0.86-0.87-0.77-1.72,0.2-2.67c3.78-3.75,7.54-7.51,11.36-11.22c0.78-0.76,0.81-1.24,0.02-2.01c-3.63-3.52-7.21-7.09-10.81-10.64
			c-1.69-1.67-1.69-2.24,0.02-3.9c1.6-1.57,3.19-3.15,4.78-4.74c1.98-1.99,2.28-2,4.31,0.02c3.5,3.49,7.03,6.95,10.49,10.48
			c0.77,0.78,1.25,0.79,2.02,0.01c3.69-3.73,7.43-7.41,11.15-11.1c1.19-1.18,1.91-1.18,3.09-0.01c1.97,1.96,3.95,3.9,5.89,5.88
			c0.37,0.38,0.6,0.91,0.96,1.47c-0.41,0.57-0.7,1.11-1.11,1.52c-3.68,3.69-7.35,7.38-11.09,11.01
			C109.82,55.56,109.83,56.05,110.66,56.86z"/>
		<path class="st5" d="M90.84,142.52c-12.65,0.02-25.31,0.03-37.96,0c-5.1-0.01-7.2-2.43-6.13-6.53H22.6v8.86h100.24v-8.86h-25.9
			C98.04,140.13,95.97,142.51,90.84,142.52z"/>
		<path class="st5" d="M61.81,38.79c-7.43,7.35-14.86,14.71-22.29,22.06c-1.46,1.44-2.02,1.44-3.48-0.04
			c-3.1-3.14-6.2-6.27-9.29-9.43c-0.67-0.69-1.48-1.13-2.25-0.48c-1.83,1.56-3.53,3.25-5.29,4.89c0,0.3,0,0.59,0,0.89
			c0.25,0.31,0.48,0.64,0.76,0.93c5.37,5.53,10.74,11.06,16.12,16.58c1.39,1.42,1.98,1.41,3.39,0.01
			c9.63-9.56,19.26-19.12,28.88-28.68c0.39-0.39,0.71-0.84,1.06-1.27c0-0.3,0-0.59,0-0.89c-1.49-1.54-2.97-3.09-4.47-4.61
			C63.7,37.49,63.11,37.5,61.81,38.79z"/>
		<path class="st5" d="M121.74,43.74c0.41-0.41,0.69-0.94,1.11-1.52c-0.36-0.57-0.58-1.09-0.96-1.47c-1.94-1.98-3.92-3.93-5.89-5.88
			c-1.18-1.17-1.9-1.18-3.09,0.01c-3.73,3.69-7.46,7.37-11.15,11.1c-0.77,0.78-1.25,0.77-2.02-0.01
			c-3.47-3.52-6.99-6.99-10.49-10.48c-2.03-2.02-2.33-2.01-4.31-0.02c-1.58,1.59-3.17,3.17-4.78,4.74c-1.7,1.67-1.71,2.24-0.02,3.9
			c3.6,3.55,7.18,7.12,10.81,10.64c0.8,0.77,0.77,1.25-0.02,2.01c-3.82,3.71-7.58,7.47-11.36,11.22c-0.96,0.96-1.05,1.8-0.2,2.67
			c2.1,2.14,4.24,4.26,6.39,6.35c0.79,0.77,1.58,0.73,2.44,0c0.35-0.3,0.67-0.62,0.99-0.94c3.51-3.47,7.05-6.93,10.52-10.45
			c0.81-0.83,1.28-0.82,2.09,0c3.68,3.74,7.42,7.42,11.15,11.11c1.13,1.12,1.87,1.12,3.01-0.01c1.92-1.9,3.83-3.8,5.74-5.71
			c1.28-1.28,1.26-1.97-0.03-3.24c-3.67-3.64-7.32-7.3-11.02-10.91c-0.83-0.8-0.84-1.29,0-2.1
			C114.39,51.12,118.06,47.43,121.74,43.74z"/>
		<path class="st5" d="M134,121.99c3.26-0.07,6.48-1.49,9.72-2.29c0-36.64,0-73.29,0-109.93c-47.91,0-95.82,0-143.73,0
			C0,46.42,0,83.06,0,119.7c3.24,0.8,6.47,2.22,9.72,2.29c12.65,0.27,25.3,0.11,37.96,0.11c1.14,0,2.28,0,4.52,0
			c-1.72,4.38-3,8.13-4.65,11.7c-0.36,0.78-0.62,1.5-0.8,2.19h50.2c-0.18-0.68-0.44-1.4-0.79-2.17c-1.64-3.58-2.9-7.34-4.6-11.72
			c2.21,0,3.35,0,4.49,0C108.7,122.1,121.36,122.26,134,121.99z M22.6,12.39h103.72v2.58H22.6V12.39z M5.13,86.85
			c0-20.75,0-41.5,0-62.26c0-4.36,0.28-4.62,4.79-4.62c20.65,0,41.3,0,61.95,0s41.3,0,61.95,0c4.5,0,4.78,0.27,4.78,4.64
			c0,20.75,0,41.5,0,62.26c0,4.22-0.48,4.7-4.79,4.7c-41.3,0.01-82.6,0.01-123.89,0C5.6,91.56,5.13,91.09,5.13,86.85z M15.51,109.73
			v-7.69h117.91v7.69H15.51z"/>
		<path class="st5" d="M52.88,142.52c12.65,0.03,25.31,0.03,37.96,0c5.13-0.01,7.21-2.39,6.11-6.53h-50.2
			C45.67,140.09,47.78,142.51,52.88,142.52z"/>
	</g>
</g>
<g id="Layer_4" class="st0">
	<g id="fNdCKC_1_" class="st3">
		<g>
			<path class="st4" d="M38.95,122.38c8.08-4.57,16.38-9.27,25.18-14.25c4.69,7.38,9.31,14.64,14.04,22.06
				c14.08-22.5,27.04-45.6,54.74-58.96c-0.07,10.58-2.44,20.44,2.11,29.89c-19.15,10.65-30.73,21.47-54.97,51.51
				c-6.38-5.73-12.23-11.84-19.09-16.89C54.2,130.76,46.43,126.85,38.95,122.38z"/>
			<path class="st4" d="M100.81,39.81c-23.94,0-47.46,0-71.35,0c0-3.4-0.12-6.62,0.04-9.82c0.11-2.26,2.06-2.91,4.3-2.93
				c4.46-0.04,8.93,0,13.39-0.02c1.37-0.01,2.75-0.11,4.46-0.18c0-5.49-0.01-10.72,0-15.95c0.02-7.66,4.99-11.6,14.57-11.59
				c8.26,0.01,13.28,4.46,13.27,11.76c-0.01,5.14,0,10.28,0,15.98c5.2,0,10.25-0.04,15.29,0.01c5.19,0.05,5.99,0.78,6.02,5.28
				C100.82,34.77,100.81,37.2,100.81,39.81z M70.93,17.13c0.05-2.45-2.21-4.5-4.99-4.52c-2.82-0.02-5.09,1.92-5.14,4.41
				c-0.06,2.44,2.21,4.5,4.99,4.54C68.55,21.59,70.88,19.59,70.93,17.13z"/>
			<path class="st4" d="M46.87,13.32c0,2.74,0,5.04,0,7.77c-5.73,0-11.3-0.01-16.88,0.01c-2.04,0.01-4.1-0.05-6.12,0.14
				c-4.04,0.39-6.5,2.74-6.5,6.25c-0.02,34.19-0.02,68.37,0.01,102.56c0,3.7,2.5,6.09,6.83,6.29c4.97,0.22,9.95,0.11,14.93,0.13
				c8.04,0.02,12.44,1.79,18.43,7.6c-1.19,0.07-2.13,0.18-3.07,0.18c-11.37,0.02-22.73,0.04-34.1,0.01
				c-8.36-0.02-10.97-2.39-10.96-9.64c0.01-37.21,0.01-74.42,0-111.63c0-7.3,2.56-9.62,10.92-9.66
				C29.04,13.29,37.71,13.32,46.87,13.32z"/>
			<path class="st4" d="M112.9,73.55c0-12.28,0-24.36,0-36.44c0-2.8,0.05-5.6,0.03-8.4c-0.04-5.21-2.66-7.54-8.68-7.6
				c-6.35-0.06-12.71-0.01-19.32-0.01c0-2.61,0-4.91,0-7.76c1.42,0,2.88,0,4.34,0c7.27,0,14.55-0.05,21.82,0.02
				c6.76,0.07,9.69,2.77,9.69,8.71c-0.01,12.99-0.37,25.99,0.17,38.97C121.18,66.86,119.39,70.89,112.9,73.55z"/>
			<path class="st4" d="M120.78,121.7c0,5.84,0.07,10.75-0.02,15.66c-0.07,3.65-2.88,6.37-7.55,6.68c-5,0.33-10.06,0.07-16.11,0.07
				c3.8-3.18,4.85-7.51,10.63-8.15c1.86-0.2,4.71-2.87,4.77-4.48C112.66,126.54,116.95,124.96,120.78,121.7z"/>
			<path class="st4" d="M99.11,73.07c-18.42,0-36.62,0-54.83,0c-3.44,0-6.88,0.08-10.32-0.07c-0.88-0.04-1.71-0.77-2.57-1.19
				c0.84-0.57,1.68-1.62,2.53-1.63c9.93-0.12,19.87-0.09,29.81-0.08c10.95,0.01,21.91,0.05,32.86,0.02
				C98.76,70.12,100.17,70.4,99.11,73.07z"/>
			<path class="st4" d="M99.16,81.86c-7.48,0-14.87,0-22.25,0c-14.18,0-28.35,0.03-42.53-0.07c-1-0.01-1.99-0.99-2.98-1.52
				c0.96-0.44,1.92-1.25,2.89-1.26c20.69-0.08,41.37-0.08,62.06-0.09C98.21,78.93,100.21,78.81,99.16,81.86z"/>
			<path class="st4" d="M31.75,90.61c-1.03-3.39,1.44-2.85,3.21-2.85c17.36-0.02,34.72,0,52.08,0c3.95,0,7.9,0,11.92,0
				c1.6,3.03-0.69,2.87-2.76,2.87c-15.2-0.01-30.39-0.01-45.58-0.02C44.39,90.61,38.15,90.61,31.75,90.61z"/>
			<path class="st4" d="M55.37,57.52c-7.35,0-14.69,0.04-22.04-0.07c-0.64-0.01-1.27-0.94-1.91-1.44c0.65-0.49,1.3-1.4,1.96-1.41
				c6.73-0.11,13.47-0.15,20.2,0.01c0.84,0.02,1.65,1.28,2.47,1.96C55.83,56.89,55.6,57.2,55.37,57.52z"/>
			<path class="st4" d="M55.04,64.24c-7.71,0-15.42,0-23.2,0c-0.8-1.83-0.54-2.82,1.94-2.8c6.47,0.05,12.94-0.06,19.41,0.08
				c0.97,0.02,1.91,1.11,2.87,1.7C55.71,63.56,55.38,63.9,55.04,64.24z"/>
		</g>
	</g>
</g>
<g id="Layer_5" class="st0">
	<g id="_x34_hK3Jt_1_" class="st1">
		<g>
			<path class="st4" d="M19.78,152.64c-6.85-0.16-13.76-4.12-17.72-12.25c-4.02-8.26-3.27-16.7,2.59-23.68
				c6.25-7.45,13.39-14.15,20.28-21.03c0.91-0.91,2.65-1.12,4.06-1.34c5.86-0.95,8.86-3.82,9.38-9.86c0.36-4.11,3.29-6.07,6.05-8.12
				c0.62-0.46,2.67,0.13,3.43,0.88c8.89,8.72,17.73,17.5,26.35,26.47c0.85,0.88,0.9,3.71,0.13,4.75c-1.95,2.66-4.19,4.96-8.22,4.98
				c-4.35,0.02-7.59,4.19-8.46,8.54c-0.47,2.34-1.52,4.9-3.1,6.62c-5.39,5.88-11.14,11.44-16.75,17.13
				C33.43,150.15,28.23,152.63,19.78,152.64z M36.94,108.49c-0.99-1.2-1.73-2.92-2.65-3.02c-1.52-0.17-3.6,0.23-4.65,1.23
				c-5.67,5.41-11.1,11.09-16.61,16.67c-1.72,1.75-2.45,3.78-0.62,5.73c2.06,2.19,4.07,1.23,5.9-0.64
				c5.39-5.51,10.85-10.96,16.22-16.5C35.43,111.04,36.03,109.83,36.94,108.49z M25.3,141.18c0.99-0.44,1.89-0.59,2.42-1.12
				c6.21-6.22,12.46-12.41,18.42-18.87c0.72-0.78,0.38-3.71-0.48-4.48c-0.91-0.81-3.72-0.95-4.55-0.15
				c-6.27,5.96-12.33,12.15-18.25,18.46c-0.74,0.79-0.67,2.86-0.26,4.09C22.89,140.02,24.37,140.52,25.3,141.18z"/>
			<path class="st4" d="M76.03,54.92c-2.38,2.04-4.62,3.96-7.97,6.83c-1.92-2.3-4.19-5.11-6.57-7.83c-1.82-2.09-4.1-3.03-6.26-0.74
				c-2.12,2.24-1.13,4.52,0.88,6.37c2.58,2.37,5.22,4.67,8.04,7.18c-2.88,2.68-5.04,4.69-8.18,7.61c-0.84-1.21-1.8-2.88-3.02-4.32
				c-4.59-5.43-10.36-7.54-17.54-7.39C17.27,63.02,3.35,48.41,4.06,30.21c0.07-1.86,0.55-3.7,0.98-6.39c1.71,1.06,3.01,1.6,3.96,2.5
				c3.24,3.08,6.3,6.35,9.52,9.44c4.9,4.69,10.16,4.5,14.94-0.29c8.95-8.95,11.33-13.34-0.08-23.57c-2.01-1.8-3.93-3.74-5.72-5.76
				c-0.83-0.93-1.93-2.39-1.7-3.3c0.21-0.85,1.96-1.59,3.14-1.86c15.25-3.42,31.74,6.83,35.58,22.25c0.77,3.11,1.19,6.49,0.89,9.66
				c-0.74,7.84,1.74,14.12,7.71,19.11C74.2,52.77,74.94,53.74,76.03,54.92z"/>
			<path class="st4" d="M62.83,80.1c1.52-1.91,2.4-3.25,3.51-4.37c12-12.15,23.92-24.39,36.14-36.31c3.66-3.57,5.98-7.15,5.03-12.38
				c-0.74-4.09,0.96-6.39,4.78-8.1c6.88-3.08,13.58-6.61,20.2-10.25c3.23-1.78,5.15-0.62,7.33,1.69c2.06,2.18,3.78,3.89,1.94,7.31
				c-3.9,7.27-7.48,14.72-11,22.19c-1.21,2.57-2.83,3.97-5.62,3.52c-6.5-1.05-10.95,1.74-15.37,6.48
				c-11.18,12-22.88,23.5-34.51,35.06c-1.23,1.22-4.06,2.6-4.99,2.02C67.56,85.26,65.43,82.61,62.83,80.1z"/>
			<path class="st4" d="M84.99,87.92c2.09,2.19,4.46,4.77,6.93,7.25c10.42,10.47,20.88,20.91,31.32,31.37
				c0.67,0.67,1.35,1.33,2.02,2.01c1.84,1.9,3.97,2.64,6.01,0.61c2.04-2.02,1.39-4.16-0.51-6.05c-2.89-2.86-5.75-5.75-8.63-8.62
				c-9.69-9.67-19.39-19.33-29.08-29.01c-1.03-1.03-2.01-2.12-2.97-3.14c2.25-2.26,4.32-4.34,6.58-6.6
				c0.19,0.13,0.69,0.34,1.04,0.69c13.71,13.7,27.41,27.42,41.11,41.12c4.01,4.01,5.29,8.86,3.68,14.2
				c-1.63,5.41-5.51,9.06-11.11,9.24c-3.35,0.11-7.73-0.75-10-2.92c-14.79-14.12-29.12-28.72-43.79-43.35
				C80.07,92.44,82.31,90.39,84.99,87.92z"/>
		</g>
	</g>
	<g id="vwK9Yq_1_" class="st3">
		<g>
			<path class="st4" d="M-81.92-155.03c3.05,0.87,6.1,1.73,9.15,2.6c0.02,0.16,0.05,0.32,0.07,0.48
				c-12.81,2.63-25.61,5.26-38.66,7.94c0.25,5.76,0.3,11.46,0.9,17.1c0.11,1.05,2.46,1.86,4.17,3.06c0-6.19,0-11.72,0-17.5
				c4.39-0.94,8.77-1.91,13.16-2.82c8.71-1.81,17.42-3.61,26.14-5.34c1.09-0.22,2.32-0.17,3.4,0.09c3.71,0.89,7.39,1.93,10.57,2.78
				c0,7.24,0.1,14.27-0.03,21.29c-0.14,7.9-0.51,15.79-0.68,23.68c-0.03,1.42-0.3,2.2-1.78,2.74c-12.16,4.42-24.28,8.97-36.45,13.38
				c-0.9,0.32-2.35,0.14-3.13-0.4c-7.69-5.36-15.31-10.82-22.9-16.32c-0.66-0.48-1.33-1.43-1.38-2.2
				c-0.82-14.43-1.55-28.87-2.31-43.6c3.28-0.6,6.55-1.21,9.82-1.78c9.46-1.63,18.92-3.24,28.38-4.87c0.22-0.04,0.41-0.21,0.61-0.32
				C-82.55-155.03-82.23-155.03-81.92-155.03z M-150.47-100.98c0.44-0.04,0.76,0,1.03-0.1c10.19-3.69,20.38-7.36,30.53-11.15
				c0.65-0.24,1.32-1.43,1.35-2.21c0.25-6.09,0.39-12.19,0.46-18.29c0.07-6.15,0.02-12.31,0.02-18.59
				c-0.52,0.08-1.13,0.12-1.71,0.26c-10,2.43-19.99,4.91-30.01,7.26c-1.54,0.36-1.98,0.92-1.97,2.45
				c0.1,12.74,0.12,25.49,0.17,38.23C-150.59-102.45-150.52-101.77-150.47-100.98z M-143.2-165.15c3.05,0.87,6.1,1.73,9.15,2.6
				c0.02,0.16,0.05,0.32,0.07,0.48c-12.81,2.63-25.61,5.26-38.66,7.94c0.25,5.76,0.3,11.46,0.9,17.1c0.11,1.05,2.46,1.86,4.17,3.06
				c0-6.19,0-11.72,0-17.5c4.39-0.94,8.77-1.91,13.16-2.82c8.71-1.81,17.42-3.61,26.14-5.34c1.09-0.22,2.32-0.17,3.4,0.09
				c3.71,0.89,7.39,1.93,10.57,2.78c0,7.24,0.1,14.27-0.03,21.29c-0.14,7.9-0.51,15.79-0.68,23.68c-0.03,1.42-0.3,2.2-1.78,2.74
				c-12.16,4.42-24.28,8.97-36.45,13.38c-0.9,0.32-2.35,0.14-3.13-0.4c-7.69-5.36-15.31-10.82-22.9-16.32
				c-0.66-0.48-1.33-1.43-1.38-2.2c-0.82-14.43-1.55-28.87-2.31-43.6c3.28-0.6,6.55-1.21,9.82-1.78c9.46-1.63,18.92-3.24,28.38-4.87
				c0.22-0.04,0.41-0.21,0.61-0.32C-143.83-165.15-143.51-165.15-143.2-165.15z"/>
			<path class="st4" d="M-41.74-98c-0.36,3.22-0.67,6.44-1.12,9.65c-0.11,0.77-0.53,1.83-1.12,2.14c-2.87,1.46-5.86,2.71-9.01,4.12
				c0-2.32,0-4.27,0-6.59c-4.95,2.18-9.71,4.26-14.46,6.36c-0.99,0.44-1.93,1.08-2.96,1.33c-3.28,0.77-4.54,2.78-3.99,6.02
				c0.36,2.12-0.64,3.17-2.58,3.92c-3.01,1.17-5.91,2.63-9.05,4.06c0-2.36,0-4.41,0-6.91c-1.55,0.64-2.88,1.17-4.19,1.74
				c-5.78,2.55-11.52,5.19-17.34,7.63c-1.88,0.79-2.98,1.77-2.53,3.9c0.76,3.61-1.18,4.97-4.16,6.77
				c-6.42,3.87-10.99,2.92-16.83-1.82c-17.1-13.91-34.79-27.09-52.38-40.4c-2.42-1.83-2.28-4.14-2.68-6.48
				c-0.28-1.63-0.43-3.29-0.64-4.94c0-0.59,0-1.19,0-1.78c3.73-1.28,7.43-2.67,11.21-3.74c0.88-0.25,2.22,0.41,3.09,1.01
				c19.37,13.37,38.8,26.68,57.98,40.32c3.68,2.61,6.52,2.88,10.12,0.07c-3.49-2.39-6.94-4.75-10.89-7.45
				c4.53-1.59,8.55-3.04,12.61-4.37c0.5-0.16,1.29,0.24,1.83,0.56c1.78,1.06,3.71,1.99,5.23,3.36c3.11,2.83,6.06,2.5,9.41-0.09
				c-3.2-2.03-6.32-4.02-9.74-6.2c3.91-1.56,7.5-3.07,11.15-4.39c0.77-0.28,1.92-0.05,2.68,0.34c1.57,0.82,3.14,1.75,4.45,2.92
				c2.88,2.57,5.62,2.25,8.62-0.22c-2.72-1.8-5.4-3.56-8.54-5.64c3.57-1.39,6.7-2.68,9.88-3.79c0.61-0.21,1.52,0.1,2.18,0.41
				c1.52,0.71,3.11,1.39,4.42,2.4c2.81,2.15,5.39,1.76,8.28-0.44c-2.67-1.62-5.15-3.36-7.83-4.67c-2.14-1.04-2.87-2.39-2.48-4.67
				c0.3-1.74,0.31-3.54,0.49-5.76c7.11,3.65,13.98,7.18,20.85,10.71C-41.74-98.39-41.74-98.19-41.74-98z M-152.62-84.4
				c-0.85,4.48-0.17,7.76,3.89,10.24c4.11,2.5,7.76,5.77,11.62,8.68c1.77,1.34,3.58,2.64,5.5,4.05c0.73-4.69,0.15-8.13-4.18-10.79
				C-141.62-75.82-146.94-80.24-152.62-84.4z M-163.38-85.39c0.3-0.14,0.6-0.28,0.89-0.42c-0.54-2.34-0.3-5.59-1.77-6.87
				c-5.15-4.49-10.88-8.31-17.16-12.95c0.59,3.12,0.23,6.25,1.58,7.45C-174.65-93.57-168.91-89.6-163.38-85.39z"/>
			<path class="st4" d="M-158.85-118.63c0.26,3.7,0.47,6.83,0.73,10.6c-3.73-2.49-7-4.68-10.82-7.24
				C-165.31-116.48-162.22-117.51-158.85-118.63z"/>
			<path class="st4" d="M10.14-142.32c1.83,3.23,3.44,6.06,5.19,9.16c-0.95,0.38-1.8,0.72-3.4,1.35c0,5.48,0.02,11.3-0.01,17.13
				c-0.01,3.88-0.04,3.88-4.43,4.7c0-6.8,0-13.57,0-20.51c-0.91,0-1.75,0-2.98,0C6.43-134.5,8.21-138.26,10.14-142.32z"/>
			<path class="st4" d="M34.97-132.98c-3.18,0.23-3.25,2.16-3.26,4.37c-0.02,4.74-0.39,9.48-0.32,14.22
				c0.05,2.86-0.99,4.22-3.83,4.15c0-6.69,0-13.39,0-20.34c-0.64-0.09-1.44-0.21-2.57-0.37c1.7-3.59,3.34-7.08,5.25-11.12
				C31.94-138.81,33.37-136.06,34.97-132.98z"/>
			<path class="st4" d="M82.3-124.41c-0.52,0.96-0.83,2.51-1.6,2.8c-8.56,3.18-17.19,6.17-25.82,9.21c-0.92-2.5-0.23-3.65,2.24-4.42
				c8.17-2.54,16.26-5.35,24.38-8.06C81.76-124.72,82.03-124.57,82.3-124.41z"/>
		</g>
	</g>
</g>
<g id="Layer_6" class="st0">
	<g id="g8cFVo_1_" class="st1">
		<g>
			<path class="st4" d="M-44-64.34c-2.07,1.38-4.07,2.89-6.24,4.09c-3.02,1.68-7.39,2.37-8.92,4.86c-1.6,2.62-0.6,6.88-0.61,10.43
				c-0.04,8.57-0.1,17.14,0.04,25.7c0.04,2.67-0.83,4.32-3.2,5.62c-12.59,6.89-25.08,13.97-37.71,20.8c-1.5,0.81-3.8,1.09-5.43,0.6
				c-18.04-5.36-36.01-10.94-54.02-16.38c-2.61-0.79-3.5-2.33-3.48-4.94c0.07-11.32-0.03-22.64,0.08-33.96
				c0.02-2.23-0.59-3.26-2.84-3.71c-3.59-0.72-7.14-1.65-10.64-2.73c-1.67-0.52-3.16-1.6-4.74-2.42c0-0.82,0-1.63,0-2.45
				c5.88-8.06,11.72-16.16,17.7-24.15c0.91-1.22,2.37-2.28,3.8-2.81c13.05-4.9,26.14-9.69,39.25-14.43c1.28-0.46,2.81-0.7,4.14-0.51
				c16.93,2.42,33.84,5.03,50.79,7.35c2.65,0.36,4.18,1.45,5.6,3.5c5.41,7.75,10.94,15.41,16.42,23.1C-44-65.97-44-65.16-44-64.34z
				 M-156.69-48.65c0,10.75,0.07,20.94-0.06,31.13c-0.03,2.14,0.67,2.94,2.68,3.54c12.47,3.71,24.9,7.58,37.34,11.39
				c3.09,0.94,6.19,1.84,9.44,2.8c0-20.08,0-39.77,0-59.9c-0.54,0.65-0.81,0.92-1.02,1.24c-3.58,5.33-7.18,10.63-10.7,16
				c-1.34,2.04-2.89,2.97-5.38,2.14c-2.12-0.7-4.33-1.13-6.49-1.69C-139.33-44.18-147.79-46.36-156.69-48.65z M-99.7-55
				c-0.14,0.07-0.28,0.13-0.42,0.2c0,17.78,0,35.56,0,53.68c1.23-0.62,2.22-1.07,3.17-1.6c8.37-4.63,16.61-9.51,25.14-13.81
				c3.96-2,5.48-4.3,5.27-8.82c-0.42-8.81-0.12-17.65-0.12-26.82c-1.16,0.51-1.99,0.83-2.78,1.21c-6.24,2.98-12.47,5.97-18.72,8.94
				c-3.47,1.65-4.88,1.16-6.53-2.3C-96.4-47.87-98.04-51.44-99.7-55z M-109.67-68.97c-0.61-0.25-0.96-0.46-1.34-0.52
				c-15.48-2.86-30.96-5.74-46.46-8.49c-0.79-0.14-2.07,0.6-2.62,1.31c-3.09,4.04-6.04,8.19-9.02,12.31
				c-1.03,1.43-2.02,2.89-3.18,4.54c15.71,4.07,30.93,8.03,46.18,11.89c0.85,0.21,2.37-0.08,2.79-0.69
				C-118.7-55.3-114.25-62.08-109.67-68.97z M-89.28-49.13c12.37-5.95,24.4-11.73,36.62-17.61c-4.55-6.48-8.8-12.54-13.15-18.73
				c-11.23,5.23-22.23,10.36-33.29,15.51C-95.76-62.88-92.6-56.17-89.28-49.13z M-146.72-83.45c0.82,0.4,1.05,0.59,1.31,0.64
				c12.61,2.31,25.2,4.67,37.84,6.83c1.95,0.33,4.29,0.16,6.08-0.62c7.55-3.27,14.97-6.86,22.43-10.35c0.46-0.22,0.84-0.6,1.52-1.09
				c-11.26-1.69-22.11-3.35-32.99-4.92c-2.8-0.4-5.92-1.34-8.41-0.54C-128.12-90.56-137.1-86.99-146.72-83.45z"/>
		</g>
	</g>
	<path class="st8" d="M130.99,97.91c4.5,1.15,8.64,2.2,12.78,3.25c-1.83-5.75-3.61-11.52-5.49-17.25
		c-2.03-6.16-4.22-12.28-6.22-18.45c-0.57-1.77-1.45-2.72-3.5-3.28C116.03,58.77,103.51,55.3,91,51.83
		c5.74-5.26,9.48-12.79,9.34-21.39c0.23-16.47-13.77-29.17-29.05-29.16c-15.15,0.01-29.07,12.6-29.05,29.21
		c0.01,9.26,4.34,17.26,10.8,22.52c-11.77,5.67-23.6,11.25-35.28,17.06c-1.85,0.92-3.6,2.78-4.4,4.58
		C9,84.44,4.95,94.35,0.79,104.22c-0.2,0.48-0.52,0.91-0.78,1.37c0,0.18,0,0.35,0,0.53c4.22,1.15,8.48,2.22,12.64,3.52
		c0.76,0.24,1.65,1.41,1.67,2.17c0.16,4.51,0.06,9.02,0.08,13.54c0.03,4.34,1.94,7.07,6.41,8.43c21.27,6.51,42.58,12.92,63.87,19.38
		c0.16,0.05,0.29,0.22,0.43,0.33c0.58,0,1.16,0,1.74,0c2.27-1.25,4.79-2.24,6.78-3.8c10.77-8.46,21.38-17.1,32.1-25.61
		c3.59-2.85,5.45-6.24,5.3-10.67C130.87,108.39,130.99,103.35,130.99,97.91z M131.12,79.33c0.15-0.02,0.3-0.05,0.45-0.07
		c1.74,4.91,3.47,9.81,5.41,15.28c-2.21-0.54-3.98-0.97-5.86-1.43C131.12,88.45,131.12,83.89,131.12,79.33z M49.06,33.45
		c2.16-2.17,4.4-4.42,6.85-6.87c2.65,2.66,5.4,5.42,8.23,8.27c2.74-2.72,5.38-5.34,8.01-7.97c4.56-4.58,9.14-9.15,13.65-13.77
		c0.93-0.95,1.54-0.98,2.43,0c1.4,1.53,2.84,3.04,4.39,4.41c1.2,1.06,1.24,1.75,0.05,2.93c-8.53,8.46-17,17-25.47,25.55
		c-1.22,0.61-2.43,1.22-3.65,1.84C58.46,42.78,53.71,38.06,49.06,33.45z M56.89,55.69c2.85,1.66,5.98,2.85,9.23,3.47
		c0,7.12,0,14.08,0,21.28c-13.73-3.16-27.23-6.26-41.45-9.53C35.64,65.73,46.21,60.74,56.89,55.69z M6.64,103.06
		c4.18-9.94,8.28-19.69,12.23-29.1c21.1,5.64,41.9,11.21,63.07,16.87c-3.01,10.47-5.92,20.62-8.95,31.15
		C50.89,115.68,28.95,109.42,6.64,103.06z M84.25,147.5c-7.58-2.3-14.95-4.54-22.32-6.78c-13.34-4.06-26.66-8.16-40.02-12.13
		c-1.91-0.57-2.54-1.36-2.49-3.17c0.14-4.5,0.05-9,0.05-13.89c19.12,5.44,37.83,10.77,56.97,16.21c2.51-8.64,4.97-17.13,7.43-25.62
		c0.13,0.01,0.25,0.03,0.38,0.04C84.25,117.11,84.25,132.07,84.25,147.5z M83.78,85.72c-3.61-0.87-7.16-2-10.67-3.2
		c-0.75-0.26-1.72-1.24-1.73-1.9c-0.08-6.94-0.08-13.88-0.08-20.97c0.08,0,0.15,0,0.23,0c5.57-0.04,10.99-1.79,15.6-4.8
		c11.91,3.12,23.77,6.23,35.9,9.41c-3.2,1.9-5.94,3.51-8.67,5.13c-8.89,5.28-17.74,10.61-26.7,15.8
		C86.63,85.78,84.96,86,83.78,85.72z M125.81,114.35c-0.01,1.18-0.51,2.71-1.4,3.46c-11.08,9.36-22.27,18.6-33.43,27.88
		c-0.33,0.28-0.67,0.54-1.34,1.07c-0.07-1.22-0.15-2.06-0.15-2.9c-0.01-16.94,0.03-33.87-0.05-50.81c-0.01-2,0.6-3.18,2.49-4.28
		c10.44-6.03,20.78-12.2,31.15-18.31c0.71-0.42,1.45-0.81,2.57-1.44c0.08,1.13,0.2,1.95,0.2,2.77
		C125.88,85.98,125.91,100.17,125.81,114.35z"/>
	<g id="CxAPH4_1_" class="st3">
		<g>
			<path class="st9" d="M-74.28,59.28c-5.31-1.28-11.3-2.62-17.21-4.23c-1.53-0.42-2.82-1.72-4.22-2.62
				c0.94-1.45,1.58-3.3,2.88-4.27c11.17-8.41,22.46-16.67,33.71-24.97c15-11.07,30.04-22.1,44.98-33.24
				c2.42-1.81,4.59-2.66,7.74-1.8c4.44,1.21,9.07,1.72,14.65,2.71C4.22-5.85,0.84-3.04-2.58-0.3c-22.1,17.69-44.24,35.34-66.28,53.1
				C-70.77,54.34-72.09,56.62-74.28,59.28z"/>
			<path class="st9" d="M-33.7-16.65C-45.43-8.72-56.12-1.47-66.84,5.76c-17.38,11.73-34.8,23.39-52.11,35.21
				c-2.01,1.37-3.44,3.58-5.56,5.85c-4.66-1.14-10.16-2.37-15.58-3.86c-1.4-0.39-2.59-1.58-3.87-2.4c0.97-1.37,1.65-3.19,2.96-4.03
				c18.93-12.09,37.94-24.04,56.93-36.02c9.29-5.86,18.67-11.56,27.84-17.59c3.3-2.17,6.37-3,10.23-1.9
				C-42.38-17.97-38.6-17.55-33.7-16.65z"/>
			<path class="st9" d="M-171.41,35.19c-3.75-0.92-8.62-2-13.39-3.38c-1.34-0.39-2.42-1.66-3.62-2.53c0.92-1.21,1.59-2.88,2.8-3.57
				c11.15-6.28,22.42-12.37,33.62-18.57c18.18-10.06,36.39-20.08,54.49-30.29c4.64-2.62,9.06-4.52,14.51-2.53
				c2.58,0.94,5.47,1.06,9.61,1.8c-2.43,1.5-3.83,2.42-5.27,3.26c-28.9,16.8-57.82,33.57-86.69,50.43
				C-167.26,30.94-168.74,32.79-171.41,35.19z"/>
			<path class="st9" d="M7.93-2.58C8.37,5.35,8.7,11.66,1.51,17.55c-23.69,19.4-46.62,39.74-69.68,59.9
				c-3.36,2.93-6.25,3.75-10.57,2.39c-9.67-3.05-9.75-2.8-9.8-13c-0.01-2.3,0-4.61,0-7.6c5.45,1.16,10.67,3.69,15.24,2.82
				c4.39-0.83,8.11-5.19,12.84-8.49c0,4.57,0,8.43,0,13.37c9.55-8.11,18.22-15.47,27.64-23.47c-5.17-1.36-9.64-2.54-15.58-4.1
				c6.52-3.39,9.19-9.37,16.28-10.07c3.21-0.32,6.07-4.16,9.77-6.9c0,4.17,0,7.55,0,12.15C-14.6,27.94-7.7,22.09,0.06,15.52
				c-4.83-1.01-8.85-1.86-13.29-2.79C-8.27,4.47,1.08,3.17,7.93-2.58z"/>
			<path class="st9" d="M-15.81-12.97c-19.32,13.82-37.96,27.16-56.6,40.5c-8.65,6.19-17.35,12.32-25.91,18.64
				c-1.81,1.34-3.12,3.36-5.35,5.82c-2.28-0.58-5.8-1.32-9.22-2.41c-1.35-0.43-3.29-1.5-3.45-2.52c-0.18-1.15,1.04-2.98,2.17-3.79
				c6.62-4.74,13.41-9.25,20.12-13.86c19.6-13.44,39.43-26.58,58.68-40.51C-28.95-15.72-23.22-15.81-15.81-12.97z"/>
			<path class="st9" d="M-151.85,40.1c-2.13-0.52-5.4-1.14-8.54-2.16c-1.35-0.44-2.43-1.74-3.63-2.65c0.96-1.19,1.69-2.78,2.92-3.52
				c19.84-11.85,39.74-23.59,59.63-35.36c8.44-4.99,16.89-9.97,25.32-14.97c8.09-4.8,8.08-4.81,18.98-2.05
				c-1.96,1.27-3.37,2.21-4.81,3.1c-27.83,17.26-55.69,34.5-83.48,51.83C-147.5,35.61-149.11,37.59-151.85,40.1z"/>
			<path class="st9" d="M-122.44,50.68c0,4.6,0,8.57,0,12.74c4.84-0.29,7.12-6.92,13.33-4.86c-4.19,3.08-7.67,5.85-11.4,8.26
				c-1.17,0.76-3.08,0.96-4.49,0.66c-4.71-0.99-9.31-2.54-14.03-3.45c-3.37-0.65-4.82-2.13-4.62-5.64
				c0.23-4.12,0.05-8.26,0.05-12.89C-136.58,47.22-129.7,48.91-122.44,50.68z"/>
			<path class="st9" d="M-160.46,45.96c-4.82,3.03-8.58,6.92-12.9,7.68c-4.33,0.77-9.21-1.54-13.82-2.66
				c-0.41-0.1-0.74-1.41-0.75-2.16c-0.07-4.63-0.03-9.26-0.03-13.88c0.27-0.04,0.44-0.11,0.58-0.07c4.11,1.12,9.5,1.08,11.93,3.75
				c2.18,2.38,1.09,7.75,1.46,12.05c3.78-1.91,7.24-3.7,10.75-5.38C-162.82,45.1-162.1,45.54-160.46,45.96z"/>
		</g>
	</g>
</g>
<g id="Layer_7" class="st0">
	<g id="_x37_vCEl6_1_" class="st1">
		<g>
			<path class="st4" d="M121.07,56.71c0,8.68,0.11,17.37-0.06,26.05c-0.05,2.48,0.74,3.71,2.98,4.62
				c5.73,2.31,11.33,4.94,17.06,7.26c2.02,0.82,2.77,1.99,2.71,4.12c-0.12,4.28,0.1,8.57-0.15,12.83c-0.07,1.16-1.04,2.69-2.04,3.29
				c-2.27,1.36-4.76,2.44-7.28,3.22c-1.2,0.37-3.02,0.3-3.99-0.38c-5.99-4.27-11.05-0.64-16.13,1.87c-0.79,0.39-1.12,2.54-1.01,3.81
				c0.27,2.91-0.71,4.66-3.52,5.48c-1.39,0.4-2.78,0.94-4.01,1.7c-4.1,2.51-8.02,2.42-12.28,0.17c-1.42-0.75-3.75-0.5-5.4,0.06
				c-3.65,1.26-7.09,3.12-10.71,4.51c-2.1,0.81-3.27,1.91-2.87,4.29c0.55,3.35-0.89,5.36-4.15,6.1c-0.35,0.08-0.73,0.18-1.01,0.4
				c-5.81,4.47-11,1.17-16.01-1.59c-1.09-0.6-1.64-3.06-1.61-4.65c0.05-2.48-0.85-3.63-3.01-4.67c-3.67-1.76-6.99-2.6-10.86-0.31
				c-2.95,1.75-11.09-0.14-13.25-2.87c-0.76-0.97-0.69-2.72-0.74-4.13c-0.15-3.74-3.83-6.39-7.41-5.21
				c-0.23,0.08-0.46,0.18-0.65,0.32c-5.04,3.49-9.85,2.11-14.42-0.9c-1.02-0.67-2.06-2.14-2.12-3.29
				c-0.24-4.39-0.26-8.81,0.03-13.19c0.08-1.22,1.26-2.72,2.36-3.44c1.8-1.19,3.86-2.19,5.95-2.67c4.72-1.11,5.53-4,5.48-8.51
				c-0.25-20.18-0.05-40.36-0.18-60.53c-0.02-2.81,1-4.13,3.42-5.16C32.25,18.5,48.25,11.53,64.34,4.79
				c1.54-0.64,3.82-0.58,5.37,0.08c15.75,6.6,31.4,13.47,47.15,20.07c3.1,1.3,4.43,2.87,4.31,6.45
				C120.87,39.82,121.07,48.27,121.07,56.71z M117.54,31.14c-1.24,0.35-2.06,0.48-2.8,0.8c-14.47,6.21-28.91,12.49-43.42,18.62
				c-2.25,0.95-2.61,2.35-2.6,4.52c0.06,19.92,0.03,39.85,0.05,59.77c0,0.91,0.16,1.82,0.26,2.97c0.86-0.23,1.46-0.32,1.99-0.55
				c14.57-6.27,29.11-12.62,43.72-18.79c2.37-1,2.83-2.44,2.82-4.77c-0.07-19.43-0.03-38.87-0.03-58.3
				C117.54,34.09,117.54,32.78,117.54,31.14z M16.38,30.84c0,22.08-0.03,43.31,0.11,64.55c0.01,0.99,1.41,2.42,2.48,2.9
				c13.96,6.13,27.97,12.14,41.99,18.14c3.32,1.42,4.21,0.84,4.21-2.7c0.02-19.67-0.03-39.33,0.07-59c0.01-2.4-0.94-3.4-2.95-4.25
				c-8.6-3.6-17.14-7.34-25.7-11.02C30.06,36.68,23.53,33.89,16.38,30.84z M43.88,38.64c6.06,2.64,11.58,4.74,16.8,7.43
				c4.2,2.16,7.94,2.52,12.18,0.13c3.57-2.01,7.51-3.35,11.28-4.98c9.87-4.26,19.74-8.52,30.04-12.96c-1-0.62-1.55-1.05-2.17-1.32
				c-5.99-2.61-11.94-5.34-18.03-7.69c-1.58-0.61-3.78-0.52-5.4,0.07c-4.54,1.66-8.93,3.74-13.37,5.67
				C65.01,29.43,54.82,33.87,43.88,38.64z M86.75,16.09c-6.25-2.69-11.5-5.14-16.9-7.17c-1.71-0.64-4.08-0.76-5.72-0.07
				c-13.65,5.64-27.2,11.52-40.77,17.35c-1.13,0.49-2.22,1.08-3.95,1.93c5.43,2.36,10.22,4.12,14.7,6.48
				c3.69,1.95,6.88,1.81,10.46-0.14c3.18-1.73,6.64-2.92,9.97-4.37C64.96,25.58,75.37,21.04,86.75,16.09z M140.14,100.44
				c-0.68,0-1.08-0.11-1.38,0.02c-24.18,10.31-48.36,20.63-72.5,31.02c-0.8,0.34-1.72,1.48-1.77,2.3c-0.2,3.25-0.08,6.52-0.08,9.85
				c6.1-1.23,6.23-1.26,6.33-6.52c0.04-2.18,0.92-3.28,2.84-4.09c7.25-3.07,14.47-6.22,21.66-9.43c4.54-2.03,6.2-3.56,6.21,3.77
				c0,0.18,0.25,0.37,0.42,0.6c4.46-1.27,9-2.33,7.85-8.86c-0.14-0.79,1.53-2.31,2.66-2.83c5.17-2.38,10.45-4.51,15.68-6.75
				c5.65-2.41,5.64-2.42,6.59,3.69c0.03,0.17,0.33,0.3,1.1,0.94c1.38-1.21,3.85-2.31,4.19-3.89
				C140.62,107.12,140.14,103.74,140.14,100.44z M136.54,97.39c0.03-0.31,0.07-0.62,0.1-0.94c-2.99-1.03-6.1-3.1-8.95-2.79
				c-2.78,0.3-6.86,1.11-7.15,5.73c-0.03,0.48-1.3,0.97-2.06,1.3c-16.46,7.1-32.93,14.18-49.42,21.23c-0.86,0.37-2.09,0.93-2.72,0.6
				c-4.71-2.5-7.87,1.31-11.75,2.82c3.65,0.71,6.13,4.66,10.68,2.66c15.51-6.83,31.15-13.39,46.73-20.06
				C120.18,104.44,128.36,100.91,136.54,97.39z M60.84,143.66c0-2.71-0.19-5.17,0.05-7.57c0.29-2.86-0.73-4.28-3.41-5.42
				c-16.37-6.94-32.64-14.09-48.96-21.15c-1.82-0.79-3.71-1.44-5.95-2.3c0,3.01,0.24,5.47-0.06,7.87c-0.45,3.67,1.37,4.93,4.66,5.36
				c0.06-0.84,0.12-1.44,0.14-2.04c0.15-4.06,0.8-4.52,4.55-2.94c4.02,1.68,7.95,3.56,12.01,5.14c2.48,0.96,3.83,2.37,3.36,5.16
				c-0.66,3.85,1.47,5.13,4.89,5.45c0.1-0.65,0.2-1.12,0.24-1.59c0.31-4.7,0.68-4.96,4.87-3.16c5.11,2.19,10.28,4.28,15.27,6.73
				c1.16,0.57,2.52,2.56,2.36,3.69C54.21,141.42,56.6,142.96,60.84,143.66z M45.42,114.19c-5.8-4.01-9.08-3.84-14.75,0.61
				C35.73,119.43,40.55,117.22,45.42,114.19z M33.1,108.98c-5.42-4.1-8.55-3.97-14.63,0.54C23.51,114.03,28.3,112,33.1,108.98z
				 M6.35,104.13c5.17,4.78,9.76,2.28,14.51-0.33C15.96,99.83,13.83,99.88,6.35,104.13z M57.61,119.34
				c-6.21-3.89-9.37-3.69-14.57,0.77C48.1,124.93,52.79,122.16,57.61,119.34z"/>
			<path class="st4" d="M32.59,49.11c0.9,0.32,1.82,0.6,2.7,0.97c4.56,1.94,9.2,3.73,13.62,5.97c1.11,0.56,2.24,2.75,2.02,3.93
				c-0.4,2.04-2.28,2.57-4.34,1.69c-5-2.16-10.08-4.13-14.96-6.51c-1.03-0.5-1.77-2.41-1.89-3.75c-0.11-1.19,0.84-2.47,1.31-3.71
				C31.56,48.17,32.07,48.64,32.59,49.11z"/>
		</g>
	</g>
</g>
<g id="Layer_8">
	<g id="KC6iOP_1_">
		<g>
			<path class="st10" d="M0,109.65c1.89-0.27,3.79-0.55,6-0.86c0.05-1.23,0.11-2.6,0.19-4.38c-1.92-0.2-3.66-0.39-5.72-0.61
				c0.29-1.99,0.53-3.66,0.83-5.72c2.15,0,4.23,0,6.45,0c0-1.83,0-3.24,0-4.95c-1.73-0.12-3.41-0.23-5.93-0.4
				c2.2-5.55,4.1-10.63,6.25-15.49c0.38-0.87,1.77-1.06,2.7-1.1c3.42-0.12,6.83-0.05,10.53-0.05c0.7-13.51,1.39-26.64,2.08-39.94
				c-3.39-1.25-1.84-4.99-2.1-8.22c9.78,0,19.39-0.66,28.92,0.22c6.96,0.65,11.98,7.18,14.55,16.47
				C68.73,59,72.07,73.75,75.98,88.17c1.18,4.36,3.16,8.39,5.22,12.04c0.78,1.39,2.8,1.31,4.8,2.12c0-2.36,0-3.77,0-5.19
				c0-16.73,0.74-33.56-0.31-50.16c-0.52-8.16-1.05-16.35-1.43-24.55c-0.13-2.74-1.1-5.4-1.81-8.65c4.7,0,8.6,0,12.77,0
				c0,3.86,0,7.61,0,11.72c1.72,0.17,3.18,0.31,5.02,0.49c0,10.05-1.3,52.04-4.76,51.38c0,9.39,0,17.67,0,26
				c1.44,0.18,2.7,0.34,3.9,0.5c0,10.56,0,20.76,0,31.22c-1.08-0.12-1.93-0.22-2.75-0.32c-0.74-16.9-6.77-26.62-15.69-25.6
				c-9.97,1.14-14.68,11.41-13.47,29.74c-2.26-0.26-5.18,2.24-5.57-4c-9.58,0-18.94,0-28.28,0c-1.33-14.85-6.35-22.7-14.22-22.51
				c-7.82,0.2-12.6,7.93-13.78,22.29c-2.08,1.14-3.29-0.14-3.78-3.05c-0.65-3.8-1.21-7.62-1.81-11.43C0,116.69,0,113.17,0,109.65z
				 M64.62,113.41c-3.42,0-6.82,0.07-10.21-0.04c-1.18-0.04-2.48-0.15-3.5-0.89c-6.12-4.47-12.2-9.08-18.24-13.8
				c-0.74-0.58-1.54-2.07-1.59-3.21c-0.37-8.34-0.6-16.69-0.75-25.05c-0.02-1.02,0.56-2.67,1.14-3c2.96-1.69,5.8,0.31,6.68,4.76
				c0.74,3.74,1.16,7.62,1.76,11.76c0.92,0,1.81-0.01,2.7,0c7.19,0.05,8.62,1.95,9.64,12.54c0.3,3.15,0.75,6.27,1.12,9.38
				c4.46,0,8.66,0,13.31,0c-3.7-9.24-7.22-18.03-10.8-26.99c0.83-1.01,1.57-1.91,2.24-2.72c-0.45-1.39-0.81-2.52-1.2-3.73
				c0.87-0.86,1.58-1.55,2.24-2.2c0.75,1.28,1.32,2.24,1.85,3.16c1.03-0.77,1.89-1.42,2.81-2.1c1.94,3.17,3.76,6.16,5.59,9.15
				c0.27-0.22,0.55-0.44,0.82-0.66c-3.31-11.4-6.44-22.91-10.02-34.13c-1.67-5.24-5.05-9.22-8.94-9.59
				c-7.7-0.75-15.46-0.22-23.48-0.22c-1.01,20.24-2.05,40.39-2.95,60.56c-0.05,1.1,0.92,2.78,1.71,3.41
				c5.4,4.28,11.01,8.01,16.28,12.58c5.47,4.73,11.09,7.05,17.5,6.28C62.85,118.34,64.34,117.67,64.62,113.41z M87.83,27.28
				c-0.23,0.6-0.47,1.2-0.7,1.81c1.67,1.13,3.34,2.27,5.01,3.4c0.22-0.63,0.44-1.27,0.66-1.9C91.14,29.48,89.48,28.38,87.83,27.28z
				 M91.94,26.26c0.24-0.55,0.47-1.1,0.71-1.65c-1.22-2.17-3.18-2.66-4.96-3.56c-0.2,0.47-0.39,0.94-0.59,1.41
				C88.71,23.72,90.33,24.99,91.94,26.26z M87.98,33.58c-0.21,0.4-0.41,0.81-0.62,1.21c0.75,3.32,3.15,2.75,4.8,3.96
				c0.19-0.43,0.38-0.87,0.56-1.3C91.14,36.16,89.56,34.87,87.98,33.58z"/>
			<path class="st10" d="M143.44,57.84c0.11,9.22,0.23,18.45,0.31,27.67c0.04,5.41,0.01,10.82,0.01,16.56c-14.98,0-29.69,0-44.76,0
				c0-14.94,0-29.59,0-44.24C113.81,57.84,128.62,57.84,143.44,57.84z M138.87,64.36c-9.82,0-19.44,0-29.07,0
				c1.87,2.43,3.95,5.32,6.15,5.49c7.57,0.59,15.19,0.23,22.93,0.23C138.87,67.92,138.87,66.24,138.87,64.36z M132.22,95.87
				c0.1-0.26,0.19-0.52,0.29-0.78c-2.02-1.63-3.99-4.5-6.08-4.66c-7.42-0.57-14.87-0.22-22.42-0.22c0,2.16,0,3.81,0,5.67
				C113.57,95.87,122.9,95.87,132.22,95.87z M104.05,81c0,2.49,0,4.44,0,6.43c6.48,0,12.69,0,19.05,0
				C117.93,78.51,110.87,81.11,104.05,81z M138.95,72.86c-6.75,0-13.25,0-20.09,0c5.9,8.85,13.24,4.49,20.09,5.71
				C138.95,76.39,138.95,74.84,138.95,72.86z M128.31,81.1c3.16,3.08,5.62,8.41,10.57,6.07c0-1.94,0-3.89,0-6.07
				C135.22,81.1,131.76,81.1,128.31,81.1z M112.96,78.23c-2.68-2.73-4.81-7.11-8.95-5.23c0,1.69,0,3.34,0,5.23
				C107.13,78.23,110.04,78.23,112.96,78.23z"/>
			<path class="st10" d="M78.84,143.58c-8.56-3.63-12.2-8.67-11.72-16.27c0.46-7.35,5.95-13.45,12.7-14.09
				c7.3-0.69,14.09,4.35,15.54,11.53c1.55,7.7-2.13,15.09-8.85,17.78c-0.88,0.35-1.76,0.7-2.64,1.05
				C82.18,143.58,80.51,143.58,78.84,143.58z M88.87,128.4c0.01-4.35-3.32-8.04-7.35-8.15c-4.12-0.11-7.75,3.77-7.69,8.23
				c0.06,4.34,3.51,7.95,7.59,7.92C85.53,136.38,88.85,132.81,88.87,128.4z"/>
			<path class="st10" d="M17.26,143.12c-4.19-1.62-7.69-4.18-9.31-9.22c-2.29-7.16,0.74-15.04,6.87-17.89
				c6.21-2.88,13.42,0.61,15.93,7.71c2.49,7.06-0.3,14.96-6.4,18.13c-0.79,0.41-1.58,0.84-2.37,1.27
				C20.41,143.12,18.84,143.12,17.26,143.12z M19.51,121.38c-3.83-0.04-6.97,3.48-6.9,7.76c0.06,4.04,3.2,7.64,6.73,7.7
				c3.8,0.07,6.8-3.43,6.77-7.88C26.07,124.64,23.27,121.42,19.51,121.38z"/>
			<path class="st10" d="M99.74,54.16c0-14.72,0-29.19,0-44.04c13.52,0,27.04,0,40.86,0c0,14.5,0,29.18,0,44.04
				C126.97,54.16,113.44,54.16,99.74,54.16z M109.75,16.29c-0.13,0.26-0.25,0.52-0.38,0.78c1.79,1.58,3.53,4.39,5.37,4.52
				c7.19,0.53,14.4,0.22,21.63,0.22c0-2.1,0-3.67,0-5.52C127.4,16.29,118.57,16.29,109.75,16.29z M131.04,48.06
				c0.12-0.26,0.24-0.52,0.35-0.78c-1.86-1.65-3.66-4.55-5.58-4.71c-6.88-0.58-13.8-0.23-20.82-0.23c0,2.12,0,3.79,0,5.72
				C113.79,48.06,122.41,48.06,131.04,48.06z M121.72,39.31c-4.87-9.01-11.36-6.36-17.6-6.43c0,2.4,0,4.34,0,6.43
				C110.08,39.31,115.82,39.31,121.72,39.31z M136.4,24.89c-6.3,0-12.38,0-18.55,0c5.36,8.79,12.16,4.68,18.55,5.58
				C136.4,28.32,136.4,26.75,136.4,24.89z M136.34,39c0-1.91,0-3.86,0-5.93c-3.43,0-6.66,0-10.68,0
				C129.43,36.32,131.84,41.22,136.34,39z M104.05,30.17c3.05,0,5.72,0,9.09,0c-3.21-2.94-5.28-7.13-9.09-5.22
				C104.05,26.74,104.05,28.31,104.05,30.17z"/>
			<path class="st10" d="M48.09,73.42c-0.77-1.17-1.36-2.06-2.15-3.26c3.83-2.88,7.49-5.64,11.44-8.63
				c0.73,1.14,1.35,2.12,2.12,3.33C55.67,67.73,52.1,70.41,48.09,73.42z"/>
		</g>
	</g>
	<rect x="93.5" y="104.46" class="st10" width="45.45" height="6.65"/>
</g>
</svg>
