<?xml version="1.0" encoding="utf-8"?>
<!-- Generator: Adobe Illustrator 24.0.3, SVG Export Plug-In . SVG Version: 6.00 Build 0)  -->
<svg version="1.1" xmlns="http://www.w3.org/2000/svg" xmlns:xlink="http://www.w3.org/1999/xlink" x="0px" y="0px"
	 viewBox="0 0 463 753.7" style="enable-background:new 0 0 463 753.7;" xml:space="preserve">
<style type="text/css">
	.st0{display:none;}
	.st1{display:inline;}
	.st2{opacity:8.000000e-02;}
	.st3{fill:#7E7E7E;}
	.st4{fill:#698A7E;}
	.st5{opacity:8.000000e-02;fill:#698A7E;enable-background:new    ;}
	.st6{fill:#6A8A80;}
	.st7{fill:none;}
	.st8{fill:#FFFFFF;}
	.st9{fill:#9D9E9E;}
	.st10{fill:#73B256;}
	.st11{fill:#D33B2F;}
	.st12{fill:#000102;}
	.st13{fill:#688A7E;}
</style>
<g id="Layer_1">
	<g id="Layer_1_3_" class="st0">
		<g id="Layer_1_2_" class="st1">
			<g id="Layer_1_1_">
				<g id="VNr6mR_1_" class="st2">
					<g>
						<path class="st3" d="M497.6,488.9c-0.7,5-1.4,10-2.2,15c-2.1,12.6-9.7,21.5-19.2,29.2c-6.8,5.5-13.5,11.1-20.3,16.6
							c-1.8,1.4-2.7,2.6-2.3,5.2c1.3,8.7-0.6,16.3-7.4,22.6c-4.9,4.5-9.1,9.7-13.7,14.4c-3.2,3.3-4.9,2.8-6-1.6
							c-1.6-6.9-2.9-13.8-4.4-20.7c-3.5-0.5-6.9,3.4-10.1-0.7c-4.9,8.4-9.7,16.3-14.4,24.3c-0.3-0.1-0.5-0.1-0.8-0.2
							c-0.3-3.3-0.7-6.6-1.1-10.8c-13.9,11.6-27.3,22.9-40.7,34.1c-0.1-0.1-0.2-0.2-0.4-0.3c6.7-11.4,13.4-22.8,20.4-34.8
							c-7.5,1.5-14.1,2.9-20.8,4.2c-0.1-0.2-0.3-0.4-0.4-0.6c9-7.6,18-15.1,27.9-23.3c-4.1,0-7.2,0-10.3,0c-0.1-0.3-0.1-0.5-0.2-0.8
							c6.8-3.9,13.5-7.7,19.4-11.1c0.2-3.8,0.3-6.9,0.5-10.6c-5.3-1.1-10.8-2.3-16.4-3.5c-1.8-0.4-3.7-0.7-5.5-1.3
							c-2.8-0.8-3.3-2.5-1.3-4.5c6.7-6.3,13.4-12.6,20.1-18.9c3.7-3.5,8.4-4.1,13.1-3.5c6,0.8,9.9-1.1,13.5-6.1
							c5.4-7.4,11.9-14,17.7-21.1c7.7-9.4,18-13.6,29.6-15.2c3.3-0.5,6.5-0.9,9.8-1.3c4,0,8,0,12,0c3,1.2,6.1,2.1,8.8,3.8
							c3.6,2.2,4.3,6.3,5.1,10.2C497.6,481.3,497.6,485.1,497.6,488.9z M424.8,562.3c18.4-14.4,37-28.1,53.6-44
							c1.4-1.4,2.8-3,3.6-4.7c5.9-11.4,6.6-23.7,5.8-36.2c-0.2-2.7-1.8-4.4-4.9-4.3c-5.7,0.2-11.5,0.1-17.2,0.6
							c-10.8,1-20.3,4.7-27.4,13.5c-12.8,16-25.8,31.8-38.7,47.7c-0.3,0.4-0.4,0.9-0.7,1.4C410.2,542.3,418.8,550.6,424.8,562.3z
							 M379.6,571.9c0.1,0.1,0.2,0.3,0.3,0.4c4.1-1.5,8.3-3,12.9-4.6c-1.2,3.5-2.1,6.3-3.2,9.9c4.1-2.6,7.5-4.8,11-7.1
							c0.1,1,0.2,1.7,0.3,2.9c3.4-3.5,6.5-6.6,9.7-9.9c-2.6-4.8-6.1-8.7-10.7-11.6c-0.8-0.6-2.4-0.9-3.2-0.5c-3,1.3-5.8,3-9.1,4.8
							c1.8,0.8,3.2,1.3,4.9,2C388,562.9,383.8,567.4,379.6,571.9z M420.6,564.4c-5.6-10.9-13.3-18.9-24.4-24.1
							c-0.4,1.6-0.8,2.9-1.1,4.4c10.5,3.8,17.5,10.9,21.2,21.2C417.8,565.4,419,565,420.6,564.4z"/>
						<path class="st3" d="M457.3,523c-10.7,0-19.5-8.6-19.5-19.2c0-10.6,8.8-19.4,19.4-19.5c10.6-0.1,19.4,8.7,19.4,19.4
							C476.7,514.3,468.1,523,457.3,523z M442.6,503.7c0,8.4,6.6,15.1,14.8,15c8.2-0.1,14.7-6.6,14.8-14.8s-6.7-15-14.9-15
							C448.9,488.9,442.6,495.4,442.6,503.7z"/>
					</g>
				</g>
				<g id="VNr6mR_2_">
					<g>
						<path class="st4" d="M497.6,488.2c-0.7,5-1.4,10-2.2,15c-2.1,12.6-9.7,21.5-19.2,29.2c-6.8,5.5-13.5,11.1-20.3,16.6
							c-1.8,1.4-2.7,2.6-2.3,5.2c1.3,8.7-0.6,16.3-7.4,22.6c-4.9,4.5-9.1,9.7-13.7,14.4c-3.2,3.3-4.9,2.8-6-1.6
							c-1.6-6.9-2.9-13.8-4.4-20.7c-3.5-0.5-6.9,3.4-10.1-0.7c-4.9,8.4-9.7,16.3-14.4,24.3c-0.3-0.1-0.5-0.1-0.8-0.2
							c-0.3-3.3-0.7-6.6-1.1-10.8c-13.9,11.6-27.3,22.9-40.7,34.1c-0.1-0.1-0.2-0.2-0.4-0.3c6.7-11.4,13.4-22.8,20.4-34.8
							c-7.5,1.5-14.1,2.9-20.8,4.2c-0.1-0.2-0.3-0.4-0.4-0.6c9-7.6,18-15.1,27.9-23.3c-4.1,0-7.2,0-10.3,0c-0.1-0.3-0.1-0.5-0.2-0.8
							c6.8-3.9,13.5-7.7,19.4-11.1c0.2-3.8,0.3-6.9,0.5-10.6c-5.3-1.1-10.8-2.3-16.4-3.5c-1.8-0.4-3.7-0.7-5.5-1.3
							c-2.8-0.8-3.3-2.5-1.3-4.5c6.7-6.3,13.4-12.6,20.1-18.9c3.7-3.5,8.4-4.1,13.1-3.5c6,0.8,9.9-1.1,13.5-6.1
							c5.4-7.4,11.9-14,17.7-21.1c7.7-9.4,18-13.6,29.6-15.2c3.3-0.5,6.5-0.9,9.8-1.3c4,0,8,0,12,0c3,1.2,6.1,2.1,8.8,3.8
							c3.6,2.2,4.3,6.3,5.1,10.2C497.6,480.7,497.6,484.4,497.6,488.2z M424.8,561.6c18.4-14.4,37-28.1,53.6-44
							c1.4-1.4,2.8-3,3.6-4.7c5.9-11.4,6.6-23.7,5.8-36.2c-0.2-2.7-1.8-4.4-4.9-4.3c-5.7,0.2-11.5,0.1-17.2,0.6
							c-10.8,1-20.3,4.7-27.4,13.5c-12.8,16-25.8,31.8-38.7,47.7c-0.3,0.4-0.4,0.9-0.7,1.4C410.2,541.6,418.8,550,424.8,561.6z
							 M379.6,571.3c0.1,0.1,0.2,0.3,0.3,0.4c4.1-1.5,8.3-3,12.9-4.6c-1.2,3.5-2.1,6.3-3.2,9.9c4.1-2.6,7.5-4.8,11-7.1
							c0.1,1,0.2,1.7,0.3,2.9c3.4-3.5,6.5-6.6,9.7-9.9c-2.6-4.8-6.1-8.7-10.7-11.6c-0.8-0.6-2.4-0.9-3.2-0.5c-3,1.3-5.8,3-9.1,4.8
							c1.8,0.8,3.2,1.3,4.9,2C388,562.3,383.8,566.8,379.6,571.3z M420.6,563.8c-5.6-10.9-13.3-18.9-24.4-24.1
							c-0.4,1.6-0.8,2.9-1.1,4.4c10.5,3.8,17.5,10.9,21.2,21.2C417.8,564.7,419,564.3,420.6,563.8z"/>
						<path class="st4" d="M457.3,522.3c-10.7,0-19.5-8.6-19.5-19.2s8.8-19.4,19.4-19.5c10.6-0.1,19.4,8.7,19.4,19.4
							C476.7,513.7,468.1,522.3,457.3,522.3z M442.6,503c0,8.4,6.6,15.1,14.8,15c8.2-0.1,14.7-6.6,14.8-14.8c0.1-8.2-6.7-15-14.9-15
							C448.9,488.3,442.6,494.7,442.6,503z"/>
					</g>
				</g>
			</g>
			<g id="Layer_2_1_">
				<g>
					<path class="st5" d="M802.7,621.3h-16v16h-16v16h16v16h16v-16h16v-16h-16V621.3z"/>
					<path class="st5" d="M1026.7,509.3v-80h-40v-30.2l21-41.9h-89.9l21,41.9v30.1h-20.5c-5.5-9.5-15.8-16-27.5-16h-128
						c-17.6,0-32,14.3-32,32h-40v-32h-120c-22.1,0-40,18-40,40v8h88v16h-88v8c0,22,17.9,40,40,40h120v-32h40c0,17.7,14.4,32,32,32
						h5.1L741.4,610c-6.7,10.1-10.6,22.2-10.6,35.2c0,35.3,28.7,64,64,64c3.2,0,6.2-0.3,9.3-0.8l13,64.8h-11.2l-16,32h-19v48h256
						v-48h-19l-16-32h-13v-60.5l-119-71.2l29-116.2h1.8c11.8,0,22-6.5,27.5-16h20.5v22.1l-21,41.9h89.9l-21-41.9v-22.1
						C986.7,509.3,1026.7,509.3,1026.7,509.3z M548.1,445.3c3.3-9.3,12.2-16,22.6-16h104v16H548.1z M674.7,509.3h-104
						c-10.4,0-19.3-6.7-22.6-16h126.6V509.3z M690.7,477.3h-56v-16h96v16H690.7z M746.7,645.3c0-26.5,21.5-48,48-48s48,21.5,48,48
						s-21.5,48-48,48S746.7,671.7,746.7,645.3z M857.3,658.5l52.8,31.7l-85.6,39.5l-5.1-25.5C838.5,696.2,852.9,679.2,857.3,658.5z
						 M925.6,699.5l27.8,16.7l-120.8,53.7l-4.8-24l98.3-45.4L925.6,699.5z M1010.7,837.3h-224v-16h224V837.3z M989.7,805.3H807.6
						l8-16h166.1L989.7,805.3z M864.4,773.3l98.3-43.7v43.7H864.4z M850.3,613.7c-11-19.4-31.8-32.5-55.6-32.5
						c-10.8,0-21,2.7-30,7.5l19.8-63.5h88L850.3,613.7z M906.7,493.3c0,8.8-7.2,16-16,16h-128c-8.8,0-16-7.2-16-16v-48
						c0-8.8,7.2-16,16-16h128c8.8,0,16,7.2,16,16V493.3z M981.7,373.3l-8,16h-22.1l-8-16H981.7z M954.7,405.3h16v24h-16V405.3z
						 M1010.7,445.3v16h-88v-16C922.7,445.3,1010.7,445.3,1010.7,445.3z M922.7,477.3h88v16h-88V477.3z M943.6,557.3l8-16h22.1l8,16
						H943.6z M970.7,525.3h-16v-16h16V525.3z"/>
					<path class="st5" d="M794.7,445.3c-13.2,0-24,10.8-24,24c0,13.2,10.8,24,24,24s24-10.8,24-24
						C818.7,456.1,807.9,445.3,794.7,445.3z M794.7,477.3c-4.4,0-8-3.6-8-8c0-4.4,3.6-8,8-8s8,3.6,8,8
						C802.7,473.7,799.1,477.3,794.7,477.3z"/>
					<path class="st5" d="M858.7,445.3c-13.2,0-24,10.8-24,24c0,13.2,10.8,24,24,24s24-10.8,24-24
						C882.7,456.1,871.9,445.3,858.7,445.3z M858.7,477.3c-4.4,0-8-3.6-8-8c0-4.4,3.6-8,8-8s8,3.6,8,8
						C866.7,473.7,863.1,477.3,858.7,477.3z"/>
					<path class="st5" d="M698.1,721.4l12.9-15.5l-33-33l-15.5,13c-3.5-1.8-7.1-3.2-10.8-4.5l-1.8-20.1h-46.6l-1.8,20.1
						c-3.7,1.2-7.3,2.7-10.8,4.5l-15.5-13l-33,33l12.9,15.5c-1.8,3.5-3.2,7.1-4.5,10.8l-20.1,1.8v46.6l20.1,1.8
						c1.2,3.7,2.7,7.3,4.5,10.8l-12.9,15.5l33,33l15.5-13c3.5,1.8,7.1,3.2,10.8,4.5l1.8,20.1h46.6l1.8-20.1
						c3.7-1.2,7.3-2.7,10.8-4.5l15.5,13l33-33l-12.9-15.5c1.8-3.5,3.2-7.1,4.5-10.8l20.1-1.8V734l-20.1-1.8
						C701.4,728.4,699.9,724.8,698.1,721.4z M706.7,766l-16.6,1.5l-1.4,5.5c-1.5,6-3.9,11.8-7.1,17l-2.9,4.9l10.7,12.8L677.1,820
						l-12.8-10.7l-4.9,2.9c-5.3,3.2-11,5.5-17,7.1l-5.5,1.4l-1.5,16.6H618l-1.5-16.6l-5.5-1.4c-6-1.5-11.8-3.9-17-7.1l-4.9-2.9
						L576.3,820L564,807.7l10.7-12.8l-2.9-4.9c-3.2-5.3-5.5-11-7.1-17l-1.4-5.5l-16.6-1.5v-17.4l16.6-1.5l1.4-5.5
						c1.5-6,3.9-11.8,7.1-17l2.9-4.9L564,706.9l12.3-12.3l12.8,10.7l4.9-2.9c5.3-3.2,11-5.5,17-7.1l5.5-1.4l1.5-16.6h17.4l1.5,16.6
						l5.5,1.4c6,1.5,11.8,3.9,17,7.1l4.9,2.9l12.8-10.7l12.3,12.3l-10.7,12.8l2.9,4.9c3.2,5.3,5.5,11,7.1,17l1.4,5.5l16.6,1.5V766
						L706.7,766z"/>
					<path class="st5" d="M626.7,709.3c-26.5,0-48,21.5-48,48s21.5,48,48,48s48-21.5,48-48S653.2,709.3,626.7,709.3z M626.7,789.3
						c-17.6,0-32-14.4-32-32c0-17.6,14.4-32,32-32s32,14.4,32,32C658.7,774.9,644.3,789.3,626.7,789.3z"/>
					<path class="st5" d="M618.7,541.3h16v16h-16V541.3z"/>
					<path class="st5" d="M618.7,573.3h16v16h-16V573.3z"/>
					<path class="st5" d="M618.7,605.3h16v16h-16V605.3z"/>
				</g>
				<path class="st6" d="M346.4,401.7v-23h-11.5v-8.6l6-12h-25.8l6,12v8.6h-5.8c-1.6-2.7-4.5-4.6-7.9-4.6h-36.8
					c-5.1,0-9.2,4.1-9.2,9.2h-11.5v-9.2h-34.5c-6.3,0-11.5,5.2-11.5,11.5v2.3h25.3v4.6h-25.3v2.3c0,6.3,5.2,11.5,11.5,11.5h34.5
					v-9.2h11.5c0,5.1,4.1,9.2,9.2,9.2h1.5l-7.6,24.3c-1.9,2.9-3.1,6.4-3.1,10.1c0,10.1,8.2,18.4,18.4,18.4c0.9,0,1.8-0.1,2.7-0.2
					l3.7,18.6H283l-4.6,9.2h-5.5v13.8h73.5v-13.8h-5.5l-4.6-9.2h-3.7v-17.4l-34.1-20.4l8.3-33.4h0.5c3.4,0,6.3-1.9,7.9-4.6h5.9v6.4
					l-6,12h25.8l-6-12v-6.4H346.4L346.4,401.7z M208.9,383.3c0.9-2.7,3.5-4.6,6.5-4.6h29.9v4.6C245.3,383.3,208.9,383.3,208.9,383.3
					z M245.3,401.7h-29.9c-3,0-5.6-1.9-6.5-4.6h36.4V401.7z M249.9,392.5h-16.1v-4.6h27.6v4.6H249.9z M266,440.7
					c0-7.6,6.2-13.8,13.8-13.8c7.6,0,13.7,6.2,13.7,13.8s-6.1,13.8-13.8,13.8C272.1,454.5,266,448.4,266,440.7z M297.7,444.6
					l15.2,9.1L288.3,465l-1.5-7.3C292.3,455.4,296.5,450.5,297.7,444.6z M317.3,456.3l8,4.8l-34.7,15.4l-1.4-6.9l28.3-13
					L317.3,456.3z M341.8,495.9h-64.3v-4.6h64.3C341.8,491.3,341.8,495.9,341.8,495.9z M335.8,486.7h-52.3l2.3-4.6h47.7L335.8,486.7
					z M299.8,477.5L328,465v12.5H299.8z M295.7,431.7c-3.2-5.6-9.1-9.3-16-9.3c-3.1,0-6,0.8-8.6,2.2l5.7-18.2H302L295.7,431.7z
					 M311.9,397.1c0,2.5-2.1,4.6-4.6,4.6h-36.8c-2.5,0-4.6-2.1-4.6-4.6v-13.8c0-2.5,2.1-4.6,4.6-4.6h36.8c2.5,0,4.6,2.1,4.6,4.6
					C311.9,383.3,311.9,397.1,311.9,397.1z M333.5,362.6l-2.3,4.6h-6.4l-2.3-4.6H333.5z M325.7,371.8h4.6v6.9h-4.6V371.8z
					 M341.8,383.3v4.6h-25.3v-4.6H341.8z M316.5,392.5h25.3v4.6h-25.3V392.5z M322.5,415.5l2.3-4.6h6.4l2.3,4.6H322.5z M330.3,406.3
					h-4.6v-4.6h4.6V406.3z"/>
			</g>
			<g id="Layer_3">
				<g>
					<rect x="376.4" y="476" class="st7" width="103.7" height="2.6"/>
					<rect x="369.3" y="565.6" class="st7" width="117.9" height="7.7"/>
					<path class="st7" d="M492.4,550.5c0-20.8,0-41.5,0-62.3c0-4.4-0.3-4.6-4.8-4.6c-20.6,0-41.3,0-61.9,0s-41.3,0-62,0
						c-4.5,0-4.8,0.3-4.8,4.6c0,20.8,0,41.5,0,62.3c0,4.2,0.5,4.7,4.8,4.7c41.3,0,82.6,0,123.9,0C492,555.1,492.4,554.7,492.4,550.5
						z M423.3,507.9c-0.3,0.4-0.7,0.9-1.1,1.3c-9.6,9.6-19.2,19.1-28.9,28.7c-1.4,1.4-2,1.4-3.4,0c-5.4-5.5-10.8-11.1-16.1-16.6
						c-0.3-0.3-0.5-0.6-0.8-0.9c0-0.3,0-0.6,0-0.9c1.7-1.6,3.5-3.3,5.3-4.9c0.8-0.6,1.6-0.2,2.2,0.5c3.1,3.1,6.2,6.3,9.3,9.4
						c1.5,1.5,2,1.5,3.5,0c7.4-7.4,14.9-14.7,22.3-22.1c1.3-1.3,1.9-1.3,3.2,0c1.5,1.5,3,3.1,4.5,4.6
						C423.3,507.3,423.3,507.6,423.3,507.9z M464.5,520.5c3.7,3.6,7.4,7.3,11,10.9c1.3,1.3,1.3,2,0,3.2c-1.9,1.9-3.8,3.8-5.7,5.7
						c-1.1,1.1-1.9,1.1-3,0c-3.7-3.7-7.5-7.4-11.1-11.1c-0.8-0.8-1.3-0.8-2.1,0c-3.5,3.5-7,7-10.5,10.4c-0.3,0.3-0.6,0.6-1,0.9
						c-0.9,0.7-1.6,0.8-2.4,0c-2.2-2.1-4.3-4.2-6.4-6.4c-0.9-0.9-0.8-1.7,0.2-2.7c3.8-3.8,7.5-7.5,11.4-11.2c0.8-0.8,0.8-1.2,0-2
						c-3.6-3.5-7.2-7.1-10.8-10.6c-1.7-1.7-1.7-2.2,0-3.9c1.6-1.6,3.2-3.2,4.8-4.7c2-2,2.3-2,4.3,0c3.5,3.5,7,6.9,10.5,10.5
						c0.8,0.8,1.2,0.8,2,0c3.7-3.7,7.4-7.4,11.1-11.1c1.2-1.2,1.9-1.2,3.1,0c2,2,3.9,3.9,5.9,5.9c0.4,0.4,0.6,0.9,1,1.5
						c-0.4,0.6-0.7,1.1-1.1,1.5c-3.7,3.7-7.4,7.4-11.1,11C463.7,519.1,463.7,519.6,464.5,520.5z"/>
					<path class="st5" d="M444.7,606.1c-12.7,0-25.3,0-38,0c-5.1,0-7.2-2.4-6.1-6.5h-24.2v8.9h100.2v-8.9h-25.9
						C451.9,603.7,449.8,606.1,444.7,606.1z"/>
					<path class="st5" d="M415.7,502.4c-7.4,7.3-14.9,14.7-22.3,22.1c-1.5,1.4-2,1.4-3.5,0c-3.1-3.1-6.2-6.3-9.3-9.4
						c-0.7-0.7-1.5-1.1-2.2-0.5c-1.8,1.6-3.5,3.2-5.3,4.9c0,0.3,0,0.6,0,0.9c0.2,0.3,0.5,0.6,0.8,0.9c5.4,5.5,10.7,11.1,16.1,16.6
						c1.4,1.4,2,1.4,3.4,0c9.6-9.6,19.3-19.1,28.9-28.7c0.4-0.4,0.7-0.8,1.1-1.3c0-0.3,0-0.6,0-0.9c-1.5-1.5-3-3.1-4.5-4.6
						C417.5,501.1,416.9,501.1,415.7,502.4z"/>
					<path class="st5" d="M475.6,507.3c0.4-0.4,0.7-0.9,1.1-1.5c-0.4-0.6-0.6-1.1-1-1.5c-1.9-2-3.9-3.9-5.9-5.9
						c-1.2-1.2-1.9-1.2-3.1,0c-3.7,3.7-7.5,7.4-11.1,11.1c-0.8,0.8-1.2,0.8-2,0c-3.5-3.5-7-7-10.5-10.5c-2-2-2.3-2-4.3,0
						c-1.6,1.6-3.2,3.2-4.8,4.7c-1.7,1.7-1.7,2.2,0,3.9c3.6,3.6,7.2,7.1,10.8,10.6c0.8,0.8,0.8,1.2,0,2c-3.8,3.7-7.6,7.5-11.4,11.2
						c-1,1-1.1,1.8-0.2,2.7c2.1,2.1,4.2,4.3,6.4,6.4c0.8,0.8,1.6,0.7,2.4,0c0.4-0.3,0.7-0.6,1-0.9c3.5-3.5,7.1-6.9,10.5-10.4
						c0.8-0.8,1.3-0.8,2.1,0c3.7,3.7,7.4,7.4,11.1,11.1c1.1,1.1,1.9,1.1,3,0c1.9-1.9,3.8-3.8,5.7-5.7c1.3-1.3,1.3-2,0-3.2
						c-3.7-3.6-7.3-7.3-11-10.9c-0.8-0.8-0.8-1.3,0-2.1C468.2,514.7,471.9,511,475.6,507.3z"/>
					<path class="st5" d="M487.8,585.6c3.3-0.1,6.5-1.5,9.7-2.3c0-36.6,0-73.3,0-109.9c-47.9,0-95.8,0-143.7,0
						c0,36.7,0,73.3,0,109.9c3.2,0.8,6.5,2.2,9.7,2.3c12.6,0.3,25.3,0.1,38,0.1c1.1,0,2.3,0,4.5,0c-1.7,4.4-3,8.1-4.7,11.7
						c-0.4,0.8-0.6,1.5-0.8,2.2h50.2c-0.2-0.7-0.4-1.4-0.8-2.2c-1.6-3.6-2.9-7.3-4.6-11.7c2.2,0,3.4,0,4.5,0
						C462.5,585.7,475.2,585.9,487.8,585.6z M376.4,476h103.7v2.6H376.4V476z M359,550.4c0-20.8,0-41.5,0-62.3
						c0-4.4,0.3-4.6,4.8-4.6c20.7,0,41.3,0,62,0c20.7,0,41.3,0,61.9,0c4.5,0,4.8,0.3,4.8,4.6c0,20.8,0,41.5,0,62.3
						c0,4.2-0.5,4.7-4.8,4.7c-41.3,0-82.6,0-123.9,0C359.4,555.1,359,554.7,359,550.4z M369.3,573.3v-7.7h117.9v7.7H369.3z"/>
					<path class="st5" d="M406.7,606.1c12.7,0,25.3,0,38,0c5.1,0,7.2-2.4,6.1-6.5h-50.2C399.5,603.7,401.6,606.1,406.7,606.1z"/>
				</g>
			</g>
			<g id="Layer_4">
				<g id="fNdCKC_1_">
					<g>
						<path class="st4" d="M392.8,586c8.1-4.6,16.4-9.3,25.2-14.2c4.7,7.4,9.3,14.6,14,22.1c14.1-22.5,27-45.6,54.7-59
							c-0.1,10.6-2.4,20.4,2.1,29.9c-19.1,10.6-30.7,21.5-55,51.5c-6.4-5.7-12.2-11.8-19.1-16.9C408,594.4,400.3,590.4,392.8,586z"
							/>
						<path class="st4" d="M454.6,503.4c-23.9,0-47.5,0-71.3,0c0-3.4-0.1-6.6,0-9.8c0.1-2.3,2.1-2.9,4.3-2.9c4.5,0,8.9,0,13.4,0
							c1.4,0,2.8-0.1,4.5-0.2c0-5.5,0-10.7,0-15.9c0-7.7,5-11.6,14.6-11.6c8.3,0,13.3,4.5,13.3,11.8c0,5.1,0,10.3,0,16
							c5.2,0,10.2,0,15.3,0c5.2,0.1,6,0.8,6,5.3C454.7,498.4,454.6,500.8,454.6,503.4z M424.8,480.7c0.1-2.4-2.2-4.5-5-4.5
							c-2.8,0-5.1,1.9-5.1,4.4c-0.1,2.4,2.2,4.5,5,4.5C422.4,485.2,424.7,483.2,424.8,480.7z"/>
						<path class="st4" d="M400.7,476.9c0,2.7,0,5,0,7.8c-5.7,0-11.3,0-16.9,0c-2,0-4.1-0.1-6.1,0.1c-4,0.4-6.5,2.7-6.5,6.2
							c0,34.2,0,68.4,0,102.6c0,3.7,2.5,6.1,6.8,6.3c5,0.2,9.9,0.1,14.9,0.1c8,0,12.4,1.8,18.4,7.6c-1.2,0.1-2.1,0.2-3.1,0.2
							c-11.4,0-22.7,0-34.1,0c-8.4,0-11-2.4-11-9.6c0-37.2,0-74.4,0-111.6c0-7.3,2.6-9.6,10.9-9.7
							C382.9,476.9,391.6,476.9,400.7,476.9z"/>
						<path class="st4" d="M466.7,537.1c0-12.3,0-24.4,0-36.4c0-2.8,0.1-5.6,0-8.4c0-5.2-2.7-7.5-8.7-7.6c-6.4-0.1-12.7,0-19.3,0
							c0-2.6,0-4.9,0-7.8c1.4,0,2.9,0,4.3,0c7.3,0,14.6-0.1,21.8,0c6.8,0.1,9.7,2.8,9.7,8.7c0,13-0.4,26,0.2,39
							C475,530.5,473.2,534.5,466.7,537.1z"/>
						<path class="st4" d="M474.6,585.3c0,5.8,0.1,10.8,0,15.7c-0.1,3.6-2.9,6.4-7.6,6.7c-5,0.3-10.1,0.1-16.1,0.1
							c3.8-3.2,4.9-7.5,10.6-8.1c1.9-0.2,4.7-2.9,4.8-4.5C466.5,590.1,470.8,588.6,474.6,585.3z"/>
						<path class="st4" d="M452.9,536.7c-18.4,0-36.6,0-54.8,0c-3.4,0-6.9,0.1-10.3-0.1c-0.9,0-1.7-0.8-2.6-1.2
							c0.8-0.6,1.7-1.6,2.5-1.6c9.9-0.1,19.9-0.1,29.8-0.1c10.9,0,21.9,0.1,32.9,0C452.6,533.7,454,534,452.9,536.7z"/>
						<path class="st4" d="M453,545.5c-7.5,0-14.9,0-22.2,0c-14.2,0-28.3,0-42.5-0.1c-1,0-2-1-3-1.5c1-0.4,1.9-1.2,2.9-1.3
							c20.7-0.1,41.4-0.1,62.1-0.1C452.1,542.5,454.1,542.4,453,545.5z"/>
						<path class="st4" d="M385.6,554.2c-1-3.4,1.4-2.9,3.2-2.9c17.4,0,34.7,0,52.1,0c3.9,0,7.9,0,11.9,0c1.6,3-0.7,2.9-2.8,2.9
							c-15.2,0-30.4,0-45.6,0C398.2,554.2,392,554.2,385.6,554.2z"/>
						<path class="st4" d="M409.2,521.1c-7.3,0-14.7,0-22-0.1c-0.6,0-1.3-0.9-1.9-1.4c0.7-0.5,1.3-1.4,2-1.4
							c6.7-0.1,13.5-0.1,20.2,0c0.8,0,1.7,1.3,2.5,2C409.7,520.5,409.4,520.8,409.2,521.1z"/>
						<path class="st4" d="M408.9,527.8c-7.7,0-15.4,0-23.2,0c-0.8-1.8-0.5-2.8,1.9-2.8c6.5,0.1,12.9-0.1,19.4,0.1
							c1,0,1.9,1.1,2.9,1.7C409.6,527.1,409.2,527.5,408.9,527.8z"/>
					</g>
				</g>
			</g>
			<g id="Layer_5">
				<g id="_x34_hK3Jt_1_" class="st2">
					<g>
						<path class="st4" d="M373.6,616.2c-6.8-0.2-13.8-4.1-17.7-12.2c-4-8.3-3.3-16.7,2.6-23.7c6.2-7.4,13.4-14.1,20.3-21
							c0.9-0.9,2.7-1.1,4.1-1.3c5.9-0.9,8.9-3.8,9.4-9.9c0.4-4.1,3.3-6.1,6.1-8.1c0.6-0.5,2.7,0.1,3.4,0.9
							c8.9,8.7,17.7,17.5,26.3,26.5c0.8,0.9,0.9,3.7,0.1,4.8c-1.9,2.7-4.2,5-8.2,5c-4.3,0-7.6,4.2-8.5,8.5c-0.5,2.3-1.5,4.9-3.1,6.6
							c-5.4,5.9-11.1,11.4-16.8,17.1C387.3,613.7,382.1,616.2,373.6,616.2z M390.8,572.1c-1-1.2-1.7-2.9-2.7-3
							c-1.5-0.2-3.6,0.2-4.7,1.2c-5.7,5.4-11.1,11.1-16.6,16.7c-1.7,1.8-2.5,3.8-0.6,5.7c2.1,2.2,4.1,1.2,5.9-0.6
							c5.4-5.5,10.9-11,16.2-16.5C389.3,574.6,389.9,573.4,390.8,572.1z M379.1,604.8c1-0.4,1.9-0.6,2.4-1.1
							c6.2-6.2,12.5-12.4,18.4-18.9c0.7-0.8,0.4-3.7-0.5-4.5s-3.7-0.9-4.6-0.1c-6.3,6-12.3,12.1-18.2,18.5c-0.7,0.8-0.7,2.9-0.3,4.1
							C376.7,603.6,378.2,604.1,379.1,604.8z"/>
						<path class="st4" d="M429.9,518.5c-2.4,2-4.6,4-8,6.8c-1.9-2.3-4.2-5.1-6.6-7.8c-1.8-2.1-4.1-3-6.3-0.7
							c-2.1,2.2-1.1,4.5,0.9,6.4c2.6,2.4,5.2,4.7,8,7.2c-2.9,2.7-5,4.7-8.2,7.6c-0.8-1.2-1.8-2.9-3-4.3c-4.6-5.4-10.4-7.5-17.5-7.4
							c-18.1,0.4-32.1-14.2-31.3-32.4c0.1-1.9,0.5-3.7,1-6.4c1.7,1.1,3,1.6,4,2.5c3.2,3.1,6.3,6.3,9.5,9.4
							c4.9,4.7,10.2,4.5,14.9-0.3c8.9-8.9,11.3-13.3-0.1-23.6c-2-1.8-3.9-3.7-5.7-5.8c-0.8-0.9-1.9-2.4-1.7-3.3
							c0.2-0.8,2-1.6,3.1-1.9c15.2-3.4,31.7,6.8,35.6,22.2c0.8,3.1,1.2,6.5,0.9,9.7c-0.7,7.8,1.7,14.1,7.7,19.1
							C428,516.4,428.8,517.3,429.9,518.5z"/>
						<path class="st4" d="M416.7,543.7c1.5-1.9,2.4-3.2,3.5-4.4c12-12.1,23.9-24.4,36.1-36.3c3.7-3.6,6-7.2,5-12.4
							c-0.7-4.1,1-6.4,4.8-8.1c6.9-3.1,13.6-6.6,20.2-10.2c3.2-1.8,5.1-0.6,7.3,1.7c2.1,2.2,3.8,3.9,1.9,7.3
							c-3.9,7.3-7.5,14.7-11,22.2c-1.2,2.6-2.8,4-5.6,3.5c-6.5-1.1-10.9,1.7-15.4,6.5c-11.2,12-22.9,23.5-34.5,35.1
							c-1.2,1.2-4.1,2.6-5,2C421.4,548.9,419.3,546.2,416.7,543.7z"/>
						<path class="st4" d="M438.8,551.5c2.1,2.2,4.5,4.8,6.9,7.2c10.4,10.5,20.9,20.9,31.3,31.4c0.7,0.7,1.4,1.3,2,2
							c1.8,1.9,4,2.6,6,0.6s1.4-4.2-0.5-6.1c-2.9-2.9-5.8-5.8-8.6-8.6c-9.7-9.7-19.4-19.3-29.1-29c-1-1-2-2.1-3-3.1
							c2.2-2.3,4.3-4.3,6.6-6.6c0.2,0.1,0.7,0.3,1,0.7c13.7,13.7,27.4,27.4,41.1,41.1c4,4,5.3,8.9,3.7,14.2
							c-1.6,5.4-5.5,9.1-11.1,9.2c-3.4,0.1-7.7-0.8-10-2.9c-14.8-14.1-29.1-28.7-43.8-43.3C433.9,556,436.2,554,438.8,551.5z"/>
					</g>
				</g>
				<g id="vwK9Yq_1_">
					<g>
						<path class="st4" d="M271.9,308.6c3,0.9,6.1,1.7,9.1,2.6c0,0.2,0,0.3,0.1,0.5c-12.8,2.6-25.6,5.2-38.6,7.9
							c0.2,5.8,0.3,11.5,0.9,17.1c0.1,1,2.5,1.9,4.2,3.1c0-6.2,0-11.7,0-17.5c4.4-0.9,8.8-1.9,13.2-2.8c8.7-1.8,17.4-3.6,26.1-5.3
							c1.1-0.2,2.3-0.2,3.4,0.1c3.7,0.9,7.4,1.9,10.6,2.8c0,7.2,0.1,14.3,0,21.3c-0.1,7.9-0.5,15.8-0.7,23.7c0,1.4-0.3,2.2-1.8,2.7
							c-12.2,4.4-24.3,9-36.5,13.4c-0.9,0.3-2.3,0.1-3.1-0.4c-7.7-5.4-15.3-10.8-22.9-16.3c-0.7-0.5-1.3-1.4-1.4-2.2
							c-0.8-14.4-1.6-28.9-2.3-43.6c3.3-0.6,6.6-1.2,9.8-1.8c9.5-1.6,18.9-3.2,28.4-4.9c0.2,0,0.4-0.2,0.6-0.3
							C271.3,308.6,271.6,308.6,271.9,308.6z M203.4,362.6c0.4,0,0.8,0,1-0.1c10.2-3.7,20.4-7.4,30.5-11.1c0.7-0.2,1.3-1.4,1.3-2.2
							c0.2-6.1,0.4-12.2,0.5-18.3c0.1-6.2,0-12.3,0-18.6c-0.5,0.1-1.1,0.1-1.7,0.3c-10,2.4-20,4.9-30,7.3c-1.5,0.4-2,0.9-2,2.5
							c0.1,12.7,0.1,25.5,0.2,38.2C203.3,361.1,203.3,361.8,203.4,362.6z M210.6,298.4c3.1,0.9,6.1,1.7,9.2,2.6
							c0,0.2,0.1,0.3,0.1,0.5c-12.8,2.6-25.6,5.3-38.7,7.9c0.2,5.8,0.3,11.5,0.9,17.1c0.1,1,2.5,1.9,4.2,3.1c0-6.2,0-11.7,0-17.5
							c4.4-0.9,8.8-1.9,13.2-2.8c8.7-1.8,17.4-3.6,26.1-5.3c1.1-0.2,2.3-0.2,3.4,0.1c3.7,0.9,7.4,1.9,10.6,2.8
							c0,7.2,0.1,14.3,0,21.3c-0.1,7.9-0.5,15.8-0.7,23.7c0,1.4-0.3,2.2-1.8,2.7c-12.2,4.4-24.3,9-36.5,13.4
							c-0.9,0.3-2.3,0.1-3.1-0.4c-7.7-5.4-15.3-10.8-22.9-16.3c-0.7-0.5-1.3-1.4-1.4-2.2c-0.8-14.4-1.6-28.9-2.3-43.6
							c3.3-0.6,6.6-1.2,9.8-1.8c9.5-1.6,18.9-3.2,28.4-4.9c0.2,0,0.4-0.2,0.6-0.3C210,298.4,210.3,298.4,210.6,298.4z"/>
						<path class="st4" d="M312.1,365.6c-0.4,3.2-0.7,6.4-1.1,9.6c-0.1,0.8-0.6,1.9-1.1,2.2c-2.9,1.5-5.9,2.7-9,4.1
							c0-2.3,0-4.3,0-6.6c-4.9,2.2-9.7,4.3-14.5,6.4c-1,0.4-1.9,1.1-3,1.3c-3.3,0.8-4.5,2.8-4,6c0.4,2.1-0.6,3.2-2.6,3.9
							c-3,1.2-5.9,2.6-9,4.1c0-2.4,0-4.4,0-6.9c-1.5,0.6-2.9,1.2-4.2,1.7c-5.8,2.6-11.5,5.2-17.3,7.6c-1.9,0.8-3,1.8-2.5,3.9
							c0.8,3.6-1.2,5-4.2,6.8c-6.4,3.9-11,2.9-16.8-1.8c-17.1-13.9-34.8-27.1-52.4-40.4c-2.4-1.8-2.3-4.1-2.7-6.5
							c-0.3-1.6-0.4-3.3-0.6-4.9c0-0.6,0-1.2,0-1.8c3.7-1.3,7.4-2.7,11.2-3.7c0.9-0.2,2.2,0.4,3.1,1c19.4,13.4,38.8,26.7,58,40.3
							c3.7,2.6,6.5,2.9,10.1,0.1c-3.5-2.4-7-4.8-10.9-7.5c4.5-1.6,8.5-3,12.6-4.4c0.5-0.2,1.3,0.2,1.8,0.6c1.8,1.1,3.7,2,5.2,3.4
							c3.1,2.8,6.1,2.5,9.4-0.1c-3.2-2-6.3-4-9.7-6.2c3.9-1.6,7.5-3.1,11.2-4.4c0.8-0.3,1.9-0.1,2.7,0.3c1.6,0.8,3.1,1.8,4.5,2.9
							c2.9,2.6,5.6,2.2,8.6-0.2c-2.7-1.8-5.4-3.6-8.5-5.6c3.6-1.4,6.7-2.7,9.9-3.8c0.6-0.2,1.5,0.1,2.2,0.4c1.5,0.7,3.1,1.4,4.4,2.4
							c2.8,2.1,5.4,1.8,8.3-0.4c-2.7-1.6-5.2-3.4-7.8-4.7c-2.1-1-2.9-2.4-2.5-4.7c0.3-1.7,0.3-3.5,0.5-5.8c7.1,3.6,14,7.2,20.9,10.7
							C312.1,365.2,312.1,365.4,312.1,365.6z M201.2,379.2c-0.8,4.5-0.2,7.8,3.9,10.2c4.1,2.5,7.8,5.8,11.6,8.7
							c1.8,1.3,3.6,2.6,5.5,4.1c0.7-4.7,0.2-8.1-4.2-10.8C212.2,387.8,206.9,383.4,201.2,379.2z M190.5,378.2
							c0.3-0.1,0.6-0.3,0.9-0.4c-0.5-2.3-0.3-5.6-1.8-6.9c-5.2-4.5-10.9-8.3-17.2-12.9c0.6,3.1,0.2,6.2,1.6,7.5
							C179.2,370,184.9,374,190.5,378.2z"/>
						<path class="st4" d="M195,345c0.3,3.7,0.5,6.8,0.7,10.6c-3.7-2.5-7-4.7-10.8-7.2C188.5,347.1,191.6,346.1,195,345z"/>
						<path class="st4" d="M364,321.3c1.8,3.2,3.4,6.1,5.2,9.2c-1,0.4-1.8,0.7-3.4,1.3c0,5.5,0,11.3,0,17.1c0,3.9,0,3.9-4.4,4.7
							c0-6.8,0-13.6,0-20.5c-0.9,0-1.8,0-3,0C360.3,329.1,362,325.3,364,321.3z"/>
						<path class="st4" d="M388.8,330.6c-3.2,0.2-3.2,2.2-3.3,4.4c0,4.7-0.4,9.5-0.3,14.2c0.1,2.9-1,4.2-3.8,4.1
							c0-6.7,0-13.4,0-20.3c-0.6-0.1-1.4-0.2-2.6-0.4c1.7-3.6,3.3-7.1,5.2-11.1C385.8,324.8,387.2,327.5,388.8,330.6z"/>
						<path class="st4" d="M436.1,339.2c-0.5,1-0.8,2.5-1.6,2.8c-8.6,3.2-17.2,6.2-25.8,9.2c-0.9-2.5-0.2-3.7,2.2-4.4
							c8.2-2.5,16.3-5.3,24.4-8.1C435.6,338.9,435.9,339,436.1,339.2z"/>
					</g>
				</g>
			</g>
			<g id="Layer_6">
				<g id="g8cFVo_1_" class="st2">
					<g>
						<path class="st4" d="M309.8,399.3c-2.1,1.4-4.1,2.9-6.2,4.1c-3,1.7-7.4,2.4-8.9,4.9c-1.6,2.6-0.6,6.9-0.6,10.4
							c0,8.6-0.1,17.1,0,25.7c0,2.7-0.8,4.3-3.2,5.6c-12.6,6.9-25.1,14-37.7,20.8c-1.5,0.8-3.8,1.1-5.4,0.6c-18-5.4-36-10.9-54-16.4
							c-2.6-0.8-3.5-2.3-3.5-4.9c0.1-11.3,0-22.6,0.1-34c0-2.2-0.6-3.3-2.8-3.7c-3.6-0.7-7.1-1.6-10.6-2.7c-1.7-0.5-3.2-1.6-4.7-2.4
							c0-0.8,0-1.6,0-2.5c5.9-8.1,11.7-16.2,17.7-24.1c0.9-1.2,2.4-2.3,3.8-2.8c13.1-4.9,26.1-9.7,39.2-14.4
							c1.3-0.5,2.8-0.7,4.1-0.5c16.9,2.4,33.8,5,50.8,7.4c2.6,0.4,4.2,1.4,5.6,3.5c5.3,7.6,10.8,15.2,16.3,22.9
							C309.8,397.6,309.8,398.4,309.8,399.3z M197.2,415c0,10.8,0.1,20.9-0.1,31.1c0,2.1,0.7,2.9,2.7,3.5
							c12.5,3.7,24.9,7.6,37.3,11.4c3.1,0.9,6.2,1.8,9.4,2.8c0-20.1,0-39.8,0-59.9c-0.5,0.6-0.8,0.9-1,1.2
							c-3.6,5.3-7.2,10.6-10.7,16c-1.3,2-2.9,3-5.4,2.1c-2.1-0.7-4.3-1.1-6.5-1.7C214.5,419.4,206.1,417.2,197.2,415z M254.1,408.6
							c-0.1,0.1-0.3,0.1-0.4,0.2c0,17.8,0,35.6,0,53.7c1.2-0.6,2.2-1.1,3.2-1.6c8.4-4.6,16.6-9.5,25.1-13.8c4-2,5.5-4.3,5.3-8.8
							c-0.4-8.8-0.1-17.6-0.1-26.8c-1.2,0.5-2,0.8-2.8,1.2c-6.2,3-12.5,6-18.7,8.9c-3.5,1.7-4.9,1.2-6.5-2.3
							C257.4,415.7,255.8,412.2,254.1,408.6z M244.2,394.6c-0.6-0.2-1-0.5-1.3-0.5c-15.5-2.9-31-5.7-46.5-8.5
							c-0.8-0.1-2.1,0.6-2.6,1.3c-3.1,4-6,8.2-9,12.3c-1,1.4-2,2.9-3.2,4.5c15.7,4.1,30.9,8,46.2,11.9c0.8,0.2,2.4-0.1,2.8-0.7
							C235.1,408.3,239.6,401.5,244.2,394.6z M264.6,414.5c12.3-6,24.4-11.8,36.6-17.6c-4.6-6.5-8.8-12.5-13.1-18.7
							c-11.3,5.2-22.3,10.3-33.4,15.4C258.1,400.7,261.2,407.4,264.6,414.5z M207.1,380.2c0.8,0.4,1.1,0.6,1.3,0.6
							c12.6,2.3,25.2,4.7,37.9,6.8c2,0.3,4.3,0.2,6.1-0.6c7.5-3.3,15-6.9,22.4-10.4c0.5-0.2,0.8-0.6,1.5-1.1
							c-11.3-1.7-22.1-3.4-33-4.9c-2.8-0.4-5.9-1.3-8.4-0.5C225.7,373,216.7,376.6,207.1,380.2z"/>
					</g>
				</g>
				<path class="st4" d="M484.8,561.5c4.5,1.1,8.6,2.2,12.8,3.2c-1.8-5.8-3.6-11.5-5.5-17.2c-2-6.2-4.2-12.3-6.2-18.4
					c-0.6-1.8-1.4-2.7-3.5-3.3c-12.5-3.4-25.1-6.9-37.6-10.4c5.7-5.3,9.5-12.8,9.3-21.4c0.2-16.5-13.8-29.2-29.1-29.2
					c-15.2,0-29.1,12.6-29.1,29.2c0,9.3,4.3,17.3,10.8,22.5c-11.8,5.7-23.6,11.2-35.3,17.1c-1.8,0.9-3.6,2.8-4.4,4.6
					c-4.4,9.8-8.4,19.7-12.6,29.6c-0.2,0.5-0.5,0.9-0.8,1.4c0,0.2,0,0.4,0,0.5c4.2,1.1,8.5,2.2,12.6,3.5c0.8,0.2,1.7,1.4,1.7,2.2
					c0.2,4.5,0.1,9,0.1,13.5c0,4.3,1.9,7.1,6.4,8.4c21.3,6.5,42.6,12.9,63.9,19.4c0.2,0.1,0.3,0.2,0.4,0.3c0.6,0,1.2,0,1.7,0
					c2.3-1.2,4.8-2.2,6.8-3.8c10.8-8.5,21.4-17.1,32.1-25.6c3.6-2.9,5.4-6.2,5.3-10.7C484.7,572,484.8,566.9,484.8,561.5z
					 M485,542.9c0.1,0,0.3-0.1,0.4-0.1c1.7,4.9,3.5,9.8,5.4,15.3c-2.2-0.5-4-1-5.9-1.4C485,552,485,547.5,485,542.9z M402.9,497.1
					c2.2-2.2,4.4-4.4,6.8-6.9c2.7,2.7,5.4,5.4,8.2,8.3c2.7-2.7,5.4-5.3,8-8c4.6-4.6,9.1-9.2,13.7-13.8c0.9-0.9,1.5-1,2.4,0
					c1.4,1.5,2.8,3,4.4,4.4c1.2,1.1,1.2,1.8,0.1,2.9c-8.5,8.5-17,17-25.5,25.5c-1.2,0.6-2.4,1.2-3.7,1.8
					C412.3,506.4,407.6,501.7,402.9,497.1z M410.7,519.3c2.8,1.7,6,2.9,9.2,3.5c0,7.1,0,14.1,0,21.3c-13.7-3.2-27.2-6.3-41.4-9.5
					C389.5,529.3,400.1,524.3,410.7,519.3z M360.5,566.6c4.2-9.9,8.3-19.7,12.2-29.1c21.1,5.6,41.9,11.2,63.1,16.9
					c-3,10.5-5.9,20.6-8.9,31.1C404.7,579.3,382.8,573,360.5,566.6z M438.1,611.1c-7.6-2.3-14.9-4.5-22.3-6.8
					c-13.3-4.1-26.7-8.2-40-12.1c-1.9-0.6-2.5-1.4-2.5-3.2c0.1-4.5,0-9,0-13.9c19.1,5.4,37.8,10.8,57,16.2c2.5-8.6,5-17.1,7.4-25.6
					c0.1,0,0.2,0,0.4,0C438.1,580.7,438.1,595.7,438.1,611.1z M437.6,549.3c-3.6-0.9-7.2-2-10.7-3.2c-0.8-0.3-1.7-1.2-1.7-1.9
					c-0.1-6.9-0.1-13.9-0.1-21c0.1,0,0.2,0,0.2,0c5.6,0,11-1.8,15.6-4.8c11.9,3.1,23.8,6.2,35.9,9.4c-3.2,1.9-5.9,3.5-8.7,5.1
					c-8.9,5.3-17.7,10.6-26.7,15.8C440.5,549.4,438.8,549.6,437.6,549.3z M479.6,577.9c0,1.2-0.5,2.7-1.4,3.5
					c-11.1,9.4-22.3,18.6-33.4,27.9c-0.3,0.3-0.7,0.5-1.3,1.1c-0.1-1.2-0.1-2.1-0.1-2.9c0-16.9,0-33.9-0.1-50.8c0-2,0.6-3.2,2.5-4.3
					c10.4-6,20.8-12.2,31.1-18.3c0.7-0.4,1.4-0.8,2.6-1.4c0.1,1.1,0.2,1.9,0.2,2.8C479.7,549.6,479.7,563.8,479.6,577.9z"/>
				<g id="CxAPH4_1_">
					<g>
						<path class="st8" d="M279.6,522.9c-5.3-1.3-11.3-2.6-17.2-4.2c-1.5-0.4-2.8-1.7-4.2-2.6c0.9-1.4,1.6-3.3,2.9-4.3
							c11.2-8.4,22.5-16.7,33.7-25c15-11.1,30-22.1,45-33.2c2.4-1.8,4.6-2.7,7.7-1.8c4.4,1.2,9,1.7,14.6,2.7
							c-4,3.3-7.4,6.1-10.8,8.8c-22.1,17.7-44.2,35.3-66.3,53.1C283.1,517.9,281.7,520.2,279.6,522.9z"/>
						<path class="st8" d="M320.1,447c-11.7,7.9-22.4,15.2-33.1,22.4c-17.4,11.7-34.8,23.4-52.1,35.2c-2,1.4-3.4,3.6-5.6,5.8
							c-4.7-1.1-10.2-2.4-15.6-3.9c-1.4-0.4-2.6-1.6-3.9-2.4c1-1.4,1.7-3.2,3-4c18.9-12.1,37.9-24,56.9-36
							c9.3-5.9,18.7-11.6,27.8-17.6c3.3-2.2,6.4-3,10.2-1.9C311.5,445.6,315.2,446,320.1,447z"/>
						<path class="st8" d="M182.4,498.8c-3.8-0.9-8.6-2-13.4-3.4c-1.3-0.4-2.4-1.7-3.6-2.5c0.9-1.2,1.6-2.9,2.8-3.6
							c11.1-6.3,22.4-12.4,33.6-18.6c18.2-10,36.4-20,54.5-30.2c4.6-2.6,9.1-4.5,14.5-2.5c2.6,0.9,5.5,1.1,9.6,1.8
							c-2.4,1.5-3.8,2.4-5.3,3.3c-28.9,16.8-57.8,33.6-86.7,50.4C186.6,494.5,185.1,496.4,182.4,498.8z"/>
						<path class="st8" d="M361.8,461c0.4,7.9,0.8,14.2-6.4,20.1c-23.7,19.4-46.7,39.8-69.7,59.9c-3.4,2.9-6.2,3.8-10.6,2.4
							c-9.7-3.1-9.8-2.8-9.8-13c0-2.3,0-4.6,0-7.6c5.5,1.2,10.7,3.7,15.2,2.8c4.4-0.8,8.1-5.2,12.8-8.5c0,4.6,0,8.4,0,13.4
							c9.6-8.1,18.2-15.5,27.6-23.5c-5.2-1.4-9.6-2.5-15.6-4.1c6.5-3.4,9.2-9.4,16.3-10.1c3.2-0.3,6.1-4.2,9.8-6.9
							c0,4.2,0,7.6,0,12.2c7.8-6.6,14.6-12.5,22.4-19c-4.8-1-8.8-1.9-13.3-2.8C345.6,468.1,354.9,466.8,361.8,461z"/>
						<path class="st8" d="M338,450.6c-19.3,13.8-38,27.2-56.6,40.5c-8.6,6.2-17.4,12.3-25.9,18.6c-1.8,1.3-3.1,3.4-5.3,5.8
							c-2.3-0.6-5.8-1.3-9.2-2.4c-1.3-0.4-3.3-1.5-3.4-2.5c-0.2-1.2,1-3,2.2-3.8c6.6-4.7,13.4-9.2,20.1-13.9
							c19.5-13.3,39.3-26.5,58.6-40.4C324.9,447.9,330.6,447.8,338,450.6z"/>
						<path class="st8" d="M202,503.7c-2.1-0.5-5.4-1.1-8.5-2.2c-1.3-0.4-2.4-1.7-3.6-2.7c1-1.2,1.7-2.8,2.9-3.5
							c19.8-11.8,39.7-23.5,59.6-35.3c8.4-5,16.9-10,25.3-15c8.1-4.8,8.1-4.8,19-2c-2,1.3-3.4,2.2-4.8,3.1
							c-27.8,17.3-55.7,34.5-83.5,51.8C206.3,499.2,204.7,501.2,202,503.7z"/>
						<path class="st8" d="M231.4,514.3c0,4.6,0,8.6,0,12.7c4.8-0.3,7.1-6.9,13.3-4.9c-4.2,3.1-7.7,5.9-11.4,8.3
							c-1.2,0.8-3.1,1-4.5,0.7c-4.7-1-9.3-2.5-14-3.4c-3.4-0.6-4.8-2.1-4.6-5.6c0.2-4.1,0.1-8.3,0.1-12.9
							C217.3,510.8,224.1,512.5,231.4,514.3z"/>
						<path class="st8" d="M193.4,509.6c-4.8,3-8.6,6.9-12.9,7.7s-9.2-1.5-13.8-2.7c-0.4-0.1-0.7-1.4-0.8-2.2c-0.1-4.6,0-9.3,0-13.9
							c0.3,0,0.4-0.1,0.6-0.1c4.1,1.1,9.5,1.1,11.9,3.8c2.2,2.4,1.1,7.8,1.5,12.1c3.8-1.9,7.2-3.7,10.8-5.4
							C191,508.7,191.7,509.1,193.4,509.6z"/>
					</g>
				</g>
			</g>
			<g id="Layer_7">
				<g id="_x37_vCEl6_1_" class="st2">
					<g>
						<path class="st4" d="M474.9,520.3c0,8.7,0.1,17.4-0.1,26.1c-0.1,2.5,0.7,3.7,3,4.6c5.7,2.3,11.3,4.9,17.1,7.3
							c2,0.8,2.8,2,2.7,4.1c-0.1,4.3,0.1,8.6-0.1,12.8c-0.1,1.2-1,2.7-2,3.3c-2.3,1.4-4.8,2.4-7.3,3.2c-1.2,0.4-3,0.3-4-0.4
							c-6-4.3-11.1-0.6-16.1,1.9c-0.8,0.4-1.1,2.5-1,3.8c0.3,2.9-0.7,4.7-3.5,5.5c-1.4,0.4-2.8,0.9-4,1.7c-4.1,2.5-8,2.4-12.3,0.2
							c-1.4-0.8-3.8-0.5-5.4,0.1c-3.6,1.3-7.1,3.1-10.7,4.5c-2.1,0.8-3.3,1.9-2.9,4.3c0.6,3.4-0.9,5.4-4.2,6.1
							c-0.3,0.1-0.7,0.2-1,0.4c-5.8,4.5-11,1.2-16-1.6c-1.1-0.6-1.6-3.1-1.6-4.6c0.1-2.5-0.8-3.6-3-4.7c-3.7-1.8-7-2.6-10.9-0.3
							c-2.9,1.8-11.1-0.1-13.2-2.9c-0.8-1-0.7-2.7-0.7-4.1c-0.2-3.7-3.8-6.4-7.4-5.2c-0.2,0.1-0.5,0.2-0.7,0.3
							c-5,3.5-9.9,2.1-14.4-0.9c-1-0.7-2.1-2.1-2.1-3.3c-0.2-4.4-0.3-8.8,0-13.2c0.1-1.2,1.3-2.7,2.4-3.4c1.8-1.2,3.9-2.2,6-2.7
							c4.7-1.1,5.5-4,5.5-8.5c-0.2-20.2,0-40.4-0.2-60.5c0-2.8,1-4.1,3.4-5.2c16.1-6.8,32.1-13.8,48.2-20.5c1.5-0.6,3.8-0.6,5.4,0.1
							c15.8,6.6,31.4,13.5,47.1,20.1c3.1,1.3,4.4,2.9,4.3,6.4C474.7,503.4,474.9,511.9,474.9,520.3z M471.4,494.7
							c-1.2,0.3-2.1,0.5-2.8,0.8c-14.5,6.2-28.9,12.5-43.4,18.6c-2.2,0.9-2.6,2.4-2.6,4.5c0.1,19.9,0,39.8,0.1,59.8
							c0,0.9,0.2,1.8,0.3,3c0.9-0.2,1.5-0.3,2-0.6c14.6-6.3,29.1-12.6,43.7-18.8c2.4-1,2.8-2.4,2.8-4.8c-0.1-19.4,0-38.9,0-58.3
							C471.4,497.7,471.4,496.4,471.4,494.7z M370.2,494.4c0,22.1,0,43.3,0.1,64.6c0,1,1.4,2.4,2.5,2.9c14,6.1,28,12.1,42,18.1
							c3.3,1.4,4.2,0.8,4.2-2.7c0-19.7,0-39.3,0.1-59c0-2.4-0.9-3.4-2.9-4.2c-8.6-3.6-17.1-7.3-25.7-11
							C383.9,500.3,377.4,497.5,370.2,494.4z M397.7,502.2c6.1,2.6,11.6,4.7,16.8,7.4c4.2,2.2,7.9,2.5,12.2,0.1
							c3.6-2,7.5-3.3,11.3-5c9.9-4.3,19.7-8.5,30-13c-1-0.6-1.6-1.1-2.2-1.3c-6-2.6-11.9-5.3-18-7.7c-1.6-0.6-3.8-0.5-5.4,0.1
							c-4.5,1.7-8.9,3.7-13.4,5.7C418.8,493,408.7,497.5,397.7,502.2z M440.6,479.7c-6.2-2.7-11.5-5.1-16.9-7.2
							c-1.7-0.6-4.1-0.8-5.7-0.1c-13.7,5.6-27.2,11.5-40.8,17.3c-1.1,0.5-2.2,1.1-4,1.9c5.4,2.4,10.2,4.1,14.7,6.5
							c3.7,1.9,6.9,1.8,10.5-0.1c3.2-1.7,6.6-2.9,10-4.4C418.8,489.2,429.2,484.6,440.6,479.7z M494,564c-0.7,0-1.1-0.1-1.4,0
							c-24.2,10.3-48.4,20.6-72.5,31c-0.8,0.3-1.7,1.5-1.8,2.3c-0.2,3.2-0.1,6.5-0.1,9.9c6.1-1.2,6.2-1.3,6.3-6.5
							c0-2.2,0.9-3.3,2.8-4.1c7.2-3.1,14.5-6.2,21.7-9.4c4.5-2,6.2-3.6,6.2,3.8c0,0.2,0.2,0.4,0.4,0.6c4.5-1.3,9-2.3,7.9-8.9
							c-0.1-0.8,1.5-2.3,2.7-2.8c5.2-2.4,10.4-4.5,15.7-6.8c5.6-2.4,5.6-2.4,6.6,3.7c0,0.2,0.3,0.3,1.1,0.9c1.4-1.2,3.9-2.3,4.2-3.9
							C494.5,570.7,494,567.3,494,564z M490.4,561c0-0.3,0.1-0.6,0.1-0.9c-3-1-6.1-3.1-8.9-2.8c-2.8,0.3-6.9,1.1-7.1,5.7
							c0,0.5-1.3,1-2.1,1.3c-16.5,7.1-32.9,14.2-49.4,21.2c-0.9,0.4-2.1,0.9-2.7,0.6c-4.7-2.5-7.9,1.3-11.8,2.8
							c3.7,0.7,6.1,4.7,10.7,2.7c15.5-6.8,31.2-13.4,46.7-20.1C474,568,482.2,564.5,490.4,561z M414.7,607.3c0-2.7-0.2-5.2,0.1-7.6
							c0.3-2.9-0.7-4.3-3.4-5.4c-16.4-6.9-32.6-14.1-49-21.1c-1.8-0.8-3.7-1.4-6-2.3c0,3,0.2,5.5-0.1,7.9c-0.5,3.7,1.4,4.9,4.7,5.4
							c0.1-0.8,0.1-1.4,0.1-2c0.2-4.1,0.8-4.5,4.5-2.9c4,1.7,7.9,3.6,12,5.1c2.5,1,3.8,2.4,3.4,5.2c-0.7,3.9,1.5,5.1,4.9,5.4
							c0.1-0.6,0.2-1.1,0.2-1.6c0.3-4.7,0.7-5,4.9-3.2c5.1,2.2,10.3,4.3,15.3,6.7c1.2,0.6,2.5,2.6,2.4,3.7
							C408.1,605,410.4,606.6,414.7,607.3z M399.3,577.8c-5.8-4-9.1-3.8-14.8,0.6C389.6,583,394.4,580.8,399.3,577.8z M386.9,572.6
							c-5.4-4.1-8.6-4-14.6,0.5C377.3,577.6,382.1,575.6,386.9,572.6z M360.2,567.7c5.2,4.8,9.8,2.3,14.5-0.3
							C369.8,563.4,367.7,563.5,360.2,567.7z M411.4,582.9c-6.2-3.9-9.4-3.7-14.6,0.8C401.9,588.5,406.6,585.8,411.4,582.9z"/>
						<path class="st4" d="M386.4,512.7c0.9,0.3,1.8,0.6,2.7,1c4.6,1.9,9.2,3.7,13.6,6c1.1,0.6,2.2,2.8,2,3.9
							c-0.4,2-2.3,2.6-4.3,1.7c-5-2.2-10.1-4.1-15-6.5c-1-0.5-1.8-2.4-1.9-3.8c-0.1-1.2,0.8-2.5,1.3-3.7
							C385.4,511.8,385.9,512.2,386.4,512.7z"/>
					</g>
				</g>
			</g>
			<g id="Layer_8">
				<g id="KC6iOP_1_">
					<g>
						<path class="st4" d="M353.8,573.3c1.9-0.3,3.8-0.6,6-0.9c0-1.2,0.1-2.6,0.2-4.4c-1.9-0.2-3.7-0.4-5.7-0.6
							c0.3-2,0.5-3.7,0.8-5.7c2.2,0,4.2,0,6.5,0c0-1.8,0-3.2,0-4.9c-1.7-0.1-3.4-0.2-5.9-0.4c2.2-5.6,4.1-10.6,6.2-15.5
							c0.4-0.9,1.8-1.1,2.7-1.1c3.4-0.1,6.8-0.1,10.5-0.1c0.7-13.5,1.4-26.6,2.1-39.9c-3.4-1.2-1.8-5-2.1-8.2
							c9.8,0,19.4-0.7,28.9,0.2c7,0.7,12,7.2,14.6,16.5c4,14.4,7.3,29.1,11.2,43.6c1.2,4.4,3.2,8.4,5.2,12c0.8,1.4,2.8,1.3,4.8,2.1
							c0-2.4,0-3.8,0-5.2c0-16.7,0.7-33.6-0.3-50.2c-0.5-8.2-1.1-16.3-1.4-24.6c-0.1-2.7-1.1-5.4-1.8-8.7c4.7,0,8.6,0,12.8,0
							c0,3.9,0,7.6,0,11.7c1.7,0.2,3.2,0.3,5,0.5c0,10.1-1.3,52-4.8,51.4c0,9.4,0,17.7,0,26c1.4,0.2,2.7,0.3,3.9,0.5
							c0,10.6,0,20.8,0,31.2c-1.1-0.1-1.9-0.2-2.8-0.3c-0.7-16.9-6.8-26.6-15.7-25.6c-10,1.1-14.7,11.4-13.5,29.7
							c-2.3-0.3-5.2,2.2-5.6-4c-9.6,0-18.9,0-28.3,0c-1.3-14.9-6.3-22.7-14.2-22.5c-7.8,0.2-12.6,7.9-13.8,22.3
							c-2.1,1.1-3.3-0.1-3.8-3.1c-0.7-3.8-1.2-7.6-1.8-11.4C353.8,580.3,353.8,576.8,353.8,573.3z M418.5,577c-3.4,0-6.8,0.1-10.2,0
							c-1.2,0-2.5-0.1-3.5-0.9c-6.1-4.5-12.2-9.1-18.2-13.8c-0.7-0.6-1.5-2.1-1.6-3.2c-0.4-8.3-0.6-16.7-0.8-25.1c0-1,0.6-2.7,1.1-3
							c3-1.7,5.8,0.3,6.7,4.8c0.7,3.7,1.2,7.6,1.8,11.8c0.9,0,1.8,0,2.7,0c7.2,0.1,8.6,1.9,9.6,12.5c0.3,3.1,0.8,6.3,1.1,9.4
							c4.5,0,8.7,0,13.3,0c-3.7-9.2-7.2-18-10.8-27c0.8-1,1.6-1.9,2.2-2.7c-0.4-1.4-0.8-2.5-1.2-3.7c0.9-0.9,1.6-1.6,2.2-2.2
							c0.8,1.3,1.3,2.2,1.8,3.2c1-0.8,1.9-1.4,2.8-2.1c1.9,3.2,3.8,6.2,5.6,9.1c0.3-0.2,0.6-0.4,0.8-0.7c-3.3-11.4-6.4-22.9-10-34.1
							c-1.7-5.2-5.1-9.2-8.9-9.6c-7.7-0.8-15.5-0.2-23.5-0.2c-1,20.2-2.1,40.4-2.9,60.6c-0.1,1.1,0.9,2.8,1.7,3.4
							c5.4,4.3,11,8,16.3,12.6c5.5,4.7,11.1,7.1,17.5,6.3C416.7,581.9,418.2,581.3,418.5,577z M441.7,490.9
							c-0.2,0.6-0.5,1.2-0.7,1.8c1.7,1.1,3.3,2.3,5,3.4c0.2-0.6,0.4-1.3,0.7-1.9C445,493.1,443.3,492,441.7,490.9z M445.8,489.9
							c0.2-0.6,0.5-1.1,0.7-1.7c-1.2-2.2-3.2-2.7-5-3.6c-0.2,0.5-0.4,0.9-0.6,1.4C442.6,487.3,444.2,488.6,445.8,489.9z
							 M441.8,497.2c-0.2,0.4-0.4,0.8-0.6,1.2c0.8,3.3,3.1,2.8,4.8,4c0.2-0.4,0.4-0.9,0.6-1.3C445,499.8,443.4,498.5,441.8,497.2z"
							/>
						<path class="st4" d="M497.3,521.4c0.1,9.2,0.2,18.4,0.3,27.7c0,5.4,0,10.8,0,16.6c-15,0-29.7,0-44.8,0c0-14.9,0-29.6,0-44.2
							C467.6,521.4,482.5,521.4,497.3,521.4z M492.7,528c-9.8,0-19.4,0-29.1,0c1.9,2.4,3.9,5.3,6.1,5.5c7.6,0.6,15.2,0.2,22.9,0.2
							C492.7,531.5,492.7,529.8,492.7,528z M486.1,559.5c0.1-0.3,0.2-0.5,0.3-0.8c-2-1.6-4-4.5-6.1-4.7c-7.4-0.6-14.9-0.2-22.4-0.2
							c0,2.2,0,3.8,0,5.7C467.4,559.5,476.7,559.5,486.1,559.5z M457.9,544.6c0,2.5,0,4.4,0,6.4c6.5,0,12.7,0,19.1,0
							C471.8,542.1,464.7,544.7,457.9,544.6z M492.8,536.5c-6.8,0-13.2,0-20.1,0c5.9,8.9,13.2,4.5,20.1,5.7
							C492.8,540,492.8,538.4,492.8,536.5z M482.1,544.7c3.2,3.1,5.6,8.4,10.6,6.1c0-1.9,0-3.9,0-6.1
							C489.1,544.7,485.6,544.7,482.1,544.7z M466.8,541.8c-2.7-2.7-4.8-7.1-8.9-5.2c0,1.7,0,3.3,0,5.2
							C461,541.8,463.9,541.8,466.8,541.8z"/>
						<path class="st4" d="M432.7,607.2c-8.6-3.6-12.2-8.7-11.7-16.3c0.5-7.4,5.9-13.4,12.7-14.1c7.3-0.7,14.1,4.4,15.5,11.5
							c1.6,7.7-2.1,15.1-8.9,17.8c-0.9,0.4-1.8,0.7-2.6,1.1C436,607.2,434.3,607.2,432.7,607.2z M442.7,592c0-4.4-3.3-8-7.3-8.1
							c-4.1-0.1-7.8,3.8-7.7,8.2c0.1,4.3,3.5,7.9,7.6,7.9C439.4,600,442.7,596.4,442.7,592z"/>
						<path class="st4" d="M371.1,606.7c-4.2-1.6-7.7-4.2-9.3-9.2c-2.3-7.2,0.7-15,6.9-17.9c6.2-2.9,13.4,0.6,15.9,7.7
							s-0.3,15-6.4,18.1c-0.8,0.4-1.6,0.8-2.4,1.3C374.3,606.7,372.7,606.7,371.1,606.7z M373.3,585c-3.8,0-7,3.5-6.9,7.8
							c0.1,4,3.2,7.6,6.7,7.7c3.8,0.1,6.8-3.4,6.8-7.9C379.9,588.2,377.1,585,373.3,585z"/>
						<path class="st4" d="M453.6,517.8c0-14.7,0-29.2,0-44c13.5,0,27,0,40.9,0c0,14.5,0,29.2,0,44
							C480.8,517.8,467.3,517.8,453.6,517.8z M463.6,479.9c-0.1,0.3-0.2,0.5-0.4,0.8c1.8,1.6,3.5,4.4,5.4,4.5
							c7.2,0.5,14.4,0.2,21.6,0.2c0-2.1,0-3.7,0-5.5C481.2,479.9,472.4,479.9,463.6,479.9z M484.9,511.7c0.1-0.3,0.2-0.5,0.4-0.8
							c-1.9-1.7-3.7-4.6-5.6-4.7c-6.9-0.6-13.8-0.2-20.8-0.2c0,2.1,0,3.8,0,5.7C467.6,511.7,476.3,511.7,484.9,511.7z M475.6,502.9
							c-4.9-9-11.4-6.4-17.6-6.4c0,2.4,0,4.3,0,6.4C463.9,502.9,469.7,502.9,475.6,502.9z M490.2,488.5c-6.3,0-12.4,0-18.6,0
							c5.4,8.8,12.2,4.7,18.6,5.6C490.2,491.9,490.2,490.3,490.2,488.5z M490.2,502.6c0-1.9,0-3.9,0-5.9c-3.4,0-6.7,0-10.7,0
							C483.3,499.9,485.7,504.8,490.2,502.6z M457.9,493.8c3.1,0,5.7,0,9.1,0c-3.2-2.9-5.3-7.1-9.1-5.2
							C457.9,490.3,457.9,491.9,457.9,493.8z"/>
						<path class="st4" d="M401.9,537c-0.8-1.2-1.4-2.1-2.2-3.3c3.8-2.9,7.5-5.6,11.4-8.6c0.7,1.1,1.3,2.1,2.1,3.3
							C409.5,531.3,405.9,534,401.9,537z"/>
					</g>
				</g>
				<rect x="447.3" y="568.1" class="st4" width="45.4" height="6.6"/>
			</g>
			<g id="Layer_9">
				<g id="Yi7mKX_1_">
					<g>
						<path class="st9" d="M439.8,557c0-22,0-43.8,0-65.5c-7.6-2.2-49.7-1.3-53.9,1.3c-0.1-1.7-0.2-3.2-0.3-5.2
							c10.1,0,19.9,0.5,29.6-0.1c15.9-0.9,30.9,1.1,45.3,8.5c10.4,5.4,21.7,9.2,32.5,13.9c1.4,0.6,3,2.7,3,4.1
							c0.2,14.1,0.1,28.3,0.1,42.9C477.6,557,459,557,439.8,557z"/>
						<path class="st9" d="M435.4,501.1c-3.8,1.9-7.7,4-12.3,6.3c3.4,0.6,6.2,1.1,9.6,1.7c0,11.7-0.1,23.3,0.1,35
							c0.1,4.6-1.6,9.5,3,13.4c1.2,1.1,0.4,4.5,0.5,7.7c-6.5-6.3-6.5-6.2-12.7-1.5c-0.6,0.5-1.5,0.9-2.2,0.9c-19,0.1-37.9,0-57.5,0
							c0.4-16.5-4.3-32.9,3.8-49.1c-2-0.1-3.5-0.4-4.8-0.3c-1.4,0.1-2.7,0.6-4.1,1c0.6,1.4,1.5,2.7,1.6,4.1
							c0.3,3.9,0.7,7.8,0.3,11.6c-0.3,2.7-1.9,5.2-2.7,7.4c-4.9-5.6-4.5-12.6-2-20.6c1.9-6.2,5.3-5.5,9.6-5.6c1.4,0,3.4-0.2,4.1-1.1
							c2.5-3.1,5.2-4.8,9.3-4.7c0.9,0,2.3-1.7,2.8-2.9c2.8-8,7.9-11.9,16.9-11.2c9.3,0.7,18.7,0.2,28,0.2
							C433.4,493.5,433.4,493.5,435.4,501.1z M415.7,538.7c-0.1,0.7-0.2,1.4-0.2,2.1c2.5,0.3,5.1,1.1,7.6,0.9
							c1.7-0.1,4.4-1.2,4.8-2.4c1.5-5.4,2.9-11,3.1-16.5c0.2-6.2-3.6-10.3-8-10.3c-15.8-0.1-31.6,0-47.4-0.2c-2.7,0-4.5,0.6-5.2,3.4
							c-1.3,4.8-2.6,9.6-4,14.3c-1.2,3.8-0.2,5.2,3.9,6c14.1,2.7,28.1,2.3,42.1-0.4c1.5-0.3,3.4-2.5,3.6-4c0.8-5,0.9-10.2,1.3-15.3
							c2.9,0,5.5,0,9,0c-6.9,7.4-3.3,14.6-0.3,22.1C421.8,538.4,418.8,538.6,415.7,538.7z"/>
						<path class="st9" d="M363.8,581.6c0-4.5,0-8.4,0-12.6c19.2,0,38.1,0,57.8,0c0,3.5,0.4,7-0.2,10.3c-0.2,1.2-2.7,2.9-4.2,2.9
							c-11.8,0.5-23.6,0.8-35.4,0.8C375.8,582.9,369.9,582.1,363.8,581.6z M369.2,569.3c-1.7,1.2-2.9,2-4,2.9c1.5,0.9,3,2.1,4.7,2.5
							c0.7,0.2,1.8-1.4,2.8-2.2C371.6,571.5,370.6,570.6,369.2,569.3z M411.2,569.6c-3.1,0.9-5.3,1.6-7.6,2.2c0.6,1,1.1,2.8,1.7,2.8
							C407.8,574.7,410.8,575.1,411.2,569.6z"/>
						<path class="st9" d="M416.8,585.9c8.8,0.6,8.5-5.3,8-11.3c-0.1-1.3,0-2.8,0.6-3.9c1.3-2.4,3-4.6,4.6-6.9
							c1.4,2.2,3.8,4.4,4,6.8c0.4,5.6,0.2,11.2-0.5,16.8c-0.7,5.9-5.5,5.1-9.6,5.1C419.8,592.4,416.9,591.1,416.8,585.9z
							 M430.6,568.5c-0.5,0-0.9,0-1.4,0c-2,6.4-2.1,12.7,0.1,19c0.4,0,0.9,0,1.3,0C430.6,581.2,430.6,574.9,430.6,568.5z"/>
						<path class="st9" d="M476,566.5c-11.5,0.6-23,1.3-34.9,2c-0.1-1.6-0.1-3-0.2-4.1c11.9,0,23.5,0,35.1,0
							C475.9,565.1,476,565.8,476,566.5z"/>
						<path class="st9" d="M481.6,560c4,4.9,5.3,16.2,2,19c-1.9,1.6-5.5,1.4-8.3,1.3c-1.6-0.1-3.1-1.9-5.5-3.5c9.3-2,9.2-2,10-10.4
							C479.9,564.4,480.8,562.6,481.6,560z"/>
						<path class="st9" d="M475.9,571.9c-11.2,2.9-23,3.2-34.8,5.6c-0.1-1.6-0.2-3-0.4-4.5c11.9-1.1,23.3-2.2,34.8-3.3
							C475.7,570.5,475.8,571.2,475.9,571.9z"/>
						<path class="st9" d="M488.6,560.1c4,2.8,5.5,10.4,3.6,15.6c-0.5,1.5-2.7,2.3-4.1,3.5c-0.5-0.3-0.9-0.6-1.4-1
							C487.3,572.3,487.9,566.5,488.6,560.1z"/>
						<path class="st9" d="M388.2,586.1c-0.5,7.3-5.4,5.6-9.2,5.9c-4.4,0.3-5.8-2.1-6-5.9C378,586.1,382.9,586.1,388.2,586.1z"/>
					</g>
				</g>
			</g>
		</g>
		<g id="Layer_2_2_" class="st1">
			<g id="eOTZNW_1_">
				<g>
					<path class="st10" d="M801.6,704.5c-28.1-31.9-55.7-63.2-83.6-94.9c11.1-12.6,22.1-25.1,33.4-38c16.7,18.9,33.3,37.7,50.2,57
						c33.5-38,66.8-75.8,100.5-114c11.2,12.6,22.1,25,33.5,37.9C891,603,846.5,653.4,801.6,704.5z"/>
				</g>
			</g>
			<g id="Ohuny6_1_">
				<g>
					<path class="st10" d="M613.3,159.5c5.7,0,11.3,0,17,0c1.1,0.3,2.2,0.6,3.4,0.8c46.9,6.4,78.4,31.9,94.6,76.1
						c3.1,8.6,4.1,18,6,27.1c0,5.7,0,11.3,0,17c-0.3,1.3-0.7,2.5-0.8,3.8c-5.9,43.9-29.4,74.8-70,91.9c-10.4,4.4-22,5.6-33.1,8.3
						c-5.7,0-11.3,0-17,0c-1.1-0.3-2.2-0.6-3.3-0.8c-47-6.4-78.6-31.9-94.7-76.2c-3.1-8.6-4.1-18-6-27c0-5.7,0-11.3,0-17
						c0.3-1.4,0.7-2.8,0.9-4.3c6.7-46.3,32.1-77.7,76-93.7C594.9,162.4,604.3,161.4,613.3,159.5z M696.3,245.9
						c-1-1.5-1.7-2.8-2.7-3.8c-2.9-3-5.8-6-8.8-8.9c-4.7-4.7-5.7-4.7-10.5,0.1c-19.6,19.5-39.1,39.1-58.7,58.6c-4,4-5.6,4-9.5,0
						c-8.1-8.2-16.2-16.3-24.1-24.7c-3.2-3.4-6-3.5-9.3-0.2c-3,2.9-6.1,5.7-9.2,8.4c-3,2.6-3.3,5.2-0.6,8.1
						c14.6,15,29.2,30.1,43.8,45.2c2.7,2.8,5.2,3.2,8.1,0.3c26.2-26.3,52.5-52.5,78.8-78.9C694.6,249.1,695.3,247.5,696.3,245.9z"/>
				</g>
			</g>
		</g>
		<g id="Layer_3_1_" class="st1">
			<g id="jSJOsi_1_">
				<g>
					<path class="st11" d="M212.3,551.2c-6.5,20.4-13.2,40.7-19.6,61.1c-11.1,35.1-22.2,70.3-33.2,105.5c-2.5,7.8-7.4,9-13,3.1
						C112.3,684.8,78,648.7,43.8,612.5c-6.1-6.4-5-11.4,3-14.2c51.2-18,102.4-36,153.6-54c4.8-1.7,8.8-1.9,12,3
						C212.3,548.5,212.3,549.9,212.3,551.2z M149.6,703.8c13.3-42.1,26.4-83.6,39.2-124.1c-25.9,27.2-52.2,54.9-78.5,82.5
						C122.9,675.7,135.9,689.4,149.6,703.8z"/>
					<path class="st11" d="M0,757.3c17.1-18.2,34.2-36.4,51.4-54.5c3-3.2,7-3.2,9.6-0.4c2.7,2.8,2.6,6.8-0.6,10.1
						c-16.9,17.9-34,35.8-51,53.7c-3.1,0-6.3,0-9.4,0C0,763.3,0,760.3,0,757.3z"/>
					<path class="st11" d="M0,701.5c1-1.2,1.9-2.8,3.2-3.5c3.3-1.9,6.5-1.5,8.8,1.8c2.1,3.1,1.7,6.4-1.1,8.9c-3,2.6-6.1,2.4-8.9-0.5
						c-0.8-0.8-1.3-1.8-1.9-2.7C0,704.2,0,702.9,0,701.5z"/>
					<path class="st11" d="M56.6,766.3c-0.5-0.6-1-1.2-1.5-1.8c-2.5-3.3-2.4-7.3,0.2-9.7c2.6-2.4,7.1-2.1,9.3,0.6
						c2.2,2.8,1.9,6.8-1,9.7c-0.4,0.5-0.9,0.8-1.4,1.2C60.4,766.3,58.5,766.3,56.6,766.3z"/>
					<path class="st11" d="M106.8,717.3c-1.5,2.6-2.2,4.7-3.6,6.1c-6,6.5-12.1,12.9-18.2,19.3c-3.3,3.4-7.3,3.7-9.9,0.8
						c-2.7-2.8-2.4-7.1,0.8-10.5c6.1-6.6,12.2-13.3,18.7-19.5c1.7-1.6,5.2-2.3,7.5-1.7C103.9,712.2,105.1,715.2,106.8,717.3z"/>
					<path class="st11" d="M53.9,661c-1.5,2.6-2.2,4.6-3.5,6.1c-6.1,6.7-12.3,13.2-18.6,19.7c-3.4,3.5-7.1,3.6-9.9,0.5
						c-2.7-3-2.5-6.6,0.7-10.1c6.2-6.7,12.5-13.6,19-19.9c1.6-1.5,4.9-2.3,7.1-1.7C50.6,656.1,52,658.9,53.9,661z"/>
					<path class="st11" d="M72.8,696.5c-3.7-0.1-6.4-3.2-6.2-7.2c0.2-3.6,3.1-6.5,6.5-6.5c3.6,0.1,6.4,3.4,6.2,7.2
						C79.1,693.8,76.3,696.6,72.8,696.5z"/>
				</g>
			</g>
			<g id="_x38_cYwIc_1_">
				<g>
					<path class="st11" d="M664.7,644.6c-0.5,1.9-1.2,5.5-2.5,8.8c-25.2,65.1-50.4,130.2-75.8,195.2c-1.5,3.9-2.2,9.2-7.7,9.3
						c-5.1,0.1-6.3-4.8-8.1-8.3c-13.1-25-25.9-50-39.1-74.9c-1.4-2.6-3.9-5.1-6.4-6.6c-24.3-13.3-48.8-26.3-73.1-39.5
						c-3.6-2-8.8-3.2-8.6-8.7s5.4-6.2,9.2-7.8c63.2-25.5,126.5-50.9,189.8-76.3c3.9-1.6,8.2-2.8,12.4-3
						C661.3,632.5,664.7,636.3,664.7,644.6z M626.1,660.5c-0.2-0.3-0.4-0.5-0.6-0.8c-50.8,20.5-101.7,40.9-153.1,61.6
						c1.7,1.1,2.8,1.8,3.9,2.4c17.6,9.5,35.3,18.9,52.8,28.6c3.7,2.1,5.7,1.3,8.4-1.5c28.4-29.1,57-58.1,85.5-87.1
						C624.1,662.7,625.1,661.6,626.1,660.5z M545.2,766.9c10.4,19.9,21,40.4,32.2,61.8c20.5-52.9,40.6-104.6,60.7-156.3
						C607.2,703.8,576.4,735.2,545.2,766.9z"/>
				</g>
			</g>
			<polygon class="st11" points="654.7,633 462.4,724.2 534.4,764.3 			"/>
			<g>
				<path class="st12" d="M313.5,481.9c20.8-1.2,33-24.5,21.6-42.3c-6.1-9.5-1.4-15,5-21.3c6.6-6.5,12.5-7.9,20.4-1.8
					c11.4,8.8,36.6-0.6,40.4-14.6c3.6-13.2,17.5-19.5,29.7-12.9c2.6,1.4,4.6,5.5,5.1,8.7c2.7,17.1,24.6,29.2,39.8,20.5
					c9.2-5.3,15.5-5.1,22.6,2.8c6.8,7.5,8.4,14.1,2.3,23.2c-7,10.4,4.7,35.3,17.2,37.6c11.1,2,15.8,8.3,14.8,19.3
					c-0.9,9.8-3.8,16.5-16,16.1c-3.8-0.1-8.8,5.1-11.5,9c-3.1,4.4-5.1,9.9-6.1,15.2c-0.8,4.2-1.1,10.2,1.2,13.1
					c6.5,7.9,9.3,14.5,0.5,22.4c-7.7,6.9-14.1,15-25.2,3.9c-6.6-6.6-37.8,3.1-38.5,12.2c-1.2,16.9-11.3,17.3-23.6,16.1
					c-3.1-0.3-6.3-0.5-11-0.9c2.6-16.8-7.3-23.4-21.1-28.2c-8.4-2.9-15-4.7-22.5,1.9c-8.4,7.3-15,2-21.2-4.6
					c-5.1-5.3-9.1-9.6-3.6-17.6c12.2-18.3,1.5-41.2-20.3-44.6C313.5,504,313.5,493,313.5,481.9z M418,456.6
					c-23.1,0.2-42.1,19.3-42.1,42.2c0,23.1,20.7,43.7,43.3,43.1c22.4-0.6,42.4-20.9,42.3-42.9C461.5,475.7,441.6,456.4,418,456.6z"
					/>
			</g>
		</g>
	</g>
</g>
<g id="Layer_2">
	<g id="_x38_8OjNz_1_">
		<g>
			<path class="st13" d="M168.4,378.9C270,479.9,366.1,575.4,463,671.6c-30.4,28.8-59.9,56.7-86.7,82.1
				C252.3,629.4,125.4,502.3,0,376.7C122,254.7,248.8,127.8,376.6,0c25.7,27.5,53.4,57,83,88.6C365.9,181.9,268.7,278.9,168.4,378.9
				z"/>
		</g>
	</g>
</g>
</svg>
