<?xml version="1.0" encoding="iso-8859-1"?>
<!-- Generator: Adobe Illustrator 18.0.0, SVG Export Plug-In . SVG Version: 6.00 Build 0)  -->
<!DOCTYPE svg PUBLIC "-//W3C//DTD SVG 1.1//EN" "http://www.w3.org/Graphics/SVG/1.1/DTD/svg11.dtd">
<svg version="1.1" id="Capa_1" xmlns="http://www.w3.org/2000/svg" xmlns:xlink="http://www.w3.org/1999/xlink" x="0px" y="0px"
	 viewBox="0 0 262.715 262.715" style="enable-background:new 0 0 262.715 262.715;" xml:space="preserve">
<g>
	<path d="M229.786,112.889H205.21V37.97c0-4.971-4.029-9-9-9H66.505c-4.971,0-9,4.029-9,9v74.919H32.929
		C14.771,112.889,0,127.66,0,145.817v78.928c0,4.971,4.029,9,9,9h244.715c4.971,0,9-4.029,9-9v-78.928
		C262.715,127.66,247.943,112.889,229.786,112.889z M75.505,46.97H187.21v65.919H75.505V46.97z M244.715,215.745H18v-69.928
		c0-8.231,6.697-14.929,14.929-14.929h196.857c8.231,0,14.929,6.697,14.929,14.929V215.745z"/>
	<path d="M42.229,147.37h-7.218c-4.971,0-9,4.029-9,9s4.029,9,9,9h7.218c4.971,0,9-4.029,9-9S47.2,147.37,42.229,147.37z"/>
	<path d="M93.857,74.889h75c4.971,0,9-4.029,9-9s-4.029-9-9-9h-75c-4.971,0-9,4.029-9,9S88.887,74.889,93.857,74.889z"/>
	<path d="M168.857,84.889h-75c-4.971,0-9,4.029-9,9s4.029,9,9,9h75c4.971,0,9-4.029,9-9S173.828,84.889,168.857,84.889z"/>
	<path d="M196.21,185.483H66.505c-4.971,0-9,4.029-9,9s4.029,9,9,9H196.21c4.971,0,9-4.029,9-9S201.181,185.483,196.21,185.483z"/>
</g>
<g>
</g>
<g>
</g>
<g>
</g>
<g>
</g>
<g>
</g>
<g>
</g>
<g>
</g>
<g>
</g>
<g>
</g>
<g>
</g>
<g>
</g>
<g>
</g>
<g>
</g>
<g>
</g>
<g>
</g>
</svg>
