<?xml version="1.0" encoding="utf-8"?>
<!-- Generator: Adobe Illustrator 24.3.0, SVG Export Plug-In . SVG Version: 6.00 Build 0)  -->
<svg version="1.1" id="Layer_1" xmlns="http://www.w3.org/2000/svg" xmlns:xlink="http://www.w3.org/1999/xlink" x="0px" y="0px"
	 viewBox="0 0 496 496" style="enable-background:new 0 0 496 496;" xml:space="preserve">
<style type="text/css">
	.st0{fill:#9D9E9E;}
	.st1{fill:#69897F;}
</style>
<path class="st0" d="M1317,184h-16v16h-16v16h16v16h16v-16h16v-16h-16V184z"/>
<path class="st0" d="M1541,72V-8h-40v-30.1l20.9-41.9h-89.9l20.9,41.9V-8h-20.4c-5.6-9.5-15.8-16-27.6-16h-128
	c-17.7,0-32,14.3-32,32h-40v-32h-120c-22.1,0-40,17.9-40,40v8h88v16h-88v8c0,22.1,17.9,40,40,40h120V56h40c0,17.6,14.3,32,32,32h5.1
	l-26.5,84.8c-6.7,10.1-10.6,22.2-10.6,35.2c0,35.3,28.7,64,64,64c3.2,0,6.2-0.3,9.3-0.8l12.9,64.8h-11.2l-16,32H1285v48h256v-48
	h-19.1l-16-32H1493v-60.5l-118.8-71.3l29-116.2h1.8c11.8,0,22-6.5,27.6-16h20.4v22.1l-20.9,41.9h89.9L1501,94.1V72H1541z M1062.4,8
	c3.3-9.3,12.2-16,22.6-16h104V8H1062.4z M1189,72h-104c-10.4,0-19.3-6.7-22.6-16H1189V72z M1205,40h-56V24h96v16H1205z M1261,208
	c0-26.5,21.5-48,48-48s48,21.5,48,48s-21.5,48-48,48S1261,234.5,1261,208z M1371.6,221.3l52.8,31.7l-85.6,39.5l-5.1-25.5
	C1352.8,259,1367.2,242,1371.6,221.3z M1439.9,262.3l27.8,16.7l-120.8,53.7l-4.8-24l98.3-45.4L1439.9,262.3z M1525,400h-224v-16h224
	V400z M1504.1,368h-182.1l8-16h166.1L1504.1,368z M1378.7,336l98.3-43.7V336H1378.7z M1364.6,176.5c-11-19.4-31.8-32.5-55.6-32.5
	c-10.8,0-21,2.7-30,7.5l19.8-63.5h87.9L1364.6,176.5z M1421,56c0,8.8-7.2,16-16,16h-128c-8.8,0-16-7.2-16-16V8c0-8.8,7.2-16,16-16
	h128c8.8,0,16,7.2,16,16V56z M1496.1-64l-8,16h-22.1l-8-16H1496.1z M1469-32h16v24h-16V-32z M1525,8v16h-88V8H1525z M1437,40h88v16
	h-88V40z M1457.9,120l8-16h22.1l8,16H1457.9z M1485,88h-16V72h16V88z"/>
<path class="st0" d="M1309,8c-13.2,0-24,10.8-24,24s10.8,24,24,24s24-10.8,24-24S1322.2,8,1309,8z M1309,40c-4.4,0-8-3.6-8-8
	s3.6-8,8-8s8,3.6,8,8S1313.4,40,1309,40z"/>
<path class="st0" d="M1373,8c-13.2,0-24,10.8-24,24s10.8,24,24,24s24-10.8,24-24S1386.2,8,1373,8z M1373,40c-4.4,0-8-3.6-8-8
	s3.6-8,8-8s8,3.6,8,8S1377.4,40,1373,40z"/>
<path class="st0" d="M1212.4,284.1l12.9-15.5l-33-33l-15.5,13c-3.5-1.8-7.1-3.2-10.8-4.5l-1.8-20.1h-46.6l-1.8,20.1
	c-3.7,1.2-7.3,2.7-10.8,4.5l-15.5-13l-33,33l12.9,15.5c-1.8,3.5-3.2,7.1-4.5,10.8l-20.1,1.8v46.6l20.1,1.8c1.2,3.7,2.7,7.3,4.5,10.8
	l-12.9,15.5l33,33l15.5-13c3.5,1.8,7.1,3.2,10.8,4.5l1.8,20.1h46.6l1.8-20.1c3.7-1.2,7.3-2.7,10.8-4.5l15.5,13l33-33l-12.9-15.5
	c1.8-3.5,3.2-7.1,4.5-10.8l20.1-1.8v-46.6l-20.1-1.8C1215.7,291.2,1214.2,287.6,1212.4,284.1z M1221,328.7l-16.6,1.5l-1.4,5.5
	c-1.5,6-3.9,11.8-7.1,17l-2.9,4.9l10.7,12.8l-12.3,12.3l-12.8-10.7l-4.9,2.9c-5.3,3.2-11,5.5-17,7.1l-5.5,1.4l-1.5,16.6h-17.4
	l-1.5-16.6l-5.5-1.4c-6-1.5-11.8-3.9-17.1-7.1l-4.9-2.9l-12.8,10.7l-12.3-12.3l10.7-12.8l-2.9-4.9c-3.2-5.3-5.5-11-7.1-17l-1.4-5.5
	l-16.6-1.5v-17.4l16.6-1.5l1.4-5.5c1.5-6,3.9-11.8,7.1-17l2.9-4.9l-10.7-12.8l12.3-12.3l12.8,10.7l4.9-2.9c5.3-3.2,11-5.5,17-7.1
	l5.5-1.4l1.5-16.6h17.4l1.5,16.6l5.5,1.4c6,1.5,11.8,3.9,17.1,7.1l4.9,2.9l12.8-10.7l12.3,12.3l-10.7,12.8l2.9,4.9
	c3.2,5.3,5.5,11,7.1,17l1.4,5.5l16.6,1.5V328.7L1221,328.7z"/>
<path class="st0" d="M1141,272c-26.5,0-48,21.5-48,48s21.5,48,48,48s48-21.5,48-48S1167.5,272,1141,272z M1141,352
	c-17.7,0-32-14.4-32-32s14.3-32,32-32s32,14.4,32,32S1158.7,352,1141,352z"/>
<g>
	<path class="st0" d="M479.9,396.2v-56.3l-24.3-2.2c-1.5-4.5-3.3-8.8-5.4-13l15.6-18.7l-39.8-39.8l-18.7,15.6
		c-4.2-2.1-8.6-3.9-13-5.4l-2.2-24.3h-56.3l-2.2,24.3c-4.5,1.5-8.8,3.3-13,5.4l-18.7-15.6L262,305.9l15.6,18.7
		c-2.1,4.2-3.9,8.5-5.4,13l-24.3,2.2v56.3l24.3,2.2c1.5,4.5,3.3,8.8,5.4,13L262,430.1l39.8,39.8l18.7-15.6c4.2,2.1,8.6,3.9,13,5.4
		l2.2,24.3h56.3l2.2-24.3c4.5-1.5,8.8-3.3,13-5.4l18.7,15.6l39.8-39.8l-15.6-18.7c2.1-4.2,3.9-8.5,5.4-13L479.9,396.2z M440.5,380.3
		l-1.7,6.6c-1.8,7.3-4.7,14.2-8.5,20.6l-3.5,5.9l12.9,15.5l-14.8,14.8l-15.5-13l-5.9,3.5c-6.4,3.8-13.3,6.7-20.6,8.5l-6.6,1.7
		l-1.8,20.1h-21l-1.8-20.1l-6.6-1.7c-7.3-1.8-14.2-4.7-20.6-8.5l-5.9-3.5L303,443.7l-14.8-14.8l12.9-15.5l-3.5-5.9
		c-3.8-6.4-6.7-13.3-8.5-20.6l-1.7-6.6l-20.1-1.8v-21l20.1-1.8l1.7-6.6c1.8-7.3,4.7-14.2,8.5-20.6l3.5-5.9l-12.9-15.5l14.8-14.8
		l15.5,13l5.9-3.5c6.4-3.8,13.3-6.7,20.6-8.5l6.6-1.7l1.8-20.1h21l1.8,20.1l6.6,1.7c7.3,1.8,14.2,4.7,20.6,8.5l5.9,3.5l15.5-12.9
		l14.8,14.8l-12.9,15.5l3.5,5.9c3.8,6.4,6.7,13.3,8.5,20.6l1.7,6.6l20.1,1.8v21L440.5,380.3z"/>
	<path class="st0" d="M364,310c-32,0-58,26-58,58s26,58,58,58c32,0,58-26,58-58S395.9,310,364,310z M364,406.6
		c-21.3,0-38.7-17.3-38.7-38.7s17.3-38.7,38.7-38.7c21.3,0,38.7,17.3,38.7,38.7S385.3,406.6,364,406.6z"/>
</g>
<path class="st0" d="M828.4,112.7l17.1-20.4L802,48.8l-20.4,17.1c-4.6-2.3-9.3-4.3-14.2-5.9L765,33.5h-61.4L701.1,60
	c-4.9,1.6-9.6,3.6-14.2,5.9l-20.4-17.1L623,92.3l17.1,20.4c-2.3,4.6-4.3,9.3-5.9,14.2l-26.5,2.4v61.4l26.5,2.4
	c1.6,4.9,3.6,9.6,5.9,14.2L623,227.7l43.4,43.5l20.4-17.1c4.6,2.3,9.3,4.3,14.2,5.9l2.4,26.5h61.4l2.4-26.5
	c4.9-1.6,9.6-3.6,14.2-5.9l20.4,17.1l43.4-43.5l-17.1-20.4c2.3-4.6,4.3-9.3,5.9-14.2l26.5-2.4v-61.4l-26.5-2.4
	C832.6,122,830.6,117.3,828.4,112.7z M839.6,171.4l-21.9,2l-1.8,7.2c-2,7.9-5.1,15.5-9.3,22.5l-3.8,6.4l14.1,16.9l-16.2,16.2
	l-16.9-14.1l-6.4,3.8c-7,4.2-14.5,7.3-22.5,9.3l-7.2,1.8l-2,21.9h-22.9l-2-21.9l-7.2-1.8c-7.9-2-15.5-5.1-22.5-9.3l-6.4-3.8
	l-16.9,14.1l-16.2-16.2l14.1-16.9l-3.8-6.4c-4.2-7-7.3-14.5-9.3-22.5l-1.8-7.2l-21.9-2v-22.9l21.9-2l1.8-7.2
	c2-7.9,5.1-15.5,9.3-22.5l3.8-6.4l-14.1-16.9l16.2-16.2l16.9,14.1l6.4-3.8c7-4.2,14.5-7.3,22.5-9.3l7.2-1.8l2-21.9h22.9l2,21.9
	l7.2,1.8c7.9,2,15.5,5.1,22.5,9.3l6.4,3.8l16.9-14.1l16.2,16.2l-14.1,16.9l3.8,6.4c4.2,7,7.3,14.5,9.3,22.5l1.8,7.2l21.9,2V171.4
	L839.6,171.4z"/>
<path class="st0" d="M734.2,96.7c-34.9,0-63.3,28.4-63.3,63.3s28.4,63.3,63.3,63.3c34.9,0,63.3-28.4,63.3-63.3
	S769.1,96.7,734.2,96.7z M734.2,202.2c-23.3,0-42.2-18.9-42.2-42.2s18.9-42.2,42.2-42.2c23.3,0,42.2,18.9,42.2,42.2
	S757.5,202.2,734.2,202.2z"/>
<path class="st0" d="M1133,104h16v16h-16V104z"/>
<path class="st0" d="M1133,136h16v16h-16V136z"/>
<path class="st0" d="M1133,168h16v16h-16V168z"/>
<g id="VNr6mR_2_">
	<g>
		<path class="st1" d="M-67.6-35.6c-0.7,5-1.4,10-2.2,15C-71.8-8-79.4,0.9-89,8.6c-6.8,5.5-13.5,11.2-20.3,16.6
			c-1.8,1.4-2.7,2.6-2.3,5.2c1.3,8.7-0.6,16.3-7.4,22.5c-4.9,4.5-9.1,9.7-13.7,14.4c-3.2,3.3-4.9,2.8-6-1.7
			c-1.6-6.9-2.9-13.8-4.4-20.7c-3.5-0.5-6.9,3.4-10.1-0.7c-4.9,8.4-9.7,16.3-14.4,24.3c-0.3-0.1-0.5-0.1-0.8-0.2
			c-0.3-3.3-0.7-6.6-1.1-10.8c-13.9,11.6-27.3,22.9-40.7,34c-0.1-0.1-0.2-0.2-0.4-0.3c6.7-11.4,13.4-22.8,20.4-34.8
			c-7.5,1.5-14.1,2.9-20.8,4.2c-0.1-0.2-0.3-0.4-0.4-0.6c9-7.5,18-15.1,27.9-23.3c-4.1,0-7.2,0-10.3,0c-0.1-0.3-0.1-0.5-0.2-0.8
			c6.8-3.9,13.5-7.7,19.4-11.1c0.2-3.8,0.4-6.9,0.5-10.6c-5.3-1.1-10.8-2.3-16.4-3.5c-1.8-0.4-3.7-0.7-5.5-1.3
			c-2.8-0.8-3.3-2.5-1.3-4.5c6.6-6.3,13.4-12.6,20.1-18.9c3.7-3.5,8.4-4.1,13.1-3.5c6,0.8,9.9-1.1,13.5-6.1
			c5.4-7.4,11.9-14,17.7-21.1c7.7-9.4,18-13.6,29.6-15.2c3.3-0.5,6.5-0.9,9.8-1.3c4,0,8,0,12,0c3,1.2,6.1,2.1,8.8,3.8
			c3.6,2.2,4.3,6.3,5.1,10.2C-67.6-43.2-67.6-39.4-67.6-35.6z M-140.4,37.8c18.4-14.4,37-28,53.6-44c1.4-1.4,2.8-3,3.7-4.7
			c5.9-11.4,6.6-23.7,5.8-36.2c-0.2-2.7-1.8-4.4-4.9-4.3c-5.7,0.2-11.5,0-17.2,0.6c-10.8,1-20.3,4.7-27.4,13.5
			c-12.8,16-25.8,31.8-38.7,47.7c-0.3,0.4-0.4,0.9-0.7,1.4C-155,17.8-146.4,26.1-140.4,37.8z M-185.6,47.4c0.1,0.1,0.2,0.3,0.3,0.4
			c4.1-1.5,8.3-3,12.9-4.6c-1.1,3.5-2.1,6.3-3.2,9.9c4.1-2.7,7.5-4.8,11-7.1c0.1,1,0.2,1.7,0.3,2.8c3.4-3.5,6.5-6.6,9.7-9.9
			c-2.6-4.8-6.1-8.7-10.6-11.6c-0.9-0.5-2.4-0.9-3.2-0.5c-3,1.3-5.9,3-9.1,4.8c1.9,0.8,3.2,1.3,4.9,2
			C-177.2,38.5-181.4,42.9-185.6,47.4z M-144.6,39.9C-150.1,29-157.8,21-169,15.8c-0.4,1.6-0.8,2.9-1.1,4.4
			c10.5,3.8,17.5,10.9,21.2,21.2C-147.4,40.9-146.2,40.5-144.6,39.9z"/>
		<path class="st1" d="M-107.9-1.5c-10.7,0-19.5-8.6-19.5-19.2s8.8-19.4,19.4-19.5c10.6-0.1,19.4,8.7,19.4,19.4
			C-88.5-10.2-97.1-1.5-107.9-1.5z M-122.6-20.8c0,8.4,6.6,15.1,14.8,15c8.2-0.1,14.7-6.6,14.8-14.9c0.1-8.2-6.7-15-14.9-15
			C-116.2-35.6-122.6-29.1-122.6-20.8z"/>
	</g>
</g>
<g id="UGdaUh_1_">
	<g>
		<g>
			<path class="st0" d="M448.3,245.5c0.1,7.3-0.2,14.6-1,21.9l29.8,29.8L460,317.7l5.9,14.2l9.2,0.8
				c28.1-75.4,17.5-159.6-31.5-227.7C385.7,24.5,286.9-5.4,219.1,7.6c1.5,12.7,3,25.4,4.6,38.8C362.7,36.5,446.9,146.1,448.3,245.5z
				"/>
			<path class="st0" d="M332.8,465l-14.2-5.9l-20.4,17.1l-26.8-26.9c-15.1,2-30.9,2.4-47.5,1.1c-1.5,13-3.1,26-4.6,38.9
				c34,6.1,74.9,2,114.6-13.3L332.8,465z"/>
		</g>
		<path class="st0" d="M83.5,224.4c9.7-10.9,18.5-20.7,28.1-31.5c25.8,22.9,50.9,45.2,77.2,68.5c37.9-56.7,75.4-112.9,113.9-170.6
			c11.8,8,23,15.5,34.9,23.6c-46.9,70.3-93.2,139.8-140.6,210.9C159.2,291.6,122,258.6,83.5,224.4z"/>
		<path class="st0" d="M72.3,420.7c-10.8-13.6-21.6-27.3-33-41.8c12.9-8.2,24-15.3,35.6-22.6c9.4,11.9,18.3,23.1,27.2,34.3
			C92.6,400.1,83.1,409.7,72.3,420.7z"/>
		<path class="st0" d="M138.7,76.9c-7.1-11.4-14.1-22.6-22.4-35.7c16.3-8,31.8-15.6,49-24c4.8,14.1,9.2,26.9,13.7,40
			C165.7,63.7,153.1,69.9,138.7,76.9z"/>
		<path class="st0" d="M45.2,271.1c3.4,15.5,6.5,29.2,9.7,43.8c-12.6,4.6-25,9.1-39.5,14.4c-4.2-18-8.1-34.9-12.3-53.2
			C17.9,274.3,31.3,272.7,45.2,271.1z"/>
		<path class="st0" d="M72.3,75.7c10.8,11.3,20,20.8,29.4,30.7c-8.3,10.7-17.2,22-26.7,34.2c-11.3-7.1-22.4-14.2-35.7-22.5
			C50.4,103.9,61,90.2,72.3,75.7z"/>
		<path class="st0" d="M116.3,455.8c8.3-13.3,15.3-24.4,22.5-35.9c13.7,6.6,26.5,12.9,40.3,19.6c-4.3,12.9-8.6,25.6-13.5,40
			C149,471.4,133.3,463.9,116.3,455.8z"/>
		<path class="st0" d="M3.3,220.7c4-17.9,7.7-34.7,11.8-53.1c14.4,5.1,26.7,9.5,39.5,14.1c-2.8,13.6-5.1,26.5-8.2,39.3
			c-0.5,1.9-4.5,4.3-6.7,4.1C28.1,224.1,16.6,222.4,3.3,220.7z"/>
	</g>
</g>
</svg>
