<?xml version="1.0" encoding="utf-8"?>
<!-- Generator: Adobe Illustrator 24.0.1, SVG Export Plug-In . SVG Version: 6.00 Build 0)  -->
<svg version="1.1" xmlns="http://www.w3.org/2000/svg" xmlns:xlink="http://www.w3.org/1999/xlink" x="0px" y="0px"
	 viewBox="0 0 143.77 152.63" style="enable-background:new 0 0 143.77 152.63;" xml:space="preserve">
<style type="text/css">
	.st0{display:none;}
	.st1{display:inline;opacity:0.08;}
	.st2{fill:#7E7E7E;}
	.st3{display:inline;}
	.st4{fill:#698A7E;}
	.st5{opacity:0.08;fill:#698A7E;}
	.st6{display:inline;fill:#6A8A80;}
	.st7{fill:none;}
	.st8{opacity:0.08;}
</style>
<g id="Layer_1" class="st0">
	<g id="VNr6mR_1_" class="st1">
		<g>
			<path class="st2" d="M143.77,25.26c-0.72,5.01-1.36,10.04-2.18,15.03c-2.06,12.58-9.68,21.52-19.22,29.23
				c-6.8,5.49-13.47,11.15-20.28,16.64c-1.76,1.42-2.69,2.63-2.3,5.21c1.33,8.67-0.59,16.3-7.43,22.55
				c-4.89,4.47-9.1,9.68-13.73,14.44c-3.23,3.32-4.94,2.84-5.96-1.65c-1.56-6.88-2.94-13.8-4.41-20.74
				c-3.52-0.54-6.95,3.38-10.11-0.72c-4.95,8.36-9.66,16.31-14.37,24.26c-0.27-0.06-0.54-0.11-0.8-0.17
				c-0.34-3.28-0.68-6.56-1.11-10.77c-13.93,11.64-27.33,22.85-40.74,34.05c-0.12-0.11-0.24-0.22-0.36-0.32
				c6.68-11.38,13.36-22.77,20.44-34.82c-7.47,1.51-14.14,2.86-20.81,4.2c-0.14-0.2-0.27-0.39-0.41-0.59
				c9.01-7.55,18.03-15.11,27.85-23.34c-4.12,0-7.23,0-10.34,0c-0.06-0.26-0.13-0.52-0.19-0.78c6.75-3.86,13.51-7.71,19.43-11.09
				c0.19-3.77,0.35-6.93,0.53-10.59c-5.26-1.11-10.82-2.28-16.39-3.47c-1.84-0.39-3.69-0.72-5.48-1.26
				c-2.81-0.84-3.33-2.53-1.3-4.46c6.65-6.34,13.38-12.61,20.1-18.87c3.72-3.46,8.42-4.08,13.06-3.46c5.99,0.81,9.86-1.09,13.47-6.1
				c5.36-7.43,11.87-14.01,17.68-21.13C86.11,7.11,96.41,2.96,108.04,1.3c3.27-0.47,6.54-0.87,9.81-1.3c3.99,0,7.98,0,11.97,0
				c2.96,1.24,6.13,2.14,8.83,3.8c3.61,2.23,4.27,6.33,5.13,10.16C143.77,17.73,143.77,21.49,143.77,25.26z M70.95,98.65
				c18.42-14.44,36.99-28.05,53.62-44.01c1.42-1.36,2.75-2.96,3.65-4.69c5.92-11.39,6.64-23.68,5.79-36.16
				c-0.18-2.67-1.77-4.4-4.86-4.27c-5.74,0.25-11.52,0.05-17.24,0.58c-10.79,1-20.33,4.66-27.42,13.52
				C71.71,39.6,58.72,55.41,45.84,71.31c-0.31,0.38-0.43,0.92-0.66,1.44C56.39,78.69,64.98,87.02,70.95,98.65z M25.78,108.33
				c0.09,0.14,0.18,0.29,0.28,0.43c4.14-1.48,8.28-2.97,12.93-4.63c-1.15,3.5-2.08,6.33-3.25,9.9c4.11-2.65,7.48-4.82,10.98-7.07
				c0.12,1.03,0.19,1.71,0.32,2.85c3.42-3.49,6.51-6.64,9.67-9.87c-2.63-4.76-6.12-8.7-10.65-11.62c-0.85-0.55-2.37-0.85-3.22-0.47
				c-3,1.33-5.85,3.01-9.14,4.77c1.85,0.77,3.22,1.34,4.9,2.04C34.19,99.35,29.99,103.84,25.78,108.33z M66.79,100.84
				c-5.55-10.9-13.28-18.9-24.43-24.11c-0.43,1.64-0.77,2.94-1.14,4.37c10.52,3.83,17.46,10.92,21.25,21.19
				C64,101.77,65.2,101.37,66.79,100.84z"/>
			<path class="st2" d="M103.42,59.4c-10.72,0.04-19.5-8.64-19.47-19.25c0.03-10.61,8.8-19.41,19.41-19.47
				c10.57-0.06,19.38,8.73,19.44,19.4C122.86,50.74,114.22,59.36,103.42,59.4z M88.76,40.1c-0.02,8.4,6.57,15.09,14.78,15
				c8.17-0.09,14.67-6.63,14.76-14.85c0.08-8.25-6.66-14.99-14.95-14.96C95.11,25.34,88.78,31.76,88.76,40.1z"/>
		</g>
	</g>
	<g id="VNr6mR_2_" class="st3">
		<g>
			<path class="st4" d="M143.77,24.6c-0.72,5.01-1.36,10.04-2.18,15.03c-2.06,12.58-9.68,21.52-19.22,29.23
				c-6.8,5.49-13.47,11.15-20.28,16.64c-1.76,1.42-2.69,2.63-2.3,5.21c1.33,8.67-0.59,16.3-7.43,22.55
				c-4.89,4.47-9.1,9.68-13.73,14.44c-3.23,3.32-4.94,2.84-5.96-1.65c-1.56-6.88-2.94-13.8-4.41-20.74
				c-3.52-0.54-6.95,3.38-10.11-0.72c-4.95,8.36-9.66,16.31-14.37,24.26c-0.27-0.06-0.54-0.11-0.8-0.17
				c-0.34-3.28-0.68-6.56-1.11-10.77c-13.93,11.64-27.33,22.85-40.74,34.05c-0.12-0.11-0.24-0.22-0.36-0.32
				c6.68-11.38,13.36-22.77,20.44-34.82c-7.47,1.51-14.14,2.86-20.81,4.2c-0.14-0.2-0.27-0.39-0.41-0.59
				c9.01-7.55,18.03-15.11,27.85-23.34c-4.12,0-7.23,0-10.34,0c-0.06-0.26-0.13-0.52-0.19-0.78c6.75-3.86,13.51-7.71,19.43-11.09
				c0.19-3.77,0.35-6.93,0.53-10.59c-5.26-1.11-10.82-2.28-16.39-3.47c-1.84-0.39-3.69-0.72-5.48-1.26
				c-2.81-0.84-3.33-2.53-1.3-4.46c6.65-6.34,13.38-12.61,20.1-18.87c3.72-3.46,8.42-4.08,13.06-3.46c5.99,0.81,9.86-1.09,13.47-6.1
				C66.1,29.58,72.62,23,78.42,15.88C86.11,6.45,96.41,2.3,108.04,0.64c3.27-0.47,6.54-0.87,9.81-1.3c3.99,0,7.98,0,11.97,0
				c2.96,1.24,6.13,2.14,8.83,3.8c3.61,2.23,4.27,6.33,5.13,10.16C143.77,17.06,143.77,20.83,143.77,24.6z M70.95,97.99
				c18.42-14.44,36.99-28.05,53.62-44.01c1.42-1.36,2.75-2.96,3.65-4.69c5.92-11.39,6.64-23.68,5.79-36.16
				c-0.18-2.67-1.77-4.4-4.86-4.27c-5.74,0.25-11.52,0.05-17.24,0.58c-10.79,1-20.33,4.66-27.42,13.52
				C71.71,38.94,58.72,54.75,45.84,70.65c-0.31,0.38-0.43,0.92-0.66,1.44C56.39,78.03,64.98,86.36,70.95,97.99z M25.78,107.67
				c0.09,0.14,0.18,0.29,0.28,0.43c4.14-1.48,8.28-2.97,12.93-4.63c-1.15,3.5-2.08,6.33-3.25,9.9c4.11-2.65,7.48-4.82,10.98-7.07
				c0.12,1.03,0.19,1.71,0.32,2.85c3.42-3.49,6.51-6.64,9.67-9.87c-2.63-4.76-6.12-8.7-10.65-11.62c-0.85-0.55-2.37-0.85-3.22-0.47
				c-3,1.33-5.85,3.01-9.14,4.77c1.85,0.77,3.22,1.34,4.9,2.04C34.19,98.69,29.99,103.18,25.78,107.67z M66.79,100.17
				c-5.55-10.9-13.28-18.9-24.43-24.11c-0.43,1.64-0.77,2.94-1.14,4.37c10.52,3.83,17.46,10.92,21.25,21.19
				C64,101.11,65.2,100.71,66.79,100.17z"/>
			<path class="st4" d="M103.42,58.74c-10.72,0.04-19.5-8.64-19.47-19.25c0.03-10.61,8.8-19.41,19.41-19.47
				c10.57-0.06,19.38,8.73,19.44,19.4C122.86,50.08,114.22,58.7,103.42,58.74z M88.76,39.44c-0.02,8.4,6.57,15.09,14.78,15
				c8.17-0.09,14.67-6.63,14.76-14.85c0.08-8.25-6.66-14.99-14.95-14.96C95.11,24.67,88.78,31.1,88.76,39.44z"/>
		</g>
	</g>
</g>
<g id="Layer_2" class="st0">
	<g class="st3">
		<path class="st5" d="M448.85,157.66h-16v16h-16v16h16v16h16v-16h16v-16h-16V157.66z"/>
		<path class="st5" d="M672.85,45.66v-80h-40v-30.11l20.95-41.89H563.9l20.95,41.89v30.11H564.4c-5.55-9.52-15.76-16-27.55-16h-128
			c-17.65,0-32,14.35-32,32h-40v-32h-120c-22.05,0-40,17.95-40,40v8h88v16h-88v8c0,22.05,17.95,40,40,40h120v-32h40
			c0,17.65,14.35,32,32,32h5.12l-26.48,84.75c-6.71,10.11-10.64,22.22-10.64,35.25c0,35.29,28.71,64,64,64
			c3.16,0,6.25-0.3,9.29-0.75l12.95,64.75H451.9l-16,32h-19.05v48h256v-48h-19.05l-16-32h-12.95v-60.53l-118.8-71.28l29.04-116.19
			h1.76c11.79,0,22-6.48,27.55-16h20.45v22.11l-20.95,41.89h89.89l-20.95-41.89V45.66H672.85z M194.21-18.34
			c3.3-9.31,12.2-16,22.63-16h104v16H194.21z M320.85,45.66h-104c-10.43,0-19.33-6.69-22.63-16h126.63V45.66z M336.85,13.66h-56v-16
			h96v16H336.85z M392.85,181.66c0-26.47,21.53-48,48-48s48,21.53,48,48s-21.53,48-48,48S392.85,208.14,392.85,181.66z
			 M503.44,194.95l52.84,31.7l-85.58,39.5l-5.09-25.48C484.68,232.64,499.05,215.62,503.44,194.95z M571.73,235.93l27.79,16.68
			l-120.8,53.69l-4.8-24.01l98.27-45.35L571.73,235.93z M656.85,373.66h-224v-16h224V373.66z M635.9,341.66H453.79l8-16H627.9
			L635.9,341.66z M510.54,309.66l98.3-43.69v43.69H510.54z M496.48,150.15c-11.02-19.37-31.8-32.49-55.63-32.49
			c-10.82,0-21.02,2.72-29.96,7.49l19.84-63.49h87.88L496.48,150.15z M552.85,29.66c0,8.82-7.18,16-16,16h-128
			c-8.82,0-16-7.18-16-16v-48c0-8.82,7.18-16,16-16h128c8.82,0,16,7.18,16,16V29.66z M627.9-90.34l-8,16h-22.11l-8-16H627.9z
			 M600.85-58.34h16v24h-16V-58.34z M656.85-18.34v16h-88v-16H656.85z M568.85,13.66h88v16h-88V13.66z M589.79,93.66l8-16h22.11
			l8,16H589.79z M616.85,61.66h-16v-16h16V61.66z"/>
		<path class="st5" d="M440.85-18.34c-13.23,0-24,10.77-24,24s10.77,24,24,24s24-10.77,24-24S454.08-18.34,440.85-18.34z
			 M440.85,13.66c-4.41,0-8-3.59-8-8s3.59-8,8-8s8,3.59,8,8S445.26,13.66,440.85,13.66z"/>
		<path class="st5" d="M504.85-18.34c-13.23,0-24,10.77-24,24s10.77,24,24,24c13.23,0,24-10.77,24-24S518.08-18.34,504.85-18.34z
			 M504.85,13.66c-4.41,0-8-3.59-8-8s3.59-8,8-8s8,3.59,8,8S509.26,13.66,504.85,13.66z"/>
		<path class="st5" d="M344.27,257.77l12.94-15.5l-32.97-32.98l-15.5,12.95c-3.48-1.75-7.08-3.24-10.78-4.46l-1.8-20.11h-46.62
			l-1.81,20.12c-3.7,1.22-7.3,2.71-10.78,4.46l-15.5-12.95l-32.97,32.98l12.94,15.5c-1.75,3.47-3.24,7.07-4.46,10.77l-20.11,1.8
			v46.62l20.12,1.81c1.21,3.7,2.71,7.3,4.46,10.77l-12.95,15.5l32.97,32.98l15.5-12.95c3.48,1.75,7.08,3.24,10.78,4.46l1.79,20.11
			h46.62l1.81-20.12c3.7-1.22,7.3-2.71,10.78-4.46l15.5,12.95l32.97-32.98l-12.94-15.5c1.75-3.47,3.24-7.07,4.46-10.77l20.11-1.8
			v-46.62l-20.12-1.81C347.51,264.84,346.01,261.24,344.27,257.77z M352.85,302.35l-16.63,1.5l-1.39,5.5
			c-1.51,6.01-3.89,11.75-7.07,17.05l-2.91,4.88l10.71,12.82l-12.28,12.29l-12.83-10.72l-4.87,2.91
			c-5.29,3.17-11.03,5.55-17.05,7.07l-5.5,1.39l-1.49,16.63h-17.38l-1.5-16.63l-5.5-1.39c-6.02-1.52-11.76-3.9-17.05-7.07
			l-4.86-2.91l-12.83,10.71l-12.28-12.29l10.71-12.82l-2.91-4.88c-3.17-5.3-5.55-11.04-7.07-17.05l-1.39-5.5l-16.63-1.5v-17.38
			l16.63-1.5l1.39-5.5c1.51-6.01,3.89-11.75,7.07-17.05l2.91-4.88l-10.71-12.82l12.28-12.29l12.83,10.72l4.87-2.91
			c5.29-3.17,11.03-5.55,17.05-7.07l5.5-1.39l1.49-16.63h17.38l1.5,16.63l5.5,1.39c6.02,1.52,11.76,3.9,17.05,7.07l4.86,2.91
			l12.83-10.71l12.28,12.29l-10.71,12.82l2.91,4.88c3.17,5.3,5.55,11.04,7.07,17.05l1.39,5.5l16.63,1.5V302.35z"/>
		<path class="st5" d="M272.85,245.66c-26.47,0-48,21.53-48,48s21.53,48,48,48s48-21.53,48-48S299.32,245.66,272.85,245.66z
			 M272.85,325.66c-17.65,0-32-14.35-32-32s14.35-32,32-32s32,14.35,32,32S290.49,325.66,272.85,325.66z"/>
		<path class="st5" d="M264.85,77.66h16v16h-16V77.66z"/>
		<path class="st5" d="M264.85,109.66h16v16h-16V109.66z"/>
		<path class="st5" d="M264.85,141.66h16v16h-16V141.66z"/>
	</g>
	<path class="st6" d="M-7.45-61.91V-84.9h-11.49v-8.65l6.02-12.03h-25.82l6.02,12.03v8.65h-5.87c-1.59-2.73-4.53-4.6-7.91-4.6
		h-36.77c-5.07,0-9.19,4.12-9.19,9.19h-11.49v-9.19h-34.47c-6.33,0-11.49,5.16-11.49,11.49v2.3h25.28v4.6h-25.28v2.3
		c0,6.33,5.16,11.49,11.49,11.49h34.47v-9.19h11.49c0,5.07,4.12,9.19,9.19,9.19h1.47l-7.61,24.35c-1.93,2.9-3.06,6.39-3.06,10.13
		c0,10.14,8.25,18.39,18.39,18.39c0.91,0,1.8-0.09,2.67-0.22l3.72,18.6h-3.21l-4.6,9.19h-5.48v13.79h73.54V23.12h-5.47l-4.6-9.19
		h-3.72V-3.46l-34.13-20.48l8.34-33.38h0.51c3.39,0,6.32-1.86,7.91-4.6h5.87v6.35l-6.02,12.03h25.82l-6.02-12.03v-6.35H-7.45z
		 M-144.95-80.3c0.95-2.67,3.5-4.6,6.5-4.6h29.88v4.6H-144.95z M-108.57-61.91h-29.88c-3,0-5.55-1.92-6.5-4.6h36.38V-61.91z
		 M-103.98-71.11h-16.09v-4.6h27.58v4.6H-103.98z M-87.89-22.85c0-7.6,6.19-13.79,13.79-13.79c7.6,0,13.79,6.19,13.79,13.79
		S-66.49-9.06-74.1-9.06C-81.7-9.06-87.89-15.24-87.89-22.85z M-56.12-19.03l15.18,9.11L-65.52,1.43l-1.46-7.32
		C-61.51-8.2-57.38-13.09-56.12-19.03z M-36.5-7.26l7.98,4.79l-34.7,15.42l-1.38-6.9l28.23-13.03L-36.5-7.26z M-12.05,32.31H-76.4
		v-4.6h64.35V32.31z M-18.07,23.12h-52.31l2.3-4.6h47.72L-18.07,23.12z M-54.08,13.93l28.24-12.55v12.55H-54.08z M-58.12-31.9
		c-3.16-5.56-9.14-9.33-15.98-9.33c-3.11,0-6.04,0.78-8.61,2.15l5.7-18.24h25.25L-58.12-31.9z M-41.92-66.51
		c0,2.53-2.06,4.6-4.6,4.6h-36.77c-2.53,0-4.6-2.06-4.6-4.6V-80.3c0-2.53,2.06-4.6,4.6-4.6h36.77c2.53,0,4.6,2.06,4.6,4.6V-66.51z
		 M-20.36-100.98l-2.3,4.6h-6.35l-2.3-4.6H-20.36z M-28.14-91.79h4.6v6.89h-4.6V-91.79z M-12.05-80.3v4.6h-25.28v-4.6H-12.05z
		 M-37.33-71.11h25.28v4.6h-25.28V-71.11z M-31.31-48.13l2.3-4.6h6.35l2.3,4.6H-31.31z M-23.54-57.32h-4.6v-4.6h4.6V-57.32z"/>
</g>
<g id="Layer_3" class="st0">
	<g class="st3">
		<rect x="22.6" y="12.39" class="st7" width="103.72" height="2.58"/>
		<rect x="15.51" y="102.04" class="st7" width="117.91" height="7.69"/>
		<path class="st7" d="M138.59,86.87c0-20.75,0-41.5,0-62.26c0-4.37-0.28-4.64-4.78-4.64c-20.65,0-41.3,0-61.95,0s-41.3,0-61.95,0
			c-4.51,0-4.79,0.27-4.79,4.62c0,20.75,0,41.5,0,62.26c0,4.24,0.47,4.71,4.78,4.71c41.3,0.01,82.6,0.01,123.89,0
			C138.12,91.56,138.59,91.09,138.59,86.87z M69.43,44.26c-0.35,0.42-0.67,0.88-1.06,1.27c-9.62,9.57-19.25,19.12-28.88,28.68
			c-1.41,1.4-2,1.42-3.39-0.01c-5.38-5.52-10.75-11.05-16.12-16.58c-0.28-0.29-0.51-0.62-0.76-0.93c0-0.3,0-0.59,0-0.89
			c1.75-1.64,3.46-3.34,5.29-4.89c0.77-0.65,1.58-0.21,2.25,0.48c3.08,3.15,6.19,6.29,9.29,9.43c1.46,1.48,2.02,1.48,3.48,0.04
			c7.43-7.36,14.86-14.71,22.29-22.06c1.3-1.29,1.89-1.31,3.15-0.03c1.5,1.53,2.98,3.07,4.47,4.61
			C69.43,43.67,69.43,43.97,69.43,44.26z M110.66,56.86c3.71,3.6,7.35,7.27,11.02,10.91c1.29,1.27,1.31,1.96,0.03,3.24
			c-1.91,1.91-3.82,3.82-5.74,5.71c-1.14,1.13-1.88,1.13-3.01,0.01c-3.73-3.69-7.47-7.37-11.15-11.11c-0.81-0.82-1.27-0.82-2.09,0
			c-3.47,3.52-7,6.97-10.52,10.45c-0.32,0.32-0.65,0.65-0.99,0.94c-0.86,0.73-1.65,0.77-2.44,0c-2.15-2.09-4.29-4.21-6.39-6.35
			c-0.86-0.87-0.77-1.72,0.2-2.67c3.78-3.75,7.54-7.51,11.36-11.22c0.78-0.76,0.81-1.24,0.02-2.01c-3.63-3.52-7.21-7.09-10.81-10.64
			c-1.69-1.67-1.69-2.24,0.02-3.9c1.6-1.57,3.19-3.15,4.78-4.74c1.98-1.99,2.28-2,4.31,0.02c3.5,3.49,7.03,6.95,10.49,10.48
			c0.77,0.78,1.25,0.79,2.02,0.01c3.69-3.73,7.43-7.41,11.15-11.1c1.19-1.18,1.91-1.18,3.09-0.01c1.97,1.96,3.95,3.9,5.89,5.88
			c0.37,0.38,0.6,0.91,0.96,1.47c-0.41,0.57-0.7,1.11-1.11,1.52c-3.68,3.69-7.35,7.38-11.09,11.01
			C109.82,55.56,109.83,56.05,110.66,56.86z"/>
		<path class="st5" d="M90.84,142.52c-12.65,0.02-25.31,0.03-37.96,0c-5.1-0.01-7.2-2.43-6.13-6.53H22.6v8.86h100.24v-8.86h-25.9
			C98.04,140.13,95.97,142.51,90.84,142.52z"/>
		<path class="st5" d="M61.81,38.79c-7.43,7.35-14.86,14.71-22.29,22.06c-1.46,1.44-2.02,1.44-3.48-0.04
			c-3.1-3.14-6.2-6.27-9.29-9.43c-0.67-0.69-1.48-1.13-2.25-0.48c-1.83,1.56-3.53,3.25-5.29,4.89c0,0.3,0,0.59,0,0.89
			c0.25,0.31,0.48,0.64,0.76,0.93c5.37,5.53,10.74,11.06,16.12,16.58c1.39,1.42,1.98,1.41,3.39,0.01
			c9.63-9.56,19.26-19.12,28.88-28.68c0.39-0.39,0.71-0.84,1.06-1.27c0-0.3,0-0.59,0-0.89c-1.49-1.54-2.97-3.09-4.47-4.61
			C63.7,37.49,63.11,37.5,61.81,38.79z"/>
		<path class="st5" d="M121.74,43.74c0.41-0.41,0.69-0.94,1.11-1.52c-0.36-0.57-0.58-1.09-0.96-1.47c-1.94-1.98-3.92-3.93-5.89-5.88
			c-1.18-1.17-1.9-1.18-3.09,0.01c-3.73,3.69-7.46,7.37-11.15,11.1c-0.77,0.78-1.25,0.77-2.02-0.01
			c-3.47-3.52-6.99-6.99-10.49-10.48c-2.03-2.02-2.33-2.01-4.31-0.02c-1.58,1.59-3.17,3.17-4.78,4.74c-1.7,1.67-1.71,2.24-0.02,3.9
			c3.6,3.55,7.18,7.12,10.81,10.64c0.8,0.77,0.77,1.25-0.02,2.01c-3.82,3.71-7.58,7.47-11.36,11.22c-0.96,0.96-1.05,1.8-0.2,2.67
			c2.1,2.14,4.24,4.26,6.39,6.35c0.79,0.77,1.58,0.73,2.44,0c0.35-0.3,0.67-0.62,0.99-0.94c3.51-3.47,7.05-6.93,10.52-10.45
			c0.81-0.83,1.28-0.82,2.09,0c3.68,3.74,7.42,7.42,11.15,11.11c1.13,1.12,1.87,1.12,3.01-0.01c1.92-1.9,3.83-3.8,5.74-5.71
			c1.28-1.28,1.26-1.97-0.03-3.24c-3.67-3.64-7.32-7.3-11.02-10.91c-0.83-0.8-0.84-1.29,0-2.1
			C114.39,51.12,118.06,47.43,121.74,43.74z"/>
		<path class="st5" d="M134,121.99c3.26-0.07,6.48-1.49,9.72-2.29c0-36.64,0-73.29,0-109.93c-47.91,0-95.82,0-143.73,0
			C0,46.42,0,83.06,0,119.7c3.24,0.8,6.47,2.22,9.72,2.29c12.65,0.27,25.3,0.11,37.96,0.11c1.14,0,2.28,0,4.52,0
			c-1.72,4.38-3,8.13-4.65,11.7c-0.36,0.78-0.62,1.5-0.8,2.19h50.2c-0.18-0.68-0.44-1.4-0.79-2.17c-1.64-3.58-2.9-7.34-4.6-11.72
			c2.21,0,3.35,0,4.49,0C108.7,122.1,121.36,122.26,134,121.99z M22.6,12.39h103.72v2.58H22.6V12.39z M5.13,86.85
			c0-20.75,0-41.5,0-62.26c0-4.36,0.28-4.62,4.79-4.62c20.65,0,41.3,0,61.95,0s41.3,0,61.95,0c4.5,0,4.78,0.27,4.78,4.64
			c0,20.75,0,41.5,0,62.26c0,4.22-0.48,4.7-4.79,4.7c-41.3,0.01-82.6,0.01-123.89,0C5.6,91.56,5.13,91.09,5.13,86.85z M15.51,109.73
			v-7.69h117.91v7.69H15.51z"/>
		<path class="st5" d="M52.88,142.52c12.65,0.03,25.31,0.03,37.96,0c5.13-0.01,7.21-2.39,6.11-6.53h-50.2
			C45.67,140.09,47.78,142.51,52.88,142.52z"/>
	</g>
</g>
<g id="Layer_4" class="st0">
	<g id="fNdCKC_1_" class="st3">
		<g>
			<path class="st4" d="M38.95,122.38c8.08-4.57,16.38-9.27,25.18-14.25c4.69,7.38,9.31,14.64,14.04,22.06
				c14.08-22.5,27.04-45.6,54.74-58.96c-0.07,10.58-2.44,20.44,2.11,29.89c-19.15,10.65-30.73,21.47-54.97,51.51
				c-6.38-5.73-12.23-11.84-19.09-16.89C54.2,130.76,46.43,126.85,38.95,122.38z"/>
			<path class="st4" d="M100.81,39.81c-23.94,0-47.46,0-71.35,0c0-3.4-0.12-6.62,0.04-9.82c0.11-2.26,2.06-2.91,4.3-2.93
				c4.46-0.04,8.93,0,13.39-0.02c1.37-0.01,2.75-0.11,4.46-0.18c0-5.49-0.01-10.72,0-15.95c0.02-7.66,4.99-11.6,14.57-11.59
				c8.26,0.01,13.28,4.46,13.27,11.76c-0.01,5.14,0,10.28,0,15.98c5.2,0,10.25-0.04,15.29,0.01c5.19,0.05,5.99,0.78,6.02,5.28
				C100.82,34.77,100.81,37.2,100.81,39.81z M70.93,17.13c0.05-2.45-2.21-4.5-4.99-4.52c-2.82-0.02-5.09,1.92-5.14,4.41
				c-0.06,2.44,2.21,4.5,4.99,4.54C68.55,21.59,70.88,19.59,70.93,17.13z"/>
			<path class="st4" d="M46.87,13.32c0,2.74,0,5.04,0,7.77c-5.73,0-11.3-0.01-16.88,0.01c-2.04,0.01-4.1-0.05-6.12,0.14
				c-4.04,0.39-6.5,2.74-6.5,6.25c-0.02,34.19-0.02,68.37,0.01,102.56c0,3.7,2.5,6.09,6.83,6.29c4.97,0.22,9.95,0.11,14.93,0.13
				c8.04,0.02,12.44,1.79,18.43,7.6c-1.19,0.07-2.13,0.18-3.07,0.18c-11.37,0.02-22.73,0.04-34.1,0.01
				c-8.36-0.02-10.97-2.39-10.96-9.64c0.01-37.21,0.01-74.42,0-111.63c0-7.3,2.56-9.62,10.92-9.66
				C29.04,13.29,37.71,13.32,46.87,13.32z"/>
			<path class="st4" d="M112.9,73.55c0-12.28,0-24.36,0-36.44c0-2.8,0.05-5.6,0.03-8.4c-0.04-5.21-2.66-7.54-8.68-7.6
				c-6.35-0.06-12.71-0.01-19.32-0.01c0-2.61,0-4.91,0-7.76c1.42,0,2.88,0,4.34,0c7.27,0,14.55-0.05,21.82,0.02
				c6.76,0.07,9.69,2.77,9.69,8.71c-0.01,12.99-0.37,25.99,0.17,38.97C121.18,66.86,119.39,70.89,112.9,73.55z"/>
			<path class="st4" d="M120.78,121.7c0,5.84,0.07,10.75-0.02,15.66c-0.07,3.65-2.88,6.37-7.55,6.68c-5,0.33-10.06,0.07-16.11,0.07
				c3.8-3.18,4.85-7.51,10.63-8.15c1.86-0.2,4.71-2.87,4.77-4.48C112.66,126.54,116.95,124.96,120.78,121.7z"/>
			<path class="st4" d="M99.11,73.07c-18.42,0-36.62,0-54.83,0c-3.44,0-6.88,0.08-10.32-0.07c-0.88-0.04-1.71-0.77-2.57-1.19
				c0.84-0.57,1.68-1.62,2.53-1.63c9.93-0.12,19.87-0.09,29.81-0.08c10.95,0.01,21.91,0.05,32.86,0.02
				C98.76,70.12,100.17,70.4,99.11,73.07z"/>
			<path class="st4" d="M99.16,81.86c-7.48,0-14.87,0-22.25,0c-14.18,0-28.35,0.03-42.53-0.07c-1-0.01-1.99-0.99-2.98-1.52
				c0.96-0.44,1.92-1.25,2.89-1.26c20.69-0.08,41.37-0.08,62.06-0.09C98.21,78.93,100.21,78.81,99.16,81.86z"/>
			<path class="st4" d="M31.75,90.61c-1.03-3.39,1.44-2.85,3.21-2.85c17.36-0.02,34.72,0,52.08,0c3.95,0,7.9,0,11.92,0
				c1.6,3.03-0.69,2.87-2.76,2.87C81,90.62,65.81,90.62,50.62,90.61C44.39,90.61,38.15,90.61,31.75,90.61z"/>
			<path class="st4" d="M55.37,57.52c-7.35,0-14.69,0.04-22.04-0.07c-0.64-0.01-1.27-0.94-1.91-1.44c0.65-0.49,1.3-1.4,1.96-1.41
				c6.73-0.11,13.47-0.15,20.2,0.01c0.84,0.02,1.65,1.28,2.47,1.96C55.83,56.89,55.6,57.2,55.37,57.52z"/>
			<path class="st4" d="M55.04,64.24c-7.71,0-15.42,0-23.2,0c-0.8-1.83-0.54-2.82,1.94-2.8c6.47,0.05,12.94-0.06,19.41,0.08
				c0.97,0.02,1.91,1.11,2.87,1.7C55.71,63.56,55.38,63.9,55.04,64.24z"/>
		</g>
	</g>
</g>
<g id="Layer_5">
	<g id="_x34_hK3Jt_1_" class="st8">
		<g>
			<path class="st4" d="M19.78,152.64c-6.85-0.16-13.76-4.12-17.72-12.25c-4.02-8.26-3.27-16.7,2.59-23.68
				c6.25-7.45,13.39-14.15,20.28-21.03c0.91-0.91,2.65-1.12,4.06-1.34c5.86-0.95,8.86-3.82,9.38-9.86c0.36-4.11,3.29-6.07,6.05-8.12
				c0.62-0.46,2.67,0.13,3.43,0.88c8.89,8.72,17.73,17.5,26.35,26.47c0.85,0.88,0.9,3.71,0.13,4.75c-1.95,2.66-4.19,4.96-8.22,4.98
				c-4.35,0.02-7.59,4.19-8.46,8.54c-0.47,2.34-1.52,4.9-3.1,6.62c-5.39,5.88-11.14,11.44-16.75,17.13
				C33.43,150.15,28.23,152.63,19.78,152.64z M36.94,108.49c-0.99-1.2-1.73-2.92-2.65-3.02c-1.52-0.17-3.6,0.23-4.65,1.23
				c-5.67,5.41-11.1,11.09-16.61,16.67c-1.72,1.75-2.45,3.78-0.62,5.73c2.06,2.19,4.07,1.23,5.9-0.64
				c5.39-5.51,10.85-10.96,16.22-16.5C35.43,111.04,36.03,109.83,36.94,108.49z M25.3,141.18c0.99-0.44,1.89-0.59,2.42-1.12
				c6.21-6.22,12.46-12.41,18.42-18.87c0.72-0.78,0.38-3.71-0.48-4.48c-0.91-0.81-3.72-0.95-4.55-0.15
				c-6.27,5.96-12.33,12.15-18.25,18.46c-0.74,0.79-0.67,2.86-0.26,4.09C22.89,140.02,24.37,140.52,25.3,141.18z"/>
			<path class="st4" d="M76.03,54.92c-2.38,2.04-4.62,3.96-7.97,6.83c-1.92-2.3-4.19-5.11-6.57-7.83c-1.82-2.09-4.1-3.03-6.26-0.74
				c-2.12,2.24-1.13,4.52,0.88,6.37c2.58,2.37,5.22,4.67,8.04,7.18c-2.88,2.68-5.04,4.69-8.18,7.61c-0.84-1.21-1.8-2.88-3.02-4.32
				c-4.59-5.43-10.36-7.54-17.54-7.39C17.27,63.02,3.35,48.41,4.06,30.21c0.07-1.86,0.55-3.7,0.98-6.39c1.71,1.06,3.01,1.6,3.96,2.5
				c3.24,3.08,6.3,6.35,9.52,9.44c4.9,4.69,10.16,4.5,14.94-0.29c8.95-8.95,11.33-13.34-0.08-23.57c-2.01-1.8-3.93-3.74-5.72-5.76
				c-0.83-0.93-1.93-2.39-1.7-3.3c0.21-0.85,1.96-1.59,3.14-1.86c15.25-3.42,31.74,6.83,35.58,22.25c0.77,3.11,1.19,6.49,0.89,9.66
				c-0.74,7.84,1.74,14.12,7.71,19.11C74.2,52.77,74.94,53.74,76.03,54.92z"/>
			<path class="st4" d="M62.83,80.1c1.52-1.91,2.4-3.25,3.51-4.37c12-12.15,23.92-24.39,36.14-36.31c3.66-3.57,5.98-7.15,5.03-12.38
				c-0.74-4.09,0.96-6.39,4.78-8.1c6.88-3.08,13.58-6.61,20.2-10.25c3.23-1.78,5.15-0.62,7.33,1.69c2.06,2.18,3.78,3.89,1.94,7.31
				c-3.9,7.27-7.48,14.72-11,22.19c-1.21,2.57-2.83,3.97-5.62,3.52c-6.5-1.05-10.95,1.74-15.37,6.48
				c-11.18,12-22.88,23.5-34.51,35.06c-1.23,1.22-4.06,2.6-4.99,2.02C67.56,85.26,65.43,82.61,62.83,80.1z"/>
			<path class="st4" d="M84.99,87.92c2.09,2.19,4.46,4.77,6.93,7.25c10.42,10.47,20.88,20.91,31.32,31.37
				c0.67,0.67,1.35,1.33,2.02,2.01c1.84,1.9,3.97,2.64,6.01,0.61c2.04-2.02,1.39-4.16-0.51-6.05c-2.89-2.86-5.75-5.75-8.63-8.62
				c-9.69-9.67-19.39-19.33-29.08-29.01c-1.03-1.03-2.01-2.12-2.97-3.14c2.25-2.26,4.32-4.34,6.58-6.6
				c0.19,0.13,0.69,0.34,1.04,0.69c13.71,13.7,27.41,27.42,41.11,41.12c4.01,4.01,5.29,8.86,3.68,14.2
				c-1.63,5.41-5.51,9.06-11.11,9.24c-3.35,0.11-7.73-0.75-10-2.92c-14.79-14.12-29.12-28.72-43.79-43.35
				C80.07,92.44,82.31,90.39,84.99,87.92z"/>
		</g>
	</g>
</g>
</svg>
