<?xml version="1.0" encoding="utf-8"?>
<!-- Generator: Adobe Illustrator 24.3.0, SVG Export Plug-In . SVG Version: 6.00 Build 0)  -->
<svg version="1.1" id="Layer_1" xmlns="http://www.w3.org/2000/svg" xmlns:xlink="http://www.w3.org/1999/xlink" x="0px" y="0px"
	 viewBox="0 0 152 152" style="enable-background:new 0 0 152 152;" xml:space="preserve">
<style type="text/css">
	.st0{fill:#7E7E7E;}
	.st1{fill:#9D9E9E;}
</style>
<g>
	<path class="st0" d="M-161.5,184.4c5.5-0.3,8.8-6.6,5.8-11.3c-1.6-2.6-0.4-4,1.3-5.7c1.8-1.8,3.3-2.1,5.5-0.5
		c3,2.4,9.8-0.2,10.8-3.9c1-3.5,4.7-5.2,7.9-3.4c0.7,0.4,1.2,1.5,1.3,2.3c0.7,4.6,6.6,7.8,10.6,5.5c2.5-1.4,4.1-1.3,6,0.8
		c1.8,2,2.2,3.8,0.6,6.2c-1.9,2.8,1.3,9.4,4.6,10.1c3,0.6,4.2,2.2,3.9,5.2c-0.3,2.6-1,4.4-4.3,4.3c-1-0.1-2.3,1.1-3,2.1
		c-0.9,1.4-1.7,3.1-1.9,4.8c-0.1,1.4,0.6,3.1,1.4,4.3c1.5,2.1,0.6,3.5-0.9,4.8c-1.5,1.3-2.7,3.8-5.5,2c-4.7-3.1-10.6-0.6-12.1,4.9
		c-0.2,0.6-0.3,1.2-0.5,1.8c-2.7,0-5.4,0-8.1,0c-0.3-1.9,0-4.5-1.2-5.5c-1.8-1.6-4.5-2.5-7-3.1c-1.1-0.3-2.6,0.9-3.8,1.6
		c-2.6,1.6-4-0.3-5.6-1.8c-1.4-1.4-1.9-2.6-0.7-4.5c3.3-4.9,0.4-11-5.4-11.9C-161.5,190.3-161.5,187.3-161.5,184.4z M-122,189
		c0-6.2-5.3-11.4-11.6-11.4c-6.2,0-11.3,5.1-11.3,11.2c0,6.2,5.4,11.7,11.5,11.6C-127.4,200.3-122,194.9-122,189z"/>
</g>
<g id="w2lkRm_1_">
	<g>
		<path class="st0" d="M318-272c1.3,0.5,2.7,1.1,4.9,1.9c-6.8,7-13.3,13.6-19.7,20.4c-4.9,5.2-4.9,8.2-0.2,13.2
			c6.2,6.8,12.5,13.5,18.8,20.1c4.6,4.8,7.4,4.8,12-0.1c6.2-6.5,12.3-13.1,18.4-19.7c0.1-0.1,0.3,0,1.6,0c0,4.1,0.5,8.3-0.1,12.3
			c-1.9,12.3-6.7,23.2-14.4,32.6c-8.7,10.7-19.4,13.7-31.7,7.8c-5.6-2.7-9.6-3.4-13.1,3.2c-7.1-7.7-14.7-10.9-23.9-4
			c-3.5-4.1-7-8.2-11.3-13.2c5.5-5.2,10.7-10.2,15.2-14.6c-2.2-6.6-4.3-11.9-5.7-17.4c-2.6-10.4,0.5-19.2,8-26
			c8.7-7.9,18.8-12.9,30-15.5c1.2-0.3,2.4-0.7,3.6-1.1C312.9-272,315.5-272,318-272z"/>
		<path class="st0" d="M260.7-202.9c4.3,4.6,8.1,8.7,11.9,12.7c-4.9,10.5-4.6,13.2,3.9,25.9c-3.8,3.6-7.8,7.4-11.9,11
			c-2.9,2.5-3.5,5.2-2.9,9.1c2.9,17.6-5.5,34.3-20.4,41.3c-14.9,7-32.6,2.7-42.6-11c-9.3-12.7-10.6-26.9-3.9-41.4
			c6.8-14.6,18.6-21.3,33.7-20.5c5.2,0.3,8.8-0.8,12.2-5C247-188.3,253.9-195.4,260.7-202.9z M223.7-118.4
			c4.9-1.6,12.2-1.7,15.9-5.6c3.7-3.9,6.4-12.8,4.7-17.5c-2.3-6.3-8.4-12.9-14.3-15.3c-4.4-1.8-12.7,1.1-16.4,5
			c-3.7,3.9-3.9,11.6-5.2,17.8C207.7-131.3,220.3-118.3,223.7-118.4z"/>
	</g>
</g>
<path class="st1" d="M296.7,30.6c-4.2-4.2-8-8.2-14.5-4.7c-4.5-7.8-8.8-15.2-13.1-22.6c2.3-2.5,4.5-5,6.7-7.5c0.3,0,0.6,0,0.9,0
	c7.3,4.3,14.6,8.7,21.9,13c0,0.3,0.2,0.6,0.1,0.9c-1.6,5.1-0.2,8.8,3.8,12.7C318,37.4,333.3,53,349,68.7c1.1-1,2.1-1.9,3-2.9
	c2.1-2.1,4.5-3.3,7.3-1.6c2.7,1.7,5.1,3.7,4.5,7.5c-0.5,3.9,4,9.4,7.8,9.2c4.1-0.2,7.1,1.5,9.8,4.2c9.7,9.8,19.4,19.6,29.1,29.4
	c5.9,6,6,15,0.5,21.2c-6.1,7-15.7,8.8-22,3c-11.4-10.4-22.2-21.6-33.1-32.6c-1-1-1.9-2.8-1.8-4.2c0.4-5.3-3.2-8.1-6.5-11.2
	c-5.1,1.7-8,0.9-10.7-3.6c-3.3-5.5,2.1-7.7,4.7-11.2c-0.8-0.9-1.6-1.9-2.4-2.7 M367.4,91.2c-0.9,0.9-2.3,1.6-2.4,2.4
	c-0.1,1.2,0.5,2.8,1.3,3.6c10.4,10.6,21,21.1,31.5,31.6c1.5,1.5,3.4,3,4.9,0.7c0.6-1,0.1-3.6-0.9-4.6c-10.4-10.7-21-21.1-31.5-31.6
	C369.6,92.5,368.6,92,367.4,91.2z"/>
<path class="st1" d="M294.1,107.9L294.1,107.9c-2.9-3-2.9-7.9,0.1-10.8l65.9-64.5c3-2.9,7.9-2.9,10.8,0.1l0,0
	c2.9,3,2.9,7.9-0.1,10.8L304.9,108C301.9,110.9,297,110.9,294.1,107.9z"/>
<path class="st1" d="M300.3,101.8c-8.2-8.4-21.6-8.5-30-0.3c-8.4,8.2-8.5,21.6-0.3,30c8.2,8.4,21.6,8.5,30,0.3
	C308.4,123.5,308.5,110.1,300.3,101.8z M283.6,124.8l-6.6-4.6l0.7-8.1l7.3-3.4l6.6,4.6l-0.7,8.1L283.6,124.8z"/>
<path class="st0" d="M-13.2-103.3l35.6-36c8.4,4.2,19.2,2.5,26.6-5c6.2-6.3,16-18.6,6.3-22.6l-15.4,15.6c-1.7,1.8-4.5,1.9-6.2,0.2
	l-8.7-8.6c-1.6-1.6-1.6-4.4,0.2-6.2l15.4-15.6c-5.6-6.4-16.3,0.3-22.5,6.5c-7.4,7.5-9,18.3-4.7,26.6l-35.6,36
	c-6.7-2.6-15.1-0.8-21,5.2c-7.7,7.8-8.3,19.6-1.4,26.5s18.8,6.1,26.5-1.7C-12.2-88.2-10.5-96.6-13.2-103.3z M-32-84.3l-8.2-5.3
	l1.3-10.4l9.6-5.1l8.2,5.3l-1.3,10.4L-32-84.3z"/>
<path class="st1" d="M407.4,14.3L393.1,28c-2.6,2.5-6.3,3-8.2,1l-10.3-10.5c-1.9-2-1.4-5.7,1.2-8.2L390-3.5
	c-6.4-7.9-21.7,2.1-30.9,11.2c-13.4,13.1-16.1,32.1-6,42.4s29.1,8,42.6-5.1C404.8,36,419.7,18.5,407.4,14.3z M379.5,34.6l-12.9-12.7
	l3.1-2.5l12.6,12.7L379.5,34.6z"/>
<g id="nJfsIe_1_">
	<g>
		<path class="st1" d="M11,139.7c-2.1-0.7-4-1.6-6-2c-3.9-0.8-4.5-3.2-4.5-6.4c0.1-33.8,0-67.5,0.1-101.3c0-2.3,1.2-4.9,2.7-6.7
			C9.6,16.1,16.1,9.1,22.7,2.3c1.2-1.3,3.5-2.2,5.4-2.2C56.5,0,85,0,113.5,0c4.6,0,6.9,2.4,7.5,7.6c0.1,1.1,0,2.3,0,4
			c2.9,0.2,5.7,0.4,8.4,0.5c4.6,0.1,5.5,0.9,5.5,5.3c0,8,0,15.9,0,23.9c0,34.3,0,68.7,0,103c0,6.7-1,7.6-8,7.6
			c-34.9,0-69.7-0.1-104.6,0.1c-8.3,0-12.3-2.4-11.1-10.1C11.3,141.1,11.1,140.3,11,139.7z M111.3,129.8c0-41,0-81.5,0-122.2
			c-27.1,0-54.1,0-81.4,0c-0.4,6.7-0.8,13.3-1.1,20c-0.2,3.7-1.5,4.9-5.5,4.7c-1.3-0.1-2.7-0.3-4-0.4c-3.5-0.2-7-0.5-10.4-0.7
			c0,33.2,0,65.8,0,98.5C43.1,129.8,77.1,129.8,111.3,129.8z M126.8,143.3c0-41.6,0-82.8,0-123.9c-2.1,0-3.8,0-5.8,0
			c0,1.5,0,2.8,0,4.1c0,21,0,41.9,0,62.9c0,15.6,0,31.1,0,46.7c0,4.4-1.4,5.8-6.1,6c-1.1,0-2.2,0-3.3,0c-29.3,0-58.6,0-88,0
			c-1.4,0-2.9,0-4.3,0c0,1.7,0,2.9,0,4.3C55.3,143.3,90.9,143.3,126.8,143.3z M21.1,24.9c0.2-3.7,0.4-6.9,0.6-10.8
			c-3.2,3.5-6,6.5-9.3,10.2C15.8,24.6,18.2,24.7,21.1,24.9z"/>
		<path class="st1" d="M61.1,34.2c11.1,0,22.2-0.1,33.3,0.1c1.3,0,2.6,1,3.9,1.5c-1.4,0.6-2.7,1.8-4.1,1.8c-22,0.1-44.1,0.1-66.1,0
			c-1.5,0-2.9-1-4.4-1.6c1.4-0.6,2.8-1.6,4.2-1.7C38.9,34.2,50,34.2,61.1,34.2z"/>
		<path class="st1" d="M17.6,64.5c1-0.3,2-1,3-1c26.7-0.1,53.5-0.1,80.2,0c0.9,0,1.9,0.9,2.8,1.4c-0.9,0.4-1.8,1.1-2.7,1.1
			c-26.9,0.1-53.7,0.1-80.6,0c-0.8,0-1.6-0.3-2.4-0.5C17.8,65.2,17.7,64.9,17.6,64.5z"/>
		<path class="st1" d="M17.7,115.7c1-0.4,2-1,3-1c26.7-0.1,53.5-0.1,80.2,0c1,0,1.9,0.4,2.9,0.6c0,0.4,0,0.7,0.1,1.1
			c-1.1,0.3-2.2,0.8-3.4,0.8c-26.5,0-53,0-79.4,0c-1,0-2-0.2-3.1-0.4C17.8,116.4,17.8,116.1,17.7,115.7z"/>
		<path class="st1" d="M103.7,97.4c-1.1,0.2-2.2,0.5-3.3,0.5c-26.5,0-52.9,0-79.4,0c-1,0-2-0.7-3-1.1c1-0.4,2-1.2,2.9-1.2
			c26.5-0.1,52.9-0.1,79.4,0c1.1,0,2.2,0.3,3.3,0.5C103.7,96.5,103.7,97,103.7,97.4z"/>
		<path class="st1" d="M104.6,121.8c-3.3,2.2-83.7,2.3-87.7,0.4c1.8-0.5,2.9-1.1,4.1-1.1c26.6,0,53.1,0,79.7,0
			C101.7,121.1,102.7,121.5,104.6,121.8z"/>
		<path class="st1" d="M17.7,45.2c1.2-0.2,2.4-0.7,3.6-0.7c26.4,0,52.7,0,79.1,0c1,0,2.1,0.9,3.1,1.4c-1,0.4-2,1.2-3,1.2
			c-26.5,0.1-52.9,0.1-79.4,0c-1.1,0-2.3-0.6-3.4-0.9C17.7,45.9,17.7,45.5,17.7,45.2z"/>
		<path class="st1" d="M17.6,90c1.2-0.3,2.5-1,3.7-1c26.2-0.1,52.5-0.1,78.7,0c1.1,0,2.3,1,3.4,1.6c-1.1,0.4-2.3,1.1-3.4,1.1
			c-26.2,0.1-52.5,0.1-78.7,0c-1.2,0-2.4-0.4-3.6-0.6C17.7,90.8,17.7,90.4,17.6,90z"/>
		<path class="st1" d="M103.5,110.3c-28.5,0-57,0-85.5,0c-0.1-0.3-0.2-0.7-0.2-1c1-0.3,1.9-0.9,2.9-0.9c26.7-0.1,53.4,0,80.2,0
			c1,0,2,0.5,3,0.8C103.7,109.5,103.6,109.9,103.5,110.3z"/>
		<path class="st1" d="M103.9,52c-3.1,1.7-83.7,1.6-85.9,0C20.2,50.4,100.8,50.3,103.9,52z"/>
		<path class="st1" d="M103.4,59.3c-28.4,0-56.9,0-85.3,0c-0.1-0.4-0.2-0.8-0.3-1.2c1.2-0.3,2.5-0.9,3.7-0.9c10.2-0.1,20.4,0,30.6,0
			c15.9,0,31.8,0,47.6,0c1.3,0,2.6,0.4,4,0.6C103.6,58.3,103.5,58.8,103.4,59.3z"/>
		<path class="st1" d="M17.2,71.8c2.6-2,81.5-2.6,86.6-0.2c-1.2,0.3-2.5,0.8-3.7,0.8c-13.6,0.1-27.1,0-40.7,0c-12.6,0-25.1,0-37.7,0
			C20.4,72.4,19.1,72.1,17.2,71.8z"/>
		<path class="st1" d="M103.6,78.1c-28.6,0.5-57.2,0.7-85.8,0C20.2,76,100.8,75.8,103.6,78.1z"/>
		<path class="st1" d="M17.9,83.8c2.6-1.6,83.3-1.6,85.8,0.1C101.3,85.8,20.2,85.7,17.9,83.8z"/>
		<path class="st1" d="M103.5,103.9c-28.5,0-57,0-85.5,0c-0.1-0.4-0.1-0.7-0.2-1.1c1.1-0.3,2.2-0.8,3.3-0.8c26.6,0,53.2,0,79.8,0
			c1,0,2,0.6,3,0.9C103.7,103.3,103.6,103.6,103.5,103.9z"/>
	</g>
</g>
<g>
	<path class="st1" d="M46.1,15.2h5v15h-5V15.2z"/>
	<path class="st1" d="M54.3,19.3h4.1v1.8c0.6-0.7,1.2-1.2,1.9-1.6c0.6-0.3,1.4-0.5,2.3-0.5c1.2,0,2.2,0.3,2.9,1c0.7,0.7,1,1.7,1,3.2
		v6.9h-4.5v-6c0-0.7-0.1-1.2-0.4-1.4c-0.3-0.3-0.6-0.4-1.1-0.4c-0.5,0-1,0.2-1.3,0.6c-0.3,0.4-0.5,1.1-0.5,2.1v5.2h-4.5V19.3z"/>
	<path class="st1" d="M74.2,19.3h2.1v3.1h-2.1v7.8h-4.5v-7.8h-1.7v-3.1h1.7v-0.5c0-0.4,0.1-0.9,0.2-1.5c0.1-0.5,0.3-1,0.6-1.3
		c0.3-0.3,0.7-0.6,1.2-0.8c0.5-0.2,1.2-0.3,2.2-0.3c0.8,0,1.9,0.1,3.4,0.3l-0.5,2.5c-0.5-0.1-1-0.1-1.3-0.1c-0.4,0-0.7,0.1-0.9,0.2
		c-0.2,0.1-0.3,0.3-0.4,0.6C74.3,18.5,74.2,18.8,74.2,19.3z"/>
	<path class="st1" d="M77.1,24.8c0-1.7,0.6-3,1.8-4.1c1.2-1.1,2.8-1.6,4.9-1.6c2.3,0,4.1,0.6,5.3,1.9c1,1,1.4,2.3,1.4,3.8
		c0,1.7-0.6,3-1.8,4.1c-1.2,1.1-2.8,1.6-4.9,1.6c-1.9,0-3.4-0.4-4.5-1.3C77.8,28,77.1,26.5,77.1,24.8z M81.5,24.8
		c0,1,0.2,1.7,0.6,2.1c0.4,0.5,0.9,0.7,1.6,0.7c0.6,0,1.2-0.2,1.6-0.7c0.4-0.5,0.6-1.2,0.6-2.2c0-0.9-0.2-1.6-0.6-2.1
		c-0.4-0.5-0.9-0.7-1.5-0.7c-0.6,0-1.2,0.2-1.6,0.7C81.8,23.1,81.5,23.8,81.5,24.8z"/>
</g>
</svg>
