<?xml version="1.0" encoding="utf-8"?>
<!-- Generator: Adobe Illustrator 24.0.1, SVG Export Plug-In . SVG Version: 6.00 Build 0)  -->
<svg version="1.1" id="Layer_1" xmlns="http://www.w3.org/2000/svg" xmlns:xlink="http://www.w3.org/1999/xlink" x="0px" y="0px"
	 viewBox="0 0 143.77 152.63" style="enable-background:new 0 0 143.77 152.63;" xml:space="preserve">
<style type="text/css">
	.st0{opacity:0.08;}
	.st1{fill:#7E7E7E;}
	.st2{fill:#9D9E9E;}
</style>
<g id="Layer_1_1_">
	<g id="VNr6mR_1_" class="st0">
		<g>
			<path class="st1" d="M143.77,25.26c-0.72,5.01-1.36,10.04-2.18,15.03c-2.06,12.58-9.68,21.52-19.22,29.23
				c-6.8,5.49-13.47,11.15-20.28,16.64c-1.76,1.42-2.69,2.63-2.3,5.21c1.33,8.67-0.59,16.3-7.43,22.55
				c-4.89,4.47-9.1,9.68-13.73,14.44c-3.23,3.32-4.94,2.84-5.96-1.65c-1.56-6.88-2.94-13.8-4.41-20.74
				c-3.52-0.54-6.95,3.38-10.11-0.72c-4.95,8.36-9.66,16.31-14.37,24.26c-0.27-0.06-0.54-0.11-0.8-0.17
				c-0.34-3.28-0.68-6.56-1.11-10.77c-13.93,11.64-27.33,22.85-40.74,34.05c-0.12-0.11-0.24-0.22-0.36-0.32
				c6.68-11.38,13.36-22.77,20.44-34.82c-7.47,1.51-14.14,2.86-20.81,4.2c-0.14-0.2-0.27-0.39-0.41-0.59
				c9.01-7.55,18.03-15.11,27.85-23.34c-4.12,0-7.23,0-10.34,0c-0.06-0.26-0.13-0.52-0.19-0.78c6.75-3.86,13.51-7.71,19.43-11.09
				c0.19-3.77,0.35-6.93,0.53-10.59c-5.26-1.11-10.82-2.28-16.39-3.47c-1.84-0.39-3.69-0.72-5.48-1.26
				c-2.81-0.84-3.33-2.53-1.3-4.46c6.65-6.34,13.38-12.61,20.1-18.87c3.72-3.46,8.42-4.08,13.06-3.46c5.99,0.81,9.86-1.09,13.47-6.1
				c5.36-7.43,11.87-14.01,17.68-21.13c7.7-9.43,18-13.58,29.63-15.24c3.27-0.47,6.54-0.87,9.81-1.3c3.99,0,7.98,0,11.97,0
				c2.96,1.24,6.13,2.14,8.83,3.8c3.61,2.23,4.27,6.33,5.13,10.16C143.77,17.73,143.77,21.49,143.77,25.26z M70.95,98.65
				c18.42-14.44,36.99-28.05,53.62-44.01c1.42-1.36,2.75-2.96,3.65-4.69c5.92-11.39,6.64-23.68,5.79-36.16
				c-0.18-2.67-1.77-4.4-4.86-4.27c-5.74,0.25-11.52,0.05-17.24,0.58c-10.79,1-20.33,4.66-27.42,13.52
				C71.71,39.6,58.72,55.41,45.84,71.31c-0.31,0.38-0.43,0.92-0.66,1.44C56.39,78.69,64.98,87.02,70.95,98.65z M25.78,108.33
				c0.09,0.14,0.18,0.29,0.28,0.43c4.14-1.48,8.28-2.97,12.93-4.63c-1.15,3.5-2.08,6.33-3.25,9.9c4.11-2.65,7.48-4.82,10.98-7.07
				c0.12,1.03,0.19,1.71,0.32,2.85c3.42-3.49,6.51-6.64,9.67-9.87c-2.63-4.76-6.12-8.7-10.65-11.62c-0.85-0.55-2.37-0.85-3.22-0.47
				c-3,1.33-5.85,3.01-9.14,4.77c1.85,0.77,3.22,1.34,4.9,2.04C34.19,99.35,29.99,103.84,25.78,108.33z M66.79,100.84
				c-5.55-10.9-13.28-18.9-24.43-24.11c-0.43,1.64-0.77,2.94-1.14,4.37c10.52,3.83,17.46,10.92,21.25,21.19
				C64,101.77,65.2,101.37,66.79,100.84z"/>
			<path class="st1" d="M103.42,59.4c-10.72,0.04-19.5-8.64-19.47-19.25s8.8-19.41,19.41-19.47c10.57-0.06,19.38,8.73,19.44,19.4
				C122.86,50.74,114.22,59.36,103.42,59.4z M88.76,40.1c-0.02,8.4,6.57,15.09,14.78,15c8.17-0.09,14.67-6.63,14.76-14.85
				c0.08-8.25-6.66-14.99-14.95-14.96C95.11,25.34,88.78,31.76,88.76,40.1z"/>
		</g>
	</g>
</g>
<g id="Layer_2_1_">
	<g id="VNr6mR_2_">
		<g>
			<path class="st2" d="M143.77,25.26c-0.72,5.01-1.36,10.04-2.18,15.03c-2.06,12.58-9.68,21.52-19.22,29.23
				c-6.8,5.49-13.47,11.15-20.28,16.64c-1.76,1.42-2.69,2.63-2.3,5.21c1.33,8.67-0.59,16.3-7.43,22.55
				c-4.89,4.47-9.1,9.68-13.73,14.44c-3.23,3.32-4.94,2.84-5.96-1.65c-1.56-6.88-2.94-13.8-4.41-20.74
				c-3.52-0.54-6.95,3.38-10.11-0.72c-4.95,8.36-9.66,16.31-14.37,24.26c-0.27-0.06-0.54-0.11-0.8-0.17
				c-0.34-3.28-0.68-6.56-1.11-10.77c-13.93,11.64-27.33,22.85-40.74,34.05c-0.12-0.11-0.24-0.22-0.36-0.32
				c6.68-11.38,13.36-22.77,20.44-34.82c-7.47,1.51-14.14,2.86-20.81,4.2c-0.14-0.2-0.27-0.39-0.41-0.59
				c9.01-7.55,18.03-15.11,27.85-23.34c-4.12,0-7.23,0-10.34,0c-0.06-0.26-0.13-0.52-0.19-0.78c6.75-3.86,13.51-7.71,19.43-11.09
				c0.19-3.77,0.35-6.93,0.53-10.59c-5.26-1.11-10.82-2.28-16.39-3.47c-1.84-0.39-3.69-0.72-5.48-1.26
				c-2.81-0.84-3.33-2.53-1.3-4.46c6.65-6.34,13.38-12.61,20.1-18.87c3.72-3.46,8.42-4.08,13.06-3.46c5.99,0.81,9.86-1.09,13.47-6.1
				c5.36-7.43,11.87-14.01,17.68-21.13c7.7-9.43,18-13.58,29.63-15.24c3.27-0.47,6.54-0.87,9.81-1.3c3.99,0,7.98,0,11.97,0
				c2.96,1.24,6.13,2.14,8.83,3.8c3.61,2.23,4.27,6.33,5.13,10.16C143.77,17.73,143.77,21.49,143.77,25.26z M70.95,98.65
				c18.42-14.44,36.99-28.05,53.62-44.01c1.42-1.36,2.75-2.96,3.65-4.69c5.92-11.39,6.64-23.68,5.79-36.16
				c-0.18-2.67-1.77-4.4-4.86-4.27c-5.74,0.25-11.52,0.05-17.24,0.58c-10.79,1-20.33,4.66-27.42,13.52
				C71.71,39.6,58.72,55.41,45.84,71.31c-0.31,0.38-0.43,0.92-0.66,1.44C56.39,78.69,64.98,87.02,70.95,98.65z M25.78,108.33
				c0.09,0.14,0.18,0.29,0.28,0.43c4.14-1.48,8.28-2.97,12.93-4.63c-1.15,3.5-2.08,6.33-3.25,9.9c4.11-2.65,7.48-4.82,10.98-7.07
				c0.12,1.03,0.19,1.71,0.32,2.85c3.42-3.49,6.51-6.64,9.67-9.87c-2.63-4.76-6.12-8.7-10.65-11.62c-0.85-0.55-2.37-0.85-3.22-0.47
				c-3,1.33-5.85,3.01-9.14,4.77c1.85,0.77,3.22,1.34,4.9,2.04C34.19,99.35,29.99,103.84,25.78,108.33z M66.79,100.84
				c-5.55-10.9-13.28-18.9-24.43-24.11c-0.43,1.64-0.77,2.94-1.14,4.37c10.52,3.83,17.46,10.92,21.25,21.19
				C64,101.77,65.2,101.37,66.79,100.84z"/>
			<path class="st2" d="M103.42,59.4c-10.72,0.04-19.5-8.64-19.47-19.25s8.8-19.41,19.41-19.47c10.57-0.06,19.38,8.73,19.44,19.4
				C122.86,50.74,114.22,59.36,103.42,59.4z M88.76,40.1c-0.02,8.4,6.57,15.09,14.78,15c8.17-0.09,14.67-6.63,14.76-14.85
				c0.08-8.25-6.66-14.99-14.95-14.96C95.11,25.34,88.78,31.76,88.76,40.1z"/>
		</g>
	</g>
</g>
</svg>
