<?xml version="1.0" encoding="utf-8"?>
<!-- Generator: Adobe Illustrator 24.3.0, SVG Export Plug-In . SVG Version: 6.00 Build 0)  -->
<svg version="1.1" id="Layer_1" xmlns="http://www.w3.org/2000/svg" xmlns:xlink="http://www.w3.org/1999/xlink" x="0px" y="0px"
	 viewBox="0 0 1000 1000" style="enable-background:new 0 0 1000 1000;" xml:space="preserve">
<style type="text/css">
	.st0{display:none;}
	.st1{display:inline;}
	.st2{fill:#FCFAFA;}
	.st3{fill:#A51F28;}
	.st4{opacity:0.24;}
</style>
<g id="Layer_1_1_" class="st0">
	<g class="st1">
		<path class="st2" d="M475,0c16.7,0,33.3,0,50,0c0.7,1.4,2,0.9,3.1,0.9c13.6,0.8,27.2,2.1,40.8,3.9c76,10.4,146.3,36.3,209.5,79.8
			c126,86.6,199.1,206,218.9,357.8c0.9,7.2,0.7,14.5,2.7,21.6c0,24.7,0,49.3,0,74c-1.3,0.7-0.9,2-1,3.1c-1.4,17.3-3.7,34.4-6.9,51.5
			c-19.4,102-65.8,189.9-139.6,262.8C764.8,941.9,658.9,989.5,536,999.2c-1.3,0.3-2.5,0.8-3.8,0.8c-22.4,0-44.9-0.1-67.3-0.1
			c-0.8-1.2-2.1-0.8-3.2-0.9c-19.1-1.6-38.1-3.9-56.9-7.8C268.2,963.1,160.7,891,83,775.3c-50.4-75-76.9-158.5-81.9-248.8
			C1,525.3,1.7,523.8,0,523c0-4,0-8,0-12c0.3-8.7,1-17.3,0-26c0-2.7,0-5.3,0-8c1.9-1.1,1-3,1.1-4.5c2.8-46.3,11.5-91.4,26.6-135.3
			C92.2,149.4,262.8,17.4,461,1.7C465.6,1.3,470.5,2.1,475,0z M500.3,835.7c48.7,0,94.8-9.8,139.5-33.7
			c101.5-54.3,158.7-139.2,167.7-254.1c6.4-81.3-18.7-153.8-70.3-217c-23.5-28.8-51.8-52.2-84.1-70.7c-12.3-7-26.9-4.5-35.9,5.9
			c-8.7,10-9.1,24.7-1.2,35.6c3.9,5.3,9.6,8.1,15,11.4c88,52.6,136.1,159.6,116.7,259.9c-26.9,139.2-158.1,227.9-297,200.9
			c-120.3-23.4-207.8-135.6-200.9-258.1c4.3-75.3,36.4-136.7,94.6-184.6c10.2-8.4,21.3-15.4,32.6-22.2c10.4-6.3,15.1-16,13.5-28
			s-8.6-20-20.3-23.6c-9.7-3-18.2,0.3-26.5,5.3C234.2,328,176.4,452.1,196.8,578.2C220.7,725.7,350.4,835.7,500.3,835.7z
			 M532.1,284.6c0-29.3,0-58.6,0-87.9c0-2.6-0.1-5.4-0.7-7.9c-3.9-17-18.8-26-39-23.6c-15.5,1.8-26.8,14.7-26.8,30.9
			c-0.1,59.1,0,118.2,0,177.4c0,2.8,0.3,5.7,1,8.4c3.8,15,16.2,23.2,34.2,23c18.4-0.3,31.3-13.3,31.3-31.7
			C532.1,343.6,532.1,314.1,532.1,284.6z"/>
	</g>
</g>
<g id="Layer_2_1_" class="st0">
	<g id="yc79AF.tif" class="st1">
		<g>
			<path d="M499.8,562.2c-137.7,0-249.7-112-249.8-249.8c0-138.2,112.2-250.2,250.5-250.1c137.6,0.2,249.4,112.4,249.3,250.3
				C749.7,450.4,637.6,562.3,499.8,562.2z"/>
			<path d="M507.4,937.8c-84.6-1.9-161-8.2-234.3-34c-20.6-7.3-40.2-18.2-58.7-30.1c-19.2-12.3-28.1-31.3-27.1-55
				c1.4-36.5,3.6-72.8,14-108c11.2-38,32.7-69.5,62.9-94.4c26.3-21.7,53.9-41.9,81.3-62.3c2.2-1.7,7.9-0.9,10.7,0.8
				c44.6,25.8,92.6,39.2,144.2,39c50.9-0.1,98.4-13,142.1-39c5.6-3.3,9.2-3.4,14.4,0.7c24.3,19,49.4,37.2,73.6,56.4
				c46.9,37.2,71.2,86.9,77.6,145.8c2.2,20.7,2.7,41.5,4.1,62.3c1.6,22.1-7.2,40.2-24.9,52.1c-17.3,11.7-36,22.3-55.5,29.9
				c-48.8,19.1-100.4,26.7-152.3,31.4C553.2,935.8,526.5,936.7,507.4,937.8z"/>
		</g>
	</g>
</g>
<g id="Layer_3">
	<g id="Dulr9D_1_">
		<g>
			<path class="st3" d="M1435.9,428c-67.7-67.4-130.6-130.1-193.4-192.8c-25.5-25.4-25.4-37.2,0.2-62.8
				c38.2-38.3,76.4-76.5,114.7-114.6c23.6-23.5,36.4-23.6,59.7-0.3c63.1,63.3,126.3,126.8,191.6,192.3
				c47.8-48.4,94.5-95.6,141.2-142.8c17.7-17.9,35.3-35.9,53.4-53.4c18.8-18.2,33.1-18.2,51.7,0.2c41.6,41.1,83,82.5,124.1,124.1
				c18.9,19.1,18.5,33.6-1.2,53.3c-59,59.3-118.2,118.4-177.5,177.3c-5.1,5.1-12.3,8.1-19.9,13c67.7,67.5,130.6,130.1,193.4,192.8
				c25.5,25.4,25.4,37.2-0.2,62.8c-38.2,38.3-76.4,76.5-114.7,114.6c-23.6,23.6-36.2,23.6-59.6,0.2
				c-63.2-63.2-126.3-126.6-191.7-192.2c-47.8,48.4-94.5,95.6-141.2,142.8c-17.7,17.9-35.3,35.9-53.4,53.4
				c-18.8,18.2-33.1,18.2-51.7-0.2c-41.6-41.1-83-82.5-124.1-124.1c-18.9-19.1-18.5-33.6,1.2-53.3c59-59.3,118.2-118.4,177.5-177.3
				C1421.2,435.9,1428.3,432.9,1435.9,428z"/>
		</g>
	</g>
</g>
<g id="tYefG1_1_" class="st4">
	<g>
		<path d="M905,999.3c-2.4,0.2-4.8,0.6-7.2,0.6c-199.6,0-399.2,0.2-598.8-0.2c-40-0.1-71.3-19.5-96.3-49.4
			c-25.3-30.2-37.5-65.9-41.4-104.7c-1.1-11.4-1.4-22.9-1.4-34.3c-0.1-160.8-0.1-321.6-0.1-482.4c0-2.7,0-5.4,0-9c3,0,5.6,0,8.2,0
			c162.9,0,325.9,0,488.8,0c27.6,0,49.7-14.3,59-38.2c14.3-36.7-9.6-76.3-49.4-81.3c-5.5-0.7-8.8-3-11.6-7.1
			c-10.4-15.4-14.8-32.6-14.8-50.8c0.1-43.9,23.1-98.8,87.3-115.2c3.9-1,6.5-0.4,9.5,2.1c29.8,25.1,47.4,57.6,56.5,94.9
			c4.8,19.5,6.5,39.4,6.5,59.4c0,213.1,0,426.2-0.1,639.3c0,32.9,4.5,64.8,18.9,94.7c17.8,36.7,45.1,63.5,83.2,78.9
			c0.9,0.4,1.8,0.9,2.8,1.3C904.9,998.3,904.9,998.8,905,999.3z M540,580c19.4,0,38.7,0,58.1,0c20.4,0,40.8,0.2,61.2-0.1
			c16-0.2,25.5-15.9,18.2-29.4c-4.4-8-11.6-10.6-20.4-10.6c-78.1,0.1-156.2,0-234.3,0.1c-1.7,0-3.4-0.1-5,0.2
			c-8.1,1.2-13.9,5.5-16.6,13.3c-4.8,13.4,5,26.4,20.1,26.5C460.9,580.1,500.5,580,540,580z M539.3,700c17.9,0,35.8,0,53.7,0
			c21.7,0,43.3,0.1,65,0c12.9,0,21.8-8.2,21.9-19.8c0.1-11.8-8.9-20-22.2-20.2c-1,0-2.1,0-3.1,0c-76.4,0-152.8,0-229.3,0
			c-2.3,0-4.6-0.1-6.9,0.1c-8.4,0.9-14.4,5.2-17.3,13.3c-4.9,13.7,5,26.5,20.6,26.6C461,700,500.2,700,539.3,700z M539.8,460
			c30.2,0,60.4,0,90.6,0c10,0,20,0.2,30-0.1c11.1-0.4,19.4-8.9,19.5-19.6c0.2-10.9-8.2-19.6-19.6-20.2c-1.7-0.1-3.3-0.1-5-0.1
			c-77,0-154.1,0-231.1,0c-2.1,0-4.2-0.1-6.2,0.2c-8.1,1.1-13.9,5.4-16.7,13.1c-5,13.6,4.9,26.6,20.5,26.7
			C461.1,460,500.5,460,539.8,460z M320,580c6.4,0,12.9,0.1,19.3,0c11.9-0.3,20.5-8.7,20.6-19.8s-8.5-19.8-20.3-20
			c-13.1-0.2-26.2-0.2-39.3,0c-11.8,0.2-20.4,9-20.3,20.1c0.1,10.9,8.6,19.4,20,19.7C306.7,580.1,313.3,579.9,320,580z M320,660
			c-6.7,0-13.3-0.2-20,0c-11.4,0.4-19.9,8.9-20,19.8c-0.1,10.9,8.3,19.8,19.7,20c13.5,0.3,27,0.3,40.5,0c11.4-0.3,19.8-9.1,19.7-20
			c-0.1-10.9-8.5-19.4-20-19.8C333.3,659.8,326.6,660,320,660z M319.9,460c6.4,0,12.9,0.1,19.3,0c11.9-0.3,20.5-8.7,20.6-19.8
			c0.1-11.1-8.5-19.9-20.3-20.1c-13.1-0.2-26.2-0.2-39.3,0c-11.8,0.2-20.4,9-20.3,20.1s8.7,19.5,20.6,19.8
			C307.1,460.1,313.5,460,319.9,460z"/>
		<path d="M686,4.4c-16.9,4.8-30.7,14.5-42.5,27c-43,45.4-55.5,115.7-30.2,169.4c5.8,12.2,13,23.6,24.4,31c5.9,3.8,13.2,7.2,20,7.6
			c15,0.8,22.6,11.5,22.2,21.3c-0.5,12.1-9.5,19.3-24.4,19.3c-177.1,0-354.2,0-531.3,0c-11,0-22.2,0.6-33.1-0.7
			c-27.8-3.4-47.8-19.7-62.9-42C4.9,203-2.5,164.5,0.7,123.7c2.3-28.9,10.5-56.1,27-80.2C43.1,21.1,62.8,4.6,90.8,0.6
			C94.7,0.1,98.7,0,102.7,0C288.1,0,473.5,0,659,0.1c8.9,0,17.9,1.4,26.8,2.1C685.9,2.9,685.9,3.7,686,4.4z"/>
		<path d="M840.4,720.8c23.6,0,46.8-1.6,69.7,0.4c27.6,2.5,47.1,20,62,42.2c22.8,33.8,30.2,71.8,27.2,111.9
			c-2.3,31.8-12,61.1-31.1,87c-3.8,5.2-7.8,7.1-14.5,6.7c-25.5-1.6-45.8-13.8-64.5-29.8c-31.1-26.6-47.3-60.7-48.7-101
			c-1.3-38.5-0.4-77.1-0.5-115.6C840.1,722,840.3,721.4,840.4,720.8z"/>
	</g>
</g>
</svg>
