<?xml version="1.0" standalone="no"?>
<!DOCTYPE svg PUBLIC "-//W3C//DTD SVG 20010904//EN"
 "http://www.w3.org/TR/2001/REC-SVG-20010904/DTD/svg10.dtd">
<svg version="1.0" xmlns="http://www.w3.org/2000/svg"
 width="1280.000000pt" height="634.000000pt" viewBox="0 0 1280.000000 634.000000"
 preserveAspectRatio="xMidYMid meet">

<g transform="translate(0.000000,634.000000) scale(0.100000,-0.100000)"
fill="#000000" stroke="none">
<path d="M0 3170 l0 -3170 3233 0 3232 0 3170 3170 3170 3170 -6403 0 -6402 0
0 -3170z m1936 2040 c330 -27 663 -100 964 -212 138 -51 280 -113 280 -121 0
-11 -441 -752 -448 -755 -5 -1 -62 21 -128 49 -170 74 -368 137 -503 160 -163
29 -458 37 -561 15 -158 -33 -259 -109 -280 -210 -18 -91 15 -153 123 -230
129 -91 312 -170 662 -286 235 -78 406 -145 532 -209 205 -103 389 -257 492
-411 57 -86 115 -221 127 -300 4 -22 9 -40 13 -40 3 0 218 560 477 1243 l471
1242 540 3 540 2 10 -22 c5 -13 252 -683 549 -1491 l539 -1467 3 1491 2 1490
803 -4 c837 -4 875 -6 1120 -52 420 -79 724 -250 898 -507 142 -208 209 -465
209 -796 0 -184 -18 -317 -61 -457 -147 -474 -534 -774 -1125 -871 -72 -12
-192 -18 -446 -21 l-348 -5 0 -604 0 -604 -927 2 -928 3 -99 286 -98 286 -82
-24 c-163 -47 -289 -65 -507 -70 -268 -7 -441 13 -664 76 -42 12 -72 16 -76
10 -3 -5 -43 -136 -89 -289 l-84 -280 -578 0 -577 0 29 80 c17 44 44 116 60
161 17 44 30 82 30 84 0 2 -40 -27 -90 -64 -217 -163 -486 -270 -790 -312
-153 -22 -523 -17 -700 10 -271 40 -558 123 -802 232 -170 75 -241 117 -233
137 20 54 388 752 396 752 5 0 41 -18 79 -39 186 -106 385 -184 564 -223 138
-30 494 -33 596 -5 185 50 269 135 278 279 5 87 -20 144 -91 200 -96 76 -202
119 -642 262 -290 94 -546 210 -725 329 -168 112 -316 295 -389 480 -82 208
-98 473 -40 687 26 98 125 297 188 381 60 78 157 174 237 234 314 235 806 354
1300 315z"/>
<path d="M7390 3816 l0 -506 198 0 c219 0 342 15 447 55 138 52 233 141 277
261 30 82 37 258 13 340 -38 133 -114 222 -238 279 -126 57 -194 68 -459 73
l-238 4 0 -506z"/>
<path d="M4486 3280 c-109 -342 -196 -623 -194 -625 2 -2 43 -15 91 -29 124
-36 281 -50 412 -37 119 12 275 48 281 66 4 10 -368 1202 -385 1233 -4 7 -94
-261 -205 -608z"/>
<path d="M8245 797 c-114 -38 -217 -125 -263 -224 -24 -52 -27 -69 -27 -168 0
-100 2 -115 28 -167 43 -88 107 -152 195 -195 75 -37 78 -38 191 -38 110 0
120 2 183 32 90 42 160 110 201 192 30 62 32 72 32 176 0 104 -2 114 -32 176
-41 82 -111 150 -201 192 -59 28 -79 32 -167 34 -63 2 -115 -2 -140 -10z m258
-80 c145 -66 223 -233 184 -393 -78 -316 -473 -358 -610 -65 -61 130 -35 285
66 389 98 101 233 127 360 69z"/>
<path d="M8220 406 l0 -236 35 0 35 0 0 100 0 100 43 0 42 0 60 -100 c59 -98
61 -100 97 -100 l37 0 -60 101 c-34 55 -60 102 -58 103 2 2 21 11 43 21 68 32
93 101 61 169 -27 57 -64 70 -207 74 l-128 4 0 -236z m240 159 c60 -31 44
-104 -27 -125 -21 -6 -60 -10 -88 -8 l-50 3 -3 73 -3 72 71 0 c44 0 82 -6 100
-15z"/>
</g>
</svg>
