<?xml version="1.0" encoding="utf-8"?>
<!-- Generator: Adobe Illustrator 24.0.3, SVG Export Plug-In . SVG Version: 6.00 Build 0)  -->
<svg version="1.1" id="Layer_1" xmlns="http://www.w3.org/2000/svg" xmlns:xlink="http://www.w3.org/1999/xlink" x="0px" y="0px"
	 viewBox="0 0 289 322" style="enable-background:new 0 0 289 322;" xml:space="preserve">
<style type="text/css">
	.st0{fill:#8C9399;}
	.st1{fill:#FFFFFF;stroke:#000000;stroke-width:4;stroke-miterlimit:10;}
	.st2{fill:#FFFFFF;}
</style>
<rect class="st0" width="289" height="322"/>
<circle class="st1" cx="140.5" cy="164.5" r="120"/>
<g id="vvJnzc_1_">
	<g>
		<path class="st2" d="M214,249c-48.7,0-97.3,0-146,0c-1.2-1.1-2.2-2.4-3.5-3.4c-39.3-31.4-52.7-84.9-32.7-130.5
			C37.5,102.3,45.9,91.4,55,81c57.7,0,115.3,0,173,0c0.7,0.9,1.4,1.8,2.2,2.7c35,37.6,38.7,92.2,12.9,133.5
			C235.4,229.6,225.3,239.8,214,249z M197.2,184.2c0.4,0,0.8,0,1.1,0c-0.5,0.7-1,1.3-1.5,2c-9.7,12.4-23.2,19.5-37.1,25.9
			c-11.4,5.3-23.1,5.4-35,1c-14.7-5.4-26-15.4-35.8-27.1c-2.1-2.5-2.5-6.5-3.8-9.8c-0.6-1.5-1.9-4-2.6-3.9c-3,0.4-6.3,1-8.8,2.6
			c-1.8,1.1-2.5,4-3.6,6.1c1.9,1,3.8,2.1,5.8,2.8c1,0.4,2.4,0.3,3.4,0c2.9-1.1,4.6,0.3,6.3,2.5c4.1,5.3,8.3,10.3,12.5,15.5
			c0.4,0.5,1.2,1.1,1.2,1.6c-1,5.7,4.1,7.2,7.1,9.7c22.6,18.3,48.7,17.9,70.3-1.5c8.1-7.3,15.1-15.9,22.4-24.1
			c2.2-2.5,4.1-4.6,7.9-3.5c3.6,1,4.5-1.2,4.1-4.2c-0.8-5.3-6.6-8.1-11.4-5.8c-1,0.5-2.3,0.4-4,0.7
			C196.3,177.8,196.7,181,197.2,184.2z M183.7,125.3c-0.5-3-0.7-5.9-1.4-8.6c-1.3-4.5-3.4-8.6-8.8-8.9c-7.2-0.3-11.7,2.5-12.8,9.1
			c-0.8,5.2-0.4,10.8,0.5,16.1c1.1,6.7,7.1,7.2,12.3,7.6c4.8,0.4,6.9-3.5,8.3-7.3C182.7,130.7,183.1,127.9,183.7,125.3z
			 M122.1,124.9c-0.3-2.6-0.5-4.4-0.9-6.2c-1.4-6.9-5.1-11.1-9.7-10.9c-7.8,0.2-12.4,3.8-13.1,11.4c-0.4,4.7,0.3,9.6,1.2,14.2
			c1.3,6.5,7.2,6.7,12.1,7.1c4.6,0.4,7.1-3.2,8.5-7.2C121.2,130.5,121.6,127.4,122.1,124.9z"/>
		<path d="M197.2,184.2c-0.4-3.2-0.9-6.4-1.3-9.7c1.7-0.3,3-0.2,4-0.7c4.8-2.3,10.5,0.5,11.4,5.8c0.5,3-0.5,5.2-4.1,4.2
			c-3.8-1.1-5.7,1-7.9,3.5c-7.3,8.2-14.2,16.8-22.4,24.1c-21.6,19.4-47.7,19.8-70.3,1.5c-3-2.5-8.1-4-7.1-9.7c0.1-0.4-0.7-1-1.2-1.6
			c-4.2-5.2-8.5-10.2-12.5-15.5c-1.7-2.2-3.3-3.5-6.3-2.5c-1,0.4-2.4,0.4-3.4,0c-2-0.7-3.9-1.8-5.8-2.8c1.2-2.1,1.9-5,3.6-6.1
			c2.5-1.6,5.8-2.2,8.8-2.6c0.7-0.1,1.9,2.4,2.6,3.9c1.4,3.2,1.7,7.2,3.8,9.8c9.8,11.8,21.1,21.7,35.8,27.1c11.9,4.4,23.6,4.3,35-1
			c13.8-6.4,27.4-13.5,37.1-25.9c0.5-0.6,1-1.3,1.5-2C197.9,184.2,197.5,184.2,197.2,184.2z"/>
		<path d="M183.7,125.3c-0.6,2.6-1,5.5-1.9,8.1c-1.4,3.8-3.5,7.7-8.3,7.3c-5.2-0.4-11.2-1-12.3-7.6c-0.9-5.3-1.3-10.9-0.5-16.1
			c1.1-6.6,5.6-9.4,12.8-9.1c5.4,0.2,7.5,4.4,8.8,8.9C183,119.4,183.2,122.3,183.7,125.3z"/>
		<path d="M122.1,124.9c-0.5,2.4-0.9,5.6-2,8.5c-1.4,3.9-3.8,7.6-8.5,7.2c-4.9-0.4-10.8-0.6-12.1-7.1c-0.9-4.7-1.6-9.5-1.2-14.2
			c0.7-7.6,5.3-11.1,13.1-11.4c4.6-0.1,8.3,4,9.7,10.9C121.6,120.6,121.7,122.4,122.1,124.9z"/>
	</g>
</g>
</svg>
