<?xml version="1.0" encoding="utf-8"?>
<!-- Generator: Adobe Illustrator 22.1.0, SVG Export Plug-In . SVG Version: 6.00 Build 0)  -->
<svg version="1.1" xmlns="http://www.w3.org/2000/svg" xmlns:xlink="http://www.w3.org/1999/xlink" x="0px" y="0px"
	 viewBox="0 0 151.8 151.8" style="enable-background:new 0 0 151.8 151.8;" xml:space="preserve">
<style type="text/css">
	.st0{display:none;}
	.st1{display:inline;fill:#434141;stroke:#FFFFFF;stroke-width:0.8278;stroke-miterlimit:10;}
	.st2{display:inline;}
	.st3{fill:#FFFFFF;stroke:#000000;stroke-miterlimit:10;}
	.st4{fill:#FFFFFF;}
	.st5{display:inline;fill:#FFFFFF;stroke:#000000;stroke-width:3;stroke-miterlimit:10;}
	.st6{fill:#010101;}
	.st7{fill:#567ECC;}
	.st8{fill:#698FD9;}
</style>
<g id="Layer_1" class="st0">
	<path class="st1" d="M-204.2,151.4h-127c-6.6,0-12-5.4-12-12v-127c0-6.6,5.4-12,12-12h127c6.6,0,12,5.4,12,12v127
		C-192.2,146-197.6,151.4-204.2,151.4z"/>
	<g id="bDhY4X_1_" class="st2">
		<g>
			<path class="st3" d="M-368,153c-2.6,3-5,5.7-7.4,8.5c-7.8-5.1-15.2-9.7-22.4-14.8c-1.3-0.9-1.5-3.5-2.2-5.4
				c-0.6-1.6-0.8-3.7-1.9-4.8c-17.6-18.2-35.2-36.3-52.9-54.4c-0.3,0.5-0.6,1.1-0.9,1.6c-3.1,0.8-6.1,2.2-9.3,2.3
				c-3.8,0.2-6.4-2-7.2-6c-1.8-8.5-3.8-10.2-12.4-11.4c-1.2-0.2-2.5-1.1-3.4-2c-10.2-10.4-20.4-20.8-30.6-31.2
				c-3.8-3.9-4.7-8.6-3-13.7c3.8-11.3,17.1-18.1,27.4-14c2.1,0.8,4.2,2.2,5.8,3.8c9,9.5,17.9,19,26.7,28.7c1.2,1.3,1.9,3.3,2.2,5
				c0.8,5.7,4.5,10.3,10,11.9c9.2,2.7,10.5,8.1,3.2,15.2c9.8,10.3,19.6,20.7,29.5,31c7.2,7.6,14.5,15,21.6,22.7
				c2.3,2.5,4.7,4.1,8.1,3.6c2.6-0.4,4.2,0.6,5.7,2.9C-377.1,139.5-372.4,146.3-368,153z"/>
			<path class="st3" d="M-440.1,73c5.1-4.7,5.2-7.2,0.2-14.3c0.7-0.5,1.5-1,2.3-1.6c5.6-4.8,9-9.8,8.8-18.2
				c-0.2-15.1,14-28.4,30.1-30.5c3.5-0.4,7.1-0.1,11.5-0.1c-2.5,3.2-4.5,5.8-6.6,8.4c-2.2,2.8-4.4,5.6-6.6,8.4
				c-8.8,11.2-8.7,12.2,2,21.6c3.1,2.7,5.3,2.7,8.5-0.2c6.2-5.6,12.4-11.3,18.5-17c0.9-0.8,1.8-1.5,3.9-2c-0.4,4.5-0.3,9.1-1.2,13.6
				c-2,10.6-6,20.3-14.6,27.4c-6,5-13,6.4-20.5,4.7c-2.5-0.6-4.3-0.3-6.3,1.4c-5.1,4.4-10.4,8.5-15.4,12.5
				C-430.4,82.2-435.2,77.7-440.1,73z"/>
			<path class="st3" d="M-469.4,88.7c4.9,3.3,9.5,5.3,13.9,1.5c4.2,3.8,8.2,7.5,12.5,11.4c-7.7,6.6-15.2,13-22.7,19.4
				c-13,11-25.9,22.1-38.9,33.1c-5,4.2-9.7,4-14.1-0.5c-4.5-4.6-4.9-10.9-0.7-15.5c3-3.2,6.2-6.2,9.3-9.3
				c13-12.9,25.9-25.8,38.9-38.7C-470.7,89.8-470.2,89.4-469.4,88.7z M-504.7,143.9c0-3-2.4-5.7-5.3-5.8c-3.2-0.2-6,2.6-6,6
				c0,3,2.5,5.6,5.5,5.5C-507.2,149.6-504.7,147.1-504.7,143.9z"/>
		</g>
	</g>
	<g id="bDhY4X_2_" class="st2">
		<g>
			<path class="st4" d="M-204.1,133c-2.2,2.5-4.1,4.7-6.1,7c-6.4-4.2-12.6-8-18.6-12.2c-1.1-0.8-1.2-2.9-1.8-4.5
				c-0.5-1.3-0.6-3-1.5-4c-14.5-15.1-29.2-30.1-43.8-45.1c-0.3,0.4-0.5,0.9-0.8,1.3c-2.6,0.7-5.1,1.8-7.7,1.9
				c-3.2,0.2-5.3-1.7-6-4.9c-1.5-7.1-3.1-8.5-10.3-9.4c-1-0.1-2-0.9-2.8-1.7c-8.5-8.6-16.9-17.2-25.4-25.8
				c-3.2-3.3-3.9-7.1-2.4-11.3c3.2-9.3,14.2-15,22.7-11.6c1.7,0.7,3.5,1.8,4.8,3.1c7.4,7.8,14.8,15.8,22.1,23.8
				c1,1.1,1.6,2.7,1.8,4.1c0.7,4.7,3.7,8.5,8.3,9.8c7.6,2.2,8.7,6.7,2.6,12.6c8.1,8.6,16.3,17.1,24.4,25.7c6,6.3,12,12.4,17.9,18.8
				c1.9,2.1,3.9,3.4,6.7,3c2.2-0.3,3.5,0.5,4.7,2.4C-211.6,121.8-207.7,127.5-204.1,133z"/>
			<path class="st4" d="M-263.7,66.8c4.3-3.9,4.3-5.9,0.1-11.9c0.6-0.4,1.3-0.8,1.9-1.4c4.6-4,7.4-8.1,7.3-15.1
				c-0.2-12.5,11.6-23.5,24.9-25.2c2.9-0.4,5.8-0.1,9.5-0.1c-2.1,2.6-3.8,4.8-5.5,7c-1.8,2.3-3.7,4.6-5.5,7
				c-7.3,9.3-7.2,10.1,1.7,17.8c2.6,2.3,4.4,2.2,7.1-0.2c5.1-4.7,10.2-9.4,15.4-14.1c0.7-0.7,1.5-1.3,3.2-1.7
				c-0.3,3.8-0.3,7.6-1,11.2c-1.7,8.8-5,16.8-12.1,22.7c-5,4.2-10.7,5.3-16.9,3.9c-2.1-0.5-3.6-0.3-5.2,1.2
				c-4.2,3.6-8.6,7-12.7,10.4C-255.7,74.4-259.6,70.7-263.7,66.8z"/>
			<path class="st4" d="M-288,79.8c4,2.7,7.9,4.4,11.5,1.3c3.5,3.2,6.8,6.2,10.4,9.5c-6.4,5.5-12.6,10.8-18.8,16.1
				c-10.7,9.1-21.5,18.3-32.2,27.4c-4.1,3.5-8,3.3-11.7-0.4c-3.8-3.8-4-9.1-0.5-12.8c2.5-2.7,5.2-5.1,7.7-7.7
				c10.7-10.7,21.4-21.3,32.2-32C-289.1,80.7-288.6,80.4-288,79.8z M-317.2,125.5c0-2.5-2-4.7-4.4-4.8c-2.7-0.1-4.9,2.2-4.9,5
				c0,2.5,2.1,4.6,4.5,4.6C-319.3,130.2-317.2,128.2-317.2,125.5z"/>
		</g>
	</g>
	<g id="_x38_v3C2y_1_" class="st2">
		<g>
			<path class="st4" d="M-71.1,20.3c0.9,1,2.1,2.5,3.2,3.8c-27.4,27.4-55,55-83,83c2.3,1.6,4,2.8,6,4.2c27-27.1,54.5-54.6,82-82.2
				c7.5,7.5,14.8,14.9,21.9,22c-28.9,28.9-58,58-87,86.9c-9.9-10-20.2-20.3-30.3-30.4C-129.6,78.7-100.5,49.7-71.1,20.3z"/>
			<path class="st4" d="M-35.7,46.8c-10.7-10.7-21-21-31.4-31.5c2.9-2.9,5.7-6.2,9-9c4.7-3.9,11.2-3.5,15.7,0.8
				c5,4.8,10,9.7,14.8,14.8c4.5,4.7,4.5,11.4,0.2,16.3C-30,41.3-32.9,44-35.7,46.8z"/>
			<path class="st4" d="M-133.4,142.8c-11.2,1.7-22.9,3.4-35.2,5.3c1.9-12.3,3.6-24,5.3-35.4C-153.3,122.7-143.3,132.7-133.4,142.8z
				"/>
		</g>
	</g>
</g>
<g id="Layer_10" class="st0">
	<g id="oOT1kY_1_" class="st2">
		<g>
			<path class="st4" d="M74.9,141.6c-20.5,0-41-0.4-61.5,0.2c-8.9,0.2-13.9-8.2-9.2-16.5c18.2-31.9,36.2-64,54.3-96.1
				c2.9-5.2,5.8-10.3,8.7-15.4c4.1-7,12.5-7.1,16.5-0.1C104.9,51,126,88.2,147.1,125.5c4.6,8.1-0.2,16.1-9.5,16.1
				C116.7,141.6,95.8,141.6,74.9,141.6z M47.9,82.7c-1.5-0.5-2.7-0.9-4.1-1.4c-0.5,1.4-1,2.5-1.4,3.8c20.9,9.2,41.5,18.3,61.6,27.1
				c-2.8,5.4-5.5,10.5-8.3,15.7c12.9,0,25.1,0,37.8,0c-5.4-9.5-10.6-18.7-16.1-28.4c-2.6,2.7-4.9,5.3-7.4,7.6
				c-0.7,0.7-2.4,1.1-3.2,0.8c-4.6-1.7-9.2-3.7-13.7-5.7c-1-0.4-2-1.7-2.2-2.7c-1.3-5.4-2.2-10.9-3.6-16.3C86.6,81,85.5,78,83.7,77
				c-7.3-4.1-14.9-7.6-23.9-5.7c-4.6,0.9-8.3,2.4-9.8,7.3C49.6,80,48.7,81.2,47.9,82.7z M49,127.9c8.5,1,8.4,1,10.6-6.5
				c1.8-6.3,3.7-12.6,5.5-18.9c8.4,6.9,10.5,15.7,8.5,25.7c3.4,0,6,0,8.8,0c0-4.9,0.4-9.6-0.2-14.1c-0.3-2.5-1.8-5.9-3.8-7
				c-6.8-3.6-14.1-6.4-21.4-9.6C54.3,107.8,51.7,117.8,49,127.9z M88.9,63.5c0.1-4.7-3.5-8.5-8.1-8.6c-4.2-0.1-8.2,3.8-8.2,8.1
				c-0.1,4.5,3.5,8.1,8,8.2C85.4,71.3,88.9,68.1,88.9,63.5z"/>
			<path class="st4" d="M65.4,79.3c-1.4,3-2.8,6-4.4,9.2c-1.9-0.8-3.4-1.4-5-2C57.4,80.2,58.5,79.4,65.4,79.3z"/>
			<path class="st4" d="M82,97.6c-2.4-1-4.1-1.8-6.4-2.8c1.2-2.8,2.3-5.6,3.8-9.2C80.3,90,81.1,93.5,82,97.6z"/>
		</g>
	</g>
</g>
<g id="Layer_11" class="st0">
	<g id="QWGp6Z_1_" class="st2">
		<g>
			<path class="st4" d="M323.8,118.1c-3,2.3-4.7,2.3-6.3-0.4c-7-12.5-18.3-19.2-31.5-23.1c-12.8-3.8-26-3.9-39.5-4
				c-0.1,1.4-0.2,2.6-0.2,3.7c0,7,0,14.1,0,21.1c0,4.2-2.4,5.5-5.8,3.3c-21.9-14.7-43.7-29.4-65.5-44.1c-0.8-0.5-1.4-1.4-2.1-2
				c0-0.7,0-1.3,0-2c1.2-1,2.2-2.1,3.5-3c21-14.2,42-28.4,63.1-42.4c1.5-1,3.9-1.8,5.3-1.2c1,0.4,1.5,3.2,1.5,5
				c0.2,6.1,0.1,12.3,0,18.4c0,2.4,0.4,3.4,3.2,3.8c19,3.2,37.1,8.8,52.5,21.1c12.4,9.8,19.9,22.4,21.3,38.4c0,0.5,0.3,1,0.5,1.5
				C323.8,114.1,323.8,116.1,323.8,118.1z"/>
		</g>
	</g>
</g>
<g id="Layer_12" class="st0">
	<g id="acmACh_1_" class="st2">
		<g>
			<path class="st4" d="M67.8,0.1c5.1,0,10.2,0,15.3,0c0.3,0.2,0.6,0.4,0.9,0.5c10.2,3.1,14.7,9.1,14.7,19.8c0,9.2,0,18.4,0,27.6
				c0,1.2,0.1,2.4,0.2,3.8c1.5,0,2.7,0,3.9,0c9.5,0,19.1,0,28.6,0c6.2,0,11.3,2.3,14.9,7.3c1.8,2.5,2.7,5.5,4,8.3
				c0,5.1,0,10.2,0,15.3c-0.2,0.3-0.4,0.6-0.5,0.9c-3.3,10.5-9.1,14.7-20.1,14.7c-9.1,0-18.2,0-27.3,0c-1.2,0-2.4,0.1-3.8,0.2
				c0,1.5,0,2.7,0,3.9c0,9.7,0.1,19.3,0,29c-0.1,7.6-3.7,13.1-10.4,16.5c-1.7,0.9-3.5,1.4-5.2,2.1c-5.1,0-10.2,0-15.3,0
				c-0.3-0.2-0.6-0.4-0.9-0.5c-10.2-3.1-14.7-9.1-14.7-19.8c0-9.2,0-18.4,0-27.6c0-1.2-0.1-2.4-0.2-3.8c-1.5,0-2.7,0-3.9,0
				c-9.5,0-19.1,0-28.6,0c-6.2,0-11.3-2.3-14.9-7.3c-1.8-2.5-2.7-5.5-4-8.3c0-5.1,0-10.2,0-15.3c0.2-0.3,0.4-0.6,0.5-0.9
				C4.3,56.1,10,51.9,21.1,51.9c9.1,0,18.2,0,27.3,0c1.2,0,2.4-0.1,3.8-0.2c0-1.5,0-2.7,0-3.9c0-9.7-0.1-19.3,0-29
				c0.1-7.6,3.7-13.1,10.4-16.5C64.2,1.4,66.1,0.8,67.8,0.1z"/>
		</g>
	</g>
</g>
<g id="Layer_13">
	<g id="_x33_FV2f8_1_">
		<g>
			<path class="st4" d="M76.5,3.7c2,1.5,4.3,2.7,6.1,4.5c12.6,12.5,25.2,25.1,37.6,37.8c1.6,1.6,3.1,4.2,3.2,6.3
				c0.3,10.3,0.1,20.5,0.1,30.9c-3,0-5.9,0-9.1,0c0-11.1,0-22.2,0-33.8c-1.4,0-2.5,0-3.6,0c-8.8,0-17.6,0-26.3,0
				c-4.5,0-6.1-1.6-6.1-6.2c0-8.8,0-17.6,0-26.3c0-1,0-2.1,0-3.3c-21.7,0-43.1,0-64.6,0c0,41.6,0,83.2,0,125.1c1.3,0,2.6,0,3.8,0
				c22.7,0,45.4,0,68.1,0c2,0,3.3,0.5,4.5,2.2c2,2.7,4.5,5.1,6.9,7.6c-28.5,0-57,0-85.5,0c-3.8-1.3-6.5-3.8-7.7-7.7
				c0-43.3,0-86.6,0-129.9c1.4-3.3,3.7-5.7,7.1-7.1C32.7,3.7,54.6,3.7,76.5,3.7z"/>
			<path class="st4" d="M117,148.3c-3.6-1.1-7.5-1.8-10.9-3.4c-12.2-5.9-18.3-19.9-14.8-33.3c3.3-12.9,15.5-21.6,29.3-21.2
				c12.9,0.4,24.3,10.5,26.7,23.6c0.1,0.5,0.4,1,0.6,1.4c0,2.4,0,4.7,0,7.1c-0.2,0.6-0.5,1.2-0.6,1.8c-1.4,7.7-5.4,13.8-11.6,18.4
				c-4.4,3.3-9.5,4.5-14.8,5.5C119.5,148.3,118.2,148.3,117,148.3z M124,133.6c0-4.8,0-9.4,0-14.3c4,0,7.6,0,11.1,0
				c-5.5-5.5-11-10.8-15.7-15.5c-5.1,5.1-10.6,10.5-15.9,15.7c3.1,0,6.7,0,10.8,0c0,4.8,0,9.5,0,14.2
				C117.6,133.6,120.6,133.6,124,133.6z"/>
			<path class="st4" d="M99.6,68.9c0,3.9,0,7.6,0,11.6c-24.5,0-49.1,0-73.8,0c0-3.8,0-7.6,0-11.6C50.3,68.9,74.7,68.9,99.6,68.9z"/>
			<path class="st4" d="M68.4,102.8c0,3.8,0,7.4,0,11.3c-14.2,0-28.3,0-42.7,0c0-3.7,0-7.4,0-11.3C39.9,102.8,54,102.8,68.4,102.8z"
				/>
			<path class="st4" d="M25.8,35.3c13.4,0,26.7,0,40.2,0c0,3.8,0,7.5,0,11.4c-13.4,0-26.7,0-40.2,0C25.8,43,25.8,39.3,25.8,35.3z"/>
		</g>
	</g>
</g>
<g id="Layer_7" class="st0">
	<g id="OuiUpj_1_" class="st2">
		<g>
			<path class="st4" d="M-143.4,53.9c31.5,0,62.5,0,94.1,0c0,1.3,0,2.5,0,3.7c0,28.1,0,56.2,0,84.3c0,5.4-1.3,6.7-6.7,6.7
				c-27,0-53.9,0-80.9,0c-5.2,0-6.5-1.3-6.5-6.5c0-28.1,0-56.2,0-84.3C-143.4,56.5-143.4,55.3-143.4,53.9z M-77.2,101
				c0,10,0,20.1,0,30.1c0,1.8-0.4,3.8,0.2,5.3c0.6,1.5,2.3,3.5,3.5,3.6c1.3,0.1,2.8-1.9,3.9-3.2c0.5-0.5,0.2-1.7,0.2-2.6
				c0-22.1,0-44.1,0-66.2c0-0.9,0.3-2-0.1-2.6c-1.1-1.4-2.5-3.5-3.7-3.5c-1.3,0-2.7,2.1-3.8,3.4c-0.4,0.6-0.1,1.7-0.1,2.6
				C-77.2,78.9-77.2,90-77.2,101z M-116.2,100.8c0-11.4,0-22.7,0-34.1c0-2.7-0.9-4.7-3.6-5.1c-2.1-0.4-3.9,2.1-3.9,5.2
				c0,22.7,0,45.4,0,68.2c0,2.8,0.7,5,3.8,5.3c2.2,0.2,3.7-2.1,3.7-5.3C-116.1,123.5-116.1,112.2-116.2,100.8z M-100.2,100.8
				c0,10.5,0,20.9,0,31.4c0,1.3,0,2.7,0,4c0.1,2.4,1.5,3.9,3.8,3.9c2.3,0,3.6-1.6,3.7-3.9c0.1-0.8,0-1.6,0-2.3c0-21.5,0-43,0-64.5
				c0-1.4,0.5-3.2-0.2-4.3c-0.8-1.4-2.4-3.1-3.8-3.3c-1.1-0.1-2.5,2-3.5,3.3c-0.4,0.6-0.1,1.7-0.1,2.6
				C-100.2,78.8-100.2,89.8-100.2,100.8z"/>
			<path class="st4" d="M-96.7,46c-16.4,0-32.8,0-49.2,0c-5.3,0-6.9-1.7-7-7c0-3.8-0.1-7.6,0-11.4c0.1-4.1,1.9-5.8,6-5.8
				c33.6,0,67.1,0,100.7,0c3.8,0,5.6,1.9,5.7,5.8c0,4.1,0.1,8.2,0,12.4c0,4.3-1.8,6.1-6.1,6.1C-63.3,46-80,46-96.7,46z"/>
			<path class="st4" d="M-77.2,14.5c-2.2,0-4,0.1-5.7-0.1c-0.8-0.1-2-0.8-2.1-1.4c-0.5-2.5-2-2.7-4.1-2.7c-6,0.1-12,0-17.9,0
				c-1.9,4.5-1.9,4.5-8.7,3.9c-0.1-0.2-0.2-0.4-0.2-0.5c2.8-12.6,0.6-10.7,13.2-10.8c5.9-0.1,11.8,0.1,17.7-0.1
				c3.1-0.1,4.8,1.2,5.6,4.1C-78.9,9.3-78.1,11.7-77.2,14.5z"/>
		</g>
	</g>
</g>
<g id="Layer_8" class="st0">
	<g id="qTIRgY_1_" class="st2">
		<g>
			<path class="st4" d="M-51.8,2.1c7.5,1.9,12.7,6.2,14.6,14c0.2,0.7,0.4,1.5,0.4,2.2c0,15.7,0,31.4,0,47.4c-4.2,0-8.4,0-13.1,0
				c0-1,0-2.1,0-3.3c0-13.5,0-27.1,0-40.6c0-4.5-1.5-6-6-6c-28.4,0-56.8,0-85.2,0c-4.7,0-6.2,1.5-6.2,6.2c0,35.5,0,71.1,0,106.6
				c0,4.7,1.5,6.2,6.3,6.2c14,0,27.9,0,42.3,0c0,4.7,0,9.2,0,13.7c-15.6,0-31.2,0-46.8,0c-11.5-4.3-15-9.3-15-22
				c0-34.2,0-68.3,0-102.5c0-12.6,3.4-17.7,15-22C-114.3,2.1-83.1,2.1-51.8,2.1z"/>
			<path class="st4" d="M-41,122.9c4.5,4,9.1,8,13.5,12.2c2.7,2.6,3,6.4,1.2,9.5c-1.7,3-4.4,4.4-7.7,3.6c-1.8-0.4-3.5-1.6-4.9-2.9
				c-4.4-3.9-8.6-8-13.1-12.2c-18.9,7.6-34.1,4-43.8-11c-8.9-13.8-6.7-32.8,5.3-44c11.2-10.5,28.4-11.6,40.9-2.8
				C-38.6,82.9-29.3,101.2-41,122.9z M-68.3,81.8c-10.9,0-19.9,9.3-20,20.6c-0.1,11.2,9,20.7,19.8,20.8c10.9,0.1,20.2-9.4,20.1-20.8
				C-48.4,91.2-57.5,81.8-68.3,81.8z"/>
			<path class="st4" d="M-133.7,38.4c0-2.9,0-5.6,0-8.6c23.4,0,46.7,0,70.3,0c0,2.8,0,5.6,0,8.6C-86.7,38.4-110.1,38.4-133.7,38.4z"
				/>
			<path class="st4" d="M-133.7,65.7c0-2.9,0-5.6,0-8.4c23.4,0,46.8,0,70.3,0c0,2.9,0,5.5,0,8.4C-86.7,65.7-110.1,65.7-133.7,65.7z"
				/>
			<path class="st4" d="M-133.7,93.3c0-2.9,0-5.5,0-8.7c4.4,0,8.6,0,12.9,0c4.3,0,8.6,0,13.2,0c0,3,0,5.8,0,8.7
				C-116.3,93.3-124.8,93.3-133.7,93.3z"/>
			<path class="st4" d="M-133.7,113.3c0-2.9,0-5.5,0-8.7c4.4,0,8.6,0,12.9,0c4.3,0,8.6,0,13.2,0c0,3,0,5.8,0,8.7
				C-116.3,113.3-124.8,113.3-133.7,113.3z"/>
		</g>
	</g>
</g>
<g id="Layer_9" class="st0">
</g>
<g id="Layer_5" class="st0">
	<rect x="-524.2" y="13.5" class="st5" width="157" height="128"/>
	<g id="nNQXZA.tif" class="st2">
		<g>
			<path class="st6" d="M-433.9,15.7c-0.1,0.1-0.2,0.2-0.2,0.3c-0.3,0.3-0.5,0.6-0.6,0.9l0,0.1c0,0,0-0.1,0-0.1
				c-0.2,0.1-0.3,0.3-0.4,0.6c0,0,0,0,0,0c-0.3,0.3-0.5,0.6-0.6,0.9c0,0,0,0,0,0c-0.6,0.7-1,1.5-1.3,2.3l0,0.1c0,0,0-0.1,0-0.1
				c-0.3,0.3-0.5,0.6-0.6,1c0,0,0,0,0,0c-0.4,0.4-0.6,0.8-0.8,1.3c-0.1,0.1-0.1,0.2-0.2,0.3c-0.3,0.3-0.5,0.6-0.6,1
				c-0.2,0.2-0.3,0.4-0.4,0.7c-0.4,0.4-0.6,0.9-0.7,1.4c-0.1,0.1-0.1,0.3-0.2,0.4c-0.2,0.1-0.2,0.2-0.2,0.4
				c-0.2,0.2-0.3,0.4-0.4,0.7c-1.2,2-2.2,4-3,6.1c0,0.1-0.1,0.2-0.1,0.2c-0.1,0.2-0.3,0.4-0.4,0.6c-3,6.4-5.6,13-7.7,19.8
				c-2.7,8.8-4.8,17.8-5.5,27c-0.1,1.6-0.1,1.6,1.4,1.6c6,0,12,0,17.9,0.1c2.8,0,5.7,0.1,8.5,0.5c1.4,0.2,1.5,0.3,1.2,1.3
				c-2.3,8.2-3.5,16.6-3.9,25.1c0,0.8,0.2,1,1,0.9c5.4-0.7,10.7-1.7,16-3.1c7.4-2,14.5-4.8,21.2-8.4c0.6-0.3,0.9-0.3,1.2,0.4
				c0.5,1.2,1.2,2.3,1.8,3.4c1,1.8,1,1.8-0.9,2.8c-2.7,1.4-5.6,2.6-8.4,3.9c-0.1,0-0.1,0-0.2,0c-10,4-20.3,6.7-31.1,7.8
				c-0.5,0.1-0.7,0.3-0.6,0.8c0.2,2,0.2,4.1,0.4,6.1c0.6,5.8,1.6,11.6,3.1,17.2c1.6,6.5,3.9,12.8,6.9,18.8c0.1,0.3,0.4,0.5,0.3,0.8
				c-1.3,1.2-2.8,2.4-4.5,3.1c-1.2,0.6-1.6,0.4-2.2-0.8c-3.6-6.9-6.3-14.1-8.3-21.6c-0.1-0.2-0.2-0.5-0.2-0.7c0,0,0-0.1,0-0.1
				c-1.8-7.4-2.9-14.9-3.2-22.5c0-0.2,0-0.5-0.4-0.5c-4-0.1-8.1,0.1-12.1-0.2c-2.3-0.2-4.6-0.4-6.9-0.6c-2.2-0.2-4.3-0.5-6.4-0.8
				c-2.8-0.4-5.6-1-8.3-1.6c-3.8-0.9-7.6-1.9-11.4-3c-5.1-1.5-10-3.4-14.9-5.4c-0.6-0.3-1.3-0.6-2-0.9c-0.4-0.2-0.6-0.4-0.3-0.8
				c0.8-1.5,1.6-3.1,2.4-4.7c0.3-0.6,0.6-0.8,1.3-0.5c7.7,3.6,15.8,6.2,24.2,8.1c7.5,1.8,15,2.9,22.6,3.3c3.7,0.2,7.4,0.3,11.1,0.2
				c0.8,0,1-0.3,1-1.1c0.1-6.1,0.8-12.2,2.1-18.2c0.2-0.8,0-1-0.8-1c-6.5,0.3-13,0.3-19.4,0.2c-2,0-4-0.1-5.9-0.4
				c-0.7-0.1-1.1-0.4-1-1.2c0.2-1.8,0.2-3.5,0.3-5.3c0.3-2.3,0.5-4.6,0.8-6.8c0.3-2.5,0.8-5,1.1-7.5c0-0.1,0-0.2,0.1-0.4
				c0.2-0.2,0.1-0.4,0.1-0.6c0.5-2.1,0.9-4.3,1.5-6.4c0.8-3.1,1.7-6.2,2.5-9.3c0.6-1.7,1.2-3.5,1.8-5.2c1.6-4.7,3.5-9.2,5.5-13.8
				c0.1-0.1,0.1-0.3,0.2-0.4c0.1-0.1,0.1-0.3,0.2-0.4c0.1-0.1,0.1-0.3,0.2-0.4c0.2-0.1,0.2-0.2,0.2-0.4c3.3-6.9,6.9-13.7,10.9-20.2
				c2.8-4.4,5.7-8.8,8.9-13c1.9-2.5,3.8-5,5.9-7.4c0.2-0.2,0.4-0.5,0.7-0.7c1.3,1.5,2.6,2.9,4,4.3c0.4,0.4,0.1,0.7-0.1,1
				c-0.2,0.1-0.4,0.3-0.4,0.5c-0.1,0.1-0.1,0.1-0.2,0.2c-0.3,0.2-0.5,0.4-0.6,0.7c-0.1,0.1-0.1,0.1-0.2,0.2
				c-0.2,0.1-0.4,0.3-0.4,0.5c-0.1,0.1-0.2,0.3-0.3,0.4c-0.2,0.1-0.4,0.3-0.4,0.5c-0.1,0.1-0.1,0.1-0.2,0.2
				c-0.2,0.1-0.4,0.3-0.4,0.5c-0.1,0.1-0.2,0.3-0.3,0.4c-0.2,0.1-0.3,0.3-0.4,0.5c-0.1,0.1-0.1,0.1-0.2,0.2
				c-0.2,0.1-0.4,0.3-0.4,0.5c-0.1,0.1-0.1,0.1-0.2,0.2c-0.2,0.1-0.3,0.3-0.4,0.5c-0.4,0.5-0.8,1-1.1,1.5c-0.2,0.1-0.3,0.3-0.4,0.6
				c-0.2,0.2-0.4,0.5-0.5,0.8c-0.2,0.1-0.3,0.3-0.4,0.6c-0.2,0.2-0.4,0.5-0.5,0.8c-0.2,0.1-0.3,0.3-0.4,0.6c-1.1,1.4-2.1,2.9-3,4.5
				c-0.2,0.1-0.3,0.3-0.4,0.6c-0.2,0.2-0.3,0.4-0.4,0.6c0,0,0,0,0,0c-0.2,0.1-0.3,0.3-0.4,0.6c0,0,0,0,0,0
				C-433.5,14.9-433.8,15.2-433.9,15.7z"/>
			<path class="st4" d="M-451.1,33.6c-0.1,0.1-0.1,0.3-0.2,0.4c-0.3,0-0.6,0.1-0.2,0.4c-0.1,0.1-0.1,0.3-0.2,0.4
				c-0.7,0.1-0.8,0.7-1.1,1.2c-0.6,0.9-1,2-2.5,1.9c-0.6,0-1.2-0.1-1.8-0.1c-2.1,0-4.3,0-6.4,0c-2.5,0-5,0-7.6,0c-2.5,0-5.1,0-7.6,0
				c0-0.8-0.4-1.2-1.2-1.1c-2,0-3.9,0-5.9,0c-0.8,0-1.3,0.2-1.3,1.1c-1.2,0-2.5-0.1-3.7,0c-2.3,0.2-4.6-0.1-6.9,0
				c-2.3,0.1-4.5-0.1-6.8,0.1c-0.8,0.1-1.6-0.4-2.4-0.1c-0.6,0.2-1.3,0.3-1.9,0c-1-0.4-2-0.1-3-0.1c-1.7,0-3.5,0.3-5.2,0.2
				c-2.4-0.1-4.7-0.1-7.1-0.1c-0.5,0-1,0-1.5-0.2c0-7.3,0-14.7,0-22c0-0.5,0-0.9,0-1.4c0-1.1,0.7-1.1,1.5-1.1c26.3,0,52.7,0,79,0
				c1.7,0,3.3,0,5,0c-4,6.5-7.6,13.3-10.9,20.2C-451.2,33.3-451.4,33.3-451.1,33.6z"/>
			<path class="st4" d="M-440.5,118.8c0.4-0.1,0.4,0.2,0.4,0.5c0.3,7.6,1.4,15.1,3.2,22.5c0,0,0,0.1,0,0.1c-10.7,0-21.3,0-32,0
				c-18.3,0-36.7,0-55,0c-1.5,0-1.5-0.1-1.5-1.5c0-5.8,0-11.7,0-17.5c1.5,0.3,3.1,0.3,4.6,0.2c0.5,0,1-0.3,1.6-0.1
				c0.9,0.3,1.9,0,2.8,0c0.8,0,1.6-0.1,2.4,0c1,0,2,0.1,2.9,0.1c0.9,0,1.8-0.3,2.6-0.1c1.8,0.5,3.6-0.3,5.4,0.1
				c0.9,0.2,1.8-0.1,2.8,0c1.8,0.2,3.7-0.3,5.5,0c1,0.2,2-0.3,3-0.1c1.1,0.3,2.3,0.2,3.4,0.2c1.2-0.1,2.4,0.3,3.5,0.1
				c2-0.3,4.1,0.1,6.1-0.1c0.5,0,1-0.1,1.5-0.1c1.4,0,2.7,0,4.1,0c1.1,0,2.3-0.3,3.4,0.1c0.3,0.1,0.6,0.1,0.8,0
				c1.1-0.5,2.4,0.6,3.5-0.3c1.7,0.4,3.4,0,5,0.2c0.4,0.1,0.9,0.3,1.3,0.2c0.9-0.4,1.8,0.1,2.8,0c1.3,0,2.5-0.3,3.8-0.1
				c1.7,0.2,3.5,0.1,5.2-0.1c0.5,0,1,0.1,1.6,0.1c1.4,0,2.8-0.2,4.3-0.2c0.5,0,0.6-0.1,0.7-0.5C-440.8,121-440.7,119.9-440.5,118.8z
				"/>
			<path class="st4" d="M-465,84.8c-0.1,1.8-0.2,3.5-0.3,5.3c-0.1,0.8,0.3,1.1,1,1.2c2,0.3,3.9,0.4,5.9,0.4c6.5,0.1,13,0.1,19.4-0.2
				c0.8,0,1,0.2,0.8,1c-1.3,6-2,12.1-2.1,18.2c0,0.8-0.2,1.1-1,1.1c-3.7,0.1-7.4,0.1-11.1-0.2c-7.6-0.5-15.2-1.6-22.6-3.3
				c-8.3-2-16.4-4.5-24.2-8.1c-0.8-0.4-1-0.1-1.3,0.5c-0.8,1.6-1.5,3.1-2.4,4.7c-0.3,0.5-0.1,0.7,0.3,0.8c0.7,0.3,1.3,0.6,2,0.9
				c0,0.5-0.4,0.9-0.8,0.8c-0.7-0.2-1.4,0.1-2.1,0.1c-2.1-0.1-4.1-0.1-6.2-0.2c-0.9,0-1.8,0.3-2.7,0.2c-1.1-0.1-2.3-0.1-3.4-0.2
				c-0.8,0-1.8,0.3-2.5,0.1c-1.8-0.4-3.6,0.6-5.4-0.3c-0.1-0.1-0.3,0-0.4,0.1c-0.4,0.3-0.9,0.2-1.4,0.2c0-5.7,0-11.3,0-17
				c1.3,0.1,2.5,0.2,3.8,0.2c2,0,4.1-0.1,6.1-0.1c1.1,0,2.2,0.1,3.4,0.2c0.5,0,1-0.1,1.5-0.1c1.5,0.1,2.9,0,4.4,0
				c0.3,0,0.6-0.2,0.9-0.1c1.4,0.4,2.9,0,4.3,0.1c2.1,0.1,4.3,0.1,6.4,0c1.1,0,2.3-0.1,3.4-0.1c1.4,0.1,2.8-0.1,4.2-0.1
				c0.5,0,1.1,0.3,1.7,0.1c1.9-0.5,3.8,0.1,5.8-0.1c1.9-0.2,3.9,0.3,5.9-0.1c0.1,0,0.3,0,0.4,0c1.8,0.3,3.6-0.1,5.4,0.2
				c0.4,0.1,0.9-0.1,1.4-0.2c0.3-0.1,0.5-0.3,0.6-0.6c0.1-1.4,0.8-2.8,0.7-4.2C-465.5,85.8-465.5,85.2-465,84.8z"/>
			<path class="st4" d="M-478.7,37.8c2.5,0,5.1,0,7.6,0c2.5,0,5,0,7.6,0c2.1,0,4.3,0,6.4,0c0.6,0,1.2,0.1,1.8,0.1
				c1.5,0.1,1.9-1,2.5-1.9c0.3-0.5,0.4-1.1,1.1-1.2c-1.9,4.6-3.9,9.1-5.5,13.8c-0.6,1.7-1.2,3.5-1.8,5.2c-0.2,0-0.3,0.1-0.4,0.3
				c-0.3,0.8-0.6,1.6-1,2.4c-0.5,1.2-0.8,1.4-2.2,1.5c-0.5,0-1-0.3-1.5-0.2c-1.5,0.4-3.1-0.1-4.7,0.1c-1.5,0.2-3.1-0.1-4.7,0
				c-0.7,0-1.4,0.1-2.1,0c-1-0.1-2.1-0.3-3-0.1c-1.9,0.3-3.7,0.2-5.5,0c-1.5-0.1-3,0-4.5,0c-1.7,0-3.4,0.1-5.1,0.1
				c-1.6,0-3.1-0.1-4.6,0c-2.6,0.2-5.1-0.3-7.6,0.2c-1.2-0.7-2.4-0.1-3.6-0.1c-2.3,0-4.6-0.3-6.9,0c-0.5,0-1,0.2-1.6,0
				c-1.3-0.3-2.7-0.1-4.1-0.2c-1.2,0-2.3,0.1-3.5-0.1c0-6.7,0-13.5,0-20.2c0.5,0.2,1,0.2,1.5,0.2c2.4,0,4.7,0,7.1,0.1
				c1.7,0.1,3.5-0.2,5.2-0.2c1,0,2-0.3,3,0.1c0.6,0.3,1.3,0.2,1.9,0c0.8-0.3,1.6,0.1,2.4,0.1c2.2-0.1,4.5,0,6.8-0.1
				c2.3-0.1,4.6,0.2,6.9,0c1.2-0.1,2.5,0,3.7,0c0,0.3,0,0.7,0,1c0,5.3,0,10.6,0,15.9c0,1.3,0.1,1.4,1.5,1.4c1.8,0,3.5,0,5.3,0
				c1.5,0,1.6,0,1.6-1.5C-478.7,49-478.7,43.4-478.7,37.8z"/>
			<path class="st4" d="M-525.5,57.8c1.2,0.2,2.3,0,3.5,0.1c1.4,0,2.7-0.1,4.1,0.2c0.6,0.1,1.1,0,1.6,0c2.3-0.2,4.6,0.1,6.9,0
				c1.2,0,2.4-0.6,3.6,0.1c2.5-0.5,5.1,0,7.6-0.2c1.5-0.1,3.1,0,4.6,0c1.7,0,3.4-0.1,5.1-0.1c1.5,0,3-0.1,4.5,0
				c1.8,0.1,3.7,0.2,5.5,0c1-0.1,2,0,3,0.1c0.7,0.1,1.4,0,2.1,0c1.6-0.1,3.2,0.2,4.7,0c1.6-0.2,3.1,0.3,4.7-0.1
				c0.5-0.1,1,0.2,1.5,0.2c1.3,0,1.7-0.2,2.2-1.5c0.3-0.8,0.7-1.6,1-2.4c0.1-0.2,0.2-0.3,0.4-0.3c-0.8,3.1-1.7,6.2-2.5,9.3
				c-0.5,2.1-1,4.3-1.5,6.4c-0.4,0.1-0.5,0.3-0.1,0.6c0,0.1,0,0.2-0.1,0.4c-0.6,0.2-0.4,0.7-0.5,1.1c-0.2,0.8-0.5,1.6-0.8,2.4
				c-0.3,0.6-0.7,0.8-1.4,0.9c-1.2,0.1-2.5-0.1-3.7-0.1c-1.7,0-3.4,0-5.2-0.1c-2.1-0.1-4.2,0.1-6.3,0.1c-2.2,0-4.4-0.1-6.7-0.2
				c-2.4-0.1-4.7,0.1-7.1,0c-10.2-0.1-20.5,0-30.7,0C-525.5,69-525.5,63.4-525.5,57.8z"/>
			<path class="st4" d="M-525.5,74.6c10.2,0,20.5,0,30.7,0c2.4,0,4.7-0.2,7.1,0c2.2,0.1,4.4,0.2,6.7,0.2c2.1,0,4.2-0.2,6.3-0.1
				c1.7,0.1,3.5,0.1,5.2,0.1c1.3,0,2.5,0.2,3.7,0.1c0.7,0,1.1-0.2,1.4-0.9c0.3-0.8,0.6-1.6,0.8-2.4c0.1-0.4,0-0.9,0.5-1.1
				c-0.4,2.5-0.8,5-1.1,7.5c-0.3,2.3-0.5,4.5-0.8,6.8c-0.5,0.3-0.5,1-0.5,1.4c0.2,1.5-0.5,2.8-0.7,4.2c0,0.3-0.3,0.5-0.6,0.6
				c-0.5,0.1-0.9,0.3-1.4,0.2c-1.8-0.2-3.6,0.1-5.4-0.2c-0.1,0-0.3,0-0.4,0c-2,0.4-4-0.1-5.9,0.1c-1.9,0.2-3.9-0.4-5.8,0.1
				c-0.5,0.1-1.1-0.1-1.7-0.1c-1.4,0-2.8,0.2-4.2,0.1c-1.1-0.1-2.3,0-3.4,0.1c-2.1,0-4.3,0.1-6.4,0c-1.4-0.1-2.9,0.3-4.3-0.1
				c-0.3-0.1-0.6,0.1-0.9,0.1c-1.5,0-2.9,0.1-4.4,0c-0.5,0-1,0.1-1.5,0.1c-1.1,0-2.3-0.2-3.4-0.2c-2,0-4.1,0.2-6.1,0.1
				c-1.3,0-2.5-0.1-3.8-0.2C-525.5,85.6-525.5,80.1-525.5,74.6z"/>
			<path class="st4" d="M-525.5,108c0.5,0,0.9,0,1.4-0.2c0.1-0.1,0.3-0.2,0.4-0.1c1.7,0.9,3.6-0.2,5.4,0.3c0.7,0.2,1.7-0.1,2.5-0.1
				c1.1,0,2.3,0.1,3.4,0.2c0.9,0.1,1.8-0.2,2.7-0.2c2.1,0.1,4.1,0.1,6.2,0.2c0.7,0,1.4-0.3,2.1-0.1c0.4,0.1,0.8-0.3,0.8-0.8
				c4.9,2,9.8,3.9,14.9,5.4c3.8,1.1,7.6,2.1,11.4,3c2.7,0.7,5.5,1.2,8.3,1.6c2.1,0.3,4.3,0.6,6.4,0.8c2.3,0.2,4.6,0.4,6.9,0.6
				c4,0.3,8.1,0.1,12.1,0.2c-0.1,1.1-0.2,2.2-0.4,3.3c0,0.4-0.2,0.5-0.7,0.5c-1.4-0.1-2.8,0.2-4.3,0.2c-0.5,0-1-0.1-1.6-0.1
				c-1.7,0.2-3.5,0.3-5.2,0.1c-1.3-0.2-2.6,0.1-3.8,0.1c-0.9,0-1.8-0.4-2.8,0c-0.4,0.2-0.9-0.1-1.3-0.2c-1.7-0.2-3.4,0.3-5-0.2
				c-1.1,0.9-2.4-0.2-3.5,0.3c-0.2,0.1-0.6,0.1-0.8,0c-1.1-0.4-2.3-0.1-3.4-0.1c-1.4,0-2.7,0-4.1,0c-0.5,0-1,0.1-1.5,0.1
				c-2,0.2-4-0.2-6.1,0.1c-1.1,0.2-2.3-0.2-3.5-0.1c-1.2,0.1-2.3,0.1-3.4-0.2c-1-0.2-2,0.3-3,0.1c-1.8-0.3-3.7,0.2-5.5,0
				c-1-0.1-2,0.2-2.8,0c-1.8-0.4-3.6,0.4-5.4-0.1c-0.8-0.2-1.7,0.1-2.6,0.1c-1,0-2,0-2.9-0.1c-0.8,0-1.6,0-2.4,0
				c-0.9,0-1.9,0.3-2.8,0c-0.6-0.2-1,0.1-1.6,0.1c-1.6,0.1-3.1,0.1-4.6-0.2C-525.5,117.9-525.5,112.9-525.5,108z"/>
			<path d="M-411.8,49.3c0,1.9-0.1,3.7,0,5.6c0,0.9-0.3,1.3-1.2,1.2c-2,0-4,0-5.9,0c-0.9,0-1.2-0.4-1.2-1.2c0-1.9,0-3.7,0-5.6
				c0-3.7,0-7.4,0-11.1c0-1.5,0-1.5,1.6-1.5c1.7,0,3.5,0,5.2,0c1.5,0,1.6,0,1.6,1.5C-411.8,41.9-411.8,45.6-411.8,49.3z"/>
			<path class="st7" d="M-463,70.1c-0.3-0.3-0.3-0.5,0.1-0.6C-462.8,69.7-462.8,69.9-463,70.1z"/>
			<path class="st8" d="M-451.4,34.4c-0.4-0.3-0.1-0.4,0.2-0.4C-451.3,34.2-451.4,34.3-451.4,34.4z"/>
			<path class="st8" d="M-451.1,33.6c-0.3-0.3-0.1-0.3,0.2-0.4C-450.9,33.4-450.9,33.6-451.1,33.6z"/>
			<path d="M-478.7,37.8c0,5.6,0,11.2,0,16.8c0,1.5,0,1.5-1.6,1.5c-1.8,0-3.5,0-5.3,0c-1.4,0-1.5-0.1-1.5-1.4c0-5.3,0-10.6,0-15.9
				c0-0.3,0-0.7,0-1c-0.1-0.9,0.4-1.2,1.3-1.1c2,0,3.9,0,5.9,0C-479,36.6-478.7,37-478.7,37.8z"/>
		</g>
	</g>
</g>
<g id="Layer_2" class="st0">
	<g class="st2">
		<path class="st4" d="M-470.3,19c3.3,0,6.3,0,9.7,0c0,40.3,0,80.4,0,120.8c-3.1,0-6.1,0-9.7,0C-470.3,99.6-470.3,59.4-470.3,19z"/>
		<path class="st4" d="M-511.6,19c3.5,0,6.8,0,10.5,0c0,40.3,0,80.4,0,120.8c-3.3,0-6.6,0-10.5,0C-511.6,99.6-511.6,59.4-511.6,19z"
			/>
		<path class="st4" d="M-402.5,139.8c-7.5,0-13.6,0-20.5,0c0-40.3,0-80.3,0-120.7c6.8,0,13.2,0,20.5,0
			C-402.5,59.3-402.5,99.4-402.5,139.8z"/>
		<path class="st4" d="M-384.6,18.9c1.5,0,2.7,0,4.1,0c0,40.3,0,80.5,0,120.9c-1.4,0-2.6,0-4.1,0C-384.6,99.6-384.6,59.4-384.6,18.9
			z"/>
		<path class="st4" d="M-471.8,139.9c-2.9,0-5.2,0-8.1,0c0-40.3,0-80.4,0-120.8c2.5,0,5,0,8.1,0C-471.8,59.2-471.8,99.4-471.8,139.9
			z"/>
		<path class="st4" d="M-429.2,139.8c-3.3,0-6.2,0-9.6,0c0-40.3,0-80.3,0-120.8c3.1-0.1,6-0.2,9.6-0.3
			C-429.2,59.1-429.2,99.3-429.2,139.8z"/>
		<path class="st4" d="M-386,19.2c0,40.3,0,80.3,0,120.4c-5.7,1-8.9,0.6-8.6-2c0.1-1.1,0-2.2,0-3.3c0-37.2,0-74.3,0.1-111.5
			C-394.5,21-397,18-386,19.2z"/>
		<path class="st4" d="M-400.6,139.7c0-40.3,0-80.3,0-120.4c1.9-1,3-0.6,2.9,2c0,1.2,0,2.4,0,3.7c0,37,0,74,0,111
			C-397.7,137.9-396.9,140.8-400.6,139.7z"/>
		<path class="st4" d="M-450.7,140.5c-2.3-0.9-4.8-1.7-6.7-2.7c-0.8-0.4-0.2-1.1-0.2-1.6c0-37.8,0-75.7,0-113.5
			c0-2-2.1-4.6,10.9-3.6c0,40.2,0,80.3,0,120.4C-448,139.9-449.3,140.2-450.7,140.5z"/>
		<path class="st4" d="M-494.4,79.8c0-18.7,0-37.4,0-56.2c0-1.1-0.1-2.2,0.1-3.2c0.1-0.6,1-1.5,1.3-1.4c0.6,0.2,1.3,0.9,1.5,1.6
			c0.3,0.8,0.1,1.9,0.1,2.8c0,37.4,0,74.9,0,112.3c0,0.9,0.1,2-0.1,2.8c-0.2,0.6-1,1.5-1.3,1.4c-0.6-0.2-1.3-0.9-1.6-1.6
			c-0.3-0.8-0.1-1.9-0.1-2.8C-494.4,116.9-494.4,98.4-494.4,79.8z"/>
		<path class="st4" d="M-482.4,79.3c0,18.6,0,37.2,0,55.7c0,0.8,0.4,1.7-0.1,2.4c-0.7,0.9-2.2,1.7-3.4,2.5c-1-0.8-2.4-1.5-3-2.3
			c-0.5-0.7-0.1-1.6-0.1-2.4c0-37.2,0-74.3,0-111.5c0-0.8-0.4-1.7,0.1-2.4c0.7-0.9,2.2-1.7,3.4-2.5c1,0.9,2.4,1.7,3,2.7
			c0.5,0.9,0.1,1.9,0.1,2.8C-482.4,42.7-482.4,61-482.4,79.3z"/>
		<path class="st4" d="M-370.6,19.3c0,40.3,0,80.6,0,121c-2.6,0-5.2,0-7.8,0c0-40.3,0-80.6,0-120.9
			C-375.7,19.3-373.1,19.3-370.6,19.3z"/>
		<path class="st4" d="M-525.2,140.3c0-40.3,0-80.5,0-120.8c1.5,0,3,0,4.5,0c0,40.2,0,80.5,0,120.7
			C-522.2,140.2-523.7,140.2-525.2,140.3z"/>
	</g>
</g>
<g id="Layer_3" class="st0">
	<g id="j4xOiC_1_" class="st2">
		<g>
			<path class="st3" d="M-449.6,10c4.9,0.2,10.8-1.3,11.7,6.5c4.6,0,9,0,13.4,0c10.8,0.1,18.5,7.7,18.6,18.4
				c0.1,7.2,0.1,14.3,0,21.5c0,1.4-0.4,3.2-1.3,4.2c-3.6,4.1-7.4,8-11.9,12.8c-0.2-2.4-0.3-3.5-0.3-4.6c0-10.8,0-21.6,0-32.5
				c0-4.8-1.2-6-6-6c-4,0-8,0-12.6,0c0,2.3,0.1,4.4,0,6.4c-0.2,3.5-2,5.6-5.6,5.7c-13.8,0.1-27.6,0.1-41.5,0c-3.6,0-5.5-2-5.7-5.6
				c-0.1-2.1,0-4.1,0-6.4c-5.2,0-9.9-0.1-14.5,0c-3.5,0.1-4,2.6-4,5.5c0,16.7,0,33.4,0,50.1c0,16,0,32.1,0,48.1c0,5.1,0.9,5.9,5.9,6
				c5.3,0.1,10.6,0,17.1,0c-4.9,4.9-8.7,10-13.7,13.1c-2.6,1.6-7.6,0.6-11.2-0.5c-7.7-2.3-12.1-9.3-12.1-17.7c0-31.2,0-62.3,0-93.5
				c0-2.1,0-4.2,0-6.3c0.1-10.9,8-18.7,18.8-18.8c4.3,0,8.6,0,13.4,0c0.6-7.5,6.4-6.4,11.7-6.5c-0.6-6,0.4-11.5,5.2-14.9
				c2.9-2.1,6.8-3.6,10.4-3.7C-455-8.7-449.4-1.3-449.6,10z M-464.8,10c2.8,0.3,5.4,0.3,5.4-3.6c0-2.9-2.4-5.1-5.3-5.1
				c-2.9,0-5.3,2.4-5.2,5.2C-469.8,9.9-467.6,10.4-464.8,10z"/>
			<path class="st3" d="M-439.1,153.1c-7-7.2-14.6-14.9-22.1-22.4c15.7-15.5,31.6-31.4,47.5-47.1c7.1,7.2,14.6,14.9,22,22.4
				C-407.2,121.4-423.2,137.3-439.1,153.1z M-419,106c-0.7-0.9-1.4-2.4-1.9-2.3c-1.4,0.1-3.1,0.4-4,1.3
				c-7.8,7.6-15.5,15.4-23.2,23.1c-1.5,1.5-3,3.3-0.7,4.8c0.9,0.6,3.6,0.1,4.5-0.8c7.9-7.7,15.7-15.5,23.5-23.4
				C-420.2,108-419.8,107.1-419,106z M-411.2,91c-2,2.4-3.6,4-4.6,5.9c-0.2,0.3,1.8,1.9,2.8,2.9c1.5-1.6,3.2-3,4.4-4.8
				C-408.4,94.5-409.9,92.9-411.2,91z"/>
			<path class="st3" d="M-464.9,70.4c-9.2,0-18.5,0-27.7,0c-5.2,0-8.1-2.6-8-7c0.1-4.3,2.8-6.8,7.7-6.9c18.9-0.1,37.8-0.1,56.6,0
				c4.9,0,7.7,2.7,7.6,7c-0.1,4.4-2.7,6.8-7.7,6.9C-445.9,70.4-455.4,70.4-464.9,70.4z"/>
			<path class="st3" d="M-464.4,78.2c8.9,0,17.7,0,26.6,0c1.7,0,3.4,0.1,5,0.7c3.8,1.4,3.8,3.1,1.4,6.2c-4.5,5.9-10,7.4-17.2,7.1
				c-14.6-0.5-29.2-0.1-43.8-0.2c-5.8,0-9-3.6-8-8.5c0.8-3.6,3.1-5.4,7.5-5.4C-483.5,78.1-474,78.2-464.4,78.2
				C-464.4,78.2-464.4,78.2-464.4,78.2z"/>
			<path class="st3" d="M-447.1,101c-3.9,3.8-7.8,7.6-11.8,11.3c-0.8,0.7-2,1.2-3.1,1.2c-10.8,0.1-21.6,0.1-32.5,0
				c-3.7-0.1-6.1-3-6.1-6.7c0-3.7,2.4-6.7,6.2-6.7c15.6-0.1,31.2-0.1,46.8-0.1C-447.4,100.4-447.3,100.7-447.1,101z"/>
			<path class="st3" d="M-465.1,134.3c7.8,7.7,15.3,15.1,23.1,22.7c-10.3,2.8-20.5,5.5-31.4,8.4
				C-470.5,154.6-467.8,144.5-465.1,134.3z M-462.6,143.2c-0.8,3.2-1.7,6-2.3,8.9c-0.5,2.4,2.3,5.5,4.8,4.9c2.9-0.7,5.8-1.6,8.8-2.5
				C-455.2,150.7-458.8,147.1-462.6,143.2z"/>
			<path class="st3" d="M-401.4,69.6c1.8-1.7,4.2-4,6.6-6.2c2.2-2,4.5-1.9,6.6,0.1c5.6,5.6,11.3,11.2,16.8,16.8
				c2.1,2.1,1.8,4.5-0.2,6.6c-2.1,2.3-4.4,4.4-6.4,6.4C-385.7,85.6-393.3,77.8-401.4,69.6z M-378.8,87.2c1.2-1,2.5-2.1,3.4-2.9
				c-5.7-5.8-10.9-11.2-15.9-16.3c-1.3,1-2.6,2-3.8,2.8C-389.4,76.5-384.1,81.8-378.8,87.2z"/>
			<path class="st3" d="M-382.7,98.1c-0.8,0.7-2.3,2.2-3.8,3.7c-7.7-7.8-15.2-15.5-22.9-23.4c1.1-0.8,2.9-2.1,4.2-3.1
				C-398.3,82.4-390.6,90.1-382.7,98.1z"/>
		</g>
	</g>
</g>
<g id="Layer_4" class="st0">
	<g id="ZqeqZc_1_" class="st2">
		<g>
			<path class="st3" d="M-526.2,88.8c0-4.5,0-9,0-13.4c3.1-8.1,10.4-4.9,16.3-5.9c0.7-2.7,1.4-5.4,2.1-8.3c-2.3-1.3-4.5-2.6-6.7-3.9
				c-4.7-2.8-5.8-6.6-3.1-11.3c1.3-2.4,2.7-4.7,4-7c2.7-4.7,6.6-5.8,11.3-3.2c2.3,1.3,4.6,2.6,6.7,3.7c2.3-2.2,4.4-4.1,6.5-5.9
				c-1.6-2.8-3.1-5.3-4.4-7.9c-1.9-3.8-0.8-7.6,2.8-9.8c2.9-1.8,5.8-3.6,8.9-5.1c3.9-2,7.7-0.8,10,3c1.2,1.9,2.1,3.9,3.4,5.8
				c0.5,0.7,1.7,1.4,2.4,1.2c2.3-0.4,4.5-1.2,7-1.9c0-2.3,0.2-4.5,0-6.7c-0.4-4.6,1.5-7.7,5.7-9.4c4.7,0,9.4,0,14.1,0
				c7,3.7,4.4,10.5,5.1,16.1c8.2,2.6,8.2,2.6,12.2-4.2c0.2-0.3,0.3-0.6,0.5-0.9c2.5-3.8,6.4-4.9,10.4-2.7c2.6,1.4,5.1,2.9,7.6,4.4
				c4.5,2.6,5.6,6.5,3.3,11c-1.3,2.5-2.7,4.8-3.5,6.3c2.1,2.7,3.9,4.9,5.4,6.9c6-2,11.4-9.8,17.6-1.6c2.9,3.8,5.6,8.6,6,13.1
				c0.5,6.5-7.3,6.9-10.9,10.5c0.8,2.8,1.5,5.4,2.2,8.2c2.3,0,4.5,0.2,6.7,0c4.6-0.4,7.7,1.4,9.4,5.7c0,4.5,0,9,0,13.4
				c-1.6,3.6-4.1,5.8-8.4,5.7c-7.9-0.1-7.9,0-9.9,7.6c-0.1,0.2,0,0.5,0.1,1c2,1.1,4.1,2.4,6.2,3.6c4.9,2.9,6,6.6,3.3,11.5
				c-1.4,2.5-2.7,4.9-4.2,7.4c-2.5,4.3-6.4,5.4-10.8,3c-2.5-1.3-4.9-2.7-7-3.9c-2.4,2.2-4.4,4.1-6.5,6c1.5,2.7,3,5,4.3,7.5
				c2,3.9,1.1,7.7-2.4,9.9c-3,1.9-6,3.7-9.2,5.3c-3.8,1.9-7.5,0.9-9.8-2.7c-1.3-2-2.3-4.1-3.6-6c-0.5-0.7-1.7-1.4-2.4-1.2
				c-2.3,0.4-4.5,1.2-7,1.9c0,2.2-0.2,4.3,0,6.4c0.4,4.7-1.3,8-5.7,9.8c-4.5,0-9,0-13.4,0c-8.1-3.1-5-10.3-5.8-16.1
				c-7.9-2.9-7.9-2.9-12.1,4c-0.2,0.4-0.5,0.8-0.7,1.2c-2.4,3.7-6.2,4.7-10.1,2.7c-2.9-1.5-5.8-3.2-8.5-5c-3.9-2.5-4.8-6.2-2.7-10.3
				c1.3-2.5,2.7-4.9,3.9-6.9c-2.1-2.4-4-4.5-6-6.6c-2.7,1.5-5.1,3-7.6,4.3c-3.9,2-7.7,0.9-10.1-2.8c-1.8-2.8-3.4-5.6-5-8.5
				c-2.1-4-1-7.9,3-10.3c1.9-1.2,3.9-2.1,5.8-3.4c0.7-0.5,1.3-1.7,1.1-2.4c-0.4-2.3-1.2-4.5-1.9-6.9c-2.3,0-4.5-0.1-6.7,0
				C-521.3,94.9-524.5,93-526.2,88.8z M-446.8,42.5c-21.6,0-39.6,18-39.6,39.6c0,22,18,39.7,40.2,39.6c20.9,0,39-18.1,39-39
				C-407.1,60.4-424.7,42.5-446.8,42.5z"/>
			<path class="st3" d="M-446.5,65.4c9.6,0.1,16.6,7.4,16.5,17.3c-0.1,8.9-7.6,16.2-16.7,16.1c-9.7-0.1-16.8-7.3-16.7-17.1
				C-463.3,72.5-455.8,65.3-446.5,65.4z"/>
		</g>
	</g>
</g>
<g id="Layer_6" class="st0">
	<g id="MTwtnQ_1_" class="st2">
		<g>
			<path class="st4" d="M-427.7,106.5c-31.9,23.1-68.8,11.9-86.3-11.2c-18.3-24.2-15.7-58.5,6.3-79.8c22-21.3,56.5-22.8,80.7-3.3
				c22.6,18.1,31.8,53.8,9.4,84.2c1,1.1,2,2.2,3,3.3c1.3,1.5,2.5,2.1,4.6,1.3c3.9-1.3,7.6-0.4,10.6,2.5c9.8,9.6,19.6,19.1,29.1,28.9
				c4.2,4.3,4,10.7,0,15.2c-1.7,2-3.6,3.8-5.5,5.6c-4.9,4.4-11.5,4.4-16.2-0.1c-9.3-9-18.4-18.3-27.6-27.4
				c-3.6-3.6-5.1-7.6-3.4-12.6c0.2-0.8-0.2-2-0.8-2.7C-424.8,109-426.2,107.8-427.7,106.5z M-465.6,108.2
				c27.3,0,49.8-22.2,49.8-49.3c0-27.1-22.3-49.4-49.6-49.5c-27.3-0.1-50,22.5-49.9,49.7C-515.1,86-492.7,108.2-465.6,108.2z"/>
			<path class="st4" d="M-449.4,88.8c-14,9.1-32.6,6.6-43.3-4.8c-11.1-11.9-11.4-29.8-4.4-39.3c0.3,12.9,4.8,23.6,13.9,32.2
				C-474,85.6-462.8,89.2-449.4,88.8z"/>
		</g>
	</g>
</g>
</svg>
