<?xml version="1.0" encoding="utf-8"?>
<!-- Generator: Adobe Illustrator 24.3.0, SVG Export Plug-In . SVG Version: 6.00 Build 0)  -->
<svg version="1.1" id="Layer_1" xmlns="http://www.w3.org/2000/svg" xmlns:xlink="http://www.w3.org/1999/xlink" x="0px" y="0px"
	 viewBox="0 0 143.8 152.6" style="enable-background:new 0 0 143.8 152.6;" xml:space="preserve">
<style type="text/css">
	.st0{display:none;}
	.st1{display:inline;opacity:8.000000e-02;}
	.st2{fill:#7E7E7E;}
	.st3{display:inline;}
	.st4{fill:#698A7E;}
	.st5{opacity:8.000000e-02;fill:#698A7E;enable-background:new    ;}
	.st6{display:inline;fill:#6A8A80;}
	.st7{fill:none;}
	.st8{display:inline;fill:#698A7E;}
	.st9{fill:#FFFFFF;}
	.st10{fill:#9D9E9E;}
</style>
<g id="Layer_1_1_" class="st0">
	<g id="VNr6mR_1_" class="st1">
		<g>
			<path class="st2" d="M143.8,25.3c-0.7,5-1.4,10-2.2,15c-2.1,12.6-9.7,21.5-19.2,29.2c-6.8,5.5-13.5,11.2-20.3,16.6
				c-1.8,1.4-2.7,2.6-2.3,5.2c1.3,8.7-0.6,16.3-7.4,22.5c-4.9,4.5-9.1,9.7-13.7,14.4c-3.2,3.3-4.9,2.8-6-1.7
				c-1.6-6.9-2.9-13.8-4.4-20.7c-3.5-0.5-7,3.4-10.1-0.7c-5,8.4-9.7,16.3-14.4,24.3c-0.3-0.1-0.5-0.1-0.8-0.2
				c-0.3-3.3-0.7-6.6-1.1-10.8c-13.9,11.6-27.3,22.9-40.7,34.1c-0.1-0.1-0.2-0.2-0.4-0.3c6.7-11.4,13.4-22.8,20.4-34.8
				c-7.5,1.5-14.1,2.9-20.8,4.2c-0.1-0.2-0.3-0.4-0.4-0.6c9-7.6,18-15.1,27.9-23.3c-4.1,0-7.2,0-10.3,0c-0.1-0.3-0.1-0.5-0.2-0.8
				c6.8-3.9,13.5-7.7,19.4-11.1c0.2-3.8,0.3-6.9,0.5-10.6C32,74.2,26.5,73,20.9,71.8c-1.8-0.4-3.7-0.7-5.5-1.3
				c-2.8-0.8-3.3-2.5-1.3-4.5c6.7-6.3,13.4-12.6,20.1-18.9c3.7-3.5,8.4-4.1,13.1-3.5c6,0.8,9.9-1.1,13.5-6.1
				c5.4-7.4,11.9-14,17.7-21.1C86.1,7.1,96.4,3,108,1.3c3.3-0.5,6.5-0.9,9.8-1.3c4,0,8,0,12,0c3,1.2,6.1,2.1,8.8,3.8
				c3.6,2.2,4.3,6.3,5.1,10.2C143.8,17.7,143.8,21.5,143.8,25.3z M70.9,98.7c18.4-14.4,37-28,53.6-44c1.4-1.4,2.8-3,3.6-4.7
				c5.9-11.4,6.6-23.7,5.8-36.2c-0.2-2.7-1.8-4.4-4.9-4.3c-5.7,0.2-11.5,0.1-17.2,0.6c-10.8,1-20.3,4.7-27.4,13.5
				c-12.8,16-25.8,31.8-38.6,47.7c-0.3,0.4-0.4,0.9-0.7,1.4C56.4,78.7,65,87,70.9,98.7z M25.8,108.3c0.1,0.1,0.2,0.3,0.3,0.4
				c4.1-1.5,8.3-3,12.9-4.6c-1.2,3.5-2.1,6.3-3.2,9.9c4.1-2.7,7.5-4.8,11-7.1c0.1,1,0.2,1.7,0.3,2.8c3.4-3.5,6.5-6.6,9.7-9.9
				c-2.6-4.8-6.1-8.7-10.7-11.6c-0.8-0.6-2.4-0.8-3.2-0.5c-3,1.3-5.8,3-9.1,4.8c1.8,0.8,3.2,1.3,4.9,2
				C34.2,99.3,30,103.8,25.8,108.3z M66.8,100.8c-5.5-10.9-13.3-18.9-24.4-24.1c-0.4,1.6-0.8,2.9-1.1,4.4
				c10.5,3.8,17.5,10.9,21.2,21.2C64,101.8,65.2,101.4,66.8,100.8z"/>
			<path class="st2" d="M103.4,59.4c-10.7,0-19.5-8.6-19.5-19.2s8.8-19.4,19.4-19.5c10.6-0.1,19.4,8.7,19.4,19.4
				C122.9,50.7,114.2,59.4,103.4,59.4z M88.8,40.1c0,8.4,6.6,15.1,14.8,15c8.2-0.1,14.7-6.6,14.8-14.8c0.1-8.2-6.7-15-14.9-15
				C95.1,25.3,88.8,31.8,88.8,40.1z"/>
		</g>
	</g>
	<g id="VNr6mR_2_" class="st3">
		<g>
			<path class="st4" d="M143.8,24.6c-0.7,5-1.4,10-2.2,15c-2.1,12.6-9.7,21.5-19.2,29.2c-6.8,5.5-13.5,11.2-20.3,16.6
				c-1.8,1.4-2.7,2.6-2.3,5.2c1.3,8.7-0.6,16.3-7.4,22.5c-4.9,4.5-9.1,9.7-13.7,14.4c-3.2,3.3-4.9,2.8-6-1.7
				c-1.6-6.9-2.9-13.8-4.4-20.7c-3.5-0.5-7,3.4-10.1-0.7c-5,8.4-9.7,16.3-14.4,24.3c-0.3-0.1-0.5-0.1-0.8-0.2
				c-0.3-3.3-0.7-6.6-1.1-10.8C27.9,129.5,14.5,140.8,1.1,152c-0.1-0.1-0.2-0.2-0.4-0.3c6.7-11.4,13.4-22.8,20.4-34.8
				c-7.5,1.5-14.1,2.9-20.8,4.2c-0.1-0.2-0.3-0.4-0.4-0.6c9-7.6,18-15.1,27.9-23.3c-4.1,0-7.2,0-10.3,0c-0.1-0.3-0.1-0.5-0.2-0.8
				c6.8-3.9,13.5-7.7,19.4-11.1c0.2-3.8,0.3-6.9,0.5-10.6c-5.3-1.1-10.8-2.3-16.4-3.5c-1.8-0.4-3.7-0.7-5.5-1.3
				c-2.8-0.8-3.3-2.5-1.3-4.5c6.7-6.3,13.4-12.6,20.1-18.9c3.7-3.5,8.4-4.1,13.1-3.5c6,0.8,9.9-1.1,13.5-6.1
				c5.4-7.4,11.9-14,17.7-21.1c7.7-9.4,18-13.6,29.6-15.2c3.3-0.5,6.5-0.9,9.8-1.3c4,0,8,0,12,0c3,1.2,6.1,2.1,8.8,3.8
				c3.6,2.2,4.3,6.3,5.1,10.2C143.8,17.1,143.8,20.8,143.8,24.6z M70.9,98c18.4-14.4,37-28,53.6-44c1.4-1.4,2.8-3,3.6-4.7
				c5.9-11.4,6.6-23.7,5.8-36.2c-0.2-2.7-1.8-4.4-4.9-4.3c-5.7,0.2-11.5,0.1-17.2,0.6c-10.8,1-20.3,4.7-27.4,13.5
				c-12.8,16-25.8,31.8-38.6,47.7c-0.3,0.4-0.4,0.9-0.7,1.4C56.4,78,65,86.4,70.9,98z M25.8,107.7c0.1,0.1,0.2,0.3,0.3,0.4
				c4.1-1.5,8.3-3,12.9-4.6c-1.2,3.5-2.1,6.3-3.2,9.9c4.1-2.7,7.5-4.8,11-7.1c0.1,1,0.2,1.7,0.3,2.8c3.4-3.5,6.5-6.6,9.7-9.9
				c-2.6-4.8-6.1-8.7-10.7-11.6c-0.8-0.6-2.4-0.8-3.2-0.5c-3,1.3-5.8,3-9.1,4.8c1.8,0.8,3.2,1.3,4.9,2
				C34.2,98.7,30,103.2,25.8,107.7z M66.8,100.2c-5.5-10.9-13.3-18.9-24.4-24.1c-0.4,1.6-0.8,2.9-1.1,4.4
				c10.5,3.8,17.5,10.9,21.2,21.2C64,101.1,65.2,100.7,66.8,100.2z"/>
			<path class="st4" d="M103.4,58.7c-10.7,0-19.5-8.6-19.5-19.2s8.8-19.4,19.4-19.5c10.6-0.1,19.4,8.7,19.4,19.4
				C122.9,50.1,114.2,58.7,103.4,58.7z M88.8,39.4c0,8.4,6.6,15.1,14.8,15c8.2-0.1,14.7-6.6,14.8-14.9c0.1-8.2-6.7-15-14.9-15
				C95.1,24.7,88.8,31.1,88.8,39.4z"/>
		</g>
	</g>
</g>
<g id="Layer_2_1_" class="st0">
	<g class="st3">
		<path class="st5" d="M448.9,157.7h-16v16h-16v16h16v16h16v-16h16v-16h-16V157.7z"/>
		<path class="st5" d="M672.8,45.7v-80h-40v-30.1l21-41.9h-89.9l21,41.9v30.1h-20.4c-5.5-9.5-15.8-16-27.5-16h-128
			c-17.6,0-32,14.3-32,32h-40v-32h-120c-22.1,0-40,18-40,40v8h88v16h-88v8c0,22,17.9,40,40,40h120v-32h40c0,17.7,14.4,32,32,32h5.1
			l-26.5,84.8c-6.7,10.1-10.6,22.2-10.6,35.2c0,35.3,28.7,64,64,64c3.2,0,6.2-0.3,9.3-0.8l13,64.8h-11.2l-16,32h-19v48h256v-48h-19
			l-16-32h-13v-60.5L506,177.9l29-116.2h1.8c11.8,0,22-6.5,27.5-16h20.5v22.1l-21,41.9h89.9l-21-41.9V45.7H672.8z M194.2-18.3
			c3.3-9.3,12.2-16,22.6-16h104v16H194.2z M320.9,45.7h-104c-10.4,0-19.3-6.7-22.6-16h126.6V45.7z M336.9,13.7h-56v-16h96v16H336.9z
			 M392.9,181.7c0-26.5,21.5-48,48-48s48,21.5,48,48s-21.5,48-48,48S392.9,208.1,392.9,181.7z M503.4,194.9l52.8,31.7l-85.6,39.5
			l-5.1-25.5C484.7,232.6,499,215.6,503.4,194.9z M571.7,235.9l27.8,16.7l-120.8,53.7l-4.8-24l98.3-45.4L571.7,235.9z M656.8,373.7
			h-224v-16h224V373.7z M635.9,341.7H453.8l8-16h166.1L635.9,341.7z M510.5,309.7l98.3-43.7v43.7H510.5z M496.5,150.1
			c-11-19.4-31.8-32.5-55.6-32.5c-10.8,0-21,2.7-30,7.5l19.8-63.5h87.9L496.5,150.1z M552.8,29.7c0,8.8-7.2,16-16,16h-128
			c-8.8,0-16-7.2-16-16v-48c0-8.8,7.2-16,16-16h128c8.8,0,16,7.2,16,16V29.7z M627.9-90.3l-8,16h-22.1l-8-16H627.9z M600.8-58.3h16
			v24h-16V-58.3z M656.8-18.3v16h-88v-16H656.8z M568.8,13.7h88v16h-88V13.7z M589.8,93.7l8-16h22.1l8,16H589.8z M616.8,61.7h-16
			v-16h16V61.7z"/>
		<path class="st5" d="M440.9-18.3c-13.2,0-24,10.8-24,24s10.8,24,24,24s24-10.8,24-24S454.1-18.3,440.9-18.3z M440.9,13.7
			c-4.4,0-8-3.6-8-8s3.6-8,8-8s8,3.6,8,8S445.3,13.7,440.9,13.7z"/>
		<path class="st5" d="M504.9-18.3c-13.2,0-24,10.8-24,24s10.8,24,24,24s24-10.8,24-24S518.1-18.3,504.9-18.3z M504.9,13.7
			c-4.4,0-8-3.6-8-8s3.6-8,8-8s8,3.6,8,8S509.3,13.7,504.9,13.7z"/>
		<path class="st5" d="M344.3,257.8l12.9-15.5l-33-33l-15.5,12.9c-3.5-1.8-7.1-3.2-10.8-4.5l-1.8-20.1h-46.6l-1.8,20.1
			c-3.7,1.2-7.3,2.7-10.8,4.5l-15.5-12.9l-33,33l12.9,15.5c-1.8,3.5-3.2,7.1-4.5,10.8l-20.1,1.8V317l20.1,1.8
			c1.2,3.7,2.7,7.3,4.5,10.8L188.5,345l33,33l15.5-13c3.5,1.8,7.1,3.2,10.8,4.5l1.8,20.1h46.6l1.8-20.1c3.7-1.2,7.3-2.7,10.8-4.5
			l15.5,13l33-33l-12.9-15.5c1.8-3.5,3.2-7.1,4.5-10.8l20.1-1.8v-46.6l-20.1-1.8C347.5,264.8,346,261.2,344.3,257.8z M352.9,302.4
			l-16.6,1.5l-1.4,5.5c-1.5,6-3.9,11.8-7.1,17l-2.9,4.9l10.7,12.8l-12.3,12.3l-12.8-10.7l-4.9,2.9c-5.3,3.2-11,5.5-17,7.1L283,357
			l-1.5,16.6h-17.4l-1.5-16.6l-5.5-1.4c-6-1.5-11.8-3.9-17.1-7.1l-4.9-2.9l-12.8,10.7l-12.3-12.3l10.7-12.8l-2.9-4.9
			c-3.2-5.3-5.6-11-7.1-17l-1.4-5.5l-16.6-1.5V285l16.6-1.5l1.4-5.5c1.5-6,3.9-11.8,7.1-17l2.9-4.9l-10.7-12.8l12.3-12.3l12.8,10.7
			l4.9-2.9c5.3-3.2,11-5.6,17-7.1l5.5-1.4l1.5-16.6h17.4l1.5,16.6l5.5,1.4c6,1.5,11.8,3.9,17,7.1l4.9,2.9l12.8-10.7l12.3,12.3
			L324.8,256l2.9,4.9c3.2,5.3,5.5,11,7.1,17l1.4,5.5l16.6,1.5L352.9,302.4L352.9,302.4z"/>
		<path class="st5" d="M272.9,245.7c-26.5,0-48,21.5-48,48s21.5,48,48,48s48-21.5,48-48S299.3,245.7,272.9,245.7z M272.9,325.7
			c-17.6,0-32-14.4-32-32s14.4-32,32-32s32,14.4,32,32S290.5,325.7,272.9,325.7z"/>
		<path class="st5" d="M264.9,77.7h16v16h-16V77.7z"/>
		<path class="st5" d="M264.9,109.7h16v16h-16V109.7z"/>
		<path class="st5" d="M264.9,141.7h16v16h-16V141.7z"/>
	</g>
	<path class="st6" d="M-7.4-61.9v-23h-11.5v-8.7l6-12h-25.8l6,12v8.7h-5.9c-1.6-2.7-4.5-4.6-7.9-4.6h-36.8c-5.1,0-9.2,4.1-9.2,9.2
		h-11.5v-9.2h-34.5c-6.3,0-11.5,5.2-11.5,11.5v2.3h25.3v4.6h-25.3v2.3c0,6.3,5.2,11.5,11.5,11.5h34.5v-9.2h11.5
		c0,5.1,4.1,9.2,9.2,9.2h1.5L-89.4-33c-1.9,2.9-3.1,6.4-3.1,10.1c0,10.1,8.2,18.4,18.4,18.4c0.9,0,1.8-0.1,2.7-0.2l3.7,18.6h-3.2
		l-4.6,9.2H-81v13.8h73.5V23.1h-5.5l-4.6-9.2h-3.7V-3.5l-34.1-20.5l8.3-33.4h0.5c3.4,0,6.3-1.9,7.9-4.6h5.9v6.3l-6,12h25.8l-6-12
		v-6.3L-7.4-61.9L-7.4-61.9z M-144.9-80.3c0.9-2.7,3.5-4.6,6.5-4.6h29.9v4.6H-144.9z M-108.6-61.9h-29.9c-3,0-5.6-1.9-6.5-4.6h36.4
		C-108.6-66.5-108.6-61.9-108.6-61.9z M-104-71.1h-16.1v-4.6h27.6v4.6H-104z M-87.9-22.9c0-7.6,6.2-13.8,13.8-13.8
		s13.8,6.2,13.8,13.8S-66.5-9.1-74.1-9.1C-81.7-9.1-87.9-15.2-87.9-22.9z M-56.1-19l15.2,9.1L-65.5,1.4L-67-5.9
		C-61.5-8.2-57.4-13.1-56.1-19z M-36.5-7.3l8,4.8l-34.7,15.4L-64.6,6l28.2-13L-36.5-7.3z M-12.1,32.3h-64.3v-4.6h64.3
		C-12.1,27.7-12.1,32.3-12.1,32.3z M-18.1,23.1h-52.3l2.3-4.6h47.7L-18.1,23.1z M-54.1,13.9l28.2-12.6v12.6H-54.1z M-58.1-31.9
		c-3.2-5.6-9.1-9.3-16-9.3c-3.1,0-6,0.8-8.6,2.2l5.7-18.2h25.2L-58.1-31.9z M-41.9-66.5c0,2.5-2.1,4.6-4.6,4.6h-36.8
		c-2.5,0-4.6-2.1-4.6-4.6v-13.8c0-2.5,2.1-4.6,4.6-4.6h36.8c2.5,0,4.6,2.1,4.6,4.6C-41.9-80.3-41.9-66.5-41.9-66.5z M-20.4-101
		l-2.3,4.6H-29l-2.3-4.6H-20.4z M-28.1-91.8h4.6v6.9h-4.6V-91.8z M-12.1-80.3v4.6h-25.3v-4.6H-12.1z M-37.3-71.1h25.3v4.6h-25.3
		V-71.1z M-31.3-48.1l2.3-4.6h6.4l2.3,4.6H-31.3z M-23.5-57.3h-4.6v-4.6h4.6V-57.3z"/>
</g>
<g id="Layer_3" class="st0">
	<g class="st3">
		<rect x="22.6" y="12.4" class="st7" width="103.7" height="2.6"/>
		<rect x="15.5" y="102" class="st7" width="117.9" height="7.7"/>
		<path class="st7" d="M138.6,86.9c0-20.8,0-41.5,0-62.3c0-4.4-0.3-4.6-4.8-4.6c-20.7,0-41.3,0-61.9,0s-41.3,0-62,0
			c-4.5,0-4.8,0.3-4.8,4.6c0,20.8,0,41.5,0,62.3c0,4.2,0.5,4.7,4.8,4.7c41.3,0,82.6,0,123.9,0C138.1,91.6,138.6,91.1,138.6,86.9z
			 M69.4,44.3c-0.3,0.4-0.7,0.9-1.1,1.3c-9.6,9.6-19.2,19.1-28.9,28.7c-1.4,1.4-2,1.4-3.4,0c-5.4-5.5-10.8-11-16.1-16.6
			c-0.3-0.3-0.5-0.6-0.8-0.9c0-0.3,0-0.6,0-0.9c1.8-1.6,3.5-3.3,5.3-4.9c0.8-0.7,1.6-0.2,2.2,0.5c3.1,3.2,6.2,6.3,9.3,9.4
			c1.5,1.5,2,1.5,3.5,0c7.4-7.4,14.9-14.7,22.3-22.1c1.3-1.3,1.9-1.3,3.2,0c1.5,1.5,3,3.1,4.5,4.6C69.4,43.7,69.4,44,69.4,44.3z
			 M110.7,56.9c3.7,3.6,7.3,7.3,11,10.9c1.3,1.3,1.3,2,0,3.2c-1.9,1.9-3.8,3.8-5.7,5.7c-1.1,1.1-1.9,1.1-3,0
			c-3.7-3.7-7.5-7.4-11.2-11.1c-0.8-0.8-1.3-0.8-2.1,0c-3.5,3.5-7,7-10.5,10.4c-0.3,0.3-0.7,0.7-1,0.9c-0.9,0.7-1.7,0.8-2.4,0
			c-2.2-2.1-4.3-4.2-6.4-6.3c-0.9-0.9-0.8-1.7,0.2-2.7c3.8-3.8,7.5-7.5,11.4-11.2c0.8-0.8,0.8-1.2,0-2c-3.6-3.5-7.2-7.1-10.8-10.6
			c-1.7-1.7-1.7-2.2,0-3.9c1.6-1.6,3.2-3.2,4.8-4.7c2-2,2.3-2,4.3,0c3.5,3.5,7,7,10.5,10.5c0.8,0.8,1.2,0.8,2,0
			c3.7-3.7,7.4-7.4,11.2-11.1c1.2-1.2,1.9-1.2,3.1,0c2,2,3.9,3.9,5.9,5.9c0.4,0.4,0.6,0.9,1,1.5c-0.4,0.6-0.7,1.1-1.1,1.5
			c-3.7,3.7-7.3,7.4-11.1,11C109.8,55.6,109.8,56,110.7,56.9z"/>
		<path class="st5" d="M90.8,142.5c-12.7,0-25.3,0-38,0c-5.1,0-7.2-2.4-6.1-6.5H22.6v8.9h100.2V136H96.9
			C98,140.1,96,142.5,90.8,142.5z"/>
		<path class="st5" d="M61.8,38.8C54.4,46.1,47,53.5,39.5,60.8c-1.5,1.4-2,1.4-3.5,0c-3.1-3.1-6.2-6.3-9.3-9.4
			c-0.7-0.7-1.5-1.1-2.2-0.5c-1.8,1.6-3.5,3.2-5.3,4.9c0,0.3,0,0.6,0,0.9c0.2,0.3,0.5,0.6,0.8,0.9c5.4,5.5,10.7,11.1,16.1,16.6
			c1.4,1.4,2,1.4,3.4,0c9.6-9.6,19.3-19.1,28.9-28.7c0.4-0.4,0.7-0.8,1.1-1.3c0-0.3,0-0.6,0-0.9c-1.5-1.5-3-3.1-4.5-4.6
			C63.7,37.5,63.1,37.5,61.8,38.8z"/>
		<path class="st5" d="M121.7,43.7c0.4-0.4,0.7-0.9,1.1-1.5c-0.4-0.6-0.6-1.1-1-1.5c-1.9-2-3.9-3.9-5.9-5.9c-1.2-1.2-1.9-1.2-3.1,0
			c-3.7,3.7-7.5,7.4-11.2,11.1c-0.8,0.8-1.2,0.8-2,0c-3.5-3.5-7-7-10.5-10.5c-2-2-2.3-2-4.3,0c-1.6,1.6-3.2,3.2-4.8,4.7
			c-1.7,1.7-1.7,2.2,0,3.9c3.6,3.5,7.2,7.1,10.8,10.6c0.8,0.8,0.8,1.2,0,2c-3.8,3.7-7.6,7.5-11.4,11.2c-1,1-1.1,1.8-0.2,2.7
			c2.1,2.1,4.2,4.3,6.4,6.3c0.8,0.8,1.6,0.7,2.4,0c0.3-0.3,0.7-0.6,1-0.9c3.5-3.5,7.1-6.9,10.5-10.4c0.8-0.8,1.3-0.8,2.1,0
			c3.7,3.7,7.4,7.4,11.2,11.1c1.1,1.1,1.9,1.1,3,0c1.9-1.9,3.8-3.8,5.7-5.7c1.3-1.3,1.3-2,0-3.2c-3.7-3.6-7.3-7.3-11-10.9
			c-0.8-0.8-0.8-1.3,0-2.1C114.4,51.1,118.1,47.4,121.7,43.7z"/>
		<path class="st5" d="M134,122c3.3-0.1,6.5-1.5,9.7-2.3c0-36.6,0-73.3,0-109.9c-47.9,0-95.8,0-143.7,0c0,36.7,0,73.3,0,109.9
			c3.2,0.8,6.5,2.2,9.7,2.3c12.6,0.3,25.3,0.1,38,0.1c1.1,0,2.3,0,4.5,0c-1.7,4.4-3,8.1-4.7,11.7c-0.4,0.8-0.6,1.5-0.8,2.2h50.2
			c-0.2-0.7-0.4-1.4-0.8-2.2c-1.6-3.6-2.9-7.3-4.6-11.7c2.2,0,3.3,0,4.5,0C108.7,122.1,121.4,122.3,134,122z M22.6,12.4h103.7V15
			H22.6V12.4z M5.1,86.8c0-20.8,0-41.5,0-62.3c0-4.4,0.3-4.6,4.8-4.6c20.6,0,41.3,0,62,0s41.3,0,62,0c4.5,0,4.8,0.3,4.8,4.6
			c0,20.8,0,41.5,0,62.3c0,4.2-0.5,4.7-4.8,4.7c-41.3,0-82.6,0-123.9,0C5.6,91.6,5.1,91.1,5.1,86.8z M15.5,109.7V102h117.9v7.7H15.5
			z"/>
		<path class="st5" d="M52.9,142.5c12.6,0,25.3,0,38,0c5.1,0,7.2-2.4,6.1-6.5H46.7C45.7,140.1,47.8,142.5,52.9,142.5z"/>
	</g>
</g>
<g id="Layer_4" class="st0">
	<g id="fNdCKC_1_" class="st3">
		<g>
			<path class="st4" d="M39,122.4c8.1-4.6,16.4-9.3,25.2-14.2c4.7,7.4,9.3,14.6,14,22.1c14.1-22.5,27-45.6,54.7-59
				c-0.1,10.6-2.4,20.4,2.1,29.9c-19.2,10.7-30.7,21.5-55,51.5c-6.4-5.7-12.2-11.8-19.1-16.9C54.2,130.8,46.4,126.8,39,122.4z"/>
			<path class="st4" d="M100.8,39.8c-23.9,0-47.5,0-71.3,0c0-3.4-0.1-6.6,0-9.8c0.1-2.3,2.1-2.9,4.3-2.9c4.5,0,8.9,0,13.4,0
				c1.4,0,2.8-0.1,4.5-0.2c0-5.5,0-10.7,0-15.9c0-7.7,5-11.6,14.6-11.6c8.3,0,13.3,4.5,13.3,11.8c0,5.1,0,10.3,0,16
				c5.2,0,10.2,0,15.3,0c5.2,0,6,0.8,6,5.3C100.8,34.8,100.8,37.2,100.8,39.8z M70.9,17.1c0.1-2.4-2.2-4.5-5-4.5
				c-2.8,0-5.1,1.9-5.1,4.4c-0.1,2.4,2.2,4.5,5,4.5C68.6,21.6,70.9,19.6,70.9,17.1z"/>
			<path class="st4" d="M46.9,13.3c0,2.7,0,5,0,7.8c-5.7,0-11.3,0-16.9,0c-2,0-4.1,0-6.1,0.1c-4,0.4-6.5,2.7-6.5,6.2
				c0,34.2,0,68.4,0,102.6c0,3.7,2.5,6.1,6.8,6.3c5,0.2,10,0.1,14.9,0.1c8,0,12.4,1.8,18.4,7.6c-1.2,0.1-2.1,0.2-3.1,0.2
				c-11.4,0-22.7,0-34.1,0c-8.4,0-11-2.4-11-9.6c0-37.2,0-74.4,0-111.6c0-7.3,2.6-9.6,10.9-9.7C29,13.3,37.7,13.3,46.9,13.3z"/>
			<path class="st4" d="M112.9,73.6c0-12.3,0-24.4,0-36.4c0-2.8,0.1-5.6,0-8.4c0-5.2-2.7-7.5-8.7-7.6c-6.3-0.1-12.7,0-19.3,0
				c0-2.6,0-4.9,0-7.8c1.4,0,2.9,0,4.3,0c7.3,0,14.6-0.1,21.8,0c6.8,0.1,9.7,2.8,9.7,8.7c0,13-0.4,26,0.2,39
				C121.2,66.9,119.4,70.9,112.9,73.6z"/>
			<path class="st4" d="M120.8,121.7c0,5.8,0.1,10.8,0,15.7c-0.1,3.6-2.9,6.4-7.6,6.7c-5,0.3-10.1,0.1-16.1,0.1
				c3.8-3.2,4.8-7.5,10.6-8.1c1.9-0.2,4.7-2.9,4.8-4.5C112.7,126.5,116.9,125,120.8,121.7z"/>
			<path class="st4" d="M99.1,73.1c-18.4,0-36.6,0-54.8,0c-3.4,0-6.9,0.1-10.3-0.1c-0.9,0-1.7-0.8-2.6-1.2c0.8-0.6,1.7-1.6,2.5-1.6
				c9.9-0.1,19.9-0.1,29.8-0.1c10.9,0,21.9,0.1,32.9,0C98.8,70.1,100.2,70.4,99.1,73.1z"/>
			<path class="st4" d="M99.2,81.9c-7.5,0-14.9,0-22.2,0c-14.2,0-28.3,0-42.5-0.1c-1,0-2-1-3-1.5c1-0.4,1.9-1.2,2.9-1.3
				c20.7-0.1,41.4-0.1,62.1-0.1C98.2,78.9,100.2,78.8,99.2,81.9z"/>
			<path class="st4" d="M31.8,90.6c-1-3.4,1.4-2.8,3.2-2.8c17.4,0,34.7,0,52.1,0c3.9,0,7.9,0,11.9,0c1.6,3-0.7,2.9-2.8,2.9
				c-15.2,0-30.4,0-45.6,0C44.4,90.6,38.2,90.6,31.8,90.6z"/>
			<path class="st4" d="M55.4,57.5c-7.3,0-14.7,0-22-0.1c-0.6,0-1.3-0.9-1.9-1.4c0.7-0.5,1.3-1.4,2-1.4c6.7-0.1,13.5-0.2,20.2,0
				c0.8,0,1.7,1.3,2.5,2C55.8,56.9,55.6,57.2,55.4,57.5z"/>
			<path class="st4" d="M55,64.2c-7.7,0-15.4,0-23.2,0c-0.8-1.8-0.5-2.8,1.9-2.8c6.5,0,12.9-0.1,19.4,0.1c1,0,1.9,1.1,2.9,1.7
				C55.7,63.6,55.4,63.9,55,64.2z"/>
		</g>
	</g>
</g>
<g id="Layer_5" class="st0">
	<g id="_x34_hK3Jt_1_" class="st1">
		<g>
			<path class="st4" d="M19.8,152.6c-6.9-0.2-13.8-4.1-17.7-12.2c-4-8.3-3.3-16.7,2.6-23.7c6.2-7.4,13.4-14.2,20.3-21
				c0.9-0.9,2.6-1.1,4.1-1.3c5.9-0.9,8.9-3.8,9.4-9.9c0.4-4.1,3.3-6.1,6-8.1c0.6-0.5,2.7,0.1,3.4,0.9c8.9,8.7,17.7,17.5,26.4,26.5
				c0.8,0.9,0.9,3.7,0.1,4.8c-1.9,2.7-4.2,5-8.2,5c-4.3,0-7.6,4.2-8.5,8.5c-0.5,2.3-1.5,4.9-3.1,6.6c-5.4,5.9-11.1,11.4-16.8,17.1
				C33.4,150.1,28.2,152.6,19.8,152.6z M36.9,108.5c-1-1.2-1.7-2.9-2.7-3c-1.5-0.2-3.6,0.2-4.6,1.2c-5.7,5.4-11.1,11.1-16.6,16.7
				c-1.7,1.8-2.4,3.8-0.6,5.7c2.1,2.2,4.1,1.2,5.9-0.6c5.4-5.5,10.9-11,16.2-16.5C35.4,111,36,109.8,36.9,108.5z M25.3,141.2
				c1-0.4,1.9-0.6,2.4-1.1c6.2-6.2,12.5-12.4,18.4-18.9c0.7-0.8,0.4-3.7-0.5-4.5c-0.9-0.8-3.7-0.9-4.5-0.2
				c-6.3,6-12.3,12.2-18.2,18.5c-0.7,0.8-0.7,2.9-0.3,4.1C22.9,140,24.4,140.5,25.3,141.2z"/>
			<path class="st4" d="M76,54.9c-2.4,2-4.6,4-8,6.8c-1.9-2.3-4.2-5.1-6.6-7.8c-1.8-2.1-4.1-3-6.3-0.7c-2.1,2.2-1.1,4.5,0.9,6.4
				c2.6,2.4,5.2,4.7,8,7.2c-2.9,2.7-5,4.7-8.2,7.6c-0.8-1.2-1.8-2.9-3-4.3c-4.6-5.4-10.4-7.5-17.5-7.4C17.3,63,3.3,48.4,4.1,30.2
				c0.1-1.9,0.6-3.7,1-6.4c1.7,1.1,3,1.6,4,2.5c3.2,3.1,6.3,6.3,9.5,9.4c4.9,4.7,10.2,4.5,14.9-0.3c9-9,11.3-13.3-0.1-23.6
				c-2-1.8-3.9-3.7-5.7-5.8c-0.8-0.9-1.9-2.4-1.7-3.3c0.2-0.9,2-1.6,3.1-1.9c15.3-3.4,31.7,6.8,35.6,22.2c0.8,3.1,1.2,6.5,0.9,9.7
				C64.8,40.7,67.3,47,73.3,52C74.2,52.8,74.9,53.7,76,54.9z"/>
			<path class="st4" d="M62.8,80.1c1.5-1.9,2.4-3.2,3.5-4.4c12-12.2,23.9-24.4,36.1-36.3c3.7-3.6,6-7.2,5-12.4
				c-0.7-4.1,1-6.4,4.8-8.1c6.9-3.1,13.6-6.6,20.2-10.2c3.2-1.8,5.1-0.6,7.3,1.7c2.1,2.2,3.8,3.9,1.9,7.3c-3.9,7.3-7.5,14.7-11,22.2
				c-1.2,2.6-2.8,4-5.6,3.5c-6.5-1-10.9,1.7-15.4,6.5c-11.2,12-22.9,23.5-34.5,35.1c-1.2,1.2-4.1,2.6-5,2
				C67.6,85.3,65.4,82.6,62.8,80.1z"/>
			<path class="st4" d="M85,87.9c2.1,2.2,4.5,4.8,6.9,7.2c10.4,10.5,20.9,20.9,31.3,31.4c0.7,0.7,1.3,1.3,2,2c1.8,1.9,4,2.6,6,0.6
				c2-2,1.4-4.2-0.5-6.1c-2.9-2.9-5.8-5.8-8.6-8.6c-9.7-9.7-19.4-19.3-29.1-29c-1-1-2-2.1-3-3.1c2.2-2.3,4.3-4.3,6.6-6.6
				c0.2,0.1,0.7,0.3,1,0.7c13.7,13.7,27.4,27.4,41.1,41.1c4,4,5.3,8.9,3.7,14.2c-1.6,5.4-5.5,9.1-11.1,9.2c-3.4,0.1-7.7-0.8-10-2.9
				c-14.8-14.1-29.1-28.7-43.8-43.3C80.1,92.4,82.3,90.4,85,87.9z"/>
		</g>
	</g>
	<g id="vwK9Yq_1_" class="st3">
		<g>
			<path class="st4" d="M-81.9-155c3.1,0.9,6.1,1.7,9.2,2.6c0,0.2,0.1,0.3,0.1,0.5c-12.8,2.6-25.6,5.3-38.7,7.9
				c0.2,5.8,0.3,11.5,0.9,17.1c0.1,1.1,2.5,1.9,4.2,3.1c0-6.2,0-11.7,0-17.5c4.4-0.9,8.8-1.9,13.2-2.8c8.7-1.8,17.4-3.6,26.1-5.3
				c1.1-0.2,2.3-0.2,3.4,0.1c3.7,0.9,7.4,1.9,10.6,2.8c0,7.2,0.1,14.3,0,21.3c-0.1,7.9-0.5,15.8-0.7,23.7c0,1.4-0.3,2.2-1.8,2.7
				c-12.2,4.4-24.3,9-36.5,13.4c-0.9,0.3-2.3,0.1-3.1-0.4c-7.7-5.4-15.3-10.8-22.9-16.3c-0.7-0.5-1.3-1.4-1.4-2.2
				c-0.8-14.4-1.6-28.9-2.3-43.6c3.3-0.6,6.6-1.2,9.8-1.8c9.5-1.6,18.9-3.2,28.4-4.9c0.2,0,0.4-0.2,0.6-0.3
				C-82.6-155-82.2-155-81.9-155z M-150.5-101c0.4,0,0.8,0,1-0.1c10.2-3.7,20.4-7.4,30.5-11.2c0.7-0.2,1.3-1.4,1.3-2.2
				c0.2-6.1,0.4-12.2,0.5-18.3c0.1-6.1,0-12.3,0-18.6c-0.5,0.1-1.1,0.1-1.7,0.3c-10,2.4-20,4.9-30,7.3c-1.5,0.4-2,0.9-2,2.4
				c0.1,12.7,0.1,25.5,0.2,38.2C-150.6-102.4-150.5-101.8-150.5-101z M-143.2-165.1c3.1,0.9,6.1,1.7,9.1,2.6c0,0.2,0.1,0.3,0.1,0.5
				c-12.8,2.6-25.6,5.3-38.7,7.9c0.2,5.8,0.3,11.5,0.9,17.1c0.1,1.1,2.5,1.9,4.2,3.1c0-6.2,0-11.7,0-17.5c4.4-0.9,8.8-1.9,13.2-2.8
				c8.7-1.8,17.4-3.6,26.1-5.3c1.1-0.2,2.3-0.2,3.4,0.1c3.7,0.9,7.4,1.9,10.6,2.8c0,7.2,0.1,14.3,0,21.3c-0.1,7.9-0.5,15.8-0.7,23.7
				c0,1.4-0.3,2.2-1.8,2.7c-12.2,4.4-24.3,9-36.5,13.4c-0.9,0.3-2.4,0.1-3.1-0.4c-7.7-5.4-15.3-10.8-22.9-16.3
				c-0.7-0.5-1.3-1.4-1.4-2.2c-0.8-14.4-1.6-28.9-2.3-43.6c3.3-0.6,6.6-1.2,9.8-1.8c9.5-1.6,18.9-3.2,28.4-4.9
				c0.2,0,0.4-0.2,0.6-0.3C-143.8-165.1-143.5-165.1-143.2-165.1z"/>
			<path class="st4" d="M-41.7-98c-0.4,3.2-0.7,6.4-1.1,9.7c-0.1,0.8-0.5,1.8-1.1,2.1c-2.9,1.5-5.9,2.7-9,4.1c0-2.3,0-4.3,0-6.6
				c-5,2.2-9.7,4.3-14.5,6.4c-1,0.4-1.9,1.1-3,1.3c-3.3,0.8-4.5,2.8-4,6C-74-72.8-75-71.8-77-71c-3,1.2-5.9,2.6-9.1,4.1
				c0-2.4,0-4.4,0-6.9c-1.6,0.6-2.9,1.2-4.2,1.7c-5.8,2.6-11.5,5.2-17.3,7.6c-1.9,0.8-3,1.8-2.5,3.9c0.8,3.6-1.2,5-4.2,6.8
				c-6.4,3.9-11,2.9-16.8-1.8c-17.1-13.9-34.8-27.1-52.4-40.4c-2.4-1.8-2.3-4.1-2.7-6.5c-0.3-1.6-0.4-3.3-0.6-4.9c0-0.6,0-1.2,0-1.8
				c3.7-1.3,7.4-2.7,11.2-3.7c0.9-0.2,2.2,0.4,3.1,1c19.4,13.4,38.8,26.7,58,40.3c3.7,2.6,6.5,2.9,10.1,0.1
				c-3.5-2.4-6.9-4.8-10.9-7.4c4.5-1.6,8.6-3,12.6-4.4c0.5-0.2,1.3,0.2,1.8,0.6c1.8,1.1,3.7,2,5.2,3.4c3.1,2.8,6.1,2.5,9.4-0.1
				c-3.2-2-6.3-4-9.7-6.2c3.9-1.6,7.5-3.1,11.2-4.4c0.8-0.3,1.9-0.1,2.7,0.3c1.6,0.8,3.1,1.8,4.4,2.9c2.9,2.6,5.6,2.2,8.6-0.2
				c-2.7-1.8-5.4-3.6-8.5-5.6c3.6-1.4,6.7-2.7,9.9-3.8c0.6-0.2,1.5,0.1,2.2,0.4c1.5,0.7,3.1,1.4,4.4,2.4c2.8,2.2,5.4,1.8,8.3-0.4
				c-2.7-1.6-5.2-3.4-7.8-4.7c-2.1-1-2.9-2.4-2.5-4.7c0.3-1.7,0.3-3.5,0.5-5.8c7.1,3.7,14,7.2,20.8,10.7
				C-41.7-98.4-41.7-98.2-41.7-98z M-152.6-84.4c-0.9,4.5-0.2,7.8,3.9,10.2c4.1,2.5,7.8,5.8,11.6,8.7c1.8,1.3,3.6,2.6,5.5,4
				c0.7-4.7,0.1-8.1-4.2-10.8C-141.6-75.8-146.9-80.2-152.6-84.4z M-163.4-85.4c0.3-0.1,0.6-0.3,0.9-0.4c-0.5-2.3-0.3-5.6-1.8-6.9
				c-5.1-4.5-10.9-8.3-17.2-12.9c0.6,3.1,0.2,6.2,1.6,7.4C-174.6-93.6-168.9-89.6-163.4-85.4z"/>
			<path class="st4" d="M-158.9-118.6c0.3,3.7,0.5,6.8,0.7,10.6c-3.7-2.5-7-4.7-10.8-7.2C-165.3-116.5-162.2-117.5-158.9-118.6z"/>
			<path class="st4" d="M10.1-142.3c1.8,3.2,3.4,6.1,5.2,9.2c-0.9,0.4-1.8,0.7-3.4,1.4c0,5.5,0,11.3,0,17.1c0,3.9,0,3.9-4.4,4.7
				c0-6.8,0-13.6,0-20.5c-0.9,0-1.8,0-3,0C6.4-134.5,8.2-138.3,10.1-142.3z"/>
			<path class="st4" d="M35-133c-3.2,0.2-3.2,2.2-3.3,4.4c0,4.7-0.4,9.5-0.3,14.2c0,2.9-1,4.2-3.8,4.2c0-6.7,0-13.4,0-20.3
				c-0.6-0.1-1.4-0.2-2.6-0.4c1.7-3.6,3.3-7.1,5.2-11.1C31.9-138.8,33.4-136.1,35-133z"/>
			<path class="st4" d="M82.3-124.4c-0.5,1-0.8,2.5-1.6,2.8c-8.6,3.2-17.2,6.2-25.8,9.2c-0.9-2.5-0.2-3.7,2.2-4.4
				c8.2-2.5,16.3-5.3,24.4-8.1C81.8-124.7,82-124.6,82.3-124.4z"/>
		</g>
	</g>
</g>
<g id="Layer_6" class="st0">
	<g id="g8cFVo_1_" class="st1">
		<g>
			<path class="st4" d="M-44-64.3c-2.1,1.4-4.1,2.9-6.2,4.1c-3,1.7-7.4,2.4-8.9,4.9c-1.6,2.6-0.6,6.9-0.6,10.4
				c0,8.6-0.1,17.1,0,25.7c0,2.7-0.8,4.3-3.2,5.6C-75.5-6.7-88,0.3-100.6,7.2c-1.5,0.8-3.8,1.1-5.4,0.6c-18-5.4-36-10.9-54-16.4
				c-2.6-0.8-3.5-2.3-3.5-4.9c0.1-11.3,0-22.6,0.1-34c0-2.2-0.6-3.3-2.8-3.7c-3.6-0.7-7.1-1.7-10.6-2.7c-1.7-0.5-3.2-1.6-4.7-2.4
				c0-0.8,0-1.6,0-2.5C-175.8-66.9-170-75-164-83c0.9-1.2,2.4-2.3,3.8-2.8c13.1-4.9,26.1-9.7,39.2-14.4c1.3-0.5,2.8-0.7,4.1-0.5
				c16.9,2.4,33.8,5,50.8,7.3c2.7,0.4,4.2,1.4,5.6,3.5C-55-82.1-49.5-74.5-44-66.8C-44-66-44-65.2-44-64.3z M-156.7-48.7
				c0,10.8,0.1,20.9-0.1,31.1c0,2.1,0.7,2.9,2.7,3.5c12.5,3.7,24.9,7.6,37.3,11.4c3.1,0.9,6.2,1.8,9.4,2.8c0-20.1,0-39.8,0-59.9
				c-0.5,0.7-0.8,0.9-1,1.2c-3.6,5.3-7.2,10.6-10.7,16c-1.3,2-2.9,3-5.4,2.1c-2.1-0.7-4.3-1.1-6.5-1.7
				C-139.3-44.2-147.8-46.4-156.7-48.7z M-99.7-55c-0.1,0.1-0.3,0.1-0.4,0.2c0,17.8,0,35.6,0,53.7c1.2-0.6,2.2-1.1,3.2-1.6
				c8.4-4.6,16.6-9.5,25.1-13.8c4-2,5.5-4.3,5.3-8.8c-0.4-8.8-0.1-17.7-0.1-26.8c-1.2,0.5-2,0.8-2.8,1.2c-6.2,3-12.5,6-18.7,8.9
				c-3.5,1.7-4.9,1.2-6.5-2.3C-96.4-47.9-98-51.4-99.7-55z M-109.7-69c-0.6-0.2-1-0.5-1.3-0.5c-15.5-2.9-31-5.7-46.5-8.5
				c-0.8-0.1-2.1,0.6-2.6,1.3c-3.1,4-6,8.2-9,12.3c-1,1.4-2,2.9-3.2,4.5c15.7,4.1,30.9,8,46.2,11.9c0.8,0.2,2.4-0.1,2.8-0.7
				C-118.7-55.3-114.2-62.1-109.7-69z M-89.3-49.1c12.4-6,24.4-11.7,36.6-17.6c-4.5-6.5-8.8-12.5-13.1-18.7
				C-77-80.2-88-75.1-99.1-70C-95.8-62.9-92.6-56.2-89.3-49.1z M-146.7-83.4c0.8,0.4,1.1,0.6,1.3,0.6c12.6,2.3,25.2,4.7,37.8,6.8
				c1.9,0.3,4.3,0.2,6.1-0.6c7.6-3.3,15-6.9,22.4-10.3c0.5-0.2,0.8-0.6,1.5-1.1c-11.3-1.7-22.1-3.3-33-4.9c-2.8-0.4-5.9-1.3-8.4-0.5
				C-128.1-90.6-137.1-87-146.7-83.4z"/>
		</g>
	</g>
	<path class="st8" d="M131,97.9c4.5,1.2,8.6,2.2,12.8,3.2c-1.8-5.8-3.6-11.5-5.5-17.2c-2-6.2-4.2-12.3-6.2-18.4
		c-0.6-1.8-1.4-2.7-3.5-3.3c-12.5-3.4-25-6.9-37.6-10.4c5.7-5.3,9.5-12.8,9.3-21.4C100.6,14,86.6,1.3,71.3,1.3
		c-15.2,0-29.1,12.6-29,29.2c0,9.3,4.3,17.3,10.8,22.5c-11.8,5.7-23.6,11.2-35.3,17.1c-1.9,0.9-3.6,2.8-4.4,4.6
		C9,84.4,4.9,94.3,0.8,104.2c-0.2,0.5-0.5,0.9-0.8,1.4c0,0.2,0,0.3,0,0.5c4.2,1.2,8.5,2.2,12.6,3.5c0.8,0.2,1.6,1.4,1.7,2.2
		c0.2,4.5,0.1,9,0.1,13.5c0,4.3,1.9,7.1,6.4,8.4c21.3,6.5,42.6,12.9,63.9,19.4c0.2,0.1,0.3,0.2,0.4,0.3c0.6,0,1.2,0,1.7,0
		c2.3-1.2,4.8-2.2,6.8-3.8c10.8-8.5,21.4-17.1,32.1-25.6c3.6-2.8,5.4-6.2,5.3-10.7C130.9,108.4,131,103.3,131,97.9z M131.1,79.3
		c0.1,0,0.3-0.1,0.4-0.1c1.7,4.9,3.5,9.8,5.4,15.3c-2.2-0.5-4-1-5.9-1.4C131.1,88.4,131.1,83.9,131.1,79.3z M49.1,33.5
		c2.2-2.2,4.4-4.4,6.8-6.9c2.7,2.7,5.4,5.4,8.2,8.3c2.7-2.7,5.4-5.3,8-8c4.6-4.6,9.1-9.1,13.7-13.8c0.9-0.9,1.5-1,2.4,0
		c1.4,1.5,2.8,3,4.4,4.4c1.2,1.1,1.2,1.8,0.1,2.9c-8.5,8.5-17,17-25.5,25.5c-1.2,0.6-2.4,1.2-3.7,1.8C58.5,42.8,53.7,38.1,49.1,33.5
		z M56.9,55.7c2.8,1.7,6,2.8,9.2,3.5c0,7.1,0,14.1,0,21.3c-13.7-3.2-27.2-6.3-41.5-9.5C35.6,65.7,46.2,60.7,56.9,55.7z M6.6,103.1
		c4.2-9.9,8.3-19.7,12.2-29.1C40,79.6,60.8,85.2,81.9,90.8c-3,10.5-5.9,20.6-8.9,31.2C50.9,115.7,29,109.4,6.6,103.1z M84.2,147.5
		c-7.6-2.3-14.9-4.5-22.3-6.8c-13.3-4.1-26.7-8.2-40-12.1c-1.9-0.6-2.5-1.4-2.5-3.2c0.1-4.5,0-9,0-13.9c19.1,5.4,37.8,10.8,57,16.2
		c2.5-8.6,5-17.1,7.4-25.6c0.1,0,0.2,0,0.4,0C84.2,117.1,84.2,132.1,84.2,147.5z M83.8,85.7c-3.6-0.9-7.2-2-10.7-3.2
		c-0.8-0.3-1.7-1.2-1.7-1.9c-0.1-6.9-0.1-13.9-0.1-21c0.1,0,0.2,0,0.2,0c5.6,0,11-1.8,15.6-4.8C99,58,110.9,61.1,123,64.3
		c-3.2,1.9-5.9,3.5-8.7,5.1c-8.9,5.3-17.7,10.6-26.7,15.8C86.6,85.8,85,86,83.8,85.7z M125.8,114.3c0,1.2-0.5,2.7-1.4,3.5
		c-11.1,9.4-22.3,18.6-33.4,27.9c-0.3,0.3-0.7,0.5-1.3,1.1c-0.1-1.2-0.2-2.1-0.2-2.9c0-16.9,0-33.9-0.1-50.8c0-2,0.6-3.2,2.5-4.3
		c10.4-6,20.8-12.2,31.2-18.3c0.7-0.4,1.4-0.8,2.6-1.4c0.1,1.1,0.2,1.9,0.2,2.8C125.9,86,125.9,100.2,125.8,114.3z"/>
	<g id="CxAPH4_1_" class="st3">
		<g>
			<path class="st9" d="M-74.3,59.3c-5.3-1.3-11.3-2.6-17.2-4.2c-1.5-0.4-2.8-1.7-4.2-2.6c0.9-1.5,1.6-3.3,2.9-4.3
				c11.2-8.4,22.5-16.7,33.7-25c15-11.1,30-22.1,45-33.2c2.4-1.8,4.6-2.7,7.7-1.8c4.4,1.2,9.1,1.7,14.6,2.7C4.2-5.8,0.8-3-2.6-0.3
				C-24.7,17.4-46.8,35-68.9,52.8C-70.8,54.3-72.1,56.6-74.3,59.3z"/>
			<path class="st9" d="M-33.7-16.6C-45.4-8.7-56.1-1.5-66.8,5.8c-17.4,11.7-34.8,23.4-52.1,35.2c-2,1.4-3.4,3.6-5.6,5.8
				c-4.7-1.1-10.2-2.4-15.6-3.9c-1.4-0.4-2.6-1.6-3.9-2.4c1-1.4,1.6-3.2,3-4c18.9-12.1,37.9-24,56.9-36c9.3-5.9,18.7-11.6,27.8-17.6
				c3.3-2.2,6.4-3,10.2-1.9C-42.4-18-38.6-17.5-33.7-16.6z"/>
			<path class="st9" d="M-171.4,35.2c-3.8-0.9-8.6-2-13.4-3.4c-1.3-0.4-2.4-1.7-3.6-2.5c0.9-1.2,1.6-2.9,2.8-3.6
				c11.1-6.3,22.4-12.4,33.6-18.6c18.2-10.1,36.4-20.1,54.5-30.3c4.6-2.6,9.1-4.5,14.5-2.5c2.6,0.9,5.5,1.1,9.6,1.8
				c-2.4,1.5-3.8,2.4-5.3,3.3c-28.9,16.8-57.8,33.6-86.7,50.4C-167.3,30.9-168.7,32.8-171.4,35.2z"/>
			<path class="st9" d="M7.9-2.6c0.4,7.9,0.8,14.2-6.4,20.1c-23.7,19.4-46.6,39.7-69.7,59.9c-3.4,2.9-6.2,3.8-10.6,2.4
				c-9.7-3.1-9.8-2.8-9.8-13c0-2.3,0-4.6,0-7.6c5.4,1.2,10.7,3.7,15.2,2.8c4.4-0.8,8.1-5.2,12.8-8.5c0,4.6,0,8.4,0,13.4
				c9.5-8.1,18.2-15.5,27.6-23.5c-5.2-1.4-9.6-2.5-15.6-4.1c6.5-3.4,9.2-9.4,16.3-10.1c3.2-0.3,6.1-4.2,9.8-6.9c0,4.2,0,7.6,0,12.1
				c7.8-6.6,14.7-12.5,22.4-19c-4.8-1-8.9-1.9-13.3-2.8C-8.3,4.5,1.1,3.2,7.9-2.6z"/>
			<path class="st9" d="M-15.8-13c-19.3,13.8-38,27.2-56.6,40.5c-8.7,6.2-17.3,12.3-25.9,18.6c-1.8,1.3-3.1,3.4-5.3,5.8
				c-2.3-0.6-5.8-1.3-9.2-2.4c-1.3-0.4-3.3-1.5-3.4-2.5c-0.2-1.2,1-3,2.2-3.8c6.6-4.7,13.4-9.2,20.1-13.9
				C-74.4,16-54.6,2.8-35.4-11.1C-29-15.7-23.2-15.8-15.8-13z"/>
			<path class="st9" d="M-151.9,40.1c-2.1-0.5-5.4-1.1-8.5-2.2c-1.4-0.4-2.4-1.7-3.6-2.7c1-1.2,1.7-2.8,2.9-3.5
				c19.8-11.9,39.7-23.6,59.6-35.4c8.4-5,16.9-10,25.3-15c8.1-4.8,8.1-4.8,19-2c-2,1.3-3.4,2.2-4.8,3.1
				C-89.8-0.3-117.7,17-145.5,34.3C-147.5,35.6-149.1,37.6-151.9,40.1z"/>
			<path class="st9" d="M-122.4,50.7c0,4.6,0,8.6,0,12.7c4.8-0.3,7.1-6.9,13.3-4.9c-4.2,3.1-7.7,5.8-11.4,8.3
				c-1.2,0.8-3.1,1-4.5,0.7c-4.7-1-9.3-2.5-14-3.4c-3.4-0.7-4.8-2.1-4.6-5.6c0.2-4.1,0.1-8.3,0.1-12.9
				C-136.6,47.2-129.7,48.9-122.4,50.7z"/>
			<path class="st9" d="M-160.5,46c-4.8,3-8.6,6.9-12.9,7.7c-4.3,0.8-9.2-1.5-13.8-2.7c-0.4-0.1-0.7-1.4-0.8-2.2
				c-0.1-4.6,0-9.3,0-13.9c0.3,0,0.4-0.1,0.6-0.1c4.1,1.1,9.5,1.1,11.9,3.8c2.2,2.4,1.1,7.8,1.5,12c3.8-1.9,7.2-3.7,10.8-5.4
				C-162.8,45.1-162.1,45.5-160.5,46z"/>
		</g>
	</g>
</g>
<g id="Layer_7" class="st0">
	<g id="_x37_vCEl6_1_" class="st1">
		<g>
			<path class="st4" d="M121.1,56.7c0,8.7,0.1,17.4-0.1,26c-0.1,2.5,0.7,3.7,3,4.6c5.7,2.3,11.3,4.9,17.1,7.3c2,0.8,2.8,2,2.7,4.1
				c-0.1,4.3,0.1,8.6-0.1,12.8c-0.1,1.2-1,2.7-2,3.3c-2.3,1.4-4.8,2.4-7.3,3.2c-1.2,0.4-3,0.3-4-0.4c-6-4.3-11.1-0.6-16.1,1.9
				c-0.8,0.4-1.1,2.5-1,3.8c0.3,2.9-0.7,4.7-3.5,5.5c-1.4,0.4-2.8,0.9-4,1.7c-4.1,2.5-8,2.4-12.3,0.2c-1.4-0.8-3.8-0.5-5.4,0.1
				c-3.7,1.3-7.1,3.1-10.7,4.5c-2.1,0.8-3.3,1.9-2.9,4.3c0.6,3.4-0.9,5.4-4.2,6.1c-0.3,0.1-0.7,0.2-1,0.4c-5.8,4.5-11,1.2-16-1.6
				c-1.1-0.6-1.6-3.1-1.6-4.6c0-2.5-0.8-3.6-3-4.7c-3.7-1.8-7-2.6-10.9-0.3c-3,1.8-11.1-0.1-13.2-2.9c-0.8-1-0.7-2.7-0.7-4.1
				c-0.1-3.7-3.8-6.4-7.4-5.2c-0.2,0.1-0.5,0.2-0.6,0.3c-5,3.5-9.9,2.1-14.4-0.9c-1-0.7-2.1-2.1-2.1-3.3c-0.2-4.4-0.3-8.8,0-13.2
				c0.1-1.2,1.3-2.7,2.4-3.4c1.8-1.2,3.9-2.2,5.9-2.7c4.7-1.1,5.5-4,5.5-8.5c-0.2-20.2-0.1-40.4-0.2-60.5c0-2.8,1-4.1,3.4-5.2
				c16.1-6.8,32.1-13.8,48.1-20.5c1.5-0.6,3.8-0.6,5.4,0.1c15.8,6.6,31.4,13.5,47.2,20.1c3.1,1.3,4.4,2.9,4.3,6.5
				C120.9,39.8,121.1,48.3,121.1,56.7z M117.5,31.1c-1.2,0.4-2.1,0.5-2.8,0.8c-14.5,6.2-28.9,12.5-43.4,18.6c-2.2,1-2.6,2.3-2.6,4.5
				c0.1,19.9,0,39.8,0.1,59.8c0,0.9,0.2,1.8,0.3,3c0.9-0.2,1.5-0.3,2-0.6c14.6-6.3,29.1-12.6,43.7-18.8c2.4-1,2.8-2.4,2.8-4.8
				c-0.1-19.4,0-38.9,0-58.3C117.5,34.1,117.5,32.8,117.5,31.1z M16.4,30.8c0,22.1,0,43.3,0.1,64.6c0,1,1.4,2.4,2.5,2.9
				c14,6.1,28,12.1,42,18.1c3.3,1.4,4.2,0.8,4.2-2.7c0-19.7,0-39.3,0.1-59c0-2.4-0.9-3.4-3-4.2c-8.6-3.6-17.1-7.3-25.7-11
				C30.1,36.7,23.5,33.9,16.4,30.8z M43.9,38.6c6.1,2.6,11.6,4.7,16.8,7.4c4.2,2.2,7.9,2.5,12.2,0.1c3.6-2,7.5-3.3,11.3-5
				c9.9-4.3,19.7-8.5,30-13c-1-0.6-1.6-1-2.2-1.3c-6-2.6-11.9-5.3-18-7.7c-1.6-0.6-3.8-0.5-5.4,0.1C84,21,79.7,23.1,75.2,25
				C65,29.4,54.8,33.9,43.9,38.6z M86.8,16.1c-6.2-2.7-11.5-5.1-16.9-7.2c-1.7-0.6-4.1-0.8-5.7-0.1c-13.7,5.6-27.2,11.5-40.8,17.4
				c-1.1,0.5-2.2,1.1-4,1.9c5.4,2.4,10.2,4.1,14.7,6.5c3.7,2,6.9,1.8,10.5-0.1c3.2-1.7,6.6-2.9,10-4.4C65,25.6,75.4,21,86.8,16.1z
				 M140.1,100.4c-0.7,0-1.1-0.1-1.4,0c-24.2,10.3-48.4,20.6-72.5,31c-0.8,0.3-1.7,1.5-1.8,2.3c-0.2,3.2-0.1,6.5-0.1,9.9
				c6.1-1.2,6.2-1.3,6.3-6.5c0-2.2,0.9-3.3,2.8-4.1c7.2-3.1,14.5-6.2,21.7-9.4c4.5-2,6.2-3.6,6.2,3.8c0,0.2,0.2,0.4,0.4,0.6
				c4.5-1.3,9-2.3,7.8-8.9c-0.1-0.8,1.5-2.3,2.7-2.8c5.2-2.4,10.4-4.5,15.7-6.8c5.6-2.4,5.6-2.4,6.6,3.7c0,0.2,0.3,0.3,1.1,0.9
				c1.4-1.2,3.9-2.3,4.2-3.9C140.6,107.1,140.1,103.7,140.1,100.4z M136.5,97.4c0-0.3,0.1-0.6,0.1-0.9c-3-1-6.1-3.1-8.9-2.8
				c-2.8,0.3-6.9,1.1-7.2,5.7c0,0.5-1.3,1-2.1,1.3c-16.5,7.1-32.9,14.2-49.4,21.2c-0.9,0.4-2.1,0.9-2.7,0.6
				c-4.7-2.5-7.9,1.3-11.8,2.8c3.7,0.7,6.1,4.7,10.7,2.7c15.5-6.8,31.2-13.4,46.7-20.1C120.2,104.4,128.4,100.9,136.5,97.4z
				 M60.8,143.7c0-2.7-0.2-5.2,0-7.6c0.3-2.9-0.7-4.3-3.4-5.4c-16.4-6.9-32.6-14.1-49-21.2c-1.8-0.8-3.7-1.4-5.9-2.3
				c0,3,0.2,5.5-0.1,7.9c-0.5,3.7,1.4,4.9,4.7,5.4c0.1-0.8,0.1-1.4,0.1-2c0.2-4.1,0.8-4.5,4.6-2.9c4,1.7,8,3.6,12,5.1
				c2.5,1,3.8,2.4,3.4,5.2c-0.7,3.9,1.5,5.1,4.9,5.4c0.1-0.6,0.2-1.1,0.2-1.6c0.3-4.7,0.7-5,4.9-3.2c5.1,2.2,10.3,4.3,15.3,6.7
				c1.2,0.6,2.5,2.6,2.4,3.7C54.2,141.4,56.6,143,60.8,143.7z M45.4,114.2c-5.8-4-9.1-3.8-14.8,0.6
				C35.7,119.4,40.5,117.2,45.4,114.2z M33.1,109c-5.4-4.1-8.5-4-14.6,0.5C23.5,114,28.3,112,33.1,109z M6.3,104.1
				c5.2,4.8,9.8,2.3,14.5-0.3C16,99.8,13.8,99.9,6.3,104.1z M57.6,119.3c-6.2-3.9-9.4-3.7-14.6,0.8
				C48.1,124.9,52.8,122.2,57.6,119.3z"/>
			<path class="st4" d="M32.6,49.1c0.9,0.3,1.8,0.6,2.7,1c4.6,1.9,9.2,3.7,13.6,6c1.1,0.6,2.2,2.8,2,3.9c-0.4,2-2.3,2.6-4.3,1.7
				c-5-2.2-10.1-4.1-15-6.5c-1-0.5-1.8-2.4-1.9-3.8c-0.1-1.2,0.8-2.5,1.3-3.7C31.6,48.2,32.1,48.6,32.6,49.1z"/>
		</g>
	</g>
</g>
<g id="Layer_8" class="st0">
	<g id="KC6iOP_1_" class="st3">
		<g>
			<path class="st4" d="M0,109.7c1.9-0.3,3.8-0.6,6-0.9c0.1-1.2,0.1-2.6,0.2-4.4c-1.9-0.2-3.7-0.4-5.7-0.6c0.3-2,0.5-3.7,0.8-5.7
				c2.2,0,4.2,0,6.4,0c0-1.8,0-3.2,0-4.9C6,93,4.3,92.9,1.8,92.7C4,87.2,5.9,82.1,8.1,77.2c0.4-0.9,1.8-1.1,2.7-1.1
				c3.4-0.1,6.8-0.1,10.5-0.1c0.7-13.5,1.4-26.6,2.1-39.9c-3.4-1.2-1.8-5-2.1-8.2c9.8,0,19.4-0.7,28.9,0.2c7,0.6,12,7.2,14.6,16.5
				c4,14.4,7.3,29.1,11.2,43.5c1.2,4.4,3.2,8.4,5.2,12c0.8,1.4,2.8,1.3,4.8,2.1c0-2.4,0-3.8,0-5.2c0-16.7,0.7-33.6-0.3-50.2
				c-0.5-8.2-1.1-16.4-1.4-24.5c-0.1-2.7-1.1-5.4-1.8-8.6c4.7,0,8.6,0,12.8,0c0,3.9,0,7.6,0,11.7c1.7,0.2,3.2,0.3,5,0.5
				c0,10.1-1.3,52-4.8,51.4c0,9.4,0,17.7,0,26c1.4,0.2,2.7,0.3,3.9,0.5c0,10.6,0,20.8,0,31.2c-1.1-0.1-1.9-0.2-2.8-0.3
				c-0.7-16.9-6.8-26.6-15.7-25.6c-10,1.1-14.7,11.4-13.5,29.7c-2.3-0.3-5.2,2.2-5.6-4c-9.6,0-18.9,0-28.3,0
				c-1.3-14.8-6.4-22.7-14.2-22.5c-7.8,0.2-12.6,7.9-13.8,22.3c-2.1,1.1-3.3-0.1-3.8-3.1c-0.6-3.8-1.2-7.6-1.8-11.4
				C0,116.7,0,113.2,0,109.7z M64.6,113.4c-3.4,0-6.8,0.1-10.2,0c-1.2,0-2.5-0.2-3.5-0.9c-6.1-4.5-12.2-9.1-18.2-13.8
				c-0.7-0.6-1.5-2.1-1.6-3.2c-0.4-8.3-0.6-16.7-0.8-25.1c0-1,0.6-2.7,1.1-3c3-1.7,5.8,0.3,6.7,4.8c0.7,3.7,1.2,7.6,1.8,11.8
				c0.9,0,1.8,0,2.7,0c7.2,0.1,8.6,1.9,9.6,12.5c0.3,3.2,0.8,6.3,1.1,9.4c4.5,0,8.7,0,13.3,0c-3.7-9.2-7.2-18-10.8-27
				c0.8-1,1.6-1.9,2.2-2.7c-0.5-1.4-0.8-2.5-1.2-3.7c0.9-0.9,1.6-1.6,2.2-2.2c0.8,1.3,1.3,2.2,1.8,3.2c1-0.8,1.9-1.4,2.8-2.1
				c1.9,3.2,3.8,6.2,5.6,9.2c0.3-0.2,0.6-0.4,0.8-0.7c-3.3-11.4-6.4-22.9-10-34.1c-1.7-5.2-5-9.2-8.9-9.6
				c-7.7-0.8-15.5-0.2-23.5-0.2c-1,20.2-2,40.4-3,60.6c0,1.1,0.9,2.8,1.7,3.4c5.4,4.3,11,8,16.3,12.6c5.5,4.7,11.1,7.1,17.5,6.3
				C62.8,118.3,64.3,117.7,64.6,113.4z M87.8,27.3c-0.2,0.6-0.5,1.2-0.7,1.8c1.7,1.1,3.3,2.3,5,3.4c0.2-0.6,0.4-1.3,0.7-1.9
				C91.1,29.5,89.5,28.4,87.8,27.3z M91.9,26.3c0.2-0.5,0.5-1.1,0.7-1.6c-1.2-2.2-3.2-2.7-5-3.6c-0.2,0.5-0.4,0.9-0.6,1.4
				C88.7,23.7,90.3,25,91.9,26.3z M88,33.6c-0.2,0.4-0.4,0.8-0.6,1.2c0.8,3.3,3.2,2.8,4.8,4c0.2-0.4,0.4-0.9,0.6-1.3
				C91.1,36.2,89.6,34.9,88,33.6z"/>
			<path class="st4" d="M143.4,57.8c0.1,9.2,0.2,18.5,0.3,27.7c0,5.4,0,10.8,0,16.6c-15,0-29.7,0-44.8,0c0-14.9,0-29.6,0-44.2
				C113.8,57.8,128.6,57.8,143.4,57.8z M138.9,64.4c-9.8,0-19.4,0-29.1,0c1.9,2.4,3.9,5.3,6.2,5.5c7.6,0.6,15.2,0.2,22.9,0.2
				C138.9,67.9,138.9,66.2,138.9,64.4z M132.2,95.9c0.1-0.3,0.2-0.5,0.3-0.8c-2-1.6-4-4.5-6.1-4.7c-7.4-0.6-14.9-0.2-22.4-0.2
				c0,2.2,0,3.8,0,5.7C113.6,95.9,122.9,95.9,132.2,95.9z M104.1,81c0,2.5,0,4.4,0,6.4c6.5,0,12.7,0,19.1,0
				C117.9,78.5,110.9,81.1,104.1,81z M138.9,72.9c-6.8,0-13.2,0-20.1,0c5.9,8.8,13.2,4.5,20.1,5.7C138.9,76.4,138.9,74.8,138.9,72.9
				z M128.3,81.1c3.2,3.1,5.6,8.4,10.6,6.1c0-1.9,0-3.9,0-6.1C135.2,81.1,131.8,81.1,128.3,81.1z M113,78.2
				c-2.7-2.7-4.8-7.1-8.9-5.2c0,1.7,0,3.3,0,5.2C107.1,78.2,110,78.2,113,78.2z"/>
			<path class="st4" d="M78.8,143.6c-8.6-3.6-12.2-8.7-11.7-16.3c0.5-7.3,5.9-13.4,12.7-14.1c7.3-0.7,14.1,4.3,15.5,11.5
				c1.6,7.7-2.1,15.1-8.8,17.8c-0.9,0.4-1.8,0.7-2.6,1.1C82.2,143.6,80.5,143.6,78.8,143.6z M88.9,128.4c0-4.3-3.3-8-7.3-8.2
				c-4.1-0.1-7.8,3.8-7.7,8.2c0.1,4.3,3.5,7.9,7.6,7.9C85.5,136.4,88.8,132.8,88.9,128.4z"/>
			<path class="st4" d="M17.3,143.1c-4.2-1.6-7.7-4.2-9.3-9.2c-2.3-7.2,0.7-15,6.9-17.9c6.2-2.9,13.4,0.6,15.9,7.7
				c2.5,7.1-0.3,15-6.4,18.1c-0.8,0.4-1.6,0.8-2.4,1.3C20.4,143.1,18.8,143.1,17.3,143.1z M19.5,121.4c-3.8,0-7,3.5-6.9,7.8
				c0.1,4,3.2,7.6,6.7,7.7c3.8,0.1,6.8-3.4,6.8-7.9C26.1,124.6,23.3,121.4,19.5,121.4z"/>
			<path class="st4" d="M99.7,54.2c0-14.7,0-29.2,0-44c13.5,0,27,0,40.9,0c0,14.5,0,29.2,0,44C127,54.2,113.4,54.2,99.7,54.2z
				 M109.8,16.3c-0.1,0.3-0.2,0.5-0.4,0.8c1.8,1.6,3.5,4.4,5.4,4.5c7.2,0.5,14.4,0.2,21.6,0.2c0-2.1,0-3.7,0-5.5
				C127.4,16.3,118.6,16.3,109.8,16.3z M131,48.1c0.1-0.3,0.2-0.5,0.4-0.8c-1.9-1.7-3.7-4.5-5.6-4.7c-6.9-0.6-13.8-0.2-20.8-0.2
				c0,2.1,0,3.8,0,5.7C113.8,48.1,122.4,48.1,131,48.1z M121.7,39.3c-4.9-9-11.4-6.4-17.6-6.4c0,2.4,0,4.3,0,6.4
				C110.1,39.3,115.8,39.3,121.7,39.3z M136.4,24.9c-6.3,0-12.4,0-18.6,0c5.4,8.8,12.2,4.7,18.6,5.6
				C136.4,28.3,136.4,26.8,136.4,24.9z M136.3,39c0-1.9,0-3.9,0-5.9c-3.4,0-6.7,0-10.7,0C129.4,36.3,131.8,41.2,136.3,39z
				 M104.1,30.2c3.1,0,5.7,0,9.1,0c-3.2-2.9-5.3-7.1-9.1-5.2C104.1,26.7,104.1,28.3,104.1,30.2z"/>
			<path class="st4" d="M48.1,73.4c-0.8-1.2-1.4-2.1-2.2-3.3c3.8-2.9,7.5-5.6,11.4-8.6c0.7,1.1,1.3,2.1,2.1,3.3
				C55.7,67.7,52.1,70.4,48.1,73.4z"/>
		</g>
	</g>
	<rect x="93.5" y="104.5" class="st8" width="45.4" height="6.7"/>
</g>
<g id="Layer_9">
	<g id="Yi7mKX_1_">
		<g>
			<path class="st10" d="M85.9,97.2c0-26.6,0-52.9,0-79.1c-7.6-2.7-49.7-1.6-53.9,1.6c-0.1-2.1-0.2-3.9-0.3-6.3
				c10.1,0,19.9,0.6,29.7-0.1c15.9-1.1,30.9,1.3,45.4,10.3c10.5,6.5,21.7,11.1,32.5,16.9c1.4,0.7,3,3.2,3,4.9
				c0.2,17.1,0.1,34.2,0.1,51.9C123.7,97.2,105.2,97.2,85.9,97.2z"/>
			<path class="st10" d="M81.5,29.7c-3.8,2.4-7.7,4.8-12.3,7.7c3.4,0.7,6.2,1.3,9.6,2c0,14.1-0.1,28.2,0.1,42.2
				c0.1,5.5-1.6,11.5,3,16.2c1.2,1.3,0.4,5.5,0.5,9.3c-6.5-7.6-6.5-7.5-12.7-1.8c-0.6,0.6-1.5,1-2.2,1c-19,0.1-38,0-57.6,0
				c0.4-20-4.3-39.7,3.8-59.3c-2-0.2-3.5-0.5-4.8-0.4c-1.4,0.1-2.7,0.8-4.1,1.2c0.6,1.7,1.5,3.3,1.6,5c0.3,4.7,0.7,9.4,0.3,14.1
				c-0.3,3.2-1.9,6.2-2.7,8.9c-4.9-6.8-4.5-15.2-2-24.9c1.9-7.5,5.3-6.7,9.6-6.7c1.4,0,3.4-0.2,4.1-1.3c2.5-3.7,5.2-5.8,9.4-5.6
				c0.9,0,2.3-2.1,2.8-3.5c2.8-9.7,7.9-14.4,16.9-13.6c9.3,0.8,18.7,0.2,28,0.2C79.4,20.5,79.4,20.5,81.5,29.7z M61.8,75.1
				c-0.1,0.8-0.2,1.7-0.2,2.5c2.5,0.4,5.1,1.3,7.6,1.1c1.7-0.1,4.4-1.5,4.8-2.9c1.5-6.5,2.9-13.2,3.1-19.9c0.2-7.5-3.6-12.4-8-12.4
				c-15.8-0.1-31.7,0-47.5-0.2c-2.7,0-4.5,0.8-5.2,4.1c-1.3,5.8-2.6,11.5-4.1,17.2C11,69.1,12,70.8,16,71.8
				c14.1,3.3,28.2,2.8,42.1-0.5c1.5-0.4,3.4-3,3.6-4.9c0.8-6.1,0.9-12.3,1.3-18.5c2.9,0,5.5,0,9,0c-6.9,9-3.3,17.7-0.3,26.7
				C67.9,74.7,64.8,74.9,61.8,75.1z"/>
			<path class="st10" d="M9.8,126.9c0-5.5,0-10.2,0-15.2c19.2,0,38.1,0,57.8,0c0,4.2,0.4,8.4-0.2,12.4c-0.2,1.5-2.7,3.5-4.2,3.5
				c-11.8,0.6-23.6,0.9-35.4,0.9C21.9,128.5,15.9,127.5,9.8,126.9z M15.2,112c-1.7,1.5-2.9,2.5-4,3.4c1.5,1.1,3,2.6,4.7,3.1
				c0.7,0.2,1.9-1.7,2.8-2.7C17.6,114.7,16.6,113.6,15.2,112z M57.3,112.4c-3.1,1.1-5.3,1.9-7.6,2.7c0.6,1.2,1.1,3.4,1.7,3.4
				C53.8,118.6,56.9,119,57.3,112.4z"/>
			<path class="st10" d="M62.8,132.1c8.8,0.7,8.5-6.4,8-13.7c-0.1-1.6,0-3.4,0.6-4.7c1.3-2.9,3-5.5,4.6-8.3c1.4,2.7,3.8,5.3,4,8.2
				c0.4,6.7,0.2,13.6-0.5,20.3c-0.7,7.1-5.5,6.2-9.7,6.1C65.9,139.9,63,138.4,62.8,132.1z M76.7,111.1c-0.5,0-1,0-1.4,0
				c-2,7.7-2.1,15.3,0.1,22.9c0.4,0,0.9,0,1.3,0C76.7,126.4,76.7,118.7,76.7,111.1z"/>
			<path class="st10" d="M122.1,108.6c-11.5,0.8-23,1.6-35,2.4c-0.1-2-0.1-3.6-0.2-4.9c12,0,23.5,0,35.1,0
				C122.1,107,122.1,107.8,122.1,108.6z"/>
			<path class="st10" d="M127.7,100.7c4,5.9,5.3,19.6,2,23c-1.9,1.9-5.5,1.8-8.3,1.5c-1.6-0.1-3.1-2.3-5.5-4.2
				c9.3-2.4,9.2-2.4,10-12.6C126,106.1,126.9,104,127.7,100.7z"/>
			<path class="st10" d="M122.1,115.2c-11.3,3.5-23,3.9-34.9,6.8c-0.1-2-0.2-3.6-0.4-5.5c11.9-1.4,23.4-2.7,34.8-4
				C121.8,113.4,122,114.3,122.1,115.2z"/>
			<path class="st10" d="M134.7,100.9c4,3.4,5.5,12.5,3.6,18.8c-0.5,1.8-2.7,2.8-4.1,4.2c-0.5-0.4-0.9-0.8-1.4-1.2
				C133.5,115.7,134.1,108.6,134.7,100.9z"/>
			<path class="st10" d="M34.2,132.3c-0.5,8.8-5.4,6.7-9.3,7.1c-4.4,0.4-5.8-2.5-6-7.1C24,132.3,28.9,132.3,34.2,132.3z"/>
		</g>
	</g>
</g>
</svg>
