<?xml version="1.0" encoding="utf-8"?>
<!-- Generator: Adobe Illustrator 24.0.1, SVG Export Plug-In . SVG Version: 6.00 Build 0)  -->
<svg version="1.1" id="Layer_1" xmlns="http://www.w3.org/2000/svg" xmlns:xlink="http://www.w3.org/1999/xlink" x="0px" y="0px"
	 viewBox="0 0 152 152" style="enable-background:new 0 0 152 152;" xml:space="preserve">
<style type="text/css">
	.st0{fill:#7E7E7E;}
</style>
<g>
	<path class="st0" d="M152,81c-1.03,2.03-2.26,3.99-3.05,6.12c-1.55,4.19-4.38,5.51-8.16,3.38c-3.91-2.2-6.42-0.99-8.86,2.18
		c-1.41,1.83-3.08,3.52-4.84,5.03c-3.81,3.28-7.09,6.58-3.28,11.93c0.26,0.37,0.35,1,0.25,1.45c-1.54,7.25-8.61,6.08-13.28,8.42
		c-3.18,1.59-4.48-1.19-5.44-4c-1.95-5.69-4.75-7.42-10.69-6.17c-4.01,0.85-5.62-0.08-7.31-4.08c-1.6-3.77-5.4-6.61-8.24-9.86
		c-0.53,0.24-1.06,0.47-1.59,0.71c0.75-3.1,1.51-6.2,2.25-9.28c23.24,4.4,39.42-4.97,41.25-23.5c1.71-17.28-11.33-32.14-28.36-32.33
		c-19.33-0.22-29.55,13.99-27.83,39.15c-1.63,0.43-3.33,0.91-5.05,1.31c-1.61,0.38-3.25,0.67-4.14-0.12
		c-3.71-3.02-7.59-5.86-11.04-9.15c-1.15-1.1-1.81-3.47-1.58-5.11c0.69-4.92-0.88-7.95-5.77-9.38c-4.56-1.33-5.35-4.43-3.44-8.53
		c0.56-1.2,1.02-2.46,1.54-3.68c3.41-8.01,3.43-8.07,11.48-4.83c2.89,1.16,5.09,0.8,6.96-1.81c1.05-1.48,2.21-2.99,3.63-4.08
		c5.08-3.89,8.72-7.88,4.24-14.7c-1.68-2.57,0.24-4.74,2.81-5.91C67.61,2.73,70.82,1.39,74,0c1.33,0,2.67,0,4,0
		c0.79,1.98,1.14,4.35,2.47,5.84c1.83,2.06,4.22,4.44,6.7,4.92c4.1,0.8,8.51,0.45,12.73,0.03c1.35-0.13,2.82-1.81,3.73-3.13
		c1.66-2.41,2.94-5.09,4.37-7.66c1.33,0,2.67,0,4,0c2.32,1.14,4.6,2.37,6.97,3.39c5.65,2.42,5.84,3.13,4.16,9.01
		c-0.54,1.9-0.54,4.77,0.53,6.17c3.61,4.71,7.81,8.95,11.33,12.87c11.08-4.2,11.07-4.19,15.77,5.18c0.27,0.53,0.82,0.92,1.24,1.38
		c0,2.33,0,4.67,0,7c-5.62,2.87-10.77,4.81-10.32,13.7c0.42,8.29,1.85,13.53,10.32,15.3C152,76.33,152,78.67,152,81z"/>
	<path class="st0" d="M0,106c7.48-0.43,11.88-8.87,7.79-15.31c-2.2-3.46-0.49-5.44,1.79-7.72c2.38-2.37,4.52-2.86,7.38-0.64
		c4.11,3.19,13.2-0.24,14.59-5.31c1.3-4.75,6.35-7.03,10.72-4.62c0.92,0.51,1.65,2.01,1.82,3.15c0.96,6.19,8.89,10.55,14.39,7.38
		c3.34-1.93,5.6-1.81,8.16,1.03c2.46,2.73,2.99,5.12,0.79,8.4c-2.54,3.78,1.71,12.75,6.25,13.59c4.03,0.75,5.68,3.03,5.3,7.01
		c-0.34,3.54-1.4,6-5.8,5.77c-1.32-0.07-3.16,1.51-4.01,2.83c-1.24,1.91-2.35,4.22-2.5,6.42c-0.13,1.93,0.75,4.24,1.9,5.87
		c1.99,2.81,0.85,4.78-1.18,6.45c-2.09,1.71-3.59,5.2-7.47,2.67c-6.38-4.17-14.36-0.82-16.3,6.65c-0.21,0.8-0.42,1.59-0.64,2.39
		c-3.67,0-7.33,0-11,0c-0.45-2.56-0.03-6.1-1.56-7.46c-2.46-2.2-6.1-3.38-9.44-4.14c-1.49-0.34-3.54,1.19-5.17,2.16
		c-3.58,2.14-5.45-0.36-7.62-2.45c-1.91-1.83-2.6-3.47-0.9-6.02c4.4-6.56,0.52-14.87-7.32-16.09C0,114,0,110,0,106z M53.43,112.28
		c0.05-8.39-7.11-15.47-15.61-15.44c-8.36,0.03-15.24,6.84-15.29,15.15c-0.05,8.34,7.35,15.84,15.52,15.7
		C46.07,127.56,53.38,120.23,53.43,112.28z"/>
	<path class="st0" d="M110.83,60.26c-0.03,10.2-8.27,18.32-18.48,18.21c-10.25-0.1-18.26-8.27-18.18-18.54
		c0.08-10.29,8.12-18.16,18.49-18.1C102.98,41.89,110.86,49.88,110.83,60.26z"/>
</g>
</svg>
